<svg xmlns="http://www.w3.org/2000/svg" width="150" height="50" viewBox="0,0,150,50"><rect width="100%" height="100%" fill="white"/><path d="M17 17 C70 35,81 14,143 45" stroke="#dc4b4b" fill="none"/><path fill="#de5399" d="M90.64 27.72L90.57 27.65L90.63 27.71Q88.26 27.59 86.99 29.09L87.11 29.22L87.12 29.22Q85.81 30.70 85.70 32.98L85.58 32.86L85.75 33.03Q85.47 35.53 86.31 36.48L86.43 36.61L86.32 36.49Q87.56 37.89 89.89 37.74L89.83 37.68L89.77 37.62Q94.35 37.26 94.73 34.25L94.89 34.40L94.90 34.42Q94.84 33.44 94.84 32.64L94.87 32.67L94.85 32.65Q94.84 30.67 93.70 29.14L93.75 29.19L93.75 29.20Q92.43 27.54 90.49 27.57ZM95.48 37.81L95.43 37.76L95.34 37.67Q93.91 39.86 89.53 40.08L89.57 40.13L89.52 40.08Q85.38 40.28 83.74 39.17L83.66 39.09L83.76 39.19Q82.80 38.27 82.65 36.55L82.69 36.60L82.68 36.59Q82.65 35.49 82.84 33.63L82.85 33.63L82.72 33.50Q83.20 29.19 84.42 27.36L84.47 27.42L84.51 27.46Q86.14 24.97 89.99 25.01L89.90 24.93L89.97 24.99Q92.50 25.05 94.79 27.38L94.70 27.29L94.75 27.34Q94.82 21.46 96.41 14.95L96.41 14.95L96.57 15.11Q98.43 14.65 100.29 13.81L100.33 13.85L100.35 13.86Q97.61 20.34 97.34 27.34L97.40 27.40L97.40 27.40Q97.03 34.49 99.17 41.08L99.14 41.06L99.10 41.01Q97.52 40.46 95.81 40.08L95.82 40.10L95.78 40.06Q95.50 38.79 95.35 37.69ZM98.39 43.16L98.39 43.16L98.37 43.14Q100.45 43.69 103.00 45.22L103.04 45.26L103.08 45.30Q99.39 38.26 99.24 29.96L99.12 29.84L99.18 29.91Q99.16 21.81 102.24 14.42L102.20 14.38L102.15 14.34Q101.54 14.86 100.09 15.51L100.11 15.53L100.11 15.52Q100.43 14.37 101.04 13.15L100.95 13.06L101.07 13.18Q98.51 14.08 96.07 14.65L96.23 14.81L96.19 14.77Q94.63 20.44 94.36 26.53L94.53 26.70L94.36 26.53Q92.40 24.64 89.88 24.53L89.97 24.62L89.89 24.53Q86.58 24.53 84.67 26.63L84.58 26.53L84.62 26.57Q83.00 29.02 82.58 33.71L82.58 33.71L82.55 33.68Q82.20 36.34 82.20 36.76L82.33 36.89L82.31 36.87Q82.25 38.48 83.39 39.54L83.40 39.55L83.39 39.55Q83.70 39.85 83.89 39.93L83.88 39.92L84.32 40.55L84.39 40.62Q85.34 41.95 88.31 42.22L88.23 42.14L88.31 42.22Q90.44 42.29 91.81 42.37L91.89 42.45L91.94 42.50Q96.02 42.58 97.73 41.24L97.87 41.38L97.76 41.27Q98.03 42.12 98.49 43.26ZM92.16 29.93L92.19 29.95L92.08 29.84Q93.27 30.00 94.10 30.50L94.02 30.41L94.11 30.50Q94.44 31.64 94.52 32.66L94.64 32.79L94.49 32.63Q94.90 36.97 89.87 37.31L89.92 37.35L89.78 37.21Q89.02 37.36 87.91 37.10L87.87 37.06L87.83 37.01Q87.72 36.53 87.65 36.00L87.48 35.83L87.53 35.88Q87.55 35.29 87.59 34.68L87.62 34.71L87.54 34.63Q87.80 31.16 90.43 30.17L90.48 30.22L90.58 30.32Q91.52 29.94 92.21 29.98Z"/><path d="M10 18 C56 35,57 42,134 10" stroke="#6f8be1" fill="none"/><path fill="#8e8ef0" d="M131.89 19.72L131.79 19.61L131.78 19.61Q129.79 19.71 128.84 19.86L128.97 20.00L128.83 19.85Q127.37 20.26 126.15 20.79L126.02 20.66L125.97 20.62Q122.63 22.22 122.51 26.90L122.52 26.91L122.51 26.90Q122.33 29.46 122.97 32.39L123.08 32.50L123.03 32.44Q123.83 36.40 127.45 37.58L127.52 37.66L127.55 37.68Q129.50 38.30 130.95 38.15L130.87 38.07L131.34 38.09L131.24 37.99Q131.40 37.96 131.59 38.00L131.58 37.99L131.74 38.15Q131.73 37.99 131.89 37.95L131.92 37.99L131.91 37.97Q134.52 37.69 135.89 37.12L136.01 37.24L132.38 33.65L132.38 33.64Q132.79 33.41 133.40 32.80L133.24 32.64L134.19 31.76L134.23 31.81Q136.03 33.84 138.01 35.89L138.11 35.99L137.98 35.86Q140.47 34.19 140.73 28.83L140.69 28.78L140.61 28.70Q140.79 27.90 140.79 26.98L140.70 26.89L140.79 26.98Q140.70 21.22 135.64 20.11L135.63 20.11L135.74 20.22Q134.43 19.90 131.92 19.75ZM144.68 41.80L144.51 41.63L144.63 41.75Q143.97 42.12 142.79 42.99L142.82 43.02L138.45 39.37L138.50 39.42Q135.93 40.55 131.67 40.58L131.72 40.64L131.73 40.65Q125.17 40.75 122.35 38.50L122.24 38.39L122.41 38.56Q120.53 36.68 120.07 33.71L119.98 33.62L120.07 33.71Q119.85 31.89 119.47 28.31L119.43 28.27L119.58 28.43Q119.48 27.60 119.36 25.85L119.48 25.97L119.45 25.93Q119.31 24.38 119.35 23.50L119.26 23.42L119.28 23.44Q119.43 20.43 121.18 18.87L121.20 18.89L121.07 18.76Q122.61 17.44 125.81 16.95L125.83 16.97L125.95 17.09Q128.26 16.54 131.15 16.62L131.22 16.68L131.25 16.72Q138.76 16.85 141.89 19.21L141.95 19.27L141.90 19.22Q144.03 21.32 143.77 26.23L143.76 26.22L143.84 26.30Q143.51 29.82 143.32 31.15L143.29 31.11L143.47 31.29Q142.64 35.61 140.32 37.93L140.31 37.92L140.50 38.11Q141.82 39.20 144.56 41.68ZM139.79 17.49L139.74 17.45L139.70 17.40Q137.82 16.82 131.31 16.32L131.19 16.20L131.26 16.27Q129.79 16.21 127.01 16.32L127.03 16.34L127.13 16.44Q122.95 16.71 120.70 18.69L120.64 18.63L120.64 18.63Q118.85 19.96 118.85 23.12L118.94 23.21L118.88 23.16Q118.84 23.95 118.99 25.66L119.02 25.69L119.17 25.84Q119.15 27.38 119.15 28.26L119.34 28.44L119.16 28.27Q119.41 30.11 119.79 33.69L119.70 33.60L119.86 33.76Q120.13 36.55 121.73 38.61L121.73 38.60L121.70 38.58Q122.04 39.41 123.25 40.55L123.32 40.61L123.31 40.60Q125.98 42.55 131.16 42.82L131.10 42.76L131.16 42.82Q131.63 42.95 134.03 43.06L134.03 43.07L134.02 43.05Q138.79 43.18 141.07 42.11L141.07 42.11L141.08 42.11Q141.85 42.70 146.57 46.28L146.67 46.38L146.54 46.25Q147.28 45.84 148.57 44.85L148.61 44.89L148.46 44.74Q147.71 44.18 146.91 43.50L146.90 43.49L145.07 41.84L145.21 41.84L145.22 41.84Q144.73 41.47 143.52 40.44L143.42 40.35L143.42 40.34Q145.37 37.88 145.37 33.35L145.45 33.43L145.40 33.38Q145.34 32.90 145.38 32.06L145.37 32.05L145.48 32.17Q145.57 31.38 145.57 30.96L145.39 30.78L145.39 30.78Q145.47 25.34 144.75 22.98L144.79 23.03L144.66 22.89Q144.34 21.66 143.46 20.59L143.41 20.54L143.52 20.65Q142.62 18.41 139.68 17.39ZM133.79 22.08L133.78 22.06L133.83 22.11Q137.86 21.99 139.68 23.59L139.71 23.61L139.62 23.53Q140.30 24.86 140.42 26.19L140.34 26.11L140.36 26.13Q140.50 27.45 140.42 28.82L140.36 28.76L140.24 28.64Q140.00 33.69 138.06 35.40L138.12 35.47L138.04 35.39Q136.78 34.13 134.27 31.39L134.32 31.44L134.30 31.41Q133.40 32.04 131.84 33.60L131.92 33.68L131.86 33.63Q132.46 34.26 133.60 35.44L133.66 35.49L133.49 35.44L133.53 35.48Q134.06 35.97 135.09 37.04L135.06 37.01L135.11 37.06Q134.12 37.33 131.80 37.63L131.74 37.58L131.21 37.58L130.86 37.65L130.76 37.58L130.90 37.73Q127.45 37.74 125.47 36.10L125.34 35.98L125.47 36.10Q124.39 33.96 124.43 30.84L124.41 30.82L124.46 30.86Q124.66 22.19 133.83 22.11Z"/><path fill="#e9c458" d="M26.99 39.91L26.83 39.75L26.93 39.85Q24.95 39.77 22.93 39.96L22.89 39.92L22.92 39.95Q23.57 34.70 23.57 29.86L23.69 29.99L23.54 29.83Q23.65 25.03 23.00 19.82L22.99 19.80L22.95 19.77Q18.42 19.43 15.23 17.75L15.16 17.69L14.53 16.02L14.52 16.02Q14.39 15.58 13.78 14.36L13.67 14.26L13.68 14.26Q18.83 17.02 24.84 17.21L24.78 17.14L24.69 17.05Q30.61 17.26 36.05 15.20L36.00 15.15L36.08 15.24Q35.43 16.72 34.79 18.54L34.65 18.41L34.63 18.39Q31.02 19.69 26.76 19.88L26.90 20.02L26.93 20.05Q26.63 24.97 26.63 29.92L26.71 30.00L26.67 29.95Q26.57 34.81 26.87 39.79ZM36.68 14.46L36.82 14.61L36.81 14.59Q31.02 16.91 24.81 16.72L24.80 16.70L24.79 16.69Q17.97 16.35 12.87 13.38L12.91 13.42L12.91 13.41Q13.69 14.73 14.98 18.00L14.95 17.97L15.06 18.08Q15.71 18.39 16.96 18.96L16.83 18.82L16.82 18.82Q17.13 19.58 17.47 21.10L17.45 21.08L17.49 21.12Q19.77 21.95 22.82 22.18L22.83 22.20L22.81 22.18Q23.31 25.98 23.31 29.75L23.23 29.68L23.19 29.64Q23.17 34.99 22.37 40.36L22.42 40.40L22.45 40.43Q24.08 40.27 24.61 40.27L24.71 40.37L24.57 40.23Q24.62 40.58 24.56 41.25L24.50 41.19L24.58 41.26Q24.51 41.92 24.51 42.26L24.43 42.19L24.54 42.29Q25.75 42.25 27.27 42.32L27.31 42.36L27.16 42.21Q28.19 42.37 30.02 42.52L29.94 42.44L29.98 42.48Q28.81 37.62 28.69 32.44L28.54 32.29L28.63 32.37Q28.56 27.13 29.10 22.22L29.04 22.16L29.02 22.14Q32.92 21.55 36.08 20.33L36.11 20.36L36.15 20.40Q36.76 17.93 37.79 15.88L37.84 15.93L37.94 16.03Q36.58 16.68 35.78 16.98L35.75 16.95L35.76 16.97Q36.21 15.70 36.78 14.56Z"/><path d="M16 22 C79 2,93 11,143 27" stroke="#40e740" fill="none"/><path d="M13 47 C85 17,88 45,146 46" stroke="#90bce9" fill="none"/><path fill="#e4bf52" d="M122.51 29.57L122.37 29.44L122.32 29.39Q121.34 28.82 120.69 28.86L120.56 28.74L120.50 28.68Q119.30 28.92 118.26 29.93L118.10 29.78L118.21 29.88Q117.09 30.82 117.21 32.19L117.30 32.29L117.24 32.23Q117.59 36.61 116.72 41.14L116.62 41.05L116.74 41.17Q114.45 41.54 113.34 42.07L113.42 42.15L113.29 42.02Q114.92 37.97 114.69 33.52L114.70 33.54L114.71 33.55Q114.48 29.05 112.76 24.97L112.74 24.95L112.59 24.80Q113.91 25.67 116.20 26.31L116.17 26.28L116.77 29.01L116.70 28.94Q117.42 26.09 121.69 26.09L121.67 26.07L121.62 26.03Q122.04 25.99 122.35 25.99L122.35 26.00L122.34 25.99Q123.57 25.91 124.82 26.60L124.80 26.58L124.80 26.58Q123.47 27.91 122.33 29.39ZM124.10 31.55L124.10 31.40L124.08 31.38Q125.07 30.31 126.75 27.88L126.71 27.84L126.68 27.81Q126.14 27.38 124.61 27.12L124.77 27.27L124.75 27.25Q125.00 26.86 125.46 26.25L125.49 26.27L125.43 26.22Q123.69 25.47 121.75 25.66L121.63 25.53L121.62 25.53Q119.79 25.83 119.06 26.10L118.92 25.95L118.95 25.98Q117.57 26.43 116.77 27.53L116.88 27.64L116.51 26.62L116.34 25.81L116.32 25.78Q114.09 25.53 112.11 24.20L111.96 24.05L112.04 24.13Q114.15 28.49 114.38 33.36L114.42 33.41L114.31 33.30Q114.60 38.27 112.85 42.80L112.95 42.90L112.84 42.79Q114.02 42.41 114.90 42.11L114.79 41.99L114.77 41.98Q114.45 43.03 113.96 44.10L114.14 44.28L114.01 44.14Q116.90 43.35 119.04 43.24L119.03 43.23L119.28 38.76L119.19 38.67Q119.38 36.50 119.38 34.25L119.39 34.26L119.36 34.24Q119.38 33.07 120.29 32.10L120.17 31.98L120.19 32.00Q121.24 31.16 122.38 31.09L122.35 31.06L122.23 30.93Q122.85 30.79 123.57 31.48L123.60 31.51L124.06 31.51ZM118.94 29.59L119.06 29.63L119.11 29.80L119.01 29.66Z"/><path fill="#6ccded" d="M80.96 39.83L81.04 39.91L78.98 39.80L78.95 39.77Q78.11 39.87 77.15 39.99L77.12 39.95L77.20 40.03Q77.77 33.82 77.77 29.82L77.76 29.82L77.79 29.85Q73.84 23.19 66.19 14.52L66.02 14.35L66.14 14.47Q67.94 15.47 71.29 16.27L71.22 16.20L71.25 16.22Q76.30 21.81 79.31 27.02L79.34 27.06L79.33 27.05Q82.25 21.40 86.63 16.38L86.69 16.44L86.76 16.51Q88.99 15.92 91.50 15.12L91.50 15.12L91.62 15.24Q85.63 21.39 80.75 29.80L80.69 29.74L80.67 29.72Q80.66 36.75 80.97 39.84ZM90.12 17.32L92.75 14.40L92.78 14.42Q89.65 15.56 86.53 16.02L86.49 15.97L86.57 16.05Q82.33 20.76 79.52 25.86L79.51 25.86L79.59 25.94Q77.47 22.30 74.27 18.41L74.27 18.41L74.22 18.36Q73.91 18.31 73.41 18.24L73.53 18.36L73.53 18.36Q72.78 17.49 71.25 15.81L71.28 15.84L71.29 15.85Q67.81 15.00 64.84 13.44L64.92 13.52L64.95 13.54Q72.53 21.88 77.29 29.80L77.41 29.93L77.26 29.77Q77.31 36.26 76.70 40.41L76.69 40.39L76.65 40.36Q77.30 40.24 78.74 40.13L78.86 40.25L78.92 41.34L78.93 41.34Q78.75 41.62 78.68 42.16L78.85 42.33L78.71 42.19Q82.29 42.23 84.04 42.42L84.14 42.52L84.08 42.46Q82.79 37.74 82.67 31.76L82.65 31.74L82.69 31.78Q87.05 23.31 93.60 15.96L93.55 15.91L90.05 17.25Z"/><path d="M16 27 C60 27,55 15,138 34" stroke="#52dada" fill="none"/><path fill="#714ed9" d="M62.25 14.15L62.20 14.11L62.22 14.12Q63.10 16.07 64.78 16.41L64.74 16.37L64.77 16.41Q65.30 16.52 65.99 16.33L66.00 16.34L66.00 16.34Q65.73 22.20 65.65 28.06L65.67 28.08L65.74 28.15Q65.62 33.85 65.85 39.79L65.89 39.83L65.98 39.93Q65.61 39.78 65.31 39.78L65.36 39.84L65.35 39.83Q63.72 39.75 62.42 41.58L62.51 41.67L62.45 41.61Q63.07 34.61 63.03 27.76L63.03 27.77L63.08 27.81Q62.97 20.88 62.13 14.03ZM62.03 42.75L62.15 42.88L61.97 42.69Q63.19 41.02 64.26 40.56L64.21 40.51L64.12 40.43Q64.03 41.44 64.03 42.42L64.19 42.59L64.12 42.51Q64.74 42.04 65.54 42.15L65.63 42.24L65.55 42.16Q67.60 42.49 68.82 45.20L68.91 45.29L68.82 45.21Q67.68 37.70 67.68 30.24L67.68 30.24L67.74 30.30Q67.68 22.51 68.51 15.20L68.51 15.19L68.46 15.14Q67.54 17.12 66.40 17.73L66.33 17.66L66.45 17.79Q66.42 16.72 66.50 15.66L66.50 15.66L66.51 15.67Q65.60 16.06 64.84 15.91L64.87 15.93L64.94 16.00Q62.61 15.47 61.62 12.61L61.74 12.73L61.69 12.68Q62.79 20.25 62.87 27.79L62.84 27.76L62.82 27.74Q62.93 35.24 62.06 42.78Z"/><path fill="#67e9e9" d="M103.37 25.04L103.33 25.00L103.38 25.04Q104.32 25.45 106.30 25.45L106.17 25.32L106.20 32.51L106.17 32.48Q106.28 36.82 106.40 39.71L106.43 39.74L106.37 39.68Q106.16 39.70 105.78 39.70L105.76 39.68L105.69 39.61Q104.29 39.66 102.84 40.99L102.76 40.91L102.81 40.96Q103.52 33.26 103.33 25.00ZM103.54 19.87L102.22 17.03L102.37 17.18Q103.93 16.15 104.65 15.20L104.62 15.17L104.63 15.18Q105.63 16.97 107.03 18.65L107.05 18.66L107.10 18.72Q106.22 20.16 104.85 22.29L104.79 22.23L104.84 22.28Q104.04 21.14 103.47 19.81L103.51 19.85ZM102.36 41.92L102.27 41.83L102.33 41.89Q103.20 40.66 104.45 40.17L104.46 40.17L104.45 40.17Q104.49 40.88 104.37 42.26L104.44 42.32L104.45 42.33Q105.06 42.03 105.71 42.03L105.68 42.00L105.77 42.09Q107.97 42.08 109.38 44.06L109.38 44.06L109.32 44.01Q108.19 36.78 108.26 26.62L108.17 26.53L108.09 26.44Q107.40 26.71 106.57 26.82L106.48 26.74L106.57 24.96L106.66 25.05Q105.45 24.99 104.65 24.91L104.80 25.06L104.66 24.92Q103.90 24.92 103.02 24.42L103.03 24.43L103.07 24.47Q103.14 26.44 103.14 28.49L103.17 28.53L103.21 28.57Q103.19 35.59 102.32 41.87ZM104.89 22.94L104.82 22.87L104.94 22.61L105.22 22.59L105.11 22.48Q105.58 23.32 106.60 24.80L106.59 24.79L106.63 24.83Q107.94 22.45 109.28 18.91L109.33 18.97L109.30 18.93Q108.30 18.05 106.74 16.45L106.83 16.54L106.83 16.54Q106.60 16.62 106.33 17.07L106.40 17.14L106.31 17.05Q105.49 15.93 104.58 14.48L104.56 14.47L104.56 14.46Q103.17 16.16 101.99 16.50L101.86 16.37L101.94 16.45Q102.93 19.80 104.76 22.81Z"/><path fill="#e96bca" d="M48.76 14.12L48.77 14.13L48.75 14.10Q49.67 16.09 51.34 16.43L51.21 16.30L51.40 16.49Q51.76 16.43 52.45 16.24L52.60 16.40L52.57 16.37Q52.26 22.19 52.19 28.05L52.27 28.14L52.19 28.05Q52.16 33.85 52.39 39.79L52.53 39.93L52.50 39.90Q52.12 39.75 51.82 39.75L51.82 39.76L51.80 39.74Q50.37 39.86 49.07 41.69L49.09 41.70L49.11 41.72Q49.78 34.78 49.74 27.93L49.63 27.82L49.73 27.91Q49.59 20.97 48.76 14.11ZM48.67 42.85L48.62 42.80L48.56 42.73Q49.68 40.96 50.74 40.50L50.68 40.44L50.73 40.49Q50.73 41.60 50.73 42.59L50.73 42.58L50.70 42.55Q51.44 42.19 52.24 42.31L52.16 42.23L52.17 42.23Q54.26 42.62 55.48 45.32L55.48 45.31L55.51 45.34Q54.19 37.67 54.19 30.21L54.22 30.24L54.33 30.35Q54.22 22.51 55.06 15.20L55.14 15.28L55.02 15.16Q54.15 17.19 53.01 17.79L52.94 17.73L52.93 17.72Q53.00 16.76 53.08 15.69L52.99 15.61L52.99 15.60Q52.28 16.19 51.51 16.03L51.52 16.04L51.43 15.95Q49.23 15.53 48.24 12.68L48.17 12.62L48.28 12.72Q49.31 20.22 49.38 27.76L49.30 27.67L49.27 27.65Q49.45 35.21 48.57 42.75Z"/><path fill="#d34f70" d="M9.60 28.83L9.60 28.84L9.61 28.84Q7.22 29.01 6.19 30.19L6.02 30.01L6.12 30.11Q5.06 31.26 5.06 33.89L5.06 33.89L4.99 33.82Q5.07 39.00 9.68 38.81L9.69 38.83L9.68 38.81Q11.71 38.94 13.06 37.38L13.05 37.36L13.09 37.41Q14.53 35.93 14.30 33.88L14.30 33.88L14.35 33.92Q14.35 31.38 13.47 30.35L13.34 30.22L13.41 30.28Q11.91 28.94 9.70 28.94ZM14.76 38.75L14.72 38.71L14.66 38.65Q13.45 41.10 8.77 41.10L8.85 41.18L7.38 41.15L7.37 41.14Q5.06 41.20 3.95 40.05L3.84 39.94L3.86 39.96Q2.81 38.91 2.54 36.51L2.72 36.69L2.64 36.61Q2.48 35.12 2.41 33.33L2.34 33.26L2.37 33.29Q2.44 32.41 2.29 30.47L2.23 30.42L2.26 30.44Q2.19 26.18 7.37 26.18L7.29 26.11L8.86 26.12L8.77 26.02Q11.69 26.05 13.78 27.34L13.92 27.49L13.79 27.35Q14.61 27.87 15.11 28.56L15.03 28.48L15.09 28.54Q15.35 27.73 15.88 26.09L15.91 26.12L15.91 26.12Q17.14 25.95 19.46 25.34L19.50 25.37L19.52 25.39Q16.88 29.57 16.88 34.83L16.80 34.74L16.90 34.84Q16.86 38.53 18.23 41.62L18.35 41.73L18.33 41.72Q17.20 41.42 15.29 41.19L15.16 41.05L15.28 41.17Q15.09 40.34 14.78 38.78ZM17.93 43.83L18.05 43.94L20.31 44.57L20.21 44.47Q21.53 44.88 22.52 45.33L22.48 45.29L22.46 45.28Q18.84 40.97 18.84 34.88L18.79 34.83L18.78 34.82Q18.79 30.30 20.92 26.49L20.84 26.41L20.90 26.47Q20.30 26.74 18.96 27.12L18.99 27.15L18.95 27.10Q19.33 26.39 20.21 24.86L20.15 24.80L20.14 24.80Q19.56 24.97 15.56 25.81L15.57 25.82L15.01 27.66L15.06 27.71Q13.13 25.82 8.71 25.59L8.83 25.70L8.74 25.62Q7.72 25.74 5.47 25.89L5.36 25.78L5.47 25.88Q1.67 26.13 1.79 30.16L1.82 30.20L1.95 30.32Q2.07 33.64 2.64 38.10L2.57 38.02L2.66 38.53L2.55 38.42Q2.64 39.23 3.43 40.33L3.58 40.48L3.53 40.43Q3.70 40.60 3.89 40.71L3.84 40.66L3.87 40.69Q4.18 41.23 4.56 41.81L4.59 41.83L4.44 41.68Q5.82 43.18 9.21 43.37L9.26 43.42L9.24 43.40Q10.94 43.58 11.09 43.58L11.06 43.54L12.59 43.52L12.60 43.52Q15.86 43.58 17.08 42.02L17.03 41.98L17.09 42.03Q17.50 42.71 18.11 44.01ZM11.41 31.10L11.44 31.13L11.49 31.18Q12.71 31.07 13.55 31.53L13.59 31.57L13.63 31.61Q13.93 32.41 13.93 33.85L13.95 33.87L13.87 33.79Q14.22 35.85 12.94 37.28L12.94 37.28L12.96 37.29Q11.62 38.66 9.72 38.47L9.62 38.38L9.60 38.35Q8.21 38.40 7.18 37.99L7.27 38.08L7.30 38.11Q6.95 37.11 6.95 35.89L6.94 35.88L7.05 35.99Q7.18 32.47 9.81 31.52L9.73 31.44L9.75 31.46Q10.63 31.12 11.43 31.12Z"/><path fill="#4ddfbb" d="M32.74 19.23L32.72 19.20L32.70 19.18Q33.92 23.75 34.07 26.95L33.96 26.84L33.95 26.83Q34.40 26.82 38.78 26.93L38.96 27.12L38.95 27.11Q41.40 27.04 41.78 23.58L41.70 23.50L41.70 23.50Q42.06 21.92 41.14 21.00L41.02 20.87L41.07 20.93Q39.76 20.00 37.78 19.85L37.73 19.80L37.74 19.80Q34.64 19.71 32.77 19.26ZM34.12 28.83L34.01 28.72L34.18 28.89Q34.21 34.74 32.42 40.68L32.59 40.85L32.46 40.71Q31.21 41.03 28.62 42.05L28.56 42.00L28.70 42.13Q31.53 35.64 31.19 28.18L31.18 28.17L31.04 28.03Q30.86 20.81 27.55 14.30L27.50 14.25L27.45 14.19Q32.39 17.08 39.35 17.08L39.30 17.03L39.36 17.09Q45.06 17.15 45.33 20.69L45.34 20.71L45.22 20.58Q45.33 21.23 45.25 21.84L45.31 21.90L45.10 22.90L45.23 23.03Q44.25 26.81 42.12 28.52L42.20 28.61L42.21 28.62Q41.48 29.37 40.45 29.37L40.44 29.36L37.83 29.34L37.82 29.33Q43.32 36.47 47.85 41.03L47.91 41.10L47.93 41.12Q45.77 40.40 42.84 40.05L42.78 39.99L42.69 39.91Q38.93 35.96 34.02 28.72ZM42.64 40.36L42.74 40.45L42.94 40.34L44.27 41.68L44.18 41.59Q44.83 42.21 45.48 42.81L45.42 42.76L45.44 42.77Q48.99 43.39 52.56 45.25L52.65 45.33L52.65 45.34Q45.73 38.61 40.33 31.68L40.33 31.68L42.05 31.66L41.91 31.51Q45.10 31.62 46.43 27.09L46.37 27.03L46.34 27.00Q47.17 24.93 47.17 22.23L46.99 22.05L47.01 22.07Q47.04 19.81 45.32 19.17L45.47 19.31L45.38 19.23Q45.32 18.90 44.75 18.22L44.75 18.22L44.71 18.17Q43.11 16.80 39.45 16.72L39.35 16.62L39.40 16.67Q31.51 16.51 26.83 13.50L26.83 13.51L26.88 13.55Q30.43 20.18 30.77 27.87L30.82 27.92L30.89 27.99Q31.29 36.01 28.17 42.86L28.08 42.77L28.00 42.69Q29.38 42.24 30.18 41.94L30.15 41.91L29.14 44.18L29.14 44.18Q31.91 43.17 34.57 42.68L34.52 42.63L34.54 42.65Q35.82 37.53 36.01 32.31L36.01 32.31L36.03 32.33Q39.46 37.21 42.62 40.33ZM41.39 22.43L41.43 22.47L41.49 22.52Q41.37 22.64 41.37 22.98L41.40 23.01L41.54 23.72L41.41 23.59Q41.43 24.71 40.74 25.66L40.77 25.69L40.86 25.78Q40.20 26.49 39.29 26.68L39.25 26.64L39.24 26.64Q38.98 26.64 37.38 26.68L37.34 26.64L37.49 26.79Q36.79 26.70 35.95 26.58L35.93 26.56L36.01 26.65Q35.83 25.05 35.49 22.01L35.63 22.15L35.64 22.16Q36.99 22.29 37.67 22.29L37.71 22.33L37.57 22.19Q39.43 22.22 41.37 22.41Z"/></svg>