<svg xmlns="http://www.w3.org/2000/svg" width="150" height="50" viewBox="0,0,150,50"><rect width="100%" height="100%" fill="white"/><path fill="#7793e8" d="M133.52 29.84L133.51 29.83L133.60 29.92Q131.12 29.83 129.79 31.05L129.71 30.97L129.70 30.97Q128.31 32.13 128.62 34.64L128.65 34.67L128.67 34.69Q129.01 37.24 130.23 38.50L130.28 38.56L130.24 38.51Q131.22 39.76 133.35 39.68L133.50 39.83L133.47 39.80Q133.89 39.65 134.08 39.65L134.22 39.78L134.10 39.67Q137.71 39.13 137.82 34.52L137.89 34.59L137.85 34.55Q137.85 32.11 137.16 31.31L137.12 31.27L137.29 31.44Q136.13 30.05 133.58 29.89ZM136.94 41.67L136.86 41.59L136.88 41.61Q135.55 42.18 133.99 42.11L134.03 42.14L134.06 42.18Q130.17 42.33 128.88 39.74L128.91 39.77L128.88 39.74Q128.63 45.01 127.29 49.27L127.45 49.43L127.46 49.44Q125.63 49.89 123.99 50.61L123.89 50.51L123.95 50.57Q126.42 44.52 126.16 37.55L126.21 37.60L126.16 37.56Q126.10 30.91 123.21 24.86L123.16 24.80L123.02 24.67Q125.14 26.02 126.85 26.48L126.68 26.31L127.37 27.95L127.35 27.93Q127.40 28.21 127.66 29.31L127.72 29.37L127.66 29.30Q128.63 27.19 132.21 27.00L132.16 26.96L132.23 27.02Q133.12 27.00 134.00 27.00L134.00 27.01L134.44 26.95L134.60 27.11Q134.67 27.07 134.86 27.11L134.80 27.05L135.21 27.15L135.15 27.09Q137.27 27.42 138.00 27.65L137.97 27.63L138.02 27.68Q139.51 28.13 140.38 29.08L140.27 28.97L140.35 29.05Q141.08 30.13 141.04 31.54L141.05 31.54L141.14 31.63Q141.14 34.48 140.34 37.15L140.21 37.02L140.39 37.20Q139.27 40.61 136.91 41.64ZM141.08 42.16L141.27 42.31L141.27 42.31Q142.21 40.16 142.51 36.05L142.57 36.11L142.52 36.06Q142.78 34.42 142.78 33.16L142.75 33.13L142.79 33.17Q142.84 31.70 142.08 30.29L141.92 30.13L141.91 30.12Q141.60 29.77 141.10 29.39L141.02 29.31L140.81 28.98L140.64 28.70L140.60 28.54L140.69 28.63Q138.91 26.55 134.57 26.55L134.62 26.60L134.05 26.64L134.02 26.61Q129.29 26.52 127.65 28.12L127.76 28.23L127.81 28.27Q127.50 27.63 127.35 27.13L127.41 27.19L127.21 26.19L127.10 26.08Q124.71 25.55 122.50 24.07L122.37 23.94L122.35 23.92Q125.58 30.20 125.89 37.43L126.01 37.56L125.93 37.48Q126.27 44.78 123.42 51.25L123.39 51.23L125.38 50.37L125.34 50.32Q125.09 51.07 124.41 52.63L124.50 52.72L124.42 52.64Q127.06 51.51 129.39 51.17L129.47 51.26L129.40 51.19Q130.57 46.42 130.72 42.69L130.77 42.74L130.73 42.70Q132.23 44.27 135.85 44.50L135.72 44.37L135.73 44.39Q139.74 44.70 141.19 42.26L141.15 42.23ZM135.59 32.25L135.40 32.06L135.47 32.12Q136.24 32.17 137.34 32.52L137.16 32.34L137.26 32.43Q137.59 33.49 137.56 34.67L137.56 34.67L137.48 34.60Q137.56 35.59 137.37 36.24L137.26 36.13L137.31 36.18Q136.49 38.98 133.98 39.28L134.13 39.43L134.24 39.43L134.10 39.29Q134.13 39.39 134.02 39.43L133.98 39.40L133.53 39.48L133.38 39.33Q132.20 39.33 131.21 38.83L131.27 38.90L130.98 36.89L130.81 36.72Q130.73 34.47 132.03 33.44L132.06 33.48L132.05 33.47Q133.14 32.46 135.53 32.19Z"/><path d="M4 21 C59 6,70 41,130 12" stroke="#dd8e40" fill="none"/><path d="M13 40 C87 25,66 28,133 30" stroke="#73e44d" fill="none"/><path fill="#8260eb" d="M32.89 23.31L32.96 23.38L32.83 23.25Q31.19 19.25 24.99 19.44L24.86 19.31L25.00 19.45Q20.57 19.56 18.59 21.01L18.52 20.93L18.48 20.89Q16.23 22.79 16.23 26.90L16.10 26.77L16.19 28.73L16.17 28.71Q16.17 37.54 25.19 37.54L25.16 37.51L25.13 37.48Q27.30 37.59 28.78 36.79L28.77 36.77L28.74 36.75Q30.45 35.61 30.30 33.74L30.48 33.92L30.49 33.93Q30.12 31.66 26.43 30.74L26.56 30.88L24.58 30.84L24.51 30.76Q23.65 30.86 22.70 30.90L22.68 30.88L22.64 30.84Q22.75 30.00 22.71 28.09L22.63 28.01L22.66 28.04Q30.28 28.01 34.47 27.67L34.56 27.76L34.52 27.72Q34.40 28.47 34.40 29.27L34.35 29.22L34.41 29.29Q34.45 30.12 34.48 30.92L34.42 30.86L34.53 30.97Q33.28 30.82 33.28 30.82L33.32 30.86L33.38 30.92Q31.92 30.83 32.30 30.83L32.29 30.82L32.26 30.79Q33.41 32.47 33.79 34.45L33.77 34.43L33.84 34.50Q33.89 35.16 33.89 35.61L33.95 35.67L33.93 35.66Q33.90 40.27 25.10 40.27L25.19 40.36L25.09 40.25Q18.00 40.29 15.41 38.19L15.46 38.24L15.43 38.21Q13.45 35.85 13.45 30.79L13.49 30.83L13.55 30.89Q13.38 29.64 13.22 26.94L13.37 27.09L13.33 27.05Q13.20 24.71 13.23 23.34L13.28 23.38L13.28 23.38Q13.20 20.33 14.57 18.73L14.66 18.82L14.65 18.82Q17.15 16.71 22.03 16.52L22.04 16.53L24.74 16.49L24.76 16.52Q27.87 16.42 31.29 16.84L31.31 16.86L31.33 16.88Q35.09 17.36 36.04 20.59L35.94 20.49L35.95 20.51Q34.98 21.48 32.88 23.30ZM34.23 25.45L34.46 25.57L34.47 25.58Q35.58 24.40 37.45 22.42L37.48 22.46L37.52 22.49Q37.22 21.54 36.23 19.83L36.05 19.66L36.10 19.70Q34.92 17.04 31.12 16.40L31.09 16.37L31.18 16.46Q28.99 16.28 24.68 15.98L24.68 15.98L21.96 16.07L22.06 16.17Q16.79 16.27 14.20 18.25L14.25 18.30L14.23 18.28Q13.00 20.05 12.88 23.14L12.76 23.01L12.74 23.00Q12.90 22.69 13.12 28.18L13.09 28.14L13.01 28.06Q13.03 29.42 13.11 32.16L13.17 32.22L13.19 32.23Q13.40 36.71 15.15 38.65L15.18 38.68L15.15 38.66Q15.41 39.37 16.29 40.25L16.26 40.22L16.42 40.38Q19.17 42.10 24.69 42.44L24.71 42.46L27.56 42.61L27.66 42.71Q29.27 42.84 31.29 42.72L31.21 42.65L31.18 42.61Q32.63 42.54 34.72 42.00L34.90 42.18L34.79 42.08Q36.74 41.59 36.70 39.27L36.62 39.19L36.66 39.22Q36.80 38.11 35.73 35.33L35.61 35.21L35.66 35.25Q35.31 34.30 34.78 33.50L34.78 33.50L34.76 33.48Q35.48 33.63 36.66 33.82L36.52 33.68L36.55 33.70Q36.34 30.19 36.38 29.51L36.39 29.51L36.38 29.51Q35.95 29.45 35.53 29.41L35.63 29.51L35.50 29.38Q35.19 29.42 34.81 29.50L34.84 29.52L34.73 29.42Q34.70 28.28 34.78 27.22L34.93 27.37L34.84 27.28Q28.57 27.78 22.29 27.67L22.26 27.64L22.28 27.66Q22.22 28.48 22.22 29.40L22.23 29.40L22.31 31.23L22.31 31.23Q22.68 31.23 23.10 31.19L23.17 31.26L23.11 31.19Q23.56 31.22 24.01 31.22L24.00 31.20L23.92 31.13Q24.02 31.68 24.06 32.18L23.96 32.08L24.06 32.18Q24.10 32.68 24.07 33.18L24.07 33.18L23.90 33.01Q25.15 33.20 26.18 33.16L26.11 33.09L26.03 33.01Q27.13 33.09 28.16 33.12L28.13 33.09L28.11 33.07Q29.10 33.26 29.97 33.64L30.12 33.79L30.01 33.72L30.03 33.73Q30.32 35.40 28.65 36.31L28.55 36.22L28.58 36.24Q26.89 37.15 25.18 37.15L25.09 37.06L25.13 37.10Q21.42 37.23 18.98 35.48L18.99 35.48L18.92 35.42Q18.01 33.44 18.16 30.89L18.05 30.77L18.18 30.91Q18.43 26.06 20.28 24.06L20.29 24.07L20.20 23.98Q22.02 21.95 26.70 21.65L26.82 21.77L26.77 21.72Q30.38 21.44 32.32 23.23L32.46 23.37L32.41 23.32Q32.53 23.49 32.65 23.68L32.49 23.52L32.68 23.60L32.58 23.50Q33.38 24.41 33.95 25.51L33.87 25.43L34.16 25.38Z"/><path fill="#dada5c" d="M102.14 36.96L102.14 36.96L102.06 36.87Q103.25 37.84 104.65 37.68L104.66 37.69L104.63 37.66Q107.65 37.93 108.29 34.58L108.24 34.53L108.16 34.45Q108.82 31.35 108.82 27.96L108.91 28.05L108.78 25.33L108.87 25.41Q108.89 24.18 108.54 22.92L108.48 22.85L108.42 22.79Q107.27 25.19 105.29 29.95L105.31 29.97L105.33 29.99Q103.26 34.65 102.04 36.86ZM107.16 20.47L107.10 20.40L107.20 20.51Q105.91 19.56 104.58 19.56L104.63 19.61L104.56 19.55Q103.20 19.51 102.09 20.43L102.09 20.42L102.04 20.37Q100.87 21.22 100.68 22.70L100.83 22.86L100.72 22.75Q100.51 24.25 100.47 25.73L100.35 25.61L100.31 25.57Q100.44 25.70 100.44 28.56L100.29 28.40L100.31 28.43Q100.44 30.92 100.90 34.54L100.90 34.54L100.88 34.52Q102.73 29.71 107.11 20.42ZM108.65 39.21L108.75 39.30L108.58 39.14Q106.89 40.11 104.57 40.11L104.69 40.23L103.05 40.23L102.90 40.08Q99.75 40.17 98.61 38.45L98.55 38.39L98.51 38.35Q97.85 36.33 97.78 33.40L97.77 33.39L97.67 33.29Q97.66 31.57 97.59 28.10L97.66 28.18L97.53 28.05Q97.67 27.00 97.51 23.96L97.50 23.94L97.41 23.85Q97.27 21.51 97.58 19.53L97.55 19.50L97.54 19.50Q98.05 16.58 102.39 16.35L102.46 16.42L102.53 16.48Q103.29 16.44 104.62 16.48L104.57 16.43L104.49 16.35Q110.21 16.56 111.28 20.02L111.40 20.14L111.35 20.09Q111.97 22.01 111.93 23.87L111.79 23.72L111.96 23.90Q111.72 28.72 111.64 29.94L111.74 30.04L111.68 29.98Q111.61 33.90 111.30 35.20L111.29 35.18L111.16 35.05Q110.56 38.22 108.65 39.21ZM113.68 39.05L113.57 38.95L113.68 39.06Q113.76 36.13 113.73 34.34L113.86 34.48L113.74 29.83L113.73 29.82Q113.74 26.90 113.21 21.38L113.04 21.21L113.18 21.35Q112.64 19.51 111.34 18.75L111.21 18.62L111.41 18.81Q109.78 16.20 104.60 16.05L104.63 16.08L104.66 16.10Q103.67 15.95 102.34 15.99L102.38 16.04L102.29 15.95Q97.78 16.03 97.28 19.16L97.32 19.19L97.36 19.23Q97.05 21.63 97.17 23.73L97.05 23.61L97.04 23.60Q97.36 27.96 97.33 31.31L97.41 31.39L97.45 31.43Q97.41 35.12 97.52 36.14L97.43 36.05L97.48 36.11Q97.74 39.07 99.27 39.87L99.28 39.88L99.44 40.04Q100.76 42.08 104.75 42.35L104.87 42.46L104.90 42.50Q108.45 42.70 109.10 42.66L109.03 42.59L109.10 42.66Q111.84 42.40 112.99 40.80L112.96 40.78L113.03 40.84Q113.53 40.16 113.61 38.98ZM105.02 37.29L105.07 37.33L105.10 37.37Q105.76 35.90 106.83 33.20L106.81 33.18L108.48 28.90L108.44 28.87Q108.42 30.52 108.04 33.87L108.15 33.98L108.08 33.91Q107.40 36.77 105.00 37.27ZM103.13 25.08L103.12 25.07L103.00 24.95Q103.42 23.13 104.11 22.56L104.12 22.57L104.25 22.69Q104.74 22.31 106.03 22.12L105.89 21.97L105.95 22.04Q104.20 25.65 102.33 30.30L102.30 30.27L102.41 30.38Q102.45 27.72 103.14 25.09Z"/><path fill="#e59175" d="M48.73 14.89L48.62 14.78L48.68 14.83Q49.83 17.13 51.77 17.13L51.75 17.11L51.64 17.00Q52.12 16.98 52.54 16.83L52.58 16.87L52.58 16.87Q52.36 21.98 52.32 28.37L52.46 28.51L52.43 28.48Q52.45 34.78 52.64 40.04L52.58 39.98L52.61 40.01Q52.28 39.91 51.90 39.91L51.77 39.78L51.86 39.86Q50.35 39.73 48.94 41.59L49.12 41.77L49.01 41.67Q49.62 34.88 49.58 28.18L49.54 28.15L49.58 28.19Q49.67 21.62 48.76 14.91ZM48.44 42.70L48.61 42.86L48.50 42.76Q49.42 41.23 50.60 40.51L50.66 40.58L50.56 40.47Q50.57 41.47 50.49 42.53L50.61 42.66L50.45 42.49Q51.30 42.09 52.06 42.20L52.07 42.21L52.04 42.18Q54.08 42.39 55.45 45.17L55.49 45.22L55.60 45.32Q54.33 37.89 54.33 30.61L54.42 30.70L54.32 30.61Q54.33 23.08 55.13 15.96L55.08 15.91L55.24 16.07Q54.06 17.74 53.00 18.39L53.09 18.49L53.06 18.46Q52.96 17.63 53.07 16.26L53.18 16.37L53.23 16.42Q52.41 16.81 51.64 16.70L51.60 16.66L51.50 16.56Q49.13 16.28 48.10 13.38L48.23 13.51L48.22 13.50Q49.27 20.94 49.38 28.10L49.41 28.13L49.32 28.04Q49.59 35.36 48.60 42.86Z"/><path d="M19 21 C88 35,67 34,132 38" stroke="#6a8aeb" fill="none"/><path d="M15 22 C57 40,78 20,132 25" stroke="#7858d9" fill="none"/><path fill="#e54242" d="M111.50 41.12L111.45 41.07L111.44 41.07Q114.60 36.80 121.30 28.88L121.30 28.89L121.28 28.86Q115.35 29.06 111.58 27.69L111.68 27.79L111.70 27.81Q110.93 26.28 110.17 24.87L110.28 24.99L110.23 24.93Q114.29 26.41 118.75 26.44L118.70 26.39L118.81 26.51Q123.20 26.48 127.38 25.41L127.46 25.49L127.44 25.47Q126.93 26.03 126.67 26.56L126.80 26.69L126.82 26.71Q124.26 28.91 121.44 32.52L121.48 32.56L116.56 38.76L116.43 38.63Q118.75 38.52 121.00 38.59L121.05 38.64L121.07 38.67Q123.11 38.57 125.35 38.95L125.39 38.98L125.50 39.10Q125.50 39.55 126.22 41.57L126.19 41.54L126.24 41.59Q122.55 40.79 118.55 40.90L118.60 40.96L118.55 40.91Q114.70 41.12 111.04 42.30L111.01 42.27L110.87 42.14Q111.00 42.03 111.46 41.08ZM110.47 42.91L110.41 42.85L110.29 42.73Q111.16 42.50 112.76 42.08L112.73 42.05L112.67 41.99Q112.50 42.28 112.08 42.70L112.06 42.67L112.00 42.62Q111.95 43.36 111.34 44.50L111.25 44.42L111.21 44.38Q115.96 43.07 120.95 43.22L120.99 43.27L120.89 43.17Q125.95 43.43 130.52 45.30L130.50 45.28L130.55 45.32Q129.08 43.44 128.17 41.39L128.04 41.26L128.19 41.41Q127.38 41.05 126.31 40.82L126.30 40.82L126.30 40.81Q126.10 40.08 125.72 38.63L125.63 38.55L125.72 38.63Q124.16 38.30 120.59 38.18L120.67 38.26L120.65 38.25Q123.06 34.94 128.08 28.59L127.97 28.47L127.92 28.42Q128.26 27.77 128.95 26.44L129.02 26.51L126.67 27.21L126.69 27.23Q126.67 27.06 126.82 26.95L126.94 27.06L127.17 26.91L127.11 26.85Q127.49 25.71 128.06 24.76L128.21 24.90L128.14 24.84Q123.43 26.14 118.71 26.06L118.73 26.08L118.73 26.09Q113.88 25.96 109.39 24.13L109.53 24.27L109.40 24.14Q110.62 26.05 111.42 28.11L111.46 28.14L111.51 28.19Q112.28 28.43 113.34 28.69L113.32 28.67L113.34 28.69Q113.57 29.42 113.88 30.86L113.90 30.89L113.85 30.83Q115.47 31.12 118.78 31.27L118.81 31.31L118.70 31.19Q116.26 34.46 111.08 40.90L111.18 41.00L111.15 40.97Q110.89 41.54 110.32 42.76Z"/><path fill="#4beb4b" d="M38.37 41.45L38.21 41.29L38.31 41.39Q35.49 41.61 34.23 41.08L34.13 40.98L34.09 40.94Q32.19 40.18 32.26 37.71L32.25 37.69L32.32 37.76Q32.48 34.38 32.48 34.95L32.48 34.96L32.45 34.92Q32.39 29.53 29.53 24.70L29.58 24.74L29.53 24.69Q31.54 25.67 33.52 26.05L33.48 26.02L33.46 26.00Q35.27 30.70 35.15 35.19L35.19 35.22L35.07 35.10Q34.95 36.62 35.78 37.84L35.82 37.88L35.78 37.84Q36.71 39.18 38.23 38.99L38.17 38.93L38.60 38.87L38.72 38.99Q40.01 38.87 40.83 38.10L40.70 37.97L40.86 38.13Q41.53 37.23 41.53 36.27L41.52 36.26L41.67 36.41Q41.64 36.15 41.60 35.96L41.55 35.92L41.55 35.91Q41.44 30.63 42.59 26.29L42.67 26.38L42.68 26.38Q43.71 26.31 44.70 26.08L44.74 26.12L46.67 25.54L46.73 25.60Q44.12 30.57 44.43 36.12L44.46 36.16L44.52 36.22Q44.59 39.18 42.87 40.32L42.92 40.36L42.97 40.42Q41.60 41.22 38.29 41.37ZM40.59 43.75L40.71 43.87L40.70 43.86Q44.13 43.98 45.96 43.21L45.91 43.17L45.86 43.11Q46.88 42.46 46.88 41.05L46.83 41.00L46.83 41.00Q46.78 40.03 46.51 38.47L46.46 38.42L46.55 38.52Q46.04 35.34 46.42 32.33L46.43 32.34L46.56 32.47Q46.85 29.22 48.26 26.48L48.20 26.42L48.18 26.40Q47.71 26.88 46.38 27.30L46.19 27.12L46.33 27.26Q46.48 26.56 46.78 25.99L46.83 26.04L47.34 24.84L47.47 24.96Q45.52 25.60 42.36 26.10L42.25 26.00L42.20 25.94Q41.02 30.77 41.17 35.87L41.20 35.91L41.19 35.89Q41.33 38.05 38.66 38.55L38.62 38.50L38.34 38.68L38.05 38.55L37.22 38.51L37.28 38.57Q37.00 37.50 37.04 37.00L37.20 37.16L37.09 37.05Q37.31 32.54 36.62 28.13L36.66 28.17L35.58 28.00L35.67 28.09Q35.10 28.01 34.56 27.90L34.46 27.80L34.60 27.94Q34.12 26.43 33.86 25.67L33.94 25.75L33.82 25.63Q31.18 25.36 28.94 24.06L28.90 24.02L28.79 23.91Q30.99 27.49 31.72 30.88L31.62 30.78L31.64 30.80Q32.26 33.13 32.11 36.64L32.00 36.53L32.11 36.64Q32.06 36.70 31.99 37.81L32.09 37.91L32.03 37.85Q31.76 40.09 33.13 41.04L33.17 41.09L33.26 41.17Q33.61 43.39 40.61 43.77Z"/><path d="M8 44 C59 23,68 41,139 23" stroke="#9352d5" fill="none"/><path fill="#b43bdc" d="M100.17 23.32L100.14 23.28L100.20 23.34Q98.37 19.16 92.16 19.35L92.29 19.47L92.25 19.44Q87.78 19.49 85.80 20.94L85.83 20.97L85.85 20.99Q83.35 22.64 83.35 26.75L83.45 26.86L83.39 28.66L83.46 28.73Q83.51 37.61 92.54 37.61L92.45 37.52L92.35 37.43Q94.60 37.62 96.08 36.82L95.91 36.64L96.01 36.75Q97.77 35.65 97.61 33.78L97.68 33.84L97.68 33.85Q97.44 31.70 93.75 30.79L93.71 30.75L91.88 30.86L91.82 30.80Q90.93 30.87 89.98 30.90L89.88 30.80L90.03 30.95Q90.01 29.98 89.97 28.08L89.99 28.10L89.83 27.94Q97.59 28.04 101.78 27.70L101.80 27.73L101.79 27.72Q101.74 28.54 101.74 29.34L101.65 29.25L101.70 29.30Q101.64 30.04 101.68 30.84L101.77 30.93L101.66 30.82Q100.73 31.00 100.73 31.00L100.67 30.93L100.63 30.89Q99.20 30.84 99.58 30.84L99.61 30.87L99.53 30.78Q100.63 32.42 101.01 34.40L101.12 34.51L101.04 34.43Q101.12 35.12 101.12 35.58L101.11 35.56L101.28 35.74Q101.18 40.28 92.38 40.28L92.50 40.40L92.46 40.35Q85.31 40.32 82.72 38.23L82.74 38.24L82.74 38.25Q80.71 35.83 80.71 30.77L80.66 30.72L80.68 30.74Q80.73 29.73 80.58 27.02L80.62 27.06L80.55 26.99Q80.44 24.68 80.48 23.31L80.52 23.35L80.54 23.37Q80.61 20.47 81.98 18.87L81.93 18.82L81.90 18.79Q84.53 16.81 89.40 16.62L89.44 16.66L91.95 16.43L91.95 16.43Q95.20 16.48 98.62 16.90L98.57 16.85L98.63 16.90Q102.33 17.34 103.29 20.57L103.20 20.49L103.32 20.60Q102.23 21.46 100.14 23.29ZM101.46 25.40L101.73 25.56L101.76 25.59Q102.87 24.42 104.74 22.44L104.65 22.35L104.62 22.33Q104.45 21.51 103.46 19.79L103.42 19.76L103.45 19.78Q102.33 17.18 98.52 16.53L98.36 16.37L98.51 16.52Q96.36 16.38 92.06 16.08L91.93 15.95L89.28 16.12L89.33 16.17Q84.22 16.43 81.63 18.41L81.57 18.35L81.55 18.32Q80.23 20.02 80.12 23.10L80.03 23.02L80.07 23.05Q80.19 22.71 80.42 28.19L80.34 28.12L80.26 28.03Q80.34 29.45 80.41 32.19L80.42 32.20L80.35 32.13Q80.67 36.71 82.42 38.65L82.33 38.56L82.43 38.66Q82.66 39.35 83.54 40.22L83.59 40.28L83.52 40.21Q86.50 42.16 92.02 42.50L92.02 42.51L94.95 42.73L94.97 42.74Q96.51 42.80 98.52 42.68L98.62 42.78L98.49 42.65Q99.95 42.59 102.04 42.05L102.03 42.04L102.15 42.16Q104.04 41.62 104.00 39.30L104.03 39.32L103.98 39.27Q104.03 38.07 102.96 35.29L102.86 35.18L102.88 35.20Q102.55 34.26 102.02 33.46L102.01 33.45L102.11 33.56Q102.63 33.50 103.81 33.69L103.93 33.81L103.96 33.85Q103.65 30.22 103.68 29.53L103.55 29.40L103.51 29.36Q103.28 29.51 102.86 29.47L102.73 29.34L102.90 29.51Q102.42 29.38 102.04 29.45L102.02 29.44L101.99 29.40Q102.06 28.37 102.14 27.30L102.16 27.33L102.05 27.21Q95.74 27.68 89.46 27.57L89.49 27.60L89.57 27.68Q89.68 28.66 89.68 29.58L89.66 29.56L89.60 31.25L89.54 31.19Q90.06 31.33 90.48 31.29L90.42 31.23L90.35 31.16Q90.83 31.22 91.28 31.22L91.21 31.14L91.24 31.18Q91.37 31.76 91.41 32.26L91.32 32.17L91.25 32.10Q91.32 32.63 91.28 33.12L91.26 33.10L91.32 33.16Q92.36 33.13 93.39 33.09L93.40 33.11L93.42 33.13Q94.37 33.05 95.40 33.09L95.43 33.12L95.42 33.11Q96.50 33.39 97.38 33.77L97.37 33.76L97.33 33.77L97.33 33.76Q97.45 35.26 95.78 36.17L95.74 36.13L95.80 36.19Q94.11 37.09 92.39 37.09L92.52 37.22L92.53 37.23Q88.54 37.08 86.11 35.33L86.09 35.31L86.20 35.42Q85.16 33.32 85.31 30.77L85.37 30.82L85.40 30.86Q85.63 25.98 87.47 23.98L87.47 23.97L87.43 23.94Q89.45 22.11 94.13 21.81L94.10 21.78L94.09 21.77Q97.63 21.42 99.57 23.21L99.65 23.29L99.73 23.38Q99.69 23.37 99.81 23.56L99.89 23.64L99.95 23.60L100.03 23.67Q100.53 24.29 101.10 25.39L101.12 25.41L101.52 25.47Z"/><path fill="#42d58c" d="M15.04 41.28L15.03 41.27L12.07 41.17L11.98 41.08Q9.58 40.96 8.78 40.84L8.73 40.80L8.90 40.96Q6.89 40.44 5.71 39.56L5.84 39.70L5.72 39.57Q4.47 38.21 4.25 34.86L4.18 34.80L4.24 34.86Q4.27 34.43 4.19 33.21L4.15 33.17L4.17 33.19Q4.19 32.79 4.12 31.69L4.04 31.61L4.14 31.71Q4.03 30.81 4.07 30.08L4.13 30.14L4.03 30.04Q4.34 28.22 5.36 27.45L5.30 27.39L5.22 27.31Q7.22 26.23 12.05 26.00L12.03 25.97L12.16 26.11Q14.11 25.92 14.91 25.92L14.87 25.88L14.82 25.83Q16.43 25.96 17.80 26.26L17.79 26.26L17.71 26.17Q17.13 27.42 16.59 29.24L16.57 29.22L16.57 29.22Q16.16 29.38 15.66 29.34L15.59 29.27L15.66 29.34Q15.62 29.37 15.09 29.26L15.00 29.17L14.16 29.06L14.01 28.90Q12.99 28.69 12.39 28.73L12.38 28.72L12.32 28.66Q7.58 28.72 6.97 31.54L6.98 31.55L7.06 31.63Q6.78 32.76 6.86 33.71L6.95 33.80L6.89 33.74Q7.11 36.39 8.34 37.48L8.19 37.32L8.35 37.49Q9.43 38.41 12.02 38.45L12.18 38.61L11.99 38.42Q13.54 38.53 14.27 38.22L14.32 38.28L15.32 37.75L15.40 37.84Q15.85 37.52 16.42 37.45L16.42 37.44L16.38 37.40Q16.65 39.23 17.03 40.53L17.03 40.53L17.07 40.57Q16.76 40.87 14.97 41.21ZM18.29 44.23L18.28 44.22L18.24 44.18Q18.68 44.28 19.52 44.35L19.43 44.26L19.43 44.26Q20.12 44.34 20.46 43.77L20.47 43.78L20.39 43.70Q19.32 41.75 18.82 39.66L18.72 39.56L18.79 39.62Q18.42 39.56 17.97 39.56L17.90 39.50L18.04 39.63Q17.50 39.52 17.12 39.71L17.24 39.82L17.16 39.75Q16.72 38.39 16.57 36.98L16.75 37.17L16.56 36.97Q15.98 36.93 14.76 37.50L14.83 37.57L14.76 37.50Q13.58 38.10 13.08 38.10L13.18 38.20L13.11 38.13Q12.58 38.10 11.97 38.06L12.10 38.19L11.98 38.07Q11.19 38.16 9.21 37.58L9.11 37.49L9.16 37.53Q8.87 36.86 8.91 35.72L8.94 35.75L8.95 35.76Q9.04 31.43 13.98 30.90L14.08 31.00L13.99 30.91Q14.68 30.91 16.05 31.25L16.12 31.32L15.97 31.17Q17.36 31.53 18.08 31.49L18.10 31.51L18.11 31.52Q18.65 29.40 19.34 27.57L19.14 27.38L19.29 27.52Q18.77 27.27 18.39 27.19L18.47 27.27L17.71 27.20L17.74 27.23Q17.94 26.75 18.33 25.87L18.39 25.94L18.32 25.87Q16.81 25.54 15.25 25.54L15.15 25.44L15.13 25.42Q12.82 25.51 8.44 25.89L8.46 25.91L8.52 25.97Q6.56 26.10 5.00 27.09L4.99 27.08L4.96 27.05Q3.71 27.97 3.71 29.87L3.62 29.78L3.64 29.81Q3.63 30.21 3.75 31.43L3.78 31.47L3.76 31.45Q3.94 32.58 3.90 33.19L3.86 33.14L3.91 33.20Q3.87 35.02 4.59 38.75L4.70 38.86L4.55 38.70Q4.99 39.61 5.49 40.10L5.50 40.11L5.69 40.31L5.77 40.35L5.85 40.42Q6.70 42.38 10.62 42.99L10.68 43.05L10.62 42.99Q13.88 43.58 16.54 43.85L16.44 43.75L16.55 43.86Q17.38 43.96 18.30 44.23Z"/><path fill="#d2ed81" d="M77.81 40.96L77.75 40.90L77.77 40.93Q73.74 29.82 68.60 24.83L68.59 24.82L68.49 24.71Q69.93 25.32 72.90 25.96L72.88 25.94L73.05 26.11Q76.46 29.91 79.01 36.57L79.11 36.67L79.10 36.66Q81.74 29.29 84.37 26.24L84.32 26.19L84.28 26.15Q86.29 26.07 88.72 25.38L88.77 25.42L88.64 25.30Q85.64 28.20 83.47 32.77L83.38 32.68L83.46 32.76Q82.97 33.30 79.58 40.91L79.59 40.92L79.57 40.90Q79.11 41.13 77.89 41.05ZM82.53 43.48L82.47 43.42L82.53 43.47Q85.86 31.16 90.43 26.48L90.30 26.35L88.91 26.94L88.81 26.84Q88.04 27.10 87.20 27.21L87.36 27.37L87.29 27.30Q87.64 26.77 88.46 25.90L88.62 26.06L88.54 25.98Q89.33 25.08 89.79 24.66L89.80 24.67L89.75 24.62Q87.54 25.27 84.12 25.76L84.11 25.76L84.25 25.90Q81.40 28.95 79.34 34.54L79.48 34.68L79.43 34.62Q77.79 30.44 75.96 27.96L75.93 27.93L75.35 27.88L75.38 27.91Q75.16 27.96 74.93 27.96L74.90 27.93L74.81 27.84Q74.65 27.56 72.94 25.51L73.02 25.59L73.07 25.65Q69.68 25.10 67.43 23.96L67.34 23.87L67.37 23.90Q73.57 29.68 77.56 41.40L77.59 41.44L78.61 41.46L78.56 41.41Q79.00 42.15 79.83 43.45L79.69 43.30L81.13 43.37L81.16 43.40Q81.75 43.27 82.39 43.34Z"/><path fill="#84b7eb" d="M65.86 40.11L66.02 40.27L66.00 40.25Q64.01 40.05 62.33 40.62L62.34 40.63L62.43 40.71Q62.97 37.10 63.08 33.98L63.02 33.92L62.98 33.88Q63.21 30.95 62.98 27.30L62.95 27.27L63.03 27.34Q61.61 26.95 60.85 26.57L60.74 26.46L60.45 23.55L60.30 23.39Q61.16 24.14 62.76 24.71L62.75 24.70L62.77 24.72Q62.42 22.47 62.00 19.73L62.05 19.78L62.05 19.78Q64.41 20.54 66.05 20.39L66.10 20.44L65.86 24.92L65.83 24.89Q67.28 24.85 68.61 24.36L68.61 24.35L68.65 24.40Q68.51 25.21 68.28 26.96L68.41 27.09L68.44 27.12Q66.94 27.49 65.91 27.49L65.74 27.31L65.82 27.40Q65.88 29.62 65.88 33.88L65.73 33.74L65.91 33.92Q65.85 38.01 65.93 40.18ZM69.12 23.88L69.02 23.78L69.09 23.84Q68.73 23.87 68.12 24.10L68.21 24.18L68.56 21.37L68.64 21.46Q67.78 21.70 66.37 21.93L66.29 21.85L66.41 21.97Q66.36 21.23 66.51 19.86L66.47 19.81L66.47 19.82Q65.98 20.01 65.41 20.01L65.39 19.99L65.32 19.93Q63.12 19.86 61.49 19.14L61.58 19.23L61.55 19.20Q62.08 21.72 62.35 24.19L62.35 24.19L62.39 24.23Q61.52 23.89 60.00 22.87L59.98 22.85L59.92 22.79Q60.26 24.08 60.49 26.78L60.59 26.88L60.47 26.77Q60.96 27.03 62.14 27.45L62.21 27.51L62.14 27.45Q62.22 28.13 62.26 29.54L62.27 29.55L62.64 29.58L62.66 29.53L62.72 29.58Q62.81 30.85 62.81 32.03L62.73 31.95L62.67 31.89Q62.70 36.87 61.90 41.21L61.91 41.22L62.00 41.31Q62.08 41.08 64.02 40.55L64.11 40.64L64.00 40.54Q64.15 41.33 64.04 42.71L63.96 42.63L64.08 42.75Q64.82 42.61 65.62 42.61L65.54 42.53L65.56 42.55Q67.38 42.66 69.02 43.23L68.94 43.15L68.86 43.07Q67.52 37.36 67.71 29.44L67.85 29.58L70.12 29.07L70.23 29.18Q70.36 28.32 70.44 27.29L70.32 27.18L70.62 25.26L70.63 25.27Q69.91 25.39 68.73 25.85L68.89 26.01L68.84 25.95Q69.00 24.48 68.93 24.14L68.93 24.14L69.08 24.29Q69.08 24.10 69.15 23.91Z"/></svg>