<svg xmlns="http://www.w3.org/2000/svg" width="150" height="50" viewBox="0,0,150,50"><rect width="100%" height="100%" fill="white"/><path fill="#bd67da" d="M30.84 41.19L30.68 41.03L30.74 41.09Q33.94 36.87 40.64 28.95L40.51 28.82L40.61 28.92Q34.77 29.21 31.00 27.84L31.02 27.85L30.87 27.71Q30.22 26.30 29.46 24.89L29.51 24.94L29.41 24.84Q33.70 26.54 38.15 26.57L37.99 26.41L38.09 26.52Q42.55 26.56 46.74 25.49L46.80 25.56L46.61 25.36Q46.22 26.04 45.95 26.57L46.02 26.64L46.06 26.68Q43.43 28.81 40.62 32.43L40.70 32.51L35.75 38.68L35.87 38.80Q37.95 38.44 40.19 38.52L40.30 38.62L40.23 38.55Q42.49 38.68 44.73 39.06L44.66 38.99L44.66 38.99Q44.82 39.60 45.54 41.61L45.50 41.58L45.60 41.68Q41.88 40.85 37.89 40.97L37.87 40.95L37.86 40.94Q33.96 41.11 30.30 42.29L30.21 42.20L30.21 42.20Q30.23 41.99 30.69 41.04ZM29.60 42.77L29.56 42.73L29.56 42.73Q30.48 42.54 32.08 42.12L32.01 42.05L32.00 42.05Q31.79 42.29 31.37 42.71L31.45 42.79L31.39 42.73Q31.18 43.32 30.57 44.46L30.49 44.38L30.46 44.36Q35.26 43.10 40.24 43.25L40.21 43.21L40.16 43.16Q45.21 43.42 49.78 45.28L49.65 45.16L49.70 45.20Q48.35 43.43 47.43 41.38L47.47 41.41L47.34 41.29Q46.72 41.13 45.66 40.90L45.61 40.85L45.59 40.83Q45.34 40.05 44.96 38.60L45.02 38.66L44.93 38.57Q43.49 38.35 39.91 38.24L39.98 38.31L39.80 38.12Q42.18 34.79 47.20 28.43L47.19 28.42L47.31 28.54Q47.61 27.85 48.29 26.52L48.14 26.36L45.99 27.26L45.98 27.25Q45.96 27.07 46.11 26.96L46.12 26.97L46.28 26.74L46.40 26.87Q46.81 25.76 47.38 24.81L47.45 24.87L47.30 24.72Q42.74 26.18 38.02 26.10L38.11 26.19L38.03 26.11Q33.28 26.08 28.79 24.25L28.64 24.11L28.66 24.12Q29.85 26.00 30.64 28.05L30.65 28.06L30.70 28.11Q31.58 28.45 32.64 28.72L32.66 28.74L32.57 28.65Q32.85 29.42 33.15 30.87L33.07 30.79L33.16 30.87Q34.63 31.01 37.94 31.16L38.06 31.28L37.96 31.18Q35.60 34.53 30.42 40.97L30.36 40.90L30.37 40.91Q30.26 41.64 29.69 42.86Z"/><path fill="#e5bf4c" d="M51.73 41.36L51.82 41.44L51.73 41.35Q48.82 41.49 47.56 40.96L47.58 40.98L47.69 41.08Q45.62 40.16 45.70 37.69L45.76 37.74L45.78 37.76Q45.94 34.39 45.94 34.96L45.97 34.98L45.92 34.94Q45.82 29.51 42.96 24.67L43.04 24.75L43.06 24.77Q44.98 25.66 46.96 26.04L47.08 26.16L47.01 26.10Q48.70 30.67 48.59 35.17L48.63 35.21L48.68 35.26Q48.50 36.72 49.34 37.94L49.24 37.84L49.29 37.89Q50.16 39.17 51.68 38.98L51.75 39.05L52.00 38.81L52.10 38.91Q53.37 38.77 54.19 38.01L54.19 38.01L54.17 37.99Q55.05 37.29 55.05 36.34L54.99 36.28L54.97 36.26Q55.10 36.16 55.06 35.97L54.92 35.83L55.09 36.00Q54.96 30.69 56.10 26.35L56.15 26.40L56.10 26.35Q57.04 26.18 58.03 25.96L58.17 26.10L60.07 25.48L60.07 25.48Q57.49 30.48 57.79 36.04L57.84 36.08L57.92 36.17Q58.03 39.17 56.32 40.31L56.28 40.27L56.28 40.27Q55.15 41.31 51.84 41.46ZM54.02 43.72L54.06 43.76L53.99 43.69Q57.57 43.96 59.40 43.20L59.44 43.24L59.34 43.14Q60.21 42.34 60.21 40.93L60.18 40.90L60.22 40.93Q60.34 40.15 60.08 38.59L60.07 38.58L60.09 38.60Q59.47 35.32 59.85 32.31L59.90 32.36L59.99 32.45Q60.24 29.16 61.65 26.42L61.75 26.52L61.77 26.54Q61.10 26.81 59.76 27.23L59.72 27.19L59.64 27.11Q60.00 26.63 60.30 26.06L60.24 26.00L60.75 24.79L60.78 24.82Q58.88 25.51 55.72 26.01L55.79 26.08L55.68 25.97Q54.46 30.76 54.61 35.86L54.60 35.85L54.76 36.01Q54.65 37.92 51.99 38.42L52.12 38.55L51.72 38.61L51.54 38.58L50.68 38.52L50.65 38.49Q50.55 37.58 50.58 37.09L50.47 36.98L50.54 37.04Q50.80 32.59 50.12 28.17L49.98 28.03L49.14 28.10L49.13 28.09Q48.51 27.97 47.97 27.86L47.95 27.83L47.98 27.86Q47.65 26.51 47.39 25.75L47.40 25.76L47.24 25.59Q44.59 25.31 42.35 24.02L42.22 23.89L42.39 24.06Q44.51 27.55 45.24 30.94L45.21 30.92L45.13 30.84Q45.73 33.15 45.58 36.65L45.44 36.52L45.46 36.53Q45.60 36.78 45.52 37.89L45.40 37.77L45.55 37.92Q45.38 40.26 46.75 41.21L46.62 41.08L46.78 41.24Q47.12 43.45 54.12 43.83Z"/><path d="M8 40 C79 34,62 12,149 8" stroke="#5fdd7e" fill="none"/><path d="M20 33 C79 49,85 23,147 48" stroke="#e3869d" fill="none"/><path fill="#e0e03c" d="M141.88 34.79L141.81 34.72L141.82 34.73Q141.84 38.32 138.68 39.62L138.69 39.64L138.61 39.55Q136.78 40.43 132.36 40.58L132.36 40.58L132.34 40.56Q127.60 40.73 125.36 39.55L125.33 39.52L125.34 39.53Q123.40 38.12 123.55 34.77L123.63 34.85L123.55 34.77Q123.63 34.20 123.82 32.22L123.91 32.32L123.80 32.20Q124.00 30.70 124.00 29.71L123.90 29.61L123.85 29.55Q124.01 21.72 119.82 14.29L119.85 14.32L119.69 14.16Q120.97 14.95 123.94 16.01L123.93 16.01L123.95 16.02Q126.72 22.64 126.72 30.02L126.80 30.10L126.82 30.13Q126.68 30.59 126.59 31.77L126.68 31.86L126.59 31.77Q126.55 33.01 126.55 33.62L126.60 33.67L126.58 33.65Q126.58 35.93 128.14 36.92L128.11 36.90L128.06 36.84Q129.82 37.77 132.79 37.77L132.80 37.78L132.80 37.77Q135.27 37.62 136.91 36.44L137.01 36.54L137.02 36.55Q138.80 35.14 138.65 32.63L138.77 32.75L138.68 32.66Q138.50 31.19 138.50 29.85L138.66 30.01L138.59 29.94Q138.54 22.85 140.94 16.34L141.02 16.42L143.27 15.92L143.22 15.87Q144.23 15.63 145.34 15.18L145.23 15.07L145.30 15.14Q141.49 22.18 141.49 29.75L141.51 29.78L141.54 29.80Q141.57 30.67 141.70 32.31L141.58 32.19L141.58 32.18Q141.88 33.99 141.88 34.79ZM144.03 35.68L143.87 35.53L144.02 35.68Q143.12 30.70 143.84 25.60L143.72 25.48L143.83 25.59Q144.55 20.37 146.95 15.99L147.02 16.06L146.86 15.90Q146.37 16.33 144.93 16.98L144.83 16.88L144.89 16.94Q145.14 15.97 145.94 14.41L146.05 14.52L145.93 14.40Q142.47 15.62 140.56 15.96L140.65 16.05L140.71 16.11Q138.25 22.52 138.25 29.79L138.29 29.83L138.27 29.81Q138.39 31.30 138.46 32.71L138.31 32.55L138.38 32.62Q138.51 35.00 136.72 36.22L136.78 36.27L136.82 36.32Q135.33 37.37 132.82 37.41L132.73 37.32L132.66 37.26Q129.89 37.31 128.45 36.55L128.55 36.65L128.44 36.54Q128.34 36.02 128.27 35.57L128.41 35.71L128.27 35.57Q128.29 35.14 128.41 34.64L128.53 34.77L128.34 34.57Q128.65 32.34 128.65 30.01L128.72 30.08L128.60 29.96Q128.59 24.13 127.07 18.23L127.15 18.31L127.13 18.29Q126.32 18.09 124.91 17.75L125.09 17.92L125.09 17.92Q124.55 16.47 124.09 15.55L124.23 15.69L124.23 15.69Q121.41 14.81 119.01 13.44L119.13 13.56L119.00 13.43Q123.55 20.96 123.55 29.67L123.57 29.69L123.55 29.67Q123.72 31.48 123.57 33.19L123.41 33.04L123.54 33.16Q123.31 35.56 123.39 36.74L123.27 36.63L123.40 36.75Q123.52 38.66 124.77 39.80L124.69 39.72L124.67 39.70Q125.67 42.18 130.31 42.56L130.36 42.61L130.37 42.62Q132.47 42.78 134.60 42.86L134.61 42.86L134.63 42.89Q139.90 42.98 142.68 42.03L142.68 42.03L142.67 42.01Q144.37 41.24 144.37 39.19L144.32 39.13L144.37 39.18Q144.47 38.14 144.02 35.67Z"/><path fill="#e5e566" d="M34.62 23.04L34.69 23.11L34.61 23.03Q32.85 25.81 30.19 31.44L30.06 31.31L28.12 35.61L28.22 35.72Q27.35 37.63 26.02 39.87L26.00 39.85L26.04 39.89Q26.37 39.76 24.69 39.80L24.66 39.77L24.73 39.84Q24.69 39.80 23.44 39.80L23.48 39.84L23.52 39.88Q22.79 38.39 19.86 31.24L19.73 31.11L19.76 31.14Q17.59 25.77 15.50 22.77L15.47 22.73L15.60 22.86Q16.27 25.86 16.27 29.02L16.33 29.08L16.34 29.09Q16.35 35.61 13.38 41.17L13.27 41.05L13.43 41.21Q11.96 41.42 9.60 42.14L9.59 42.13L9.60 42.14Q13.30 36.48 13.30 29.24L13.40 29.34L13.42 29.36Q13.34 20.34 7.93 13.37L7.91 13.34L7.91 13.35Q9.56 14.09 11.92 14.77L11.97 14.82L12.00 14.85Q19.06 21.60 25.15 34.93L25.03 34.81L25.08 34.86Q28.52 27.79 30.72 24.29L30.81 24.37L30.82 24.38Q34.31 18.51 38.27 15.04L38.34 15.11L38.24 15.02Q39.60 14.88 41.96 14.12L41.89 14.06L42.00 14.17Q36.93 20.71 36.93 29.31L36.91 29.29L37.01 29.39Q37.03 36.07 40.45 41.59L40.44 41.58L40.47 41.61Q38.98 41.14 36.23 40.53L36.25 40.55L36.39 40.69Q33.90 35.76 33.90 29.79L33.94 29.83L33.90 29.79Q34.02 26.48 34.71 23.13ZM36.13 41.00L36.21 41.08L36.17 41.04Q36.83 41.12 38.27 41.39L38.17 41.29L38.17 41.29Q38.73 42.15 39.68 43.63L39.57 43.52L39.56 43.52Q41.74 43.98 45.20 45.20L45.20 45.19L45.34 45.34Q39.00 38.92 39.00 29.09L39.06 29.16L39.00 29.09Q39.01 21.38 43.39 15.25L43.34 15.20L41.27 16.02L41.11 15.86Q42.20 14.41 42.85 13.53L42.84 13.53L42.92 13.60Q40.96 14.16 38.34 14.69L38.23 14.59L38.39 14.74Q31.56 20.79 25.51 33.39L25.49 33.36L25.50 33.38Q20.34 22.42 15.39 17.17L15.47 17.25L15.39 17.17Q14.92 17.01 14.35 16.89L14.49 17.04L13.24 15.71L13.23 15.70Q12.59 14.98 11.90 14.37L12.02 14.49L11.89 14.36Q8.96 13.49 7.17 12.77L7.05 12.64L7.13 12.72Q13.01 19.81 13.01 29.22L13.08 29.30L13.00 29.21Q12.99 36.82 8.84 42.68L8.91 42.75L9.00 42.84Q9.60 42.53 10.90 42.11L10.89 42.10L10.89 42.10Q10.73 42.32 9.32 44.42L9.36 44.46L9.47 44.56Q11.14 43.95 14.64 43.19L14.66 43.21L14.68 43.22Q18.45 36.22 18.26 28.46L18.28 28.47L18.13 28.33Q19.67 32.34 23.14 40.23L23.15 40.24L23.25 40.33Q23.49 40.28 23.72 40.28L23.67 40.23L24.16 40.19L24.13 40.16Q24.76 41.01 25.56 42.30L25.44 42.19L25.54 42.28Q27.16 42.27 27.16 42.27L27.18 42.29L27.07 42.18Q28.08 42.16 28.73 42.24L28.77 42.28L28.75 42.26Q30.20 38.11 33.55 30.12L33.57 30.14L33.72 30.29Q33.50 35.62 36.09 40.95Z"/><path d="M18 4 C65 7,62 19,143 21" stroke="#6262e4" fill="none"/><path fill="#859de4" d="M12.80 20.16L12.79 20.15L12.78 20.14Q8.51 20.16 4.81 19.18L4.76 19.12L4.80 19.16Q6.21 23.62 6.40 28.46L6.43 28.48L6.44 28.49Q6.70 33.36 5.48 37.96L5.33 37.81L5.44 37.93Q8.26 37.32 11.76 37.17L11.80 37.20L11.79 37.20Q15.73 37.02 17.52 34.58L17.39 34.46L17.43 34.50Q18.95 32.44 19.14 28.32L19.13 28.32L19.12 28.31Q19.31 26.67 18.85 24.96L18.77 24.87L18.87 24.98Q17.55 20.19 12.83 20.19ZM0.88 42.15L0.95 42.23L0.92 42.19Q3.68 36.39 3.68 29.69L3.71 29.72L3.78 29.79Q3.65 21.13-0.65 14.13L-0.46 14.32L-0.57 14.21Q4.74 16.93 13.00 17.12L13.03 17.15L12.89 17.01Q21.85 17.30 22.20 24.45L22.18 24.44L22.16 24.42Q22.36 27.21 22.32 28.65L22.34 28.67L22.15 28.48Q22.15 33.24 21.31 35.41L21.40 35.50L21.25 35.35Q20.85 36.47 20.09 37.31L20.23 37.45L20.15 37.37Q18.73 38.84 16.11 39.34L16.15 39.38L16.23 39.46Q14.62 39.71 11.61 39.94L11.55 39.88L11.53 39.86Q5.45 40.37 0.84 42.12ZM18.71 41.94L18.85 42.08L18.79 42.02Q21.50 41.65 23.14 40.16L23.26 40.28L23.15 40.18Q24.29 38.35 24.25 35.61L24.38 35.73L24.29 35.64Q24.36 34.35 24.21 30.85L24.23 30.87L23.85 26.30L23.84 26.28Q23.71 24.06 22.76 21.97L22.73 21.94L22.65 21.86Q22.13 20.92 21.44 20.27L21.44 20.27L21.45 20.13L21.51 20.18Q19.79 17.21 15.37 16.83L15.33 16.78L15.34 16.80Q12.65 16.66 5.65 15.94L5.57 15.85L5.64 15.93Q2.44 15.55-1.25 13.53L-1.22 13.56L-1.33 13.45Q3.60 20.93 3.60 29.69L3.58 29.67L3.43 29.52Q3.50 36.59 0.15 42.76L0.18 42.79L0.24 42.85Q0.91 42.57 2.24 42.07L2.20 42.03L2.17 42.00Q1.88 42.89 1.01 44.38L1.05 44.42L0.94 44.31Q4.04 43.30 7.39 42.80L7.38 42.80L7.32 42.73Q9.43 42.44 13.08 42.33L13.10 42.35L13.13 42.38Q16.96 42.21 18.79 42.02ZM18.85 28.41L18.92 28.48L18.72 28.29Q18.51 36.45 11.81 36.83L11.77 36.80L11.70 36.72Q9.71 36.78 7.65 37.05L7.71 37.11L7.84 37.24Q8.42 33.25 8.42 29.59L8.55 29.72L8.38 29.56Q8.39 25.87 7.66 22.03L7.69 22.06L7.72 22.08Q9.89 22.35 14.58 22.35L14.71 22.49L14.64 22.41Q16.14 22.39 17.78 23.34L17.77 23.34L17.75 23.32Q18.96 25.52 18.81 28.37Z"/><path fill="#66e5c5" d="M61.30 33.38L61.16 33.24L61.27 33.35Q61.06 36.11 59.88 40.75L59.91 40.78L59.93 40.80Q58.13 41.32 56.53 42.12L56.46 42.06L56.44 42.04Q59.10 35.07 58.84 27.64L58.79 27.59L58.96 27.76Q58.61 20.30 55.53 13.56L55.54 13.57L55.43 13.46Q57.45 14.79 59.31 15.36L59.22 15.27L59.25 15.30Q61.40 22.28 61.40 28.95L61.55 29.10L61.47 29.02Q61.46 30.46 61.39 31.94L61.33 31.89L61.43 31.98Q62.54 30.74 67.76 25.79L67.73 25.76L67.80 25.83Q68.92 25.85 69.91 25.77L69.92 25.78L71.87 25.49L71.98 25.59Q68.68 28.46 64.38 32.23L64.44 32.30L64.50 32.35Q67.74 34.99 74.21 40.81L74.29 40.89L74.31 40.90Q71.48 39.91 68.51 39.72L68.63 39.83L68.69 39.89Q66.09 37.71 61.22 33.30ZM71.05 42.41L71.05 42.41L71.16 42.52Q75.93 43.40 79.05 45.35L78.94 45.23L79.03 45.33Q77.78 43.95 75.15 41.56L75.11 41.52L75.22 41.63Q75.34 41.60 75.61 41.71L75.55 41.65L75.61 41.71Q73.51 39.69 71.27 37.79L71.40 37.92L66.93 33.99L66.95 34.00Q71.75 29.63 74.19 26.74L74.37 26.92L74.35 26.90Q73.15 27.00 70.68 27.26L70.60 27.19L70.51 27.09Q72.23 25.77 72.91 24.93L72.84 24.86L72.95 24.97Q70.16 25.45 67.68 25.45L67.60 25.36L67.69 25.45Q66.23 26.70 63.49 29.36L63.41 29.28L63.57 29.44Q63.40 23.49 62.41 17.66L62.48 17.73L62.51 17.76Q61.68 17.46 60.19 17.19L60.35 17.36L60.26 17.26Q60.12 16.55 59.66 15.07L59.63 15.03L59.58 14.99Q57.05 14.29 54.81 12.73L54.89 12.80L54.74 12.66Q58.18 19.49 58.53 27.60L58.51 27.58L58.59 27.66Q58.97 35.62 55.96 42.85L55.90 42.79L55.81 42.70Q56.55 42.45 57.88 41.80L57.87 41.79L57.99 41.91Q57.75 42.74 57.10 44.18L56.97 44.05L57.12 44.20Q59.78 42.93 61.91 42.55L62.06 42.70L62.03 42.67Q62.52 40.08 63.01 35.81L62.95 35.75L63.11 35.92Q65.62 38.08 71.07 42.42Z"/><path fill="#f1a287" d="M113.39 30.30L113.44 30.35L113.45 30.36Q113.54 29.95 113.50 29.53L113.56 29.59L113.59 29.62Q113.35 29.08 113.05 28.89L113.03 28.87L113.17 29.01Q112.35 28.34 111.48 28.50L111.61 28.63L111.61 28.63Q110.43 28.52 108.80 29.62L108.82 29.65L108.82 29.65Q107.49 30.64 107.49 31.82L107.37 31.70L107.34 31.67Q107.40 32.99 107.40 36.30L107.40 36.30L107.50 36.40Q107.45 38.93 107.60 40.95L107.54 40.90L107.53 40.89Q105.87 40.94 105.87 40.94L105.77 40.84L105.77 40.83Q104.87 40.89 104.15 40.96L104.11 40.93L104.08 40.90Q104.58 38.46 104.65 36.22L104.60 36.16L104.51 36.08Q104.64 31.41 104.00 30.12L104.18 30.30L104.07 30.19Q103.77 29.58 103.19 29.28L103.32 29.40L103.35 29.43Q102.35 28.55 100.79 28.43L100.84 28.48L100.81 28.45Q98.75 28.19 98.22 29.78L98.27 29.83L98.26 29.82Q98.07 30.28 98.18 30.77L98.20 30.79L98.30 30.89Q98.99 33.68 98.65 36.46L98.56 36.37L98.54 36.35Q98.28 39.21 96.88 41.65L96.80 41.57L96.94 41.72Q95.81 41.77 93.72 42.19L93.70 42.17L93.68 42.15Q96.33 39.05 96.33 34.75L96.21 34.63L96.17 34.59Q96.25 28.80 92.21 24.58L92.26 24.62L92.20 24.56Q92.96 24.87 93.92 25.10L93.84 25.02L95.63 25.48L95.64 25.49Q96.18 26.19 97.06 27.86L96.92 27.72L96.94 27.75Q97.21 25.96 99.65 25.92L99.67 25.94L99.52 25.79Q99.70 25.78 100.69 25.85L100.83 26.00L100.66 25.83Q105.73 26.22 106.87 29.04L106.92 29.08L106.92 29.08Q108.51 26.29 113.53 25.75L113.63 25.85L113.59 25.81Q114.29 25.64 115.17 25.76L115.35 25.94L115.27 25.85Q117.54 26.11 117.39 27.67L117.37 27.65L117.22 27.50Q117.24 28.24 116.97 29.01L117.00 29.04L117.00 29.04Q115.51 31.96 115.74 35.50L115.81 35.57L115.75 35.51Q116.07 39.10 117.97 41.92L117.80 41.75L117.90 41.84Q116.11 41.39 114.28 41.16L114.41 41.29L114.47 41.35Q113.22 38.77 113.03 35.99L112.97 35.93L112.94 35.90Q112.80 33.10 113.45 30.36ZM114.11 41.60L114.14 41.63L114.23 41.72Q114.91 41.75 116.24 41.94L116.17 41.87L116.14 41.84Q116.78 42.67 117.93 44.08L117.97 44.13L117.96 44.12Q120.79 44.59 122.89 45.24L122.95 45.30L122.88 45.23Q117.86 41.32 117.60 34.81L117.51 34.72L117.63 34.84Q117.58 32.78 118.19 30.87L118.10 30.78L118.18 30.86Q118.31 29.88 118.31 29.16L118.32 29.17L118.31 29.17Q118.30 28.24 117.69 27.67L117.71 27.69L117.72 27.66L117.76 27.70Q117.77 27.14 117.70 26.65L117.73 26.68L117.74 26.69Q117.64 26.17 117.18 25.90L117.24 25.96L117.22 25.94Q116.50 25.41 115.63 25.38L115.54 25.29L115.53 25.28Q112.73 25.23 110.07 26.18L110.12 26.23L110.05 26.15Q108.16 26.93 106.98 28.34L106.99 28.35L107.03 28.39Q105.34 25.79 100.51 25.45L100.57 25.51L100.56 25.49Q99.77 25.36 99.35 25.36L99.47 25.48L99.37 25.38Q97.49 25.55 96.88 26.81L96.79 26.72L96.88 26.81Q96.57 26.30 95.88 25.24L95.81 25.17L95.76 25.12Q93.27 24.57 91.29 23.92L91.35 23.98L91.37 24.00Q95.92 28.28 95.92 34.56L96.02 34.67L96.08 34.72Q95.97 39.34 93.12 42.80L93.23 42.91L93.12 42.80Q93.54 42.62 94.04 42.54L94.14 42.65L94.95 42.31L95.01 42.37Q94.40 43.51 93.30 44.73L93.28 44.71L93.25 44.68Q94.83 44.32 97.95 43.71L98.06 43.83L98.02 43.78Q100.64 39.63 100.64 34.72L100.67 34.75L100.70 34.78Q100.76 34.04 100.69 33.20L100.63 33.15L100.52 33.03Q100.50 32.33 101.49 31.53L101.51 31.55L101.57 31.65L101.46 31.54Q102.02 31.04 103.20 30.92L103.25 30.97L103.27 30.99Q103.80 31.10 104.10 31.10L104.09 31.08L104.15 31.34L104.19 31.38Q104.27 33.89 104.15 36.25L104.20 36.30L104.33 36.43Q104.09 38.59 103.60 41.25L103.72 41.38L103.72 41.37Q104.60 41.23 104.60 41.23L104.69 41.32L104.70 41.33Q105.98 41.16 105.64 41.16L105.64 41.17L105.67 41.19Q105.73 41.74 105.69 42.20L105.74 42.25L105.66 42.17Q105.60 42.61 105.60 43.10L105.65 43.15L108.20 43.23L108.19 43.22Q109.39 43.16 110.65 43.24L110.76 43.35L110.59 43.18Q109.25 39.68 109.44 33.74L109.29 33.59L109.39 33.68Q109.29 32.44 110.47 31.68L110.54 31.74L110.57 31.77Q111.51 31.00 112.76 30.81L112.73 30.78L112.95 30.69L112.97 30.71Q112.70 32.81 112.70 34.79L112.62 34.70L112.59 34.67Q112.68 38.54 114.21 41.70ZM108.56 30.04L108.78 30.03L108.75 30.34L108.60 30.08Z"/><path fill="#65eb65" d="M114.98 33.24L115.14 33.40L114.99 33.25Q114.90 36.13 113.72 40.78L113.68 40.73L113.77 40.83Q111.85 41.22 110.25 42.02L110.22 42.00L110.37 42.14Q112.86 35.00 112.59 27.58L112.61 27.59L112.58 27.57Q112.42 20.29 109.33 13.55L109.21 13.43L109.19 13.40Q111.28 14.81 113.15 15.38L113.05 15.29L113.04 15.27Q115.24 22.30 115.24 28.97L115.34 29.07L115.31 29.05Q115.20 30.38 115.12 31.86L115.11 31.85L115.28 32.02Q116.24 30.61 121.45 25.66L121.62 25.83L121.50 25.71Q122.74 25.85 123.73 25.77L123.56 25.60L125.69 25.49L125.69 25.49Q122.52 28.49 118.22 32.26L118.24 32.27L118.30 32.34Q121.55 34.98 128.02 40.80L128.00 40.78L128.16 40.94Q125.32 39.93 122.35 39.74L122.36 39.75L122.47 39.85Q119.88 37.68 115.00 33.26ZM124.93 42.47L124.87 42.41L124.90 42.44Q129.74 43.40 132.87 45.34L132.73 45.21L132.87 45.34Q131.51 43.87 128.88 41.47L128.97 41.55L129.02 41.61Q129.23 41.66 129.49 41.78L129.38 41.66L129.41 41.69Q127.31 39.67 125.06 37.76L125.12 37.83L120.78 34.02L120.63 33.87Q125.56 29.62 128.00 26.73L128.16 26.89L128.03 26.76Q126.92 26.95 124.45 27.21L124.39 27.15L124.35 27.12Q126.01 25.73 126.69 24.89L126.74 24.94L126.78 24.98Q123.89 25.36 121.41 25.36L121.51 25.45L121.43 25.37Q120.09 26.74 117.34 29.40L117.28 29.34L117.37 29.42Q117.38 23.65 116.39 17.82L116.23 17.66L116.29 17.73Q115.66 17.62 114.17 17.36L114.00 17.19L114.11 17.30Q113.92 16.53 113.46 15.05L113.58 15.16L113.48 15.07Q110.94 14.35 108.69 12.79L108.61 12.71L108.62 12.72Q112.00 19.49 112.35 27.60L112.30 27.56L112.34 27.59Q112.70 35.53 109.70 42.77L109.73 42.80L109.64 42.71Q110.30 42.38 111.63 41.73L111.77 41.87L111.81 41.91Q111.55 42.71 110.90 44.16L110.79 44.05L110.92 44.18Q113.68 43.02 115.81 42.64L115.78 42.61L115.89 42.72Q116.36 40.10 116.85 35.84L116.81 35.80L116.95 35.94Q119.58 38.23 125.03 42.57Z"/><path fill="#7ee1af" d="M94.22 39.86L94.13 39.77L94.28 39.92Q92.30 39.85 90.29 40.04L90.29 40.04L90.22 39.98Q90.83 34.69 90.83 29.85L90.90 29.93L90.93 29.96Q90.92 25.03 90.27 19.81L90.33 19.88L90.29 19.83Q85.76 19.49 82.56 17.81L82.57 17.82L81.79 16.02L81.71 15.94Q81.60 15.52 80.99 14.30L80.94 14.25L80.98 14.29Q86.02 16.93 92.03 17.12L92.06 17.15L92.09 17.18Q97.92 17.30 103.37 15.25L103.40 15.28L103.38 15.26Q102.72 16.73 102.07 18.56L102.03 18.51L102.05 18.54Q98.43 19.82 94.16 20.01L94.15 20.00L94.04 19.89Q93.98 25.04 93.98 29.99L93.89 29.91L93.95 29.96Q93.97 34.94 94.28 39.92ZM104.00 14.51L103.94 14.45L103.95 14.46Q98.29 16.90 92.08 16.71L92.02 16.65L92.05 16.68Q85.40 16.51 80.30 13.54L80.25 13.49L80.16 13.39Q81.04 14.81 82.34 18.09L82.31 18.06L82.36 18.11Q82.99 18.39 84.24 18.96L84.16 18.88L84.26 18.98Q84.53 19.71 84.87 21.23L84.89 21.25L84.76 21.11Q87.14 22.05 90.19 22.28L90.14 22.24L90.20 22.30Q90.46 25.86 90.46 29.63L90.49 29.66L90.45 29.62Q90.50 35.05 89.70 40.41L89.69 40.39L89.70 40.41Q91.37 40.29 91.90 40.29L92.01 40.40L91.98 40.37Q91.83 40.53 91.78 41.19L91.96 41.37L91.93 41.35Q91.83 41.97 91.83 42.31L91.71 42.19L91.87 42.35Q92.93 42.16 94.46 42.23L94.50 42.28L94.43 42.21Q95.34 42.24 97.17 42.40L97.27 42.50L97.23 42.46Q96.06 37.59 95.94 32.41L95.96 32.43L95.83 32.30Q95.68 26.98 96.22 22.07L96.30 22.15L96.22 22.07Q100.33 21.68 103.49 20.47L103.41 20.39L103.36 20.34Q104.03 17.92 105.05 15.87L105.21 16.02L105.06 15.87Q103.72 16.55 102.92 16.85L103.00 16.93L103.09 17.02Q103.47 15.69 104.04 14.55Z"/><path d="M8 26 C83 18,78 48,139 38" stroke="#9479e6" fill="none"/><path fill="#e47b7b" d="M71.62 47.03L71.73 47.15L71.73 47.15Q70.77 47.32 68.87 47.63L68.81 47.57L68.72 47.49Q70.10 45.40 71.13 44.11L71.09 44.06L71.23 44.20Q72.87 44.40 73.02 44.40L73.10 44.47L73.06 44.43Q73.29 44.44 73.82 44.32L73.81 44.31L73.93 44.43Q74.57 44.31 74.76 44.31L74.79 44.34L74.72 44.27Q77.20 43.93 77.12 41.76L77.13 41.77L77.22 41.86Q77.25 40.44 77.14 34.20L77.14 34.21L76.98 34.05Q77.11 30.67 77.18 26.52L77.08 26.42L78.49 26.22L78.49 26.22Q79.20 26.18 79.89 25.95L79.82 25.88L79.78 25.84Q79.66 30.36 79.70 34.74L79.70 34.75L79.70 34.74Q79.75 39.14 80.28 43.52L80.31 43.54L80.22 43.45Q80.31 43.77 80.31 44.04L80.28 44.01L80.39 44.11Q80.37 45.73 78.69 46.11L78.56 45.98L78.54 45.96Q75.42 46.34 71.57 46.98ZM78.54 22.96L76.33 19.76L76.27 19.71Q77.27 18.26 79.09 15.49L79.08 15.47L79.23 15.63Q79.93 16.55 81.26 18.37L81.26 18.38L78.43 22.85ZM81.43 49.46L81.38 49.41L81.38 49.41Q81.91 49.45 82.67 49.10L82.66 49.09L82.69 49.12Q83.08 48.48 83.08 48.02L83.06 48.00L83.12 48.07Q83.09 47.69 82.97 47.08L82.91 47.02L82.92 47.02Q81.56 40.61 81.56 32.69L81.56 32.69L81.63 32.75Q81.51 29.78 81.66 26.89L81.72 26.94L81.82 27.04Q81.23 27.18 80.09 27.48L80.00 27.39L80.12 27.51Q80.18 27.08 80.21 26.54L80.11 26.44L80.23 25.38L80.26 25.41Q78.60 26.11 76.81 26.15L76.73 26.07L76.76 26.09Q76.68 30.40 76.72 33.97L76.66 33.91L76.85 41.84L76.75 41.73Q76.91 43.80 74.74 43.91L74.81 43.98L74.74 43.91Q74.46 43.86 73.95 43.92L74.10 44.07L74.08 44.05Q73.56 44.10 73.29 44.10L73.31 44.11L73.20 44.00Q72.69 43.95 71.12 43.53L71.20 43.61L71.15 43.56Q70.66 44.13 69.56 45.81L69.66 45.91L68.05 48.15L68.15 48.24Q69.06 48.09 70.69 47.71L70.67 47.68L70.24 48.44L69.51 48.89L69.66 49.03Q71.96 48.90 73.29 48.97L73.29 48.97L73.31 48.99Q75.49 49.03 81.43 49.45ZM78.42 23.61L78.45 23.64L78.72 23.03L78.66 22.97Q79.11 23.50 80.06 25.10L80.15 25.18L80.08 25.11Q81.62 22.01 83.18 18.92L83.08 18.82L83.13 18.88Q82.12 17.25 81.16 15.96L81.25 16.05L81.19 15.98Q80.95 16.17 80.61 16.70L80.70 16.78L80.66 16.74Q80.35 16.21 79.36 14.92L79.28 14.84L79.20 14.76Q78.12 16.45 75.80 19.80L75.81 19.82L75.85 19.86Q76.62 20.93 78.34 23.52Z"/><path d="M13 26 C72 14,68 9,133 47" stroke="#a4e58e" fill="none"/></svg>