<svg xmlns="http://www.w3.org/2000/svg" width="150" height="50" viewBox="0,0,150,50"><rect width="100%" height="100%" fill="white"/><path fill="#87e89f" d="M9.80 28.69L9.77 28.67L9.72 28.61Q6.92 28.63 6.16 30.88L6.12 30.83L6.20 30.92Q5.87 31.54 5.75 32.18L5.85 32.28L5.79 32.22Q8.31 32.34 9.94 32.34L10.08 32.48L9.93 32.33Q11.70 32.46 14.29 32.35L14.39 32.44L14.32 32.38Q14.22 30.68 12.81 29.61L12.84 29.64L12.69 29.49Q11.50 28.61 9.72 28.61ZM9.83 41.21L9.87 41.25L9.74 41.12Q5.66 41.26 4.36 39.85L4.24 39.73L4.29 39.78Q3.37 38.36 3.22 35.09L3.13 35.00L3.25 35.12Q3.25 34.89 3.17 33.52L3.19 33.54L3.02 33.37Q2.98 31.16 2.98 30.44L2.95 30.41L2.87 30.32Q2.95 28.54 3.67 27.44L3.76 27.52L3.72 27.48Q4.99 25.94 7.96 25.94L8.09 26.06L9.62 26.04L9.56 25.98Q11.58 25.94 13.10 26.25L13.15 26.30L13.13 26.27Q15.34 26.88 16.33 28.10L16.25 28.02L16.20 27.97Q16.96 29.19 17.04 31.28L16.98 31.23L17.00 31.25Q16.98 32.37 17.02 34.54L16.94 34.46L16.90 34.42Q14.06 34.48 11.28 34.48L11.37 34.56L5.72 34.51L5.68 34.47Q5.91 38.97 9.99 38.74L9.93 38.69L9.92 38.67Q13.71 38.50 14.93 36.68L15.04 36.78L14.95 36.70Q15.86 37.26 17.45 38.44L17.43 38.42L17.49 38.48Q16.14 40.89 11.99 41.16L11.81 40.98L11.94 41.11Q11.16 41.09 9.79 41.17ZM12.03 43.45L12.11 43.53L12.08 43.50Q13.26 43.53 14.47 43.61L14.50 43.63L14.45 43.58Q19.34 43.67 20.25 40.89L20.28 40.92L20.30 40.95Q18.79 39.82 17.69 39.06L17.61 38.98L17.58 38.94Q17.67 38.46 17.86 38.23L18.05 38.42L17.88 38.26Q17.16 37.80 15.79 36.85L15.91 36.97L15.81 36.87Q16.98 37.02 19.04 37.32L18.96 37.24L19.06 37.34Q18.81 35.92 18.74 35.23L18.66 35.15L18.58 33.28L18.67 33.38Q18.35 30.85 17.70 29.36L17.70 29.36L17.75 29.41Q17.61 29.19 17.04 28.58L17.05 28.60L16.91 28.46Q16.81 28.20 16.58 27.63L16.51 27.56L16.64 27.69Q14.77 25.67 9.70 25.67L9.55 25.51L7.89 25.53L8.01 25.64Q4.79 25.66 3.35 27.15L3.35 27.15L3.31 27.11Q2.64 28.23 2.68 30.29L2.62 30.23L2.59 30.20Q2.60 31.12 2.71 33.37L2.77 33.42L2.88 33.53Q2.78 34.96 2.90 37.02L3.05 37.17L2.93 37.05Q3.19 39.30 4.07 40.36L4.16 40.45L4.13 40.42Q4.22 40.51 4.41 40.63L4.38 40.60L4.70 41.26L4.74 41.30Q5.49 43.12 12.08 43.50ZM9.91 38.24L10.08 38.42L9.94 38.27Q8.78 38.37 7.86 37.91L7.96 38.00L7.99 38.03Q7.89 37.59 7.70 36.91L7.74 36.95L7.63 36.84Q9.31 36.73 10.91 36.73L10.91 36.73L10.96 36.78Q12.70 36.84 14.37 36.96L14.35 36.94L14.32 36.91Q13.04 38.26 10.04 38.37ZM11.53 30.88L11.55 30.90L11.71 31.06Q12.27 31.01 13.60 31.39L13.54 31.33L13.70 31.68L13.76 31.93L13.74 31.90Q12.50 32.16 11.59 32.12L11.55 32.08L11.53 32.06Q9.17 31.94 9.13 31.94L9.27 32.08L9.23 32.05Q10.04 31.18 11.71 31.06Z"/><path fill="#6cdea5" d="M44.22 15.82L44.20 15.80L44.16 15.77Q46.12 20.69 46.69 25.86L46.66 25.84L46.66 25.84Q50.40 21.73 56.30 16.90L56.43 17.02L56.41 17.01Q59.60 16.69 62.22 15.89L62.20 15.87L55.59 21.44L55.60 21.45Q52.13 24.34 49.27 27.19L49.38 27.30L49.40 27.32Q57.33 36.43 62.40 41.16L62.42 41.18L62.38 41.14Q59.24 40.17 56.92 40.02L56.85 39.95L56.89 39.98Q51.21 34.69 46.91 28.86L46.94 28.90L46.80 28.76Q47.02 35.49 45.16 40.82L45.13 40.79L45.11 40.77Q44.88 40.81 44.39 41.00L44.31 40.92L44.29 41.09L44.42 41.22Q44.10 41.14 41.55 42.05L41.59 42.09L41.53 42.03Q44.53 35.51 44.19 28.05L44.25 28.10L44.25 28.11Q43.91 20.76 40.37 14.25L40.42 14.31L40.78 14.40L41.35 14.85L41.41 14.88L41.26 14.73Q41.95 15.08 44.16 15.76ZM44.49 15.52L44.58 15.61L44.58 15.61Q42.18 14.92 39.55 13.40L39.55 13.39L39.68 13.53Q43.96 20.81 43.96 29.76L43.89 29.69L43.87 29.67Q43.93 36.73 40.96 42.79L40.91 42.74L43.02 41.95L42.96 41.89Q42.59 42.93 41.90 44.23L41.92 44.24L41.89 44.21Q44.16 43.43 46.10 43.01L46.14 43.05L46.12 42.81L46.11 42.79Q46.41 42.79 46.98 42.64L47.10 42.76L47.07 42.73Q48.67 36.76 48.78 31.96L48.83 32.01L48.77 31.94Q50.83 34.42 52.66 36.29L52.77 36.40L52.76 36.39Q53.81 37.37 56.82 40.34L56.78 40.29L56.88 40.40L56.87 40.38Q57.80 41.13 59.66 42.72L59.78 42.84L59.79 42.85Q63.68 43.58 67.15 45.29L67.02 45.17L67.19 45.34Q57.74 36.61 51.49 29.18L51.51 29.20L51.54 29.23Q55.93 24.94 64.68 16.33L64.65 16.30L64.68 16.33Q62.26 17.61 60.24 17.99L60.12 17.86L60.18 17.92Q61.43 16.97 63.76 14.95L63.68 14.87L63.81 15.00Q59.58 16.30 56.23 16.49L56.19 16.45L56.25 16.50Q53.31 18.71 48.44 23.39L48.37 23.32L48.40 23.35Q48.04 20.79 47.47 18.23L47.47 18.23L47.52 18.28Q46.37 18.16 45.38 17.82L45.40 17.83L45.30 17.74Q45.17 17.07 44.60 15.63Z"/><path fill="#e1e141" d="M21.44 29.66L21.35 29.57L21.33 29.55Q21.39 33.87 20.67 38.02L20.76 38.11L20.74 38.09Q22.93 37.47 26.01 37.35L26.10 37.44L26.04 37.38Q27.28 37.47 28.34 36.47L28.51 36.63L28.43 36.56Q29.45 35.50 29.45 34.16L29.43 34.15L29.50 34.21Q29.58 33.99 29.54 33.72L29.38 33.56L29.55 33.73Q29.39 30.79 27.14 29.95L27.00 29.81L27.07 29.88Q26.24 29.51 25.55 29.58L25.67 29.69L25.58 29.61Q24.53 29.55 23.50 29.59L23.50 29.59L23.48 29.57Q22.50 29.69 21.47 29.69ZM20.15 19.15L20.29 19.30L20.20 19.20Q21.06 22.50 21.33 26.88L21.41 26.96L21.37 26.92Q22.85 27.07 25.51 27.11L25.49 27.08L25.40 26.99Q28.43 27.13 28.77 23.59L28.73 23.55L28.77 23.59Q28.99 21.68 27.58 20.84L27.54 20.79L27.61 20.86Q26.59 20.23 22.18 19.58L22.14 19.54L22.09 19.50Q21.13 19.45 20.21 19.22ZM16.58 42.12L16.54 42.08L16.47 42.01Q19.06 35.47 18.80 28.08L18.69 27.97L18.81 28.10Q18.50 20.77 15.56 14.30L15.58 14.32L15.59 14.33Q19.39 16.87 25.61 17.12L25.60 17.11L25.50 17.01Q31.84 17.37 32.19 20.26L32.20 20.28L32.17 20.24Q32.41 22.92 31.00 25.59L31.15 25.73L31.07 25.66Q30.35 27.18 28.75 27.87L28.73 27.85L28.65 27.77Q32.41 28.56 32.63 33.92L32.56 33.85L32.64 33.93Q32.58 34.90 32.51 36.31L32.63 36.43L32.56 36.36Q32.60 37.77 31.67 38.70L31.57 38.61L31.70 38.74Q30.69 39.59 29.35 39.74L29.38 39.77L29.25 39.64Q27.81 39.76 26.74 39.76L26.78 39.79L26.80 39.82Q21.15 39.87 16.62 42.16ZM29.40 42.46L29.44 42.50L29.28 42.34Q30.20 42.38 32.06 42.49L32.13 42.55L32.17 42.60Q33.49 42.54 34.59 41.67L34.65 41.73L34.74 41.81Q35.49 40.85 35.38 39.29L35.44 39.35L35.41 39.32Q35.35 38.39 34.63 34.93L34.49 34.79L34.53 34.83Q33.79 31.54 31.93 30.06L32.09 30.22L31.63 29.34L31.66 29.37Q33.33 27.95 33.90 24.18L33.80 24.08L33.89 24.18Q34.02 23.02 33.95 21.61L33.90 21.56L33.84 21.50Q33.88 20.29 32.78 19.45L32.85 19.52L32.79 19.46Q32.46 19.25 32.35 19.21L32.28 19.14L32.26 19.12Q32.18 18.77 31.34 17.97L31.25 17.88L31.15 17.79Q29.63 16.72 25.41 16.53L25.58 16.70L25.44 16.57Q18.93 16.41 14.93 13.52L14.85 13.43L14.90 13.49Q18.15 20.47 18.46 28.01L18.54 28.09L18.41 27.96Q18.72 35.77 15.90 42.70L16.06 42.86L18.01 41.80L17.97 41.75Q17.74 43.05 17.25 44.19L17.26 44.21L17.24 44.18Q21.43 42.21 26.46 42.21L26.40 42.16L26.40 42.15Q27.82 42.16 29.26 42.31ZM27.15 31.79L27.12 31.76L27.22 31.85Q27.99 31.83 28.91 32.29L28.77 32.15L28.81 32.20Q28.98 32.59 29.13 33.66L29.12 33.65L29.07 33.59Q29.26 34.96 28.32 36.01L28.33 36.01L28.37 36.06Q27.48 37.14 26.07 37.03L26.02 36.98L24.52 37.08L24.50 37.05Q23.80 37.16 23.08 37.27L23.15 37.35L23.12 37.31Q23.36 35.43 23.44 31.96L23.38 31.90L23.47 32.00Q24.16 31.96 25.41 31.92L25.44 31.95L25.27 31.78Q26.59 31.80 27.20 31.84ZM26.26 22.33L26.25 22.32L26.52 22.21L26.48 22.17Q26.87 22.33 27.06 22.37L26.99 22.30L27.40 22.33L27.69 22.43L28.27 22.48L28.35 22.55Q28.43 22.79 28.43 23.09L28.30 22.96L28.34 23.54L28.40 23.60Q28.33 24.78 27.45 25.72L27.53 25.79L27.52 25.78Q26.74 26.81 25.52 26.81L25.50 26.79L25.49 26.78Q24.36 26.67 24.36 26.67L24.42 26.74L24.40 26.71Q23.08 26.70 23.43 26.70L23.44 26.71L23.31 26.58Q23.41 25.20 23.11 22.15L23.03 22.07L23.16 22.21Q24.70 22.30 26.22 22.30Z"/><path d="M17 38 C66 34,76 44,132 49" stroke="#df3e3e" fill="none"/><path fill="#9071ee" d="M65.18 41.35L65.21 41.38L65.21 41.38Q62.21 41.43 60.95 40.89L61.00 40.94L61.00 40.94Q59.06 40.14 59.13 37.67L59.16 37.70L59.15 37.68Q59.34 34.33 59.34 34.90L59.42 34.98L59.42 34.99Q59.26 29.49 56.41 24.66L56.54 24.79L56.52 24.77Q58.39 25.62 60.37 26.00L60.34 25.97L60.38 26.00Q62.12 30.64 62.00 35.13L62.04 35.16L62.11 35.23Q61.79 36.55 62.63 37.77L62.69 37.83L62.76 37.91Q63.68 39.24 65.20 39.05L65.18 39.03L65.54 38.89L65.48 38.83Q66.97 38.91 67.78 38.15L67.75 38.11L67.73 38.10Q68.60 37.39 68.60 36.43L68.59 36.43L68.53 36.36Q68.50 36.11 68.47 35.92L68.54 35.99L68.49 35.94Q68.39 30.67 69.54 26.33L69.55 26.34L69.60 26.40Q70.53 26.22 71.52 25.99L71.51 25.98L73.56 25.52L73.48 25.44Q71.08 30.62 71.39 36.18L71.41 36.20L71.30 36.09Q71.51 39.19 69.80 40.33L69.90 40.44L69.87 40.41Q68.53 41.23 65.22 41.39ZM67.49 43.73L67.42 43.67L67.45 43.70Q71.05 43.99 72.88 43.23L72.87 43.22L72.87 43.22Q73.78 42.46 73.78 41.05L73.68 40.95L73.79 41.06Q73.71 40.06 73.44 38.50L73.45 38.51L73.54 38.60Q73.05 35.44 73.43 32.44L73.44 32.45L73.33 32.33Q73.82 29.28 75.23 26.54L75.21 26.52L75.15 26.47Q74.55 26.81 73.22 27.23L73.16 27.17L73.26 27.28Q73.45 26.63 73.76 26.06L73.80 26.10L74.30 24.89L74.39 24.98Q72.29 25.47 69.13 25.96L69.11 25.94L69.22 26.05Q67.91 30.76 68.06 35.86L68.10 35.90L68.06 35.86Q68.18 37.99 65.51 38.48L65.45 38.43L65.25 38.68L65.12 38.70L64.06 38.44L64.18 38.56Q64.01 37.59 64.05 37.10L64.05 37.10L63.98 37.03Q64.23 32.56 63.55 28.15L63.59 28.19L62.57 28.08L62.41 27.92Q62.02 28.03 61.49 27.92L61.49 27.91L61.38 27.80Q61.12 26.52 60.85 25.76L60.84 25.75L60.75 25.66Q58.04 25.30 55.79 24.01L55.75 23.97L55.66 23.88Q57.85 27.44 58.57 30.82L58.55 30.80L58.56 30.81Q59.04 33.01 58.89 36.51L59.05 36.67L59.05 36.67Q58.90 36.64 58.83 37.74L58.85 37.76L58.99 37.90Q58.70 40.13 60.07 41.08L60.18 41.19L60.14 41.15Q60.51 43.38 67.51 43.76Z"/><path fill="#74e6c9" d="M127.78 33.02L127.78 33.03L127.73 32.97Q130.86 32.64 134.06 32.75L133.92 32.62L133.92 32.62Q133.89 30.07 133.89 27.68L133.92 27.71L134.02 27.80Q134.02 25.33 134.21 22.78L134.06 22.63L134.06 22.63Q132.85 24.35 127.63 32.87ZM137.66 40.36L137.70 40.39L137.69 40.38Q135.96 40.02 134.17 39.94L134.19 39.96L134.07 39.84Q133.98 37.59 133.87 35.11L133.75 35.00L133.76 35.01Q128.44 34.83 123.72 36.24L123.74 36.26L123.76 36.28Q123.85 35.75 124.04 34.76L124.03 34.76L124.03 34.76Q125.86 31.64 129.44 25.36L129.55 25.47L129.40 25.32Q132.32 20.47 135.74 16.58L135.87 16.71L135.81 16.65Q136.61 16.38 138.28 16.12L138.25 16.08L138.29 16.12Q136.39 22.57 136.39 29.61L136.42 29.64L136.34 29.55Q136.36 31.06 136.44 32.55L136.48 32.59L137.72 32.65L137.84 32.77Q138.37 32.73 138.98 32.84L138.99 32.85L138.98 32.84Q139.16 33.90 139.42 35.84L139.36 35.77L139.48 35.89Q138.23 35.59 136.74 35.40L136.79 35.45L136.61 35.27Q136.88 37.33 137.57 40.26ZM139.24 32.45L139.29 32.50L139.31 32.52Q139.19 32.52 139.00 32.52L138.88 32.40L138.52 32.42L138.61 32.51Q138.41 30.94 138.41 29.54L138.38 29.50L138.32 29.44Q138.33 23.06 140.39 17.04L140.49 17.15L140.40 17.06Q139.78 17.46 138.34 17.85L138.17 17.68L138.25 17.76Q138.47 16.99 138.93 15.58L139.02 15.67L138.93 15.59Q137.56 15.89 135.50 16.12L135.63 16.24L135.62 16.23Q131.73 20.61 126.52 29.97L126.46 29.92L128.63 26.34L128.54 26.25Q128.10 27.25 127.83 27.82L127.90 27.89L123.48 36.95L123.44 36.91Q124.13 36.80 125.27 36.42L125.27 36.41L125.06 36.58L125.05 36.58Q124.85 37.18 124.55 38.43L124.62 38.51L124.59 38.48Q128.77 37.21 133.61 37.40L133.50 37.29L133.65 37.45Q133.64 38.35 133.83 40.33L133.78 40.28L133.87 40.38Q134.89 40.32 135.95 40.44L135.97 40.46L135.94 40.42Q136.00 41.02 136.27 42.39L136.29 42.41L136.42 42.54Q138.20 42.64 141.20 43.55L141.24 43.59L141.27 43.62Q140.33 41.54 139.41 38.26L139.39 38.24L140.75 38.60L140.77 38.63Q141.47 38.87 142.15 39.21L142.18 39.24L142.19 39.25Q141.44 36.79 141.29 35.11L141.27 35.10L141.15 34.98Q140.72 34.97 139.58 34.74L139.56 34.72L139.44 34.59Q139.24 33.33 139.24 32.46ZM131.19 32.25L131.37 32.43L131.23 32.29Q132.04 31.04 133.60 28.49L133.55 28.44L133.62 28.51Q133.68 29.52 133.64 30.47L133.66 30.50L133.67 30.50Q133.60 31.42 133.64 32.38L133.65 32.39L133.62 32.36Q133.08 32.35 132.51 32.35L132.48 32.32L132.44 32.28Q131.94 32.39 131.34 32.39Z"/><path d="M12 46 C69 16,66 12,133 13" stroke="#85baef" fill="none"/><path d="M17 10 C67 6,73 2,145 36" stroke="#74e0e0" fill="none"/><path d="M12 16 C90 24,75 38,143 30" stroke="#afe778" fill="none"/><path fill="#79f079" d="M104.63 29.09L104.72 29.19L104.70 29.16Q102.83 29.16 101.61 30.49L101.69 30.57L101.57 30.45Q100.43 31.86 100.28 33.77L100.29 33.78L100.22 33.71Q100.07 35.88 101.29 36.88L101.31 36.91L101.22 36.82Q102.56 37.95 104.69 37.88L104.56 37.74L104.75 37.93Q106.93 37.63 107.88 36.68L107.94 36.74L107.90 36.70Q108.87 35.20 108.75 33.37L108.75 33.36L108.92 33.53Q108.72 31.59 107.64 30.39L107.56 30.31L107.71 30.46Q106.61 29.25 104.79 29.25ZM104.64 19.70L104.69 19.75L104.72 19.78Q103.34 19.69 102.00 20.19L101.92 20.10L101.91 20.10Q100.56 20.84 100.79 22.70L100.89 22.80L100.95 22.86Q101.36 26.50 104.71 26.50L104.71 26.51L104.64 26.44Q106.37 26.80 107.36 25.66L107.30 25.60L107.18 25.47Q108.25 24.41 108.29 22.85L108.38 22.94L108.27 22.83Q108.32 21.06 107.60 20.45L107.56 20.42L107.71 20.56Q105.94 19.63 104.64 19.70ZM104.41 40.29L104.49 40.37L101.34 40.27L101.36 40.29Q99.87 40.32 98.53 39.44L98.57 39.48L98.49 39.40Q97.22 38.36 97.37 35.50L97.29 35.42L97.35 35.48Q97.82 28.65 101.44 27.66L101.47 27.68L101.47 27.69Q99.10 26.68 97.76 21.31L97.84 21.39L97.73 21.28Q97.50 19.98 97.58 19.18L97.48 19.09L97.46 19.07Q97.71 16.89 101.41 16.85L101.52 16.96L101.54 16.99Q105.74 16.88 107.19 17.07L107.17 17.05L107.18 17.06Q111.05 17.62 111.50 19.64L111.46 19.59L111.52 19.66Q111.49 20.12 111.49 20.50L111.61 20.62L111.59 20.60Q111.61 21.30 111.42 21.91L111.41 21.90L111.48 21.97Q110.79 26.11 107.86 27.64L107.82 27.60L107.77 27.55Q111.31 28.39 111.81 33.68L111.88 33.75L111.75 33.62Q111.80 33.83 111.84 35.12L111.78 35.07L111.80 35.08Q111.86 37.81 110.26 38.88L110.42 39.03L110.39 39.00Q109.02 39.88 104.45 40.33ZM106.74 42.66L106.66 42.58L110.11 42.76L110.10 42.75Q111.72 42.73 113.24 42.01L113.36 42.13L113.28 42.05Q114.39 41.29 114.47 39.43L114.49 39.45L114.52 39.48Q114.60 38.42 114.22 36.48L114.09 36.34L114.26 36.52Q113.27 31.79 111.17 29.93L111.10 29.86L110.98 29.54L110.69 29.18L110.72 29.09L110.61 28.99Q112.29 27.66 113.20 23.51L113.13 23.43L113.22 23.52Q113.10 23.02 113.18 22.19L113.16 22.17L113.29 22.30Q113.32 21.57 113.25 20.96L113.24 20.96L113.23 20.94Q113.08 19.50 111.90 19.00L111.97 19.07L111.97 19.04L111.75 18.89L111.67 18.81Q111.43 18.11 110.25 17.31L110.34 17.41L110.44 17.46L110.36 17.38Q108.29 16.61 104.21 16.42L104.33 16.53L104.24 16.44Q102.71 16.36 101.34 16.47L101.47 16.60L101.35 16.49Q100.56 16.53 99.26 16.68L99.32 16.74L99.37 16.79Q97.25 16.99 97.02 18.63L97.21 18.82L97.06 18.67Q97.12 19.26 97.16 20.06L97.08 19.98L97.11 20.02Q97.22 20.54 97.79 22.90L97.80 22.91L97.89 23.00Q98.64 26.19 100.40 27.52L100.34 27.47L100.39 27.52L100.47 27.60Q97.68 28.88 97.15 34.06L97.05 33.96L97.06 33.97Q96.87 36.18 96.87 37.10L96.89 37.12L96.93 37.15Q97.06 39.00 98.24 39.91L98.24 39.91L98.17 39.84Q98.22 39.85 98.49 40.04L98.64 40.20L98.57 40.13Q99.63 42.44 106.75 42.67ZM106.32 31.50L106.32 31.51L106.27 31.46Q107.37 31.57 108.25 32.03L108.10 31.88L108.17 31.95Q108.50 32.89 108.46 33.42L108.49 33.45L108.47 33.43Q108.53 33.75 108.53 34.06L108.49 34.02L108.58 34.11Q108.56 36.45 106.28 37.29L106.16 37.17L106.32 37.34Q105.53 37.65 104.73 37.53L104.70 37.50L104.67 37.48Q103.56 37.58 102.42 37.13L102.39 37.09L102.34 37.04Q102.10 36.42 102.17 35.43L102.17 35.43L102.16 35.42Q102.29 33.80 103.49 32.58L103.62 32.71L103.46 32.55Q104.67 31.34 106.27 31.46ZM106.61 22.09L106.64 22.12L106.67 22.15Q107.29 21.86 107.83 22.01L107.88 22.06L107.87 22.85L108.02 23.00Q107.84 24.23 106.93 25.24L107.00 25.31L106.97 25.29Q106.16 26.40 104.79 26.21L104.72 26.13L104.80 26.22Q103.74 26.15 103.32 25.92L103.31 25.91L103.27 25.87Q103.35 25.72 103.24 25.04L103.14 24.94L103.20 24.99Q102.89 23.54 104.11 22.71L104.19 22.79L104.04 22.64Q105.27 22.12 106.68 22.16Z"/><path fill="#6ae641" d="M69.71 14.30L69.71 14.31L69.75 14.34Q73.45 16.79 78.21 17.02L78.36 17.17L78.33 17.14Q82.79 17.14 87.05 15.39L87.07 15.41L87.09 15.43Q86.97 16.11 86.21 18.89L86.11 18.79L86.24 18.92Q83.35 19.80 80.38 19.95L80.46 20.03L80.36 19.93Q77.49 20.19 74.60 19.46L74.62 19.48L74.50 19.36Q75.24 23.04 75.43 26.69L75.54 26.80L75.41 26.66Q77.42 26.89 79.02 26.85L78.97 26.81L79.03 26.86Q80.35 26.96 82.75 26.85L82.66 26.76L82.67 26.77Q82.69 27.48 82.69 28.16L82.75 28.22L82.59 29.39L82.66 29.46Q80.29 29.49 75.49 29.57L75.53 29.61L75.45 29.53Q75.40 33.59 74.83 37.59L74.97 37.73L74.98 37.74Q77.55 37.03 80.29 37.14L80.28 37.13L80.21 37.06Q82.88 37.10 85.46 37.94L85.60 38.08L85.53 38.01Q85.71 38.91 85.98 39.67L85.82 39.51L86.42 41.18L86.30 41.06Q83.20 39.86 79.77 39.86L79.81 39.90L79.74 39.83Q74.90 39.87 70.64 42.11L70.51 41.99L70.59 42.06Q72.92 35.26 72.65 28.14L72.64 28.13L72.59 28.07Q72.47 21.06 69.80 14.40ZM70.07 42.76L70.05 42.75L70.02 42.71Q71.39 42.11 72.16 41.76L72.10 41.70L72.07 41.68Q71.85 42.41 71.28 43.94L71.42 44.07L71.40 44.05Q75.85 41.99 80.91 42.26L80.87 42.22L80.97 42.31Q86.17 42.64 90.16 45.34L90.11 45.29L90.12 45.30Q88.85 42.66 88.17 40.72L88.34 40.89L88.31 40.86Q87.21 40.14 86.22 39.80L86.20 39.78L86.20 39.78Q85.91 38.51 85.76 37.71L85.76 37.70L85.80 37.74Q82.64 36.67 79.48 36.67L79.50 36.70L79.46 36.66Q78.33 36.67 77.18 36.78L77.21 36.81L77.15 36.75Q77.37 35.60 77.41 34.38L77.34 34.31L77.45 31.83L77.46 31.84Q79.21 31.69 81.00 31.73L81.11 31.83L81.04 31.77Q82.84 31.77 84.63 31.93L84.65 31.95L84.66 31.96Q84.64 31.06 84.64 30.11L84.54 30.01L84.62 28.19L83.73 28.18L83.82 28.26Q83.34 28.28 82.88 28.28L83.01 28.41L82.92 28.31Q82.95 27.66 83.10 26.36L83.07 26.33L82.98 26.24Q81.52 26.61 80.34 26.65L80.28 26.59L80.28 26.59Q79.25 26.51 77.42 26.44L77.57 26.58L77.55 26.56Q77.43 25.11 77.24 22.29L77.34 22.39L77.23 22.28Q78.37 22.51 79.36 22.51L79.30 22.45L79.27 22.42Q83.91 22.34 87.60 20.43L87.67 20.50L87.77 20.60Q88.23 18.13 89.11 15.92L89.17 15.98L89.12 15.94Q87.85 16.84 87.02 17.19L87.05 17.22L86.93 17.09Q87.26 16.37 87.72 14.80L87.80 14.89L87.69 14.78Q83.13 16.99 78.25 16.68L78.17 16.60L78.26 16.69Q72.86 16.28 69.02 13.42L69.02 13.42L69.04 13.45Q71.87 20.35 72.18 27.96L72.16 27.95L72.19 27.98Q72.61 36.02 70.10 42.79Z"/><path fill="#77e8e8" d="M83.17 14.31L83.22 14.36L83.22 14.36Q86.96 16.85 91.72 17.08L91.70 17.05L91.78 17.13Q96.26 17.16 100.52 15.41L100.69 15.57L100.61 15.50Q100.38 16.07 99.62 18.84L99.66 18.88L99.54 18.77Q96.89 19.89 93.92 20.04L93.89 20.01L93.84 19.96Q90.90 20.14 88.01 19.41L88.02 19.43L88.01 19.42Q88.80 23.14 88.99 26.80L88.85 26.65L88.95 26.75Q90.84 26.86 92.44 26.82L92.60 26.97L92.43 26.80Q93.81 26.97 96.20 26.85L96.14 26.79L96.08 26.73Q96.01 27.35 96.01 28.03L96.15 28.17L96.14 29.49L96.09 29.44Q93.78 29.53 88.98 29.60L88.92 29.54L88.95 29.58Q88.85 33.59 88.28 37.58L88.28 37.58L88.36 37.66Q91.04 37.07 93.78 37.18L93.74 37.14L93.80 37.20Q96.41 37.19 99.00 38.02L98.94 37.97L98.92 37.94Q99.04 38.79 99.31 39.55L99.34 39.58L99.77 41.07L99.89 41.19Q96.56 39.77 93.14 39.77L93.27 39.90L93.25 39.89Q88.25 39.76 83.98 42.00L83.94 41.96L83.95 41.97Q86.31 35.19 86.04 28.07L86.18 28.21L86.15 28.18Q85.91 21.05 83.25 14.39ZM83.58 42.82L83.45 42.69L83.55 42.79Q84.72 41.98 85.48 41.64L85.64 41.80L85.60 41.76Q85.30 42.41 84.73 43.93L84.79 43.99L84.82 44.02Q89.24 41.93 94.30 42.19L94.43 42.33L94.48 42.37Q99.50 42.52 103.50 45.23L103.64 45.37L103.61 45.34Q102.39 42.74 101.70 40.80L101.68 40.77L101.75 40.84Q100.80 40.28 99.81 39.93L99.76 39.88L99.71 39.83Q99.41 38.54 99.25 37.74L99.28 37.77L99.11 37.60Q96.18 36.76 93.02 36.76L92.85 36.59L93.04 36.78Q91.86 36.75 90.72 36.86L90.69 36.83L90.60 36.74Q90.75 35.52 90.79 34.30L90.91 34.43L90.98 31.90L90.82 31.75Q92.79 31.81 94.58 31.85L94.44 31.71L94.58 31.86Q96.28 31.76 98.07 31.91L98.11 31.96L98.12 31.96Q98.12 31.09 98.12 30.14L98.09 30.11L97.98 28.09L97.19 28.18L97.19 28.18Q96.79 28.28 96.34 28.28L96.45 28.39L96.41 28.35Q96.38 27.64 96.53 26.34L96.47 26.28L96.47 26.28Q94.94 26.58 93.76 26.62L93.75 26.61L93.70 26.56Q92.80 26.60 90.97 26.53L90.90 26.46L90.88 26.44Q90.90 25.12 90.71 22.31L90.74 22.34L90.72 22.32Q91.70 22.38 92.69 22.38L92.69 22.38L92.66 22.36Q97.53 22.50 101.22 20.60L101.14 20.52L101.08 20.46Q101.65 18.10 102.53 15.89L102.65 16.01L102.65 16.02Q101.28 16.81 100.44 17.16L100.37 17.09L100.45 17.16Q100.77 16.42 101.23 14.86L101.20 14.83L101.07 14.70Q96.49 16.89 91.62 16.59L91.68 16.65L91.74 16.72Q86.36 16.32 82.52 13.47L82.47 13.42L82.44 13.39Q85.36 20.38 85.66 27.99L85.71 28.04L85.70 28.04Q86.11 36.06 83.60 42.84Z"/><path fill="#a38ce7" d="M117.83 29.64L117.98 29.79L117.94 29.74Q113.72 29.53 113.15 32.58L113.13 32.55L113.08 32.51Q112.90 33.57 113.09 34.45L113.07 34.43L113.19 34.56Q113.11 35.23 113.56 36.64L113.68 36.76L113.53 36.61Q114.62 39.79 117.93 39.64L117.96 39.66L117.95 39.65Q119.99 39.75 121.32 38.19L121.29 38.16L121.29 38.17Q122.59 36.76 122.59 34.70L122.61 34.72L122.54 34.66Q122.75 34.14 122.60 33.07L122.55 33.03L122.67 33.14Q122.49 32.13 122.07 31.44L122.06 31.44L122.10 31.47Q120.49 29.82 117.90 29.71ZM122.73 48.17L122.70 48.13L122.87 48.31Q120.96 48.79 112.89 49.17L112.86 49.15L112.86 49.15Q111.17 49.21 109.53 48.37L109.50 48.33L109.62 48.46Q110.31 47.36 112.14 45.57L112.25 45.68L112.20 45.64Q114.69 46.75 116.78 46.56L116.70 46.48L116.64 46.42Q119.52 46.13 120.35 45.87L120.49 46.01L120.42 45.93Q122.72 45.30 122.72 43.51L122.58 43.37L122.70 43.50Q122.66 43.23 122.59 43.00L122.57 42.98L122.46 41.39L122.44 41.36Q122.44 40.61 122.44 39.81L122.50 39.87L122.45 39.82Q121.20 42.19 117.81 42.19L117.81 42.18L117.71 42.08Q113.91 42.16 112.27 39.95L112.11 39.79L112.29 39.98Q111.10 38.36 110.30 33.95L110.26 33.91L110.24 33.88Q109.98 32.41 109.98 31.00L109.90 30.92L109.99 31.01Q110.03 29.27 110.95 28.28L111.00 28.33L110.95 28.28Q112.52 26.76 117.16 26.76L117.28 26.88L118.89 26.93L118.96 27.00Q122.08 27.27 123.42 29.21L123.57 29.37L123.53 29.33Q123.72 28.49 124.14 26.85L124.13 26.84L124.16 26.87Q126.04 26.54 127.79 25.81L127.62 25.65L127.65 25.68Q125.11 31.90 125.11 39.13L124.97 38.99L125.09 39.11Q124.97 41.65 125.35 44.28L125.49 44.42L125.50 44.43Q125.53 44.95 125.45 45.63L125.60 45.79L125.45 45.64Q125.38 47.12 124.16 47.89L124.04 47.76L124.03 47.76Q123.56 48.04 122.72 48.16ZM125.71 51.11L125.66 51.06L125.80 51.20Q127.15 51.15 127.92 50.19L128.08 50.35L128.02 50.30Q128.41 49.39 128.29 48.67L128.27 48.64L128.19 48.57Q128.05 47.89 127.86 47.13L127.91 47.18L127.88 47.15Q126.76 42.03 127.10 36.78L126.97 36.64L127.14 36.81Q127.35 31.24 129.48 26.40L129.55 26.48L127.33 27.30L127.49 27.46Q127.68 26.81 127.91 26.24L127.96 26.29L128.31 25.01L128.41 25.11Q125.97 25.98 123.76 26.40L123.73 26.36L123.88 26.51Q123.48 27.29 123.33 28.32L123.34 28.33L123.33 28.32Q121.14 26.32 117.10 26.32L117.14 26.36L115.37 26.34L115.41 26.38Q112.10 26.31 110.43 27.72L110.57 27.86L110.54 27.83Q109.63 28.82 109.67 30.73L109.57 30.63L109.57 30.63Q109.72 33.21 110.75 37.48L110.76 37.49L110.74 37.47Q111.17 39.35 112.39 40.76L112.40 40.77L112.63 41.00L112.72 41.09L112.72 41.09Q113.96 43.51 116.55 44.04L116.50 43.99L116.54 44.04Q117.98 44.37 119.43 44.41L119.43 44.41L119.37 44.35Q121.20 44.47 122.27 44.09L122.26 44.08L122.09 43.91Q121.64 45.63 118.97 45.97L118.88 45.88L118.89 45.88Q117.87 46.08 117.18 46.08L117.07 45.97L116.86 46.15L116.74 46.03Q113.99 46.09 112.31 45.14L112.29 45.11L110.62 46.87L110.58 46.83Q109.73 47.65 108.89 48.61L108.95 48.67L108.97 48.68Q109.83 49.09 110.82 49.28L110.87 49.32L110.04 50.25L110.05 50.25Q112.71 51.28 118.35 51.28L118.38 51.32L118.55 51.26L118.51 51.22Q122.15 51.24 125.73 51.13ZM119.78 32.00L119.88 32.11L119.80 32.02Q121.19 32.04 122.10 32.46L122.07 32.43L121.97 32.34Q122.27 32.94 122.35 33.62L122.28 33.55L122.38 33.65Q122.40 33.94 122.36 34.85L122.31 34.80L122.39 34.88Q122.12 36.59 121.01 37.88L121.04 37.91L121.15 38.03Q119.85 39.31 117.95 39.28L117.97 39.30L118.12 39.45Q116.61 39.30 115.77 38.89L115.76 38.88L115.71 38.83Q115.34 37.69 115.30 36.66L115.27 36.64L115.28 36.64Q115.28 32.42 119.89 32.11Z"/><path d="M5 18 C91 31,84 14,148 10" stroke="#498ed4" fill="none"/><path fill="#df80df" d="M46.17 40.48L46.14 40.45L46.17 40.48Q43.01 36.40 40.38 27.76L40.52 27.90L40.40 27.78Q39.74 25.63 38.94 23.50L38.90 23.46L36.19 32.40L36.19 32.40Q34.32 37.27 31.92 40.51L31.88 40.46L31.87 40.45Q31.17 40.67 29.53 40.82L29.42 40.70L29.47 40.76Q29.50 39.49 29.50 38.23L29.47 38.21L29.53 38.26Q29.51 32.23 26.77 26.10L26.72 26.06L26.77 26.10Q23.61 19.17 17.74 14.18L17.89 14.33L17.85 14.29Q19.90 14.89 22.26 15.42L22.37 15.53L22.29 15.46Q30.91 23.84 32.20 34.81L32.30 34.91L32.30 34.91Q34.02 31.68 35.47 26.31L35.46 26.30L35.47 26.31Q37.45 18.81 37.94 17.40L37.79 17.25L40.10 17.32L40.13 17.34Q40.73 19.27 41.38 21.60L41.46 21.68L42.69 26.11L42.75 26.17Q44.30 31.60 45.71 34.84L45.75 34.88L45.64 34.77Q47.31 23.15 55.23 15.81L55.27 15.85L55.15 15.73Q56.73 15.44 59.70 14.79L59.70 14.79L59.65 14.74Q54.44 19.17 51.39 25.29L51.44 25.34L51.34 25.24Q48.31 31.54 48.31 38.32L48.35 38.36L48.25 38.25Q48.26 39.37 48.34 40.51L48.31 40.49L47.15 40.35L47.16 40.36Q46.63 40.36 46.06 40.36ZM52.22 43.18L52.32 43.27L52.29 43.25Q51.15 39.79 51.27 35.90L51.20 35.84L51.16 35.79Q51.43 24.19 60.79 15.93L60.98 16.11L60.93 16.07Q60.01 16.32 58.07 16.85L58.08 16.87L57.93 16.71Q58.87 15.87 60.78 14.08L60.80 14.11L60.90 14.21Q58.11 14.85 55.18 15.34L55.19 15.35L55.17 15.33Q47.83 22.60 45.92 32.08L45.84 32.00L45.86 32.02Q45.26 30.35 42.41 18.89L42.52 19.01L42.41 18.90Q42.01 19.00 41.06 19.00L41.02 18.95L40.75 17.93L40.67 17.85Q40.58 17.33 40.35 16.84L40.44 16.93L37.47 16.85L37.55 16.94Q36.70 19.36 35.42 24.48L35.38 24.44L35.39 24.44Q34.08 29.53 33.09 32.01L33.12 32.03L33.19 32.10Q31.61 24.21 26.06 17.89L26.02 17.85L25.96 17.79Q25.43 17.68 24.48 17.49L24.50 17.52L24.65 17.66Q23.80 16.70 22.24 15.06L22.23 15.05L22.27 15.09Q18.96 14.37 16.79 13.57L16.71 13.49L16.62 13.41Q22.39 18.18 25.67 24.39L25.70 24.42L25.72 24.44Q29.06 30.95 29.06 37.95L29.05 37.93L29.11 38.00Q29.21 39.66 29.02 41.26L28.98 41.21L28.87 41.10Q29.26 41.27 29.72 41.17L29.53 40.99L29.71 41.17Q30.00 40.91 30.23 40.91L30.31 40.98L30.40 42.10L30.22 41.93Q30.36 42.52 30.44 43.05L30.42 43.04L30.46 43.08Q31.54 42.94 33.82 42.78L33.75 42.71L33.89 42.85Q37.43 37.37 40.17 27.97L40.09 27.89L40.18 27.98Q42.89 36.70 45.86 40.66L45.99 40.79L45.88 40.68Q46.33 40.67 47.17 40.79L47.18 40.80L47.33 40.95Q48.08 41.89 49.14 42.95L49.06 42.87L49.08 42.89Q49.83 42.92 52.23 43.19Z"/></svg>