<svg xmlns="http://www.w3.org/2000/svg" width="150" height="50" viewBox="0,0,150,50"><rect width="100%" height="100%" fill="white"/><path fill="#f1f187" d="M62.04 14.74L62.19 14.89L62.18 14.89Q63.16 17.01 65.10 17.01L65.19 17.10L65.22 17.12Q65.67 17.07 66.09 16.92L66.16 17.00L66.07 16.91Q65.79 21.96 65.75 28.35L65.76 28.36L65.75 28.35Q65.85 34.73 66.04 39.99L66.03 39.98L65.92 39.86Q65.55 39.72 65.17 39.72L65.32 39.88L65.21 39.76Q63.79 39.71 62.38 41.58L62.47 41.67L62.53 41.73Q63.04 34.86 63.00 28.16L63.06 28.21L63.12 28.27Q63.14 21.63 62.23 14.93ZM62.01 42.81L61.91 42.71L61.97 42.77Q62.96 41.32 64.14 40.60L64.00 40.46L64.03 40.48Q63.98 41.43 63.90 42.49L64.05 42.64L64.08 42.67Q64.79 42.12 65.55 42.24L65.48 42.16L65.58 42.26Q67.54 42.40 68.91 45.18L68.91 45.18L68.99 45.26Q67.79 37.89 67.79 30.61L67.77 30.60L67.74 30.57Q67.78 23.07 68.58 15.95L68.57 15.94L68.63 16.00Q67.49 17.72 66.42 18.36L66.44 18.38L66.46 18.40Q66.41 17.63 66.52 16.26L66.68 16.42L66.56 16.29Q65.69 16.64 64.93 16.52L65.12 16.72L65.08 16.68Q62.62 16.32 61.60 13.42L61.69 13.52L61.72 13.55Q62.81 21.03 62.92 28.19L62.80 28.07L62.82 28.09Q63.00 35.31 62.01 42.81Z"/><path fill="#e74a4a" d="M40.63 39.86L40.57 39.81L38.60 39.78L38.65 39.83Q37.78 39.91 36.83 40.02L36.69 39.88L36.72 39.92Q37.43 33.84 37.43 29.85L37.41 29.83L37.42 29.84Q33.34 23.06 25.69 14.38L25.74 14.43L25.70 14.40Q27.49 15.38 30.84 16.18L30.79 16.13L30.92 16.26Q36.00 21.87 39.00 27.09L38.98 27.06L38.84 26.92Q41.89 21.41 46.27 16.38L46.31 16.42L46.41 16.53Q48.74 16.03 51.25 15.23L51.26 15.24L51.30 15.28Q45.22 21.34 40.34 29.76L40.31 29.72L40.28 29.69Q40.38 36.84 40.69 39.92ZM49.72 17.28L52.51 14.51L52.48 14.48Q49.24 15.51 46.12 15.97L46.12 15.96L46.25 16.10Q42.05 20.85 39.24 25.95L39.07 25.79L39.12 25.83Q37.02 22.21 33.82 18.32L33.83 18.33L33.93 18.43Q33.59 18.36 33.09 18.28L33.01 18.20L33.16 18.34Q32.29 17.36 30.77 15.69L30.81 15.73L30.89 15.81Q27.45 15.00 24.48 13.44L24.54 13.49L24.43 13.39Q32.18 21.90 36.94 29.82L37.00 29.88L36.99 29.87Q36.90 36.22 36.29 40.37L36.23 40.30L36.31 40.38Q36.97 40.28 38.42 40.17L38.42 40.17L38.44 41.21L38.42 41.20Q38.46 41.69 38.39 42.23L38.44 42.28L38.46 42.30Q41.95 42.25 43.70 42.44L43.71 42.45L43.73 42.47Q42.43 37.74 42.31 31.76L42.29 31.75L42.28 31.73Q46.74 23.37 53.29 16.02L53.24 15.97L49.77 17.33Z"/><path fill="#cf78ec" d="M91.19 29.10L91.14 29.06L91.17 29.09Q89.28 28.91 88.04 30.33L88.20 30.49L88.21 30.51Q86.94 31.90 86.75 33.81L86.65 33.70L86.69 33.74Q86.38 35.72 87.47 36.69L87.48 36.70L87.57 36.79Q88.57 37.68 90.66 37.57L90.68 37.58L90.82 37.72Q92.87 37.52 93.97 36.84L93.85 36.72L93.98 36.85Q94.99 35.61 94.99 34.05L95.00 34.06L94.99 34.05Q95.09 33.77 95.02 33.39L94.96 33.33L95.02 33.40Q95.01 31.63 93.91 30.28L93.91 30.29L94.03 30.41Q92.97 29.09 91.29 29.21ZM90.81 40.27L90.83 40.28L90.78 40.23Q86.46 40.29 85.05 39.53L85.01 39.49L84.97 39.45Q83.99 38.74 83.80 37.03L83.78 37.00L83.80 37.03Q83.66 36.23 83.70 35.51L83.68 35.49L83.82 35.64Q83.90 34.61 83.90 34.15L83.91 34.16L83.80 34.05Q84.29 31.23 84.44 30.55L84.47 30.57L84.58 30.68Q84.89 28.60 85.73 27.19L85.86 27.31L85.86 27.32Q88.49 22.90 94.43 16.55L94.39 16.51L94.37 16.49Q97.14 16.29 99.35 15.49L99.32 15.46L99.27 15.41Q92.36 22.81 89.16 27.04L89.28 27.16L89.15 27.03Q90.24 26.64 91.54 26.64L91.53 26.63L91.51 26.61Q94.74 26.53 96.26 28.47L96.40 28.61L96.42 28.63Q97.59 30.10 97.93 33.64L97.93 33.64L97.93 33.64Q98.16 34.51 98.16 35.12L98.04 35.00L97.99 34.95Q98.09 38.18 95.88 39.24L95.87 39.23L95.82 39.18Q94.65 39.84 90.77 40.22ZM93.00 42.57L93.03 42.60L93.09 42.65Q94.28 42.52 96.26 42.59L96.28 42.62L96.42 42.75Q98.03 42.80 99.59 42.07L99.51 42.00L99.61 42.10Q100.64 41.23 100.64 39.44L100.71 39.51L100.71 39.50Q100.57 38.87 100.40 37.88L100.46 37.94L100.49 37.97Q100.33 36.99 100.33 36.53L100.38 36.59L100.28 36.49Q99.47 31.83 97.87 29.93L97.75 29.80L97.86 29.91Q97.76 29.77 97.60 29.55L97.61 29.55L97.24 29.26L97.12 29.17L97.19 29.24Q96.85 28.76 96.25 27.81L96.26 27.82L96.34 27.90Q95.34 26.86 93.36 26.40L93.43 26.47L93.41 26.45Q94.62 24.85 97.59 21.16L97.51 21.08L101.80 15.85L101.87 15.92Q100.19 16.68 97.80 17.44L97.72 17.37L97.78 17.43Q98.64 16.38 100.42 14.40L100.45 14.42L100.62 14.59Q98.02 15.46 94.14 16.03L94.24 16.13L94.23 16.12Q88.48 21.98 85.51 26.93L85.53 26.95L85.61 27.03Q84.11 29.57 83.54 35.81L83.54 35.81L83.46 35.73Q83.41 36.32 83.48 37.28L83.42 37.22L83.46 37.26Q83.61 39.08 84.71 39.99L84.73 40.01L84.67 39.95Q84.93 39.98 84.89 40.01L85.00 40.12L84.97 40.10Q85.28 40.94 86.08 41.36L86.11 41.39L86.17 41.44Q87.71 42.23 89.65 42.42L89.65 42.42L89.51 42.27Q89.57 42.33 93.07 42.64ZM92.92 31.48L92.80 31.37L92.88 31.44Q93.49 31.37 94.44 31.86L94.36 31.79L94.38 31.81Q94.73 32.76 94.73 33.41L94.64 33.32L94.63 33.31Q94.87 35.23 93.92 36.22L93.91 36.21L93.95 36.25Q92.90 36.98 90.80 37.29L90.69 37.17L90.79 37.27Q89.41 37.34 88.88 37.07L88.76 36.95L88.82 37.01Q88.61 36.54 88.61 36.23L88.63 36.26L88.56 36.19Q88.32 32.90 91.25 31.61L91.37 31.72L91.36 31.71Q92.12 31.37 92.88 31.44Z"/><path fill="#93e443" d="M77.56 40.24L77.59 40.27L77.62 40.30Q74.13 40.38 72.49 39.85L72.46 39.82L72.37 39.74Q70.53 39.22 70.22 35.83L70.09 35.70L71.60 34.70L71.65 34.74Q72.25 34.10 73.02 33.60L73.16 33.74L73.13 33.72Q72.80 35.56 74.40 36.78L74.34 36.72L74.36 36.73Q75.80 37.91 77.93 37.72L77.78 37.56L77.86 37.65Q82.23 37.21 82.04 33.67L82.02 33.66L82.11 33.75Q81.86 31.40 79.23 30.18L79.22 30.17L79.23 30.18Q76.37 29.12 74.01 27.90L74.15 28.03L74.04 27.93Q71.47 26.57 70.48 21.89L70.57 21.98L70.60 22.01Q70.45 21.52 70.33 20.76L70.34 20.76L70.25 20.67Q70.19 19.92 70.26 19.35L70.21 19.30L70.34 19.43Q70.39 17.73 71.65 17.27L71.67 17.30L71.68 17.30Q74.15 16.50 78.15 16.69L77.98 16.52L78.03 16.57Q79.83 16.66 80.63 16.74L80.69 16.79L80.63 16.73Q82.22 17.03 83.29 17.49L83.16 17.36L83.21 17.41Q85.44 18.00 85.67 20.48L85.58 20.40L85.51 20.32Q84.51 21.07 82.30 22.40L82.40 22.50L82.42 22.53Q81.97 19.49 77.59 19.49L77.57 19.47L77.49 19.38Q75.70 19.50 74.71 20.18L74.75 20.22L74.58 20.06Q73.42 20.57 73.65 22.36L73.70 22.41L73.69 22.39Q74.03 24.68 77.00 26.20L76.99 26.19L76.96 26.16Q77.56 26.46 82.05 28.10L81.98 28.02L81.95 28.00Q84.52 29.42 84.94 33.80L85.06 33.92L85.10 33.96Q85.00 34.01 85.08 35.27L84.99 35.18L85.05 35.24Q85.18 38.07 83.62 39.18L83.67 39.23L83.55 39.11Q81.78 40.15 77.59 40.27ZM79.84 42.60L79.80 42.55L79.96 42.72Q81.39 42.78 83.37 42.78L83.26 42.67L83.32 42.73Q85.41 42.72 86.67 42.30L86.69 42.33L86.73 42.37Q87.85 41.43 87.77 39.64L87.70 39.57L87.85 39.72Q87.67 38.59 87.29 36.53L87.33 36.57L87.37 36.61Q86.50 31.98 84.41 30.11L84.43 30.13L84.35 30.05Q83.66 28.56 82.33 27.84L82.26 27.77L76.84 25.59L77.04 25.78Q76.73 25.63 76.27 25.40L76.10 25.23L76.10 24.96L76.08 24.60L76.05 24.57Q75.85 23.11 76.99 22.50L76.96 22.47L77.05 22.56Q77.84 22.02 79.55 21.83L79.44 21.72L79.50 21.78Q80.61 21.63 81.75 22.08L81.75 22.08L81.85 22.18Q81.91 22.28 82.10 23.12L82.09 23.11L82.08 23.10Q82.30 22.97 82.79 22.75L82.63 22.59L82.73 22.68Q83.45 23.59 83.57 24.74L83.53 24.70L83.58 24.75Q83.66 24.71 87.31 22.12L87.39 22.20L87.35 22.16Q87.09 19.55 85.65 18.86L85.62 18.83L85.63 18.84Q84.97 17.50 83.53 16.97L83.61 17.05L83.51 16.95Q81.28 16.21 78.08 16.21L78.08 16.20L78.08 16.21Q73.22 16.26 71.36 16.94L71.32 16.91L71.39 16.98Q70.01 17.39 69.90 19.06L69.80 18.97L69.88 19.04Q69.86 19.60 70.28 21.81L70.25 21.77L70.21 21.73Q70.97 25.58 73.14 27.82L73.13 27.81L73.07 27.75Q73.81 29.41 75.32 30.10L75.42 30.20L75.49 30.27Q76.88 30.85 80.81 32.41L80.88 32.48L80.70 32.34L81.53 32.86L81.44 32.82L81.49 32.86Q81.64 33.27 81.67 33.62L81.72 33.67L81.61 33.55Q81.84 37.17 77.92 37.32L77.79 37.20L77.87 37.27Q76.72 37.31 75.43 36.93L75.40 36.90L75.47 36.97Q75.02 36.02 75.02 35.30L75.05 35.33L75.04 35.32Q75.14 35.16 75.18 34.89L75.18 34.89L75.21 34.92Q74.67 35.03 73.87 35.52L73.95 35.60L73.95 35.60Q73.41 34.45 73.56 33.08L73.59 33.11L73.48 33.00Q71.55 34.35 69.95 35.75L69.93 35.74L69.89 35.69Q69.95 36.51 70.02 37.54L70.01 37.52L70.00 37.51Q70.29 39.22 71.59 39.98L71.70 40.09L71.55 39.94Q72.85 41.85 75.40 42.23L75.34 42.16L75.37 42.20Q76.89 42.39 79.82 42.58Z"/><path d="M11 7 C90 27,93 33,132 33" stroke="#49b1d4" fill="none"/><path fill="#63dd63" d="M50.04 28.57L50.18 28.71L50.04 28.57Q47.25 28.60 46.49 30.84L46.49 30.84L46.52 30.88Q46.26 31.57 46.15 32.21L46.10 32.17L46.12 32.18Q48.68 32.35 50.31 32.35L50.33 32.37L50.46 32.49Q52.00 32.40 54.59 32.28L54.67 32.36L54.72 32.41Q54.58 30.68 53.17 29.61L53.13 29.56L53.20 29.63Q51.85 28.59 50.06 28.59ZM50.13 41.14L50.16 41.17L50.17 41.19Q45.99 41.23 44.69 39.82L44.63 39.75L44.62 39.75Q43.74 38.38 43.59 35.10L43.49 35.00L43.51 35.02Q43.59 34.87 43.51 33.50L43.53 33.52L43.43 33.41Q43.27 31.09 43.27 30.36L43.24 30.34L43.39 30.48Q43.26 28.49 43.98 27.39L44.03 27.43L44.07 27.47Q45.35 25.93 48.32 25.93L48.50 26.12L50.03 26.09L49.88 25.93Q52.06 26.06 53.58 26.36L53.49 26.27L53.50 26.28Q55.55 26.73 56.54 27.95L56.66 28.07L56.60 28.01Q57.27 29.14 57.35 31.23L57.35 31.23L57.41 31.29Q57.32 32.35 57.36 34.52L57.24 34.40L57.35 34.51Q54.53 34.58 51.75 34.58L51.73 34.56L46.15 34.58L46.10 34.53Q46.25 38.94 50.33 38.71L50.41 38.80L50.39 38.77Q54.03 38.46 55.25 36.63L55.40 36.78L55.31 36.69Q56.22 37.26 57.82 38.44L57.72 38.35L57.68 38.30Q56.35 40.74 52.20 41.00L52.24 41.05L52.33 41.14Q51.50 41.07 50.13 41.14ZM52.39 43.45L52.57 43.63L52.39 43.44Q53.55 43.46 54.77 43.54L54.71 43.48L54.76 43.53Q59.68 43.66 60.60 40.88L60.67 40.95L60.67 40.95Q59.12 39.78 58.01 39.02L57.88 38.89L57.88 38.89Q58.09 38.53 58.28 38.30L58.40 38.41L58.37 38.38Q57.51 37.79 56.14 36.83L56.26 36.96L56.31 37.01Q57.20 36.87 59.25 37.17L59.35 37.27L59.42 37.34Q59.27 36.01 59.19 35.32L59.12 35.26L59.00 33.34L59.03 33.37Q58.76 30.90 58.12 29.41L58.09 29.38L58.10 29.40Q57.97 29.19 57.40 28.58L57.23 28.41L57.25 28.43Q57.27 28.30 57.04 27.73L56.98 27.67L56.92 27.60Q54.97 25.51 49.91 25.51L50.04 25.63L48.27 25.54L48.20 25.48Q45.01 25.52 43.56 27.00L43.58 27.02L43.53 26.97Q42.89 28.12 42.93 30.17L42.91 30.16L42.93 30.18Q43.11 31.27 43.23 33.52L43.08 33.37L43.18 33.47Q43.31 35.12 43.42 37.18L43.39 37.15L43.38 37.14Q43.67 39.40 44.54 40.47L44.58 40.51L44.50 40.43Q44.60 40.53 44.79 40.64L44.76 40.61L45.13 41.32L45.16 41.35Q45.95 43.21 52.53 43.59ZM50.40 38.37L50.42 38.40L50.31 38.28Q49.23 38.46 48.32 38.00L48.26 37.95L48.19 37.88Q48.16 37.50 47.97 36.82L48.06 36.90L48.01 36.86Q49.78 36.84 51.38 36.84L51.25 36.71L51.32 36.78Q52.95 36.73 54.63 36.85L54.72 36.95L54.70 36.93Q53.46 38.30 50.45 38.42ZM52.03 31.02L51.96 30.95L52.04 31.03Q52.61 30.99 53.94 31.37L54.04 31.46L54.08 31.70L54.07 31.88L54.07 31.87Q52.83 32.12 51.92 32.08L51.94 32.11L51.94 32.11Q49.55 31.96 49.51 31.96L49.53 31.98L49.50 31.95Q50.33 31.11 52.01 30.99Z"/><path fill="#dc6abf" d="M114.95 33.21L115.05 33.31L115.05 33.31Q114.97 36.20 113.79 40.84L113.80 40.86L113.80 40.85Q111.92 41.29 110.32 42.09L110.27 42.04L110.36 42.14Q112.92 35.06 112.65 27.64L112.63 27.61L112.77 27.76Q112.31 20.18 109.23 13.44L109.24 13.46L109.30 13.51Q111.27 14.80 113.14 15.37L113.08 15.31L113.14 15.37Q115.21 22.28 115.21 28.95L115.26 28.99L115.36 29.09Q115.24 30.41 115.16 31.90L115.14 31.88L115.19 31.93Q116.26 30.64 121.47 25.69L121.51 25.72L121.55 25.76Q122.62 25.73 123.61 25.65L123.59 25.64L125.63 25.43L125.62 25.41Q122.50 28.46 118.19 32.23L118.27 32.31L118.20 32.24Q121.56 34.98 128.03 40.81L128.01 40.79L128.03 40.81Q125.47 40.07 122.50 39.88L122.41 39.79L122.33 39.72Q119.99 37.79 115.12 33.38ZM124.86 42.40L125.01 42.55L125.00 42.54Q129.59 43.25 132.71 45.19L132.80 45.28L132.85 45.32Q131.63 43.99 129.00 41.59L128.96 41.55L128.92 41.50Q129.21 41.64 129.47 41.76L129.37 41.66L129.49 41.77Q127.30 39.66 125.05 37.76L125.17 37.87L120.80 34.03L120.69 33.93Q125.67 29.73 128.10 26.83L128.10 26.83L128.11 26.84Q126.91 26.94 124.44 27.20L124.44 27.21L124.31 27.08Q125.99 25.71 126.68 24.87L126.63 24.83L126.70 24.90Q123.87 25.34 121.40 25.34L121.41 25.36L121.51 25.46Q119.93 26.58 117.19 29.25L117.38 29.44L117.23 29.28Q117.36 23.63 116.37 17.80L116.25 17.68L116.35 17.78Q115.65 17.62 114.16 17.35L114.01 17.19L114.13 17.31Q113.89 16.51 113.44 15.02L113.40 14.99L113.50 15.09Q110.81 14.22 108.56 12.66L108.51 12.61L108.55 12.65Q112.05 19.54 112.39 27.64L112.30 27.55L112.39 27.64Q112.74 35.57 109.73 42.80L109.65 42.72L109.64 42.71Q110.43 42.51 111.76 41.87L111.77 41.87L111.73 41.83Q111.56 42.73 110.91 44.17L110.77 44.03L110.87 44.13Q113.65 42.99 115.78 42.61L115.90 42.72L115.90 42.73Q116.28 40.03 116.78 35.76L116.88 35.87L116.96 35.94Q119.56 38.20 125.00 42.54Z"/><path fill="#baeb89" d="M132.17 23.33L132.21 23.37L132.15 23.30Q129.01 23.37 127.18 22.30L127.13 22.24L127.27 22.39Q129.64 20.87 134.51 16.65L134.69 16.82L134.51 16.64Q135.24 16.46 136.53 15.85L136.55 15.87L136.54 15.86Q135.22 21.81 135.10 28.16L135.23 28.29L135.10 28.16Q135.15 34.68 136.22 40.78L136.15 40.71L136.14 40.70Q134.36 39.87 132.23 39.76L132.35 39.88L132.33 39.86Q132.22 35.71 132.22 31.64L132.21 31.63L132.16 31.58Q132.27 27.58 132.31 23.47ZM131.87 25.66L131.86 40.23L131.86 40.22Q132.99 40.14 133.94 40.33L134.03 40.42L133.98 40.37Q134.05 41.04 134.24 42.41L134.24 42.42L134.32 42.49Q137.08 42.93 139.51 45.17L139.68 45.35L139.51 45.18Q137.02 38.04 136.98 30.58L137.09 30.69L137.13 30.72Q136.95 23.16 138.77 15.92L138.83 15.98L138.85 16.00Q138.22 16.32 136.62 17.42L136.74 17.54L136.76 17.56Q136.91 16.77 137.22 15.24L137.23 15.25L137.10 15.12Q135.78 15.90 134.34 16.28L134.32 16.26L134.47 16.41Q130.66 19.95 126.36 22.24L126.37 22.24L126.37 22.25Q127.83 23.41 130.19 23.75L130.13 23.68L130.13 23.69Q129.52 24.26 128.23 25.33L128.22 25.32L128.14 25.24Q129.59 25.58 131.79 25.58L131.83 25.61Z"/><path d="M13 34 C58 17,57 40,145 3" stroke="#5fe1c1" fill="none"/><path fill="#43d9d9" d="M21.14 23.02L21.24 23.12L21.21 23.09Q19.34 25.74 16.67 31.38L16.78 31.49L14.69 35.64L14.79 35.74Q13.81 37.54 12.48 39.79L12.49 39.80L12.45 39.75Q13.01 39.86 11.33 39.90L11.20 39.76L11.26 39.83Q11.29 39.85 10.03 39.85L10.00 39.82L10.12 39.94Q9.29 38.35 6.36 31.19L6.32 31.16L6.32 31.15Q4.14 25.78 2.05 22.77L2.20 22.92L2.02 22.74Q2.83 25.87 2.83 29.03L2.95 29.15L2.80 29.01Q2.85 35.56-0.12 41.12L-0.17 41.07L0.00 41.24Q-1.45 41.47-3.81 42.19L-3.69 42.31L-3.87 42.13Q-0.04 36.59-0.04 29.36L-0.09 29.31L-0.12 29.28Q-0.16 20.30-5.56 13.33L-5.49 13.41L-5.44 13.46Q-3.85 14.13-1.49 14.81L-1.52 14.79L-1.55 14.76Q5.61 21.61 11.70 34.94L11.65 34.89L11.56 34.80Q15.06 27.79 17.27 24.29L17.26 24.27L17.38 24.40Q20.92 18.57 24.88 15.11L24.81 15.03L24.87 15.09Q26.10 14.84 28.46 14.08L28.49 14.11L28.53 14.15Q23.45 20.68 23.45 29.28L23.60 29.44L23.43 29.27Q23.53 36.02 26.95 41.54L27.03 41.62L26.89 41.48Q25.61 41.23 22.87 40.62L22.84 40.59L22.80 40.55Q20.45 35.76 20.45 29.78L20.47 29.80L20.47 29.81Q20.50 26.41 21.18 23.06ZM22.73 41.05L22.65 40.97L22.68 41.00Q23.40 41.15 24.84 41.41L24.71 41.28L24.82 41.39Q25.23 42.10 26.18 43.59L26.18 43.58L26.22 43.63Q28.26 43.95 31.72 45.17L31.84 45.29L31.78 45.23Q25.48 38.86 25.48 29.04L25.43 28.98L25.58 29.13Q25.60 21.43 29.98 15.30L29.87 15.18L27.72 15.93L27.78 15.99Q28.76 14.42 29.41 13.54L29.35 13.49L29.43 13.57Q27.56 14.21 24.93 14.74L24.81 14.61L24.93 14.74Q18.06 20.73 12.01 33.33L12.14 33.47L11.99 33.32Q6.79 22.33 1.84 17.08L1.98 17.22L2.00 17.24Q1.63 17.17 1.06 17.06L1.01 17.01L-0.28 15.65L-0.31 15.61Q-0.80 15.05-1.48 14.44L-1.50 14.42L-1.45 14.48Q-4.46 13.52-6.24 12.80L-6.37 12.68L-6.34 12.71Q-0.28 19.99-0.28 29.39L-0.44 29.23L-0.29 29.38Q-0.46 36.82-4.61 42.68L-4.54 42.75L-4.44 42.85Q-3.89 42.49-2.59 42.07L-2.50 42.17L-2.51 42.16Q-2.59 42.46-4.00 44.55L-4.10 44.45L-4.09 44.46Q-2.18 44.09 1.33 43.33L1.16 43.16L1.14 43.14Q5.05 36.28 4.86 28.52L4.80 28.45L4.87 28.52Q6.23 32.35 9.69 40.23L9.78 40.32L9.76 40.31Q9.89 40.13 10.12 40.13L10.32 40.33L10.66 40.13L10.78 40.26Q11.16 40.87 11.96 42.16L12.04 42.24L11.92 42.12Q13.59 42.15 13.59 42.15L13.60 42.16L13.70 42.26Q14.66 42.20 15.31 42.27L15.23 42.19L15.35 42.31Q16.89 38.26 20.24 30.26L20.16 30.18L20.12 30.14Q20.11 35.69 22.70 41.02Z"/><path d="M9 8 C62 16,78 47,142 28" stroke="#46d66a" fill="none"/><path fill="#e890bc" d="M108.86 30.83L108.91 30.88L109.01 30.98Q108.73 29.60 106.79 28.88L106.85 28.94L106.96 29.04Q106.46 28.85 105.93 28.85L105.77 28.69L105.75 28.67Q104.48 28.77 103.41 29.34L103.32 29.25L103.43 29.36Q102.09 30.11 102.21 31.33L102.08 31.21L102.20 31.33Q102.53 34.13 102.37 36.37L102.36 36.36L102.39 36.39Q102.23 38.82 101.51 41.33L101.48 41.31L101.56 41.38Q99.28 41.73 98.10 42.15L98.25 42.30L98.15 42.20Q99.84 38.67 99.84 34.68L99.85 34.69L99.82 34.66Q99.75 29.14 97.16 24.69L97.11 24.63L97.16 24.69Q98.40 25.21 100.80 25.93L100.84 25.97L100.87 26.00Q101.14 26.68 101.52 28.21L101.47 28.16L101.45 28.14Q102.72 25.98 106.60 26.06L106.74 26.20L106.71 26.16Q108.09 26.10 108.89 26.21L109.03 26.35L109.05 26.37Q111.88 26.62 111.96 28.64L112.10 28.77L111.95 28.63Q112.13 29.69 111.94 30.71L111.86 30.63L111.95 30.72Q111.46 33.20 111.65 36.21L111.51 36.07L111.57 36.13Q111.81 39.08 112.80 41.63L112.75 41.57L112.78 41.60Q111.11 41.23 109.40 41.07L109.23 40.91L109.35 41.03Q108.76 38.54 108.69 35.87L108.73 35.92L108.87 36.06Q108.77 33.29 109.00 30.97ZM108.86 41.26L108.99 41.39L108.91 41.31Q109.64 41.24 110.94 41.47L111.09 41.62L111.46 42.69L111.41 42.63Q111.54 43.06 111.77 43.60L111.73 43.56L111.85 43.68Q114.07 44.03 116.77 45.21L116.82 45.27L116.88 45.32Q114.51 42.19 113.82 38.38L113.71 38.27L113.76 38.32Q113.39 36.16 113.50 32.46L113.46 32.42L113.47 32.43Q113.57 32.23 113.61 31.43L113.64 31.46L113.63 31.45Q113.64 30.77 113.56 30.28L113.58 30.29L113.67 30.39Q113.47 28.63 112.37 28.13L112.26 28.03L112.43 28.19Q112.20 27.28 111.44 26.67L111.43 26.66L111.35 26.58Q109.79 25.71 106.75 25.79L106.63 25.67L106.75 25.79Q104.89 25.83 104.05 26.02L104.04 26.01L103.92 25.89Q102.60 26.36 101.65 27.28L101.54 27.17L101.49 27.11Q101.48 26.69 101.10 25.66L101.18 25.74L100.99 25.55Q98.25 24.94 96.43 23.95L96.44 23.97L96.42 23.95Q99.52 28.88 99.52 34.63L99.46 34.57L99.54 34.65Q99.48 38.96 97.58 42.81L97.60 42.83L97.63 42.86Q98.26 42.50 99.56 42.12L99.49 42.06L99.56 42.13Q99.14 43.45 98.60 44.44L98.61 44.45L98.62 44.46Q99.97 43.95 103.51 43.38L103.55 43.42L103.50 43.37Q104.53 38.27 104.42 33.43L104.40 33.42L104.45 33.46Q104.23 32.44 105.41 31.72L105.49 31.80L105.53 31.84Q106.52 31.15 107.62 31.04L107.59 31.00L107.73 31.15Q108.03 30.95 108.45 31.14L108.45 31.14L108.56 31.25Q108.40 33.80 108.44 36.35L108.35 36.25L108.34 36.25Q108.47 38.85 108.96 41.36Z"/><path d="M21 44 C70 17,68 4,143 27" stroke="#e17c5a" fill="none"/><path fill="#80e85e" d="M32.69 40.45L32.69 40.45L32.58 40.34Q29.57 36.42 26.94 27.78L27.05 27.88L27.02 27.85Q26.36 25.71 25.56 23.58L25.48 23.50L22.76 32.42L22.75 32.41Q20.77 37.17 18.37 40.40L18.42 40.46L18.46 40.50Q17.53 40.48 15.90 40.64L16.04 40.78L16.00 40.74Q16.06 39.50 16.06 38.25L16.14 38.33L16.08 38.27Q16.12 32.29 13.38 26.16L13.39 26.18L13.30 26.09Q10.21 19.22 4.34 14.24L4.41 14.31L4.27 14.16Q6.46 14.90 8.82 15.44L8.85 15.47L8.90 15.52Q17.58 23.97 18.88 34.93L18.84 34.90L18.75 34.81Q20.41 31.52 21.85 26.15L21.87 26.16L21.91 26.20Q23.98 18.79 24.47 17.38L24.32 17.24L26.56 17.22L26.56 17.23Q27.27 19.27 27.92 21.60L27.97 21.64L29.25 26.12L29.24 26.12Q30.77 31.52 32.18 34.76L32.11 34.69L32.11 34.69Q33.84 23.14 41.76 15.79L41.89 15.92L41.76 15.79Q43.31 15.48 46.28 14.83L46.38 14.93L46.33 14.88Q40.96 19.14 37.92 25.27L37.99 25.35L37.83 25.19Q34.88 31.56 34.88 38.33L34.81 38.27L34.78 38.24Q34.92 39.48 34.99 40.62L34.82 40.44L33.77 40.43L33.78 40.44Q33.17 40.36 32.60 40.36ZM38.84 43.25L38.88 43.29L38.77 43.18Q37.66 39.75 37.77 35.86L37.77 35.86L37.82 35.91Q38.15 24.36 47.51 16.10L47.46 16.05L47.39 15.98Q46.54 16.30 44.59 16.84L44.45 16.70L44.50 16.74Q45.49 15.95 47.40 14.16L47.46 14.22L47.44 14.20Q44.72 14.91 41.79 15.40L41.71 15.32L41.86 15.47Q34.34 22.57 32.44 32.05L32.30 31.92L32.41 32.03Q31.92 30.47 29.06 19.01L28.88 18.82L28.99 18.93Q28.54 18.98 27.59 18.98L27.61 19.00L27.31 17.94L27.21 17.84Q27.27 17.48 27.04 16.99L26.87 16.81L23.99 16.82L24.10 16.94Q23.26 19.37 21.99 24.49L22.00 24.51L21.86 24.37Q20.57 29.48 19.59 31.95L19.60 31.96L19.68 32.05Q18.15 24.20 12.59 17.88L12.58 17.86L12.49 17.78Q12.05 17.76 11.10 17.57L11.05 17.51L11.07 17.54Q10.46 16.82 8.90 15.18L8.92 15.20L8.73 15.01Q5.43 14.29 3.26 13.49L3.23 13.47L3.29 13.53Q8.88 18.12 12.15 24.33L12.30 24.47L12.14 24.32Q15.75 31.08 15.75 38.09L15.70 38.04L15.61 37.95Q15.73 39.63 15.54 41.23L15.49 41.18L15.53 41.22Q15.70 41.16 16.16 41.07L16.26 41.17L16.15 41.06Q16.63 40.99 16.86 40.99L16.77 40.90L16.81 41.97L16.82 41.98Q16.81 42.42 16.88 42.96L16.95 43.03L17.00 43.07Q18.18 43.03 20.46 42.88L20.27 42.68L20.38 42.80Q23.93 37.32 26.67 27.92L26.71 27.96L26.70 27.95Q29.45 36.71 32.42 40.67L32.50 40.75L32.40 40.66Q33.00 40.80 33.84 40.91L33.88 40.96L33.78 40.85Q34.57 41.84 35.64 42.90L35.67 42.94L35.76 43.03Q36.49 43.03 38.89 43.30Z"/><path d="M21 5 C77 42,85 3,130 35" stroke="#65e084" fill="none"/></svg>