<svg xmlns="http://www.w3.org/2000/svg" width="150" height="50" viewBox="0,0,150,50"><rect width="100%" height="100%" fill="white"/><path fill="#86e8b7" d="M90.36 28.87L90.41 28.92L90.33 28.84Q87.80 28.86 86.78 30.04L86.87 30.14L86.86 30.13Q85.74 31.22 85.74 33.84L85.87 33.97L85.81 33.91Q85.71 38.92 90.32 38.73L90.47 38.88L90.48 38.89Q92.45 38.95 93.80 37.39L93.78 37.37L93.87 37.46Q95.20 35.88 94.98 33.83L94.94 33.79L94.92 33.77Q95.01 31.31 94.14 30.29L94.03 30.18L94.11 30.25Q92.64 28.94 90.43 28.94ZM95.40 38.67L95.52 38.79L95.36 38.63Q94.36 41.28 89.67 41.28L89.53 41.13L88.12 41.17L88.06 41.11Q85.71 41.12 84.60 39.98L84.72 40.09L84.65 40.03Q83.72 39.09 83.45 36.69L83.28 36.52L83.32 36.56Q83.12 35.03 83.05 33.24L83.14 33.34L83.09 33.29Q83.05 32.30 82.90 30.36L82.90 30.36L82.86 30.31Q82.79 26.06 87.97 26.06L88.04 26.13L89.66 26.19L89.49 26.02Q92.39 26.02 94.48 27.32L94.55 27.38L94.58 27.41Q95.41 27.94 95.91 28.63L95.86 28.58L95.88 28.60Q96.04 27.69 96.57 26.05L96.61 26.10L96.68 26.17Q97.82 25.90 100.14 25.29L100.12 25.26L100.20 25.34Q97.51 29.47 97.51 34.72L97.61 34.82L97.57 34.78Q97.69 38.64 99.06 41.72L99.05 41.71L98.92 41.57Q97.92 41.42 96.02 41.19L96.02 41.19L96.01 41.18Q95.79 40.31 95.48 38.75ZM98.74 43.91L98.67 43.84L100.90 44.43L101.03 44.56Q102.28 44.90 103.27 45.35L103.23 45.32L103.21 45.30Q99.48 40.88 99.48 34.79L99.41 34.72L99.50 34.81Q99.57 30.35 101.70 26.54L101.69 26.53L101.70 26.54Q100.96 26.68 99.63 27.06L99.75 27.18L99.57 27.00Q100.06 26.38 100.93 24.86L100.78 24.71L100.96 24.89Q100.30 24.98 96.30 25.82L96.28 25.80L95.69 27.61L95.71 27.63Q94.01 25.97 89.60 25.74L89.51 25.66L89.47 25.61Q88.52 25.81 86.27 25.96L86.09 25.78L86.28 25.97Q82.56 26.28 82.67 30.31L82.66 30.31L82.62 30.26Q82.64 33.48 83.21 37.94L83.25 37.98L83.35 38.50L83.39 38.54Q83.45 39.31 84.25 40.42L84.16 40.34L84.22 40.39Q84.42 40.59 84.61 40.70L84.57 40.67L84.50 40.60Q84.88 41.20 85.26 41.77L85.26 41.77L85.30 41.82Q86.66 43.29 90.05 43.48L90.05 43.48L90.11 43.54Q91.57 43.48 91.72 43.48L91.88 43.64L93.30 43.49L93.29 43.49Q96.64 43.63 97.85 42.07L97.85 42.06L97.74 41.96Q98.21 42.70 98.82 43.99ZM92.20 31.16L92.26 31.22L92.28 31.25Q93.61 31.24 94.45 31.70L94.42 31.67L94.32 31.57Q94.66 32.41 94.66 33.86L94.76 33.95L94.61 33.81Q94.90 35.81 93.62 37.23L93.62 37.23L93.67 37.28Q92.29 38.60 90.38 38.41L90.51 38.54L90.41 38.43Q88.96 38.44 87.94 38.02L87.88 37.96L87.85 37.93Q87.73 37.16 87.73 35.94L87.66 35.88L87.79 36.00Q87.85 32.41 90.48 31.46L90.51 31.49L90.41 31.39Q91.45 31.22 92.25 31.22Z"/><path fill="#4ceac2" d="M115.49 36.85L115.55 36.92L115.60 36.96Q116.60 37.74 118.01 37.58L118.08 37.65L118.16 37.74Q121.13 37.97 121.78 34.62L121.67 34.51L121.70 34.54Q122.29 31.35 122.29 27.97L122.22 27.90L122.31 25.40L122.21 25.30Q122.28 24.12 121.94 22.86L121.86 22.78L122.02 22.94Q120.72 25.18 118.74 29.94L118.81 30.01L118.71 29.91Q116.67 34.61 115.45 36.82ZM120.63 20.48L120.61 20.46L120.56 20.42Q119.38 19.58 118.05 19.58L118.13 19.66L118.04 19.57Q116.54 19.40 115.43 20.31L115.54 20.42L115.43 20.31Q114.51 21.40 114.32 22.89L114.30 22.87L114.16 22.73Q113.82 24.10 113.78 25.59L113.78 25.59L113.85 25.66Q113.76 25.56 113.76 28.42L113.78 28.44L113.88 28.55Q113.75 30.78 114.21 34.39L114.28 34.46L114.21 34.40Q116.13 29.65 120.50 20.36ZM122.11 39.22L122.22 39.32L122.13 39.23Q120.32 40.08 118.00 40.08L118.02 40.10L116.50 40.22L116.41 40.13Q113.19 40.15 112.04 38.43L112.07 38.46L111.97 38.36Q111.22 36.23 111.14 33.30L111.19 33.35L111.25 33.42Q111.19 31.64 111.12 28.18L110.96 28.03L111.01 28.07Q111.07 26.95 110.92 23.90L110.93 23.92L110.81 23.80Q110.79 21.57 111.09 19.59L111.09 19.58L111.08 19.58Q111.63 16.70 115.97 16.48L115.84 16.34L115.90 16.40Q116.77 16.47 118.10 16.51L117.95 16.36L118.06 16.47Q123.63 16.52 124.69 19.98L124.85 20.14L124.70 19.99Q125.41 21.99 125.37 23.85L125.24 23.73L125.32 23.80Q125.21 28.76 125.14 29.98L125.28 30.12L125.25 30.09Q124.96 33.80 124.65 35.09L124.75 35.18L124.75 35.19Q124.00 38.20 122.09 39.19ZM127.01 38.94L127.11 39.04L127.14 39.07Q127.38 36.30 127.35 34.51L127.35 34.51L127.11 29.75L127.19 29.82Q127.03 26.73 126.49 21.21L126.53 21.25L126.62 21.33Q126.11 19.53 124.82 18.77L124.84 18.80L124.69 18.64Q123.30 16.26 118.12 16.11L118.04 16.03L118.01 16.00Q117.15 15.98 115.82 16.02L115.74 15.93L115.81 16.01Q111.38 16.19 110.89 19.31L110.74 19.16L110.84 19.26Q110.50 21.63 110.62 23.72L110.52 23.62L110.55 23.66Q110.95 28.09 110.91 31.44L110.88 31.41L110.88 31.40Q110.79 35.05 110.91 36.08L110.99 36.16L110.94 36.11Q111.27 39.14 112.79 39.94L112.73 39.88L112.76 39.91Q114.26 42.13 118.26 42.40L118.25 42.39L118.21 42.35Q121.80 42.59 122.44 42.55L122.60 42.71L122.53 42.64Q125.46 42.56 126.60 40.96L126.52 40.88L126.44 40.80Q127.03 40.21 127.11 39.03ZM118.40 37.21L118.40 37.21L118.57 37.39Q119.07 35.75 120.14 33.05L120.27 33.19L121.98 28.95L121.92 28.89Q121.87 30.52 121.49 33.87L121.59 33.97L121.46 33.84Q120.94 36.86 118.54 37.36ZM116.58 25.08L116.59 25.09L116.58 25.08Q116.89 23.14 117.58 22.57L117.66 22.65L117.56 22.55Q118.03 22.15 119.33 21.96L119.42 22.05L119.36 21.99Q117.73 25.74 115.87 30.38L115.73 30.24L115.89 30.40Q115.76 27.57 116.44 24.94Z"/><path fill="#de67de" d="M35.16 14.77L35.14 14.75L35.16 14.77Q36.31 17.06 38.25 17.06L38.29 17.11L38.31 17.12Q38.79 17.11 39.21 16.96L39.12 16.86L39.12 16.86Q39.02 22.10 38.99 28.50L38.97 28.48L38.86 28.37Q38.84 34.63 39.03 39.88L39.04 39.90L39.10 39.96Q38.67 39.75 38.29 39.75L38.26 39.73L38.32 39.78Q36.98 39.82 35.57 41.68L35.53 41.63L35.66 41.77Q36.16 34.88 36.12 28.18L36.18 28.24L36.10 28.16Q36.20 21.59 35.28 14.89ZM35.03 42.73L35.02 42.72L35.09 42.80Q36.00 41.27 37.18 40.55L37.14 40.50L37.14 40.50Q37.26 41.61 37.18 42.68L37.09 42.59L37.00 42.50Q37.92 42.16 38.68 42.27L38.60 42.20L38.71 42.30Q40.63 42.40 42.00 45.17L42.00 45.17L42.08 45.25Q40.86 37.87 40.86 30.60L40.88 30.61L40.85 30.59Q40.87 23.07 41.67 15.95L41.75 16.04L41.72 16.00Q40.71 17.85 39.65 18.50L39.52 18.37L39.63 18.48Q39.64 17.77 39.76 16.40L39.67 16.31L39.65 16.29Q38.93 16.79 38.17 16.68L38.18 16.69L38.21 16.72Q35.77 16.37 34.74 13.48L34.63 13.37L34.70 13.43Q35.79 20.92 35.91 28.08L35.94 28.11L35.91 28.08Q36.03 35.25 35.04 42.75Z"/><path fill="#4b9beb" d="M98.08 15.87L98.06 15.84L98.14 15.92Q100.02 20.77 100.59 25.95L100.49 25.84L100.53 25.89Q104.15 21.67 110.06 16.84L110.06 16.84L110.05 16.83Q113.42 16.70 116.05 15.90L116.01 15.86L109.42 21.46L109.45 21.48Q106.08 24.47 103.22 27.33L103.09 27.19L103.24 27.34Q111.12 36.41 116.19 41.13L116.23 41.17L116.15 41.09Q113.04 40.15 110.72 40.00L110.85 40.13L110.75 40.03Q105.05 34.71 100.75 28.89L100.72 28.86L100.61 28.75Q100.71 35.36 98.85 40.69L98.87 40.71L98.89 40.74Q98.62 40.73 98.12 40.92L98.14 40.94L98.13 41.11L98.09 41.07Q98.02 41.23 95.47 42.14L95.36 42.04L95.35 42.02Q98.43 35.59 98.08 28.13L98.05 28.09L97.96 28.00Q97.73 20.77 94.19 14.26L94.11 14.18L94.74 14.54L95.15 14.84L95.19 14.84L95.07 14.72Q95.83 15.14 98.04 15.82ZM98.40 15.61L98.34 15.55L98.42 15.63Q96.02 14.95 93.39 13.42L93.36 13.39L93.38 13.41Q97.83 20.86 97.83 29.81L97.68 29.66L97.83 29.81Q97.81 36.80 94.84 42.85L94.75 42.76L96.78 41.89L96.72 41.84Q96.40 42.92 95.71 44.22L95.69 44.19L95.67 44.18Q97.91 43.37 99.85 42.95L99.81 42.91L99.94 42.81L100.03 42.90Q100.25 42.81 100.82 42.66L100.88 42.72L100.81 42.65Q102.41 36.67 102.52 31.88L102.48 31.83L102.50 31.85Q104.76 34.53 106.58 36.40L106.50 36.31L106.45 36.26Q107.68 37.41 110.69 40.38L110.62 40.32L110.81 40.51L110.62 40.32Q111.78 41.29 113.65 42.89L113.55 42.79L113.48 42.72Q117.36 43.44 120.83 45.16L120.89 45.22L121.01 45.34Q111.60 36.65 105.36 29.23L105.33 29.21L105.41 29.29Q109.74 24.93 118.49 16.33L118.56 16.40L118.53 16.37Q116.09 17.62 114.07 18.00L113.90 17.83L114.06 17.98Q115.17 16.89 117.49 14.87L117.56 14.94L117.59 14.96Q113.36 16.26 110.01 16.45L110.03 16.47L110.05 16.48Q107.12 18.70 102.25 23.38L102.20 23.33L102.26 23.39Q101.84 20.76 101.27 18.21L101.40 18.34L101.37 18.32Q100.17 18.15 99.18 17.80L99.05 17.67L99.06 17.68Q98.93 17.01 98.35 15.57Z"/><path fill="#e89377" d="M79.42 40.21L79.43 40.22L79.30 40.09Q77.60 40.18 75.92 40.76L75.90 40.73L75.81 40.64Q76.41 37.09 76.52 33.97L76.49 33.94L76.43 33.88Q76.59 30.88 76.36 27.22L76.35 27.21L76.43 27.29Q75.00 26.89 74.24 26.51L74.27 26.53L73.81 23.45L73.89 23.53Q74.56 24.09 76.16 24.66L76.13 24.63L76.18 24.68Q76.02 22.61 75.60 19.87L75.57 19.84L75.48 19.76Q77.77 20.45 79.41 20.29L79.44 20.33L79.29 24.89L79.41 25.02Q80.69 24.81 82.02 24.32L82.16 24.45L82.05 24.34Q81.99 25.23 81.76 26.99L81.88 27.11L81.86 27.09Q80.29 27.38 79.26 27.38L79.21 27.33L79.19 27.31Q79.34 29.62 79.34 33.89L79.36 33.92L79.38 33.93Q79.32 38.02 79.40 40.19ZM82.49 23.79L82.43 23.73L82.54 23.84Q82.33 24.01 81.72 24.24L81.70 24.22L81.98 21.34L81.92 21.29Q81.30 21.76 79.89 21.99L79.74 21.84L79.78 21.89Q79.83 21.25 79.98 19.88L79.98 19.87L79.96 19.85Q79.29 19.87 78.72 19.87L78.77 19.92L78.80 19.95Q76.73 20.01 75.10 19.29L75.03 19.22L75.07 19.27Q75.44 21.61 75.70 24.09L75.78 24.17L75.85 24.24Q74.92 23.84 73.40 22.81L73.32 22.73L73.40 22.81Q73.69 24.05 73.92 26.76L73.88 26.72L73.87 26.71Q74.48 27.09 75.66 27.51L75.66 27.51L75.55 27.40Q75.66 28.11 75.69 29.52L75.73 29.56L75.96 29.44L76.16 29.57L76.24 29.65Q76.15 30.74 76.15 31.92L76.22 31.99L76.24 32.01Q76.27 36.99 75.48 41.33L75.40 41.26L75.32 41.17Q75.56 41.11 77.50 40.58L77.46 40.53L77.61 40.69Q77.53 41.26 77.42 42.63L77.50 42.71L77.47 42.68Q78.30 42.63 79.10 42.63L78.98 42.51L79.07 42.61Q80.73 42.56 82.37 43.13L82.36 43.12L82.37 43.13Q81.01 37.39 81.20 29.47L81.25 29.52L83.59 29.08L83.70 29.20Q83.64 28.15 83.72 27.12L83.86 27.26L83.90 25.09L84.04 25.23Q83.36 25.39 82.18 25.84L82.20 25.86L82.18 25.84Q82.58 24.60 82.50 24.26L82.56 24.32L82.44 24.20Q82.53 24.10 82.60 23.91Z"/><path d="M3 32 C69 38,73 15,134 13" stroke="#8181e8" fill="none"/><path fill="#c8e377" d="M57.84 21.58L57.82 21.55L57.66 21.40Q56.08 20.13 54.45 19.75L54.57 19.87L54.43 19.73Q53.43 19.56 50.65 19.53L50.50 19.38L50.69 19.57Q45.38 19.40 43.32 21.41L43.38 21.47L43.46 21.56Q41.67 22.96 41.79 26.65L41.76 26.63L41.92 26.79Q42.03 30.55 42.18 31.50L42.06 31.38L42.09 31.41Q43.12 37.47 50.85 37.47L50.91 37.53L50.98 37.60Q55.53 37.46 57.62 35.06L57.64 35.08L57.71 35.15Q59.54 32.91 59.77 28.15L59.89 28.27L59.76 28.15Q60.04 23.36 57.72 21.46ZM50.86 40.49L50.94 40.57L50.80 40.42Q44.30 40.59 41.33 38.23L41.42 38.32L41.30 38.20Q39.32 36.14 39.20 31.07L39.24 31.11L39.10 30.97Q39.16 30.54 39.01 27.27L38.90 27.15L38.94 27.19Q38.84 24.62 38.88 23.56L38.85 23.52L38.79 23.47Q39.06 20.73 40.47 19.02L40.37 18.92L40.51 19.06Q43.02 16.73 47.89 16.58L47.93 16.62L47.87 16.56Q49.62 16.48 50.50 16.52L50.42 16.45L50.49 16.51Q60.53 16.70 62.28 21.04L62.30 21.06L62.27 21.02Q63.09 23.06 62.94 25.80L62.88 25.74L62.87 25.74Q62.86 27.44 62.67 30.71L62.63 30.67L62.58 30.62Q62.57 33.62 61.66 35.67L61.48 35.50L61.49 35.51Q59.48 40.27 50.83 40.46ZM63.23 40.48L63.34 40.59L63.32 40.58Q64.67 38.76 64.78 35.68L64.68 35.57L64.73 35.63Q64.82 34.61 64.78 33.01L64.72 32.95L64.70 32.94Q64.82 32.33 64.79 30.51L64.74 30.46L64.59 30.31Q64.53 23.17 62.59 20.69L62.72 20.83L62.58 20.69Q62.35 19.85 61.25 18.74L61.12 18.61L61.27 18.76Q57.99 16.29 50.53 16.14L50.53 16.13L50.47 16.07Q43.10 15.97 40.05 18.56L40.11 18.62L40.02 18.53Q38.44 20.26 38.44 23.20L38.56 23.31L38.47 23.22Q38.43 24.48 38.59 25.81L38.75 25.98L38.72 25.95Q38.63 26.92 38.67 28.37L38.69 28.39L38.79 28.49Q38.79 32.30 38.95 33.48L38.95 33.49L38.96 33.50Q39.46 36.55 40.79 38.34L40.73 38.27L40.79 38.33Q41.23 39.62 42.30 40.38L42.24 40.31L42.22 40.29Q45.57 42.73 53.33 42.92L53.18 42.76L53.27 42.86Q60.63 43.10 63.30 40.55ZM59.51 28.16L59.53 28.18L59.55 28.20Q59.23 32.64 57.32 34.73L57.41 34.82L57.38 34.79Q55.37 37.12 50.92 37.16L50.86 37.10L50.92 37.16Q46.51 37.12 44.37 35.22L44.49 35.34L44.35 35.19Q43.72 33.65 43.80 30.76L43.69 30.65L43.74 30.70Q43.85 26.09 45.86 23.92L45.89 23.94L45.78 23.84Q47.86 21.73 52.47 21.73L52.46 21.72L52.54 21.80Q56.77 21.84 58.86 23.71L58.78 23.63L58.72 23.57Q59.73 25.49 59.62 28.27Z"/><path fill="#e44343" d="M63.12 25.15L63.10 25.13L63.00 25.03Q63.97 25.46 65.95 25.46L65.91 25.43L65.90 32.57L65.83 32.50Q65.97 36.86 66.08 39.76L65.98 39.66L66.11 39.79Q65.67 39.58 65.29 39.58L65.32 39.61L65.29 39.58Q63.96 39.69 62.51 41.02L62.48 41.00L62.34 40.86Q63.24 33.34 63.05 25.08ZM63.17 19.87L61.89 17.07L61.96 17.14Q63.47 16.06 64.19 15.11L64.15 15.06L64.21 15.12Q65.34 17.05 66.75 18.73L66.73 18.71L66.71 18.68Q65.93 20.23 64.56 22.36L64.56 22.37L64.54 22.35Q63.58 21.04 63.01 19.71L62.99 19.69ZM61.88 41.80L61.89 41.81L61.97 41.89Q62.81 40.64 64.07 40.15L64.13 40.20L64.07 40.14Q64.16 40.93 64.05 42.30L64.10 42.35L63.99 42.24Q64.66 42.00 65.31 42.00L65.32 42.01L65.40 42.08Q67.57 42.05 68.98 44.03L68.95 44.00L68.99 44.04Q67.83 36.79 67.90 26.62L67.79 26.51L67.87 26.58Q67.13 26.80 66.29 26.91L66.28 26.90L66.14 24.90L66.26 25.02Q65.27 25.17 64.47 25.09L64.47 25.09L64.42 25.04Q63.51 24.90 62.64 24.40L62.74 24.51L62.63 24.40Q62.71 26.38 62.71 28.43L62.85 28.57L62.86 28.58Q62.83 35.59 61.95 41.87ZM64.59 23.00L64.51 22.92L64.69 22.72L64.77 22.50L64.74 22.47Q65.18 23.29 66.21 24.78L66.19 24.76L66.28 24.84Q67.50 22.37 68.83 18.83L68.93 18.93L68.83 18.82Q67.92 18.03 66.36 16.43L66.36 16.43L66.53 16.60Q66.18 16.56 65.92 17.02L66.09 17.20L66.10 17.20Q64.98 15.78 64.06 14.33L64.24 14.51L64.18 14.45Q62.78 16.13 61.60 16.47L61.65 16.52L61.47 16.34Q62.70 19.93 64.53 22.94Z"/><path d="M12 32 C61 1,55 8,133 27" stroke="#43bce4" fill="none"/><path d="M20 24 C87 37,73 9,137 25" stroke="#b8df43" fill="none"/><path d="M9 27 C68 21,88 9,135 20" stroke="#e0bf5b" fill="none"/><path d="M20 12 C59 18,71 38,145 47" stroke="#e7e736" fill="none"/><path fill="#6f8ce0" d="M17.34 21.45L17.46 21.57L17.41 21.51Q15.78 20.19 14.14 19.81L14.13 19.79L14.03 19.69Q13.01 19.51 10.23 19.47L10.28 19.52L10.28 19.52Q5.05 19.44 3.00 21.45L3.02 21.47L2.98 21.43Q1.45 23.10 1.56 26.79L1.44 26.67L1.47 26.70Q1.69 30.58 1.84 31.53L1.76 31.45L1.79 31.47Q2.73 37.44 10.46 37.44L10.53 37.51L10.49 37.47Q15.23 37.53 17.32 35.13L17.37 35.18L17.28 35.09Q19.14 32.88 19.37 28.12L19.39 28.14L19.40 28.14Q19.81 23.50 17.49 21.60ZM10.60 40.59L10.47 40.46L10.47 40.46Q3.90 40.55 0.93 38.19L1.02 38.28L1.01 38.27Q-0.99 36.20-1.10 31.14L-1.24 30.99L-1.28 30.96Q-1.18 30.57-1.33 27.29L-1.30 27.32L-1.32 27.30Q-1.43 24.71-1.40 23.65L-1.57 23.47L-1.48 23.56Q-1.37 20.67 0.04 18.96L-0.02 18.89L0.17 19.08Q2.63 16.71 7.50 16.56L7.49 16.54L7.49 16.54Q9.15 16.38 10.03 16.41L10.06 16.45L10.09 16.48Q20.11 16.64 21.86 20.98L21.96 21.08L21.88 21.00Q22.72 23.05 22.56 25.79L22.62 25.84L22.49 25.71Q22.46 27.40 22.27 30.67L22.25 30.65L22.22 30.62Q22.03 33.44 21.11 35.49L21.25 35.63L21.27 35.65Q19.05 40.21 10.41 40.40ZM22.88 40.50L22.80 40.42L22.78 40.40Q24.31 38.77 24.43 35.69L24.37 35.63L24.36 35.62Q24.35 34.51 24.31 32.91L24.32 32.91L24.29 32.88Q24.34 32.21 24.30 30.38L24.40 30.48L24.25 30.33Q24.32 23.33 22.38 20.85L22.27 20.74L22.38 20.85Q21.91 19.77 20.80 18.66L20.86 18.72L20.83 18.68Q17.50 16.16 10.04 16.01L10.08 16.04L10.06 16.03Q2.74 15.98-0.31 18.57L-0.36 18.52L-0.37 18.51Q-1.87 20.31-1.87 23.24L-1.89 23.23L-1.90 23.22Q-1.76 24.65-1.61 25.98L-1.66 25.93L-1.58 26.01Q-1.68 26.97-1.65 28.42L-1.68 28.38L-1.73 28.34Q-1.58 32.30-1.42 33.48L-1.42 33.48L-1.30 33.60Q-0.92 36.53 0.41 38.32L0.42 38.33L0.28 38.19Q0.87 39.62 1.94 40.38L1.82 40.26L1.90 40.34Q5.08 42.61 12.84 42.80L12.82 42.77L12.81 42.76Q20.12 42.95 22.79 40.40ZM19.20 28.21L19.23 28.24L19.10 28.11Q19.03 32.80 17.13 34.90L17.02 34.79L17.06 34.83Q15.03 37.14 10.58 37.18L10.64 37.24L10.61 37.21Q6.27 37.25 4.14 35.35L4.15 35.36L4.04 35.24Q3.39 33.69 3.47 30.79L3.44 30.76L3.48 30.80Q3.50 26.10 5.51 23.93L5.49 23.90L5.42 23.84Q7.51 21.74 12.12 21.74L12.12 21.74L12.19 21.81Q16.40 21.84 18.50 23.70L18.37 23.58L18.48 23.68Q19.29 25.41 19.17 28.19Z"/><path fill="#dd4a6e" d="M26.86 39.78L26.98 39.89L26.88 39.80Q24.94 39.76 22.92 39.95L23.01 40.05L23.00 40.04Q23.66 34.79 23.66 29.96L23.59 29.88L23.71 30.00Q23.56 24.95 22.92 19.73L23.10 19.92L22.91 19.73Q18.38 19.39 15.19 17.71L15.10 17.63L14.47 15.96L14.42 15.92Q14.33 15.52 13.72 14.31L13.72 14.31L13.66 14.25Q18.80 16.98 24.81 17.17L24.83 17.19L24.75 17.12Q30.70 17.35 36.14 15.29L36.04 15.19L36.13 15.28Q35.42 16.70 34.77 18.53L34.80 18.56L34.83 18.59Q31.06 19.73 26.80 19.92L26.85 19.97L26.83 19.96Q26.67 25.01 26.67 29.96L26.59 29.88L26.56 29.85Q26.53 34.76 26.83 39.75ZM36.72 14.50L36.78 14.56L36.84 14.62Q30.85 16.74 24.65 16.55L24.75 16.66L24.63 16.54Q18.14 16.51 13.04 13.54L13.00 13.51L12.98 13.49Q13.77 14.82 15.07 18.09L15.00 18.02L14.92 17.94Q15.75 18.43 17.01 19.00L16.99 18.98L16.85 18.85Q17.13 19.58 17.47 21.10L17.61 21.24L17.50 21.13Q19.76 21.94 22.80 22.17L22.79 22.16L22.85 22.22Q23.25 25.93 23.25 29.70L23.23 29.68L23.29 29.74Q23.31 35.13 22.51 40.50L22.35 40.33L22.36 40.35Q24.06 40.25 24.59 40.25L24.58 40.24L24.70 40.36Q24.65 40.62 24.59 41.28L24.65 41.34L24.53 41.22Q24.51 41.92 24.51 42.26L24.62 42.38L24.56 42.31Q25.70 42.20 27.23 42.28L27.17 42.23L27.19 42.24Q28.17 42.34 30.00 42.50L30.04 42.54L30.07 42.57Q28.71 37.52 28.60 32.34L28.58 32.32L28.55 32.29Q28.55 27.11 29.08 22.20L29.07 22.20L29.05 22.17Q33.01 21.64 36.17 20.43L36.09 20.35L36.07 20.32Q36.92 18.09 37.95 16.03L37.90 15.99L37.95 16.03Q36.60 16.71 35.80 17.01L35.64 16.85L35.72 16.93Q36.21 15.71 36.78 14.56Z"/><path fill="#df476d" d="M131.60 19.54L131.61 19.55L130.14 19.76L130.03 19.65Q127.86 19.84 127.64 21.86L127.74 21.97L127.62 21.85Q127.64 22.66 127.67 23.65L127.66 23.64L127.53 23.51Q127.59 25.47 128.85 26.80L128.92 26.87L128.93 26.88Q130.20 28.23 132.11 28.08L132.10 28.08L131.98 27.96Q134.19 27.95 134.95 27.04L134.92 27.01L134.87 26.96Q135.90 26.01 136.16 23.76L136.14 23.74L136.26 23.86Q136.51 21.60 135.26 20.76L135.15 20.66L135.24 20.75Q134.33 19.91 131.66 19.61ZM137.82 28.96L137.73 28.87L136.48 31.20L136.51 31.22Q133.81 36.03 130.04 40.10L130.00 40.06L130.01 40.07Q128.39 40.24 125.68 41.04L125.74 41.09L125.55 40.90Q131.01 34.75 134.17 29.95L134.15 29.94L134.21 30.00Q133.15 30.61 131.52 30.69L131.51 30.68L131.42 30.59Q128.45 30.78 126.92 28.80L126.84 28.72L126.86 28.74Q125.65 27.14 124.54 22.57L124.58 22.61L124.65 22.68Q124.62 22.19 124.47 21.26L124.40 21.19L124.39 21.18Q124.27 20.28 124.27 19.82L124.37 19.93L124.26 19.82Q124.28 18.05 125.35 17.44L125.38 17.47L125.33 17.42Q126.63 16.75 128.50 16.75L128.53 16.78L128.46 16.71Q131.73 16.78 131.73 16.78L131.65 16.70L131.70 16.75Q133.82 16.74 135.08 16.93L135.03 16.88L135.05 16.90Q137.12 17.11 138.04 17.60L138.17 17.73L138.21 17.78Q139.52 18.47 139.71 20.23L139.62 20.14L139.76 20.28Q139.64 20.39 139.45 23.05L139.48 23.08L139.56 23.16Q139.13 25.25 138.91 26.09L138.82 26.01L138.97 26.15Q138.52 27.49 137.76 28.90ZM139.66 31.30L139.63 31.26L139.69 31.33Q140.57 29.00 141.10 24.70L141.20 24.81L141.19 24.79Q141.38 22.51 141.34 21.63L141.43 21.72L141.37 21.66Q141.39 19.85 140.21 18.94L140.15 18.88L139.85 18.77L139.94 18.86Q139.62 18.05 138.71 17.40L138.72 17.41L138.70 17.39Q136.47 16.46 131.67 16.30L131.57 16.20L131.70 16.33Q130.76 16.34 128.32 16.34L128.26 16.28L128.16 16.17Q126.39 16.16 124.91 16.85L124.90 16.83L125.06 17.00Q123.78 17.66 123.86 19.49L123.90 19.53L124.01 19.64Q124.17 20.52 124.36 22.54L124.23 22.41L124.25 22.43Q124.94 25.14 125.21 25.98L125.17 25.94L125.17 25.94Q125.77 27.83 126.72 29.13L126.76 29.17L126.68 29.09Q127.03 29.52 127.41 29.90L127.35 29.84L127.41 29.90Q127.68 30.36 128.33 31.27L128.31 31.25L128.31 31.25Q129.76 32.59 131.70 32.78L131.71 32.78L131.65 32.72Q129.80 35.44 128.24 37.34L128.31 37.42L124.57 41.68L124.68 41.78Q126.95 41.05 128.59 40.70L128.54 40.65L128.47 40.58Q127.82 41.57 126.26 43.29L126.24 43.27L126.25 43.28Q129.22 42.25 132.34 42.21L132.37 42.24L132.47 42.34Q134.65 39.61 138.99 32.37L139.10 32.49L139.09 32.56L139.05 32.51Q139.21 31.69 139.56 31.19ZM133.63 22.03L133.55 21.95L133.68 22.08Q134.33 22.01 134.79 22.12L134.78 22.12L134.68 22.01Q135.37 22.17 135.75 22.29L135.79 22.33L135.82 22.35Q135.91 22.71 135.99 23.13L135.92 23.07L135.85 22.99Q136.06 23.55 135.95 23.93L135.95 23.93L135.83 23.81Q135.78 25.51 134.60 26.62L134.74 26.75L134.73 26.74Q133.69 27.69 132.06 27.65L132.11 27.71L132.08 27.67Q131.57 27.58 130.05 27.28L130.10 27.33L130.22 27.45Q129.84 26.42 129.84 25.70L129.93 25.79L129.93 25.79Q129.82 25.49 129.82 25.26L129.89 25.33L129.91 25.35Q129.87 23.10 132.15 22.30L132.08 22.23L132.05 22.20Q132.79 22.02 133.62 22.02Z"/></svg>