<svg xmlns="http://www.w3.org/2000/svg" width="150" height="50" viewBox="0,0,150,50"><rect width="100%" height="100%" fill="white"/><path d="M1 29 C68 33,87 21,140 13" stroke="#6767da" fill="none"/><path fill="#e25e7f" d="M85.55 49.68L85.58 49.71L85.54 49.67Q88.33 45.69 91.23 39.48L91.39 39.64L91.39 39.64Q88.23 33.06 82.14 24.99L81.98 24.83L82.02 24.87Q84.06 26.15 86.84 26.80L86.85 26.80L86.72 26.68Q90.36 31.46 92.80 36.67L92.69 36.57L92.68 36.55Q94.86 31.28 97.95 26.86L98.02 26.93L98.04 26.96Q100.22 26.58 102.31 25.79L102.33 25.80L102.24 25.72Q98.88 29.58 95.41 37.01L95.40 36.99L92.67 43.09L92.63 43.06Q91.16 46.16 89.41 48.78L89.41 48.78L89.44 48.81Q87.01 49.15 85.56 49.69ZM91.69 50.98L91.69 50.99L91.71 51.01Q93.47 48.16 94.92 44.88L94.75 44.72L97.53 38.43L97.59 38.49Q100.98 30.35 104.30 26.36L104.33 26.39L104.34 26.40Q102.98 27.06 101.07 27.74L101.20 27.87L102.10 26.33L102.19 26.42Q102.75 25.72 103.35 25.04L103.34 25.02L103.23 24.91Q100.65 26.06 97.79 26.52L97.77 26.50L97.81 26.53Q94.97 30.35 93.02 34.81L93.16 34.94L93.12 34.90Q91.45 31.56 89.66 28.74L89.62 28.70L89.71 28.79Q89.48 28.75 89.12 28.71L89.18 28.77L89.11 28.70Q88.76 28.67 88.57 28.67L88.49 28.60L88.57 28.67Q87.92 27.54 86.97 26.39L86.81 26.23L86.93 26.35Q83.61 25.55 80.87 23.84L81.06 24.02L81.04 24.00Q87.15 31.86 90.84 39.48L90.91 39.55L90.86 39.50Q88.74 44.61 84.67 50.24L84.62 50.19L84.63 50.21Q85.53 50.00 86.33 49.85L86.32 49.84L87.96 49.50L87.82 49.37Q87.29 50.16 86.11 51.80L86.18 51.87L86.13 51.82Q88.45 51.24 91.72 51.02Z"/><path fill="#c65ce9" d="M30.86 15.91L30.78 15.83L30.90 15.95Q32.70 20.73 33.27 25.91L33.32 25.95L33.30 25.93Q36.92 21.71 42.82 16.87L42.93 16.99L42.94 17.00Q46.08 16.63 48.70 15.83L48.70 15.82L42.17 21.48L42.24 21.54Q38.64 24.30 35.78 27.16L35.92 27.30L35.80 27.17Q43.89 36.44 48.95 41.16L48.85 41.06L48.94 41.15Q45.79 40.18 43.47 40.02L43.57 40.12L43.45 40.00Q37.63 34.56 33.32 28.73L33.43 28.84L33.42 28.83Q33.53 35.45 31.66 40.78L31.67 40.78L31.71 40.83Q31.35 40.73 30.85 40.92L30.89 40.96L30.81 41.06L30.89 41.15Q30.71 41.20 28.16 42.11L28.13 42.08L28.23 42.18Q31.17 35.60 30.83 28.14L30.74 28.05L30.65 27.96Q30.52 20.83 26.98 14.32L26.88 14.22L27.41 14.48L27.92 14.87L27.93 14.85L27.83 14.75Q28.60 15.18 30.81 15.87ZM31.16 15.64L31.10 15.58L31.11 15.60Q28.81 15.01 26.19 13.49L26.23 13.53L26.23 13.53Q30.48 20.79 30.48 29.73L30.45 29.70L30.38 29.63Q30.51 36.77 27.54 42.83L27.56 42.84L29.44 41.83L29.41 41.80Q29.09 42.89 28.41 44.18L28.38 44.16L28.39 44.16Q30.73 43.47 32.68 43.05L32.65 43.02L32.81 42.95L32.73 42.88Q33.02 42.86 33.59 42.71L33.48 42.60L33.61 42.73Q35.16 36.70 35.27 31.90L35.28 31.91L35.27 31.90Q37.40 34.44 39.22 36.31L39.14 36.22L39.21 36.29Q40.38 37.39 43.39 40.36L43.42 40.39L43.37 40.34L43.45 40.42Q44.49 41.27 46.35 42.87L46.26 42.78L46.22 42.73Q50.16 43.52 53.63 45.23L53.64 45.24L53.70 45.30Q44.32 36.65 38.08 29.22L38.09 29.23L38.16 29.31Q42.50 24.97 51.26 16.37L51.25 16.36L51.38 16.48Q48.70 17.50 46.69 17.88L46.68 17.88L46.64 17.84Q47.87 16.86 50.19 14.84L50.28 14.93L50.34 14.99Q46.18 16.35 42.83 16.54L42.75 16.47L42.79 16.50Q39.91 18.76 35.03 23.44L35.06 23.46L35.07 23.48Q34.52 20.72 33.95 18.17L34.01 18.23L33.99 18.21Q32.88 18.13 31.89 17.79L31.81 17.71L31.84 17.73Q31.64 17.00 31.07 15.56Z"/><path d="M11 12 C82 9,64 38,145 17" stroke="#bd41e6" fill="none"/><path d="M19 15 C60 29,91 37,131 40" stroke="#e3e36d" fill="none"/><path d="M16 34 C73 16,88 7,139 45" stroke="#446ade" fill="none"/><path fill="#b95ed8" d="M52.90 27.75L52.79 27.65L52.93 27.79Q49.39 27.68 48.29 31.03L48.32 31.05L48.22 30.96Q47.82 32.00 47.70 33.07L47.79 33.15L47.71 33.07Q47.49 35.09 48.48 36.43L48.52 36.47L48.59 36.54Q49.84 37.64 52.31 37.67L52.40 37.76L52.43 37.79Q54.15 37.72 55.56 36.58L55.49 36.51L55.51 36.53Q57.07 35.55 57.07 33.76L56.94 33.63L57.04 33.72Q56.96 33.30 56.88 32.91L56.95 32.98L56.96 33.00Q56.74 27.86 52.93 27.78ZM52.79 40.20L52.69 40.10L52.82 40.24Q48.95 40.40 47.16 38.39L47.18 38.40L47.23 38.45Q46.99 39.47 46.53 40.84L46.47 40.78L46.46 40.77Q44.59 41.60 43.33 42.17L43.30 42.14L43.28 42.12Q45.39 36.08 45.39 29.57L45.49 29.67L45.56 29.74Q45.39 21.27 41.96 13.43L41.97 13.44L42.13 13.60Q44.35 14.82 45.68 15.28L45.65 15.26L45.76 15.36Q47.77 21.90 47.92 27.73L47.93 27.74L48.04 27.84Q49.32 25.02 53.06 25.06L53.06 25.06L53.23 25.23Q56.36 25.17 57.85 27.03L57.88 27.06L57.84 27.02Q59.65 29.29 59.80 32.87L59.88 32.95L59.88 32.95Q59.83 34.00 59.75 35.60L59.78 35.62L59.77 35.62Q59.83 37.16 58.96 38.30L58.94 38.29L58.91 38.25Q57.15 39.96 52.81 40.23ZM58.21 42.66L58.21 42.66L58.19 42.64Q59.81 42.77 61.29 42.09L61.19 41.99L61.31 42.10Q62.37 40.76 62.40 38.82L62.39 38.81L62.44 38.86Q62.38 38.30 62.23 37.12L62.31 37.20L62.33 37.23Q62.22 36.50 62.10 35.59L62.15 35.63L62.13 35.61Q61.19 30.71 59.63 28.66L59.61 28.64L59.64 28.67Q59.73 28.72 58.93 27.85L58.86 27.78L58.77 27.69Q58.72 27.60 58.19 26.80L58.02 26.64L58.13 26.74Q56.49 24.76 53.14 24.80L53.11 24.77L53.17 24.83Q51.02 24.77 49.76 25.38L49.91 25.52L49.77 25.39Q49.57 21.00 48.96 17.80L48.87 17.71L48.80 17.64Q48.20 17.61 46.71 17.23L46.74 17.26L46.76 17.28Q46.51 16.42 46.06 14.97L46.15 15.06L46.02 14.94Q43.59 14.15 41.35 12.59L41.33 12.57L41.48 12.72Q45.09 20.75 45.09 29.54L45.15 29.60L45.12 29.57Q45.22 36.63 42.74 42.84L42.68 42.78L42.70 42.80Q43.46 42.53 44.79 41.96L44.70 41.87L44.64 41.80Q44.53 42.68 43.92 44.20L43.80 44.09L43.81 44.10Q45.90 43.29 48.67 42.75L48.53 42.61L49.05 40.92L48.94 40.81Q51.28 42.54 58.21 42.66ZM54.43 29.97L54.42 29.96L54.57 30.11Q55.52 30.03 56.05 30.41L55.95 30.31L55.97 30.33Q56.43 30.98 56.66 33.00L56.59 32.93L56.48 32.82Q56.84 34.86 55.58 36.17L55.64 36.23L55.51 36.10Q54.35 37.50 52.41 37.39L52.45 37.43L52.28 37.27Q51.41 37.46 49.93 36.97L49.86 36.89L50.04 37.07Q49.81 36.58 49.81 36.05L49.72 35.96L49.71 35.95Q49.68 32.84 51.25 31.24L51.36 31.36L51.15 31.18L51.24 31.27Q52.78 29.99 54.53 30.07Z"/><path fill="#7ad2ef" d="M12.05 40.12L12.03 40.10L12.06 40.13Q10.22 40.08 8.55 40.65L8.54 40.65L8.51 40.62Q9.19 37.14 9.31 34.02L9.15 33.87L9.20 33.92Q9.27 30.83 9.04 27.18L9.21 27.35L9.05 27.18Q7.68 26.84 6.91 26.45L6.99 26.53L6.55 23.47L6.54 23.45Q7.27 24.07 8.87 24.64L8.89 24.66L8.83 24.60Q8.70 22.57 8.28 19.83L8.33 19.88L8.31 19.86Q10.47 20.42 12.11 20.26L12.12 20.28L12.11 24.99L12.03 24.91Q13.52 24.92 14.86 24.42L14.91 24.48L14.73 24.29Q14.73 25.25 14.50 27.00L14.62 27.12L14.64 27.14Q13.12 27.48 12.09 27.48L12.08 27.47L12.06 27.45Q12.03 29.59 12.03 33.85L12.07 33.89L11.97 33.80Q12.04 38.02 12.12 40.19ZM15.29 23.86L15.20 23.77L15.26 23.84Q14.95 23.91 14.34 24.14L14.31 24.10L14.70 21.33L14.85 21.48Q14.05 21.79 12.64 22.02L12.57 21.94L12.57 21.94Q12.54 21.23 12.69 19.86L12.75 19.91L12.73 19.90Q12.01 19.86 11.44 19.86L11.50 19.93L11.43 19.85Q9.40 19.96 7.76 19.23L7.70 19.17L7.65 19.12Q8.33 21.78 8.60 24.25L8.58 24.24L8.53 24.19Q7.58 23.77 6.06 22.74L6.10 22.79L6.06 22.74Q6.54 24.17 6.77 26.88L6.65 26.76L6.60 26.71Q7.05 26.94 8.23 27.35L8.25 27.37L8.27 27.39Q8.28 28.01 8.32 29.42L8.45 29.56L8.71 29.47L8.91 29.59L8.91 29.59Q8.89 30.76 8.89 31.94L8.94 31.99L8.92 31.96Q8.91 36.90 8.11 41.24L8.20 41.33L8.22 41.35Q8.30 41.13 10.25 40.60L10.29 40.65L10.26 40.61Q10.23 41.23 10.12 42.60L10.23 42.72L10.11 42.59Q11.06 42.67 11.86 42.67L11.78 42.59L11.71 42.52Q13.41 42.51 15.05 43.08L15.18 43.21L15.08 43.11Q13.83 37.48 14.02 29.56L13.92 29.47L16.43 29.19L16.46 29.22Q16.50 28.27 16.57 27.24L16.59 27.26L16.70 25.16L16.73 25.19Q16.17 25.47 14.99 25.93L14.97 25.90L15.06 26.00Q15.32 24.62 15.24 24.27L15.20 24.23L15.25 24.29Q15.12 23.96 15.19 23.77Z"/><path fill="#5aeb5a" d="M114.07 41.54L114.12 41.59L114.16 41.63Q111.97 41.16 109.80 41.01L109.73 40.94L109.78 40.98Q108.47 39.67 105.81 35.83L105.62 35.64L105.66 35.68Q103.57 38.88 101.17 41.32L101.09 41.24L99.04 41.67L98.98 41.60Q98.01 41.89 97.02 42.15L97.05 42.19L96.95 42.09Q101.10 37.94 104.11 33.83L104.17 33.89L104.16 33.88Q100.87 29.67 95.46 24.88L95.42 24.84L95.51 24.93Q97.65 25.58 100.35 26.00L100.48 26.12L100.43 26.07Q103.83 29.13 105.73 31.83L105.83 31.93L105.70 31.80Q107.79 28.72 110.53 26.20L110.54 26.21L110.53 26.20Q113.57 25.86 115.40 25.36L115.58 25.54L115.50 25.46Q110.96 29.11 107.27 33.68L107.20 33.60L107.37 33.77Q110.64 38.34 114.11 41.58ZM116.91 24.66L116.88 24.63L116.85 24.60Q113.95 25.44 110.41 25.78L110.59 25.95L110.51 25.87Q107.52 28.44 105.81 30.92L105.99 31.10L105.96 31.08Q104.95 29.90 103.31 27.93L103.40 28.02L103.28 28.08L103.10 27.91Q102.96 27.88 102.84 27.88L103.02 28.06L103.03 28.07Q102.15 27.11 100.52 25.66L100.46 25.61L100.63 25.78Q97.00 25.19 94.14 23.97L94.17 24.00L94.16 24.00Q99.67 28.78 103.71 33.92L103.75 33.97L103.76 33.97Q100.30 38.50 95.88 42.81L95.91 42.84L95.83 42.76Q96.19 42.77 99.69 41.93L99.55 41.79L99.62 41.86Q98.04 43.13 96.40 44.47L96.40 44.47L96.45 44.52Q99.75 43.71 102.91 43.52L102.73 43.33L102.78 43.39Q105.22 41.18 107.12 38.43L107.16 38.48L107.12 38.44Q108.62 40.28 109.84 41.46L109.82 41.44L109.72 41.34Q109.83 41.34 109.91 41.41L109.93 41.44L110.21 41.53L110.19 41.51Q111.44 42.60 112.77 43.67L112.72 43.62L112.62 43.52Q116.23 44.08 119.12 45.11L119.16 45.15L119.25 45.23Q112.94 40.64 109.24 35.46L109.27 35.49L109.34 35.55Q112.89 30.43 117.46 26.35L117.59 26.49L117.58 26.48Q116.59 26.77 115.60 27.00L115.61 27.02L113.49 27.38L113.66 27.54Q114.69 26.48 116.86 24.61Z"/><path fill="#8888f0" d="M73.79 41.63L73.66 41.49L73.73 41.57Q71.68 41.23 69.51 41.08L69.46 41.02L69.52 41.08Q68.02 39.59 65.36 35.75L65.43 35.81L65.30 35.69Q63.13 38.81 60.73 41.25L60.77 41.28L58.65 41.64L58.72 41.71Q57.57 41.81 56.58 42.08L56.62 42.12L56.56 42.06Q60.82 38.02 63.83 33.91L63.88 33.96L63.71 33.79Q60.60 29.77 55.19 24.97L55.02 24.80L55.07 24.84Q57.31 25.60 60.01 26.02L60.09 26.10L60.03 26.03Q63.45 29.11 65.35 31.82L65.46 31.92L65.30 31.77Q67.49 28.77 70.23 26.26L70.17 26.21L70.17 26.21Q73.40 26.05 75.23 25.55L75.07 25.40L75.07 25.39Q70.70 29.21 67.01 33.77L66.90 33.67L66.86 33.63Q70.16 38.23 73.63 41.46ZM76.67 24.79L76.49 24.60L76.56 24.68Q73.72 25.57 70.18 25.91L70.17 25.90L70.24 25.96Q67.35 28.64 65.64 31.11L65.62 31.09L65.55 31.03Q64.76 30.08 63.13 28.10L63.03 28.01L62.87 28.04L62.77 27.94Q62.66 27.94 62.54 27.94L62.57 27.97L62.67 28.07Q61.75 27.07 60.12 25.63L60.11 25.62L60.26 25.77Q56.58 25.14 53.72 23.92L53.80 24.00L53.70 23.90Q59.19 28.67 63.23 33.80L63.32 33.90L63.28 33.86Q59.90 38.47 55.48 42.77L55.55 42.84L55.49 42.78Q55.79 42.74 59.29 41.90L59.29 41.89L59.27 41.87Q57.74 43.20 56.10 44.53L56.16 44.59L56.06 44.49Q59.30 43.62 62.46 43.43L62.55 43.52L62.51 43.48Q64.80 41.12 66.70 38.38L66.81 38.49L66.83 38.51Q68.09 40.12 69.31 41.30L69.41 41.39L69.44 41.43Q69.46 41.33 69.54 41.41L69.53 41.40L69.80 41.48L69.75 41.43Q71.07 42.60 72.41 43.67L72.45 43.71L72.43 43.69Q76.01 44.23 78.90 45.25L78.77 45.12L78.87 45.22Q72.75 40.81 69.06 35.63L68.90 35.48L68.87 35.45Q72.68 30.58 77.25 26.51L77.29 26.54L77.21 26.47Q76.17 26.72 75.18 26.95L75.19 26.96L73.17 27.41L73.32 27.57Q74.42 26.57 76.59 24.70Z"/><path fill="#e98b6b" d="M24.58 23.37L24.59 23.39L24.62 23.41Q21.40 23.39 19.57 22.33L19.63 22.38L19.53 22.28Q22.18 21.05 27.05 16.82L26.99 16.76L27.03 16.81Q27.63 16.49 28.93 15.88L29.05 16.01L29.04 16.00Q27.58 21.80 27.46 28.16L27.44 28.14L27.54 28.24Q27.37 34.54 28.44 40.63L28.44 40.63L28.55 40.75Q26.86 40.01 24.73 39.89L24.60 39.76L24.66 39.82Q24.53 35.66 24.53 31.59L24.54 31.59L24.57 31.63Q24.62 27.57 24.66 23.46ZM24.16 25.58L24.27 40.27L24.32 40.32Q25.41 40.19 26.36 40.38L26.38 40.40L26.43 40.45Q26.53 41.16 26.72 42.53L26.57 42.38L26.59 42.40Q29.53 43.02 31.96 45.26L31.90 45.20L31.89 45.19Q29.53 38.18 29.49 30.72L29.40 30.63L29.39 30.63Q29.28 23.13 31.11 15.89L31.11 15.90L31.21 15.99Q30.57 16.31 28.97 17.41L29.05 17.49L29.16 17.60Q29.26 16.75 29.56 15.22L29.57 15.23L29.56 15.22Q28.20 15.95 26.75 16.33L26.79 16.37L26.71 16.29Q23.07 20.00 18.77 22.28L18.77 22.28L18.63 22.15Q20.18 23.39 22.54 23.73L22.55 23.74L22.50 23.69Q21.84 24.22 20.55 25.28L20.54 25.28L20.61 25.35Q22.11 25.74 24.31 25.74L24.24 25.66Z"/><path d="M10 17 C84 46,64 22,146 21" stroke="#eded81" fill="none"/><path fill="#d953b7" d="M122.32 29.39L122.43 29.50L122.46 29.52Q121.24 28.73 120.59 28.76L120.59 28.76L120.66 28.83Q119.16 28.78 118.12 29.79L118.24 29.92L118.17 29.85Q117.03 30.76 117.15 32.13L117.29 32.28L117.28 32.27Q117.45 36.48 116.58 41.01L116.74 41.17L116.65 41.08Q114.48 41.58 113.38 42.11L113.44 42.17L113.32 42.06Q114.77 37.82 114.54 33.37L114.53 33.36L114.60 33.43Q114.43 28.99 112.71 24.92L112.67 24.87L112.63 24.83Q113.74 25.49 116.02 26.14L116.20 26.32L116.72 28.97L116.64 28.89Q117.36 26.03 121.62 26.03L121.59 25.99L121.64 26.04Q122.02 25.97 122.32 25.97L122.25 25.89L122.27 25.92Q123.63 25.98 124.89 26.66L124.80 26.58L124.77 26.55Q123.54 27.98 122.40 29.47ZM124.01 31.45L124.20 31.50L124.21 31.51Q125.01 30.25 126.69 27.82L126.77 27.90L126.66 27.79Q126.14 27.38 124.62 27.12L124.78 27.28L124.66 27.16Q125.14 26.99 125.60 26.38L125.49 26.28L125.45 26.24Q123.66 25.44 121.72 25.63L121.69 25.60L121.70 25.61Q119.74 25.78 119.01 26.04L118.93 25.96L119.05 26.08Q117.57 26.43 116.77 27.53L116.72 27.48L116.65 26.76L116.38 25.84L116.44 25.91Q114.11 25.56 112.13 24.22L112.00 24.09L112.13 24.22Q114.23 28.57 114.46 33.44L114.46 33.45L114.34 33.33Q114.57 38.24 112.82 42.77L112.91 42.86L112.94 42.89Q113.86 42.25 114.74 41.95L114.73 41.94L114.87 42.08Q114.61 43.19 114.12 44.26L114.04 44.18L114.07 44.21Q116.92 43.37 119.05 43.25L119.09 43.29L119.24 38.72L119.20 38.68Q119.41 36.53 119.41 34.28L119.42 34.30L119.25 34.12Q119.31 33.00 120.22 32.03L120.16 31.97L120.24 32.05Q121.10 31.02 122.24 30.95L122.33 31.04L122.37 31.07Q122.85 30.79 123.57 31.48L123.57 31.47L124.05 31.50ZM118.95 29.59L119.02 29.59L118.97 29.66L119.08 29.73Z"/><path fill="#43d443" d="M123.50 14.28L123.51 14.29L123.62 14.39Q127.35 16.87 132.11 17.10L132.10 17.09L132.15 17.14Q136.79 17.33 141.05 15.58L141.05 15.57L140.97 15.50Q140.63 15.95 139.87 18.73L140.02 18.88L139.95 18.81Q137.23 19.86 134.26 20.01L134.20 19.96L134.24 19.99Q131.35 20.22 128.45 19.50L128.47 19.51L128.35 19.39Q129.03 23.01 129.22 26.66L129.29 26.73L129.27 26.71Q131.25 26.90 132.85 26.86L132.91 26.92L132.96 26.97Q134.10 26.90 136.50 26.78L136.60 26.88L136.42 26.70Q136.50 27.47 136.50 28.15L136.50 28.15L136.56 29.55L136.52 29.51Q134.02 29.40 129.22 29.48L129.30 29.56L129.19 29.45Q129.27 33.64 128.70 37.64L128.74 37.68L128.79 37.72Q131.30 36.96 134.04 37.08L134.00 37.04L134.12 37.16Q136.84 37.25 139.43 38.09L139.31 37.96L139.39 38.05Q139.38 38.76 139.64 39.52L139.68 39.56L140.10 41.04L140.07 41.02Q136.93 39.77 133.50 39.77L133.59 39.86L133.60 39.87Q128.57 39.71 124.30 41.96L124.31 41.97L124.40 42.06Q126.65 35.17 126.38 28.05L126.50 28.16L126.51 28.17Q126.26 21.03 123.59 14.37ZM123.90 42.77L123.90 42.77L123.94 42.81Q125.19 42.08 125.95 41.74L125.86 41.65L126.02 41.81Q125.74 42.48 125.17 44.00L125.20 44.03L125.17 44.00Q129.72 42.04 134.78 42.31L134.80 42.33L134.83 42.36Q139.95 42.60 143.94 45.31L143.99 45.35L143.91 45.28Q142.82 42.81 142.14 40.87L142.07 40.80L142.01 40.74Q141.15 40.27 140.16 39.93L140.07 39.83L140.09 39.86Q139.70 38.47 139.54 37.67L139.60 37.73L139.59 37.71Q136.51 36.73 133.35 36.73L133.22 36.60L133.25 36.63Q132.16 36.68 131.02 36.80L131.00 36.78L131.03 36.81Q131.19 35.60 131.23 34.38L131.15 34.30L131.21 31.77L131.28 31.84Q133.09 31.75 134.88 31.78L134.83 31.73L134.91 31.82Q136.75 31.87 138.54 32.02L138.50 31.99L138.55 32.03Q138.49 31.09 138.49 30.14L138.34 30.00L138.44 28.19L137.70 28.33L137.60 28.22Q137.13 28.25 136.68 28.25L136.66 28.24L136.70 28.28Q136.79 27.68 136.94 26.38L136.93 26.37L136.97 26.42Q135.22 26.49 134.04 26.53L134.20 26.69L134.13 26.62Q133.21 26.66 131.39 26.58L131.37 26.56L131.31 26.51Q131.22 25.08 131.03 22.27L131.08 22.32L130.98 22.21Q132.09 22.41 133.08 22.41L133.01 22.34L133.04 22.37Q137.70 22.32 141.40 20.41L141.47 20.49L141.49 20.51Q142.13 18.21 143.00 16.00L142.98 15.98L143.04 16.04Q141.62 16.79 140.78 17.13L140.78 17.13L140.74 17.09Q141.02 16.30 141.47 14.74L141.47 14.73L141.48 14.75Q136.97 17.01 132.10 16.71L131.99 16.60L132.10 16.71Q126.71 16.30 122.86 13.45L122.96 13.54L122.88 13.47Q125.79 20.45 126.10 28.07L126.08 28.05L126.16 28.13Q126.37 35.95 123.86 42.73Z"/><path fill="#60e0a0" d="M76.49 25.06L76.48 25.06L76.47 25.05Q77.38 25.42 79.36 25.42L79.27 25.33L79.26 32.48L79.42 32.64Q79.33 36.77 79.44 39.66L79.41 39.63L79.48 39.71Q79.20 39.65 78.81 39.65L78.75 39.58L78.73 39.56Q77.32 39.59 75.87 40.93L75.98 41.04L75.88 40.94Q76.65 33.30 76.46 25.04ZM76.62 19.87L75.33 17.05L75.40 17.12Q77.02 16.15 77.74 15.20L77.70 15.16L77.61 15.07Q78.75 17.01 80.16 18.68L80.07 18.59L80.20 18.73Q79.29 20.14 77.92 22.27L77.85 22.20L78.00 22.35Q77.05 21.06 76.48 19.73L76.49 19.74ZM75.28 41.74L75.29 41.76L75.45 41.92Q76.42 40.80 77.68 40.30L77.64 40.26L77.66 40.28Q77.51 40.82 77.40 42.19L77.41 42.21L77.56 42.35Q78.17 42.05 78.82 42.05L78.81 42.04L78.86 42.09Q80.99 42.01 82.40 43.99L82.36 43.95L82.38 43.97Q81.15 36.65 81.22 26.49L81.26 26.53L81.36 26.62Q80.51 26.72 79.67 26.83L79.69 26.85L79.71 25.01L79.59 24.89Q78.64 25.08 77.84 25.01L77.75 24.91L77.93 25.09Q76.91 24.84 76.03 24.34L76.10 24.41L76.21 24.52Q76.22 26.44 76.22 28.49L76.30 28.56L76.26 28.53Q76.19 35.50 75.31 41.78ZM78.04 23.00L78.02 22.98L78.01 22.59L78.19 22.46L78.17 22.44Q78.54 23.19 79.57 24.68L79.74 24.85L79.61 24.72Q80.95 22.37 82.28 18.83L82.34 18.88L82.23 18.77Q81.47 18.13 79.91 16.53L79.92 16.54L79.80 16.42Q79.69 16.62 79.42 17.07L79.55 17.20L79.51 17.15Q78.55 15.89 77.63 14.45L77.69 14.50L77.65 14.46Q76.20 16.09 75.02 16.43L74.99 16.41L74.94 16.36Q76.15 19.93 77.98 22.94Z"/></svg>