<svg xmlns="http://www.w3.org/2000/svg" width="150" height="50" viewBox="0,0,150,50"><rect width="100%" height="100%" fill="white"/><path fill="#db6683" d="M91.01 40.23L90.93 40.15L91.06 40.28Q87.47 40.28 85.84 39.75L85.83 39.74L85.85 39.75Q84.01 39.25 83.70 35.86L83.60 35.76L85.03 34.67L85.16 34.81Q85.88 34.26 86.64 33.77L86.46 33.60L86.55 33.68Q86.22 35.52 87.82 36.74L87.81 36.73L87.90 36.82Q89.09 37.75 91.22 37.56L91.22 37.56L91.21 37.54Q95.67 37.21 95.48 33.67L95.58 33.77L95.43 33.62Q95.26 31.35 92.63 30.13L92.76 30.26L92.80 30.30Q89.85 29.14 87.49 27.93L87.60 28.03L87.50 27.93Q84.90 26.55 83.91 21.87L84.04 21.99L84.04 22.00Q83.78 21.40 83.67 20.63L83.80 20.77L83.83 20.80Q83.72 20.00 83.80 19.43L83.65 19.29L83.82 19.46Q83.94 17.82 85.20 17.37L85.23 17.40L85.08 17.25Q87.45 16.35 91.45 16.54L91.56 16.65L91.59 16.68Q93.36 16.73 94.16 16.81L94.26 16.91L94.13 16.78Q95.59 16.95 96.66 17.41L96.69 17.44L96.72 17.46Q98.87 17.98 99.10 20.45L99.10 20.45L98.99 20.35Q98.05 21.16 95.84 22.49L95.76 22.41L95.86 22.51Q95.35 19.41 90.97 19.41L90.98 19.42L90.96 19.40Q89.19 19.53 88.20 20.22L88.20 20.22L88.02 20.04Q86.87 20.56 87.10 22.35L87.18 22.43L87.09 22.34Q87.46 24.66 90.43 26.18L90.31 26.06L90.35 26.10Q91.02 26.46 95.51 28.10L95.42 28.01L95.40 27.99Q97.95 29.40 98.37 33.78L98.52 33.93L98.51 33.92Q98.51 34.07 98.59 35.33L98.54 35.28L98.46 35.20Q98.55 37.99 96.99 39.09L97.01 39.11L97.09 39.19Q95.13 40.05 90.94 40.17ZM93.34 42.64L93.31 42.61L93.35 42.65Q94.79 42.72 96.77 42.72L96.79 42.74L96.76 42.71Q98.86 42.72 100.12 42.30L100.01 42.20L100.08 42.26Q101.29 41.42 101.22 39.63L101.32 39.73L101.15 39.56Q101.12 38.58 100.74 36.52L100.80 36.59L100.82 36.60Q100.00 32.02 97.91 30.15L97.82 30.06L97.77 30.02Q97.06 28.51 95.73 27.79L95.67 27.73L90.42 25.71L90.30 25.59Q90.18 25.63 89.73 25.40L89.72 25.39L89.46 24.87L89.55 24.61L89.44 24.50Q89.43 23.23 90.57 22.62L90.52 22.58L90.42 22.48Q91.31 22.03 93.02 21.84L92.99 21.81L92.90 21.72Q94.01 21.57 95.15 22.03L95.29 22.17L95.19 22.06Q95.32 22.24 95.51 23.07L95.54 23.10L95.54 23.10Q95.77 22.99 96.26 22.76L96.13 22.63L96.23 22.73Q96.90 23.58 97.01 24.73L97.01 24.73L96.94 24.66Q97.12 24.72 100.77 22.13L100.84 22.20L100.83 22.19Q100.45 19.44 99.00 18.76L99.01 18.77L98.97 18.73Q98.53 17.61 97.09 17.07L96.97 16.96L97.10 17.08Q94.77 16.25 91.58 16.25L91.45 16.12L91.47 16.13Q86.68 16.26 84.82 16.95L84.67 16.80L84.83 16.96Q83.34 17.26 83.23 18.94L83.35 19.06L83.40 19.11Q83.33 19.61 83.75 21.82L83.77 21.84L83.72 21.79Q84.31 25.47 86.48 27.71L86.64 27.87L86.58 27.81Q87.30 29.45 88.81 30.13L88.88 30.20L88.80 30.12Q90.32 30.82 94.24 32.38L94.30 32.45L94.22 32.40L94.89 32.77L94.97 32.89L94.91 32.83Q95.18 33.37 95.22 33.71L95.12 33.61L95.14 33.63Q95.15 37.03 91.23 37.18L91.25 37.20L91.34 37.29Q90.07 37.20 88.78 36.82L88.74 36.79L88.90 36.95Q88.55 36.10 88.55 35.37L88.61 35.44L88.45 35.28Q88.45 35.01 88.49 34.74L88.49 34.74L88.63 34.89Q88.16 35.06 87.36 35.56L87.42 35.62L87.39 35.58Q86.93 34.52 87.08 33.15L87.05 33.11L87.05 33.12Q84.88 34.22 83.28 35.63L83.26 35.61L83.35 35.70Q83.30 36.41 83.37 37.43L83.35 37.41L83.50 37.56Q83.85 39.32 85.14 40.08L84.98 39.91L85.01 39.95Q86.20 41.74 88.75 42.13L88.79 42.16L88.79 42.17Q90.37 42.41 93.30 42.60Z"/><path fill="#e7e74a" d="M21.43 40.46L21.37 40.40L21.41 40.43Q17.37 40.70 16.38 38.38L16.35 38.35L16.22 38.22Q17.09 37.38 18.65 35.59L18.63 35.57L18.65 35.59Q19.10 37.56 22.11 37.68L22.13 37.69L22.21 37.78Q25.46 37.71 27.09 36.38L27.12 36.40L27.06 36.35Q28.52 34.80 28.45 32.10L28.45 32.10L28.51 32.16Q28.27 27.01 23.48 27.24L23.44 27.20L23.49 27.26Q20.64 27.38 18.89 28.63L19.05 28.79L18.52 28.41L18.45 28.42L18.37 28.33Q18.77 25.24 18.66 22.49L18.63 22.47L18.62 22.46Q18.62 19.95 18.28 16.64L18.26 16.62L18.18 16.54Q21.82 17.48 25.63 17.36L25.64 17.37L25.61 17.34Q29.43 17.28 33.01 16.03L33.12 16.13L32.37 17.48L32.53 17.64Q32.10 18.27 31.91 19.11L31.88 19.08L31.96 19.16Q28.80 20.15 24.92 20.15L24.93 20.16L25.03 20.27Q23.45 20.13 21.96 19.98L22.06 20.07L21.99 20.01Q21.93 20.70 21.58 25.16L21.59 25.16L21.55 25.13Q22.40 24.68 24.46 24.53L24.54 24.61L24.52 24.59Q28.21 24.78 29.65 26.45L29.66 26.45L29.63 26.43Q31.13 28.08 31.39 31.92L31.33 31.85L31.23 31.76Q31.63 36.07 30.41 38.09L30.46 38.14L30.36 38.05Q28.27 39.87 24.96 40.10L25.00 40.14L25.00 40.15Q24.10 40.31 21.43 40.46ZM27.41 42.67L27.42 42.68L27.50 42.76Q30.81 42.72 32.71 41.62L32.67 41.57L32.78 41.68Q33.75 40.14 33.75 38.05L33.64 37.93L33.73 38.02Q33.81 35.02 32.86 30.91L32.73 30.78L32.72 30.77Q32.32 29.00 31.10 27.59L31.12 27.61L31.26 27.79L30.90 27.35L30.54 27.15L30.57 27.17Q30.37 26.55 29.72 25.87L29.71 25.86L29.71 25.90L29.71 25.90Q28.16 24.19 24.46 24.19L24.54 24.27L24.18 24.18L24.18 24.17Q24.29 23.64 24.48 22.54L24.57 22.62L24.52 22.57Q29.55 22.73 33.59 21.09L33.53 21.04L33.56 21.07Q34.00 19.68 34.95 16.86L34.90 16.81L32.76 17.72L32.86 17.82Q33.07 16.50 33.56 15.36L33.61 15.40L33.55 15.35Q29.81 16.90 25.70 16.98L25.79 17.07L25.74 17.02Q21.64 17.14 17.68 16.04L17.59 15.95L17.68 16.04Q18.31 20.40 18.31 24.82L18.27 24.78L18.36 24.86Q18.21 26.62 18.10 28.52L18.15 28.58L18.14 28.56Q18.37 28.72 18.94 29.02L18.95 29.03L19.08 29.16Q19.31 28.83 19.96 28.48L19.97 28.49L19.93 28.45Q19.94 29.26 19.71 30.78L19.68 30.75L19.84 30.91Q20.12 30.97 20.54 31.20L20.62 31.28L20.69 31.34Q23.39 29.51 25.25 29.51L25.30 29.55L25.23 29.49Q26.52 29.45 27.70 30.10L27.84 30.24L27.84 30.23Q28.19 31.26 28.22 32.22L28.13 32.12L28.07 32.06Q28.12 34.62 27.09 35.73L27.23 35.87L27.22 35.85Q25.79 37.01 23.54 37.24L23.65 37.35L23.54 37.24Q22.69 37.42 22.01 37.34L21.97 37.31L21.96 37.30Q21.00 37.06 20.24 36.71L20.36 36.84L20.28 36.57L20.24 36.75L20.20 36.72Q19.29 36.11 18.76 34.78L18.77 34.79L18.88 34.91Q17.48 36.24 15.80 38.37L15.88 38.45L15.88 38.45Q16.05 38.96 16.89 39.92L16.98 40.00L16.94 39.97Q18.00 41.79 20.82 42.28L20.80 42.27L20.80 42.27Q21.95 42.46 27.32 42.58Z"/><path fill="#e45c5c" d="M128.88 19.35L128.99 19.46L128.95 19.42Q129.83 23.69 129.98 27.27L129.93 27.22L129.92 27.21Q131.00 27.26 132.07 27.26L132.03 27.22L134.29 27.27L134.34 27.32Q135.34 27.26 136.22 25.85L136.14 25.78L136.08 25.72Q136.90 24.63 137.01 23.45L136.98 23.42L137.10 23.54Q137.37 20.42 133.15 19.93L133.22 20.00L133.07 19.85Q131.44 19.86 128.81 19.28ZM129.92 29.95L130.01 30.04L129.98 30.01Q129.78 36.09 128.63 40.50L128.72 40.59L128.71 40.58Q127.16 40.90 124.84 41.96L124.86 41.98L124.97 42.09Q127.23 35.33 126.97 28.06L127.04 28.13L127.08 28.17Q126.79 20.81 124.01 14.37L124.03 14.39L123.93 14.29Q128.00 16.99 134.24 16.99L134.43 17.18L134.32 17.07Q140.41 17.11 140.57 20.57L140.60 20.61L140.50 20.51Q140.62 22.99 139.63 25.65L139.64 25.66L139.53 25.55Q139.26 26.80 138.31 28.02L138.25 27.96L138.28 27.99Q136.93 29.57 134.38 29.84L134.33 29.79L134.47 29.93Q132.16 29.91 129.91 29.94ZM136.06 32.21L136.07 32.22L136.12 32.27Q140.18 32.41 141.44 27.61L141.53 27.70L141.53 27.70Q142.36 23.93 142.21 21.91L142.35 22.05L142.24 21.94Q142.24 20.53 141.48 19.54L141.44 19.50L141.28 19.35Q141.02 19.08 140.52 18.85L140.56 18.89L140.58 18.91Q140.51 18.69 139.90 17.93L139.90 17.92L139.97 17.99Q138.45 16.70 134.49 16.70L134.42 16.63L134.32 16.54Q127.43 16.53 123.20 13.37L123.32 13.49L123.31 13.48Q126.45 20.54 126.72 28.00L126.81 28.10L126.80 28.09Q127.01 35.68 124.35 42.76L124.28 42.70L124.35 42.77Q125.33 42.03 126.32 41.65L126.33 41.66L126.14 42.99L125.94 42.80Q125.94 43.55 125.67 44.12L125.65 44.10L125.62 44.08Q128.05 43.04 130.94 42.50L130.97 42.53L130.82 42.38Q131.67 36.88 131.75 32.16L131.78 32.19L131.90 32.31Q132.96 32.19 133.95 32.19L133.92 32.16L134.01 32.25Q135.19 32.09 135.99 32.13ZM135.02 22.18L135.08 22.24L135.06 22.22Q135.67 22.33 136.66 22.56L136.65 22.55L136.68 22.58Q136.61 22.63 136.65 22.93L136.67 22.95L136.80 23.08Q136.81 23.33 136.73 23.59L136.64 23.49L136.67 23.53Q136.58 24.77 135.85 25.64L135.90 25.68L135.83 25.62Q135.36 26.78 134.33 26.97L134.32 26.96L134.34 26.99Q133.45 26.81 131.81 26.81L131.92 26.93L131.92 26.92Q131.85 24.61 131.62 22.25L131.53 22.16L133.35 22.30L133.44 22.39Q134.27 22.38 135.15 22.31Z"/><path fill="#3fdeb6" d="M34.81 29.57L34.97 29.74L34.88 29.64Q34.79 33.81 34.06 37.96L34.18 38.08L34.22 38.11Q36.41 37.50 39.50 37.38L39.48 37.36L39.43 37.31Q40.90 37.64 41.96 36.63L41.88 36.55L41.87 36.54Q42.92 35.51 42.92 34.18L42.86 34.12L42.99 34.25Q42.97 33.93 42.93 33.66L42.88 33.61L43.00 33.73Q42.79 30.74 40.55 29.90L40.44 29.80L40.52 29.88Q39.67 29.48 38.98 29.56L38.98 29.56L39.12 29.70Q38.07 29.63 37.04 29.67L36.89 29.52L36.96 29.59Q35.87 29.60 34.84 29.60ZM33.75 19.30L33.63 19.18L33.62 19.17Q34.52 22.51 34.79 26.89L34.77 26.87L34.87 26.96Q36.19 26.95 38.85 26.99L39.02 27.15L38.94 27.08Q41.92 27.17 42.26 23.62L42.10 23.46L42.26 23.62Q42.39 21.62 40.99 20.79L41.05 20.85L40.99 20.79Q40.09 20.27 35.67 19.63L35.63 19.58L35.66 19.61Q34.51 19.38 33.60 19.15ZM29.98 42.06L30.09 42.18L30.11 42.19Q32.45 35.40 32.19 28.01L32.19 28.01L32.14 27.97Q31.99 20.81 29.06 14.34L28.97 14.26L28.94 14.22Q32.71 16.73 38.93 16.98L38.98 17.03L39.09 17.14Q45.23 17.31 45.58 20.20L45.67 20.30L45.65 20.28Q46.00 23.06 44.59 25.72L44.48 25.61L44.50 25.63Q43.81 27.19 42.21 27.88L42.22 27.89L42.06 27.73Q45.81 28.50 46.04 33.87L46.07 33.90L45.98 33.81Q46.11 34.98 46.04 36.38L46.08 36.42L46.12 36.47Q46.09 37.81 45.16 38.74L45.02 38.61L45.12 38.70Q44.19 39.64 42.86 39.79L42.83 39.76L42.84 39.77Q41.32 39.81 40.25 39.81L40.24 39.80L40.26 39.82Q34.51 39.78 29.98 42.06ZM42.84 42.44L42.77 42.37L42.71 42.31Q43.81 42.53 45.68 42.65L45.58 42.55L45.63 42.60Q47.09 42.69 48.19 41.81L48.16 41.78L48.19 41.81Q48.90 40.80 48.78 39.24L48.76 39.22L48.82 39.28Q48.73 38.31 48.00 34.85L48.10 34.95L48.04 34.88Q47.25 31.54 45.38 30.06L45.44 30.12L45.05 29.30L45.10 29.36Q46.63 27.80 47.20 24.03L47.22 24.05L47.22 24.06Q47.48 23.02 47.40 21.61L47.29 21.49L47.34 21.54Q47.36 20.31 46.26 19.47L46.15 19.37L46.14 19.36Q45.93 19.26 45.82 19.23L45.84 19.25L45.78 19.19Q45.47 18.61 44.63 17.81L44.61 17.79L44.68 17.86Q43.16 16.79 38.93 16.60L38.98 16.65L38.99 16.66Q32.40 16.42 28.40 13.53L28.29 13.42L28.38 13.51Q31.62 20.48 31.92 28.02L31.83 27.93L31.91 28.00Q32.25 35.84 29.43 42.77L29.36 42.70L31.45 41.78L31.55 41.88Q31.02 42.87 30.52 44.01L30.63 44.12L30.61 44.10Q34.85 42.17 39.87 42.17L39.89 42.19L40.01 42.31Q41.31 42.20 42.76 42.35ZM40.57 31.76L40.76 31.94L40.62 31.80Q41.33 31.71 42.24 32.17L42.21 32.14L42.28 32.21Q42.35 32.50 42.50 33.57L42.52 33.59L42.57 33.64Q42.84 35.09 41.91 36.14L41.81 36.04L41.85 36.08Q40.96 37.17 39.55 37.06L39.44 36.94L38.08 37.18L37.99 37.09Q37.22 37.12 36.50 37.24L36.59 37.33L36.59 37.33Q36.92 35.52 36.99 32.06L36.97 32.04L36.91 31.98Q37.61 31.95 38.86 31.91L38.87 31.92L38.84 31.89Q40.09 31.85 40.70 31.89ZM39.62 22.24L39.55 22.17L39.98 22.22L40.04 22.28Q40.21 22.22 40.40 22.26L40.37 22.23L40.77 22.24L41.15 22.44L41.70 22.45L41.85 22.60Q41.88 22.79 41.88 23.09L41.77 22.98L41.82 23.56L41.85 23.59Q41.81 24.81 40.93 25.74L40.99 25.80L40.91 25.72Q40.14 26.75 38.92 26.75L38.78 26.62L38.84 26.68Q37.79 26.65 37.79 26.65L37.84 26.70L37.77 26.63Q36.50 26.66 36.84 26.66L36.88 26.69L36.84 26.66Q36.77 25.10 36.47 22.06L36.50 22.08L36.53 22.11Q38.17 22.31 39.69 22.31Z"/><path fill="#e5849c" d="M10.73 40.25L10.58 40.10L8.32 33.38L8.28 33.34Q3.85 20.69-2.09 14.29L-2.08 14.30L-2.08 14.30Q-0.09 15.34 2.50 15.94L2.63 16.08L2.66 16.11Q7.63 22.22 11.97 34.97L12.12 35.12L11.97 34.98Q15.02 26.87 15.70 25.27L15.73 25.30L15.77 25.34Q18.14 19.71 20.96 16.40L20.95 16.39L20.96 16.40Q23.01 16.02 25.64 15.14L25.65 15.15L25.72 15.23Q21.03 19.70 17.98 26.94L18.12 27.08L18.05 27.01Q16.69 30.71 13.00 40.23L13.04 40.27L12.99 40.22Q12.36 40.16 11.79 40.12L11.90 40.23L11.79 40.12Q11.31 40.22 10.74 40.25ZM15.79 42.72L15.63 42.55L15.62 42.55Q18.41 32.55 19.97 28.51L20.11 28.65L20.05 28.59Q22.96 20.80 27.38 15.93L27.51 16.06L27.54 16.09Q26.51 16.47 24.41 17.19L24.31 17.08L25.50 15.81L25.49 15.80Q25.99 15.04 26.60 14.39L26.58 14.37L26.65 14.44Q23.85 15.45 20.85 16.02L20.86 16.04L20.82 16.00Q16.52 21.40 12.63 32.86L12.65 32.88L12.49 32.72Q8.84 22.60 5.65 18.22L5.66 18.23L5.72 18.29Q5.39 18.27 4.52 18.12L4.42 18.02L4.38 17.98Q4.19 17.64 2.59 15.58L2.69 15.68L2.72 15.71Q-0.35 14.89-3.05 13.48L-3.02 13.51L-3.08 13.46Q3.57 20.56 7.94 33.35L7.89 33.29L8.00 33.40Q9.25 37.08 10.43 40.66L10.29 40.53L10.33 40.56Q10.78 40.71 11.62 40.60L11.60 40.58L11.65 40.63Q11.90 41.22 12.58 42.55L12.57 42.54L12.67 42.64Q13.49 42.55 14.22 42.63L14.27 42.68L14.26 42.67Q14.98 42.67 15.74 42.67Z"/><path d="M4 48 C82 22,74 12,147 22" stroke="#8161df" fill="none"/><path fill="#ce82e7" d="M86.69 23.29L86.61 23.21L86.62 23.23Q84.93 19.17 78.73 19.36L78.67 19.30L78.85 19.49Q74.33 19.50 72.35 20.94L72.43 21.02L72.37 20.96Q70.02 22.76 70.02 26.87L69.94 26.79L69.98 28.70L69.89 28.61Q69.95 37.50 78.97 37.50L78.91 37.44L79.02 37.55Q81.13 37.60 82.61 36.80L82.51 36.70L82.58 36.77Q84.45 35.78 84.29 33.92L84.24 33.86L84.28 33.90Q84.04 31.76 80.35 30.84L80.25 30.75L78.33 30.77L78.45 30.89Q77.35 30.74 76.39 30.77L76.39 30.77L76.50 30.88Q76.50 29.93 76.46 28.02L76.41 27.97L76.44 28.00Q84.16 28.07 88.35 27.73L88.20 27.58L88.32 27.70Q88.23 28.49 88.23 29.29L88.25 29.30L88.32 29.37Q88.29 30.15 88.33 30.95L88.33 30.95L88.30 30.92Q87.24 30.96 87.24 30.96L87.16 30.88L87.14 30.87Q85.80 30.89 86.18 30.89L86.13 30.84L86.20 30.91Q87.29 32.53 87.67 34.51L87.64 34.48L87.69 34.53Q87.71 35.16 87.71 35.62L87.76 35.67L87.75 35.66Q87.78 40.34 78.99 40.34L79.00 40.34L78.97 40.32Q71.93 40.40 69.34 38.30L69.30 38.26L69.20 38.16Q67.32 35.90 67.32 30.83L67.21 30.72L67.22 30.74Q67.37 29.82 67.21 27.11L67.11 27.01L67.15 27.05Q66.94 24.63 66.98 23.26L66.96 23.24L67.00 23.28Q67.09 20.41 68.47 18.81L68.51 18.85L68.48 18.82Q71.08 16.82 75.95 16.63L75.88 16.55L78.48 16.42L78.54 16.47Q81.70 16.44 85.13 16.86L85.05 16.78L85.04 16.77Q88.94 17.39 89.89 20.63L89.88 20.61L89.78 20.52Q88.86 21.54 86.77 23.37ZM88.12 25.52L88.21 25.49L88.27 25.56Q89.42 24.42 91.28 22.44L91.22 22.37L91.21 22.37Q91.05 21.56 90.06 19.85L90.00 19.78L90.00 19.79Q88.83 17.13 85.02 16.48L84.91 16.37L84.92 16.38Q82.82 16.30 78.52 15.99L78.52 16.00L75.86 16.16L75.93 16.23Q70.68 16.34 68.09 18.32L68.15 18.38L68.17 18.40Q66.73 19.97 66.62 23.05L66.70 23.13L66.54 22.97Q66.71 22.68 66.93 28.17L66.95 28.19L66.81 28.04Q66.85 29.41 66.92 32.15L66.89 32.12L67.01 32.24Q67.14 36.63 68.89 38.57L68.82 38.50L68.82 38.50Q69.31 39.45 70.19 40.33L70.07 40.21L70.06 40.21Q73.08 42.20 78.60 42.54L78.50 42.44L81.41 42.65L81.55 42.79Q82.97 42.72 84.99 42.60L85.10 42.71L85.14 42.75Q86.55 42.64 88.64 42.11L88.59 42.05L88.61 42.08Q90.55 41.58 90.51 39.25L90.48 39.23L90.48 39.23Q90.62 38.10 89.55 35.33L89.50 35.28L89.55 35.33Q89.17 34.34 88.64 33.54L88.56 33.46L88.69 33.59Q89.20 33.53 90.38 33.72L90.40 33.74L90.33 33.67Q90.10 30.12 90.13 29.44L90.07 29.38L90.06 29.36Q89.81 29.50 89.40 29.46L89.33 29.40L89.32 29.38Q88.97 29.38 88.59 29.46L88.49 29.36L88.55 29.42Q88.49 28.26 88.57 27.19L88.59 27.21L88.64 27.26Q82.33 27.73 76.05 27.61L76.05 27.61L76.11 27.67Q76.23 28.67 76.23 29.58L76.06 29.41L76.19 31.29L76.11 31.21Q76.63 31.35 77.04 31.31L76.94 31.21L76.90 31.16Q77.29 31.14 77.75 31.14L77.76 31.15L77.72 31.11Q77.91 31.76 77.95 32.25L77.83 32.13L77.78 32.09Q77.76 32.52 77.72 33.01L77.80 33.10L77.76 33.05Q78.90 33.13 79.93 33.09L79.96 33.12L79.82 32.98Q80.92 33.06 81.95 33.10L82.06 33.20L81.97 33.11Q83.04 33.38 83.91 33.76L83.78 33.63L83.79 33.67L83.77 33.66Q84.08 35.33 82.40 36.25L82.48 36.32L82.40 36.25Q80.69 37.13 78.98 37.13L79.08 37.23L78.94 37.09Q75.12 37.11 72.68 35.36L72.80 35.48L72.70 35.38Q71.83 33.44 71.98 30.89L71.91 30.82L71.95 30.86Q72.29 26.10 74.13 24.10L74.03 23.99L74.06 24.02Q75.92 22.04 80.60 21.73L80.51 21.65L80.54 21.67Q84.17 21.41 86.11 23.20L86.25 23.34L86.21 23.31Q86.22 23.35 86.33 23.55L86.31 23.52L86.43 23.53L86.44 23.54Q87.11 24.32 87.68 25.42L87.69 25.44L87.99 25.40Z"/><path fill="#3838e5" d="M66.67 20.21L66.60 20.13L66.62 20.16Q62.23 20.07 58.54 19.08L58.55 19.09L58.57 19.11Q60.03 23.62 60.22 28.45L60.20 28.44L60.30 28.53Q60.49 33.33 59.27 37.94L59.20 37.87L59.28 37.95Q62.04 37.28 65.55 37.13L65.53 37.12L65.58 37.16Q69.55 37.02 71.34 34.59L71.26 34.51L71.28 34.52Q72.78 32.45 72.97 28.34L72.93 28.30L72.97 28.33Q73.02 26.56 72.56 24.84L72.51 24.79L72.69 24.97Q71.29 20.11 66.57 20.11ZM54.59 42.05L54.73 42.19L54.75 42.21Q57.48 36.38 57.48 29.68L57.50 29.69L57.62 29.81Q57.58 21.24 53.27 14.24L53.35 14.32L53.20 14.17Q58.56 16.94 66.82 17.13L66.69 16.99L66.69 17.00Q75.71 17.34 76.06 24.49L76.00 24.44L76.04 24.48Q76.05 27.07 76.01 28.52L76.09 28.60L75.97 28.48Q76.03 33.30 75.19 35.47L75.14 35.41L75.13 35.41Q74.67 36.47 73.91 37.31L74.05 37.45L73.90 37.30Q72.54 38.83 69.91 39.32L69.95 39.36L70.02 39.43Q68.48 39.76 65.47 39.98L65.38 39.90L65.32 39.83Q59.33 40.43 54.72 42.18ZM72.68 42.10L72.61 42.03L72.57 41.98Q75.38 41.71 77.02 40.23L77.07 40.28L77.01 40.22Q78.07 38.31 78.03 35.57L78.18 35.72L78.17 35.70Q78.07 34.24 77.92 30.74L78.08 30.90L77.57 26.20L77.68 26.31Q77.50 24.03 76.55 21.94L76.39 21.78L76.47 21.86Q75.96 20.94 75.28 20.29L75.36 20.37L75.30 20.16L75.32 20.18Q73.66 17.27 69.25 16.89L69.23 16.87L69.09 16.73Q66.44 16.63 59.43 15.91L59.45 15.92L59.41 15.89Q56.13 15.42 52.44 13.40L52.41 13.37L52.42 13.38Q57.28 20.79 57.28 29.55L57.40 29.67L57.37 29.64Q57.40 36.68 54.05 42.85L54.01 42.81L53.94 42.73Q54.62 42.46 55.95 41.96L55.99 42.00L56.01 42.03Q55.58 42.77 54.70 44.26L54.73 44.29L54.79 44.34Q57.80 43.24 61.15 42.74L61.17 42.77L61.21 42.81Q63.31 42.51 66.97 42.39L66.83 42.26L66.84 42.27Q70.82 42.25 72.64 42.06ZM72.56 28.31L72.66 28.41L72.66 28.40Q72.17 36.29 65.47 36.67L65.59 36.79L65.57 36.78Q63.61 36.87 61.56 37.14L61.54 37.12L61.51 37.09Q62.26 33.27 62.26 29.61L62.32 29.68L62.23 29.59Q62.33 26.00 61.61 22.16L61.52 22.06L61.50 22.05Q63.78 22.42 68.46 22.42L68.57 22.52L68.40 22.36Q69.95 22.39 71.59 23.34L71.42 23.17L71.51 23.26Q72.73 25.47 72.58 28.33Z"/><path fill="#e76ee7" d="M99.05 49.72L99.04 49.72L98.95 49.62Q101.81 45.71 104.71 39.51L104.66 39.46L104.84 39.64Q101.58 32.95 95.49 24.88L95.56 24.95L95.51 24.90Q97.41 26.04 100.19 26.69L100.23 26.73L100.29 26.79Q103.70 31.34 106.13 36.55L106.12 36.54L106.13 36.55Q108.41 31.37 111.50 26.96L111.47 26.93L111.53 26.99Q113.63 26.54 115.73 25.74L115.74 25.76L115.75 25.76Q112.24 29.49 108.78 36.92L108.93 37.07L105.99 42.95L106.06 43.03Q104.50 46.04 102.75 48.66L102.88 48.79L102.86 48.77Q100.45 49.15 99.01 49.68ZM105.20 51.04L105.08 50.92L105.14 50.98Q106.85 48.08 108.30 44.81L108.27 44.78L111.10 38.55L111.02 38.47Q114.51 30.43 117.83 26.43L117.94 26.54L117.87 26.48Q116.53 27.15 114.62 27.84L114.57 27.78L115.66 26.43L115.57 26.35Q116.21 25.73 116.82 25.05L116.74 24.97L116.87 25.09Q114.10 26.06 111.25 26.52L111.16 26.43L111.33 26.60Q108.55 30.48 106.61 34.94L106.62 34.95L106.58 34.91Q104.99 31.64 103.20 28.82L103.22 28.84L103.16 28.78Q102.87 28.68 102.51 28.65L102.51 28.65L102.50 28.64Q102.17 28.63 101.98 28.63L101.95 28.60L101.98 28.64Q101.20 27.36 100.25 26.22L100.27 26.24L100.23 26.20Q97.23 25.71 94.49 23.99L94.42 23.93L94.42 23.93Q100.75 32.01 104.44 39.62L104.46 39.64L104.31 39.49Q102.21 44.63 98.14 50.26L98.04 50.16L98.21 50.33Q98.91 49.92 99.70 49.77L99.71 49.78L101.37 49.46L101.36 49.45Q100.71 50.12 99.53 51.76L99.53 51.77L99.49 51.73Q101.84 51.18 105.11 50.95Z"/><path fill="#be3ee9" d="M48.89 26.89L48.88 26.88L48.74 26.74Q50.57 26.93 52.39 26.93L52.48 27.01L52.46 26.99Q54.18 26.93 56.01 26.77L56.10 26.86L56.05 26.81Q55.97 27.49 55.97 28.21L55.94 28.18L55.94 29.52L56.05 29.63Q53.59 29.53 48.83 29.65L48.91 29.72L48.81 29.62Q48.90 35.65 47.76 40.64L47.77 40.65L47.79 40.67Q45.49 41.27 44.01 42.07L43.99 42.05L43.93 41.98Q46.37 35.30 46.11 28.18L45.98 28.05L46.02 28.09Q45.85 21.03 43.19 14.37L43.20 14.38L43.05 14.23Q46.78 16.82 51.54 17.05L51.59 17.10L51.62 17.13Q56.28 17.29 60.43 15.54L60.37 15.49L60.45 15.57Q60.19 16.41 59.96 17.21L59.78 17.02L59.38 18.72L59.42 18.76Q56.76 19.90 53.79 20.06L53.74 20.01L53.67 19.94Q50.84 20.19 47.98 19.47L47.90 19.39L47.88 19.37Q48.71 22.89 48.90 26.89ZM60.96 14.74L61.04 14.82L61.03 14.82Q56.38 16.90 51.51 16.60L51.51 16.60L51.62 16.71Q46.28 16.39 42.55 13.54L42.40 13.39L42.38 13.37Q45.33 20.40 45.64 28.01L45.70 28.08L45.74 28.11Q46.02 36.00 43.50 42.78L43.57 42.85L43.52 42.79Q44.10 42.31 45.47 41.67L45.49 41.68L45.44 41.64Q45.36 42.51 44.79 44.03L44.79 44.03L44.84 44.08Q47.14 42.99 50.03 42.49L50.04 42.51L49.99 42.45Q50.64 37.62 50.83 31.91L50.85 31.93L50.80 31.88Q52.49 31.74 54.31 31.74L54.47 31.90L54.43 31.86Q56.26 31.90 58.09 32.09L57.92 31.92L58.08 32.08Q57.90 31.06 57.90 30.15L57.89 30.14L57.97 28.31L57.84 28.18Q57.14 28.36 56.30 28.36L56.26 28.32L56.37 28.42Q56.37 27.55 56.44 26.52L56.27 26.35L56.46 26.54Q54.93 26.57 53.53 26.57L53.56 26.60L53.56 26.61Q52.19 26.65 50.82 26.61L50.81 26.60L50.76 24.42L50.70 24.36Q50.60 23.19 50.49 22.13L50.54 22.18L50.49 22.13Q51.59 22.31 52.58 22.31L52.51 22.24L52.64 22.37Q57.40 22.38 61.02 20.48L60.99 20.45L60.90 20.35Q61.35 18.48 62.26 15.86L62.43 16.02L62.43 16.03Q61.04 16.77 60.24 17.11L60.29 17.15L60.23 17.10Q60.61 16.45 61.11 14.89Z"/><path d="M11 12 C83 20,69 20,146 28" stroke="#ebeb7e" fill="none"/><path d="M18 41 C72 7,92 30,140 35" stroke="#dd8163" fill="none"/><path d="M15 38 C57 32,77 40,148 5" stroke="#e08e3c" fill="none"/><path fill="#e6b788" d="M119.01 41.37L118.96 41.31L119.04 41.39Q116.22 41.62 114.96 41.09L114.85 40.97L114.86 40.98Q112.90 40.16 112.97 37.69L113.08 37.79L112.93 37.65Q113.23 34.41 113.23 34.98L113.19 34.93L113.19 34.94Q113.19 29.60 110.33 24.77L110.21 24.64L110.21 24.65Q112.36 25.77 114.34 26.15L114.28 26.09L114.33 26.14Q115.94 30.64 115.83 35.13L115.82 35.13L115.76 35.07Q115.78 36.73 116.62 37.95L116.48 37.80L116.50 37.83Q117.47 39.21 118.99 39.02L118.91 38.95L119.27 38.81L119.45 38.99Q120.76 38.89 121.58 38.13L121.45 38.00L121.42 37.96Q122.28 37.25 122.28 36.30L122.29 36.30L122.36 36.37Q122.27 36.05 122.23 35.86L122.20 35.83L122.20 35.84Q122.29 30.75 123.44 26.41L123.34 26.31L123.26 26.24Q124.36 26.23 125.35 26.00L125.32 25.97L127.44 25.58L127.44 25.58Q124.82 30.54 125.12 36.09L125.23 36.20L125.20 36.17Q125.32 39.19 123.61 40.33L123.65 40.37L123.65 40.37Q122.25 41.13 118.93 41.29ZM121.27 43.70L121.28 43.71L121.26 43.69Q124.82 43.93 126.64 43.17L126.69 43.22L126.61 43.14Q127.52 42.37 127.52 40.96L127.59 41.04L127.46 40.91Q127.50 40.03 127.23 38.47L127.36 38.59L127.34 38.58Q126.76 35.33 127.14 32.32L127.16 32.34L127.19 32.37Q127.49 29.13 128.90 26.39L129.05 26.54L128.97 26.46Q128.29 26.74 126.96 27.16L127.02 27.22L126.94 27.14Q127.18 26.54 127.49 25.97L127.49 25.98L128.07 24.85L128.21 24.98Q126.26 25.62 123.10 26.11L123.01 26.03L122.92 25.93Q121.70 30.73 121.85 35.83L121.88 35.85L121.87 35.85Q121.93 37.92 119.26 38.42L119.29 38.44L118.93 38.55L118.92 38.68L117.95 38.51L117.93 38.49Q117.82 37.59 117.86 37.09L117.81 37.04L117.92 37.15Q118.09 32.60 117.40 28.18L117.42 28.20L116.28 27.98L116.37 28.07Q115.85 28.04 115.32 27.92L115.17 27.77L115.19 27.80Q114.87 26.45 114.61 25.69L114.61 25.70L114.50 25.59Q111.81 25.26 109.57 23.96L109.49 23.89L109.67 24.06Q111.65 27.42 112.37 30.81L112.48 30.91L112.48 30.91Q112.94 33.09 112.79 36.59L112.86 36.66L112.84 36.64Q112.81 36.73 112.73 37.83L112.71 37.80L112.72 37.81Q112.51 40.12 113.88 41.07L113.92 41.11L114.05 41.24Q114.37 43.43 121.38 43.81Z"/><path d="M4 20 C93 22,74 18,136 16" stroke="#e25e5e" fill="none"/></svg>