<svg xmlns="http://www.w3.org/2000/svg" width="150" height="50" viewBox="0,0,150,50"><rect width="100%" height="100%" fill="white"/><path d="M3 8 C59 2,65 10,142 36" stroke="#704fd3" fill="none"/><path fill="#bb36e7" d="M104.02 29.84L104.01 29.82L104.04 29.85Q103.84 29.89 103.54 29.89L103.49 29.84L103.54 29.89Q102.20 29.88 100.76 30.72L100.72 30.68L100.79 30.76Q99.40 31.80 99.40 33.70L99.38 33.68L99.34 33.65Q99.46 37.19 100.98 38.52L100.81 38.35L100.86 38.40Q101.88 39.65 104.16 39.65L104.14 39.62L104.17 39.65Q104.47 39.73 104.78 39.73L104.64 39.59L104.74 39.69Q106.46 39.69 107.60 38.06L107.61 38.07L107.60 38.06Q108.54 36.45 108.46 34.66L108.45 34.64L108.48 34.68Q108.60 34.26 108.60 33.85L108.57 33.81L108.64 33.88Q108.51 31.97 107.14 30.81L107.26 30.92L107.20 30.86Q105.77 29.64 103.98 29.79ZM108.64 40.13L108.63 40.12L108.46 39.95Q107.59 42.01 103.86 42.13L103.87 42.14L103.84 42.11Q100.34 42.10 98.74 40.51L98.72 40.49L98.79 40.56Q97.37 38.83 96.57 34.03L96.53 34.00L96.47 33.94Q96.24 32.26 96.24 31.01L96.30 31.07L96.19 30.95Q96.20 29.17 96.92 28.10L96.96 28.15L96.96 28.14Q98.36 26.80 101.33 26.80L101.23 26.70L101.28 26.75Q107.58 26.73 109.48 29.32L109.60 29.44L109.48 29.32Q109.74 28.59 110.16 26.99L110.16 26.99L110.21 27.04Q111.34 26.61 113.77 25.81L113.92 25.95L113.77 25.80Q111.39 31.50 111.16 37.82L111.24 37.90L111.09 37.75Q110.98 44.03 113.11 49.86L113.06 49.80L113.09 49.83Q111.37 49.21 109.58 48.95L109.65 49.01L109.48 48.85Q108.69 45.01 108.58 40.06ZM109.23 49.17L109.26 49.20L109.34 49.28Q110.09 49.46 111.50 49.76L111.43 49.69L111.47 49.73Q111.67 50.42 112.24 51.83L112.16 51.75L112.33 51.93Q114.93 52.66 117.21 53.95L117.21 53.95L117.21 53.96Q113.10 47.29 113.10 38.77L113.00 38.67L112.99 38.65Q113.15 32.45 115.62 26.67L115.64 26.69L115.48 26.52Q114.82 26.86 113.45 27.51L113.46 27.51L113.59 27.64Q113.74 26.69 114.39 25.13L114.42 25.16L114.42 25.16Q112.89 25.72 109.69 26.60L109.63 26.54L109.69 26.59Q109.64 27.23 109.33 28.41L109.28 28.36L109.35 28.43Q107.33 26.52 101.20 26.36L101.13 26.30L101.26 26.43Q97.89 26.18 96.52 27.67L96.67 27.82L96.68 27.82Q95.77 28.82 95.81 30.72L95.80 30.71L95.81 30.72Q96.01 33.82 97.00 37.59L96.97 37.56L96.90 37.48Q97.58 39.91 98.49 40.87L98.46 40.84L98.84 41.21L98.87 41.24Q100.20 44.17 105.64 44.40L105.56 44.32L105.51 44.27Q106.55 44.32 108.38 44.02L108.47 44.11L108.41 44.04Q108.62 46.89 109.23 49.17ZM105.85 32.09L105.84 32.07L105.93 32.16Q107.03 32.20 107.87 32.51L107.94 32.57L107.85 32.48Q108.08 33.05 108.19 33.66L108.25 33.72L108.15 33.62Q108.23 34.16 108.15 34.76L108.08 34.69L108.24 34.86Q108.25 36.76 107.22 38.06L107.13 37.97L107.10 37.94Q106.00 39.43 104.13 39.24L104.16 39.27L104.04 39.15Q102.77 39.17 101.82 38.75L101.86 38.79L101.95 38.88Q101.64 38.12 101.64 36.90L101.60 36.86L101.62 36.87Q101.45 36.41 101.45 36.10L101.53 36.17L101.50 36.14Q101.56 34.45 102.89 33.29L102.83 33.24L102.80 33.20Q104.16 32.07 105.91 32.15Z"/><path d="M4 21 C68 21,63 3,131 40" stroke="#ddb84a" fill="none"/><path fill="#82e561" d="M24.06 41.03L24.08 41.06L23.99 40.96Q19.96 29.85 14.82 24.87L14.65 24.70L14.68 24.72Q16.22 25.42 19.19 26.07L19.08 25.96L19.13 26.02Q22.69 29.96 25.24 36.62L25.24 36.61L25.22 36.60Q27.93 29.29 30.55 26.25L30.53 26.23L30.49 26.18Q32.44 26.04 34.88 25.36L34.96 25.44L34.92 25.40Q31.80 28.17 29.63 32.74L29.63 32.74L29.54 32.65Q29.14 33.28 25.75 40.89L25.92 41.06L25.88 41.03Q25.31 41.14 24.09 41.07ZM28.58 43.35L28.56 43.33L28.71 43.47Q32.09 31.21 36.66 26.53L36.63 26.50L35.08 26.93L35.14 26.98Q34.33 27.20 33.49 27.32L33.47 27.30L33.50 27.32Q34.00 26.95 34.81 26.07L34.65 25.90L34.73 25.98Q35.58 25.14 36.03 24.72L35.93 24.62L36.05 24.74Q33.85 25.39 30.42 25.88L30.32 25.78L30.45 25.91Q27.67 29.04 25.61 34.63L25.56 34.58L25.68 34.70Q23.93 30.40 22.10 27.92L22.10 27.92L21.60 27.95L21.59 27.94Q21.28 27.90 21.05 27.90L21.16 28.00L21.08 27.93Q20.84 27.57 19.12 25.51L19.08 25.47L19.19 25.58Q15.86 25.11 13.62 23.96L13.55 23.90L13.60 23.95Q19.71 29.64 23.71 41.36L23.77 41.43L24.79 41.46L24.78 41.45Q25.14 42.12 25.98 43.41L25.85 43.28L27.21 43.27L27.31 43.37Q28.06 43.39 28.71 43.47Z"/><path fill="#99e480" d="M128.98 19.45L128.87 19.35L128.99 19.46Q129.64 23.50 129.79 27.08L129.86 27.15L129.90 27.19Q130.93 27.19 132.00 27.19L131.96 27.15L134.18 27.17L134.18 27.16Q135.28 27.20 136.16 25.80L136.26 25.89L136.11 25.75Q136.87 24.60 136.98 23.42L136.94 23.38L136.95 23.39Q137.33 20.38 133.10 19.88L133.23 20.01L133.10 19.88Q131.54 19.96 128.91 19.38ZM129.95 29.98L129.96 29.99L129.92 29.95Q129.93 36.24 128.78 40.65L128.79 40.66L128.72 40.59Q127.19 40.93 124.87 41.99L124.92 42.04L125.00 42.12Q127.21 35.31 126.95 28.04L126.93 28.02L127.08 28.17Q126.75 20.77 123.97 14.33L123.97 14.33L123.94 14.30Q128.12 17.11 134.37 17.11L134.25 16.99L134.43 17.18Q140.45 17.15 140.61 20.61L140.61 20.62L140.48 20.48Q140.71 23.08 139.72 25.74L139.70 25.72L139.65 25.67Q139.12 26.66 138.16 27.88L138.25 27.96L138.32 28.03Q137.02 29.66 134.47 29.93L134.43 29.89L134.34 29.80Q132.12 29.87 129.88 29.91ZM136.01 32.16L135.98 32.13L136.07 32.22Q140.24 32.47 141.50 27.67L141.40 27.58L141.52 27.69Q142.38 23.94 142.22 21.92L142.34 22.04L142.20 21.90Q142.08 20.37 141.32 19.38L141.34 19.40L141.48 19.54Q141.09 19.16 140.60 18.93L140.64 18.97L140.59 18.92Q140.47 18.64 139.86 17.88L140.00 18.02L139.96 17.98Q138.43 16.69 134.48 16.69L134.33 16.55L134.42 16.64Q127.59 16.69 123.36 13.53L123.20 13.37L123.24 13.41Q126.37 20.46 126.63 27.92L126.67 27.95L126.70 27.98Q127.00 35.67 124.33 42.75L124.42 42.84L124.29 42.71Q125.47 42.18 126.46 41.80L126.34 41.67L126.09 42.95L125.99 42.85Q125.88 43.50 125.61 44.07L125.67 44.13L125.50 43.96Q128.03 43.02 130.93 42.49L130.98 42.54L130.93 42.50Q131.81 37.02 131.89 32.30L131.82 32.23L131.83 32.23Q132.95 32.18 133.94 32.18L133.94 32.18L134.00 32.24Q135.21 32.11 136.00 32.15ZM135.04 22.20L135.02 22.18L135.11 22.28Q135.57 22.23 136.56 22.46L136.63 22.54L136.67 22.58Q136.67 22.69 136.71 22.99L136.64 22.93L136.66 22.95Q136.79 23.30 136.71 23.57L136.74 23.60L136.61 23.46Q136.55 24.74 135.83 25.62L135.80 25.59L135.87 25.66Q135.29 26.72 134.27 26.91L134.24 26.89L134.20 26.84Q133.41 26.78 131.78 26.78L131.83 26.84L131.95 26.95Q131.87 24.63 131.64 22.27L131.65 22.28L133.36 22.31L133.30 22.25Q134.16 22.28 135.04 22.20Z"/><path fill="#e4984d" d="M58.87 37.95L58.78 37.86L58.76 37.84Q59.21 38.98 59.75 41.00L59.75 41.01L59.66 40.91Q55.44 39.58 50.83 39.85L50.76 39.78L50.93 39.95Q46.22 40.07 42.23 42.05L42.33 42.16L42.33 42.16Q42.54 41.45 42.57 41.53L42.50 41.45L42.43 41.39Q46.20 37.47 50.13 33.05L50.10 33.02L50.12 33.05Q54.53 28.05 55.71 23.37L55.70 23.36L55.80 23.46Q56.21 21.66 54.94 20.48L54.91 20.45L54.94 20.49Q53.72 19.36 51.93 19.51L51.88 19.46L51.90 19.49Q51.46 19.35 51.12 19.35L51.11 19.34L51.18 19.41Q49.73 19.48 48.47 20.40L48.45 20.37L48.39 20.31Q47.06 21.65 47.29 24.31L47.38 24.41L47.29 24.32Q45.57 24.04 44.35 23.59L44.31 23.54L44.34 23.57Q44.22 22.23 44.14 20.78L44.04 20.69L44.03 20.68Q43.93 19.02 44.54 17.88L44.58 17.91L44.72 18.05Q46.33 16.50 49.68 16.50L49.85 16.67L51.48 16.55L51.57 16.64Q53.88 16.70 54.83 16.82L54.78 16.76L54.72 16.71Q59.15 17.22 59.42 19.66L59.38 19.62L59.27 19.50Q59.34 20.07 59.27 20.87L59.36 20.96L59.44 21.04Q59.26 21.56 59.11 22.24L59.19 22.32L59.19 22.32Q57.58 30.46 50.01 37.31L49.89 37.19L49.86 37.17Q51.36 37.10 52.73 37.10L52.73 37.11L52.70 37.07Q55.91 37.05 58.77 37.85ZM58.27 17.10L58.27 17.09L58.24 17.07Q56.73 16.51 55.02 16.44L54.87 16.29L51.48 16.13L51.51 16.17Q47.15 15.99 44.95 17.10L44.80 16.96L44.95 17.10Q43.77 18.35 43.77 20.41L43.85 20.49L43.75 20.39Q43.85 21.18 44.16 24.00L44.19 24.03L44.11 23.95Q44.59 24.12 45.77 24.43L45.82 24.48L45.92 25.61L45.90 25.59Q45.82 26.01 45.90 26.54L45.81 26.46L45.88 26.53Q47.23 26.73 49.70 26.95L49.58 26.83L49.69 26.94Q49.66 26.57 49.66 26.23L49.62 26.19L49.53 26.09Q49.52 24.26 50.74 22.91L50.76 22.94L50.79 22.97Q52.08 21.68 53.87 21.79L53.88 21.81L53.75 21.67Q54.55 21.76 55.32 21.91L55.42 22.01L55.23 21.82Q55.45 22.31 55.52 22.73L55.46 22.66L55.54 22.75Q55.56 23.14 55.48 23.49L55.44 23.44L55.49 23.49Q54.13 28.15 49.72 32.99L49.78 33.04L49.75 33.02Q47.67 35.32 42.23 41.37L42.15 41.29L42.20 41.35Q41.95 42.12 41.61 42.69L41.68 42.77L41.65 42.74Q43.19 41.80 44.72 41.27L44.73 41.28L44.83 41.38Q44.16 42.01 43.21 43.49L43.23 43.51L43.09 43.37Q43.11 43.85 42.99 44.19L42.87 44.07L42.93 44.13Q47.80 42.07 53.28 42.26L53.29 42.27L53.34 42.32Q58.85 42.30 63.41 44.66L63.60 44.85L62.57 42.68L62.48 42.59Q61.77 41.20 61.50 40.40L61.58 40.47L61.60 40.49Q60.86 40.05 59.64 39.63L59.60 39.59L59.74 39.73Q59.42 38.85 59.04 37.48L59.07 37.51L59.08 37.52Q56.90 36.97 54.62 36.78L54.55 36.71L54.59 36.76Q59.39 32.31 60.91 24.04L60.92 24.05L60.97 21.01L61.10 21.15Q60.93 19.26 59.71 18.58L59.78 18.65L59.68 18.58L59.71 18.61Q59.64 18.51 59.56 18.51L59.68 18.62L59.51 18.45Q59.44 17.77 58.33 17.16Z"/><path d="M4 42 C94 2,72 23,130 2" stroke="#d2ef7a" fill="none"/><path fill="#724ede" d="M118.15 29.16L118.02 29.03L118.17 29.18Q116.29 29.01 115.05 30.44L115.05 30.44L115.05 30.43Q113.86 31.91 113.67 33.82L113.70 33.85L113.51 33.66Q113.32 35.75 114.41 36.72L114.54 36.86L114.56 36.87Q115.48 37.68 117.57 37.57L117.55 37.54L117.70 37.69Q119.66 37.41 120.77 36.73L120.89 36.85L120.87 36.83Q122.05 35.76 122.05 34.20L122.08 34.24L122.06 34.21Q121.98 33.75 121.90 33.37L121.95 33.42L121.98 33.45Q122.03 31.74 120.92 30.39L120.79 30.26L120.82 30.29Q119.75 28.97 118.08 29.09ZM117.66 40.20L117.71 40.25L117.75 40.29Q113.27 40.19 111.86 39.43L111.88 39.45L111.91 39.47Q110.96 38.79 110.77 37.08L110.74 37.05L110.70 37.01Q110.55 36.22 110.59 35.50L110.62 35.52L110.66 35.57Q110.83 34.63 110.83 34.18L110.87 34.22L110.72 34.07Q111.17 31.21 111.33 30.52L111.46 30.65L111.45 30.64Q111.83 28.63 112.67 27.22L112.74 27.29L112.68 27.23Q115.26 22.77 121.20 16.41L121.35 16.56L121.37 16.58Q124.04 16.28 126.25 15.48L126.21 15.45L126.14 15.37Q119.28 22.83 116.08 27.06L116.19 27.17L116.15 27.12Q117.09 26.57 118.38 26.57L118.47 26.66L118.36 26.55Q121.74 26.62 123.26 28.56L123.20 28.50L123.33 28.63Q124.53 30.13 124.87 33.67L124.85 33.65L124.96 33.76Q124.98 34.43 124.98 35.04L125.02 35.08L124.92 34.97Q125.08 38.26 122.87 39.32L122.70 39.15L122.69 39.15Q121.64 39.92 117.75 40.30ZM119.90 42.56L120.06 42.72L119.94 42.59Q121.28 42.60 123.26 42.68L123.21 42.63L123.26 42.69Q124.84 42.70 126.40 41.98L126.36 41.94L126.49 42.07Q127.47 41.14 127.47 39.35L127.56 39.44L127.51 39.40Q127.58 38.97 127.41 37.98L127.36 37.93L127.37 37.94Q127.15 36.91 127.15 36.45L127.26 36.56L127.15 36.45Q126.36 31.81 124.76 29.91L124.74 29.89L124.66 29.81Q124.68 29.79 124.53 29.56L124.55 29.58L124.13 29.24L124.13 29.28L124.18 29.33Q123.71 28.71 123.10 27.76L123.09 27.74L123.14 27.79Q122.34 26.95 120.36 26.50L120.34 26.47L120.25 26.38Q121.49 24.81 124.46 21.12L124.47 21.13L128.61 15.75L128.67 15.81Q127.11 16.69 124.71 17.45L124.66 17.40L124.64 17.38Q125.64 16.48 127.43 14.50L127.43 14.49L127.45 14.51Q124.95 15.48 121.07 16.05L121.10 16.08L121.11 16.09Q115.53 22.13 112.56 27.07L112.56 27.07L112.44 26.95Q110.87 29.42 110.30 35.66L110.40 35.76L110.35 35.71Q110.31 36.32 110.39 37.27L110.39 37.27L110.34 37.22Q110.52 39.08 111.62 39.99L111.64 40.01L111.49 39.86Q111.92 40.06 111.88 40.10L111.90 40.12L111.90 40.11Q112.36 41.11 113.16 41.53L113.08 41.45L113.05 41.42Q114.62 42.23 116.56 42.42L116.56 42.41L116.47 42.33Q116.39 42.25 119.89 42.55ZM119.74 31.40L119.65 31.30L119.75 31.41Q120.24 31.21 121.19 31.71L121.20 31.72L121.19 31.71Q121.57 32.69 121.57 33.34L121.51 33.28L121.63 33.40Q121.78 35.23 120.83 36.22L120.84 36.23L120.78 36.16Q119.81 36.99 117.72 37.29L117.61 37.18L117.69 37.26Q116.33 37.35 115.80 37.08L115.72 37.01L115.79 37.08Q115.42 36.44 115.42 36.14L115.45 36.17L115.48 36.20Q115.34 33.02 118.28 31.72L118.30 31.75L118.15 31.60Q119.01 31.35 119.77 31.43Z"/><path d="M15 35 C63 3,95 27,143 38" stroke="#91d64c" fill="none"/><path fill="#d656d6" d="M41.57 30.81L41.72 30.96L41.68 30.93Q41.59 29.73 39.65 29.01L39.53 28.88L39.56 28.92Q39.19 28.85 38.65 28.85L38.53 28.73L38.55 28.75Q37.26 28.82 36.19 29.39L36.12 29.32L36.21 29.41Q34.85 30.14 34.96 31.36L34.83 31.23L34.79 31.19Q35.24 34.12 35.09 36.36L35.08 36.36L35.03 36.30Q34.88 38.74 34.15 41.25L34.15 41.24L34.20 41.30Q32.08 41.80 30.90 42.22L30.79 42.12L30.93 42.25Q32.55 38.66 32.55 34.66L32.55 34.66L32.39 34.50Q32.56 29.22 29.97 24.77L29.96 24.77L29.94 24.74Q31.17 25.25 33.57 25.97L33.53 25.94L33.43 25.83Q33.82 26.64 34.20 28.17L34.29 28.25L34.17 28.14Q35.54 26.08 39.42 26.15L39.48 26.21L39.43 26.16Q40.98 26.26 41.78 26.37L41.68 26.28L41.69 26.29Q44.64 26.65 44.71 28.66L44.71 28.66L44.69 28.64Q44.83 29.66 44.64 30.69L44.56 30.60L44.63 30.68Q44.06 33.08 44.25 36.08L44.29 36.12L44.23 36.06Q44.44 38.98 45.43 41.53L45.48 41.58L45.45 41.55Q43.75 41.14 42.04 40.99L42.11 41.06L42.04 40.99Q41.59 38.64 41.52 35.98L41.51 35.97L41.54 36.00Q41.50 33.29 41.73 30.97ZM41.68 41.35L41.75 41.42L41.62 41.29Q42.43 41.30 43.72 41.53L43.84 41.64L44.21 42.71L44.22 42.71Q44.37 43.17 44.60 43.70L44.51 43.62L44.63 43.74Q46.80 44.04 49.51 45.22L49.54 45.26L49.59 45.31Q47.23 42.18 46.54 38.37L46.58 38.41L46.58 38.41Q46.23 36.28 46.35 32.58L46.17 32.41L46.33 32.56Q46.24 32.17 46.28 31.37L46.27 31.36L46.31 31.41Q46.40 30.81 46.33 30.31L46.27 30.26L46.38 30.37Q46.09 28.52 44.99 28.03L45.17 28.21L45.12 28.16Q45.00 27.36 44.24 26.75L44.23 26.74L44.07 26.58Q42.39 25.58 39.35 25.66L39.35 25.66L39.40 25.71Q37.63 25.84 36.79 26.03L36.75 25.99L36.65 25.89Q35.26 26.29 34.31 27.20L34.40 27.30L34.40 27.29Q34.29 26.77 33.91 25.74L33.89 25.72L33.91 25.74Q30.95 24.91 29.12 23.92L29.25 24.06L29.21 24.01Q32.32 28.94 32.32 34.69L32.14 34.51L32.16 34.54Q32.16 38.92 30.26 42.76L30.23 42.73L30.32 42.82Q31.08 42.59 32.37 42.21L32.29 42.13L32.21 42.05Q31.90 43.49 31.36 44.48L31.33 44.45L31.18 44.29Q32.65 43.89 36.19 43.32L36.19 43.32L36.13 43.27Q37.29 38.29 37.17 33.46L37.07 33.35L37.13 33.41Q37.00 32.49 38.18 31.76L38.23 31.81L38.33 31.91Q39.29 31.20 40.40 31.09L40.32 31.01L40.30 30.99Q40.72 30.92 41.14 31.11L41.32 31.28L41.27 31.24Q41.14 33.81 41.18 36.36L41.04 36.22L41.13 36.31Q41.11 38.76 41.60 41.28Z"/><path d="M18 1 C55 18,81 47,144 30" stroke="#8665eb" fill="none"/><path fill="#c9e674" d="M89.02 14.82L88.98 14.77L88.95 14.74Q90.16 17.10 92.10 17.10L92.04 17.03L92.02 17.01Q92.50 17.00 92.92 16.85L92.90 16.83L93.09 17.02Q92.82 22.07 92.78 28.47L92.70 28.39L92.73 28.43Q92.75 34.72 92.94 39.97L93.02 40.06L92.85 39.89Q92.53 39.79 92.15 39.79L92.19 39.83L92.17 39.82Q90.83 39.84 89.42 41.71L89.48 41.77L89.48 41.77Q90.02 34.93 89.99 28.23L90.09 28.33L89.94 28.18Q89.97 21.55 89.06 14.85ZM88.93 42.82L88.81 42.69L88.83 42.71Q89.80 41.25 90.98 40.53L90.91 40.46L91.04 40.59Q90.98 41.52 90.90 42.59L90.99 42.67L90.83 42.51Q91.61 42.03 92.37 42.15L92.42 42.20L92.40 42.18Q94.62 42.57 95.99 45.35L95.96 45.31L95.93 45.29Q94.67 37.86 94.67 30.59L94.79 30.71L94.70 30.62Q94.64 23.02 95.44 15.90L95.53 16.00L95.57 16.04Q94.48 17.80 93.42 18.45L93.40 18.44L93.45 18.48Q93.42 17.73 93.54 16.36L93.51 16.33L93.41 16.23Q92.63 16.67 91.87 16.56L91.91 16.60L91.90 16.59Q89.56 16.35 88.54 13.45L88.50 13.42L88.49 13.41Q89.65 20.97 89.77 28.12L89.70 28.06L89.77 28.13Q89.80 35.20 88.81 42.70Z"/><path fill="#bbe43e" d="M86.64 23.24L86.64 23.24L86.78 23.38Q84.98 19.22 78.77 19.41L78.71 19.34L78.68 19.31Q74.39 19.56 72.41 21.00L72.38 20.97L72.36 20.96Q70.01 22.75 70.01 26.86L69.91 26.76L69.88 28.60L70.03 28.75Q70.05 37.60 79.07 37.60L78.91 37.44L79.06 37.59Q80.97 37.45 82.46 36.65L82.59 36.78L82.45 36.64Q84.29 35.63 84.14 33.76L84.11 33.73L84.29 33.91Q83.93 31.64 80.23 30.73L80.34 30.84L78.45 30.89L78.45 30.89Q77.35 30.74 76.40 30.78L76.45 30.83L76.56 30.94Q76.50 29.93 76.47 28.03L76.48 28.05L76.45 28.01Q84.02 27.94 88.21 27.59L88.38 27.76L88.20 27.58Q88.20 28.46 88.20 29.26L88.29 29.34L88.29 29.34Q88.32 30.18 88.36 30.98L88.25 30.87L88.26 30.88Q87.13 30.85 87.13 30.85L87.09 30.81L87.10 30.82Q85.85 30.94 86.23 30.94L86.13 30.84L86.25 30.96Q87.24 32.48 87.62 34.46L87.65 34.49L87.57 34.42Q87.69 35.14 87.69 35.60L87.84 35.75L87.80 35.71Q87.79 40.34 78.99 40.34L78.95 40.30L78.94 40.29Q71.82 40.29 69.24 38.20L69.20 38.16L69.27 38.23Q67.18 35.76 67.18 30.69L67.35 30.87L67.32 30.84Q67.28 29.73 67.12 27.02L67.06 26.96L67.05 26.95Q66.92 24.61 66.96 23.24L67.07 23.35L67.02 23.30Q67.19 20.51 68.56 18.91L68.57 18.91L68.50 18.84Q71.10 16.84 75.98 16.65L75.89 16.56L78.56 16.49L78.61 16.55Q81.63 16.37 85.06 16.78L85.18 16.91L85.01 16.74Q88.92 17.37 89.87 20.61L89.80 20.54L89.89 20.63Q88.71 21.39 86.61 23.21ZM87.96 25.37L88.27 25.55L88.23 25.52Q89.41 24.41 91.27 22.43L91.18 22.34L91.23 22.39Q91.00 21.51 90.01 19.80L89.89 19.68L89.93 19.72Q88.69 16.99 84.88 16.34L85.02 16.48L84.98 16.44Q82.96 16.44 78.65 16.13L78.62 16.09L75.83 16.12L75.80 16.10Q70.63 16.29 68.04 18.27L68.15 18.38L68.05 18.28Q66.65 19.89 66.54 22.98L66.69 23.13L66.67 23.11Q66.68 22.66 66.90 28.14L66.96 28.20L66.91 28.14Q66.94 29.50 67.01 32.24L66.93 32.16L67.03 32.26Q67.17 36.66 68.92 38.61L68.82 38.51L69.00 38.68Q69.29 39.43 70.16 40.31L70.08 40.22L70.23 40.37Q73.08 42.19 78.60 42.54L78.63 42.56L81.42 42.66L81.42 42.65Q83.02 42.77 85.04 42.65L85.16 42.78L85.18 42.79Q86.56 42.65 88.65 42.12L88.53 42.00L88.54 42.01Q90.63 41.66 90.60 39.34L90.50 39.24L90.43 39.18Q90.44 37.93 89.37 35.15L89.42 35.20L89.47 35.25Q89.18 34.35 88.65 33.55L88.70 33.60L88.72 33.62Q89.26 33.59 90.44 33.78L90.38 33.72L90.51 33.85Q90.10 30.13 90.14 29.44L90.23 29.53L90.11 29.41Q89.70 29.39 89.28 29.35L89.27 29.34L89.27 29.33Q88.96 29.37 88.58 29.44L88.65 29.52L88.53 29.40Q88.56 28.32 88.64 27.26L88.59 27.21L88.66 27.28Q82.47 27.86 76.18 27.75L76.07 27.64L76.08 27.65Q76.15 28.59 76.15 29.50L76.09 29.44L76.09 31.19L76.11 31.21Q76.46 31.18 76.88 31.14L77.00 31.27L77.06 31.32Q77.35 31.20 77.81 31.20L77.75 31.14L77.73 31.12Q77.88 31.73 77.92 32.23L77.82 32.13L77.82 32.13Q77.86 32.62 77.82 33.11L77.79 33.09L77.85 33.15Q78.89 33.12 79.92 33.08L79.81 32.98L79.81 32.98Q80.84 32.98 81.87 33.01L81.99 33.13L81.96 33.10Q82.91 33.25 83.78 33.63L83.77 33.62L83.91 33.79L83.86 33.75Q84.13 35.39 82.46 36.31L82.39 36.24L82.38 36.22Q80.71 37.15 79.00 37.15L79.08 37.23L79.08 37.23Q75.16 37.15 72.72 35.40L72.80 35.48L72.78 35.46Q71.82 33.44 71.98 30.89L71.83 30.74L71.88 30.80Q72.17 25.97 74.01 23.98L74.12 24.09L74.02 23.98Q75.85 21.97 80.53 21.67L80.52 21.66L80.66 21.79Q84.29 21.54 86.23 23.33L86.18 23.27L86.16 23.26Q86.25 23.39 86.36 23.58L86.45 23.67L86.55 23.65L86.47 23.57Q87.10 24.31 87.67 25.41L87.69 25.43L88.15 25.55Z"/><path fill="#6fe56f" d="M67.31 39.87L67.24 39.80L67.38 39.93Q65.25 39.71 63.24 39.90L63.32 39.98L63.29 39.95Q63.96 34.72 63.96 29.89L63.90 29.83L63.97 29.90Q64.10 25.12 63.45 19.90L63.35 19.80L63.32 19.77Q58.72 19.36 55.52 17.69L55.66 17.82L54.90 16.03L54.78 15.91Q54.61 15.44 54.01 14.23L54.12 14.34L54.04 14.26Q59.17 16.99 65.18 17.18L65.06 17.05L65.14 17.14Q71.04 17.32 76.48 15.27L76.42 15.20L76.46 15.25Q75.80 16.72 75.15 18.55L75.00 18.40L75.14 18.53Q71.44 19.75 67.18 19.94L67.14 19.90L67.24 20.00Q66.89 24.86 66.89 29.81L67.03 29.95L67.07 30.00Q66.92 34.79 67.22 39.78ZM77.07 14.49L77.06 14.48L77.17 14.59Q71.25 16.77 65.04 16.58L65.09 16.64L65.02 16.56Q58.37 16.38 53.27 13.42L53.29 13.44L53.23 13.38Q53.99 14.67 55.28 17.94L55.37 18.02L55.36 18.02Q55.96 18.28 57.22 18.85L57.19 18.82L57.23 18.86Q57.60 19.69 57.94 21.21L57.82 21.08L57.86 21.12Q60.08 21.90 63.12 22.12L63.18 22.19L63.16 22.16Q63.65 25.96 63.65 29.73L63.62 29.71L63.57 29.65Q63.52 34.97 62.72 40.34L62.80 40.42L62.88 40.49Q64.49 40.32 65.02 40.32L65.02 40.32L64.92 40.21Q64.98 40.58 64.92 41.25L64.96 41.29L64.92 41.24Q64.99 42.03 64.99 42.38L64.95 42.34L64.85 42.24Q66.04 42.18 67.56 42.25L67.69 42.37L67.54 42.23Q68.41 42.22 70.24 42.37L70.25 42.39L70.28 42.41Q69.11 37.55 68.99 32.37L69.03 32.41L69.10 32.48Q68.83 27.04 69.37 22.13L69.35 22.11L69.33 22.09Q73.38 21.65 76.54 20.43L76.49 20.37L76.53 20.42Q77.19 17.99 78.21 15.94L78.13 15.85L78.21 15.93Q76.82 16.55 76.02 16.86L76.11 16.95L76.08 16.93Q76.58 15.71 77.15 14.57Z"/><path fill="#bcdb61" d="M19.94 41.59L19.99 41.64L19.96 41.61Q17.85 41.22 15.68 41.07L15.58 40.97L15.55 40.94Q14.12 39.50 11.46 35.66L11.58 35.79L11.62 35.82Q9.31 38.80 6.91 41.24L6.94 41.27L4.91 41.71L4.86 41.66Q3.70 41.76 2.71 42.03L2.68 42.00L2.79 42.11Q7.05 38.07 10.06 33.96L10.03 33.93L9.95 33.85Q6.75 29.73 1.34 24.94L1.25 24.85L1.39 24.98Q3.57 25.68 6.28 26.10L6.26 26.08L6.22 26.04Q9.66 29.14 11.56 31.84L11.60 31.88L11.61 31.89Q13.77 28.88 16.51 26.36L16.40 26.25L16.41 26.26Q19.52 25.98 21.34 25.49L21.23 25.37L21.31 25.45Q16.78 29.11 13.09 33.68L13.11 33.70L13.13 33.72Q16.46 38.34 19.92 41.57ZM22.81 24.74L22.83 24.77L22.69 24.62Q19.79 25.45 16.25 25.79L16.41 25.96L16.34 25.89Q13.45 28.56 11.74 31.03L11.80 31.09L11.70 30.99Q10.79 29.93 9.16 27.96L9.15 27.95L9.07 28.06L9.05 28.04Q8.82 27.92 8.70 27.92L8.71 27.93L8.80 28.01Q7.98 27.12 6.34 25.67L6.39 25.72L6.43 25.76Q2.73 25.11-0.12 23.89L0.00 24.02L-0.12 23.90Q5.50 28.79 9.53 33.93L9.39 33.79L9.41 33.81Q6.20 38.59 1.79 42.89L1.79 42.89L1.67 42.78Q1.88 42.65 5.38 41.81L5.48 41.91L5.53 41.95Q3.86 43.14 2.22 44.47L2.26 44.51L2.33 44.58Q5.56 43.69 8.72 43.50L8.57 43.36L8.55 43.33Q10.95 41.09 12.85 38.35L12.92 38.42L13.00 38.50Q14.38 40.22 15.59 41.40L15.60 41.41L15.57 41.37Q15.63 41.32 15.71 41.40L15.70 41.39L16.02 41.51L16.02 41.51Q17.12 42.47 18.45 43.53L18.50 43.58L18.58 43.66Q22.06 44.09 24.95 45.12L24.99 45.16L25.05 45.22Q18.85 40.73 15.16 35.56L15.24 35.64L15.11 35.51Q18.76 30.47 23.32 26.40L23.38 26.46L23.36 26.43Q22.33 26.70 21.34 26.93L21.38 26.97L19.44 27.51L19.38 27.44Q20.50 26.47 22.67 24.60Z"/></svg>