<svg xmlns="http://www.w3.org/2000/svg" width="150" height="50" viewBox="0,0,150,50"><rect width="100%" height="100%" fill="white"/><path fill="#b958d9" d="M117.97 29.78L117.84 29.65L117.93 29.74Q113.65 29.46 113.08 32.50L113.13 32.55L113.18 32.61Q112.91 33.58 113.10 34.46L113.20 34.56L113.22 34.58Q113.11 35.23 113.57 36.64L113.56 36.63L113.54 36.61Q114.67 39.84 117.98 39.69L118.04 39.74L118.02 39.73Q120.02 39.78 121.35 38.22L121.34 38.21L121.44 38.32Q122.58 36.75 122.58 34.69L122.55 34.66L122.66 34.78Q122.74 34.13 122.59 33.07L122.69 33.17L122.52 33.00Q122.61 32.25 122.19 31.57L122.02 31.39L122.14 31.51Q120.51 29.84 117.92 29.73ZM122.82 48.26L122.72 48.16L122.81 48.24Q120.92 48.76 112.85 49.14L112.86 49.15L112.78 49.06Q111.23 49.27 109.59 48.43L109.57 48.41L109.51 48.35Q110.35 47.40 112.18 45.61L112.11 45.54L112.12 45.56Q114.64 46.70 116.74 46.51L116.65 46.43L116.77 46.54Q119.53 46.15 120.37 45.88L120.36 45.87L120.44 45.96Q122.71 45.29 122.71 43.50L122.70 43.50L122.74 43.53Q122.74 43.30 122.66 43.07L122.56 42.97L122.58 41.51L122.55 41.48Q122.51 40.68 122.51 39.88L122.57 39.94L122.43 39.79Q121.16 42.14 117.77 42.14L117.73 42.10L117.78 42.15Q113.79 42.05 112.16 39.84L112.28 39.96L112.12 39.80Q111.19 38.45 110.39 34.04L110.39 34.04L110.21 33.86Q109.99 32.42 109.99 31.01L110.09 31.11L109.98 31.00Q109.89 29.13 110.81 28.14L110.92 28.25L110.94 28.27Q112.54 26.79 117.19 26.79L117.21 26.81L119.05 27.09L118.95 26.99Q122.22 27.40 123.55 29.34L123.45 29.24L123.59 29.39Q123.65 28.42 124.07 26.78L124.17 26.88L124.21 26.92Q126.00 26.50 127.75 25.78L127.69 25.72L127.68 25.71Q125.04 31.83 125.04 39.06L125.06 39.08L125.00 39.02Q124.98 41.66 125.36 44.29L125.37 44.30L125.38 44.31Q125.56 44.98 125.48 45.67L125.58 45.76L125.55 45.73Q125.42 47.16 124.20 47.92L124.16 47.89L124.16 47.89Q123.57 48.05 122.73 48.17ZM125.78 51.18L125.82 51.22L125.84 51.24Q127.22 51.21 127.98 50.26L127.97 50.25L128.00 50.28Q128.39 49.37 128.27 48.65L128.27 48.65L128.28 48.65Q128.05 47.89 127.86 47.13L127.91 47.18L127.98 47.25Q126.66 41.93 127.00 36.68L127.07 36.75L126.97 36.65Q127.48 31.37 129.61 26.54L129.49 26.41L127.40 27.37L127.41 27.38Q127.57 26.70 127.79 26.13L127.82 26.15L128.37 25.07L128.32 25.01Q126.04 26.05 123.83 26.47L123.91 26.54L123.84 26.48Q123.54 27.35 123.39 28.38L123.41 28.40L123.45 28.45Q121.25 26.43 117.21 26.43L117.24 26.46L115.43 26.40L115.37 26.34Q112.20 26.41 110.53 27.82L110.59 27.88L110.62 27.91Q109.63 28.83 109.67 30.73L109.59 30.65L109.73 30.79Q109.82 33.31 110.84 37.57L110.74 37.47L110.76 37.49Q111.13 39.31 112.35 40.72L112.36 40.72L112.67 41.04L112.69 41.06L112.78 41.15Q113.85 43.40 116.44 43.93L116.60 44.09L116.42 43.91Q117.90 44.29 119.34 44.32L119.29 44.27L119.34 44.32Q121.18 44.45 122.25 44.07L122.19 44.02L122.18 44.00Q121.54 45.53 118.87 45.87L118.85 45.85L118.89 45.89Q117.76 45.98 117.08 45.98L117.21 46.11L116.86 46.14L116.82 46.10Q114.00 46.10 112.33 45.15L112.26 45.08L110.50 46.75L110.59 46.84Q109.78 47.70 108.94 48.65L108.83 48.54L108.88 48.59Q109.87 49.12 110.86 49.31L110.94 49.40L110.01 50.22L110.09 50.30Q112.67 51.24 118.30 51.24L118.36 51.29L118.58 51.29L118.48 51.19Q122.21 51.31 125.79 51.19ZM119.82 32.05L119.91 32.14L119.75 31.98Q121.17 32.03 122.08 32.45L122.06 32.43L121.98 32.34Q122.31 32.98 122.39 33.66L122.37 33.65L122.27 33.54Q122.34 33.88 122.30 34.79L122.20 34.70L122.38 34.87Q122.14 36.61 121.04 37.91L121.16 38.03L121.12 37.99Q120.03 39.49 118.13 39.45L118.10 39.43L118.00 39.33Q116.53 39.23 115.69 38.81L115.74 38.85L115.69 38.81Q115.33 37.68 115.29 36.65L115.35 36.71L115.29 36.66Q115.14 32.28 119.75 31.98Z"/><path fill="#6283e3" d="M134.69 39.75L134.83 39.88L132.81 39.80L132.86 39.86Q131.99 39.94 131.04 40.05L131.04 40.06L131.01 40.03Q131.55 33.79 131.55 29.79L131.55 29.79L131.52 29.75Q127.58 23.12 119.93 14.44L120.00 14.51L119.94 14.45Q121.65 15.36 125.00 16.16L125.11 16.27L124.99 16.15Q130.02 21.71 133.03 26.93L133.10 27.00L133.18 27.08Q136.09 21.42 140.47 16.40L140.51 16.45L140.53 16.46Q143.00 16.11 145.51 15.31L145.33 15.14L145.33 15.13Q139.30 21.25 134.43 29.66L134.42 29.65L134.57 29.80Q134.48 36.76 134.79 39.84ZM143.82 17.21L146.57 14.39L146.53 14.35Q143.42 15.51 140.30 15.97L140.48 16.14L140.35 16.02Q136.22 20.84 133.41 25.94L133.38 25.91L133.34 25.87Q131.24 22.24 128.04 18.36L128.08 18.40L127.94 18.26Q127.79 18.38 127.29 18.30L127.24 18.25L127.29 18.30Q126.66 17.55 125.14 15.88L125.07 15.81L124.97 15.71Q121.70 15.06 118.73 13.50L118.71 13.49L118.63 13.41Q126.50 22.04 131.26 29.96L131.08 29.77L131.14 29.84Q130.98 36.11 130.37 40.26L130.51 40.40L130.55 40.44Q131.16 40.29 132.60 40.17L132.68 40.25L132.63 41.22L132.75 41.35Q132.66 41.72 132.59 42.25L132.53 42.19L132.65 42.31Q136.18 42.30 137.93 42.49L137.85 42.41L137.80 42.35Q136.53 37.66 136.42 31.69L136.57 31.84L136.52 31.79Q140.86 23.31 147.41 15.96L147.48 16.02L143.84 17.22Z"/><path d="M19 37 C62 11,81 36,137 23" stroke="#59d899" fill="none"/><path fill="#7a57e4" d="M48.09 30.62L48.11 30.63L48.06 30.59Q48.03 30.56 51.42 30.52L51.47 30.57L51.59 30.69Q53.76 30.58 54.83 30.62L54.71 30.50L54.91 30.69Q53.80 27.76 51.36 22.12L51.29 22.05L51.36 22.13Q50.81 23.55 49.76 26.41L49.64 26.28L49.70 26.35Q48.63 29.18 48.06 30.59ZM55.98 33.14L56.00 33.16L55.89 33.05Q53.58 32.98 51.37 33.02L51.48 33.13L51.54 33.19Q49.29 33.23 47.01 33.42L46.87 33.28L46.86 33.27Q45.46 36.82 42.22 41.00L42.26 41.04L42.19 40.97Q39.59 41.57 38.22 42.06L38.13 41.97L38.21 42.06Q43.38 36.45 48.07 23.09L47.96 22.99L48.00 23.03Q49.16 19.51 50.53 16.27L50.63 16.36L50.62 16.36Q50.99 16.42 51.33 16.42L51.26 16.35L52.13 16.49L52.09 16.46Q52.82 17.80 57.66 29.45L57.54 29.33L57.51 29.30Q60.94 37.30 64.94 41.45L64.94 41.45L64.85 41.36Q64.39 41.28 60.50 40.40L60.39 40.29L60.55 40.45Q57.98 37.31 56.00 33.16ZM60.40 40.72L60.31 40.63L61.04 40.86L60.90 40.72Q61.33 40.93 61.64 41.04L61.63 41.04L61.60 41.00Q61.80 41.25 63.63 43.26L63.68 43.32L63.71 43.34Q67.37 44.26 69.77 45.29L69.65 45.17L69.78 45.30Q64.23 40.70 60.23 32.71L60.19 32.67L60.23 32.70Q58.69 29.49 57.24 25.53L57.09 25.38L54.50 18.03L54.52 18.05Q54.16 18.03 53.93 18.03L53.92 18.02L53.41 18.04L53.32 17.96Q52.99 17.32 52.26 15.95L52.25 15.94L52.21 15.89Q51.76 15.98 51.30 15.94L51.41 16.04L51.25 15.88Q50.97 16.03 50.44 16.03L50.33 15.92L50.39 15.98Q48.96 19.88 45.08 30.04L45.04 30.00L44.99 29.95Q42.02 38.07 37.38 42.86L37.31 42.79L37.21 42.69Q38.25 42.29 40.27 41.68L40.30 41.71L40.38 41.79Q39.62 42.66 38.06 44.45L37.92 44.32L38.07 44.47Q39.65 43.68 43.57 42.92L43.70 43.05L43.73 43.08Q47.14 38.72 48.70 35.49L48.59 35.38L48.69 35.48Q50.42 35.34 52.74 35.38L52.67 35.31L52.66 35.30Q55.47 35.41 56.84 35.48L56.83 35.47L56.75 35.39Q58.14 37.89 60.50 40.82ZM52.60 25.96L52.65 26.00L52.69 26.05Q53.62 28.19 54.38 30.28L54.33 30.23L51.04 30.26L51.01 30.22Q51.68 28.88 52.75 26.10Z"/><path fill="#d65151" d="M39.02 40.18L38.97 40.13L39.05 40.21Q37.20 40.15 35.53 40.72L35.56 40.75L35.50 40.69Q36.06 37.10 36.17 33.98L36.04 33.85L36.15 33.96Q36.18 30.83 35.95 27.18L35.94 27.17L36.05 27.28Q34.53 26.78 33.77 26.40L33.94 26.57L33.44 23.44L33.48 23.48Q34.33 24.22 35.92 24.79L35.92 24.78L35.76 24.62Q35.59 22.54 35.17 19.80L35.23 19.86L35.11 19.75Q37.49 20.53 39.13 20.37L39.12 20.37L39.07 25.04L39.01 24.98Q40.40 24.89 41.74 24.39L41.68 24.34L41.74 24.40Q41.64 25.25 41.41 27.00L41.52 27.10L41.42 27.00Q40.02 27.47 38.99 27.47L38.86 27.35L38.85 27.33Q39.01 29.66 39.01 33.92L38.96 33.88L38.87 33.78Q38.96 38.02 39.04 40.19ZM42.14 23.81L42.24 23.91L42.14 23.81Q41.80 23.85 41.19 24.08L41.24 24.12L41.61 21.34L41.58 21.31Q40.80 21.62 39.39 21.85L39.36 21.82L39.36 21.82Q39.37 21.15 39.53 19.78L39.62 19.88L39.63 19.89Q39.00 19.94 38.43 19.94L38.37 19.89L38.46 19.98Q36.32 19.97 34.69 19.25L34.74 19.30L34.64 19.20Q35.06 21.60 35.33 24.08L35.47 24.22L35.33 24.08Q34.54 23.82 33.01 22.79L33.06 22.83L33.04 22.82Q33.36 24.09 33.59 26.79L33.61 26.81L33.52 26.73Q34.12 27.09 35.30 27.51L35.17 27.38L35.24 27.45Q35.25 28.07 35.29 29.48L35.38 29.57L35.70 29.55L35.83 29.60L35.75 29.53Q35.77 30.72 35.77 31.90L35.89 32.02L35.79 31.92Q35.91 36.99 35.11 41.33L35.12 41.34L35.12 41.34Q35.20 41.12 37.15 40.59L37.16 40.61L37.25 40.70Q37.18 41.27 37.06 42.64L37.15 42.72L37.18 42.76Q37.90 42.60 38.70 42.60L38.68 42.58L38.68 42.58Q40.49 42.68 42.13 43.25L42.03 43.15L42.02 43.14Q40.75 37.49 40.94 29.58L40.85 29.48L43.28 29.14L43.33 29.18Q43.33 28.19 43.40 27.16L43.38 27.14L43.68 25.24L43.68 25.23Q43.02 25.41 41.84 25.87L41.83 25.85L41.80 25.83Q42.26 24.65 42.18 24.31L42.04 24.17L42.20 24.33Q42.14 24.08 42.22 23.89Z"/><path fill="#86e8d0" d="M61.83 37.01L61.78 36.96L61.70 36.88Q62.94 37.89 64.35 37.74L64.35 37.74L64.22 37.61Q67.18 37.83 67.83 34.48L67.88 34.54L67.95 34.61Q68.49 31.38 68.49 27.99L68.50 27.99L68.57 25.47L68.40 25.31Q68.38 24.03 68.04 22.78L68.10 22.84L68.05 22.79Q66.86 25.14 64.88 29.89L65.02 30.04L64.92 29.94Q62.98 34.74 61.76 36.94ZM66.73 20.41L66.79 20.46L66.78 20.45Q65.70 19.72 64.37 19.72L64.38 19.72L64.27 19.62Q62.82 19.50 61.71 20.41L61.75 20.45L61.79 20.48Q60.69 21.41 60.50 22.89L60.42 22.81L60.39 22.78Q60.14 24.25 60.11 25.73L60.10 25.72L60.03 25.66Q60.07 25.70 60.07 28.56L60.06 28.55L59.96 28.44Q60.01 30.85 60.47 34.47L60.55 34.55L60.41 34.42Q62.44 29.78 66.82 20.49ZM68.35 39.27L68.36 39.28L68.30 39.22Q66.51 40.09 64.18 40.09L64.32 40.23L62.53 40.07L62.53 40.07Q59.29 40.07 58.15 38.35L58.29 38.50L58.23 38.43Q57.37 36.21 57.29 33.27L57.45 33.43L57.30 33.29Q57.38 31.65 57.30 28.18L57.18 28.06L57.21 28.09Q57.23 26.93 57.07 23.88L57.09 23.90L57.00 23.81Q56.88 21.48 57.18 19.50L57.36 19.67L57.20 19.52Q57.87 16.76 62.21 16.53L62.13 16.45L62.05 16.37Q62.84 16.36 64.17 16.40L64.24 16.47L64.29 16.52Q69.96 16.66 71.02 20.13L70.98 20.09L71.03 20.13Q71.56 21.96 71.52 23.83L71.47 23.78L71.43 23.73Q71.43 28.79 71.35 30.01L71.42 30.08L71.37 30.03Q71.13 33.79 70.83 35.08L70.90 35.16L70.92 35.17Q70.25 38.27 68.34 39.26ZM73.33 39.07L73.22 38.96L73.33 39.07Q73.57 36.31 73.53 34.52L73.52 34.50L73.29 29.75L73.29 29.74Q73.40 26.92 72.86 21.40L72.70 21.23L72.78 21.31Q72.23 19.47 70.94 18.71L70.93 18.70L71.01 18.78Q69.39 16.17 64.21 16.02L64.22 16.03L64.29 16.10Q63.36 16.01 62.03 16.05L61.92 15.93L62.08 16.10Q57.44 16.06 56.94 19.18L56.97 19.21L56.97 19.21Q56.62 21.57 56.74 23.66L56.67 23.59L56.64 23.56Q56.96 27.92 56.92 31.27L56.93 31.27L57.06 31.41Q56.96 35.04 57.07 36.06L57.01 36.00L57.14 36.13Q57.38 39.07 58.90 39.87L58.92 39.89L59.02 39.99Q60.54 42.23 64.54 42.50L64.51 42.47L64.46 42.42Q68.05 42.66 68.70 42.63L68.79 42.72L68.65 42.57Q71.52 42.44 72.66 40.84L72.68 40.85L72.76 40.93Q73.12 40.12 73.20 38.94ZM64.57 37.20L64.69 37.32L64.76 37.39Q65.28 35.78 66.35 33.08L66.48 33.21L68.11 28.90L68.04 28.83Q68.11 30.58 67.73 33.93L67.64 33.84L67.68 33.88Q67.09 36.83 64.69 37.32ZM62.78 25.09L62.59 24.90L62.70 25.02Q63.10 23.16 63.78 22.59L63.76 22.58L63.75 22.56Q64.24 22.17 65.53 21.98L65.54 21.99L65.52 21.97Q63.80 25.62 61.93 30.26L62.05 30.38L62.01 30.34Q62.10 27.72 62.78 25.10Z"/><path d="M13 2 C75 14,74 49,133 22" stroke="#e0e042" fill="none"/><path d="M11 39 C72 36,63 8,143 43" stroke="#8ce8e8" fill="none"/><path fill="#bfe943" d="M24.12 40.18L24.10 40.16L21.64 33.24L21.65 33.25Q17.28 20.66 11.34 14.26L11.38 14.31L11.49 14.41Q13.35 15.32 15.94 15.93L16.11 16.10L16.06 16.05Q21.17 22.31 25.51 35.06L25.56 35.11L25.48 35.03Q28.50 26.89 29.18 25.29L29.26 25.37L29.26 25.37Q31.63 19.75 34.45 16.43L34.45 16.44L34.53 16.52Q36.50 16.05 39.12 15.17L39.21 15.26L39.11 15.16Q34.50 19.73 31.46 26.96L31.59 27.09L31.45 26.95Q30.06 30.63 26.37 40.14L26.50 40.28L26.33 40.11Q25.83 40.17 25.26 40.14L25.28 40.16L25.28 40.16Q24.69 40.14 24.12 40.18ZM29.22 42.69L29.18 42.65L29.06 42.53Q31.99 32.67 33.55 28.64L33.54 28.62L33.43 28.51Q36.44 20.83 40.86 15.96L40.91 16.01L40.83 15.93Q39.97 16.48 37.88 17.20L37.85 17.17L38.97 15.82L38.88 15.73Q39.46 15.05 40.06 14.40L40.04 14.38L40.14 14.48Q37.36 15.50 34.35 16.07L34.31 16.03L34.22 15.94Q29.86 21.29 25.98 32.75L26.03 32.80L25.98 32.75Q22.34 22.64 19.15 18.27L19.12 18.24L19.14 18.26Q18.72 18.14 17.84 17.99L17.85 18.00L18.00 18.14Q17.72 17.71 16.12 15.66L16.02 15.56L16.08 15.62Q13.17 14.96 10.47 13.55L10.33 13.41L10.41 13.49Q16.99 20.52 21.37 33.31L21.34 33.28L21.37 33.31Q22.55 36.93 23.73 40.51L23.77 40.55L23.81 40.59Q24.13 40.61 24.97 40.49L25.10 40.63L25.05 40.57Q25.45 41.32 26.14 42.65L26.12 42.63L26.13 42.65Q27.00 42.60 27.72 42.68L27.62 42.57L27.67 42.62Q28.40 42.63 29.16 42.63Z"/><path fill="#e5a86a" d="M88.60 36.87L88.70 36.98L88.55 36.82Q89.80 37.84 91.21 37.69L91.24 37.72L91.15 37.63Q94.12 37.86 94.76 34.51L94.77 34.51L94.67 34.42Q95.46 31.43 95.46 28.05L95.29 27.88L95.38 25.38L95.41 25.41Q95.29 24.04 94.95 22.78L95.04 22.87L95.09 22.92Q93.73 25.10 91.75 29.86L91.80 29.91L91.81 29.92Q89.95 34.79 88.73 37.00ZM93.72 20.48L93.64 20.41L93.72 20.48Q92.53 19.64 91.20 19.64L91.27 19.71L91.26 19.70Q89.64 19.42 88.54 20.33L88.53 20.32L88.62 20.41Q87.55 21.35 87.36 22.84L87.31 22.79L87.30 22.78Q86.89 24.09 86.86 25.57L86.87 25.59L86.86 25.58Q86.84 25.56 86.84 28.42L86.91 28.48L86.97 28.54Q86.90 30.83 87.35 34.45L87.37 34.47L87.33 34.42Q89.19 29.62 93.57 20.33ZM95.16 39.17L95.15 39.16L95.25 39.26Q93.48 40.16 91.16 40.16L91.11 40.10L89.52 40.15L89.59 40.22Q86.25 40.12 85.11 38.41L85.04 38.34L85.19 38.49Q84.28 36.21 84.20 33.28L84.30 33.37L84.18 33.25Q84.17 31.53 84.09 28.06L84.16 28.13L84.13 28.10Q84.08 26.87 83.92 23.82L83.97 23.86L83.97 23.87Q83.84 21.53 84.14 19.55L84.19 19.59L84.12 19.52Q84.60 16.58 88.94 16.35L89.12 16.53L89.07 16.48Q89.69 16.30 91.02 16.34L91.05 16.37L91.04 16.36Q96.89 16.69 97.95 20.15L97.77 19.96L97.82 20.01Q98.51 22.00 98.47 23.86L98.39 23.78L98.44 23.83Q98.38 28.84 98.31 30.06L98.30 30.05L98.18 29.93Q98.06 33.81 97.75 35.10L97.85 35.19L97.87 35.22Q97.04 38.15 95.13 39.14ZM100.22 39.05L100.17 39.00L100.10 38.94Q100.37 36.19 100.33 34.40L100.39 34.46L100.29 29.83L100.20 29.75Q100.31 26.93 99.78 21.41L99.58 21.21L99.74 21.37Q99.18 19.51 97.89 18.75L97.83 18.69L97.85 18.72Q96.19 16.07 91.02 15.92L91.02 15.92L91.09 15.99Q90.31 16.05 88.98 16.09L88.87 15.97L88.98 16.08Q84.31 16.02 83.82 19.15L83.84 19.17L83.95 19.28Q83.58 21.61 83.69 23.70L83.68 23.69L83.61 23.63Q83.90 27.94 83.86 31.29L83.85 31.29L83.84 31.28Q83.97 35.14 84.09 36.17L83.91 35.99L84.08 36.16Q84.37 39.16 85.90 39.95L85.87 39.93L85.92 39.97Q87.42 42.21 91.42 42.47L91.42 42.47L91.29 42.34Q94.88 42.59 95.53 42.55L95.65 42.67L95.52 42.53Q98.37 42.38 99.52 40.78L99.59 40.86L99.67 40.94Q100.12 40.21 100.20 39.03ZM91.63 37.35L91.54 37.27L91.57 37.29Q92.35 35.94 93.42 33.24L93.42 33.25L94.95 28.84L95.00 28.88Q94.99 30.55 94.61 33.90L94.64 33.92L94.58 33.87Q93.89 36.72 91.49 37.22ZM89.61 25.02L89.55 24.96L89.61 25.01Q90.02 23.18 90.70 22.61L90.71 22.61L90.80 22.71Q91.12 22.15 92.42 21.96L92.53 22.07L92.51 22.06Q90.76 25.67 88.89 30.31L88.91 30.33L88.97 30.39Q88.81 27.53 89.50 24.90Z"/><path fill="#d387ed" d="M113.36 40.40L113.36 40.39L113.33 40.36Q110.43 36.55 107.80 27.91L107.71 27.81L107.70 27.80Q107.12 25.74 106.32 23.60L106.24 23.53L103.44 32.38L103.39 32.33Q101.52 37.19 99.12 40.43L99.15 40.46L99.28 40.59Q98.32 40.54 96.68 40.69L96.66 40.67L96.73 40.74Q96.78 39.49 96.78 38.24L96.86 38.32L96.88 38.35Q96.91 32.35 94.17 26.22L94.00 26.06L94.08 26.14Q90.98 19.27 85.12 14.28L85.17 14.33L85.05 14.22Q87.13 14.85 89.49 15.38L89.63 15.53L89.51 15.40Q98.19 23.85 99.48 34.82L99.60 34.93L99.57 34.91Q101.12 31.50 102.56 26.13L102.55 26.12L102.59 26.16Q104.71 18.80 105.20 17.39L105.16 17.35L107.29 17.23L107.45 17.39Q108.10 19.37 108.74 21.69L108.73 21.68L109.95 26.10L110.02 26.16Q111.54 31.57 112.95 34.81L112.86 34.71L112.93 34.79Q114.60 23.17 122.52 15.82L122.57 15.88L122.54 15.84Q123.99 15.43 126.96 14.78L126.96 14.78L127.09 14.91Q121.75 19.20 118.71 25.33L118.73 25.36L118.70 25.33Q115.58 31.54 115.58 38.31L115.55 38.28L115.62 38.35Q115.49 39.33 115.57 40.47L115.70 40.60L114.42 40.35L114.42 40.35Q113.83 40.29 113.26 40.29ZM119.50 43.18L119.64 43.32L119.55 43.23Q118.35 39.71 118.46 35.82L118.50 35.86L118.47 35.83Q118.83 24.31 128.19 16.05L128.25 16.11L128.10 15.96Q127.11 16.15 125.17 16.68L125.34 16.85L125.18 16.69Q126.24 15.96 128.14 14.17L128.04 14.07L128.04 14.07Q125.39 14.85 122.46 15.35L122.45 15.34L122.46 15.35Q115.04 22.54 113.14 32.02L113.08 31.96L113.06 31.95Q112.61 30.43 109.76 18.98L109.74 18.96L109.63 18.85Q109.20 18.91 108.25 18.91L108.24 18.90L107.93 17.84L107.92 17.83Q107.81 17.29 107.58 16.80L107.77 16.99L104.79 16.90L104.83 16.95Q103.89 19.28 102.62 24.40L102.67 24.45L102.68 24.46Q101.32 29.49 100.33 31.97L100.40 32.04L100.45 32.09Q98.92 24.24 93.36 17.92L93.30 17.86L93.27 17.83Q92.82 17.80 91.87 17.61L91.90 17.64L91.77 17.51Q91.10 16.73 89.54 15.09L89.60 15.15L89.59 15.14Q86.14 14.28 83.97 13.48L83.96 13.47L83.96 13.46Q89.71 18.23 92.99 24.44L93.00 24.45L92.91 24.36Q96.39 31.00 96.39 38.00L96.36 37.98L96.47 38.09Q96.48 39.65 96.29 41.25L96.12 41.09L96.21 41.18Q96.47 41.21 96.93 41.11L96.91 41.09L97.00 41.18Q97.37 41.00 97.60 41.00L97.66 41.07L97.62 42.06L97.50 41.93Q97.60 42.49 97.68 43.02L97.63 42.98L97.57 42.92Q98.76 42.89 101.05 42.74L101.15 42.84L101.18 42.87Q104.77 37.44 107.52 28.04L107.38 27.90L107.42 27.95Q110.14 36.68 113.11 40.64L113.28 40.81L113.16 40.69Q113.76 40.83 114.60 40.95L114.48 40.83L114.46 40.80Q115.32 41.85 116.38 42.92L116.42 42.96L116.37 42.91Q117.11 42.93 119.51 43.19Z"/><path d="M7 19 C75 49,80 48,147 10" stroke="#bc59dd" fill="none"/><path fill="#c97ce3" d="M13.73 39.88L13.63 39.77L11.74 39.83L11.71 39.80Q10.77 39.81 9.82 39.93L9.81 39.91L9.84 39.94Q10.52 33.84 10.52 29.85L10.42 29.75L10.36 29.70Q6.44 23.07-1.21 14.39L-1.25 14.35L-1.22 14.38Q0.66 15.46 4.01 16.26L4.00 16.25L3.87 16.12Q8.93 21.71 11.94 26.93L11.97 26.97L11.97 26.96Q15.05 21.47 19.43 16.45L19.35 16.37L19.36 16.38Q21.81 16.02 24.33 15.22L24.36 15.25L24.35 15.25Q18.20 21.24 13.33 29.65L13.45 29.77L13.45 29.78Q13.45 36.82 13.75 39.90ZM22.71 17.18L25.41 14.33L25.53 14.44Q22.42 15.60 19.30 16.06L19.27 16.02L19.38 16.14Q15.06 20.76 12.24 25.86L12.29 25.91L12.20 25.82Q10.11 22.21 6.91 18.33L6.92 18.34L7.01 18.42Q6.74 18.42 6.24 18.34L6.21 18.31L6.07 18.16Q5.54 17.52 4.02 15.85L4.05 15.89L4.00 15.83Q0.48 14.94-2.49 13.38L-2.46 13.41L-2.34 13.53Q5.35 21.98 10.11 29.90L10.12 29.91L10.01 29.79Q9.98 36.21 9.38 40.36L9.32 40.30L9.45 40.43Q10.14 40.36 11.58 40.24L11.65 40.31L11.63 41.31L11.58 41.26Q11.56 41.70 11.48 42.23L11.50 42.26L11.42 42.17Q15.09 42.30 16.84 42.49L16.85 42.50L16.85 42.50Q15.53 37.75 15.42 31.78L15.47 31.83L15.40 31.76Q19.71 23.24 26.26 15.89L26.25 15.88L22.80 17.27Z"/><path fill="#7ef0d4" d="M76.75 39.93L76.66 39.83L76.67 39.84Q72.61 39.40 70.79 37.96L70.71 37.88L70.64 37.81Q68.83 36.38 68.41 33.37L68.51 33.47L68.52 33.48Q68.49 33.11 68.15 28.36L68.15 28.35L68.01 28.21Q68.25 27.23 68.17 25.98L68.15 25.95L68.20 26.00Q67.93 20.86 70.14 19.11L70.18 19.15L70.09 19.06Q72.86 17.07 80.62 16.39L80.59 16.35L80.55 16.32Q81.81 16.09 83.45 16.13L83.55 16.23L83.49 16.17Q83.44 16.12 86.41 16.12L86.55 16.26L86.51 16.22Q87.30 16.18 89.02 16.33L89.03 16.34L89.11 16.42Q88.65 17.41 87.62 20.49L87.53 20.40L87.58 20.45Q85.33 19.08 82.32 19.08L82.39 19.14L82.34 19.10Q81.64 19.15 80.84 19.23L80.88 19.27L80.87 19.26Q75.83 19.77 73.31 21.75L73.24 21.68L73.29 21.73Q71.21 23.27 71.06 26.62L71.08 26.64L71.16 26.72Q71.04 27.24 71.07 28.50L70.99 28.41L71.10 28.53Q71.27 33.41 73.67 35.51L73.49 35.33L73.52 35.36Q75.73 37.34 80.71 37.64L80.72 37.65L80.78 37.71Q83.78 37.74 86.79 35.95L86.96 36.12L86.97 36.13Q87.50 38.80 88.11 40.17L88.03 40.08L88.16 40.22Q85.98 40.40 84.35 40.36L84.44 40.46L84.27 40.28Q79.79 40.23 76.67 39.85ZM91.91 43.70L91.82 43.61L91.86 43.65Q90.13 40.71 89.45 38.12L89.35 38.02L89.42 38.09Q89.04 38.39 88.05 38.77L88.03 38.76L87.94 38.67Q87.72 37.99 87.53 37.15L87.35 36.97L87.01 35.30L87.06 35.35Q83.88 37.50 80.76 37.38L80.64 37.26L80.77 37.39Q76.32 37.02 74.00 35.27L74.10 35.37L74.14 35.41Q73.01 33.60 73.09 30.67L73.09 30.67L73.02 30.60Q73.14 26.07 75.61 23.94L75.59 23.92L75.59 23.92Q77.77 22.06 82.45 21.45L82.48 21.48L82.48 21.48Q83.29 21.38 84.01 21.38L83.95 21.31L84.04 21.41Q86.80 21.38 88.89 22.91L88.95 22.96L88.79 22.80Q89.44 20.82 90.66 17.59L90.63 17.56L90.57 17.50Q90.40 17.59 89.84 17.54L89.80 17.49L89.75 17.44Q89.13 17.32 88.86 17.32L88.99 17.44L88.86 17.31Q89.04 16.77 89.50 15.78L89.68 15.96L89.52 15.81Q89.39 15.91 86.90 15.83L86.88 15.81L86.82 15.75Q84.29 15.64 83.64 15.68L83.78 15.81L83.74 15.77Q73.27 16.15 69.80 18.74L69.82 18.76L69.68 18.62Q67.72 20.50 67.72 24.42L67.70 24.41L67.81 24.51Q67.78 25.59 67.90 28.29L67.88 28.27L67.91 28.31Q67.88 31.70 68.11 33.42L68.16 33.46L68.25 33.55Q68.59 36.64 70.19 38.16L70.22 38.19L70.16 38.13Q70.61 38.77 71.87 39.91L71.95 40.00L71.93 39.97Q75.20 41.76 80.45 42.52L80.37 42.44L80.47 42.54Q86.80 43.39 91.79 43.58Z"/><path d="M15 49 C77 48,83 8,135 17" stroke="#eac147" fill="none"/></svg>