<svg xmlns="http://www.w3.org/2000/svg" width="150" height="50" viewBox="0,0,150,50"><rect width="100%" height="100%" fill="white"/><path d="M8 24 C77 22,73 34,137 43" stroke="#e8e862" fill="none"/><path d="M17 12 C93 38,56 35,140 25" stroke="#de3fb6" fill="none"/><path d="M15 43 C76 14,60 37,140 4" stroke="#e68de6" fill="none"/><path fill="#8eebd3" d="M22.39 23.42L22.32 23.36L22.31 23.34Q19.19 23.43 17.36 22.36L17.27 22.27L17.38 22.38Q19.92 21.04 24.79 16.81L24.71 16.73L24.71 16.72Q25.43 16.53 26.72 15.92L26.69 15.89L26.81 16.01Q25.36 21.83 25.25 28.19L25.27 28.22L25.31 28.25Q25.18 34.59 26.25 40.69L26.29 40.73L26.19 40.63Q24.49 39.88 22.36 39.76L22.52 39.93L22.45 39.86Q22.30 35.67 22.30 31.60L22.32 31.62L22.40 31.70Q22.40 27.58 22.44 23.47ZM21.89 25.55L22.01 40.26L22.03 40.27Q23.21 40.24 24.16 40.43L24.13 40.40L24.15 40.41Q24.24 41.12 24.44 42.49L24.46 42.51L24.34 42.39Q27.36 43.10 29.80 45.34L29.76 45.30L29.63 45.17Q27.26 38.15 27.22 30.69L27.23 30.71L27.23 30.70Q27.15 23.24 28.97 16.00L28.99 16.02L29.02 16.05Q28.50 16.48 26.90 17.58L26.74 17.43L26.75 17.43Q27.00 16.73 27.30 15.21L27.39 15.30L27.32 15.23Q25.98 15.98 24.53 16.36L24.47 16.29L24.59 16.42Q20.72 19.89 16.42 22.18L16.48 22.24L16.36 22.12Q17.86 23.31 20.22 23.66L20.17 23.61L20.29 23.73Q19.56 24.17 18.26 25.24L18.26 25.23L18.28 25.26Q19.77 25.64 21.97 25.64L21.88 25.55Z"/><path fill="#e5b584" d="M45.12 25.09L45.01 24.98L45.12 25.09Q45.92 25.35 47.90 25.35L47.89 25.35L48.01 32.62L47.88 32.50Q48.05 36.89 48.16 39.78L48.17 39.78L48.15 39.77Q47.71 39.56 47.33 39.56L47.46 39.69L47.30 39.53Q45.96 39.63 44.51 40.97L44.40 40.85L44.45 40.90Q45.27 33.31 45.08 25.04ZM45.22 19.86L43.91 17.02L44.03 17.15Q45.48 16.01 46.20 15.05L46.21 15.07L46.32 15.17Q47.33 16.98 48.74 18.65L48.77 18.69L48.68 18.59Q47.84 20.08 46.47 22.21L46.64 22.38L46.49 22.23Q45.80 21.20 45.23 19.87L45.13 19.77ZM43.98 41.84L43.91 41.77L43.99 41.85Q44.91 40.68 46.17 40.19L46.17 40.19L46.13 40.14Q46.16 40.86 46.05 42.23L46.14 42.33L46.10 42.29Q46.81 42.09 47.46 42.09L47.38 42.00L47.43 42.05Q49.62 42.04 51.03 44.02L51.07 44.06L50.96 43.95Q49.74 36.64 49.82 26.47L49.96 26.62L49.88 26.54Q49.08 26.69 48.25 26.81L48.37 26.93L48.26 24.95L48.33 25.03Q47.27 25.10 46.47 25.03L46.34 24.90L46.52 25.08Q45.55 24.87 44.67 24.37L44.66 24.36L44.78 24.48Q44.86 26.47 44.86 28.52L44.79 28.45L44.87 28.54Q44.92 35.62 44.05 41.91ZM46.58 22.93L46.60 22.96L46.61 22.58L46.77 22.44L46.74 22.41Q47.28 23.33 48.31 24.81L48.34 24.85L48.36 24.86Q49.67 22.48 51.00 18.94L50.98 18.92L50.99 18.93Q49.98 18.03 48.42 16.43L48.48 16.50L48.53 16.55Q48.35 16.67 48.08 17.13L47.99 17.03L48.07 17.11Q47.03 15.77 46.12 14.32L46.18 14.39L46.12 14.33Q44.88 16.17 43.70 16.51L43.57 16.38L43.70 16.51Q44.68 19.85 46.51 22.86Z"/><path fill="#eac451" d="M69.69 24.99L69.70 25.01L69.72 25.02Q70.54 25.31 72.52 25.31L72.54 25.33L72.67 32.62L72.63 32.58Q72.76 36.93 72.87 39.82L72.84 39.79L72.73 39.68Q72.34 39.52 71.96 39.52L72.03 39.59L71.99 39.55Q70.71 39.72 69.26 41.05L69.19 40.98L69.13 40.91Q69.94 33.31 69.75 25.05ZM69.72 19.70L68.62 17.07L68.62 17.06Q70.29 16.15 71.01 15.20L70.91 15.09L70.97 15.15Q71.92 16.91 73.33 18.58L73.46 18.71L73.36 18.61Q72.50 20.07 71.13 22.21L71.29 22.37L71.25 22.32Q70.33 21.07 69.76 19.73L69.85 19.82ZM68.57 41.76L68.58 41.77L68.65 41.85Q69.64 40.74 70.89 40.24L70.83 40.18L70.91 40.26Q70.84 40.87 70.73 42.25L70.80 42.32L70.70 42.22Q71.53 42.14 72.18 42.14L72.17 42.12L72.01 41.97Q74.29 42.04 75.70 44.02L75.78 44.10L75.79 44.11Q74.55 36.78 74.62 26.61L74.61 26.60L74.49 26.48Q73.68 26.62 72.84 26.73L73.02 26.91L72.92 24.95L72.85 24.88Q71.98 25.15 71.18 25.07L71.09 24.98L71.12 25.02Q70.18 24.83 69.30 24.34L69.44 24.48L69.38 24.41Q69.55 26.49 69.55 28.55L69.43 28.42L69.55 28.54Q69.52 35.56 68.64 41.84ZM71.15 22.83L71.22 22.91L71.41 22.72L71.56 22.56L71.45 22.45Q71.95 23.33 72.98 24.82L72.99 24.82L72.98 24.82Q74.18 22.33 75.51 18.79L75.54 18.81L75.60 18.87Q74.82 18.21 73.26 16.61L73.11 16.46L73.08 16.43Q72.93 16.58 72.66 17.04L72.81 17.19L72.65 17.02Q71.77 15.84 70.86 14.39L70.95 14.49L70.82 14.36Q69.45 16.08 68.27 16.42L68.37 16.52L68.24 16.39Q69.36 19.86 71.18 22.87Z"/><path fill="#e433b8" d="M94.96 28.64L94.86 28.54L95.03 28.71Q92.17 28.67 91.41 30.92L91.40 30.91L91.43 30.93Q91.11 31.56 90.99 32.21L90.94 32.16L90.98 32.20Q93.54 32.36 95.18 32.36L95.28 32.46L95.22 32.41Q96.94 32.48 99.53 32.37L99.43 32.27L99.42 32.26Q99.41 30.66 98.00 29.59L97.89 29.48L98.01 29.60Q96.72 28.61 94.93 28.61ZM95.03 41.19L95.01 41.17L95.06 41.23Q90.73 41.13 89.44 39.72L89.45 39.73L89.44 39.72Q88.59 38.37 88.43 35.10L88.44 35.10L88.34 35.00Q88.36 34.79 88.28 33.42L88.35 33.49L88.31 33.45Q88.08 31.05 88.08 30.33L88.22 30.47L88.26 30.50Q88.17 28.56 88.90 27.45L88.82 27.37L88.84 27.39Q90.30 26.03 93.27 26.03L93.19 25.96L94.83 26.04L94.83 26.04Q96.91 26.06 98.44 26.37L98.31 26.25L98.43 26.36Q100.40 26.73 101.39 27.95L101.54 28.11L101.50 28.06Q102.09 29.10 102.16 31.20L102.11 31.15L102.10 31.14Q102.06 32.24 102.10 34.41L102.08 34.39L102.12 34.43Q99.34 34.54 96.56 34.54L96.49 34.47L90.92 34.50L90.84 34.42Q91.04 38.88 95.11 38.65L95.20 38.74L95.10 38.64Q98.90 38.49 100.12 36.66L100.07 36.60L100.05 36.59Q101.06 37.25 102.66 38.43L102.67 38.45L102.55 38.33Q101.24 40.79 97.09 41.05L97.12 41.08L97.06 41.02Q96.36 41.08 94.99 41.15ZM97.41 43.62L97.29 43.49L97.35 43.56Q98.44 43.50 99.65 43.58L99.67 43.59L99.63 43.55Q104.63 43.76 105.55 40.98L105.44 40.87L105.49 40.92Q103.82 39.63 102.72 38.87L102.73 38.89L102.84 38.99Q102.90 38.48 103.09 38.25L103.23 38.40L103.11 38.27Q102.47 37.90 101.10 36.95L101.09 36.94L100.98 36.83Q102.19 37.02 104.25 37.32L104.20 37.27L104.22 37.29Q103.95 35.84 103.87 35.15L103.96 35.24L103.78 33.27L103.74 33.24Q103.56 30.85 102.92 29.36L103.00 29.45L102.97 29.42Q102.71 29.08 102.13 28.47L102.11 28.44L102.24 28.57Q102.01 28.19 101.78 27.62L101.80 27.64L101.74 27.58Q99.97 25.66 94.91 25.66L94.88 25.63L93.07 25.50L93.19 25.61Q89.89 25.55 88.44 27.03L88.50 27.09L88.52 27.11Q87.87 28.25 87.91 30.31L87.85 30.25L87.81 30.21Q87.82 31.14 87.94 33.38L88.09 33.53L88.03 33.48Q88.13 35.10 88.25 37.16L88.19 37.10L88.12 37.03Q88.41 39.30 89.28 40.36L89.34 40.42L89.25 40.33Q89.49 40.56 89.68 40.68L89.70 40.70L89.98 41.32L89.96 41.31Q90.82 43.23 97.40 43.61ZM95.13 38.25L95.22 38.34L95.18 38.30Q93.99 38.37 93.08 37.91L93.11 37.94L93.07 37.91Q93.02 37.51 92.83 36.83L92.91 36.90L92.93 36.93Q94.60 36.81 96.20 36.81L96.13 36.74L96.24 36.85Q97.80 36.73 99.47 36.85L99.44 36.81L99.54 36.92Q98.26 38.26 95.25 38.37ZM96.86 31.00L96.81 30.95L96.81 30.95Q97.47 30.99 98.80 31.37L98.89 31.46L98.92 31.69L98.95 31.91L99.11 32.06Q97.64 32.09 96.73 32.05L96.68 32.00L96.71 32.03Q94.36 31.92 94.32 31.92L94.38 31.98L94.39 31.99Q95.16 31.08 96.83 30.97Z"/><path fill="#3ee467" d="M124.64 30.82L124.78 30.96L124.70 30.88Q124.74 29.39 123.92 28.48L123.95 28.51L123.99 28.55Q123.11 27.57 121.66 27.61L121.75 27.70L121.66 27.61Q119.41 27.76 118.57 29.89L118.61 29.92L118.49 29.81Q118.32 30.70 118.28 31.39L118.15 31.26L118.34 31.45Q117.94 36.11 117.03 40.45L117.14 40.56L117.04 40.47Q115.48 41.12 113.62 42.11L113.53 42.02L113.56 42.05Q115.93 35.16 115.66 27.85L115.51 27.70L115.62 27.81Q115.27 20.38 112.72 13.56L112.65 13.50L112.82 13.67Q114.56 14.95 116.58 15.64L116.52 15.58L116.48 15.54Q118.07 21.47 118.26 27.33L118.22 27.29L118.15 27.22Q119.58 25.18 122.28 25.26L122.27 25.25L122.29 25.27Q127.28 25.27 127.39 30.64L127.47 30.71L127.44 30.69Q127.60 36.41 128.97 41.05L128.98 41.05L128.95 41.03Q127.16 40.27 125.41 40.08L125.31 39.97L125.29 39.96Q124.78 36.71 124.67 30.84ZM124.99 40.30L125.09 40.40L125.12 40.43Q126.02 40.42 127.13 40.69L127.20 40.76L127.22 40.78Q127.21 40.89 127.75 42.87L127.68 42.81L127.81 42.93Q130.75 43.85 132.77 45.30L132.77 45.31L132.73 45.27Q130.02 39.47 129.49 33.15L129.57 33.23L129.47 33.14Q129.13 29.41 127.72 27.85L127.81 27.94L127.82 27.94Q127.67 27.72 127.02 27.26L127.15 27.39L127.12 27.36Q126.91 26.88 126.26 26.12L126.16 26.02L126.24 26.02L126.28 26.06Q125.38 25.16 122.26 24.90L122.20 24.83L122.24 24.87Q121.48 24.84 120.07 25.18L120.22 25.33L120.16 25.27Q119.90 20.37 119.56 17.86L119.56 17.85L119.58 17.88Q118.82 17.77 117.34 17.46L117.43 17.56L117.25 17.38Q117.11 16.67 116.85 15.18L116.84 15.18L116.86 15.19Q113.95 14.27 112.09 12.70L112.01 12.63L112.16 12.78Q115.01 19.82 115.28 27.62L115.33 27.68L115.22 27.57Q115.66 35.50 113.11 42.85L113.01 42.76L113.10 42.85Q113.95 42.17 115.10 41.68L115.11 41.69L114.31 43.90L114.47 44.06Q117.54 42.68 119.52 42.49L119.44 42.41L119.44 42.41Q120.10 37.09 120.29 33.13L120.14 32.98L120.25 33.09Q120.33 31.23 122.27 30.13L122.25 30.11L122.30 30.15Q122.78 29.87 123.32 29.91L123.26 29.86L123.31 29.90Q123.37 29.81 123.71 29.85L123.86 30.00L124.31 30.11L124.26 30.06Q124.25 30.43 124.36 30.88L124.47 30.99L124.37 30.89Q124.46 36.84 124.95 40.27Z"/></svg>