<svg xmlns="http://www.w3.org/2000/svg" width="150" height="50" viewBox="0,0,150,50"><rect width="100%" height="100%" fill="white"/><path d="M20 48 C58 28,57 4,133 39" stroke="#ec87d3" fill="none"/><path fill="#cee881" d="M95.80 40.10L95.82 40.13L93.58 33.43L93.48 33.33Q89.15 20.78 83.21 14.38L83.15 14.32L83.08 14.25Q85.10 15.32 87.69 15.93L87.76 15.99L87.79 16.02Q92.92 22.30 97.26 35.05L97.24 35.03L97.22 35.01Q100.33 26.97 101.01 25.37L101.08 25.44L100.99 25.35Q103.34 19.70 106.16 16.39L106.27 16.50L106.30 16.53Q108.20 15.99 110.83 15.12L110.97 15.26L110.88 15.17Q106.35 19.81 103.30 27.04L103.26 27.01L103.21 26.95Q101.78 30.59 98.09 40.11L98.19 40.21L98.21 40.22Q97.59 40.18 97.02 40.14L97.12 40.24L97.07 40.19Q96.41 40.10 95.84 40.14ZM100.83 42.55L100.85 42.57L100.88 42.59Q103.62 32.55 105.19 28.51L105.25 28.58L105.20 28.53Q108.20 20.82 112.61 15.95L112.74 16.08L112.73 16.07Q111.64 16.38 109.54 17.11L109.56 17.12L110.63 15.73L110.66 15.75Q111.30 15.14 111.91 14.49L111.84 14.42L111.81 14.38Q109.07 15.46 106.06 16.03L105.98 15.94L105.98 15.95Q101.68 21.35 97.80 32.81L97.77 32.78L97.85 32.86Q94.16 22.70 90.96 18.32L91.01 18.37L91.03 18.39Q90.63 18.30 89.76 18.15L89.71 18.10L89.61 18.00Q89.46 17.70 87.87 15.65L87.78 15.56L87.89 15.67Q84.85 14.88 82.15 13.47L82.19 13.51L82.13 13.45Q88.74 20.52 93.12 33.31L93.11 33.30L93.12 33.31Q94.32 36.94 95.50 40.52L95.67 40.70L95.60 40.63Q96.02 40.74 96.86 40.63L96.73 40.50L96.84 40.61Q97.15 41.26 97.83 42.59L97.81 42.57L97.89 42.65Q98.68 42.53 99.41 42.60L99.35 42.55L99.31 42.51Q100.24 42.71 101.00 42.71Z"/><path fill="#ba8ae9" d="M112.16 38.88L112.16 38.88L112.31 39.03Q114.01 36.47 118.77 29.20L118.88 29.30L118.92 29.35Q122.95 23.13 125.81 19.86L125.70 19.75L125.74 19.79Q123.69 20.14 121.60 20.14L121.66 20.20L121.59 20.13Q116.32 20.11 112.32 18.32L112.37 18.38L112.41 18.42Q111.69 16.44 111.01 14.88L110.90 14.78L110.98 14.85Q115.62 17.09 121.29 17.21L121.10 17.02L121.25 17.17Q126.27 17.12 131.45 15.22L131.55 15.33L131.51 15.28Q131.09 16.08 130.78 16.88L130.82 16.91L130.26 18.53L130.30 18.56Q127.19 22.16 123.19 27.98L123.11 27.90L119.89 32.82L119.88 32.82Q118.19 35.23 116.36 37.52L116.27 37.43L116.41 37.56Q119.59 36.83 122.90 36.90L123.05 37.05L122.94 36.94Q126.42 37.18 129.57 38.09L129.58 38.10L130.08 39.70L129.97 39.59Q130.17 40.36 130.51 41.20L130.49 41.18L130.52 41.21Q125.89 39.66 120.75 39.85L120.66 39.76L120.72 39.82Q115.73 40.16 111.24 42.18L111.14 42.08L111.22 42.16Q111.58 41.07 112.30 39.02ZM110.58 42.82L110.49 42.73L110.54 42.77Q111.85 42.26 112.65 41.99L112.58 41.93L112.63 41.97Q112.39 42.76 111.70 44.28L111.58 44.16L111.54 44.12Q117.31 42.05 123.29 42.28L123.33 42.31L123.21 42.19Q129.61 42.51 134.63 45.28L134.59 45.24L134.63 45.28Q133.32 42.98 132.52 40.81L132.45 40.74L132.48 40.77Q132.00 40.56 130.48 39.99L130.42 39.93L130.49 40.00Q130.26 39.20 129.84 37.72L129.90 37.77L129.76 37.64Q125.62 36.46 120.52 36.65L120.47 36.60L120.64 36.77Q122.63 33.89 126.17 28.33L126.13 28.29L126.19 28.35Q129.78 22.58 131.69 20.03L131.79 20.13L131.70 20.04Q132.25 18.69 133.28 15.99L133.28 15.99L133.41 16.11Q132.54 16.28 131.09 16.88L131.23 17.02L131.16 16.95Q131.56 16.21 132.28 14.68L132.17 14.57L132.20 14.60Q126.99 16.85 121.28 16.78L121.17 16.67L121.18 16.68Q115.30 16.66 110.35 14.15L110.26 14.06L110.22 14.02Q111.49 16.51 112.22 18.75L112.22 18.76L112.23 18.77Q113.17 19.13 113.97 19.36L114.12 19.52L114.12 19.52Q114.25 20.06 114.51 21.51L114.59 21.59L114.66 21.66Q118.31 22.64 123.19 22.45L123.10 22.37L123.18 22.44Q120.79 25.66 117.48 30.64L117.39 30.55L111.90 38.92L112.04 39.06Q111.58 40.24 110.55 42.79Z"/><path fill="#afe976" d="M71.75 23.46L71.65 23.36L71.74 23.45Q68.55 23.45 66.72 22.38L66.64 22.31L66.72 22.38Q69.27 21.05 74.14 16.83L74.14 16.83L74.05 16.74Q74.84 16.61 76.13 16.00L76.00 15.87L75.98 15.85Q74.71 21.85 74.60 28.21L74.60 28.21L74.53 28.14Q74.52 34.60 75.58 40.69L75.53 40.64L75.62 40.73Q73.94 40.00 71.81 39.88L71.85 39.93L71.87 39.94Q71.63 35.67 71.63 31.59L71.62 31.58L71.71 31.67Q71.61 27.47 71.65 23.35ZM71.36 25.69L71.39 40.31L71.37 40.28Q72.53 40.22 73.48 40.41L73.48 40.41L73.48 40.41Q73.61 41.15 73.80 42.52L73.67 42.39L73.72 42.44Q76.61 43.00 79.04 45.25L79.05 45.26L79.03 45.24Q76.65 38.21 76.61 30.75L76.44 30.58L76.51 30.65Q76.36 23.11 78.19 15.88L78.36 16.05L78.22 15.91Q77.69 16.34 76.10 17.44L76.17 17.52L76.14 17.49Q76.32 16.71 76.62 15.19L76.72 15.29L76.73 15.30Q75.41 16.07 73.96 16.45L73.92 16.42L73.84 16.33Q70.04 19.88 65.74 22.16L65.72 22.14L65.81 22.24Q67.11 23.23 69.47 23.58L69.47 23.58L69.55 23.65Q68.83 24.12 67.54 25.18L67.70 25.34L67.61 25.26Q69.07 25.61 71.28 25.61L71.28 25.61Z"/><path d="M21 21 C70 38,91 3,147 24" stroke="#d3e896" fill="none"/><path d="M20 3 C63 1,92 41,136 48" stroke="#859de4" fill="none"/><path fill="#5353d9" d="M29.71 37.94L29.61 37.84L29.58 37.81Q29.89 38.81 30.43 40.83L30.42 40.82L30.61 41.01Q26.29 39.58 21.68 39.85L21.72 39.89L21.67 39.84Q17.04 40.05 13.04 42.03L13.20 42.18L13.11 42.09Q13.37 41.44 13.41 41.51L13.39 41.49L13.43 41.53Q17.04 37.45 20.96 33.04L20.98 33.06L21.12 33.20Q25.48 28.16 26.66 23.48L26.57 23.38L26.54 23.35Q27.02 21.62 25.74 20.44L25.85 20.55L25.71 20.41Q24.58 19.37 22.79 19.53L22.71 19.45L22.77 19.50Q22.35 19.39 22.00 19.39L22.08 19.46L22.06 19.44Q20.46 19.37 19.20 20.28L19.21 20.28L19.28 20.36Q17.98 21.72 18.21 24.38L18.19 24.37L18.23 24.40Q16.41 24.04 15.20 23.58L15.18 23.57L15.26 23.65Q15.00 22.16 14.92 20.72L14.87 20.67L15.02 20.81Q14.81 19.04 15.42 17.90L15.46 17.94L15.42 17.90Q17.25 16.57 20.60 16.57L20.68 16.65L22.29 16.52L22.37 16.59Q24.60 16.57 25.55 16.69L25.65 16.79L25.56 16.70Q29.87 17.09 30.13 19.52L30.19 19.58L30.25 19.64Q30.22 20.10 30.14 20.90L30.29 21.05L30.25 21.01Q30.12 21.57 29.97 22.25L30.10 22.38L29.95 22.23Q28.32 30.35 20.75 37.20L20.76 37.22L20.79 37.25Q22.22 37.11 23.59 37.11L23.67 37.19L23.66 37.19Q26.78 37.06 29.63 37.86ZM29.09 17.07L29.13 17.11L29.12 17.10Q27.54 16.47 25.83 16.40L25.78 16.35L22.39 16.19L22.29 16.09Q17.93 15.92 15.72 17.03L15.61 16.91L15.69 16.99Q14.62 18.36 14.62 20.41L14.56 20.36L14.67 20.46Q14.73 21.21 15.03 24.03L14.92 23.92L14.98 23.97Q15.56 24.25 16.74 24.55L16.75 24.57L16.67 25.51L16.74 25.58Q16.69 26.03 16.77 26.56L16.75 26.54L16.72 26.52Q18.08 26.73 20.56 26.96L20.56 26.96L20.47 26.87Q20.45 26.51 20.45 26.17L20.49 26.21L20.39 26.11Q20.33 24.22 21.55 22.87L21.68 23.01L21.72 23.04Q22.92 21.67 24.71 21.79L24.64 21.72L24.60 21.68Q25.36 21.71 26.12 21.86L26.12 21.87L26.10 21.84Q26.35 22.36 26.42 22.78L26.36 22.72L26.33 22.68Q26.37 23.10 26.29 23.44L26.29 23.45L26.24 23.39Q25.06 28.23 20.64 33.06L20.61 33.03L20.74 33.16Q18.46 35.25 13.01 41.31L13.11 41.41L13.10 41.40Q12.94 42.26 12.60 42.83L12.52 42.75L12.56 42.79Q14.06 41.82 15.58 41.29L15.67 41.38L15.66 41.37Q15.00 42.00 14.05 43.48L13.99 43.42L13.98 43.42Q13.96 43.85 13.84 44.19L13.70 44.05L13.75 44.10Q18.67 42.09 24.15 42.28L24.15 42.28L24.18 42.31Q29.76 42.37 34.33 44.73L34.42 44.83L33.42 42.68L33.38 42.65Q32.72 41.30 32.46 40.50L32.47 40.51L32.41 40.46Q31.76 40.11 30.54 39.69L30.54 39.68L30.44 39.58Q30.36 38.94 29.98 37.57L30.02 37.61L29.96 37.54Q27.77 36.99 25.48 36.80L25.44 36.75L25.44 36.76Q30.19 32.26 31.72 24.00L31.73 24.01L31.80 21.00L31.87 21.06Q31.73 19.22 30.51 18.53L30.63 18.65L30.58 18.64L30.55 18.61Q30.48 18.50 30.41 18.50L30.47 18.57L30.35 18.44Q30.21 17.70 29.11 17.09Z"/><path fill="#a5dc6f" d="M43.75 40.35L43.74 40.35L43.76 40.36Q39.77 40.68 38.78 38.36L38.62 38.19L38.77 38.34Q39.50 37.36 41.06 35.57L41.00 35.51L40.99 35.50Q41.58 37.61 44.59 37.73L44.44 37.58L44.58 37.72Q47.92 37.75 49.56 36.42L49.57 36.43L49.52 36.38Q50.96 34.82 50.89 32.11L50.94 32.17L50.85 32.08Q50.78 27.09 45.98 27.32L45.88 27.22L46.04 27.38Q43.06 27.37 41.31 28.63L41.40 28.72L41.05 28.52L40.80 28.35L40.75 28.29Q41.18 25.22 41.06 22.48L41.13 22.54L41.12 22.54Q40.98 19.88 40.64 16.57L40.66 16.60L40.66 16.59Q44.36 17.59 48.16 17.47L48.01 17.32L48.11 17.42Q51.84 17.27 55.42 16.01L55.42 16.01L54.91 17.59L54.80 17.48Q54.57 18.32 54.38 19.16L54.34 19.12L54.45 19.23Q51.35 20.28 47.47 20.28L47.33 20.14L47.44 20.25Q46.01 20.27 44.52 20.11L44.47 20.06L44.46 20.05Q44.45 20.80 44.11 25.25L44.06 25.21L43.97 25.12Q44.80 24.66 46.86 24.51L46.88 24.53L46.95 24.59Q50.58 24.72 52.03 26.40L52.04 26.41L52.10 26.47Q53.47 27.99 53.73 31.84L53.66 31.76L53.84 31.94Q54.04 36.07 52.82 38.08L52.70 37.96L52.75 38.01Q50.76 39.94 47.45 40.17L47.56 40.28L47.38 40.10Q46.37 40.16 43.71 40.31ZM49.82 42.66L49.91 42.75L49.74 42.57Q53.19 42.67 55.09 41.57L55.23 41.71L55.24 41.72Q56.17 40.14 56.17 38.04L56.13 38.00L56.05 37.93Q56.22 35.01 55.27 30.90L55.15 30.78L55.21 30.83Q54.81 29.06 53.59 27.66L53.66 27.72L53.57 27.68L53.39 27.42L52.97 27.15L52.97 27.15Q52.73 26.49 52.08 25.81L52.08 25.80L52.06 25.83L52.17 25.93Q50.67 24.28 46.98 24.28L46.89 24.19L46.57 24.14L46.72 24.29Q46.73 23.66 46.92 22.55L46.81 22.44L46.92 22.55Q51.98 22.74 56.02 21.10L55.95 21.03L55.90 20.98Q56.38 19.64 57.33 16.82L57.24 16.73L55.12 17.65L55.16 17.69Q55.56 16.57 56.06 15.43L56.03 15.40L56.15 15.52Q52.23 16.89 48.12 16.97L48.21 17.06L48.19 17.04Q43.93 17.01 39.97 15.91L40.05 15.99L39.99 15.92Q40.65 20.32 40.65 24.73L40.81 24.89L40.76 24.84Q40.78 26.77 40.67 28.67L40.60 28.60L40.57 28.57Q40.94 28.87 41.52 29.17L41.50 29.16L41.38 29.04Q41.87 28.96 42.52 28.62L42.39 28.49L42.42 28.52Q42.37 29.26 42.14 30.79L42.18 30.83L42.22 30.87Q42.54 30.96 42.96 31.19L43.09 31.32L42.96 31.18Q45.84 29.54 47.71 29.54L47.56 29.39L47.68 29.52Q48.92 29.42 50.10 30.07L50.12 30.09L50.08 30.05Q50.54 31.19 50.58 32.14L50.48 32.05L50.52 32.09Q50.58 34.66 49.55 35.76L49.53 35.74L49.59 35.80Q48.24 37.04 46.00 37.27L45.98 37.25L45.92 37.20Q45.13 37.43 44.45 37.36L44.44 37.35L44.36 37.28Q43.58 37.21 42.82 36.87L42.74 36.80L42.68 36.54L42.57 36.66L42.65 36.75Q41.70 36.10 41.17 34.76L41.26 34.86L41.22 34.82Q39.93 36.27 38.25 38.40L38.20 38.34L38.20 38.34Q38.61 39.10 39.45 40.05L39.43 40.03L39.32 39.92Q40.37 41.73 43.19 42.23L43.24 42.28L43.32 42.36Q44.40 42.49 49.77 42.60Z"/></svg>