<svg xmlns="http://www.w3.org/2000/svg" width="150" height="50" viewBox="0,0,150,50"><rect width="100%" height="100%" fill="white"/><path fill="#ec82d2" d="M17.85 32.97L17.86 32.98L17.81 32.93Q20.84 32.50 24.03 32.61L24.16 32.74L24.11 32.68Q24.11 30.18 24.11 27.78L24.15 27.81L24.09 27.75Q24.04 25.23 24.23 22.68L24.26 22.71L24.35 22.80Q22.97 24.35 17.76 32.88ZM27.67 40.24L27.73 40.30L27.65 40.22Q26.03 39.98 24.25 39.90L24.31 39.97L24.30 39.96Q24.07 37.55 23.95 35.08L23.94 35.06L23.87 34.99Q18.58 34.84 13.86 36.25L14.00 36.39L13.86 36.25Q13.95 35.74 14.14 34.75L14.19 34.80L14.27 34.87Q15.96 31.62 19.54 25.33L19.54 25.33L19.52 25.31Q22.43 20.46 25.86 16.58L25.84 16.56L25.98 16.70Q26.70 16.35 28.37 16.09L28.36 16.07L28.37 16.08Q26.64 22.69 26.64 29.73L26.47 29.57L26.50 29.59Q26.64 31.22 26.72 32.70L26.60 32.58L27.94 32.75L27.97 32.78Q28.54 32.77 29.15 32.89L29.24 32.98L29.07 32.81Q29.29 33.90 29.55 35.84L29.53 35.82L29.46 35.75Q28.28 35.52 26.79 35.33L26.77 35.31L26.80 35.34Q27.09 37.42 27.77 40.35ZM29.44 32.53L29.49 32.58L29.35 32.44Q29.21 32.41 29.02 32.41L29.12 32.51L28.62 32.40L28.72 32.50Q28.49 30.89 28.49 29.49L28.44 29.44L28.48 29.48Q28.57 23.17 30.62 17.15L30.55 17.08L30.60 17.13Q29.73 17.29 28.29 17.67L28.41 17.80L28.47 17.85Q28.58 16.97 29.03 15.57L28.98 15.52L29.11 15.64Q27.85 16.06 25.80 16.29L25.80 16.29L25.80 16.29Q21.73 20.49 16.52 29.85L16.56 29.89L18.63 26.21L18.60 26.19Q18.25 27.29 17.99 27.86L18.08 27.95L13.61 36.95L13.47 36.82Q14.27 36.82 15.41 36.44L15.36 36.39L15.27 36.67L15.08 36.49Q15.11 37.32 14.81 38.57L14.73 38.49L14.67 38.43Q18.84 37.16 23.68 37.35L23.63 37.31L23.74 37.42Q23.81 38.40 24.00 40.38L23.97 40.35L23.99 40.37Q24.92 40.23 25.98 40.35L25.97 40.33L26.08 40.44Q26.11 41.01 26.38 42.38L26.46 42.46L26.45 42.45Q28.45 42.77 31.46 43.69L31.29 43.52L31.32 43.55Q30.46 41.54 29.54 38.27L29.38 38.11L30.89 38.63L30.86 38.60Q31.61 38.89 32.29 39.23L32.35 39.29L32.32 39.26Q31.51 36.74 31.36 35.06L31.28 34.98L31.44 35.14Q30.82 34.94 29.68 34.71L29.56 34.60L29.73 34.77Q29.47 33.44 29.47 32.57ZM21.37 32.31L21.50 32.44L21.31 32.25Q22.13 31.01 23.70 28.46L23.68 28.45L23.66 28.43Q23.69 29.41 23.65 30.36L23.72 30.43L23.79 30.50Q23.72 31.42 23.76 32.38L23.76 32.38L23.78 32.39Q23.13 32.28 22.56 32.28L22.53 32.24L22.64 32.35Q22.09 32.42 21.48 32.42Z"/><path fill="#b8dd4a" d="M69.78 25.08L69.82 25.12L69.70 25.00Q70.56 25.33 72.54 25.33L72.63 25.42L72.59 32.54L72.54 32.48Q72.73 36.90 72.85 39.80L72.71 39.67L72.79 39.75Q72.50 39.67 72.11 39.67L72.14 39.70L72.10 39.66Q70.53 39.54 69.09 40.87L69.23 41.01L69.10 40.88Q70.00 33.37 69.81 25.11ZM69.76 19.73L68.57 17.02L68.76 17.21Q70.22 16.08 70.94 15.13L70.97 15.16L70.92 15.11Q72.01 16.99 73.41 18.67L73.30 18.55L73.41 18.66Q72.49 20.07 71.12 22.20L71.15 22.22L71.17 22.25Q70.44 21.17 69.87 19.84L69.89 19.86ZM68.69 41.88L68.70 41.89L68.65 41.85Q69.59 40.69 70.85 40.20L70.94 40.29L70.96 40.31Q70.98 41.01 70.86 42.38L70.70 42.22L70.85 42.37Q71.40 42.00 72.04 42.00L72.10 42.06L72.05 42.00Q74.31 42.06 75.72 44.04L75.76 44.08L75.66 43.98Q74.41 36.64 74.49 26.48L74.54 26.53L74.47 26.46Q73.78 26.72 72.94 26.84L72.99 26.89L73.02 25.05L72.88 24.90Q71.92 25.09 71.12 25.02L71.04 24.94L71.17 25.07Q70.21 24.86 69.33 24.37L69.34 24.37L69.45 24.49Q69.49 26.43 69.49 28.48L69.56 28.56L69.46 28.45Q69.43 35.47 68.56 41.75ZM71.18 22.87L71.22 22.91L71.33 22.63L71.56 22.56L71.45 22.45Q71.82 23.20 72.85 24.69L72.86 24.69L72.92 24.76Q74.27 22.42 75.61 18.88L75.62 18.89L75.61 18.88Q74.67 18.06 73.11 16.46L73.15 16.50L73.12 16.47Q73.10 16.75 72.83 17.21L72.69 17.07L72.67 17.05Q71.88 15.96 70.97 14.51L70.93 14.47L70.81 14.35Q69.44 16.06 68.26 16.40L68.25 16.40L68.39 16.53Q69.45 19.96 71.28 22.96Z"/><path d="M2 28 C63 17,56 36,132 23" stroke="#8beded" fill="none"/><path d="M8 45 C87 13,83 4,136 48" stroke="#d08ce7" fill="none"/><path fill="#97e7ab" d="M101.47 40.90L101.43 40.86L101.60 41.03Q100.28 39.33 98.99 36.25L98.99 36.25L96.71 30.96L96.76 31.01Q95.12 34.97 94.51 36.26L94.65 36.40L94.69 36.44Q93.22 39.35 91.62 41.25L91.58 41.22L91.58 41.21Q91.21 41.22 90.45 41.34L90.45 41.34L90.40 41.29Q90.48 33.95 84.66 28.01L84.61 27.96L84.68 28.03Q82.92 26.20 80.90 24.71L80.90 24.71L80.73 24.53Q82.63 25.15 84.50 25.45L84.53 25.48L84.54 25.50Q90.61 30.46 92.06 36.70L92.01 36.65L92.07 36.71Q93.05 34.95 94.23 31.75L94.10 31.63L94.23 31.76Q95.39 27.81 95.96 26.52L96.13 26.69L97.53 26.68L97.41 26.56Q98.25 28.23 99.43 31.51L99.41 31.49L99.58 31.66Q100.73 35.14 101.38 36.55L101.44 36.60L101.40 36.56Q103.34 30.39 108.82 25.82L108.70 25.70L108.81 25.82Q109.93 25.64 112.67 25.07L112.79 25.19L112.65 25.05Q104.03 31.08 102.85 41.06L102.90 41.11L102.22 40.97L102.14 40.88Q101.92 40.96 101.57 41.00ZM104.58 43.47L106.56 43.59L106.64 43.67Q106.27 42.08 106.27 40.56L106.27 40.56L106.18 40.47Q106.16 37.21 107.56 33.97L107.72 34.13L107.69 34.10Q109.64 29.54 113.75 26.46L113.67 26.37L113.78 26.48Q112.46 26.65 110.59 26.99L110.62 27.02L110.56 26.96Q112.64 25.42 113.93 24.51L113.93 24.50L111.32 24.86L111.43 24.97Q110.21 25.19 108.87 25.35L108.93 25.40L108.86 25.33Q103.76 29.63 101.82 34.66L101.80 34.64L101.78 34.62Q101.05 32.37 99.68 28.10L99.74 28.17L99.74 28.17Q99.41 28.18 99.15 28.18L99.22 28.26L98.53 28.10L98.71 28.28Q98.51 27.89 97.71 26.14L97.74 26.16L95.68 26.17L95.72 26.21Q94.77 29.02 92.68 34.66L92.65 34.62L92.66 34.64Q91.36 30.98 88.28 27.71L88.12 27.55L88.25 27.68Q88.00 27.69 87.69 27.65L87.60 27.56L87.09 27.51L87.09 27.51Q86.15 26.61 84.36 25.01L84.46 25.11L84.51 25.16Q81.28 24.44 79.60 23.94L79.55 23.89L79.66 24.00Q90.26 31.32 89.88 41.64L89.92 41.68L89.97 41.73Q90.24 41.81 90.60 41.77L90.48 41.65L90.41 41.58Q90.86 41.64 91.05 41.64L91.12 41.71L91.09 41.67Q91.09 41.52 91.28 43.61L91.32 43.66L93.19 43.43L93.14 43.38Q95.69 40.53 97.94 34.78L98.08 34.92L97.97 34.81Q99.60 38.80 101.47 41.47L101.28 41.28L101.39 41.39Q101.64 41.30 101.90 41.31L101.86 41.27L102.00 41.41Q102.13 41.29 102.39 41.29L102.54 41.44L104.47 43.36Z"/><path d="M10 11 C93 30,89 9,141 37" stroke="#5ce97f" fill="none"/><path fill="#e15a5a" d="M120.64 19.68L120.55 19.59L120.72 19.76Q118.70 19.84 117.75 19.99L117.70 19.94L117.77 20.00Q116.00 20.10 114.78 20.63L114.80 20.65L114.80 20.66Q111.39 22.20 111.28 26.88L111.26 26.86L111.14 26.74Q111.19 29.53 111.83 32.46L111.81 32.44L111.85 32.48Q112.72 36.50 116.33 37.68L116.36 37.71L116.33 37.67Q118.25 38.26 119.69 38.11L119.68 38.10L120.10 38.06L119.96 37.92Q120.20 37.97 120.40 38.01L120.46 38.08L120.47 38.09Q120.51 37.98 120.66 37.94L120.69 37.96L120.69 37.97Q123.40 37.78 124.77 37.21L124.73 37.17L121.23 33.71L121.20 33.68Q121.51 33.34 122.12 32.73L122.09 32.70L122.99 31.78L122.98 31.76Q124.94 33.96 126.92 36.01L126.92 36.01L126.83 35.92Q129.10 34.04 129.36 28.67L129.47 28.78L129.45 28.76Q129.43 27.75 129.43 26.83L129.41 26.81L129.42 26.82Q129.43 21.17 124.37 20.06L124.39 20.08L124.50 20.19Q123.17 19.85 120.65 19.69ZM133.30 41.63L133.42 41.74L133.45 41.77Q132.90 42.26 131.72 43.13L131.67 43.08L127.28 39.42L127.21 39.35Q124.78 40.61 120.52 40.65L120.54 40.67L120.55 40.68Q113.94 40.73 111.12 38.49L111.15 38.52L111.11 38.48Q109.25 36.61 108.79 33.64L108.91 33.76L108.86 33.71Q108.63 31.88 108.25 28.31L108.35 28.40L108.33 28.39Q108.21 27.54 108.09 25.79L108.12 25.81L108.11 25.80Q108.10 24.39 108.14 23.51L108.00 23.37L108.06 23.43Q108.22 20.43 109.97 18.87L109.91 18.81L109.99 18.89Q111.37 17.41 114.56 16.92L114.62 16.97L114.58 16.93Q117.10 16.60 119.99 16.67L120.07 16.75L120.11 16.79Q127.48 16.77 130.60 19.13L130.62 19.16L130.70 19.23Q132.78 21.27 132.51 26.18L132.62 26.29L132.60 26.27Q132.32 29.83 132.13 31.17L132.20 31.24L132.26 31.30Q131.49 35.67 129.16 37.99L129.13 37.96L129.27 38.10Q130.67 39.27 133.41 41.74ZM128.45 17.37L128.51 17.42L128.51 17.42Q126.51 16.71 120.00 16.22L119.95 16.17L120.08 16.30Q118.64 16.28 115.87 16.39L115.80 16.33L115.88 16.41Q111.73 16.70 109.48 18.68L109.46 18.66L109.43 18.64Q107.72 20.04 107.72 23.20L107.69 23.18L107.72 23.21Q107.70 24.03 107.85 25.74L107.82 25.70L107.84 25.72Q108.00 27.44 108.00 28.32L107.95 28.27L108.11 28.43Q108.15 30.07 108.53 33.65L108.62 33.73L108.47 33.59Q108.95 36.58 110.55 38.64L110.53 38.61L110.52 38.60Q110.92 39.50 112.14 40.64L112.11 40.62L112.11 40.62Q114.76 42.54 119.94 42.81L120.00 42.88L119.95 42.82Q120.23 42.76 122.63 42.88L122.81 43.05L122.76 43.01Q127.50 43.10 129.78 42.03L129.88 42.13L129.86 42.11Q130.62 42.68 135.34 46.26L135.43 46.35L135.34 46.26Q135.98 45.76 137.28 44.77L137.28 44.77L137.25 44.74Q136.38 44.06 135.58 43.38L135.54 43.34L134.02 42.01L134.06 41.89L133.97 41.80Q133.51 41.45 132.29 40.43L132.34 40.48L132.32 40.45Q134.22 37.95 134.22 33.42L134.24 33.43L134.26 33.45Q134.14 32.92 134.18 32.08L134.28 32.18L134.25 32.15Q134.18 31.20 134.18 30.78L134.22 30.82L134.24 30.85Q134.26 25.34 133.53 22.98L133.49 22.94L133.59 23.03Q133.24 21.77 132.37 20.71L132.26 20.61L132.26 20.60Q131.51 18.52 128.57 17.49ZM122.53 22.03L122.62 22.12L122.55 22.05Q126.58 21.93 128.41 23.53L128.40 23.52L128.43 23.54Q129.09 24.86 129.21 26.19L129.05 26.03L129.13 26.12Q129.18 27.34 129.10 28.71L129.18 28.80L129.19 28.80Q128.75 33.65 126.81 35.36L126.82 35.37L126.79 35.35Q125.52 34.08 123.01 31.34L123.01 31.34L123.06 31.39Q122.21 32.06 120.64 33.62L120.65 33.62L120.71 33.69Q121.26 34.27 122.40 35.45L122.46 35.51L122.24 35.41L122.34 35.50Q122.92 36.05 123.95 37.12L123.90 37.07L123.85 37.01Q122.82 37.24 120.49 37.54L120.61 37.66L120.12 37.70L119.69 37.69L119.61 37.65L119.61 37.64Q116.09 37.59 114.11 35.96L114.23 36.08L114.14 35.99Q113.19 33.97 113.23 30.85L113.12 30.74L113.11 30.73Q113.38 22.13 122.56 22.05Z"/><path fill="#e462a3" d="M45.20 25.17L45.04 25.01L45.05 25.02Q46.01 25.45 47.99 25.45L47.83 25.28L47.91 32.53L48.00 32.61Q47.96 36.80 48.07 39.69L48.07 39.68L48.17 39.79Q47.83 39.68 47.45 39.68L47.46 39.68L47.40 39.62Q45.85 39.53 44.41 40.86L44.60 41.05L44.44 40.89Q45.29 33.33 45.10 25.07ZM45.06 19.70L43.94 17.05L43.94 17.06Q45.53 16.05 46.25 15.10L46.29 15.15L46.19 15.05Q47.37 17.02 48.78 18.70L48.65 18.57L48.74 18.66Q47.92 20.16 46.54 22.29L46.65 22.39L46.49 22.23Q45.79 21.19 45.22 19.86L45.14 19.78ZM43.91 41.78L43.95 41.81L43.94 41.80Q44.96 40.72 46.21 40.23L46.27 40.29L46.27 40.29Q46.19 40.89 46.08 42.27L46.04 42.23L46.01 42.20Q46.87 42.14 47.52 42.14L47.51 42.14L47.49 42.11Q49.71 42.13 51.12 44.11L51.10 44.09L51.08 44.06Q49.71 36.60 49.78 26.44L49.96 26.61L49.85 26.51Q49.05 26.65 48.21 26.77L48.20 26.76L48.35 25.04L48.31 25.00Q47.32 25.15 46.52 25.08L46.35 24.91L46.47 25.03Q45.61 24.93 44.74 24.44L44.65 24.35L44.77 24.47Q44.92 26.53 44.92 28.59L44.90 28.56L44.86 28.52Q44.89 35.59 44.01 41.87ZM46.52 22.88L46.63 22.98L46.76 22.73L46.88 22.55L46.81 22.48Q47.17 23.22 48.20 24.70L48.36 24.87L48.31 24.82Q49.52 22.33 50.85 18.79L50.98 18.92L50.96 18.90Q50.11 18.16 48.55 16.56L48.43 16.45L48.44 16.45Q48.28 16.60 48.02 17.06L48.03 17.07L48.07 17.11Q47.07 15.81 46.16 14.36L46.14 14.35L46.11 14.32Q44.71 16.00 43.53 16.34L43.55 16.36L43.68 16.49Q44.71 19.88 46.54 22.89Z"/></svg>