<svg xmlns="http://www.w3.org/2000/svg" width="150" height="50" viewBox="0,0,150,50"><rect width="100%" height="100%" fill="white"/><path fill="#93bfea" d="M122.07 40.15L122.10 40.18L119.95 40.31L119.93 40.29Q119.39 40.20 118.42 40.26L118.55 40.39L118.55 40.40Q117.62 40.49 117.13 40.49L117.12 40.49L116.97 40.33Q115.34 40.34 114.31 39.50L114.31 39.50L114.41 39.61Q115.28 38.57 116.92 36.44L116.76 36.28L116.89 36.41Q118.00 37.83 120.21 37.60L120.34 37.73L120.35 37.74Q121.20 37.56 121.85 36.92L121.78 36.85L121.78 36.85Q122.40 36.17 122.29 35.30L122.31 35.32L122.30 35.32Q122.32 30.84 122.40 26.28L122.39 26.26L122.40 26.27Q122.45 21.68 122.98 17.08L122.86 16.95L122.86 16.95Q124.93 16.89 127.06 15.86L127.02 15.82L126.90 15.70Q125.04 22.44 125.04 29.68L125.04 29.68L125.03 29.66Q125.09 33.27 125.55 36.77L125.54 36.76L125.51 36.73Q125.62 37.11 125.62 37.45L125.69 37.53L125.75 37.58Q125.62 38.02 125.39 38.56L125.45 38.62L125.42 38.58Q124.77 39.76 121.95 40.03ZM126.89 42.87L126.89 42.87L127.40 43.03L127.54 42.76L127.83 42.67L127.96 42.79Q128.10 42.37 128.18 42.26L128.25 42.33L128.25 42.33Q128.36 41.07 128.09 40.08L128.07 40.05L128.18 40.17Q126.75 34.28 127.02 27.92L127.10 28.01L127.10 28.01Q127.30 21.85 129.09 15.94L129.05 15.91L129.21 16.07Q128.32 16.70 127.06 17.42L126.97 17.33L127.08 17.44Q127.09 16.50 127.51 14.97L127.61 15.08L127.67 15.14Q124.99 16.30 122.32 16.60L122.40 16.68L122.48 16.76Q121.98 21.02 121.90 25.97L122.03 26.09L122.04 26.11Q121.97 32.01 122.04 35.43L122.08 35.48L121.95 35.34Q122.02 37.12 120.27 37.27L120.22 37.23L120.24 37.25Q118.51 37.35 116.84 35.71L116.90 35.78L117.00 35.87Q114.89 38.33 113.94 39.89L113.97 39.92L113.83 39.78Q114.44 40.39 115.47 40.62L115.56 40.71L115.63 40.79Q115.58 40.96 115.31 41.19L115.13 41.01L115.29 41.17Q116.73 42.11 118.71 42.38L118.68 42.35L118.64 42.31Q119.01 42.34 122.30 42.64L122.30 42.64L122.31 42.65Q125.64 43.00 127.02 43.00Z"/><path d="M4 5 C91 36,77 18,138 7" stroke="#b74cdb" fill="none"/><path d="M14 13 C85 32,57 2,136 26" stroke="#9ee259" fill="none"/><path fill="#e84ee8" d="M25.63 27.22L25.55 27.14L25.57 27.16Q26.45 27.24 27.86 27.09L27.69 26.92L27.85 27.08Q27.81 27.73 27.81 28.37L27.70 28.26L27.83 29.64L27.74 29.55Q26.89 29.55 26.05 29.62L26.08 29.65L26.07 29.63Q25.17 29.61 24.33 29.58L24.36 29.61L24.47 29.71Q21.47 35.74 18.05 40.35L18.13 40.43L18.05 40.35Q15.66 41.12 14.37 41.73L14.31 41.67L14.32 41.68Q18.34 35.88 21.38 29.60L21.45 29.66L18.83 29.67L18.82 29.66Q18.80 28.31 18.69 26.98L18.73 27.02L18.63 26.92Q20.69 27.23 22.75 27.23L22.63 27.11L24.65 23.53L24.58 23.47Q25.64 21.63 26.85 20.03L26.78 19.96L26.71 19.88Q25.25 20.14 23.65 20.14L23.73 20.22L23.59 20.08Q17.56 20.14 13.79 17.93L13.69 17.83L13.18 16.26L13.21 16.29Q12.70 15.28 12.32 14.40L12.39 14.48L12.50 14.58Q16.85 17.22 22.56 17.45L22.41 17.30L22.43 17.32Q27.64 17.61 32.78 15.63L32.64 15.50L32.76 15.62Q32.53 15.99 32.03 16.87L32.01 16.85L32.06 16.90Q28.47 21.69 25.62 27.21ZM33.58 18.19L33.55 18.16L34.55 16.15L34.73 16.34Q33.65 16.70 31.98 17.42L32.09 17.54L32.19 17.14L32.26 17.21Q32.39 17.08 32.51 16.97L32.50 16.96L32.35 16.81Q32.73 16.13 33.46 14.79L33.48 14.81L33.60 14.94Q28.18 17.14 22.44 16.91L22.46 16.93L22.40 16.87Q16.49 16.71 11.74 13.74L11.63 13.63L11.76 13.77Q12.73 15.58 13.57 18.24L13.58 18.25L13.58 18.25Q14.60 18.82 15.40 19.12L15.38 19.10L15.47 19.19Q15.65 19.56 16.11 21.43L16.12 21.44L16.01 21.33Q19.31 22.73 24.83 22.58L24.68 22.43L24.77 22.51Q24.37 22.99 22.39 26.76L22.55 26.92L22.36 26.73Q20.37 26.79 18.39 26.60L18.40 26.61L18.43 26.64Q18.53 27.51 18.53 28.38L18.54 28.39L18.53 30.10L20.27 30.16L20.17 31.46L20.10 31.40Q16.33 38.93 13.55 42.51L13.50 42.46L13.50 42.46Q15.01 41.62 16.65 41.12L16.71 41.18L16.76 41.23Q15.96 42.03 14.59 43.74L14.64 43.79L14.64 43.79Q17.72 42.61 20.16 42.38L20.18 42.40L20.20 42.43Q23.13 38.65 26.25 31.87L26.38 32.01L29.68 32.07L29.65 32.04Q29.60 31.16 29.60 30.24L29.73 30.37L29.72 28.56L29.63 28.47Q29.41 28.53 28.86 28.56L28.90 28.60L28.86 28.57Q28.34 28.63 28.07 28.63L28.06 28.62L27.95 28.51Q28.06 28.51 28.10 28.36L28.03 28.29L28.11 28.10L28.00 27.99Q30.61 22.95 33.69 18.30Z"/><path d="M9 18 C80 37,83 49,140 20" stroke="#b8df43" fill="none"/><path fill="#e08e3c" d="M63.02 14.35L62.96 14.29L62.99 14.31Q66.79 16.86 71.55 17.09L71.46 17.00L71.51 17.04Q76.06 17.14 80.32 15.39L80.40 15.47L80.32 15.39Q80.19 16.05 79.42 18.83L79.44 18.85L79.41 18.82Q76.62 19.80 73.65 19.95L73.63 19.93L73.64 19.94Q70.73 20.15 67.84 19.43L67.76 19.35L67.79 19.38Q68.48 23.00 68.67 26.65L68.72 26.71L68.72 26.71Q70.80 27.00 72.40 26.96L72.24 26.80L72.34 26.90Q73.49 26.83 75.88 26.71L75.96 26.79L76.04 26.87Q76.01 27.53 76.01 28.21L75.86 28.06L75.90 29.43L75.92 29.46Q73.57 29.50 68.78 29.58L68.76 29.56L68.83 29.63Q68.72 33.64 68.15 37.64L68.24 37.72L68.16 37.64Q70.72 36.93 73.46 37.04L73.51 37.09L73.53 37.11Q76.14 37.09 78.73 37.93L78.82 38.03L78.85 38.05Q78.88 38.81 79.15 39.57L79.18 39.61L79.58 41.07L79.53 41.02Q76.36 39.75 72.94 39.75L73.04 39.85L72.99 39.80Q68.06 39.75 63.80 42.00L63.81 42.01L63.77 41.97Q66.18 35.24 65.91 28.12L65.98 28.19L65.84 28.05Q65.73 21.05 63.06 14.39ZM63.39 42.81L63.36 42.78L63.39 42.81Q64.68 42.12 65.44 41.77L65.42 41.76L65.38 41.72Q65.21 42.49 64.64 44.02L64.64 44.02L64.61 44.00Q69.11 41.98 74.17 42.25L74.13 42.21L74.24 42.31Q79.49 42.69 83.48 45.39L83.44 45.35L83.38 45.29Q82.20 42.73 81.51 40.79L81.57 40.85L81.55 40.83Q80.50 40.16 79.51 39.82L79.53 39.83L79.51 39.82Q79.23 38.55 79.08 37.75L78.97 37.64L79.10 37.78Q75.94 36.71 72.78 36.71L72.82 36.75L72.82 36.74Q71.67 36.73 70.53 36.85L70.47 36.79L70.53 36.85Q70.53 35.48 70.56 34.26L70.61 34.31L70.78 31.89L70.77 31.88Q72.57 31.78 74.36 31.82L74.41 31.87L74.42 31.87Q76.22 31.88 78.01 32.04L77.87 31.89L77.96 31.98Q77.96 31.11 77.96 30.16L77.92 30.12L77.93 28.23L77.06 28.23L77.09 28.26Q76.70 28.37 76.24 28.37L76.11 28.23L76.24 28.36Q76.25 27.69 76.40 26.39L76.41 26.41L76.42 26.41Q74.81 26.63 73.63 26.67L73.51 26.54L73.59 26.63Q72.55 26.54 70.73 26.47L70.81 26.55L70.88 26.62Q70.71 25.11 70.52 22.30L70.54 22.33L70.50 22.28Q71.61 22.48 72.60 22.48L72.46 22.33L72.61 22.48Q77.18 22.34 80.88 20.44L80.86 20.42L80.87 20.43Q81.56 18.19 82.44 15.98L82.32 15.87L82.43 15.98Q81.06 16.78 80.22 17.12L80.26 17.15L80.15 17.04Q80.60 16.43 81.06 14.87L81.01 14.83L81.03 14.84Q76.34 16.93 71.47 16.63L71.50 16.65L71.42 16.57Q66.21 16.35 62.36 13.49L62.31 13.44L62.37 13.50Q65.13 20.33 65.43 27.95L65.56 28.08L65.48 28.00Q65.81 35.94 63.30 42.72Z"/><path fill="#82ecec" d="M52.20 40.96L52.23 40.99L52.23 40.99Q50.89 39.28 49.60 36.19L49.66 36.25L47.48 31.06L47.45 31.03Q45.97 35.15 45.36 36.44L45.17 36.25L45.33 36.42Q43.89 39.35 42.29 41.25L42.23 41.20L42.16 41.13Q41.84 41.19 41.08 41.30L40.97 41.19L41.04 41.26Q41.00 33.80 35.17 27.86L35.19 27.88L35.26 27.94Q33.47 26.08 31.46 24.60L31.56 24.70L31.55 24.69Q33.31 25.15 35.17 25.46L35.26 25.54L35.20 25.49Q41.20 30.38 42.65 36.63L42.66 36.64L42.81 36.78Q43.65 34.89 44.83 31.69L44.90 31.76L44.90 31.76Q46.23 27.99 46.80 26.69L46.76 26.66L48.11 26.59L48.10 26.58Q48.95 28.28 50.14 31.55L50.22 31.63L50.10 31.51Q51.44 35.18 52.09 36.59L52.15 36.65L52.20 36.70Q53.85 30.24 59.33 25.67L59.43 25.77L59.48 25.82Q60.70 25.74 63.44 25.17L63.45 25.19L63.33 25.06Q54.72 31.11 53.54 41.08L53.56 41.10L52.95 41.03L52.96 41.04Q52.54 40.92 52.20 40.96ZM55.16 43.39L57.29 43.66L57.31 43.68Q56.98 42.12 56.98 40.60L56.89 40.52L56.88 40.50Q56.81 37.20 58.22 33.97L58.27 34.01L58.26 34.00Q60.38 29.61 64.49 26.53L64.43 26.47L64.50 26.53Q63.22 26.75 61.36 27.09L61.23 26.96L61.36 27.09Q63.29 25.41 64.59 24.49L64.61 24.51L61.99 24.87L62.03 24.90Q60.96 25.28 59.62 25.43L59.49 25.30L59.44 25.25Q54.36 29.57 52.42 34.60L52.32 34.50L52.45 34.63Q51.70 32.36 50.33 28.09L50.34 28.10L50.34 28.11Q50.19 28.29 49.92 28.29L49.92 28.29L49.28 28.18L49.39 28.29Q49.13 27.84 48.33 26.09L48.47 26.23L46.40 26.22L46.25 26.07Q45.47 29.06 43.38 34.69L43.21 34.53L43.24 34.55Q41.95 30.90 38.87 27.63L38.85 27.61L38.81 27.57Q38.58 27.61 38.28 27.57L38.19 27.49L37.67 27.42L37.74 27.49Q36.80 26.59 35.01 24.99L35.08 25.06L35.07 25.05Q31.93 24.43 30.26 23.93L30.25 23.92L30.22 23.89Q40.97 31.37 40.59 41.69L40.62 41.72L40.64 41.74Q40.87 41.77 41.23 41.74L41.11 41.61L41.13 41.63Q41.52 41.63 41.71 41.63L41.70 41.62L41.69 41.61Q41.63 41.40 41.82 43.49L41.84 43.51L43.81 43.38L43.77 43.34Q46.46 40.63 48.71 34.88L48.67 34.84L48.69 34.86Q50.11 38.64 51.97 41.31L52.12 41.46L52.06 41.39Q52.43 41.42 52.70 41.44L52.53 41.28L52.51 41.26Q52.97 41.46 53.23 41.46L53.09 41.32L55.12 43.34Z"/><path fill="#db5656" d="M96.29 23.33L96.46 23.50L96.36 23.40Q93.26 23.49 91.43 22.43L91.33 22.32L91.44 22.43Q93.89 21.01 98.77 16.78L98.63 16.64L98.78 16.80Q99.50 16.60 100.79 15.99L100.70 15.90L100.72 15.92Q99.47 21.94 99.36 28.30L99.24 28.18L99.37 28.31Q99.22 34.63 100.29 40.72L100.22 40.66L100.18 40.62Q98.52 39.90 96.38 39.79L96.42 39.83L96.39 39.80Q96.27 35.64 96.27 31.57L96.35 31.65L96.28 31.58Q96.40 27.59 96.44 23.48ZM96.03 25.70L96.07 40.31L95.96 40.20Q97.12 40.14 98.07 40.33L98.16 40.43L98.18 40.45Q98.32 41.19 98.51 42.56L98.32 42.37L98.51 42.56Q101.33 43.06 103.77 45.31L103.79 45.34L103.66 45.20Q101.17 38.07 101.14 30.61L101.22 30.70L101.12 30.60Q101.15 23.24 102.98 16.00L102.98 16.01L102.93 15.96Q102.38 16.36 100.78 17.46L100.73 17.41L100.78 17.46Q101.07 16.80 101.38 15.28L101.39 15.30L101.29 15.19Q99.88 15.88 98.44 16.26L98.61 16.43L98.52 16.34Q94.70 19.88 90.40 22.16L90.44 22.20L90.41 22.17Q91.84 23.29 94.20 23.63L94.26 23.70L94.14 23.58Q93.67 24.28 92.37 25.35L92.32 25.30L92.27 25.25Q93.85 25.73 96.06 25.73L96.06 25.73Z"/></svg>