<svg xmlns="http://www.w3.org/2000/svg" width="150" height="50" viewBox="0,0,150,50"><rect width="100%" height="100%" fill="white"/><path fill="#e93e93" d="M43.04 40.25L43.18 40.39L43.08 40.29Q41.66 40.36 40.10 39.94L40.15 39.99L40.21 40.05Q38.98 39.13 38.83 37.49L38.76 37.42L38.81 37.47Q38.82 37.33 39.01 34.71L38.91 34.60L38.90 34.59Q40.04 34.52 42.06 34.14L41.95 34.03L41.74 34.77L41.82 34.84Q41.61 36.66 43.02 37.23L42.88 37.08L42.93 37.14Q43.65 37.40 45.74 37.40L45.75 37.41L45.75 37.41Q47.43 37.34 47.62 37.26L47.71 37.34L47.72 37.36Q48.53 37.11 49.26 36.61L49.29 36.65L49.19 36.54Q50.76 35.75 50.57 33.66L50.43 33.52L50.52 33.61Q50.20 31.04 48.46 29.48L48.47 29.48L48.48 29.50Q46.79 27.98 44.31 27.98L44.34 28.00L44.41 27.84L44.38 27.81Q44.80 27.81 45.68 27.74L45.52 27.58L45.61 27.68Q47.42 27.46 48.79 26.23L48.95 26.39L48.93 26.37Q50.18 25.01 50.33 23.15L50.32 23.13L50.48 23.29Q50.56 22.95 50.56 22.61L50.41 22.47L50.56 22.61Q50.46 20.98 49.09 20.07L49.06 20.04L49.13 20.12Q47.94 19.34 46.34 19.46L46.36 19.47L46.37 19.48Q45.04 19.30 43.82 19.71L43.87 19.77L43.87 19.76Q42.30 20.18 42.00 21.32L42.01 21.33L41.95 21.27Q41.87 22.14 41.94 22.90L41.89 22.85L41.91 22.87Q40.85 22.61 38.80 21.89L38.74 21.83L38.76 21.85Q38.64 20.29 38.68 19.45L38.63 19.40L38.62 19.39Q38.82 17.95 39.88 17.26L39.72 17.10L39.81 17.19Q41.24 16.60 42.84 16.60L42.85 16.61L42.91 16.67Q45.91 16.48 49.07 16.74L49.10 16.77L49.20 16.87Q54.12 17.15 53.82 20.92L53.86 20.97L53.88 20.98Q53.90 22.56 53.41 24.12L53.43 24.15L53.36 24.07Q52.34 27.05 49.98 27.97L50.11 28.10L50.13 28.11Q52.70 28.60 53.31 31.95L53.27 31.90L53.33 31.97Q53.43 32.98 53.50 34.99L53.56 35.05L53.57 35.06Q53.74 39.53 49.13 39.99L49.11 39.96L49.15 40.01Q48.38 40.03 43.08 40.30ZM48.30 42.54L48.44 42.69L48.30 42.55Q49.03 42.71 51.89 42.78L51.84 42.74L51.77 42.66Q53.47 42.69 55.11 42.05L55.23 42.16L55.28 42.22Q56.43 41.23 56.24 39.48L56.18 39.42L56.12 39.36Q56.08 38.11 55.78 36.36L55.78 36.36L55.67 36.25Q55.00 31.81 53.06 30.17L53.17 30.29L53.00 29.92L52.92 29.81L52.82 29.70Q54.56 28.25 55.32 23.87L55.33 23.87L55.39 23.94Q55.34 23.40 55.46 22.44L55.58 22.57L55.63 22.62Q55.61 21.76 55.53 21.07L55.61 21.15L55.56 21.10Q55.45 19.47 54.16 18.78L54.04 18.67L53.94 18.64L54.05 18.75Q53.70 17.72 52.56 17.19L52.60 17.22L52.47 17.10Q51.02 16.48 45.88 16.18L45.85 16.15L45.90 16.20Q44.25 16.15 42.66 16.15L42.59 16.08L42.59 16.09Q40.99 16.08 39.46 16.73L39.55 16.81L39.48 16.75Q38.30 17.54 38.30 19.30L38.35 19.34L38.36 19.35Q38.35 18.93 38.62 22.28L38.65 22.32L38.59 22.25Q38.82 22.25 40.46 22.86L40.48 22.88L40.50 22.90Q40.52 23.46 40.48 23.95L40.40 23.87L40.44 23.92Q40.43 24.39 40.47 24.93L40.49 24.95L40.47 24.93Q42.23 25.28 44.24 25.39L44.22 25.37L44.29 25.44Q44.28 23.48 45.38 22.65L45.31 22.58L45.42 22.68Q46.22 22.00 48.24 21.77L48.22 21.75L48.14 21.68Q49.37 21.76 49.94 21.95L49.84 21.85L49.83 21.84Q49.88 21.97 49.92 22.08L50.00 22.16L50.07 22.42L50.09 22.90L50.16 22.97Q50.10 23.10 50.06 23.25L49.96 23.15L50.13 23.32Q50.04 25.02 48.52 26.20L48.38 26.06L48.47 26.16Q47.63 27.15 45.62 27.34L45.60 27.32L45.45 27.17Q44.76 27.36 43.89 27.36L44.01 27.48L44.02 27.49Q44.03 27.80 44.18 28.49L44.03 28.34L44.12 28.43Q45.78 28.34 47.23 29.06L47.37 29.20L47.19 29.14L45.63 29.33L45.63 29.33Q45.70 29.71 45.82 30.32L45.72 30.22L45.87 30.37Q47.87 30.16 49.58 31.49L49.73 31.64L49.57 31.48Q49.92 31.99 50.23 33.62L50.17 33.57L50.08 33.47Q50.44 36.57 47.50 36.99L47.34 36.82L47.41 36.90Q45.24 37.09 44.67 37.05L44.75 37.13L44.79 37.17Q44.37 37.09 43.84 37.02L43.71 36.89L43.70 36.42L43.93 36.08L43.85 35.58L44.05 35.44L44.05 35.44Q43.04 35.45 42.24 35.65L42.21 35.61L42.28 35.69Q42.25 35.47 42.25 35.28L42.15 35.17L42.16 35.19Q42.16 34.96 42.16 34.73L42.16 34.73L42.24 34.81Q42.22 34.33 42.37 33.61L42.43 33.67L42.33 33.57Q40.45 33.79 38.59 34.13L38.60 34.14L38.73 34.27Q38.74 34.77 38.63 35.90L38.55 35.82L38.59 35.86Q38.46 36.96 38.46 37.57L38.43 37.55L38.47 37.59Q38.58 39.68 39.95 40.44L39.97 40.46L39.83 40.32Q41.38 42.67 46.10 42.48L46.15 42.53L46.01 42.39Q46.91 42.52 48.43 42.67Z"/><path d="M12 12 C63 29,77 8,145 37" stroke="#e0e04c" fill="none"/><path d="M5 30 C69 33,83 22,135 11" stroke="#7f9bef" fill="none"/><path fill="#5cdaba" d="M89.55 47.02L89.59 47.07L89.65 47.12Q88.67 47.28 86.76 47.59L86.73 47.55L86.80 47.62Q88.02 45.38 89.05 44.08L89.03 44.07L89.10 44.14Q90.82 44.41 90.97 44.41L91.06 44.50L90.95 44.39Q91.23 44.44 91.76 44.32L91.75 44.32L91.88 44.44Q92.54 44.34 92.73 44.34L92.76 44.37L92.76 44.37Q95.18 43.97 95.10 41.80L95.17 41.87L95.13 41.83Q95.13 40.38 95.01 34.14L94.96 34.08L95.09 34.21Q95.05 30.67 95.12 26.52L95.06 26.45L96.56 26.36L96.41 26.21Q97.08 26.11 97.76 25.88L97.81 25.93L97.80 25.92Q97.58 30.35 97.62 34.73L97.59 34.70L97.52 34.62Q97.69 39.14 98.23 43.52L98.26 43.55L98.25 43.54Q98.16 43.68 98.16 43.94L98.17 43.96L98.17 43.96Q98.31 45.73 96.63 46.11L96.53 46.01L96.60 46.08Q93.40 46.38 89.56 47.03ZM96.29 22.77L94.19 19.69L94.31 19.81Q95.30 18.36 97.12 15.58L97.03 15.48L97.05 15.50Q97.89 16.57 99.22 18.40L99.21 18.39L96.43 22.92ZM99.40 49.49L99.32 49.41L99.38 49.47Q99.87 49.46 100.63 49.12L100.64 49.13L100.75 49.24Q101.02 48.49 101.02 48.03L100.99 48.00L100.93 47.94Q100.93 47.59 100.81 46.98L100.85 47.02L100.78 46.95Q99.46 40.56 99.46 32.64L99.63 32.81L99.54 32.72Q99.53 29.86 99.68 26.97L99.77 27.06L99.64 26.92Q99.26 27.27 98.12 27.57L98.05 27.51L98.09 27.55Q98.07 27.03 98.11 26.49L98.06 26.45L98.12 25.33L98.23 25.44Q96.42 25.99 94.63 26.03L94.61 26.01L94.70 26.10Q94.51 30.29 94.55 33.86L94.59 33.90L94.74 41.78L94.88 41.92Q94.77 43.71 92.60 43.83L92.73 43.96L92.67 43.90Q92.44 43.89 91.92 43.95L91.91 43.94L91.93 43.96Q91.48 44.08 91.21 44.08L91.21 44.08L91.22 44.08Q90.69 44.02 89.13 43.60L89.10 43.57L89.21 43.67Q88.70 44.24 87.60 45.91L87.47 45.78L86.00 48.15L86.04 48.20Q86.95 48.04 88.58 47.66L88.46 47.53L88.13 48.38L87.57 49.00L87.59 49.02Q89.79 48.79 91.12 48.86L91.18 48.92L91.09 48.83Q93.37 48.97 99.30 49.39ZM96.32 23.56L96.39 23.63L96.76 23.13L96.75 23.12Q97.14 23.59 98.09 25.19L98.01 25.10L98.03 25.13Q99.47 21.92 101.04 18.84L101.19 18.99L101.03 18.84Q100.01 17.21 99.06 15.92L99.14 15.99L99.10 15.95Q98.91 16.19 98.57 16.72L98.58 16.73L98.64 16.78Q98.12 16.04 97.13 14.75L97.22 14.83L97.27 14.89Q95.98 16.38 93.66 19.73L93.72 19.79L93.62 19.69Q94.60 20.97 96.31 23.56Z"/><path fill="#ed8ca4" d="M117.70 40.30L117.84 40.44L117.70 40.31Q113.75 40.65 112.76 38.33L112.79 38.37L112.75 38.33Q113.42 37.28 114.98 35.49L115.00 35.51L114.94 35.45Q115.49 37.52 118.50 37.64L118.53 37.67L118.50 37.64Q121.91 37.74 123.55 36.40L123.46 36.32L123.59 36.45Q124.90 34.76 124.83 32.05L124.95 32.17L124.94 32.16Q124.83 27.14 120.03 27.37L119.92 27.25L120.01 27.35Q117.08 27.39 115.33 28.65L115.44 28.76L115.09 28.56L114.92 28.46L114.90 28.44Q115.26 25.30 115.14 22.56L115.15 22.56L114.98 22.39Q114.90 19.81 114.56 16.49L114.72 16.65L114.52 16.45Q118.33 17.56 122.14 17.45L122.04 17.35L122.13 17.44Q125.86 17.29 129.44 16.03L129.54 16.13L128.94 17.63L128.97 17.66Q128.54 18.29 128.35 19.13L128.48 19.26L128.30 19.08Q125.28 20.21 121.40 20.21L121.32 20.13L121.43 20.24Q119.88 20.13 118.39 19.98L118.36 19.95L118.47 20.06Q118.31 20.66 117.96 25.11L118.00 25.15L117.97 25.12Q118.94 24.79 121.00 24.64L121.01 24.65L120.87 24.51Q124.75 24.89 126.20 26.57L126.09 26.46L126.17 26.54Q127.57 28.09 127.84 31.94L127.84 31.94L127.77 31.88Q128.08 36.11 126.87 38.13L126.75 38.01L126.70 37.96Q124.80 39.98 121.49 40.21L121.55 40.27L121.38 40.10Q120.47 40.26 117.80 40.41ZM123.85 42.69L123.84 42.67L123.75 42.59Q127.22 42.71 129.13 41.61L129.21 41.69L129.25 41.73Q130.12 40.08 130.12 37.99L130.10 37.97L130.16 38.04Q130.10 34.89 129.15 30.78L129.25 30.87L129.18 30.81Q128.74 29.00 127.52 27.59L127.64 27.71L127.71 27.82L127.34 27.37L127.00 27.19L126.97 27.15Q126.73 26.50 126.09 25.81L126.08 25.81L126.08 25.84L126.07 25.83Q124.52 24.13 120.83 24.13L120.88 24.18L120.53 24.10L120.64 24.21Q120.76 23.69 120.95 22.58L120.85 22.48L120.88 22.51Q125.80 22.56 129.84 20.92L129.92 21.00L129.99 21.07Q130.39 19.65 131.34 16.83L131.29 16.78L129.13 17.66L129.22 17.75Q129.50 16.51 130.00 15.37L130.06 15.43L130.13 15.50Q126.19 16.86 122.08 16.93L122.15 17.01L122.11 16.96Q118.07 17.15 114.11 16.05L114.11 16.04L114.10 16.03Q114.67 20.33 114.67 24.75L114.73 24.81L114.76 24.84Q114.81 26.79 114.69 28.70L114.67 28.67L114.58 28.59Q114.88 28.80 115.45 29.11L115.55 29.21L115.37 29.02Q115.70 28.78 116.34 28.44L116.46 28.56L116.47 28.57Q116.48 29.38 116.26 30.90L116.21 30.86L116.26 30.91Q116.58 31.00 117.00 31.23L117.01 31.24L117.00 31.23Q119.70 29.40 121.57 29.40L121.70 29.53L121.69 29.52Q123.06 29.56 124.24 30.21L124.23 30.20L124.16 30.13Q124.56 31.22 124.60 32.17L124.63 32.20L124.56 32.12Q124.68 34.76 123.66 35.87L123.67 35.89L123.58 35.79Q122.21 37.01 119.96 37.24L119.91 37.18L119.90 37.18Q119.06 37.36 118.37 37.28L118.34 37.25L118.34 37.25Q117.51 37.14 116.75 36.80L116.72 36.78L116.77 36.63L116.66 36.75L116.63 36.72Q115.84 36.24 115.31 34.90L115.29 34.88L115.21 34.81Q113.89 36.23 112.22 38.36L112.18 38.33L112.19 38.34Q112.60 39.09 113.44 40.04L113.41 40.02L113.33 39.93Q114.55 41.91 117.37 42.41L117.31 42.35L117.27 42.31Q118.49 42.57 123.85 42.69Z"/><path fill="#6565e6" d="M70.32 29.01L70.17 28.86L70.22 28.91Q67.59 28.83 66.56 30.01L66.75 30.20L66.64 30.09Q65.53 31.19 65.53 33.82L65.66 33.94L65.56 33.84Q65.68 39.07 70.29 38.88L70.22 38.81L70.22 38.80Q72.35 39.03 73.70 37.47L73.63 37.40L73.66 37.43Q75.00 35.86 74.77 33.80L74.80 33.83L74.76 33.79Q74.86 31.34 73.98 30.31L73.94 30.27L73.93 30.26Q72.51 29.00 70.31 29.00ZM75.22 38.67L75.19 38.64L75.30 38.75Q74.18 41.28 69.49 41.28L69.30 41.08L68.05 41.28L67.90 41.13Q65.53 41.12 64.43 39.98L64.56 40.11L64.43 39.98Q63.53 39.08 63.26 36.68L63.13 36.55L63.11 36.53Q63.09 35.18 63.02 33.39L62.94 33.32L63.00 33.37Q62.91 32.34 62.76 30.40L62.67 30.31L62.71 30.35Q62.63 26.08 67.81 26.08L67.76 26.04L69.46 26.17L69.46 26.17Q72.19 26.01 74.29 27.31L74.38 27.39L74.46 27.48Q75.11 27.82 75.60 28.51L75.71 28.61L75.74 28.65Q75.97 27.81 76.50 26.17L76.49 26.15L76.53 26.20Q77.68 25.94 80.00 25.33L79.98 25.31L80.06 25.39Q77.33 29.47 77.33 34.73L77.36 34.75L77.44 34.84Q77.49 38.61 78.86 41.70L78.88 41.72L78.76 41.60Q77.62 41.30 75.72 41.07L75.69 41.04L75.75 41.10Q75.55 40.25 75.24 38.69ZM78.65 44.00L78.56 43.91L80.76 44.47L80.72 44.44Q81.94 44.74 82.93 45.20L82.93 45.20L82.95 45.22Q79.39 40.97 79.39 34.88L79.23 34.73L79.38 34.87Q79.27 30.23 81.40 26.43L81.53 26.55L81.47 26.49Q80.88 26.78 79.55 27.16L79.55 27.16L79.39 27.00Q79.84 26.34 80.71 24.82L80.77 24.88L80.76 24.87Q80.16 25.03 76.16 25.87L76.22 25.92L75.55 27.65L75.53 27.63Q73.76 25.91 69.35 25.68L69.44 25.77L69.31 25.64Q68.18 25.65 65.93 25.80L66.06 25.93L65.97 25.84Q62.26 26.16 62.37 30.20L62.48 30.31L62.33 30.16Q62.50 33.53 63.08 37.98L63.15 38.06L63.18 38.50L63.11 38.44Q63.29 39.34 64.09 40.44L63.97 40.32L64.08 40.43Q64.30 40.65 64.49 40.77L64.39 40.67L64.49 40.77Q64.63 41.14 65.02 41.71L65.15 41.85L65.09 41.78Q66.37 43.18 69.76 43.37L69.80 43.42L69.75 43.36Q71.58 43.68 71.74 43.68L71.67 43.61L73.30 43.67L73.13 43.51Q76.40 43.58 77.62 42.02L77.69 42.09L77.71 42.11Q77.86 42.53 78.47 43.82ZM72.01 31.15L72.02 31.16L71.97 31.12Q73.44 31.25 74.27 31.71L74.23 31.66L74.27 31.71Q74.56 32.49 74.56 33.93L74.53 33.91L74.51 33.88Q74.61 35.70 73.33 37.13L73.36 37.15L73.44 37.23Q72.21 38.71 70.31 38.52L70.27 38.48L70.30 38.50Q68.80 38.45 67.77 38.03L67.72 37.99L67.67 37.93Q67.62 37.23 67.62 36.01L67.61 36.01L67.66 36.06Q67.75 32.49 70.37 31.54L70.24 31.40L70.22 31.39Q71.15 31.10 71.95 31.10Z"/><path d="M4 29 C96 43,83 44,149 14" stroke="#d0e594" fill="none"/><path fill="#e93e93" d="M19.58 14.09L19.51 14.02L19.62 14.13Q20.50 16.08 22.18 16.42L22.09 16.33L22.14 16.38Q22.61 16.43 23.29 16.24L23.35 16.30L23.32 16.27Q23.28 22.35 23.20 28.22L23.02 28.03L23.12 28.13Q23.15 33.99 23.38 39.93L23.21 39.76L23.37 39.92Q23.06 39.84 22.75 39.84L22.63 39.71L22.68 39.76Q21.17 39.82 19.88 41.65L19.87 41.64L19.87 41.64Q20.48 34.64 20.45 27.78L20.43 27.77L20.58 27.92Q20.37 20.90 19.53 14.04ZM19.51 42.83L19.36 42.69L19.40 42.73Q20.42 40.85 21.49 40.40L21.48 40.39L21.68 40.59Q21.42 41.43 21.42 42.42L21.53 42.54L21.53 42.53Q22.24 42.14 23.04 42.25L23.01 42.22L23.02 42.24Q25.14 42.65 26.36 45.35L26.19 45.17L26.19 45.17Q25.00 37.63 25.00 30.17L25.06 30.22L25.04 30.21Q25.17 22.61 26.01 15.31L26.01 15.30L25.84 15.13Q25.00 17.18 23.86 17.79L23.78 17.72L23.74 17.68Q23.73 16.64 23.81 15.58L23.94 15.71L23.80 15.57Q22.97 16.03 22.21 15.88L22.23 15.90L22.26 15.93Q20.18 15.64 19.19 12.79L19.05 12.64L19.05 12.64Q20.22 20.29 20.30 27.83L20.20 27.72L20.24 27.77Q20.30 35.22 19.43 42.75Z"/></svg>