<svg xmlns="http://www.w3.org/2000/svg" width="150" height="50" viewBox="0,0,150,50"><rect width="100%" height="100%" fill="white"/><path fill="#61e961" d="M114.70 49.68L114.64 49.61L114.66 49.63Q117.53 45.73 120.42 39.53L120.49 39.59L120.35 39.45Q117.24 32.92 111.15 24.85L111.15 24.85L111.24 24.94Q113.09 26.03 115.87 26.67L116.01 26.81L115.82 26.63Q119.48 31.43 121.92 36.64L121.89 36.61L121.91 36.63Q123.97 31.24 127.06 26.82L127.11 26.87L127.14 26.90Q129.36 26.58 131.46 25.78L131.40 25.72L131.39 25.71Q127.93 29.48 124.46 36.90L124.54 36.98L121.74 43.01L121.78 43.06Q120.31 46.16 118.56 48.78L118.58 48.80L118.60 48.82Q116.06 49.05 114.61 49.59ZM120.90 51.05L120.87 51.01L120.77 50.91Q122.51 48.05 123.96 44.77L123.96 44.78L126.65 38.40L126.65 38.41Q130.21 30.43 133.52 26.44L133.61 26.52L133.51 26.42Q132.17 27.10 130.27 27.79L130.28 27.80L131.23 26.32L131.27 26.35Q131.87 25.69 132.48 25.01L132.56 25.09L132.51 25.04Q129.90 26.16 127.04 26.61L126.93 26.51L126.88 26.46Q124.21 30.45 122.27 34.90L122.25 34.88L122.34 34.98Q120.67 31.63 118.88 28.81L118.76 28.69L118.87 28.79Q118.59 28.71 118.23 28.67L118.24 28.68L118.34 28.78Q117.95 28.71 117.76 28.71L117.66 28.62L117.83 28.79Q117.00 27.46 116.04 26.31L116.09 26.36L116.07 26.34Q112.94 25.73 110.20 24.01L110.14 23.95L110.11 23.92Q116.27 31.83 119.96 39.45L119.98 39.47L120.08 39.57Q117.90 44.62 113.83 50.25L113.86 50.28L113.86 50.28Q114.62 49.94 115.42 49.79L115.43 49.80L117.05 49.44L117.02 49.41Q116.40 50.12 115.22 51.76L115.21 51.75L115.19 51.73Q117.48 51.13 120.75 50.90Z"/><path d="M9 13 C59 45,81 8,148 3" stroke="#e476ad" fill="none"/><path fill="#6fe6c8" d="M50.32 27.24L50.16 27.09L50.25 27.17Q51.12 27.24 52.52 27.09L52.48 27.04L52.49 27.06Q52.43 27.68 52.43 28.33L52.50 28.40L52.34 29.50L52.36 29.51Q51.66 29.65 50.83 29.73L50.69 29.59L50.72 29.62Q49.96 29.74 49.12 29.70L49.11 29.68L49.07 29.65Q46.18 35.78 42.76 40.39L42.73 40.36L42.84 40.48Q40.31 41.10 39.01 41.71L39.03 41.72L39.01 41.71Q43.09 35.97 46.14 29.68L46.07 29.62L43.43 29.60L43.52 29.70Q43.54 28.38 43.42 27.05L43.40 27.02L43.47 27.10Q45.23 27.10 47.29 27.10L47.38 27.19L49.24 23.46L49.24 23.46Q50.26 21.58 51.48 19.99L51.46 19.97L51.55 20.06Q49.88 20.10 48.28 20.10L48.38 20.20L48.38 20.20Q42.25 20.16 38.48 17.96L38.44 17.91L37.72 16.13L37.77 16.18Q37.46 15.37 37.08 14.50L37.15 14.57L37.12 14.54Q41.34 17.05 47.05 17.27L47.05 17.27L47.22 17.44Q52.21 17.53 57.35 15.55L57.49 15.68L57.35 15.54Q57.13 15.94 56.64 16.81L56.82 16.99L56.81 16.98Q53.06 21.60 50.20 27.12ZM58.41 18.36L58.35 18.29L59.30 16.24L59.30 16.24Q58.36 16.74 56.69 17.47L56.59 17.37L56.79 17.08L56.90 17.19Q56.97 16.99 57.08 16.88L57.19 16.98L57.06 16.85Q57.52 16.25 58.25 14.92L58.21 14.88L58.14 14.81Q52.96 17.25 47.21 17.02L47.07 16.88L47.14 16.94Q41.07 16.62 36.31 13.65L36.40 13.74L36.36 13.71Q37.41 15.59 38.25 18.26L38.17 18.18L38.12 18.13Q39.34 18.89 40.14 19.20L40.09 19.15L40.03 19.08Q40.24 19.49 40.70 21.35L40.79 21.45L40.65 21.30Q43.91 22.66 49.43 22.51L49.40 22.48L49.43 22.51Q49.08 23.03 47.10 26.80L47.05 26.75L47.15 26.86Q45.06 26.82 43.08 26.63L43.02 26.57L43.09 26.63Q43.22 27.53 43.22 28.40L43.19 28.37L43.22 30.11L44.75 29.97L44.86 31.50L44.89 31.52Q40.82 38.76 38.05 42.34L38.16 42.46L38.10 42.39Q39.65 41.59 41.29 41.09L41.37 41.17L41.36 41.17Q40.59 41.99 39.22 43.71L39.32 43.80L39.26 43.75Q42.58 42.80 45.01 42.57L44.86 42.41L44.88 42.44Q47.76 38.62 50.88 31.84L50.94 31.90L54.30 32.02L54.45 32.17Q54.33 31.22 54.33 30.30L54.27 30.24L54.23 28.41L54.32 28.51Q54.11 28.56 53.56 28.60L53.58 28.62L53.43 28.47Q53.00 28.63 52.74 28.63L52.62 28.52L52.70 28.60Q52.75 28.53 52.78 28.38L52.72 28.31L52.70 28.02L52.74 28.07Q55.21 22.88 58.30 18.24Z"/><path fill="#66e586" d="M70.19 28.88L70.24 28.93L70.27 28.96Q67.76 29.00 66.74 30.18L66.74 30.19L66.62 30.07Q65.70 31.36 65.70 33.99L65.66 33.94L65.53 33.81Q65.56 38.95 70.17 38.76L70.19 38.78L70.15 38.74Q72.39 39.08 73.74 37.51L73.70 37.47L73.69 37.46Q74.94 35.80 74.71 33.75L74.72 33.75L74.71 33.74Q74.76 31.24 73.88 30.21L73.86 30.19L73.91 30.23Q72.46 28.94 70.25 28.94ZM75.20 38.65L75.17 38.62L75.28 38.73Q74.17 41.27 69.48 41.27L69.48 41.27L68.04 41.28L67.97 41.20Q65.51 41.11 64.41 39.96L64.45 40.00L64.53 40.09Q63.41 38.97 63.14 36.57L63.15 36.58L63.13 36.55Q62.94 35.03 62.87 33.24L62.90 33.28L62.87 33.25Q62.89 32.32 62.74 30.38L62.77 30.41L62.82 30.45Q62.65 26.10 67.83 26.10L67.78 26.05L69.31 26.02L69.44 26.15Q72.20 26.02 74.29 27.31L74.43 27.45L74.39 27.41Q75.27 27.99 75.77 28.67L75.61 28.52L75.75 28.65Q75.86 27.69 76.39 26.06L76.39 26.06L76.54 26.21Q77.69 25.95 80.01 25.34L80.10 25.43L79.93 25.25Q77.46 29.60 77.46 34.85L77.39 34.79L77.40 34.79Q77.38 38.51 78.75 41.59L78.75 41.59L78.72 41.56Q77.62 41.29 75.71 41.07L75.65 41.00L75.67 41.03Q75.62 40.33 75.32 38.77ZM78.52 43.87L78.61 43.96L80.75 44.46L80.73 44.45Q81.99 44.79 82.97 45.24L82.97 45.24L82.93 45.20Q79.28 40.87 79.28 34.77L79.41 34.90L79.28 34.77Q79.28 30.24 81.41 26.43L81.51 26.53L81.49 26.52Q80.78 26.68 79.45 27.06L79.43 27.04L79.56 27.18Q79.86 26.37 80.74 24.85L80.72 24.83L80.66 24.77Q80.06 24.93 76.06 25.77L76.16 25.87L75.64 27.75L75.47 27.57Q73.87 26.01 69.45 25.78L69.30 25.63L69.43 25.76Q68.32 25.80 66.08 25.95L66.04 25.91L66.10 25.97Q62.35 26.25 62.46 30.29L62.48 30.31L62.35 30.18Q62.48 33.50 63.05 37.96L63.05 37.96L63.18 38.51L63.12 38.45Q63.19 39.24 63.99 40.34L64.14 40.49L64.14 40.49Q64.22 40.57 64.41 40.69L64.34 40.62L64.32 40.60Q64.75 41.25 65.13 41.82L65.04 41.73L65.11 41.81Q66.47 43.28 69.86 43.47L69.89 43.50L69.83 43.44Q71.46 43.55 71.61 43.55L71.71 43.65L73.17 43.55L73.20 43.58Q76.33 43.51 77.55 41.95L77.55 41.95L77.55 41.95Q77.98 42.65 78.59 43.94ZM71.98 31.12L72.02 31.17L72.09 31.24Q73.30 31.11 74.13 31.57L74.25 31.68L74.29 31.72Q74.57 32.50 74.57 33.95L74.59 33.96L74.45 33.83Q74.65 35.73 73.37 37.16L73.45 37.24L73.33 37.12Q72.14 38.63 70.23 38.44L70.18 38.39L70.21 38.42Q68.86 38.51 67.83 38.09L67.70 37.96L67.73 38.00Q67.50 37.11 67.50 35.90L67.57 35.97L67.61 36.00Q67.71 32.45 70.33 31.50L70.32 31.49L70.31 31.48Q71.17 31.11 71.97 31.11Z"/><path d="M5 6 C67 33,66 8,133 13" stroke="#edcf77" fill="none"/><path fill="#e36868" d="M22.95 28.80L23.00 28.86L22.86 28.72Q20.35 28.72 19.06 29.86L19.11 29.91L19.20 30.00Q17.75 31.22 17.94 33.73L17.95 33.74L17.78 33.57Q18.03 36.49 19.21 37.55L19.33 37.67L19.30 37.64Q20.72 38.87 22.81 38.72L22.87 38.77L22.87 38.77Q24.98 38.76 26.39 37.50L26.40 37.50L26.39 37.50Q27.72 36.35 27.91 33.80L27.91 33.81L27.89 33.78Q28.25 28.85 22.89 28.74ZM22.87 41.40L22.79 41.32L21.26 41.35L21.18 41.28Q18.41 41.36 16.92 39.95L16.84 39.86L16.99 40.01Q15.82 38.81 15.56 36.87L15.59 36.90L15.67 36.98Q15.48 35.84 15.33 33.63L15.31 33.61L15.28 33.58Q15.34 32.73 15.23 30.48L15.13 30.38L15.08 30.33Q15.11 28.58 16.06 27.44L16.02 27.39L16.02 27.39Q17.81 25.95 22.53 26.10L22.43 26.00L22.59 26.16Q27.42 26.23 29.25 27.75L29.30 27.80L29.18 27.69Q30.64 28.88 30.45 32.08L30.52 32.15L30.57 32.19Q30.27 35.66 30.19 36.08L30.23 36.12L30.14 36.04Q30.01 38.49 28.68 39.67L28.63 39.63L28.54 39.54Q26.52 41.25 22.71 41.25ZM27.46 43.71L27.41 43.66L27.41 43.66Q28.96 43.76 30.86 43.61L30.87 43.62L30.84 43.58Q31.38 43.56 31.38 43.40L31.32 43.34L31.36 43.38Q31.35 43.29 31.31 43.14L31.24 43.07L31.26 43.09Q31.29 43.01 31.29 42.89L31.33 42.93L31.22 42.83Q31.34 42.68 31.69 42.37L31.60 42.29L31.68 42.37Q32.51 41.18 32.51 39.28L32.54 39.31L32.45 39.21Q32.44 38.26 32.35 35.84L32.32 35.81L32.37 35.86Q32.32 33.50 32.17 32.39L32.11 32.33L32.15 32.37Q31.69 30.16 30.78 29.02L30.93 29.17L30.51 28.86L30.59 28.95Q30.40 28.26 29.60 27.35L29.60 27.35L29.52 27.26Q27.42 25.74 22.51 25.74L22.51 25.74L20.74 25.72L20.64 25.62Q17.40 25.69 15.68 27.06L15.61 26.98L15.56 26.93Q14.75 28.11 14.79 30.12L14.77 30.11L14.79 30.12Q14.83 30.58 14.97 31.84L14.97 31.84L14.89 31.76Q15.08 33.08 15.04 33.53L15.10 33.59L15.01 33.50Q15.31 36.62 15.39 37.08L15.34 37.03L15.47 37.16Q15.73 39.17 16.65 40.32L16.71 40.38L16.69 40.43L16.87 40.62Q17.55 42.93 21.28 43.35L21.42 43.50L21.45 43.52Q22.32 43.63 27.57 43.82ZM24.69 31.00L24.86 31.17L24.81 31.12Q25.72 31.19 27.39 31.72L27.27 31.60L27.33 31.66Q27.58 32.29 27.54 33.77L27.68 33.91L27.66 33.90Q27.49 37.30 24.59 38.06L24.67 38.14L24.65 38.12Q23.99 38.37 22.96 38.49L22.92 38.44L22.81 38.33Q21.81 38.44 20.10 37.83L20.16 37.89L20.18 37.91Q19.79 37.06 19.83 35.58L19.94 35.70L19.94 35.69Q20.00 33.35 21.37 32.32L21.26 32.21L21.42 32.38Q22.17 31.34 24.73 31.04Z"/><path d="M21 1 C89 24,91 36,140 46" stroke="#7cedb5" fill="none"/><path fill="#3ae2e2" d="M96.72 30.48L96.62 30.38L96.70 30.45Q93.20 36.78 89.78 40.74L89.78 40.74L89.74 40.70Q87.84 41.09 85.41 41.97L85.52 42.08L85.47 42.03Q90.39 36.44 95.15 28.03L95.08 27.96L95.08 27.96Q90.46 20.99 84.49 14.59L84.60 14.71L84.54 14.64Q87.54 15.93 89.83 16.43L89.66 16.26L89.73 16.33Q94.40 21.57 96.84 25.53L96.93 25.63L96.79 25.49Q99.44 21.20 103.36 16.79L103.18 16.60L103.37 16.80Q104.96 16.48 108.15 15.72L108.13 15.69L108.12 15.69Q102.03 22.12 98.57 28.06L98.47 27.97L98.42 27.91Q103.71 36.71 108.09 41.28L108.16 41.35L108.12 41.31Q105.47 40.44 103.37 40.21L103.33 40.17L103.44 40.28Q100.58 37.23 96.66 30.42ZM103.25 40.51L103.40 40.66L103.35 40.61Q103.64 40.63 104.10 40.75L104.04 40.69L104.14 40.79Q104.84 41.45 106.36 43.05L106.45 43.14L106.30 42.99Q109.76 43.90 112.81 45.27L112.72 45.18L112.83 45.29Q105.58 38.58 100.48 29.82L100.59 29.93L100.53 29.87Q104.25 23.20 110.15 16.34L110.22 16.41L110.19 16.38Q108.76 17.05 106.59 17.58L106.55 17.54L106.54 17.53Q107.51 16.71 109.26 14.92L109.15 14.81L109.17 14.83Q106.75 15.69 103.06 16.26L103.22 16.42L103.09 16.28Q99.60 20.04 97.01 24.34L97.20 24.53L97.15 24.48Q96.25 22.89 95.07 21.40L94.98 21.32L92.77 18.46L92.40 18.46L92.33 18.40Q92.24 18.46 92.02 18.39L92.04 18.41L91.87 18.24Q91.33 17.55 89.85 15.99L89.81 15.96L89.83 15.98Q86.05 15.13 83.46 13.75L83.45 13.74L83.48 13.77Q90.07 20.90 94.64 27.94L94.69 27.99L94.65 27.95Q90.18 36.16 84.43 42.74L84.45 42.76L84.54 42.85Q85.72 42.05 87.85 41.48L87.90 41.53L86.71 43.08L86.57 42.94Q86.59 42.96 85.26 44.29L85.21 44.24L85.29 44.32Q88.29 43.25 91.45 42.76L91.55 42.86L91.51 42.82Q95.42 38.20 98.01 33.44L98.02 33.45L98.08 33.51Q100.61 37.72 103.32 40.58Z"/></svg>