<svg xmlns="http://www.w3.org/2000/svg" width="150" height="50" viewBox="0,0,150,50"><rect width="100%" height="100%" fill="white"/><path fill="#896cde" d="M88.99 41.04L89.05 41.10L89.08 41.13Q92.21 36.84 98.91 28.92L98.87 28.88L98.85 28.86Q92.98 29.11 89.21 27.74L89.28 27.81L89.34 27.87Q88.47 26.24 87.71 24.84L87.83 24.96L87.86 24.99Q91.81 26.35 96.27 26.39L96.44 26.56L96.35 26.47Q100.92 26.62 105.10 25.56L104.98 25.43L104.97 25.42Q104.56 26.08 104.30 26.61L104.38 26.70L104.26 26.58Q101.77 28.85 98.96 32.47L99.04 32.54L94.07 38.69L94.02 38.65Q96.34 38.53 98.59 38.60L98.64 38.66L98.64 38.66Q100.74 38.63 102.99 39.01L102.91 38.93L102.91 38.93Q103.12 39.60 103.84 41.61L103.89 41.67L103.90 41.67Q100.04 40.70 96.04 40.82L96.11 40.88L96.14 40.92Q92.11 40.96 88.45 42.14L88.43 42.12L88.48 42.17Q88.67 42.13 89.12 41.17ZM87.88 42.75L87.93 42.79L88.01 42.88Q88.78 42.54 90.38 42.12L90.44 42.19L90.35 42.10Q90.04 42.24 89.62 42.66L89.59 42.63L89.63 42.67Q89.38 43.22 88.77 44.36L88.83 44.42L88.83 44.42Q93.62 43.15 98.60 43.30L98.50 43.20L98.56 43.27Q103.48 43.39 108.05 45.25L108.14 45.34L108.10 45.30Q106.68 43.46 105.77 41.41L105.65 41.29L105.71 41.35Q104.90 41.00 103.83 40.77L103.95 40.89L103.78 40.72Q103.68 40.09 103.30 38.64L103.21 38.55L103.38 38.72Q101.68 38.23 98.10 38.12L98.10 38.12L98.13 38.15Q100.51 34.82 105.53 28.46L105.55 28.48L105.52 28.44Q105.89 27.82 106.57 26.49L106.44 26.36L104.15 27.11L104.32 27.28Q104.41 27.22 104.56 27.10L104.54 27.08L104.69 26.85L104.61 26.77Q105.16 25.80 105.73 24.85L105.71 24.83L105.62 24.74Q101.01 26.14 96.29 26.06L96.23 26.01L96.41 26.19Q91.62 26.12 87.13 24.29L86.96 24.12L87.10 24.27Q88.23 26.08 89.03 28.13L88.99 28.09L88.94 28.05Q89.80 28.37 90.86 28.64L90.98 28.76L90.99 28.76Q91.20 29.47 91.50 30.91L91.41 30.82L91.42 30.83Q92.92 31.00 96.23 31.15L96.40 31.32L96.38 31.30Q93.89 34.52 88.71 40.95L88.76 41.00L88.81 41.05Q88.47 41.54 87.90 42.76Z"/><path fill="#9bdb5b" d="M45.43 40.00L45.41 39.98L45.35 39.91Q41.25 39.44 39.43 37.99L39.44 38.00L39.25 37.81Q37.47 36.41 37.05 33.40L37.06 33.42L37.02 33.38Q37.08 33.09 36.73 28.33L36.67 28.27L36.81 28.40Q36.81 27.19 36.74 25.94L36.66 25.86L36.70 25.90Q36.58 20.90 38.78 19.15L38.75 19.12L38.72 19.09Q41.37 16.98 49.14 16.29L49.25 16.41L49.25 16.41Q50.49 16.16 52.13 16.20L52.19 16.26L52.20 16.28Q52.04 16.11 55.01 16.11L55.10 16.21L55.01 16.11Q55.95 16.21 57.66 16.37L57.69 16.40L57.64 16.34Q57.16 17.31 56.13 20.40L56.21 20.47L56.04 20.31Q54.12 19.26 51.11 19.26L50.95 19.09L50.99 19.14Q50.17 19.08 49.37 19.15L49.56 19.35L49.41 19.20Q44.43 19.77 41.92 21.75L41.76 21.59L41.79 21.63Q39.93 23.38 39.77 26.73L39.75 26.71L39.78 26.74Q39.71 27.31 39.75 28.57L39.68 28.50L39.70 28.52Q39.73 33.27 42.13 35.36L42.19 35.42L42.25 35.49Q44.31 37.32 49.30 37.63L49.44 37.77L49.41 37.73Q52.49 37.84 55.50 36.05L55.55 36.11L55.55 36.11Q56.18 38.87 56.79 40.25L56.66 40.11L56.66 40.11Q54.56 40.37 52.92 40.33L52.96 40.37L52.96 40.37Q48.52 40.34 45.40 39.96ZM60.46 43.65L60.53 43.72L60.53 43.72Q58.72 40.68 58.03 38.09L58.07 38.14L58.00 38.07Q57.62 38.37 56.63 38.75L56.59 38.71L56.58 38.70Q56.20 37.86 56.01 37.03L56.15 37.16L55.60 35.28L55.66 35.35Q52.38 37.39 49.26 37.28L49.22 37.24L49.35 37.37Q45.07 37.17 42.75 35.42L42.67 35.34L42.72 35.38Q41.52 33.50 41.59 30.56L41.67 30.64L41.56 30.53Q41.78 26.11 44.26 23.98L44.32 24.04L44.19 23.91Q46.31 22.00 50.99 21.39L51.05 21.44L51.11 21.50Q51.82 21.30 52.55 21.30L52.53 21.29L52.51 21.27Q55.30 21.28 57.39 22.80L57.43 22.84L57.40 22.80Q58.03 20.81 59.25 17.57L59.16 17.49L59.25 17.57Q58.93 17.52 58.38 17.47L58.32 17.41L58.40 17.49Q57.90 17.48 57.64 17.48L57.56 17.41L57.56 17.41Q57.70 16.83 58.16 15.84L58.20 15.88L58.24 15.92Q57.91 15.82 55.42 15.74L55.56 15.88L55.39 15.71Q52.99 15.73 52.34 15.77L52.28 15.71L52.23 15.66Q41.76 16.03 38.29 18.62L38.34 18.67L38.44 18.77Q36.31 20.49 36.31 24.41L36.28 24.37L36.33 24.43Q36.43 25.63 36.54 28.33L36.38 28.17L36.41 28.20Q36.62 31.83 36.85 33.55L36.82 33.52L36.87 33.57Q37.22 36.66 38.82 38.18L38.68 38.05L38.82 38.19Q39.21 38.77 40.47 39.91L40.61 40.05L40.53 39.97Q43.80 41.75 49.05 42.51L48.97 42.44L48.98 42.44Q55.47 43.45 60.46 43.64Z"/><path fill="#52da52" d="M70.38 29.83L70.46 29.91L70.35 29.80Q70.23 29.91 69.93 29.91L69.85 29.84L69.80 29.78Q68.43 29.75 66.98 30.59L67.14 30.74L67.07 30.67Q65.82 31.86 65.82 33.76L65.78 33.72L65.83 33.77Q65.80 37.16 67.32 38.50L67.25 38.43L67.19 38.37Q68.15 39.56 70.44 39.56L70.44 39.56L70.56 39.68Q70.81 39.71 71.12 39.71L70.99 39.58L70.99 39.58Q72.74 39.61 73.88 37.97L73.90 38.00L74.00 38.09Q74.95 36.49 74.87 34.70L74.95 34.78L74.82 34.65Q74.94 34.24 74.94 33.82L75.00 33.88L75.04 33.92Q74.86 31.95 73.49 30.79L73.51 30.81L73.62 30.92Q72.12 29.63 70.33 29.78ZM74.88 40.00L74.84 39.96L74.93 40.06Q73.87 41.92 70.14 42.04L70.15 42.05L70.26 42.16Q66.74 42.14 65.14 40.54L65.21 40.61L65.21 40.62Q63.67 38.77 62.87 33.97L62.88 33.98L62.89 33.99Q62.60 32.25 62.60 30.99L62.63 31.03L62.54 30.93Q62.70 29.31 63.43 28.25L63.26 28.08L63.32 28.14Q64.77 26.85 67.74 26.85L67.59 26.69L67.69 26.80Q74.08 26.87 75.99 29.46L76.00 29.48L76.00 29.48Q76.01 28.50 76.43 26.90L76.45 26.92L76.52 26.99Q77.70 26.60 80.13 25.81L80.20 25.87L80.24 25.91Q77.79 31.53 77.56 37.85L77.53 37.82L77.60 37.89Q77.30 43.99 79.44 49.81L79.47 49.85L79.42 49.80Q77.64 49.12 75.85 48.85L75.91 48.91L75.91 48.91Q74.95 44.91 74.83 39.96ZM75.75 49.32L75.62 49.19L75.75 49.33Q76.39 49.40 77.80 49.70L77.90 49.80L77.89 49.79Q78.06 50.45 78.63 51.86L78.54 51.78L78.66 51.90Q81.29 52.65 83.57 53.95L83.39 53.77L83.40 53.78Q79.47 47.29 79.47 38.77L79.41 38.70L79.47 38.77Q79.36 32.30 81.83 26.51L81.98 26.66L81.83 26.51Q81.26 26.93 79.89 27.58L79.78 27.46L79.85 27.53Q80.13 26.71 80.78 25.15L80.80 25.18L80.87 25.25Q79.33 25.80 76.13 26.67L76.15 26.70L76.01 26.55Q75.90 27.13 75.59 28.31L75.67 28.38L75.58 28.29Q73.64 26.47 67.51 26.32L67.51 26.31L67.54 26.34Q64.34 26.27 62.97 27.75L63.05 27.83L62.97 27.75Q62.19 28.88 62.23 30.78L62.23 30.78L62.15 30.70Q62.25 33.70 63.24 37.47L63.33 37.56L63.24 37.47Q64.02 39.99 64.93 40.95L64.82 40.84L65.37 41.38L65.21 41.22Q66.39 44.00 71.83 44.23L72.00 44.39L71.98 44.38Q72.98 44.39 74.81 44.08L74.86 44.13L74.69 43.96Q75.10 47.00 75.71 49.28ZM72.21 32.08L72.35 32.22L72.22 32.09Q73.43 32.24 74.27 32.54L74.23 32.50L74.21 32.48Q74.38 32.99 74.50 33.60L74.50 33.61L74.55 33.66Q74.52 34.09 74.44 34.69L74.50 34.75L74.63 34.88Q74.52 36.68 73.49 37.97L73.53 38.01L73.60 38.07Q72.31 39.38 70.45 39.19L70.40 39.14L70.49 39.23Q69.25 39.28 68.30 38.87L68.21 38.78L68.30 38.86Q67.95 38.06 67.95 36.84L67.98 36.88L67.85 36.74Q67.93 36.52 67.93 36.21L67.96 36.25L67.84 36.12Q67.79 34.32 69.12 33.16L69.26 33.30L69.29 33.33Q70.50 32.04 72.25 32.12Z"/><path fill="#c65ce9" d="M121.55 28.74L121.64 28.83L121.59 28.77Q119.07 28.77 117.77 29.91L117.69 29.82L117.85 29.99Q116.26 31.06 116.45 33.58L116.60 33.72L116.55 33.67Q116.80 36.59 117.98 37.65L117.99 37.67L118.04 37.71Q119.43 38.91 121.52 38.76L121.45 38.69L121.63 38.87Q123.62 38.73 125.03 37.47L125.02 37.46L125.14 37.58Q126.47 36.44 126.66 33.89L126.61 33.83L126.55 33.77Q126.93 28.86 121.56 28.75ZM121.49 41.36L121.41 41.28L119.88 41.30L119.82 41.24Q117.10 41.38 115.62 39.97L115.58 39.93L115.60 39.95Q114.49 38.81 114.23 36.87L114.30 36.95L114.21 36.86Q114.24 35.94 114.09 33.73L113.91 33.54L113.99 33.62Q114.02 32.75 113.91 30.50L113.75 30.34L113.83 30.42Q113.80 28.60 114.75 27.46L114.71 27.42L114.72 27.42Q116.43 25.90 121.15 26.06L121.08 25.98L121.13 26.03Q126.11 26.26 127.94 27.78L127.96 27.80L127.97 27.81Q129.43 29.00 129.24 32.20L129.12 32.09L129.25 32.21Q129.05 35.78 128.98 36.20L128.96 36.18L128.99 36.21Q128.62 38.43 127.29 39.61L127.35 39.68L127.21 39.53Q125.21 41.27 121.41 41.27ZM126.19 43.77L126.12 43.69L126.18 43.76Q127.73 43.86 129.63 43.71L129.61 43.68L129.56 43.64Q130.05 43.55 130.05 43.40L129.98 43.33L130.13 43.49Q130.13 43.41 130.09 43.26L130.02 43.19L130.04 43.21Q129.88 42.93 129.88 42.81L129.87 42.80L129.98 42.91Q130.02 42.69 130.37 42.39L130.30 42.32L130.21 42.23Q131.16 41.17 131.16 39.26L131.18 39.28L131.17 39.27Q131.23 38.38 131.14 35.96L131.12 35.94L131.16 35.99Q130.92 33.43 130.77 32.32L130.87 32.42L130.74 32.30Q130.39 30.19 129.48 29.05L129.46 29.03L129.15 28.84L129.23 28.92Q129.12 28.31 128.32 27.39L128.30 27.38L128.34 27.42Q125.97 25.62 121.06 25.62L121.16 25.72L119.28 25.60L119.26 25.57Q116.00 25.62 114.28 26.99L114.27 26.98L114.37 27.08Q113.37 28.06 113.41 30.07L113.44 30.11L113.43 30.10Q113.47 30.56 113.61 31.82L113.70 31.91L113.59 31.80Q113.70 33.03 113.66 33.49L113.67 33.50L113.73 33.56Q113.99 36.63 114.06 37.09L114.02 37.05L113.97 36.99Q114.43 39.21 115.34 40.35L115.25 40.26L115.47 40.55L115.51 40.59Q116.38 43.10 120.12 43.52L119.94 43.35L120.06 43.46Q120.98 43.62 126.24 43.81ZM123.43 31.07L123.38 31.02L123.52 31.16Q124.34 31.15 126.01 31.68L126.05 31.72L125.91 31.57Q126.32 32.36 126.28 33.84L126.34 33.90L126.31 33.87Q126.14 37.28 123.25 38.05L123.25 38.05L123.35 38.15Q122.60 38.32 121.57 38.43L121.61 38.47L121.45 38.31Q120.49 38.45 118.78 37.84L118.86 37.93L118.82 37.88Q118.62 37.23 118.66 35.74L118.62 35.70L118.59 35.68Q118.60 33.28 119.97 32.25L119.97 32.26L120.05 32.34Q120.87 31.37 123.42 31.06Z"/><path d="M10 18 C61 2,91 33,138 40" stroke="#e76988" fill="none"/><path fill="#4db7da" d="M19.06 19.41L19.00 19.36L19.08 19.43Q19.95 23.69 20.10 27.27L20.01 27.17L19.93 27.09Q21.13 27.27 22.19 27.27L22.20 27.27L24.42 27.29L24.40 27.26Q25.47 27.27 26.35 25.86L26.34 25.85L26.34 25.85Q26.95 24.56 27.06 23.38L27.19 23.51L27.15 23.47Q27.55 20.48 23.33 19.99L23.19 19.85L23.26 19.92Q21.62 19.92 18.99 19.35ZM20.12 30.02L20.06 29.97L20.01 29.92Q19.88 36.07 18.73 40.48L18.86 40.60L18.88 40.63Q17.34 40.96 15.02 42.02L15.02 42.02L15.11 42.11Q17.42 35.40 17.15 28.13L17.08 28.05L17.19 28.16Q16.80 20.69 14.02 14.26L14.12 14.35L14.04 14.28Q18.27 17.14 24.52 17.14L24.45 17.07L24.53 17.15Q30.46 17.03 30.62 20.50L30.58 20.47L30.60 20.48Q30.82 23.06 29.83 25.73L29.77 25.67L29.73 25.63Q29.36 26.78 28.41 28.00L28.39 27.98L28.29 27.88Q27.07 29.59 24.52 29.86L24.61 29.95L24.52 29.86Q22.29 29.91 20.04 29.95ZM26.26 32.29L26.22 32.24L26.24 32.26Q30.40 32.51 31.66 27.71L31.64 27.69L31.52 27.57Q32.56 24.00 32.41 21.98L32.42 21.99L32.41 21.99Q32.17 20.34 31.41 19.35L31.55 19.49L31.43 19.37Q31.08 19.02 30.58 18.79L30.59 18.79L30.69 18.90Q30.70 18.75 30.09 17.99L29.99 17.89L29.97 17.88Q28.58 16.71 24.62 16.71L24.57 16.66L24.53 16.62Q17.71 16.69 13.48 13.53L13.39 13.43L13.45 13.50Q16.50 20.47 16.77 27.93L16.79 27.95L16.83 27.99Q17.19 35.74 14.52 42.82L14.46 42.75L14.42 42.72Q15.64 42.22 16.63 41.84L16.62 41.83L16.07 42.81L16.14 42.87Q15.96 43.45 15.69 44.02L15.66 43.99L15.69 44.02Q18.05 42.92 20.94 42.39L20.95 42.40L21.09 42.53Q21.81 36.90 21.89 32.18L21.92 32.21L21.91 32.20Q22.98 32.09 23.97 32.09L24.08 32.20L24.00 32.11Q25.43 32.22 26.23 32.26ZM25.30 22.34L25.24 22.28L25.32 22.36Q25.76 22.30 26.74 22.53L26.73 22.51L26.73 22.52Q26.86 22.76 26.90 23.06L26.95 23.11L26.93 23.09Q26.98 23.37 26.90 23.64L26.87 23.60L26.91 23.64Q26.76 24.83 26.04 25.71L25.93 25.59L26.06 25.73Q25.50 26.80 24.47 26.99L24.48 27.00L24.31 26.83Q23.60 26.84 21.96 26.84L22.00 26.89L22.03 26.92Q21.96 24.60 21.73 22.23L21.65 22.16L23.37 22.20L23.55 22.38Q24.40 22.39 25.27 22.31Z"/><path d="M11 32 C89 42,92 25,136 12" stroke="#52df99" fill="none"/><path d="M18 7 C54 3,57 9,139 49" stroke="#e38c8c" fill="none"/></svg>