<svg xmlns="http://www.w3.org/2000/svg" width="150" height="50" viewBox="0,0,150,50"><rect width="100%" height="100%" fill="white"/><path fill="#a6e890" d="M45.70 27.63L45.71 27.63L45.78 27.71Q43.53 27.71 42.26 29.21L42.20 29.16L42.18 29.13Q40.99 30.73 40.88 33.01L40.78 32.91L40.85 32.98Q40.79 35.70 41.63 36.65L41.47 36.49L41.51 36.54Q42.73 37.91 45.05 37.75L45.06 37.76L45.07 37.78Q49.55 37.30 49.93 34.30L49.93 34.29L50.03 34.40Q50.07 33.52 50.07 32.72L50.13 32.78L50.09 32.74Q50.09 30.76 48.95 29.24L48.96 29.25L48.88 29.17Q47.65 27.60 45.71 27.64ZM50.51 37.69L50.59 37.78L50.60 37.79Q49.13 39.93 44.76 40.16L44.75 40.16L44.80 40.20Q40.44 40.18 38.80 39.08L38.94 39.22L38.91 39.19Q37.88 38.19 37.73 36.48L37.72 36.47L37.76 36.51Q37.65 35.34 37.84 33.48L37.87 33.50L37.95 33.59Q38.52 29.36 39.74 27.53L39.71 27.50L39.56 27.35Q41.30 24.98 45.15 25.02L45.10 24.97L45.16 25.04Q47.71 25.11 49.99 27.43L49.98 27.41L49.83 27.27Q49.94 21.44 51.54 14.93L51.57 14.96L51.54 14.93Q53.51 14.58 55.37 13.74L55.41 13.77L55.47 13.84Q52.77 20.34 52.50 27.35L52.53 27.37L52.53 27.37Q52.27 34.57 54.40 41.16L54.31 41.08L54.29 41.05Q52.66 40.45 50.94 40.07L51.06 40.19L50.99 40.12Q50.75 38.89 50.60 37.78ZM53.66 43.28L53.58 43.20L53.53 43.15Q55.60 43.70 58.15 45.22L58.21 45.28L58.30 45.37Q54.53 38.24 54.37 29.94L54.34 29.91L54.42 29.99Q54.26 21.76 57.34 14.38L57.26 14.29L57.33 14.36Q56.55 14.72 55.10 15.37L55.17 15.44L55.16 15.43Q55.51 14.29 56.12 13.08L56.10 13.05L56.12 13.08Q53.81 14.23 51.37 14.80L51.27 14.70L51.37 14.80Q49.89 20.55 49.62 26.64L49.61 26.62L49.50 26.52Q47.56 24.65 45.04 24.54L45.11 24.60L45.18 24.67Q41.67 24.47 39.76 26.57L39.73 26.53L39.85 26.66Q38.06 28.93 37.64 33.62L37.76 33.73L37.61 33.59Q37.31 36.29 37.31 36.71L37.44 36.84L37.38 36.78Q37.50 38.58 38.65 39.65L38.52 39.52L38.55 39.55Q38.76 39.76 38.95 39.84L38.97 39.86L39.55 40.62L39.42 40.50Q40.51 41.97 43.48 42.24L43.50 42.26L43.44 42.20Q45.68 42.38 47.05 42.45L46.96 42.36L46.94 42.34Q51.28 42.69 52.99 41.36L52.94 41.30L52.83 41.20Q53.14 42.07 53.59 43.21ZM47.32 29.94L47.32 29.94L47.35 29.97Q48.36 29.95 49.20 30.44L49.17 30.41L49.15 30.39Q49.66 31.71 49.74 32.74L49.80 32.79L49.69 32.68Q50.07 36.98 45.04 37.33L45.10 37.38L45.02 37.31Q44.16 37.35 43.05 37.09L43.12 37.16L43.04 37.08Q42.84 36.49 42.76 35.96L42.67 35.87L42.67 35.87Q42.79 35.37 42.82 34.76L42.66 34.60L42.78 34.72Q42.94 31.15 45.57 30.16L45.61 30.20L45.64 30.23Q46.65 29.91 47.34 29.95Z"/><path d="M9 34 C91 10,75 42,142 31" stroke="#e4b280" fill="none"/><path d="M7 5 C83 46,95 42,143 2" stroke="#37e6e6" fill="none"/><path d="M13 6 C62 14,67 4,141 41" stroke="#e88462" fill="none"/><path fill="#e55b7e" d="M124.88 41.24L124.88 41.24L121.90 41.12L121.93 41.15Q119.48 40.98 118.68 40.87L118.72 40.90L118.68 40.87Q116.83 40.50 115.65 39.62L115.75 39.72L115.64 39.61Q114.40 38.26 114.17 34.91L114.09 34.83L114.09 34.83Q114.10 34.38 114.02 33.16L113.97 33.11L114.00 33.15Q113.97 32.69 113.90 31.59L113.95 31.65L113.91 31.60Q113.95 30.84 113.98 30.12L114.03 30.17L113.92 30.05Q114.18 28.18 115.21 27.42L115.15 27.37L115.24 27.45Q117.09 26.21 121.92 25.99L121.97 26.04L121.94 26.00Q123.89 25.83 124.69 25.83L124.71 25.85L124.84 25.97Q126.36 26.01 127.73 26.32L127.66 26.25L127.67 26.25Q127.01 27.42 126.48 29.25L126.56 29.33L126.53 29.30Q126.03 29.37 125.53 29.33L125.45 29.25L125.47 29.27Q125.36 29.23 124.82 29.12L124.97 29.26L123.88 28.90L123.95 28.97Q122.83 28.64 122.22 28.68L122.24 28.70L122.34 28.80Q117.63 28.89 117.02 31.71L117.01 31.69L117.02 31.71Q116.76 32.86 116.84 33.81L116.84 33.81L116.66 33.63Q116.98 36.38 118.21 37.47L118.07 37.32L118.10 37.36Q119.31 38.42 121.90 38.45L121.94 38.49L121.94 38.49Q123.54 38.64 124.26 38.34L124.27 38.35L125.18 37.74L125.23 37.79Q125.77 37.56 126.34 37.48L126.35 37.50L126.33 37.48Q126.59 39.30 126.97 40.59L126.88 40.50L126.93 40.55Q126.75 40.98 124.96 41.32ZM128.12 44.18L128.13 44.18L128.20 44.25Q128.42 44.13 129.26 44.21L129.33 44.28L129.38 44.33Q130.06 44.40 130.40 43.83L130.37 43.80L130.28 43.71Q129.18 41.73 128.68 39.64L128.67 39.62L128.63 39.58Q128.21 39.47 127.76 39.47L127.82 39.53L127.85 39.57Q127.33 39.46 126.95 39.65L127.11 39.82L127.12 39.83Q126.65 38.45 126.50 37.04L126.46 36.99L126.57 37.11Q125.82 36.89 124.61 37.47L124.71 37.57L124.80 37.66Q123.51 38.16 123.01 38.16L123.02 38.16L123.09 38.23Q122.49 38.13 121.88 38.09L121.99 38.20L121.91 38.12Q120.92 38.00 118.94 37.43L119.02 37.52L119.04 37.53Q118.63 36.74 118.67 35.60L118.79 35.72L118.66 35.59Q118.98 31.49 123.93 30.96L123.79 30.82L123.87 30.90Q124.61 30.96 125.98 31.30L125.90 31.22L125.90 31.22Q127.37 31.66 128.09 31.62L127.99 31.52L128.00 31.54Q128.47 29.34 129.16 27.51L129.21 27.56L129.05 27.40Q128.82 27.44 128.44 27.36L128.35 27.28L127.58 27.19L127.59 27.20Q127.81 26.74 128.19 25.86L128.08 25.75L128.20 25.87Q126.59 25.44 125.03 25.44L125.06 25.47L125.00 25.41Q122.68 25.49 118.31 25.87L118.23 25.80L118.34 25.91Q116.34 26.00 114.78 26.99L114.78 26.99L114.84 27.05Q113.56 27.94 113.56 29.84L113.60 29.88L113.49 29.77Q113.53 30.24 113.65 31.46L113.77 31.58L113.70 31.51Q113.80 32.56 113.76 33.17L113.78 33.19L113.78 33.19Q113.83 35.10 114.55 38.83L114.59 38.87L114.54 38.82Q114.91 39.64 115.40 40.14L115.42 40.15L115.57 40.31L115.57 40.27L115.56 40.26Q116.64 42.45 120.57 43.06L120.51 43.00L120.64 43.13Q123.76 43.59 126.42 43.85L126.38 43.81L126.41 43.83Q127.28 43.98 128.19 44.25Z"/><path fill="#e358e3" d="M71.31 41.23L71.19 41.11L69.54 41.17L69.45 41.08Q66.08 41.10 65.13 38.97L65.12 38.96L65.25 39.09Q66.41 38.04 67.86 36.94L67.87 36.95L67.79 36.87Q68.44 39.12 71.29 38.97L71.28 38.95L71.27 38.95Q71.92 38.76 72.95 38.53L73.13 38.71L72.96 38.54Q73.98 38.12 73.91 37.17L73.96 37.22L73.92 37.18Q73.83 36.06 72.04 35.38L72.09 35.42L68.19 33.81L68.15 33.77Q65.91 32.52 65.57 28.98L65.56 28.97L65.62 29.03Q65.32 26.79 67.49 26.22L67.56 26.28L67.54 26.27Q68.42 25.97 71.39 25.97L71.43 26.01L71.36 25.94Q76.32 26.02 77.23 28.54L77.16 28.46L77.29 28.59Q76.58 29.07 75.86 29.52L75.81 29.47L74.47 30.50L74.47 30.50Q74.00 28.62 70.77 28.39L70.76 28.39L70.79 28.41Q70.13 28.36 69.10 28.78L69.22 28.90L69.10 28.78Q68.59 29.18 68.59 30.28L68.58 30.28L68.59 30.29Q68.99 31.41 70.82 32.09L70.76 32.04L70.67 31.95Q71.80 32.39 74.46 33.50L74.48 33.51L74.37 33.40Q76.24 34.28 76.43 36.83L76.39 36.79L76.52 36.92Q76.57 37.55 76.50 38.54L76.41 38.45L76.38 38.42Q76.40 39.36 75.83 40.01L75.93 40.10L75.93 40.10Q74.29 41.16 71.24 41.16ZM75.95 43.70L75.91 43.66L76.04 43.79Q76.92 43.79 78.29 43.49L78.28 43.48L78.32 43.52Q79.25 42.70 79.06 41.49L79.23 41.65L79.09 41.51Q79.01 40.94 78.71 39.34L78.72 39.35L78.73 39.36Q78.19 36.42 76.40 35.20L76.53 35.33L76.52 35.33Q75.92 33.85 74.67 33.13L74.67 33.13L74.70 33.16Q73.49 32.79 71.01 31.83L70.90 31.72L70.88 31.70Q71.13 31.35 71.40 31.23L71.36 31.19L71.31 31.14Q72.03 30.80 72.68 30.76L72.49 30.57L72.65 30.73Q73.39 30.63 74.15 30.90L74.08 30.83L74.13 30.96L74.33 31.04L74.45 30.97L74.46 31.01L74.51 31.07Q75.65 31.60 75.84 32.85L75.85 32.86L75.74 32.76Q76.97 31.89 78.87 30.22L78.91 30.25L79.04 30.38Q78.63 29.51 77.64 28.33L77.67 28.37L77.69 28.38Q76.57 25.70 71.47 25.59L71.41 25.53L71.43 25.55Q68.20 25.45 66.22 26.02L66.41 26.20L66.23 26.02Q64.86 26.63 65.09 28.73L65.14 28.78L65.11 28.75Q65.17 29.95 66.08 32.04L66.18 32.14L66.15 32.11Q66.76 33.29 67.78 34.01L67.69 33.92L67.72 33.94Q68.34 35.36 69.63 36.05L69.62 36.04L69.60 36.02Q70.67 36.40 71.62 36.79L71.59 36.75L73.41 37.43L73.55 37.57Q73.20 38.66 71.26 38.55L71.19 38.48L71.27 38.56Q70.79 38.58 69.57 38.28L69.65 38.35L69.49 38.04L69.46 38.24L69.47 38.25Q68.51 37.78 67.86 36.30L67.97 36.41L68.00 36.43Q65.78 37.91 64.67 39.05L64.75 39.13L64.71 39.08Q64.94 39.93 65.97 40.73L66.00 40.76L65.88 40.94L65.91 40.97Q67.20 42.95 71.43 43.33L71.44 43.34L71.46 43.36Q72.80 43.56 76.03 43.79Z"/><path fill="#90bce9" d="M105.17 41.61L105.20 41.64L105.17 41.61Q103.00 41.16 100.83 41.01L100.91 41.09L100.89 41.07Q99.40 39.57 96.74 35.73L96.78 35.77L96.72 35.71Q94.53 38.81 92.13 41.25L92.18 41.30L90.12 41.72L90.00 41.59Q88.99 41.84 88.00 42.11L87.99 42.09L88.06 42.17Q92.21 38.01 95.22 33.90L95.19 33.88L95.22 33.91Q91.97 29.74 86.56 24.94L86.53 24.92L86.52 24.90Q88.78 25.67 91.48 26.09L91.53 26.15L91.41 26.02Q94.81 29.08 96.71 31.78L96.86 31.93L96.82 31.89Q98.92 28.81 101.66 26.30L101.65 26.29L101.71 26.35Q104.65 25.90 106.48 25.41L106.49 25.42L106.48 25.41Q102.06 29.17 98.37 33.74L98.27 33.64L98.28 33.65Q101.59 38.26 105.06 41.50ZM107.96 24.68L108.05 24.77L107.94 24.67Q105.01 25.46 101.47 25.80L101.61 25.95L101.47 25.80Q98.65 28.55 96.94 31.02L96.84 30.92L97.02 31.10Q95.97 29.90 94.34 27.92L94.51 28.10L94.22 28.00L94.26 28.04Q94.01 27.90 93.90 27.90L93.97 27.98L94.04 28.05Q93.12 27.05 91.49 25.61L91.64 25.76L91.54 25.65Q88.01 25.17 85.15 23.95L85.14 23.94L85.06 23.86Q90.67 28.74 94.70 33.88L94.78 33.96L94.60 33.78Q91.44 38.61 87.02 42.91L87.02 42.91L86.95 42.84Q87.18 42.73 90.68 41.89L90.72 41.93L90.65 41.87Q89.16 43.23 87.52 44.56L87.46 44.50L87.54 44.58Q90.70 43.62 93.86 43.43L93.87 43.45L93.78 43.36Q96.19 41.12 98.09 38.37L98.24 38.53L98.12 38.41Q99.53 40.16 100.75 41.34L100.70 41.29L100.79 41.38Q100.84 41.31 100.91 41.39L101.01 41.49L101.10 41.38L101.11 41.39Q102.48 42.62 103.81 43.68L103.83 43.69L103.83 43.70Q107.40 44.22 110.29 45.25L110.20 45.16L110.20 45.15Q103.99 40.66 100.30 35.49L100.39 35.57L100.32 35.51Q104.00 30.51 108.57 26.44L108.56 26.43L108.63 26.49Q107.71 26.87 106.72 27.10L106.63 27.01L104.67 27.52L104.62 27.47Q105.86 26.61 108.03 24.75Z"/><path fill="#90a6e8" d="M21.11 29.90L21.07 29.86L21.16 29.94Q20.77 29.78 20.46 29.78L20.43 29.75L20.61 29.93Q19.14 29.79 17.70 30.63L17.68 30.61L17.79 30.72Q16.40 31.77 16.40 33.68L16.42 33.69L16.40 33.68Q16.39 37.09 17.91 38.42L17.87 38.38L17.85 38.36Q18.94 39.67 21.22 39.67L21.22 39.68L21.16 39.61Q21.42 39.65 21.73 39.65L21.69 39.61L21.71 39.63Q23.47 39.68 24.61 38.04L24.60 38.03L24.58 38.01Q25.54 36.42 25.47 34.63L25.55 34.72L25.46 34.62Q25.66 34.30 25.66 33.88L25.69 33.90L25.71 33.92Q25.63 32.06 24.26 30.89L24.32 30.95L24.27 30.90Q22.78 29.63 20.99 29.78ZM25.49 39.95L25.50 39.96L25.64 40.10Q24.68 42.07 20.95 42.18L20.86 42.09L20.91 42.14Q17.52 42.26 15.92 40.66L15.85 40.59L15.91 40.64Q14.39 38.82 13.59 34.03L13.53 33.96L13.66 34.09Q13.24 32.23 13.24 30.97L13.34 31.07L13.25 30.99Q13.21 29.15 13.93 28.08L14.03 28.18L14.00 28.15Q15.28 26.69 18.25 26.69L18.44 26.88L18.27 26.71Q24.71 26.83 26.62 29.42L26.62 29.43L26.66 29.46Q26.77 28.58 27.19 26.99L27.13 26.93L27.24 27.04Q28.37 26.61 30.81 25.81L30.94 25.94L30.87 25.87Q28.41 31.48 28.18 37.80L28.25 37.88L28.24 37.86Q27.95 43.97 30.08 49.79L30.12 49.83L30.17 49.88Q28.48 49.29 26.69 49.03L26.53 48.87L26.58 48.92Q25.77 45.06 25.65 40.11ZM26.36 49.27L26.35 49.26L26.30 49.21Q27.11 49.45 28.52 49.76L28.38 49.61L28.51 49.74Q28.67 50.40 29.24 51.81L29.22 51.79L29.19 51.75Q31.93 52.63 34.22 53.93L34.05 53.76L34.05 53.76Q30.09 47.25 30.09 38.72L30.02 38.65L30.17 38.80Q30.10 32.38 32.58 26.59L32.50 26.52L32.53 26.54Q31.84 26.84 30.47 27.49L30.48 27.51L30.46 27.48Q30.80 26.71 31.44 25.15L31.52 25.23L31.40 25.11Q29.98 25.79 26.79 26.66L26.79 26.67L26.74 26.61Q26.72 27.28 26.41 28.46L26.39 28.44L26.24 28.29Q24.41 26.57 18.28 26.42L18.20 26.34L18.22 26.35Q14.94 26.20 13.57 27.68L13.71 27.83L13.64 27.75Q12.86 28.88 12.90 30.78L12.84 30.73L12.95 30.83Q13.09 33.86 14.08 37.63L14.00 37.56L14.00 37.55Q14.68 39.99 15.60 40.94L15.53 40.88L15.97 41.31L16.03 41.38Q17.13 44.08 22.58 44.30L22.58 44.30L22.61 44.34Q23.69 44.43 25.52 44.13L25.39 43.99L25.45 44.05Q25.81 47.04 26.42 49.33ZM22.98 32.18L23.00 32.21L22.95 32.16Q24.02 32.16 24.86 32.46L24.91 32.51L24.81 32.41Q25.12 33.07 25.24 33.68L25.23 33.67L25.28 33.72Q25.24 34.13 25.16 34.74L25.22 34.80L25.25 34.83Q25.20 36.69 24.17 37.98L24.25 38.06L24.17 37.98Q23.00 39.40 21.13 39.21L21.19 39.26L21.15 39.22Q19.81 39.17 18.85 38.76L18.90 38.80L18.89 38.79Q18.48 37.93 18.48 36.71L18.66 36.88L18.57 36.79Q18.48 36.40 18.48 36.10L18.60 36.22L18.50 36.11Q18.54 34.41 19.88 33.25L19.93 33.31L19.82 33.20Q21.27 32.15 23.02 32.23Z"/></svg>