<svg xmlns="http://www.w3.org/2000/svg" width="150" height="50" viewBox="0,0,150,50"><rect width="100%" height="100%" fill="white"/><path fill="#e27d7d" d="M118.12 14.76L118.27 14.91L118.14 14.79Q119.40 17.18 121.34 17.18L121.25 17.09L121.31 17.16Q121.78 17.13 122.20 16.97L122.09 16.87L122.22 17.00Q121.90 22.01 121.86 28.40L121.80 28.34L121.87 28.41Q121.90 34.72 122.09 39.97L122.08 39.96L122.11 40.00Q121.67 39.78 121.28 39.78L121.24 39.73L121.29 39.78Q120.04 39.90 118.63 41.77L118.51 41.64L118.53 41.67Q119.27 35.02 119.23 28.32L119.16 28.25L119.17 28.26Q119.21 21.63 118.29 14.93ZM118.06 42.79L117.95 42.69L118.04 42.78Q119.00 41.30 120.18 40.58L120.19 40.58L120.21 40.60Q120.21 41.60 120.13 42.66L120.02 42.55L120.12 42.65Q120.87 42.15 121.64 42.26L121.70 42.33L121.59 42.22Q123.72 42.52 125.09 45.30L125.02 45.22L125.07 45.28Q123.87 37.91 123.87 30.64L123.82 30.58L123.81 30.58Q123.88 23.11 124.68 15.99L124.62 15.93L124.70 16.01Q123.61 17.77 122.54 18.42L122.60 18.48L122.59 18.47Q122.44 17.59 122.55 16.22L122.61 16.28L122.69 16.36Q121.94 16.83 121.18 16.71L121.13 16.67L121.16 16.70Q118.71 16.34 117.68 13.45L117.74 13.51L117.69 13.46Q118.87 21.04 118.99 28.19L118.89 28.09L118.88 28.09Q119.01 35.25 118.02 42.75Z"/><path fill="#bfe943" d="M95.54 40.28L95.40 40.14L95.40 40.14Q92.09 40.41 90.45 39.88L90.35 39.78L90.39 39.81Q88.45 39.21 88.15 35.82L88.17 35.84L89.58 34.73L89.48 34.64Q90.33 34.23 91.09 33.74L91.04 33.68L91.01 33.65Q90.82 35.64 92.42 36.86L92.40 36.84L92.29 36.73Q93.62 37.79 95.75 37.60L95.87 37.72L95.85 37.69Q100.22 37.27 100.03 33.73L99.96 33.66L100.03 33.73Q99.92 31.53 97.30 30.31L97.25 30.26L97.29 30.31Q94.27 29.07 91.91 27.86L92.02 27.96L92.06 28.00Q89.36 26.52 88.37 21.84L88.36 21.83L88.47 21.94Q88.34 21.47 88.23 20.71L88.30 20.78L88.14 20.62Q88.24 20.04 88.31 19.46L88.26 19.40L88.19 19.34Q88.39 17.79 89.65 17.34L89.65 17.34L89.61 17.30Q92.01 16.42 96.01 16.61L96.02 16.63L96.10 16.70Q97.78 16.67 98.58 16.75L98.68 16.84L98.63 16.80Q100.10 16.97 101.17 17.43L101.20 17.47L101.28 17.54Q103.39 18.02 103.62 20.49L103.42 20.29L103.55 20.42Q102.56 21.18 100.35 22.51L100.29 22.45L100.28 22.44Q99.81 19.39 95.43 19.39L95.39 19.35L95.57 19.52Q93.54 19.40 92.55 20.09L92.56 20.09L92.56 20.10Q91.34 20.55 91.57 22.34L91.57 22.33L91.63 22.40Q91.96 24.67 94.93 26.19L94.81 26.08L94.92 26.18Q95.33 26.29 99.82 27.92L99.94 28.04L99.85 27.95Q102.56 29.52 102.98 33.90L102.88 33.80L102.87 33.79Q102.88 33.95 102.95 35.21L102.99 35.24L102.93 35.19Q103.16 38.11 101.59 39.22L101.49 39.11L101.54 39.16Q99.66 40.10 95.47 40.21ZM97.86 42.67L97.73 42.54L97.86 42.67Q99.20 42.64 101.18 42.64L101.25 42.71L101.18 42.64Q103.24 42.61 104.50 42.19L104.60 42.29L104.51 42.21Q105.81 41.45 105.73 39.66L105.79 39.71L105.81 39.73Q105.71 38.69 105.33 36.63L105.32 36.62L105.31 36.61Q104.33 31.87 102.24 30.00L102.23 29.99L102.36 30.13Q101.63 28.59 100.30 27.87L100.19 27.76L94.87 25.68L94.97 25.77Q94.55 25.51 94.09 25.28L94.07 25.26L94.01 24.93L93.97 24.54L93.91 24.49Q93.75 23.08 94.90 22.47L94.90 22.47L94.99 22.56Q95.68 21.92 97.39 21.73L97.51 21.84L97.45 21.78Q98.53 21.61 99.67 22.06L99.72 22.11L99.74 22.13Q99.86 22.29 100.05 23.13L100.03 23.11L100.07 23.15Q100.21 22.94 100.70 22.71L100.67 22.68L100.71 22.73Q101.48 23.68 101.60 24.83L101.54 24.77L101.53 24.76Q101.60 24.72 105.26 22.13L105.20 22.07L105.32 22.20Q105.01 19.52 103.56 18.83L103.46 18.73L103.47 18.75Q102.96 17.55 101.52 17.02L101.60 17.10L101.54 17.04Q99.19 16.18 95.99 16.18L96.05 16.24L95.96 16.15Q91.06 16.16 89.20 16.84L89.32 16.96L89.26 16.91Q87.96 17.40 87.85 19.08L87.70 18.92L87.73 18.96Q87.73 19.53 88.15 21.74L88.17 21.76L88.13 21.71Q88.85 25.52 91.02 27.76L91.12 27.87L91.02 27.77Q91.79 29.45 93.29 30.13L93.32 30.16L93.24 30.08Q94.94 30.96 98.86 32.52L98.75 32.41L98.73 32.43L99.44 32.83L99.43 32.86L99.50 32.93Q99.67 33.37 99.71 33.71L99.70 33.71L99.71 33.71Q99.75 37.14 95.83 37.29L95.89 37.36L95.74 37.21Q94.70 37.35 93.41 36.97L93.36 36.92L93.26 36.82Q92.98 36.05 92.98 35.33L92.99 35.33L92.93 35.27Q92.99 35.06 93.03 34.80L93.00 34.77L93.06 34.83Q92.69 35.10 91.89 35.60L91.75 35.47L91.79 35.50Q91.24 34.34 91.39 32.97L91.54 33.12L91.56 33.14Q89.35 34.20 87.75 35.61L87.77 35.63L87.79 35.65Q87.79 36.41 87.86 37.44L87.88 37.45L87.98 37.55Q88.25 39.24 89.55 40.00L89.49 39.94L89.45 39.90Q90.76 41.82 93.31 42.20L93.26 42.15L93.39 42.28Q94.94 42.50 97.87 42.69Z"/><path fill="#74e1aa" d="M47.53 28.71L47.63 28.81L47.59 28.78Q45.14 28.84 43.84 29.98L43.80 29.94L43.69 29.82Q42.39 31.19 42.58 33.71L42.44 33.56L42.44 33.56Q42.79 36.58 43.97 37.64L44.00 37.67L43.98 37.65Q45.54 39.02 47.63 38.87L47.61 38.85L47.59 38.83Q49.70 38.81 51.11 37.55L51.03 37.47L51.03 37.47Q52.36 36.33 52.55 33.77L52.69 33.91L52.63 33.85Q53.02 28.96 47.66 28.84ZM47.55 41.41L47.39 41.25L45.96 41.38L46.00 41.42Q42.95 41.23 41.47 39.82L41.65 40.00L41.47 39.83Q40.57 38.89 40.31 36.95L40.36 37.01L40.38 37.02Q40.11 35.80 39.96 33.60L40.09 33.72L40.01 33.65Q39.93 32.65 39.81 30.40L39.79 30.38L39.83 30.42Q39.73 28.53 40.68 27.39L40.61 27.31L40.78 27.48Q42.43 25.90 47.15 26.05L47.18 26.08L47.23 26.13Q52.09 26.24 53.92 27.76L53.98 27.82L53.88 27.72Q55.29 28.86 55.10 32.06L55.19 32.15L55.23 32.19Q54.98 35.71 54.90 36.13L54.89 36.11L54.86 36.08Q54.58 38.39 53.25 39.57L53.33 39.66L53.24 39.57Q51.19 41.24 47.38 41.24ZM52.23 43.81L52.19 43.77L52.13 43.71Q53.57 43.70 55.47 43.55L55.49 43.57L55.58 43.66Q56.02 43.52 56.02 43.37L56.06 43.41L56.04 43.40Q56.01 43.29 55.97 43.13L55.94 43.11L56.05 43.21Q55.86 42.91 55.86 42.80L56.04 42.97L55.92 42.85Q56.03 42.70 56.37 42.39L56.39 42.41L56.38 42.40Q57.22 41.22 57.22 39.32L57.25 39.35L57.22 39.32Q57.23 38.38 57.13 35.96L57.05 35.88L57.14 35.96Q56.91 33.41 56.76 32.31L56.88 32.43L56.86 32.41Q56.51 30.31 55.60 29.17L55.49 29.07L55.25 28.94L55.20 28.88Q55.03 28.22 54.23 27.31L54.21 27.29L54.20 27.28Q51.99 25.63 47.07 25.63L47.11 25.67L45.41 25.72L45.33 25.64Q42.08 25.71 40.37 27.08L40.34 27.04L40.27 26.98Q39.51 28.20 39.55 30.21L39.50 30.17L39.53 30.20Q39.43 30.52 39.57 31.77L39.67 31.87L39.74 31.95Q39.86 33.19 39.82 33.65L39.67 33.49L39.68 33.51Q39.91 36.55 39.98 37.01L40.04 37.07L40.08 37.11Q40.47 39.25 41.39 40.39L41.27 40.27L41.53 40.61L41.44 40.52Q42.38 43.09 46.11 43.51L46.04 43.45L46.09 43.50Q46.89 43.53 52.14 43.72ZM49.51 31.15L49.39 31.03L49.48 31.13Q50.36 31.17 52.03 31.70L51.96 31.63L51.99 31.66Q52.32 32.36 52.28 33.85L52.22 33.78L52.40 33.97Q52.21 37.35 49.31 38.11L49.37 38.17L49.21 38.01Q48.57 38.29 47.54 38.40L47.57 38.43L47.54 38.40Q46.46 38.42 44.75 37.81L44.86 37.93L44.89 37.96Q44.46 37.06 44.49 35.58L44.64 35.72L44.56 35.65Q44.62 33.30 45.99 32.28L46.05 32.34L46.00 32.28Q46.90 31.40 49.46 31.10Z"/><path fill="#e3a568" d="M27.48 40.90L27.56 40.99L27.54 40.97Q26.10 39.15 24.81 36.07L24.83 36.09L22.74 30.99L22.90 31.15Q21.26 35.11 20.65 36.40L20.62 36.37L20.63 36.38Q19.21 39.34 17.61 41.25L17.61 41.25L17.50 41.14Q17.17 41.18 16.41 41.29L16.32 41.21L16.49 41.38Q16.45 33.91 10.62 27.97L10.48 27.83L10.53 27.88Q8.83 26.11 6.82 24.62L6.76 24.56L6.82 24.63Q8.73 25.24 10.59 25.54L10.60 25.55L10.53 25.49Q16.69 30.53 18.13 36.78L18.05 36.69L17.95 36.59Q19.05 34.96 20.23 31.76L20.11 31.63L20.04 31.57Q21.44 27.86 22.01 26.57L22.08 26.64L23.45 26.60L23.52 26.67Q24.33 28.32 25.51 31.59L25.48 31.56L25.44 31.52Q26.78 35.18 27.42 36.59L27.50 36.67L27.49 36.66Q29.21 30.26 34.69 25.70L34.69 25.70L34.66 25.67Q35.92 25.63 38.66 25.06L38.73 25.13L38.64 25.04Q29.97 31.03 28.79 41.00L28.89 41.10L28.20 40.94L28.20 40.95Q27.85 40.90 27.50 40.93ZM30.63 43.53L32.61 43.64L32.51 43.54Q32.33 42.15 32.33 40.62L32.19 40.48L32.23 40.52Q32.30 37.35 33.71 34.12L33.56 33.97L33.62 34.03Q35.68 29.58 39.79 26.50L39.68 26.39L39.76 26.46Q38.51 26.70 36.64 27.04L36.63 27.03L36.61 27.01Q38.69 25.47 39.98 24.55L40.02 24.59L37.48 25.02L37.43 24.97Q36.18 25.17 34.85 25.33L34.86 25.33L34.92 25.39Q29.65 29.53 27.71 34.56L27.72 34.57L27.77 34.61Q27.03 32.35 25.66 28.09L25.78 28.21L25.71 28.14Q25.46 28.23 25.19 28.23L25.15 28.18L24.60 28.17L24.61 28.18Q24.47 27.85 23.67 26.10L23.77 26.20L21.65 26.13L21.60 26.08Q20.73 28.98 18.63 34.61L18.66 34.64L18.66 34.64Q17.21 30.83 14.13 27.56L14.22 27.65L14.10 27.53Q13.93 27.63 13.63 27.59L13.54 27.50L13.01 27.43L12.98 27.40Q12.13 26.59 10.34 24.99L10.44 25.09L10.46 25.11Q7.31 24.47 5.63 23.97L5.67 24.01L5.68 24.02Q16.39 31.45 16.01 41.77L15.91 41.68L15.99 41.75Q16.14 41.71 16.50 41.67L16.55 41.72L16.58 41.75Q16.96 41.73 17.15 41.73L17.10 41.69L17.11 41.70Q17.07 41.51 17.26 43.60L17.19 43.52L19.28 43.52L19.14 43.38Q21.79 40.63 24.04 34.88L23.92 34.76L23.98 34.82Q25.58 38.78 27.45 41.45L27.30 41.30L27.43 41.43Q27.69 41.35 27.96 41.37L28.00 41.41L27.98 41.39Q28.15 41.31 28.42 41.31L28.40 41.30L30.56 43.46Z"/><path d="M12 5 C64 37,78 37,147 31" stroke="#d651b5" fill="none"/><path d="M18 48 C64 41,75 45,142 33" stroke="#65e084" fill="none"/><path d="M7 21 C78 42,83 7,133 30" stroke="#a3e660" fill="none"/><path fill="#e4e490" d="M62.88 38.93L62.88 38.93L62.93 38.98Q64.80 36.58 69.56 29.31L69.44 29.20L69.44 29.19Q73.56 23.08 76.42 19.80L76.41 19.80L76.37 19.75Q74.36 20.14 72.26 20.14L72.23 20.11L72.24 20.12Q66.95 20.08 62.95 18.29L62.91 18.25L62.94 18.28Q62.28 16.37 61.60 14.81L61.60 14.81L61.55 14.76Q66.14 16.95 71.81 17.07L71.77 17.02L71.80 17.05Q77.10 17.29 82.28 15.38L82.15 15.26L82.25 15.36Q81.73 16.05 81.42 16.85L81.53 16.96L80.90 18.50L80.99 18.59Q77.79 22.09 73.80 27.92L73.78 27.90L70.56 32.83L70.49 32.76Q68.95 35.33 67.12 37.61L67.08 37.58L66.95 37.44Q70.40 36.97 73.71 37.04L73.56 36.89L73.59 36.93Q77.06 37.16 80.22 38.07L80.24 38.09L80.72 39.68L80.69 39.65Q80.82 40.35 81.17 41.19L81.25 41.27L81.29 41.31Q76.58 39.68 71.44 39.87L71.49 39.92L71.48 39.92Q66.38 40.15 61.89 42.16L61.72 41.99L61.81 42.09Q62.20 41.02 62.92 38.97ZM61.12 42.69L61.27 42.84L61.28 42.85Q62.38 42.12 63.18 41.86L63.20 41.87L63.25 41.93Q62.93 42.64 62.25 44.16L62.25 44.16L62.27 44.19Q68.06 42.13 74.03 42.36L74.00 42.32L73.97 42.30Q80.23 42.46 85.26 45.24L85.24 45.22L85.24 45.23Q83.99 42.98 83.19 40.81L83.06 40.68L83.04 40.67Q82.68 40.57 81.16 40.00L81.07 39.91L81.13 39.97Q80.85 39.12 80.43 37.63L80.40 37.61L80.50 37.70Q76.41 36.59 71.31 36.78L71.15 36.61L71.23 36.69Q73.42 34.01 76.96 28.45L76.95 28.44L76.95 28.45Q80.56 22.69 82.46 20.14L82.48 20.16L82.55 20.23Q83.01 18.78 84.04 16.08L83.95 15.99L83.92 15.96Q83.34 16.41 81.89 17.02L81.82 16.94L81.80 16.93Q82.12 16.10 82.84 14.58L82.96 14.69L82.98 14.72Q77.52 16.71 71.81 16.64L71.91 16.74L71.78 16.62Q65.89 16.59 60.94 14.07L61.03 14.16L60.92 14.05Q62.18 16.53 62.90 18.77L62.72 18.59L62.91 18.78Q63.91 19.21 64.71 19.44L64.75 19.48L64.67 19.40Q65.07 20.22 65.34 21.67L65.20 21.53L65.17 21.50Q69.04 22.70 73.91 22.51L73.82 22.43L73.93 22.53Q71.47 25.66 68.15 30.65L68.21 30.70L62.55 38.90L62.57 38.93Q62.23 40.22 61.20 42.77Z"/></svg>