<svg xmlns="http://www.w3.org/2000/svg" width="150" height="50" viewBox="0,0,150,50"><rect width="100%" height="100%" fill="white"/><path fill="#e4cb80" d="M120.71 19.75L120.60 19.64L120.56 19.60Q118.75 19.88 117.80 20.04L117.65 19.89L117.63 19.87Q116.03 20.13 114.81 20.67L114.92 20.78L114.80 20.66Q111.42 22.22 111.31 26.91L111.26 26.86L111.31 26.91Q111.14 29.48 111.79 32.41L111.80 32.43L111.75 32.38Q112.59 36.38 116.21 37.56L116.25 37.60L116.35 37.69Q118.27 38.28 119.71 38.13L119.65 38.07L120.05 38.01L120.13 38.09Q120.18 37.95 120.37 37.99L120.52 38.14L120.42 38.04Q120.63 38.10 120.79 38.06L120.66 37.93L120.70 37.97Q123.39 37.77 124.76 37.20L124.77 37.21L121.24 33.72L121.20 33.68Q121.60 33.43 122.20 32.82L122.06 32.67L123.10 31.89L122.96 31.74Q124.78 33.80 126.76 35.85L126.87 35.96L126.75 35.84Q129.25 34.19 129.52 28.82L129.37 28.68L129.52 28.82Q129.49 27.81 129.49 26.89L129.51 26.91L129.57 26.98Q129.48 21.22 124.42 20.11L124.45 20.14L124.34 20.03Q123.13 19.81 120.62 19.66ZM133.35 41.68L133.37 41.70L133.39 41.72Q132.87 42.23 131.69 43.10L131.53 42.95L127.16 39.29L127.30 39.43Q124.72 40.54 120.45 40.58L120.46 40.59L120.43 40.56Q113.97 40.76 111.15 38.52L111.02 38.38L111.13 38.50Q109.29 36.66 108.84 33.69L108.86 33.71L108.77 33.62Q108.67 31.92 108.29 28.34L108.32 28.37L108.33 28.39Q108.38 27.71 108.27 25.96L108.14 25.84L108.13 25.83Q108.03 24.32 108.07 23.44L108.13 23.50L108.14 23.51Q108.25 20.46 110.00 18.90L109.90 18.80L109.91 18.81Q111.39 17.43 114.59 16.94L114.73 17.09L114.56 16.91Q117.20 16.70 120.09 16.77L120.05 16.73L119.97 16.65Q127.60 16.90 130.73 19.26L130.62 19.15L130.66 19.20Q132.89 21.39 132.63 26.30L132.45 26.12L132.56 26.23Q132.39 29.90 132.20 31.24L132.16 31.20L132.19 31.23Q131.46 35.63 129.13 37.96L129.15 37.98L129.13 37.95Q130.59 39.19 133.33 41.66ZM128.62 17.53L128.62 17.54L128.54 17.46Q126.61 16.82 120.10 16.33L119.97 16.20L119.95 16.17Q118.59 16.22 115.81 16.34L115.80 16.33L115.96 16.48Q111.68 16.65 109.43 18.63L109.36 18.57L109.38 18.58Q107.71 20.04 107.71 23.20L107.72 23.21L107.70 23.18Q107.63 23.95 107.78 25.66L107.91 25.79L107.89 25.77Q108.02 27.47 108.02 28.35L108.03 28.35L108.06 28.38Q108.08 30.00 108.46 33.58L108.47 33.59L108.54 33.66Q108.82 36.45 110.42 38.51L110.58 38.67L110.53 38.62Q110.88 39.46 112.10 40.61L112.11 40.61L111.99 40.50Q114.81 42.60 119.99 42.86L120.00 42.87L120.02 42.89Q120.24 42.77 122.64 42.89L122.80 43.04L122.67 42.91Q127.42 43.02 129.71 41.96L129.84 42.09L129.87 42.12Q130.72 42.78 135.45 46.36L135.42 46.34L135.39 46.31Q136.08 45.86 137.38 44.87L137.32 44.81L137.27 44.76Q136.33 44.01 135.53 43.33L135.54 43.33L133.92 41.90L134.09 41.93L133.98 41.81Q133.56 41.51 132.35 40.48L132.31 40.45L132.28 40.42Q134.13 37.85 134.13 33.32L134.24 33.44L134.09 33.28Q134.26 33.03 134.30 32.20L134.20 32.10L134.30 32.19Q134.29 31.32 134.29 30.90L134.24 30.85L134.24 30.84Q134.34 25.42 133.62 23.06L133.51 22.96L133.49 22.94Q133.14 21.67 132.27 20.61L132.21 20.56L132.32 20.66Q131.47 18.48 128.54 17.45ZM122.60 22.09L122.46 21.96L122.45 21.94Q126.52 21.87 128.35 23.47L128.38 23.50L128.46 23.58Q129.07 24.83 129.18 26.17L129.09 26.07L129.13 26.12Q129.12 27.28 129.04 28.65L129.04 28.65L129.21 28.82Q128.81 33.71 126.87 35.42L126.88 35.43L126.74 35.30Q125.58 34.14 123.07 31.40L123.03 31.36L123.01 31.34Q122.29 32.14 120.73 33.70L120.57 33.55L120.66 33.63Q121.23 34.24 122.37 35.42L122.29 35.34L122.24 35.41L122.28 35.45Q122.83 35.96 123.86 37.02L123.97 37.13L123.96 37.12Q122.87 37.29 120.55 37.60L120.64 37.69L120.10 37.68L119.60 37.60L119.57 37.60L119.71 37.74Q116.21 37.71 114.23 36.07L114.15 35.99L114.27 36.11Q113.24 34.02 113.28 30.90L113.26 30.88L113.19 30.81Q113.32 22.07 122.49 21.99Z"/><path d="M18 18 C55 10,77 5,148 6" stroke="#e787b7" fill="none"/><path fill="#a872de" d="M89.09 15.84L89.20 15.96L89.16 15.91Q91.03 20.75 91.60 25.93L91.68 26.00L91.64 25.96Q95.31 21.80 101.21 16.96L101.15 16.90L101.24 16.99Q104.47 16.71 107.09 15.91L107.08 15.90L100.49 21.50L100.56 21.56Q96.94 24.30 94.08 27.15L94.10 27.18L94.13 27.20Q102.06 36.31 107.12 41.03L107.13 41.04L107.22 41.13Q104.16 40.23 101.83 40.08L101.87 40.12L101.83 40.08Q95.92 34.55 91.62 28.72L91.60 28.71L91.67 28.77Q91.73 35.35 89.87 40.68L90.03 40.85L89.91 40.72Q89.62 40.70 89.13 40.89L89.18 40.94L89.19 41.14L89.17 41.13Q88.91 41.09 86.36 42.00L86.48 42.13L86.50 42.14Q89.45 35.58 89.11 28.12L89.01 28.02L89.04 28.05Q88.70 20.70 85.16 14.19L85.14 14.18L85.69 14.46L86.15 14.80L86.19 14.81L86.09 14.71Q86.99 15.27 89.20 15.95ZM89.42 15.60L89.33 15.51L89.47 15.65Q87.09 14.99 84.47 13.46L84.43 13.43L84.38 13.38Q88.76 20.76 88.76 29.71L88.68 29.64L88.86 29.81Q88.70 36.66 85.73 42.71L85.72 42.70L87.81 41.89L87.91 42.00Q87.34 42.84 86.66 44.13L86.77 44.24L86.83 44.31Q88.91 43.34 90.86 42.92L90.90 42.97L90.95 42.79L91.08 42.92Q91.30 42.84 91.87 42.68L91.83 42.64L91.83 42.64Q93.48 36.72 93.60 31.92L93.61 31.93L93.63 31.95Q95.73 34.48 97.56 36.34L97.53 36.31L97.51 36.29Q98.72 37.43 101.73 40.40L101.69 40.36L101.79 40.46L101.67 40.34Q102.79 41.27 104.66 42.87L104.52 42.73L104.66 42.87Q108.57 43.62 112.03 45.33L111.96 45.26L111.92 45.22Q102.76 36.78 96.52 29.36L96.43 29.27L96.45 29.30Q100.82 24.98 109.58 16.38L109.57 16.37L109.63 16.43Q107.12 17.61 105.10 17.99L105.06 17.96L104.94 17.83Q106.31 17.00 108.64 14.98L108.52 14.86L108.60 14.95Q104.51 16.38 101.16 16.57L101.15 16.56L101.13 16.54Q98.27 18.82 93.40 23.50L93.21 23.31L93.31 23.41Q92.86 20.75 92.29 18.20L92.30 18.21L92.33 18.25Q91.17 18.12 90.18 17.77L90.13 17.72L90.10 17.69Q90.04 17.09 89.46 15.65Z"/><path d="M10 48 C79 47,55 28,142 19" stroke="#69c3e1" fill="none"/><path fill="#7d98e7" d="M16.03 49.67L16.04 49.68L15.92 49.56Q18.83 45.70 21.73 39.49L21.70 39.47L21.79 39.56Q18.68 33.02 12.59 24.95L12.60 24.96L12.52 24.89Q14.37 25.97 17.15 26.62L17.26 26.73L17.27 26.74Q20.78 31.39 23.21 36.60L23.28 36.67L23.18 36.57Q25.34 31.27 28.43 26.86L28.45 26.88L28.41 26.84Q30.58 26.46 32.68 25.66L32.78 25.77L32.69 25.67Q29.26 29.48 25.79 36.90L25.81 36.91L23.11 43.05L22.98 42.92Q21.59 46.10 19.84 48.73L19.91 48.80L19.95 48.84Q17.44 49.10 15.99 49.63ZM22.25 51.06L22.06 50.87L22.11 50.92Q23.96 48.16 25.41 44.89L25.28 44.77L28.00 38.42L28.08 38.50Q31.61 30.50 34.93 26.50L34.93 26.50L34.81 26.39Q33.53 27.12 31.62 27.81L31.54 27.73L32.70 26.45L32.73 26.48Q33.22 25.71 33.83 25.02L33.82 25.01L33.80 25.00Q31.20 26.12 28.34 26.58L28.34 26.58L28.21 26.45Q25.49 30.39 23.55 34.85L23.59 34.89L23.59 34.89Q21.89 31.51 20.10 28.70L20.22 28.81L20.24 28.83Q20.01 28.79 19.64 28.75L19.57 28.68L19.61 28.72Q19.31 28.74 19.12 28.74L18.99 28.62L19.11 28.73Q18.29 27.42 17.34 26.28L17.30 26.24L17.30 26.24Q14.12 25.57 11.38 23.86L11.55 24.03L11.53 24.01Q17.79 32.02 21.48 39.63L21.42 39.57L21.47 39.62Q19.20 44.58 15.13 50.22L15.20 50.29L15.24 50.33Q16.06 50.04 16.86 49.89L16.83 49.87L18.42 49.47L18.42 49.47Q17.74 50.13 16.56 51.76L16.69 51.89L16.59 51.79Q18.82 51.13 22.09 50.90Z"/><path d="M11 8 C60 10,64 20,134 37" stroke="#61df81" fill="none"/><path fill="#3ee467" d="M77.72 28.70L77.62 28.60L71.75 28.71L71.83 28.79Q68.78 28.71 65.85 28.63L65.99 28.77L66.02 28.80Q66.10 35.46 64.04 40.98L64.00 40.95L64.01 40.96Q62.23 41.50 60.48 42.18L60.35 42.05L60.33 42.03Q63.11 36.32 63.11 29.66L63.24 29.80L63.11 29.66Q63.25 21.31 59.14 14.27L59.06 14.19L59.00 14.13Q60.70 15.10 63.17 15.90L63.17 15.90L63.06 15.80Q65.24 20.90 65.77 25.77L65.67 25.67L65.68 25.68Q68.89 26.11 71.74 26.08L71.85 26.18L71.72 26.05Q74.40 26.07 77.71 25.80L77.75 25.84L77.84 25.93Q78.30 21.52 80.05 16.41L80.02 16.39L80.04 16.41Q81.84 15.84 84.08 15.00L84.14 15.06L84.19 15.10Q80.59 21.87 80.59 29.82L80.52 29.75L80.66 29.89Q80.55 35.99 82.91 41.32L82.97 41.37L82.93 41.34Q81.28 40.68 79.23 40.37L79.27 40.42L79.20 40.35Q77.52 35.31 77.63 28.61ZM79.01 40.76L79.05 40.80L79.03 40.79Q80.07 40.95 81.17 41.21L81.04 41.08L81.23 41.27Q81.57 41.99 82.22 43.48L82.07 43.33L82.03 43.29Q85.51 44.37 87.30 45.29L87.20 45.18L87.20 45.18Q82.90 39.18 82.60 30.92L82.48 30.80L82.50 30.81Q82.13 22.72 85.78 15.90L85.89 16.00L84.71 16.35L84.75 16.39Q84.34 16.70 83.73 16.85L83.68 16.81L83.75 16.87Q84.16 16.07 85.00 14.51L85.02 14.53L84.86 14.37Q82.30 15.50 79.67 16.00L79.72 16.04L79.68 16.00Q77.95 20.79 77.50 25.47L77.62 25.59L77.53 25.51Q74.96 25.64 72.53 25.64L72.52 25.63L72.63 25.74Q70.25 25.76 67.74 25.61L67.80 25.67L67.74 25.61Q67.39 22.22 66.29 18.15L66.39 18.25L66.30 18.15Q65.59 18.02 64.14 17.64L64.17 17.66L64.26 17.75Q63.85 16.51 63.40 15.48L63.34 15.42L63.39 15.47Q60.60 14.67 58.32 13.41L58.46 13.55L58.32 13.41Q62.87 20.82 62.87 29.61L63.03 29.77L63.03 29.77Q63.03 36.74 59.91 42.87L59.82 42.78L59.72 42.68Q60.51 42.48 61.84 41.91L61.97 42.04L61.85 41.92Q61.62 42.87 60.82 44.39L60.65 44.22L60.77 44.34Q63.54 43.31 65.79 42.89L65.77 42.86L65.77 42.87Q67.73 37.41 67.92 31.24L67.91 31.22L67.93 31.24Q69.41 31.05 72.61 31.01L72.56 30.97L72.64 31.04Q75.53 31.04 77.44 31.12L77.42 31.11L77.42 31.11Q77.67 36.83 79.00 40.76Z"/><path fill="#e4bd48" d="M56.97 22.97L57.12 23.12L57.03 23.03Q55.21 25.74 52.54 31.37L52.56 31.39L50.56 35.63L50.64 35.71Q49.75 37.60 48.42 39.85L48.30 39.73L48.35 39.77Q48.74 39.71 47.07 39.75L47.13 39.82L47.21 39.89Q47.12 39.80 45.86 39.80L46.00 39.94L45.81 39.75Q45.25 38.43 42.32 31.27L42.16 31.12L42.22 31.18Q40.11 25.87 38.02 22.86L38.00 22.85L38.00 22.84Q38.73 25.89 38.73 29.05L38.73 29.05L38.69 29.02Q38.70 35.53 35.73 41.09L35.81 41.17L35.85 41.21Q34.40 41.44 32.04 42.16L32.01 42.12L31.99 42.11Q35.77 36.53 35.77 29.29L35.78 29.30L35.72 29.24Q35.84 20.42 30.43 13.45L30.39 13.40L30.30 13.31Q32.08 14.18 34.44 14.87L34.37 14.80L34.32 14.75Q41.51 21.63 47.60 34.95L47.55 34.90L47.56 34.92Q50.94 27.79 53.15 24.29L53.30 24.44L53.19 24.33Q56.79 18.56 60.75 15.10L60.79 15.14L60.66 15.01Q62.00 14.86 64.36 14.10L64.40 14.14L64.44 14.18Q59.37 20.72 59.37 29.32L59.48 29.43L59.41 29.37Q59.43 36.05 62.86 41.57L62.76 41.47L62.79 41.50Q61.42 41.16 58.68 40.55L58.81 40.68L58.83 40.71Q56.33 35.77 56.33 29.79L56.39 29.85L56.28 29.74Q56.43 26.46 57.12 23.11ZM58.64 41.08L58.63 41.07L58.49 40.94Q59.27 41.14 60.72 41.41L60.60 41.30L60.67 41.36Q61.11 42.10 62.06 43.59L62.00 43.53L62.16 43.68Q64.18 44.00 67.64 45.21L67.69 45.26L67.60 45.17Q61.47 38.96 61.47 29.14L61.43 29.10L61.47 29.14Q61.34 21.28 65.72 15.15L65.70 15.14L63.71 16.04L63.60 15.93Q64.66 14.44 65.30 13.56L65.32 13.57L65.24 13.50Q63.41 14.18 60.78 14.71L60.79 14.72L60.69 14.62Q54.00 20.80 47.95 33.40L47.93 33.38L47.99 33.44Q42.71 22.38 37.77 17.13L37.81 17.17L37.79 17.15Q37.45 17.11 36.88 17.00L36.88 17.00L35.62 15.66L35.66 15.71Q34.97 14.94 34.29 14.33L34.40 14.45L34.46 14.50Q31.33 13.43 29.54 12.71L29.54 12.71L29.59 12.75Q35.54 19.92 35.54 29.33L35.59 29.38L35.50 29.28Q35.46 36.86 31.31 42.72L31.38 42.80L31.42 42.84Q32.01 42.51 33.31 42.09L33.39 42.17L33.39 42.17Q33.19 42.35 31.78 44.45L31.75 44.42L31.79 44.46Q33.54 43.92 37.04 43.16L37.06 43.18L37.14 43.26Q40.83 36.18 40.64 28.41L40.61 28.39L40.71 28.48Q42.12 32.37 45.58 40.25L45.70 40.37L45.58 40.24Q45.96 40.32 46.19 40.32L46.18 40.31L46.68 40.27L46.61 40.20Q47.15 40.97 47.95 42.27L47.96 42.28L47.95 42.27Q49.56 42.24 49.56 42.24L49.62 42.31L49.45 42.13Q50.60 42.25 51.24 42.33L51.09 42.17L51.20 42.29Q52.71 38.20 56.06 30.21L56.12 30.26L56.13 30.28Q55.97 35.67 58.56 41.00Z"/></svg>