<svg xmlns="http://www.w3.org/2000/svg" width="150" height="50" viewBox="0,0,150,50"><rect width="100%" height="100%" fill="white"/><path fill="#9142e0" d="M21.83 26.74L21.91 26.82L21.99 26.90Q23.72 26.99 25.55 26.99L25.44 26.88L25.63 27.07Q27.42 27.07 29.25 26.92L29.25 26.92L29.09 26.77Q29.10 27.53 29.10 28.25L29.10 28.25L29.08 29.57L29.10 29.58Q26.61 29.45 21.85 29.57L21.94 29.66L21.93 29.65Q22.00 35.66 20.85 40.64L20.86 40.65L20.87 40.66Q18.65 41.33 17.16 42.13L17.15 42.11L17.00 41.96Q19.40 35.24 19.14 28.12L19.10 28.08L19.05 28.03Q18.91 21.00 16.24 14.33L16.12 14.22L16.30 14.39Q19.95 16.90 24.71 17.13L24.65 17.07L24.58 17.00Q29.23 17.15 33.38 15.40L33.43 15.46L33.47 15.49Q33.16 16.29 32.94 17.09L33.00 17.15L32.49 18.74L32.49 18.75Q29.73 19.78 26.76 19.94L26.71 19.89L26.73 19.91Q23.95 20.22 21.10 19.49L21.06 19.46L21.02 19.42Q21.69 22.78 21.88 26.78ZM34.01 14.71L34.05 14.74L34.13 14.83Q29.52 16.95 24.65 16.65L24.68 16.68L24.54 16.54Q19.21 16.24 15.48 13.38L15.66 13.56L15.66 13.56Q18.38 20.35 18.68 27.97L18.79 28.07L18.68 27.97Q19.19 36.09 16.68 42.86L16.63 42.82L16.67 42.86Q17.19 42.31 18.56 41.66L18.63 41.73L18.57 41.67Q18.40 42.46 17.83 43.98L17.76 43.91L17.76 43.91Q20.13 42.89 23.03 42.40L22.99 42.36L23.02 42.39Q23.67 37.56 23.86 31.84L23.93 31.92L23.81 31.80Q25.68 31.84 27.50 31.84L27.50 31.84L27.49 31.83Q29.27 31.82 31.10 32.01L31.18 32.09L31.00 31.91Q31.02 31.09 31.02 30.18L30.97 30.12L30.98 28.23L31.00 28.25Q30.32 28.45 29.48 28.45L29.32 28.29L29.34 28.31Q29.36 27.45 29.43 26.42L29.54 26.53L29.39 26.38Q28.15 26.70 26.74 26.70L26.78 26.73L26.72 26.68Q25.31 26.68 23.94 26.64L23.82 26.52L23.86 24.43L23.84 24.40Q23.71 23.21 23.59 22.14L23.66 22.21L23.72 22.27Q24.60 22.24 25.59 22.24L25.61 22.25L25.64 22.28Q30.49 22.38 34.11 20.47L34.01 20.38L33.98 20.35Q34.62 18.66 35.53 16.04L35.45 15.95L35.41 15.91Q34.07 16.70 33.27 17.04L33.35 17.13L33.41 17.19Q33.67 16.42 34.16 14.86Z"/><path fill="#68a8e8" d="M65.02 23.45L64.97 23.40L65.01 23.44Q61.81 23.44 59.99 22.38L59.91 22.30L59.96 22.35Q62.47 20.97 67.34 16.75L67.27 16.68L67.27 16.68Q67.99 16.49 69.28 15.88L69.44 16.03L69.32 15.91Q67.96 21.82 67.84 28.18L67.89 28.23L67.88 28.21Q67.85 34.66 68.92 40.75L68.89 40.72L68.84 40.67Q67.24 40.03 65.11 39.91L65.13 39.93L65.07 39.87Q64.93 35.69 64.93 31.62L64.94 31.63L65.02 31.71Q65.01 27.59 65.05 23.48ZM64.61 25.67L64.50 40.14L64.65 40.29Q65.77 40.19 66.72 40.38L66.67 40.33L66.77 40.42Q66.82 41.08 67.01 42.45L66.96 42.41L67.12 42.57Q69.80 42.93 72.24 45.17L72.30 45.23L72.30 45.24Q69.78 38.07 69.75 30.61L69.81 30.68L69.89 30.76Q69.69 23.17 71.52 15.94L71.63 16.05L71.46 15.88Q71.12 16.49 69.52 17.59L69.34 17.42L69.43 17.51Q69.70 16.82 70.00 15.30L69.84 15.14L69.96 15.26Q68.66 16.05 67.21 16.43L67.19 16.41L67.22 16.44Q63.44 20.00 59.13 22.29L59.03 22.19L59.13 22.28Q60.56 23.41 62.92 23.75L62.78 23.61L62.75 23.58Q62.10 24.11 60.80 25.17L60.80 25.17L60.97 25.34Q62.33 25.59 64.53 25.59L64.65 25.71Z"/><path fill="#7ff0d3" d="M128.92 30.72L128.83 30.63L128.82 30.62Q128.84 30.63 132.22 30.60L132.24 30.61L132.27 30.64Q134.45 30.54 135.52 30.58L135.47 30.53L135.52 30.58Q134.55 27.79 132.12 22.15L132.14 22.18L132.13 22.17Q131.59 23.60 130.54 26.46L130.55 26.47L130.49 26.41Q129.38 29.20 128.81 30.61ZM136.71 33.15L136.65 33.08L136.72 33.15Q134.47 33.15 132.27 33.19L132.10 33.02L132.23 33.16Q129.88 33.09 127.60 33.28L127.75 33.43L127.67 33.35Q126.18 36.81 122.94 41.00L122.97 41.03L122.80 40.85Q120.26 41.51 118.88 42.00L118.88 41.99L118.94 42.06Q123.99 36.34 128.68 22.98L128.85 23.15L128.84 23.14Q130.05 19.66 131.42 16.43L131.35 16.36L131.26 16.27Q131.59 16.30 131.94 16.30L131.97 16.33L132.85 16.49L132.75 16.39Q133.39 17.64 138.23 29.29L138.29 29.35L138.26 29.32Q141.64 37.28 145.64 41.43L145.49 41.27L145.65 41.44Q145.10 41.27 141.22 40.39L141.23 40.41L141.21 40.38Q138.73 37.33 136.75 33.18ZM141.03 40.62L141.05 40.64L141.63 40.73L141.72 40.81Q141.93 40.80 142.24 40.91L142.32 41.00L142.32 41.00Q142.70 41.42 144.53 43.44L144.50 43.41L144.45 43.36Q148.03 44.20 150.43 45.22L150.52 45.31L150.44 45.24Q145.06 40.80 141.06 32.81L140.95 32.70L140.89 32.64Q139.41 29.48 137.96 25.53L137.93 25.49L135.19 17.99L135.15 17.95Q134.81 17.96 134.58 17.96L134.69 18.07L134.20 18.10L134.21 18.12Q133.66 17.26 132.94 15.89L133.00 15.96L132.95 15.91Q132.45 15.94 132.00 15.90L132.01 15.91L132.16 16.07Q131.56 15.89 131.03 15.89L131.09 15.95L131.17 16.03Q129.71 19.89 125.82 30.06L125.78 30.02L125.88 30.11Q122.58 37.90 117.94 42.69L117.99 42.75L118.00 42.75Q119.04 42.35 121.06 41.74L121.12 41.80L121.00 41.68Q120.29 42.61 118.73 44.40L118.82 44.49L118.79 44.46Q120.41 43.72 124.33 42.96L124.41 43.04L124.40 43.03Q127.82 38.68 129.38 35.44L129.46 35.52L129.27 35.34Q131.09 35.29 133.41 35.33L133.38 35.29L133.48 35.39Q136.18 35.39 137.55 35.47L137.56 35.48L137.60 35.51Q138.83 37.85 141.19 40.78ZM133.32 25.94L133.31 25.93L133.32 25.95Q134.24 28.08 135.00 30.17L135.06 30.24L131.76 30.24L131.66 30.15Q132.39 28.86 133.46 26.08Z"/><path fill="#e87c7c" d="M15.02 41.26L14.96 41.20L12.08 41.18L11.94 41.04Q9.70 41.08 8.90 40.96L8.84 40.91L8.88 40.95Q6.96 40.51 5.78 39.64L5.85 39.71L5.79 39.65Q4.57 38.31 4.34 34.96L4.31 34.93L4.30 34.92Q4.20 34.36 4.12 33.14L4.26 33.28L4.16 33.18Q4.24 32.84 4.16 31.73L4.16 31.74L4.11 31.68Q3.97 30.75 4.01 30.02L4.15 30.16L4.01 30.02Q4.26 28.14 5.28 27.38L5.40 27.49L5.22 27.31Q7.19 26.19 12.02 25.96L12.08 26.03L12.03 25.97Q14.12 25.93 14.92 25.93L14.96 25.97L14.93 25.94Q16.33 25.85 17.70 26.16L17.81 26.27L17.71 26.17Q17.28 27.56 16.74 29.39L16.67 29.32L16.71 29.36Q16.11 29.33 15.62 29.30L15.66 29.34L15.71 29.39Q15.61 29.36 15.08 29.25L15.02 29.19L13.98 28.88L14.03 28.92Q13.04 28.74 12.43 28.78L12.40 28.74L12.31 28.65Q7.62 28.76 7.01 31.58L7.16 31.72L7.10 31.67Q6.70 32.68 6.78 33.63L6.94 33.79L6.86 33.71Q6.98 36.27 8.22 37.35L8.23 37.36L8.27 37.40Q9.46 38.44 12.05 38.48L12.00 38.43L12.00 38.43Q13.59 38.57 14.31 38.27L14.36 38.32L15.30 37.74L15.30 37.74Q15.93 37.61 16.51 37.53L16.42 37.44L16.41 37.43Q16.56 39.14 16.94 40.44L17.09 40.59L16.98 40.48Q16.90 41.01 15.11 41.35ZM18.29 44.22L18.30 44.23L18.17 44.10Q18.63 44.23 19.47 44.30L19.52 44.35L19.42 44.25Q20.18 44.40 20.52 43.83L20.51 43.82L20.49 43.80Q19.14 41.58 18.65 39.48L18.69 39.52L18.67 39.50Q18.32 39.46 17.87 39.46L17.95 39.54L17.86 39.46Q17.48 39.49 17.10 39.68L17.20 39.79L17.16 39.75Q16.87 38.54 16.72 37.14L16.75 37.16L16.75 37.17Q15.98 36.93 14.76 37.50L14.77 37.50L14.85 37.59Q13.56 38.09 13.07 38.09L13.14 38.17L13.14 38.16Q12.57 38.09 11.96 38.05L12.11 38.20L12.10 38.19Q11.03 38.00 9.05 37.43L9.22 37.59L9.09 37.46Q8.89 36.88 8.93 35.74L8.81 35.62L8.84 35.65Q9.04 31.43 13.99 30.90L13.91 30.83L13.93 30.85Q14.75 30.98 16.12 31.32L16.01 31.21L16.03 31.23Q17.36 31.53 18.08 31.49L18.07 31.49L18.12 31.53Q18.61 29.36 19.30 27.53L19.18 27.42L19.16 27.39Q18.82 27.32 18.44 27.24L18.48 27.29L17.63 27.12L17.68 27.17Q17.84 26.65 18.23 25.77L18.31 25.86L18.29 25.84Q16.79 25.51 15.23 25.51L15.25 25.53L15.23 25.52Q12.82 25.51 8.44 25.89L8.36 25.81L8.33 25.78Q6.41 25.95 4.85 26.94L4.86 26.96L4.84 26.93Q3.65 27.91 3.65 29.82L3.74 29.90L3.67 29.84Q3.67 30.25 3.78 31.47L3.88 31.56L3.79 31.47Q3.98 32.61 3.94 33.22L3.81 33.09L3.93 33.22Q3.91 35.06 4.63 38.79L4.60 38.76L4.72 38.88Q5.05 39.67 5.55 40.17L5.52 40.14L5.73 40.35L5.82 40.40L5.70 40.27Q6.82 42.50 10.74 43.11L10.80 43.17L10.71 43.08Q13.87 43.58 16.54 43.84L16.63 43.94L16.54 43.85Q17.25 43.84 18.17 44.10Z"/><path fill="#e7e76e" d="M118.45 19.74L118.29 19.57L118.37 19.65Q116.51 19.88 115.56 20.04L115.52 20.00L115.37 19.85Q113.82 20.17 112.61 20.70L112.62 20.72L112.56 20.66Q109.17 22.21 109.05 26.89L108.98 26.82L108.93 26.77Q108.92 29.50 109.57 32.44L109.58 32.45L109.63 32.50Q110.43 36.46 114.05 37.64L114.06 37.65L113.96 37.55Q115.93 38.18 117.37 38.03L117.30 37.96L117.89 38.09L117.73 37.93Q117.96 37.97 118.15 38.01L118.11 37.97L118.10 37.96Q118.45 38.15 118.60 38.12L118.54 38.05L118.58 38.10Q121.19 37.81 122.56 37.24L122.51 37.19L118.99 33.71L118.84 33.56Q119.23 33.31 119.84 32.70L119.93 32.79L120.86 31.89L120.86 31.89Q122.54 33.79 124.52 35.85L124.54 35.87L124.64 35.97Q126.98 34.17 127.25 28.80L127.21 28.76L127.10 28.65Q127.16 27.72 127.16 26.80L127.30 26.95L127.32 26.97Q127.20 21.17 122.13 20.07L122.20 20.13L122.23 20.16Q120.96 19.88 118.45 19.73ZM131.18 41.75L131.07 41.64L131.06 41.63Q130.56 42.15 129.38 43.03L129.48 43.13L125.03 39.41L125.03 39.40Q122.43 40.51 118.17 40.54L118.33 40.71L118.20 40.57Q111.78 40.81 108.96 38.57L108.93 38.54L108.79 38.40Q107.17 36.77 106.71 33.80L106.71 33.80L106.63 33.73Q106.41 31.91 106.03 28.33L106.14 28.44L105.99 28.28Q106.01 27.58 105.90 25.83L105.88 25.82L106.01 25.95Q105.72 24.24 105.75 23.37L105.90 23.52L105.86 23.48Q105.91 20.36 107.66 18.80L107.69 18.83L107.69 18.83Q109.15 17.44 112.35 16.94L112.51 17.10L112.43 17.02Q114.95 16.69 117.84 16.76L117.72 16.65L117.77 16.69Q125.21 16.75 128.33 19.11L128.45 19.22L128.49 19.27Q130.56 21.29 130.29 26.21L130.26 26.18L130.29 26.20Q130.17 29.93 129.98 31.26L129.96 31.24L129.93 31.21Q129.23 35.65 126.91 37.98L126.86 37.93L126.86 37.93Q128.34 39.18 131.08 41.65ZM126.23 17.38L126.27 17.42L126.29 17.44Q124.29 16.74 117.78 16.25L117.78 16.25L117.71 16.18Q116.43 16.30 113.65 16.42L113.59 16.35L113.58 16.35Q109.48 16.70 107.23 18.68L107.14 18.59L107.06 18.51Q105.53 20.10 105.53 23.25L105.58 23.31L105.48 23.21Q105.54 24.11 105.69 25.82L105.59 25.72L105.64 25.76Q105.71 27.39 105.71 28.27L105.80 28.37L105.74 28.31Q105.86 30.02 106.24 33.60L106.40 33.76L106.40 33.76Q106.69 36.56 108.29 38.62L108.22 38.55L108.36 38.69Q108.58 39.40 109.80 40.54L109.86 40.61L109.73 40.48Q112.63 42.66 117.81 42.92L117.74 42.85L117.74 42.86Q118.02 42.79 120.42 42.91L120.41 42.89L120.39 42.87Q125.37 43.21 127.66 42.15L127.64 42.14L127.63 42.12Q128.54 42.84 133.26 46.42L133.21 46.37L133.24 46.40Q133.81 45.83 135.11 44.84L135.08 44.81L135.11 44.85Q134.21 44.13 133.41 43.44L133.49 43.52L131.68 41.91L131.88 41.95L131.80 41.87Q131.18 41.37 129.96 40.34L130.10 40.48L129.96 40.34Q132.02 37.98 132.02 33.45L132.04 33.47L132.02 33.46Q131.87 32.88 131.90 32.04L132.01 32.15L132.01 32.15Q132.11 31.37 132.11 30.96L132.09 30.93L131.92 30.77Q131.96 25.29 131.24 22.93L131.23 22.92L131.29 22.98Q130.82 21.60 129.95 20.53L130.12 20.70L130.13 20.71Q129.23 18.48 126.30 17.45ZM120.37 22.11L120.21 21.95L120.22 21.96Q124.27 21.86 126.09 23.46L126.22 23.58L126.20 23.56Q126.73 24.74 126.85 26.08L126.82 26.05L126.97 26.19Q126.94 27.35 126.87 28.72L126.90 28.75L126.81 28.66Q126.46 33.61 124.52 35.32L124.54 35.34L124.57 35.37Q123.34 34.14 120.83 31.40L120.76 31.33L120.69 31.26Q120.03 32.12 118.47 33.69L118.41 33.63L118.50 33.71Q118.91 34.16 120.05 35.34L120.10 35.40L120.14 35.54L120.09 35.49Q120.57 35.94 121.60 37.01L121.66 37.07L121.60 37.01Q120.68 37.34 118.36 37.65L118.44 37.73L117.90 37.72L117.34 37.59L117.44 37.72L117.50 37.78Q113.90 37.65 111.92 36.01L111.92 36.00L111.86 35.94Q111.02 34.04 111.06 30.92L110.90 30.76L111.06 30.92Q111.15 22.14 120.33 22.07Z"/><path fill="#f0a288" d="M93.14 29.82L93.16 29.84L93.33 30.01Q90.60 29.68 89.27 30.90L89.31 30.94L89.26 30.89Q87.92 32.10 88.22 34.61L88.33 34.72L88.23 34.62Q88.61 37.20 89.82 38.46L89.93 38.56L89.93 38.56Q90.94 39.84 93.07 39.76L93.07 39.77L93.02 39.71Q93.54 39.66 93.73 39.66L93.87 39.80L93.75 39.68Q97.31 39.09 97.43 34.49L97.36 34.42L97.49 34.55Q97.58 32.20 96.89 31.40L96.82 31.33L96.78 31.29Q95.80 30.08 93.24 29.93ZM96.53 41.62L96.64 41.73L96.51 41.60Q95.28 42.28 93.72 42.20L93.60 42.09L93.62 42.10Q89.76 42.28 88.46 39.69L88.49 39.71L88.55 39.78Q88.27 45.02 86.94 49.28L86.96 49.30L87.12 49.46Q85.15 49.77 83.51 50.50L83.53 50.51L83.67 50.65Q86.15 44.61 85.89 37.64L85.94 37.70L85.92 37.67Q85.58 30.75 82.69 24.70L82.83 24.84L82.72 24.73Q84.78 26.03 86.49 26.48L86.47 26.46L86.86 27.80L86.84 27.79Q87.11 28.28 87.38 29.39L87.37 29.38L87.29 29.30Q88.37 27.30 91.95 27.11L91.95 27.11L91.87 27.02Q92.77 27.01 93.65 27.01L93.73 27.10L94.21 27.08L94.11 26.98Q94.29 27.05 94.48 27.09L94.42 27.03L94.74 27.04L94.83 27.13Q96.90 27.41 97.62 27.64L97.56 27.58L97.63 27.65Q98.99 27.98 99.86 28.93L99.92 28.98L99.89 28.95Q100.80 30.21 100.77 31.62L100.77 31.62L100.79 31.65Q100.79 34.50 99.99 37.16L99.94 37.12L99.88 37.06Q98.93 40.63 96.57 41.66ZM100.81 42.25L100.78 42.18L100.80 42.20Q101.84 40.16 102.14 36.04L102.20 36.10L102.28 36.19Q102.45 34.45 102.45 33.20L102.36 33.11L102.35 33.09Q102.34 31.56 101.58 30.15L101.71 30.29L101.71 30.28Q101.17 29.70 100.67 29.32L100.69 29.34L100.55 29.08L100.34 28.76L100.22 28.52L100.38 28.68Q98.57 26.57 94.23 26.57L94.22 26.57L93.64 26.59L93.61 26.56Q89.06 26.65 87.42 28.25L87.42 28.25L87.28 28.11Q87.14 27.63 86.99 27.13L87.12 27.27L86.77 26.12L86.83 26.18Q84.28 25.49 82.07 24.01L82.03 23.96L82.10 24.03Q85.36 30.34 85.66 37.57L85.62 37.53L85.59 37.49Q85.85 44.72 82.99 51.20L83.01 51.21L85.05 50.40L85.03 50.38Q84.79 51.13 84.11 52.69L84.17 52.75L84.13 52.71Q86.77 51.59 89.10 51.25L89.06 51.21L89.07 51.22Q90.12 46.33 90.28 42.60L90.35 42.68L90.38 42.70Q91.81 44.21 95.42 44.44L95.43 44.45L95.38 44.39Q99.36 44.68 100.81 42.25L100.84 42.28ZM95.19 32.21L95.17 32.19L95.13 32.15Q95.75 32.05 96.86 32.40L96.95 32.49L96.96 32.49Q97.17 33.43 97.13 34.61L97.05 34.53L97.07 34.55Q97.12 35.51 96.93 36.16L96.98 36.21L96.89 36.12Q96.14 38.98 93.62 39.29L93.59 39.26L93.82 39.37L93.73 39.28Q93.72 39.35 93.61 39.39L93.56 39.34L93.17 39.48L93.17 39.49Q91.99 39.48 91.00 38.99L90.84 38.83L90.61 36.88L90.58 36.86Q90.36 34.46 91.65 33.43L91.78 33.56L91.79 33.58Q92.73 32.41 95.12 32.15Z"/><path fill="#5ae6c3" d="M107.09 32.08L97.98 22.21L97.82 22.05Q98.79 25.88 98.79 29.61L98.73 29.55L98.72 29.54Q98.77 35.57 96.72 41.13L96.60 41.02L96.60 41.01Q95.73 41.47 93.48 42.23L93.28 42.03L93.30 42.06Q96.27 36.42 96.27 29.72L96.29 29.74L96.12 29.56Q96.14 20.94 91.65 13.52L91.75 13.63L91.71 13.58Q92.04 13.64 92.72 14.06L92.89 14.23L92.82 14.17Q104.99 25.46 112.84 34.71L112.73 34.61L112.77 34.64Q112.49 32.23 112.49 29.79L112.35 29.66L112.47 29.77Q112.42 22.49 114.93 16.29L114.93 16.28L114.98 16.34Q117.23 15.73 118.83 15.05L118.85 15.07L118.89 15.10Q115.55 21.25 115.25 28.40L115.23 28.38L115.29 28.45Q114.91 35.72 117.88 41.88L117.92 41.93L117.98 41.99Q117.36 41.86 116.94 41.67L116.95 41.68L116.86 41.59Q112.44 37.78 107.22 32.22L107.11 32.11ZM120.50 45.08L120.49 45.07L120.48 45.05Q120.94 45.22 121.36 45.41L121.38 45.42L122.23 45.78L122.32 45.87Q117.22 38.98 117.22 29.62L117.06 29.46L117.15 29.55Q117.06 22.22 120.37 15.98L120.38 15.99L120.39 16.00Q119.79 16.27 118.38 16.88L118.47 16.97L118.39 16.89Q118.82 16.11 119.66 14.55L119.56 14.45L119.54 14.42Q117.11 15.34 114.67 15.91L114.62 15.87L114.73 15.97Q112.11 22.45 112.11 29.88L111.98 29.74L112.01 29.77Q111.97 31.60 112.16 33.58L112.35 33.77L112.27 33.69Q107.62 28.01 102.87 23.41L102.80 23.34L92.70 13.62L92.85 13.78Q92.20 13.38 90.98 12.81L91.07 12.91L90.90 12.73Q95.79 20.48 95.79 29.58L95.77 29.56L95.77 29.56Q95.79 36.70 92.71 42.72L92.77 42.78L92.75 42.76Q93.15 42.74 94.79 42.13L94.64 41.98L94.63 41.98Q94.49 42.93 93.65 44.42L93.61 44.38L93.63 44.40Q94.81 43.71 98.27 42.92L98.40 43.04L98.40 43.04Q100.75 36.94 100.75 29.75L100.67 29.67L100.71 29.70Q100.65 27.55 100.42 25.42L100.53 25.52L100.36 25.36Q111.89 38.22 120.50 45.08Z"/><path fill="#933ee9" d="M58.79 37.87L58.73 37.81L58.81 37.89Q59.10 38.86 59.63 40.88L59.76 41.01L59.68 40.93Q55.48 39.62 50.87 39.89L50.92 39.94L50.90 39.91Q46.36 40.21 42.36 42.19L42.29 42.12L42.21 42.04Q42.53 41.44 42.56 41.52L42.57 41.52L42.54 41.49Q46.34 37.60 50.26 33.19L50.21 33.13L50.16 33.09Q54.63 28.15 55.81 23.47L55.71 23.37L55.80 23.46Q56.19 21.64 54.92 20.46L55.03 20.58L55.02 20.57Q53.75 19.40 51.96 19.55L51.86 19.44L51.81 19.39Q51.60 19.49 51.26 19.49L51.29 19.52L51.28 19.51Q49.74 19.50 48.49 20.41L48.42 20.35L48.41 20.34Q47.23 21.82 47.46 24.49L47.28 24.31L47.27 24.30Q45.57 24.04 44.35 23.58L44.42 23.65L44.32 23.56Q44.13 22.15 44.06 20.70L44.08 20.73L44.03 20.67Q44.09 19.17 44.70 18.03L44.60 17.93L44.64 17.98Q46.45 16.62 49.80 16.62L49.78 16.60L51.57 16.65L51.44 16.51Q53.81 16.63 54.76 16.75L54.67 16.66L54.81 16.80Q59.15 17.21 59.41 19.65L59.34 19.57L59.45 19.69Q59.44 20.17 59.37 20.97L59.44 21.05L59.34 20.95Q59.23 21.53 59.08 22.21L59.11 22.24L59.08 22.21Q57.57 30.45 50.00 37.30L49.89 37.19L49.97 37.28Q51.37 37.11 52.74 37.11L52.73 37.10L52.83 37.20Q55.98 37.12 58.84 37.92ZM58.21 17.04L58.29 17.12L58.27 17.10Q56.65 16.43 54.94 16.35L54.93 16.35L51.43 16.08L51.52 16.17Q47.15 15.99 44.94 17.10L44.79 16.94L44.78 16.93Q43.72 18.31 43.72 20.37L43.79 20.43L43.70 20.35Q43.86 21.19 44.16 24.00L44.19 24.03L44.07 23.91Q44.68 24.22 45.86 24.52L45.83 24.49L45.94 25.63L45.89 25.59Q45.73 25.92 45.81 26.45L45.82 26.46L45.81 26.46Q47.13 26.63 49.60 26.86L49.67 26.92L49.51 26.77Q49.60 26.51 49.60 26.17L49.48 26.05L49.57 26.14Q49.66 24.40 50.88 23.05L50.77 22.94L50.73 22.90Q52.02 21.62 53.81 21.74L53.87 21.80L53.89 21.82Q54.50 21.70 55.26 21.86L55.30 21.89L55.31 21.90Q55.43 22.29 55.51 22.71L55.43 22.64L55.44 22.64Q55.55 23.13 55.47 23.48L55.45 23.46L55.52 23.52Q54.32 28.34 49.90 33.17L49.75 33.02L49.72 32.99Q47.68 35.33 42.24 41.38L42.14 41.29L42.17 41.31Q41.97 42.14 41.63 42.71L41.71 42.80L41.68 42.76Q43.30 41.91 44.82 41.38L44.72 41.27L44.84 41.39Q44.15 41.99 43.19 43.48L43.16 43.45L43.06 43.35Q42.94 43.68 42.83 44.02L42.93 44.13L43.00 44.20Q47.84 42.11 53.32 42.30L53.25 42.23L53.17 42.15Q58.97 42.43 63.54 44.79L63.55 44.80L62.45 42.56L62.42 42.53Q61.80 41.23 61.54 40.43L61.61 40.50L61.66 40.56Q60.86 40.05 59.64 39.63L59.74 39.73L59.56 39.56Q59.43 38.86 59.05 37.49L59.06 37.49L59.21 37.65Q56.98 37.05 54.69 36.86L54.60 36.77L54.70 36.87Q59.22 32.14 60.74 23.87L60.92 24.05L60.99 21.04L60.97 21.01Q60.91 19.24 59.69 18.56L59.65 18.52L59.73 18.64L59.68 18.58Q59.61 18.48 59.53 18.48L59.68 18.62L59.59 18.54Q59.32 17.66 58.22 17.05Z"/><path fill="#8f73e2" d="M80.04 20.13L80.11 20.19L79.95 20.03Q75.77 20.16 72.08 19.17L72.06 19.15L72.03 19.12Q73.63 23.76 73.82 28.60L73.70 28.48L73.78 28.56Q74.01 33.40 72.79 38.01L72.66 37.87L72.69 37.90Q75.43 37.21 78.93 37.06L79.09 37.22L78.98 37.11Q82.94 36.95 84.72 34.52L84.81 34.61L84.64 34.43Q86.18 32.40 86.38 28.29L86.53 28.44L86.42 28.33Q86.51 26.59 86.05 24.88L86.09 24.92L85.96 24.79Q84.74 20.10 80.02 20.10ZM68.21 42.21L68.18 42.19L68.10 42.10Q71.07 36.51 71.07 29.80L70.92 29.66L70.95 29.69Q71.07 21.28 66.77 14.28L66.66 14.16L66.82 14.33Q71.90 16.82 80.16 17.01L80.31 17.15L80.17 17.02Q89.04 17.21 89.38 24.36L89.43 24.42L89.38 24.37Q89.58 27.15 89.54 28.60L89.53 28.59L89.50 28.55Q89.36 33.18 88.52 35.35L88.66 35.48L88.71 35.53Q88.10 36.45 87.34 37.28L87.40 37.35L87.42 37.37Q86.14 38.98 83.51 39.47L83.38 39.34L83.47 39.43Q81.79 39.61 78.78 39.84L78.80 39.86L78.93 39.99Q72.81 40.46 68.20 42.21ZM85.97 41.93L85.99 41.95L86.02 41.98Q88.75 41.62 90.38 40.14L90.35 40.10L90.34 40.09Q91.54 38.33 91.50 35.59L91.61 35.69L91.67 35.75Q91.60 34.31 91.45 30.81L91.37 30.73L91.08 26.25L91.13 26.30Q90.89 23.97 89.94 21.88L90.03 21.97L90.02 21.96Q89.45 20.97 88.76 20.32L88.82 20.38L88.78 20.19L88.66 20.07Q87.08 17.23 82.66 16.85L82.57 16.75L82.58 16.77Q79.88 16.62 72.88 15.89L72.84 15.85L72.87 15.89Q69.64 15.47 65.95 13.46L65.98 13.48L65.91 13.42Q70.70 20.76 70.70 29.51L70.69 29.51L70.77 29.58Q70.75 36.57 67.40 42.74L67.44 42.78L67.51 42.85Q68.09 42.48 69.42 41.98L69.36 41.92L69.55 42.10Q69.17 42.91 68.29 44.39L68.20 44.30L68.26 44.36Q71.35 43.34 74.70 42.84L74.66 42.80L74.63 42.77Q76.72 42.46 80.37 42.35L80.31 42.28L80.25 42.22Q84.24 42.22 86.07 42.03ZM86.07 28.36L86.16 28.46L86.04 28.33Q85.72 36.39 79.02 36.77L78.97 36.72L79.06 36.81Q77.03 36.84 74.98 37.10L74.99 37.12L75.00 37.13Q75.82 33.37 75.82 29.72L75.66 29.56L75.76 29.66Q75.64 25.85 74.91 22.00L74.94 22.03L74.94 22.03Q77.30 22.48 81.98 22.48L81.95 22.46L81.86 22.37Q83.27 22.25 84.90 23.20L85.04 23.33L84.95 23.25Q86.25 25.54 86.10 28.39Z"/><path fill="#77e893" d="M29.28 14.24L29.42 14.38L29.35 14.31Q33.24 16.95 38.00 17.18L37.84 17.01L37.97 17.15Q42.46 17.18 46.72 15.43L46.80 15.50L46.77 15.47Q46.56 16.06 45.80 18.84L45.86 18.90L45.74 18.79Q43.05 19.87 40.08 20.02L40.09 20.02L40.17 20.10Q37.14 20.20 34.25 19.48L34.21 19.43L34.13 19.36Q34.97 23.13 35.16 26.79L35.12 26.74L35.13 26.75Q37.12 26.95 38.72 26.91L38.62 26.82L38.62 26.82Q39.87 26.85 42.27 26.73L42.35 26.82L42.41 26.88Q42.37 27.52 42.37 28.20L42.27 28.11L42.21 29.38L42.34 29.51Q39.96 29.52 35.16 29.60L35.17 29.61L35.04 29.48Q35.12 33.67 34.55 37.67L34.46 37.58L34.42 37.54Q37.13 36.98 39.87 37.09L39.87 37.09L39.83 37.05Q42.51 37.10 45.10 37.94L45.24 38.08L45.24 38.08Q45.25 38.81 45.51 39.57L45.49 39.55L45.96 41.09L45.93 41.05Q42.88 39.90 39.45 39.90L39.41 39.86L39.42 39.88Q34.42 39.75 30.16 42.00L30.19 42.03L30.25 42.09Q32.44 35.14 32.17 28.02L32.37 28.21L32.26 28.11Q32.05 21.00 29.38 14.34ZM29.71 42.76L29.76 42.82L29.71 42.76Q31.07 42.15 31.83 41.81L31.72 41.69L31.80 41.78Q31.49 42.41 30.92 43.94L31.06 44.08L31.03 44.04Q35.43 41.94 40.50 42.21L40.55 42.26L40.67 42.38Q45.80 42.64 49.80 45.34L49.77 45.31L49.83 45.37Q48.48 42.65 47.80 40.71L47.87 40.79L47.82 40.74Q46.87 40.17 45.88 39.82L45.91 39.85L45.93 39.87Q45.45 38.40 45.29 37.60L45.46 37.77L45.37 37.68Q42.30 36.71 39.14 36.71L39.15 36.71L39.08 36.65Q38.07 36.77 36.93 36.89L36.88 36.84L36.94 36.90Q36.94 35.53 36.97 34.31L37.06 34.39L37.12 31.87L37.11 31.85Q38.94 31.78 40.73 31.82L40.76 31.85L40.68 31.76Q42.54 31.84 44.33 31.99L44.36 32.02L44.40 32.06Q44.23 31.02 44.23 30.07L44.17 30.01L44.28 28.21L43.39 28.20L43.35 28.16Q43.08 28.38 42.62 28.38L42.56 28.32L42.61 28.37Q42.54 27.61 42.69 26.32L42.80 26.43L42.68 26.30Q41.08 26.53 39.90 26.57L39.99 26.66L40.01 26.68Q38.97 26.59 37.14 26.52L37.21 26.58L37.22 26.59Q37.05 25.10 36.86 22.28L36.90 22.32L36.89 22.30Q37.98 22.48 38.97 22.48L38.96 22.47L38.98 22.49Q43.61 22.40 47.30 20.50L47.33 20.52L47.39 20.59Q47.86 18.12 48.73 15.91L48.84 16.03L48.68 15.86Q47.51 16.86 46.67 17.21L46.67 17.20L46.56 17.09Q46.90 16.36 47.35 14.80L47.41 14.86L47.26 14.71Q42.71 16.93 37.83 16.63L37.92 16.71L37.76 16.56Q32.53 16.31 28.69 13.46L28.63 13.40L28.60 13.37Q31.65 20.49 31.95 28.10L31.88 28.03L31.99 28.14Q32.18 35.95 29.67 42.73Z"/><path d="M16 24 C63 1,86 4,148 25" stroke="#5858e9" fill="none"/></svg>