<svg xmlns="http://www.w3.org/2000/svg" width="150" height="50" viewBox="0,0,150,50"><rect width="100%" height="100%" fill="white"/><path fill="#91d84a" d="M85.18 47.14L85.21 47.17L85.02 46.98Q84.18 47.28 82.27 47.58L82.29 47.59L82.33 47.64Q83.47 45.32 84.50 44.02L84.63 44.15L84.68 44.20Q86.34 44.42 86.49 44.42L86.58 44.50L86.55 44.47Q86.77 44.47 87.31 44.35L87.36 44.41L87.38 44.43Q88.05 44.33 88.24 44.33L88.18 44.28L88.14 44.24Q90.68 43.96 90.61 41.79L90.73 41.92L90.75 41.94Q90.70 40.44 90.58 34.19L90.51 34.12L90.55 34.16Q90.40 30.51 90.48 26.36L90.48 26.36L91.96 26.24L91.88 26.16Q92.59 26.12 93.28 25.89L93.35 25.95L93.27 25.87Q93.09 30.35 93.13 34.72L93.11 34.70L93.02 34.62Q93.19 39.12 93.72 43.50L93.76 43.54L93.61 43.39Q93.86 43.87 93.86 44.13L93.85 44.12L93.70 43.97Q93.86 45.77 92.19 46.15L92.05 46.01L92.16 46.13Q88.88 46.35 85.04 47.00ZM91.93 22.90L89.71 19.70L89.75 19.73Q90.76 18.30 92.59 15.52L92.70 15.64L92.71 15.64Q93.22 16.39 94.56 18.22L94.70 18.36L91.99 22.96ZM94.85 49.42L95.00 49.58L94.90 49.47Q95.42 49.50 96.18 49.16L96.16 49.14L96.14 49.11Q96.60 48.55 96.60 48.09L96.56 48.05L96.49 47.98Q96.52 47.67 96.41 47.06L96.42 47.08L96.41 47.07Q95.15 40.74 95.15 32.82L95.01 32.68L95.04 32.71Q95.04 29.86 95.19 26.96L95.11 26.88L95.25 27.02Q94.73 27.22 93.58 27.52L93.46 27.40L93.46 27.40Q93.51 26.96 93.55 26.42L93.49 26.36L93.60 25.30L93.62 25.32Q91.92 25.98 90.13 26.02L90.27 26.15L90.27 26.15Q90.04 30.30 90.08 33.88L90.09 33.89L90.25 41.78L90.29 41.82Q90.33 43.76 88.16 43.88L88.17 43.89L88.13 43.85Q88.06 44.00 87.55 44.06L87.36 43.88L87.49 44.01Q86.98 44.06 86.71 44.06L86.71 44.06L86.75 44.11Q86.13 43.94 84.57 43.53L84.53 43.48L84.62 43.57Q84.09 44.10 82.98 45.78L83.15 45.95L81.59 48.23L81.49 48.13Q82.42 48.00 84.06 47.62L84.15 47.71L83.53 48.27L82.99 48.90L83.14 49.06Q85.32 48.80 86.65 48.88L86.72 48.95L86.63 48.86Q89.07 49.16 95.00 49.58ZM91.84 23.57L91.81 23.54L92.28 23.14L92.26 23.12Q92.56 23.50 93.52 25.09L93.63 25.21L93.59 25.17Q94.97 21.91 96.53 18.82L96.54 18.83L96.57 18.86Q95.58 17.26 94.62 15.96L94.68 16.02L94.66 16.00Q94.55 16.31 94.21 16.85L94.05 16.69L94.08 16.72Q93.77 16.18 92.78 14.88L92.71 14.81L92.66 14.76Q91.61 16.49 89.29 19.84L89.14 19.69L89.22 19.77Q90.13 20.98 91.84 23.57Z"/><path fill="#88f1bc" d="M9.81 28.70L9.63 28.52L9.63 28.52Q6.82 28.53 6.06 30.78L6.22 30.93L6.13 30.85Q5.89 31.56 5.78 32.21L5.80 32.23L5.73 32.16Q8.31 32.34 9.95 32.34L10.03 32.43L9.97 32.37Q11.79 32.55 14.38 32.43L14.36 32.42L14.30 32.35Q14.18 30.64 12.77 29.57L12.75 29.55L12.70 29.50Q11.58 28.68 9.79 28.68ZM9.80 41.18L9.80 41.18L9.71 41.09Q5.64 41.24 4.34 39.84L4.27 39.76L4.27 39.76Q3.32 38.31 3.16 35.04L3.14 35.02L3.15 35.02Q3.13 34.78 3.06 33.41L3.17 33.52L3.19 33.54Q3.00 31.18 3.00 30.45L2.91 30.37L3.03 30.49Q3.03 28.62 3.75 27.52L3.65 27.41L3.62 27.39Q5.14 26.09 8.11 26.09L8.11 26.09L9.59 26.01L9.64 26.05Q11.57 25.93 13.09 26.23L13.16 26.30L13.18 26.32Q15.24 26.79 16.23 28.01L16.33 28.10L16.26 28.03Q16.87 29.10 16.94 31.19L16.96 31.21L16.94 31.19Q17.01 32.40 17.05 34.57L17.05 34.58L16.91 34.43Q14.09 34.51 11.31 34.51L11.37 34.57L5.75 34.54L5.65 34.44Q5.96 39.02 10.03 38.79L9.86 38.61L9.94 38.69Q13.64 38.43 14.86 36.61L14.86 36.61L14.85 36.59Q15.78 37.18 17.38 38.36L17.32 38.30L17.43 38.41Q16.10 40.85 11.95 41.12L11.90 41.07L11.84 41.01Q11.23 41.17 9.86 41.24ZM12.04 43.46L12.21 43.62L12.13 43.54Q13.13 43.41 14.35 43.49L14.49 43.63L14.36 43.49Q19.31 43.65 20.23 40.87L20.29 40.94L20.38 41.02Q18.75 39.77 17.64 39.01L17.68 39.04L17.54 38.90Q17.67 38.47 17.86 38.24L17.92 38.30L17.88 38.26Q17.29 37.94 15.92 36.99L15.78 36.85L15.91 36.97Q16.94 36.98 19.00 37.28L18.96 37.24L18.93 37.21Q18.80 35.91 18.73 35.22L18.75 35.24L18.52 33.22L18.52 33.22Q18.45 30.95 17.80 29.46L17.72 29.38L17.78 29.44Q17.46 29.04 16.89 28.43L17.03 28.57L16.86 28.41Q16.71 28.11 16.48 27.54L16.59 27.64L16.59 27.64Q14.72 25.62 9.65 25.62L9.55 25.51L7.98 25.62L7.88 25.51Q4.80 25.67 3.35 27.16L3.34 27.15L3.24 27.04Q2.64 28.23 2.68 30.29L2.57 30.18L2.59 30.20Q2.60 31.12 2.71 33.37L2.84 33.50L2.75 33.41Q2.77 34.95 2.89 37.01L3.00 37.12L2.99 37.11Q3.32 39.42 4.19 40.48L4.14 40.43L4.13 40.42Q4.22 40.51 4.41 40.62L4.45 40.66L4.69 41.25L4.84 41.40Q5.59 43.21 12.17 43.59ZM10.03 38.36L9.96 38.29L10.08 38.41Q8.80 38.39 7.89 37.94L7.90 37.95L7.87 37.92Q7.94 37.65 7.75 36.96L7.67 36.88L7.69 36.90Q9.41 36.83 11.00 36.83L10.91 36.73L10.92 36.74Q12.55 36.70 14.23 36.81L14.29 36.88L14.29 36.88Q12.98 38.20 9.98 38.31ZM11.54 30.89L11.58 30.92L11.53 30.88Q12.34 31.08 13.67 31.46L13.70 31.49L13.78 31.76L13.87 32.04L13.72 31.89Q12.43 32.08 11.51 32.04L11.45 31.98L11.61 32.14Q9.21 31.98 9.17 31.98L9.22 32.03L9.21 32.03Q9.95 31.09 11.62 30.97Z"/><path fill="#8be3b7" d="M114.16 32.86L114.33 33.03L114.30 33.00Q117.31 32.54 120.51 32.66L120.62 32.77L120.63 32.78Q120.58 30.21 120.58 27.82L120.47 27.71L120.44 27.68Q120.41 25.17 120.60 22.62L120.64 22.67L120.72 22.75Q119.54 24.49 114.32 33.02ZM124.17 40.31L124.13 40.28L124.25 40.40Q122.50 40.02 120.71 39.94L120.78 40.02L120.69 39.92Q120.57 37.64 120.46 35.16L120.37 35.07L120.34 35.04Q115.14 34.98 110.42 36.39L110.36 36.33L110.28 36.25Q110.43 35.79 110.62 34.80L110.62 34.80L110.67 34.85Q112.44 31.67 116.02 25.39L115.97 25.34L115.96 25.34Q118.82 20.43 122.25 16.54L122.43 16.72L122.34 16.64Q123.14 16.37 124.81 16.10L124.79 16.08L124.81 16.10Q122.95 22.57 122.95 29.62L122.98 29.65L122.96 29.63Q122.98 31.13 123.05 32.62L123.04 32.60L124.40 32.78L124.39 32.77Q124.99 32.80 125.60 32.91L125.65 32.97L125.46 32.78Q125.71 33.90 125.98 35.84L125.99 35.86L125.97 35.84Q124.75 35.57 123.27 35.38L123.34 35.45L123.17 35.28Q123.38 37.28 124.06 40.21ZM125.86 32.53L125.79 32.46L125.83 32.50Q125.61 32.39 125.42 32.39L125.48 32.46L125.07 32.42L124.97 32.33Q124.88 30.86 124.88 29.46L125.01 29.59L124.96 29.54Q125.04 23.22 127.09 17.20L126.93 17.04L126.96 17.07Q126.21 17.35 124.77 17.73L124.88 17.85L124.88 17.84Q124.99 16.97 125.45 15.56L125.58 15.68L125.49 15.60Q124.17 15.95 122.11 16.18L122.14 16.21L122.11 16.18Q118.15 20.48 112.93 29.84L113.02 29.93L115.14 26.30L115.04 26.20Q114.76 27.36 114.49 27.94L114.43 27.87L109.90 36.83L109.86 36.79Q110.55 36.67 111.69 36.29L111.71 36.31L111.66 36.64L111.64 36.62Q111.43 37.21 111.13 38.47L111.21 38.55L111.14 38.48Q115.31 37.20 120.14 37.39L120.15 37.40L120.16 37.41Q120.19 38.36 120.38 40.34L120.40 40.35L120.32 40.28Q121.32 40.21 122.39 40.32L122.46 40.40L122.47 40.40Q122.72 41.19 122.98 42.56L122.90 42.47L122.82 42.39Q124.84 42.74 127.85 43.65L127.83 43.63L127.74 43.54Q126.76 41.42 125.85 38.15L126.00 38.30L127.37 38.69L127.44 38.75Q127.95 38.80 128.63 39.15L128.69 39.20L128.63 39.15Q127.98 36.78 127.83 35.11L127.83 35.11L127.78 35.06Q127.14 34.83 125.99 34.61L126.10 34.72L126.09 34.71Q125.75 33.29 125.75 32.42ZM117.81 32.32L117.80 32.31L117.93 32.44Q118.68 31.14 120.24 28.59L120.08 28.42L120.13 28.47Q120.09 29.39 120.05 30.34L120.07 30.35L120.11 30.40Q120.19 31.46 120.23 32.42L120.13 32.32L120.09 32.28Q119.61 32.33 119.04 32.33L118.98 32.27L118.98 32.27Q118.35 32.25 117.74 32.25Z"/><path fill="#53e3e3" d="M129.40 14.03L129.45 14.08L129.50 14.13Q130.28 15.98 131.95 16.32L132.00 16.36L131.95 16.31Q132.51 16.46 133.20 16.27L133.33 16.40L133.19 16.26Q133.04 22.24 132.97 28.10L132.94 28.07L132.91 28.04Q133.03 34.00 133.26 39.93L133.13 39.80L133.25 39.92Q132.81 39.71 132.51 39.71L132.69 39.89L132.56 39.77Q131.08 39.84 129.78 41.67L129.65 41.54L129.67 41.56Q130.42 34.69 130.38 27.84L130.48 27.94L130.37 27.83Q130.36 21.00 129.52 14.15ZM129.27 42.72L129.30 42.75L129.28 42.73Q130.49 41.04 131.55 40.59L131.45 40.49L131.54 40.57Q131.31 41.45 131.31 42.44L131.41 42.54L131.32 42.44Q132.03 42.05 132.83 42.17L132.98 42.31L132.90 42.24Q134.87 42.50 136.09 45.20L136.18 45.28L136.13 45.24Q134.92 37.67 134.92 30.21L134.90 30.19L134.93 30.22Q134.88 22.45 135.72 15.14L135.88 15.29L135.83 15.24Q134.74 17.05 133.60 17.66L133.68 17.74L133.59 17.65Q133.58 16.61 133.66 15.55L133.80 15.68L133.73 15.62Q132.90 16.08 132.14 15.93L132.27 16.06L132.12 15.91Q129.91 15.49 128.92 12.63L128.95 12.67L129.09 12.80Q130.03 20.22 130.11 27.76L130.07 27.72L130.12 27.77Q130.30 35.34 129.43 42.88Z"/><path fill="#e3cd8b" d="M43.19 40.92L43.15 40.88L43.13 40.86Q41.81 39.16 40.51 36.08L40.65 36.22L38.41 30.97L38.43 30.99Q36.98 35.13 36.37 36.42L36.21 36.27L36.26 36.32Q34.88 39.31 33.28 41.21L33.30 41.24L33.23 41.16Q32.83 41.15 32.07 41.26L32.14 41.33L32.12 41.32Q32.19 33.95 26.36 28.02L26.18 27.84L26.26 27.91Q24.49 26.06 22.47 24.58L22.56 24.67L22.41 24.52Q24.44 25.26 26.31 25.56L26.24 25.49L26.18 25.43Q32.37 30.52 33.82 36.77L33.69 36.64L33.82 36.77Q34.75 34.95 35.93 31.76L35.84 31.67L35.86 31.69Q37.15 27.88 37.72 26.58L37.83 26.69L39.14 26.60L39.12 26.57Q39.95 28.24 41.13 31.51L41.10 31.49L41.14 31.53Q42.57 35.28 43.22 36.69L43.08 36.55L43.16 36.63Q45.06 30.42 50.54 25.85L50.50 25.81L50.54 25.85Q51.58 25.59 54.32 25.02L54.41 25.11L54.43 25.13Q45.66 31.02 44.48 41.00L44.45 40.97L43.84 40.88L43.92 40.96Q43.63 40.98 43.29 41.02ZM46.15 43.35L48.29 43.63L48.19 43.53Q47.91 42.03 47.91 40.50L47.97 40.56L47.88 40.47Q47.86 37.22 49.27 33.98L49.32 34.03L49.38 34.10Q51.24 29.44 55.35 26.36L55.35 26.35L55.47 26.48Q54.28 26.77 52.41 27.11L52.33 27.03L52.30 27.00Q54.24 25.33 55.54 24.41L55.64 24.51L53.08 24.93L53.12 24.97Q51.89 25.18 50.56 25.33L50.66 25.43L50.56 25.34Q45.34 29.52 43.40 34.54L43.35 34.50L43.50 34.65Q42.74 32.37 41.37 28.10L41.53 28.26L41.40 28.13Q41.11 28.18 40.84 28.18L40.82 28.16L40.33 28.20L40.23 28.11Q40.29 27.97 39.49 26.22L39.38 26.11L37.35 26.13L37.45 26.23Q36.47 29.02 34.37 34.66L34.30 34.59L34.28 34.56Q33.07 30.99 29.99 27.72L29.84 27.57L29.81 27.54Q29.59 27.59 29.28 27.55L29.37 27.63L28.72 27.45L28.75 27.48Q28.01 26.77 26.22 25.17L26.04 24.99L26.19 25.15Q22.90 24.36 21.22 23.87L21.37 24.02L21.37 24.01Q31.97 31.34 31.59 41.66L31.71 41.77L31.75 41.81Q31.83 41.71 32.19 41.67L32.29 41.76L32.13 41.60Q32.53 41.60 32.72 41.60L32.65 41.54L32.79 41.68Q32.78 41.51 32.97 43.61L33.02 43.66L34.83 43.37L34.94 43.49Q37.55 40.69 39.79 34.94L39.69 34.83L39.72 34.86Q41.13 38.63 43.00 41.30L42.97 41.28L43.01 41.32Q43.31 41.27 43.57 41.29L43.73 41.44L43.65 41.36Q43.87 41.34 44.14 41.34L44.18 41.38L46.19 43.39Z"/><path fill="#6a6ae0" d="M115.33 23.02L115.34 23.03L115.38 23.08Q113.45 25.67 110.78 31.31L110.95 31.47L108.90 35.67L108.96 35.72Q108.06 37.61 106.73 39.85L106.78 39.90L106.68 39.81Q107.05 39.72 105.37 39.75L105.52 39.90L105.45 39.83Q105.41 39.79 104.15 39.79L104.21 39.85L104.25 39.89Q103.58 38.45 100.64 31.29L100.48 31.13L100.47 31.12Q98.40 25.85 96.30 22.84L96.36 22.89L96.23 22.77Q97.00 25.86 97.00 29.02L96.98 29.00L97.07 29.09Q96.96 35.49 93.99 41.05L93.99 41.05L94.10 41.16Q92.71 41.45 90.35 42.17L90.36 42.18L90.35 42.16Q94.11 36.56 94.11 29.33L94.03 29.25L94.08 29.30Q94.15 20.42 88.74 13.45L88.72 13.43L88.63 13.34Q90.30 14.10 92.66 14.78L92.76 14.88L92.70 14.82Q99.65 21.47 105.74 34.80L105.79 34.84L105.88 34.93Q109.31 27.85 111.52 24.35L111.60 24.43L111.53 24.36Q115.17 18.63 119.13 15.17L119.11 15.16L119.08 15.12Q120.31 14.87 122.67 14.11L122.72 14.15L122.63 14.07Q117.62 20.67 117.62 29.27L117.60 29.26L117.63 29.29Q117.68 35.99 121.10 41.51L121.16 41.57L121.13 41.54Q119.71 41.15 116.97 40.54L117.07 40.64L117.02 40.59Q114.60 35.74 114.60 29.76L114.63 29.79L114.59 29.74Q114.62 26.35 115.31 23.00ZM116.87 41.01L116.83 40.97L116.78 40.92Q117.47 41.03 118.91 41.30L119.03 41.42L119.03 41.41Q119.40 42.09 120.35 43.57L120.37 43.60L120.36 43.59Q122.56 44.07 126.02 45.29L126.08 45.35L126.01 45.28Q119.64 38.83 119.64 29.01L119.77 29.14L119.71 29.08Q119.68 21.33 124.06 15.20L124.15 15.29L122.01 16.04L121.91 15.94Q122.90 14.38 123.55 13.50L123.58 13.53L123.51 13.46Q121.78 14.24 119.15 14.78L118.98 14.61L119.11 14.74Q112.30 20.80 106.25 33.40L106.20 33.34L106.24 33.39Q101.01 22.37 96.06 17.12L96.14 17.20L96.20 17.26Q95.68 17.04 95.11 16.93L95.18 16.99L93.91 15.65L94.02 15.76Q93.33 15.00 92.65 14.39L92.71 14.45L92.66 14.40Q89.56 13.36 87.77 12.63L87.93 12.80L87.90 12.76Q93.72 19.80 93.72 29.21L93.87 29.35L93.73 29.21Q93.73 36.83 89.58 42.69L89.70 42.81L89.63 42.74Q90.30 42.49 91.59 42.08L91.69 42.17L91.69 42.18Q91.45 42.31 90.04 44.41L90.09 44.46L90.17 44.54Q91.83 43.91 95.33 43.15L95.33 43.15L95.50 43.32Q99.07 36.12 98.88 28.35L99.04 28.51L98.96 28.43Q100.45 32.39 103.91 40.27L103.97 40.33L103.87 40.23Q104.23 40.29 104.46 40.29L104.47 40.30L104.92 40.22L104.90 40.20Q105.46 40.99 106.26 42.28L106.26 42.27L106.13 42.14Q107.79 42.17 107.79 42.17L107.89 42.27L107.82 42.20Q108.85 42.21 109.50 42.28L109.53 42.31L109.55 42.34Q111.00 38.19 114.35 30.19L114.41 30.25L114.30 30.14Q114.33 35.73 116.91 41.05Z"/><path fill="#e8cf87" d="M65.64 18.55L65.58 18.49L65.63 18.54Q64.73 18.74 64.58 19.54L64.60 19.56L64.62 24.73L64.72 24.83Q65.82 24.78 68.03 24.52L68.11 24.60L67.97 24.46Q67.96 24.90 67.92 25.74L68.03 25.85L68.01 25.83Q67.88 26.50 67.88 26.96L67.98 27.06L66.43 27.18L66.34 27.10Q65.57 27.20 64.69 27.20L64.58 27.09L64.66 27.16Q64.73 31.43 64.66 39.80L64.50 39.64L64.58 39.72Q62.44 39.87 60.96 40.56L60.94 40.53L60.88 40.48Q61.99 34.36 61.88 27.12L61.81 27.05L61.86 27.11Q61.14 27.00 59.85 26.73L59.87 26.75L59.83 26.71Q59.91 25.80 59.72 23.86L59.77 23.91L59.70 23.84Q60.82 24.35 61.77 24.54L61.74 24.51L61.73 24.50Q61.75 23.91 61.44 21.43L61.35 21.34L61.39 21.38Q61.21 19.38 61.21 18.42L61.19 18.41L61.27 18.48Q61.17 16.71 62.58 16.14L62.53 16.09L62.58 16.14Q63.41 15.79 68.24 14.95L68.18 14.89L68.34 15.05Q69.14 14.90 69.98 14.78L69.85 14.65L69.90 14.71Q69.67 15.46 69.52 16.34L69.61 16.43L69.16 17.85L69.21 17.89Q68.60 17.78 68.10 17.89L68.06 17.85L68.09 17.88Q67.46 17.86 65.56 18.47ZM71.03 19.64L71.07 19.68L71.02 19.63Q71.42 17.48 72.03 14.93L71.96 14.86L71.88 14.78Q71.25 15.10 69.96 15.71L70.03 15.79L70.41 14.07L70.43 14.10Q69.24 14.31 66.77 14.84L66.75 14.82L66.75 14.83Q65.51 14.85 62.32 15.76L62.30 15.75L62.36 15.80Q60.85 16.27 60.85 18.14L60.87 18.16L60.80 18.09Q60.85 18.45 60.93 18.79L60.84 18.70L60.86 18.72Q61.02 19.99 61.14 21.32L61.28 21.47L61.33 23.99L61.35 24.01Q60.02 23.67 59.37 23.21L59.47 23.31L59.32 23.16Q59.50 24.17 59.53 25.20L59.56 25.23L59.59 27.12L59.63 27.16Q60.33 27.33 61.13 27.41L61.20 27.47L61.17 29.54L61.58 29.57L61.46 29.45Q61.38 35.61 60.39 41.05L60.44 41.10L60.40 41.07Q61.49 40.66 62.67 40.40L62.53 40.27L62.38 42.36L62.44 42.41Q63.61 42.07 64.90 42.03L64.93 42.06L64.97 42.10Q66.17 42.04 67.43 42.31L67.47 42.35L67.48 42.36Q66.63 37.35 66.63 29.40L66.53 29.31L66.68 29.45Q67.77 29.44 69.87 29.52L69.82 29.47L69.75 27.53L69.82 27.60Q69.86 26.69 69.90 25.74L69.93 25.77L69.88 25.72Q69.43 25.84 68.36 26.11L68.36 26.11L68.27 26.01Q68.38 25.44 68.49 24.10L68.37 23.99L68.45 24.06Q67.62 24.30 66.82 24.38L66.74 24.30L66.77 24.33Q66.83 22.98 66.94 21.57L66.84 21.47L66.94 21.56Q66.95 20.78 67.48 20.43L67.49 20.44L67.61 20.56Q68.53 19.84 69.35 19.76L69.42 19.84L69.42 19.84Q70.21 19.73 71.04 19.65Z"/><path fill="#9e88e1" d="M51.74 41.36L51.78 41.40L51.73 41.36Q48.82 41.49 47.56 40.96L47.61 41.01L47.54 40.93Q45.73 40.27 45.80 37.79L45.73 37.71L45.77 37.76Q45.92 34.37 45.92 34.94L45.97 34.99L45.79 34.81Q45.88 29.57 43.02 24.73L43.06 24.77L42.95 24.66Q45.10 25.78 47.08 26.16L46.99 26.07L46.94 26.02Q48.72 30.69 48.60 35.19L48.63 35.21L48.54 35.12Q48.47 36.69 49.31 37.91L49.17 37.77L49.30 37.89Q50.17 39.19 51.69 38.99L51.69 38.99L52.05 38.86L52.02 38.83Q53.34 38.74 54.16 37.98L54.26 38.08L54.27 38.09Q54.97 37.21 54.97 36.26L55.09 36.38L54.99 36.28Q55.13 36.19 55.09 36.00L54.94 35.85L55.09 36.00Q55.01 30.75 56.16 26.41L56.10 26.35L56.12 26.37Q57.16 26.30 58.15 26.07L58.06 25.98L60.14 25.56L60.19 25.60Q57.66 30.65 57.97 36.21L57.81 36.06L57.84 36.08Q57.97 39.11 56.26 40.25L56.30 40.29L56.40 40.39Q55.09 41.25 51.77 41.40ZM54.00 43.70L54.08 43.78L54.12 43.82Q57.49 43.88 59.32 43.12L59.39 43.19L59.30 43.10Q60.17 42.30 60.17 40.89L60.27 40.99L60.25 40.97Q60.29 40.10 60.03 38.54L60.09 38.60L60.02 38.54Q59.45 35.29 59.83 32.29L59.96 32.42L60.00 32.46Q60.32 29.23 61.73 26.49L61.74 26.51L61.67 26.44Q60.99 26.71 59.66 27.13L59.66 27.13L59.79 27.26Q59.90 26.53 60.20 25.96L60.37 26.12L60.84 24.88L60.85 24.89Q58.88 25.52 55.72 26.01L55.68 25.97L55.70 25.99Q54.46 30.76 54.61 35.87L54.60 35.85L54.75 36.00Q54.69 37.96 52.03 38.46L52.05 38.48L51.74 38.63L51.63 38.67L50.69 38.52L50.62 38.45Q50.53 37.57 50.57 37.07L50.66 37.16L50.65 37.15Q50.84 32.62 50.15 28.20L50.08 28.14L49.10 28.06L48.95 27.91Q48.51 27.97 47.98 27.86L47.91 27.79L47.94 27.82Q47.61 26.46 47.34 25.70L47.40 25.76L47.35 25.71Q44.58 25.30 42.33 24.00L42.35 24.02L42.35 24.02Q44.53 27.57 45.25 30.96L45.22 30.93L45.23 30.94Q45.75 33.17 45.60 36.67L45.55 36.62L45.49 36.57Q45.46 36.65 45.38 37.75L45.41 37.78L45.42 37.79Q45.25 40.13 46.62 41.09L46.65 41.11L46.71 41.17Q46.97 43.30 53.98 43.68Z"/><path d="M9 13 C63 21,80 12,135 29" stroke="#db70c0" fill="none"/><path fill="#67e53c" d="M17.34 15.85L17.38 15.89L17.28 15.79Q19.33 20.81 19.90 25.99L19.79 25.88L19.77 25.85Q23.60 21.84 29.50 17.01L29.46 16.96L29.42 16.93Q32.67 16.67 35.30 15.87L35.19 15.77L28.69 21.45L28.62 21.38Q25.22 24.34 22.37 27.20L22.51 27.34L22.45 27.28Q30.40 36.41 35.46 41.13L35.45 41.11L35.51 41.18Q32.39 40.23 30.07 40.08L29.96 39.96L30.03 40.04Q24.25 34.64 19.95 28.81L20.00 28.87L20.01 28.88Q20.06 35.43 18.19 40.76L18.28 40.85L18.17 40.73Q17.91 40.74 17.41 40.93L17.44 40.96L17.37 41.08L17.45 41.16Q17.22 41.16 14.67 42.08L14.64 42.04L14.68 42.08Q17.66 35.55 17.32 28.09L17.31 28.07L17.32 28.08Q17.07 20.83 13.53 14.32L13.53 14.32L13.99 14.52L14.29 14.71L14.40 14.78L14.36 14.74Q15.08 15.11 17.29 15.80ZM17.61 15.54L17.59 15.53L17.66 15.60Q15.29 14.95 12.67 13.42L12.78 13.53L12.73 13.49Q16.94 20.70 16.94 29.65L17.09 29.80L17.05 29.76Q17.02 36.74 14.05 42.79L14.13 42.87L16.13 41.98L15.97 41.82Q15.66 42.92 14.98 44.21L15.05 44.28L14.97 44.20Q17.24 43.42 19.18 43.01L19.14 42.96L19.25 42.85L19.22 42.82Q19.47 42.76 20.04 42.61L20.06 42.63L20.12 42.69Q21.76 36.75 21.87 31.96L21.75 31.84L21.82 31.91Q24.03 34.53 25.85 36.39L25.69 36.23L25.67 36.21Q27.02 37.48 30.02 40.45L30.05 40.48L30.06 40.48L30.07 40.50Q31.01 41.25 32.88 42.85L32.90 42.87L32.90 42.87Q36.66 43.47 40.12 45.18L40.16 45.22L40.23 45.29Q30.96 36.75 24.72 29.32L24.73 29.33L24.59 29.19Q29.14 25.06 37.89 16.46L37.83 16.39L37.90 16.46Q35.28 17.53 33.26 17.91L33.29 17.94L33.23 17.88Q34.46 16.91 36.79 14.89L36.89 15.00L36.90 15.00Q32.73 16.36 29.38 16.55L29.35 16.52L29.37 16.53Q26.50 18.81 21.63 23.49L21.51 23.37L21.60 23.46Q21.07 20.72 20.50 18.17L20.68 18.35L20.69 18.36Q19.32 18.02 18.33 17.68L18.48 17.83L18.41 17.75Q18.29 17.10 17.72 15.66Z"/><path fill="#74ea4c" d="M88.47 23.07L88.46 23.06L88.49 23.09Q86.62 25.76 83.96 31.39L84.05 31.49L81.90 35.57L81.98 35.66Q81.10 37.56 79.77 39.80L79.80 39.84L79.69 39.72Q80.23 39.81 78.56 39.85L78.55 39.84L78.54 39.83Q78.64 39.93 77.38 39.93L77.34 39.89L77.27 39.82Q76.62 38.41 73.69 31.25L73.72 31.28L73.64 31.20Q71.45 25.81 69.35 22.80L69.34 22.78L69.42 22.87Q70.18 25.95 70.18 29.11L70.07 29.00L70.24 29.17Q70.19 35.62 67.22 41.18L67.08 41.04L67.18 41.15Q65.87 41.51 63.51 42.23L63.53 42.26L63.42 42.14Q67.22 36.59 67.22 29.35L67.11 29.23L67.18 29.31Q67.23 20.41 61.82 13.44L61.76 13.38L61.80 13.42Q63.48 14.19 65.84 14.87L65.71 14.74L65.76 14.80Q72.77 21.50 78.86 34.82L78.93 34.89L78.86 34.82Q82.42 27.87 84.63 24.37L84.52 24.26L84.58 24.33Q88.16 18.54 92.12 15.08L92.08 15.04L92.11 15.06Q93.35 14.82 95.71 14.06L95.67 14.02L95.75 14.10Q90.73 20.69 90.73 29.30L90.70 29.26L90.70 29.26Q90.70 35.92 94.13 41.44L94.14 41.46L94.17 41.49Q92.83 41.18 90.09 40.57L90.09 40.57L90.08 40.56Q87.83 35.87 87.83 29.89L87.74 29.81L87.84 29.91Q87.86 26.49 88.54 23.14ZM90.00 41.05L89.99 41.04L89.95 41.00Q90.68 41.16 92.13 41.43L92.12 41.42L91.98 41.28Q92.53 42.14 93.48 43.62L93.39 43.53L93.42 43.55Q95.69 44.11 99.15 45.33L98.99 45.17L99.06 45.23Q92.81 38.91 92.81 29.08L92.87 29.15L92.70 28.98Q92.77 21.32 97.15 15.20L97.18 15.22L95.01 15.95L94.94 15.87Q96.02 14.41 96.67 13.53L96.65 13.51L96.69 13.55Q94.83 14.21 92.21 14.74L92.10 14.64L92.16 14.70Q85.33 20.73 79.27 33.33L79.38 33.44L79.30 33.36Q74.23 22.50 69.28 17.25L69.16 17.12L69.18 17.15Q68.85 17.12 68.28 17.01L68.33 17.06L67.06 15.72L66.99 15.64Q66.47 15.04 65.78 14.43L65.74 14.39L65.74 14.39Q62.74 13.44 60.95 12.72L60.85 12.62L60.97 12.74Q67.00 19.99 67.00 29.39L67.01 29.40L66.86 29.25Q66.81 36.82 62.66 42.68L62.86 42.88L62.69 42.71Q63.52 42.62 64.81 42.20L64.81 42.21L64.82 42.22Q64.52 42.30 63.12 44.39L63.18 44.46L63.24 44.52Q64.92 43.91 68.42 43.15L68.50 43.22L68.58 43.31Q72.25 36.21 72.06 28.44L72.02 28.40L72.03 28.41Q73.63 32.49 77.10 40.37L77.11 40.37L76.96 40.22Q77.20 40.17 77.43 40.17L77.45 40.19L78.06 40.26L78.08 40.28Q78.47 40.90 79.27 42.20L79.21 42.13L79.30 42.23Q80.91 42.20 80.91 42.20L80.90 42.19L80.85 42.14Q81.88 42.14 82.53 42.22L82.65 42.34L82.49 42.18Q84.13 38.22 87.48 30.23L87.55 30.30L87.41 30.16Q87.38 35.69 89.97 41.02Z"/></svg>