<svg xmlns="http://www.w3.org/2000/svg" width="150" height="50" viewBox="0,0,150,50"><rect width="100%" height="100%" fill="white"/><path fill="#ea6aaa" d="M82.00 30.88L82.07 30.95L82.00 30.88Q81.91 29.69 79.97 28.97L80.00 28.99L80.01 29.00Q79.37 28.67 78.84 28.67L78.95 28.78L78.91 28.74Q77.56 28.77 76.50 29.34L76.46 29.30L76.45 29.29Q75.06 29.99 75.17 31.21L75.20 31.24L75.27 31.31Q75.58 34.09 75.43 36.34L75.39 36.30L75.48 36.39Q75.33 38.82 74.60 41.34L74.59 41.32L74.66 41.39Q72.45 41.81 71.27 42.23L71.33 42.29L71.23 42.19Q72.78 38.53 72.78 34.53L72.85 34.60L72.93 34.67Q72.83 29.13 70.24 24.68L70.21 24.65L70.35 24.79Q71.50 25.21 73.90 25.94L73.85 25.89L73.79 25.83Q74.19 26.65 74.57 28.17L74.51 28.11L74.47 28.07Q75.94 26.12 79.83 26.19L79.73 26.10L79.73 26.09Q81.17 26.09 81.97 26.21L82.02 26.25L82.11 26.34Q85.04 26.69 85.12 28.71L85.10 28.68L85.13 28.72Q85.11 29.57 84.92 30.60L84.90 30.58L84.93 30.61Q84.53 33.18 84.72 36.18L84.71 36.18L84.66 36.12Q84.78 38.95 85.77 41.50L85.84 41.57L85.88 41.61Q84.08 41.10 82.37 40.95L82.40 40.99L82.44 41.03Q82.03 38.72 81.96 36.05L81.92 36.02L81.94 36.03Q81.79 33.22 82.02 30.89ZM82.09 41.40L82.09 41.40L81.99 41.30Q82.81 41.32 84.11 41.55L84.07 41.51L84.52 42.65L84.44 42.57Q84.65 43.09 84.88 43.62L84.99 43.73L84.84 43.58Q87.23 44.10 89.93 45.28L89.96 45.31L89.99 45.34Q87.56 42.15 86.88 38.34L86.93 38.40L86.91 38.38Q86.45 36.13 86.57 32.44L86.60 32.47L86.68 32.55Q86.68 32.25 86.72 31.45L86.61 31.34L86.71 31.44Q86.71 30.76 86.63 30.26L86.72 30.35L86.70 30.32Q86.53 28.60 85.43 28.10L85.52 28.19L85.41 28.08Q85.38 27.36 84.61 26.75L84.53 26.67L84.60 26.74Q82.87 25.70 79.83 25.77L79.76 25.71L79.69 25.64Q77.84 25.69 77.00 25.88L76.98 25.86L77.14 26.02Q75.55 26.22 74.60 27.13L74.69 27.23L74.67 27.20Q74.61 26.72 74.23 25.69L74.10 25.57L74.23 25.70Q71.39 24.99 69.56 24.00L69.56 24.00L69.44 23.87Q72.53 28.80 72.53 34.55L72.62 34.63L72.50 34.52Q72.54 38.93 70.63 42.77L70.64 42.78L70.58 42.72Q71.41 42.56 72.71 42.18L72.69 42.16L72.59 42.07Q72.17 43.40 71.64 44.39L71.58 44.33L71.65 44.40Q73.09 43.97 76.63 43.40L76.54 43.32L76.63 43.40Q77.62 38.26 77.50 33.43L77.36 33.28L77.41 33.33Q77.39 32.52 78.57 31.79L78.62 31.84L78.62 31.84Q79.66 31.20 80.76 31.09L80.72 31.05L80.71 31.03Q81.12 30.95 81.54 31.14L81.56 31.16L81.70 31.30Q81.42 33.72 81.46 36.28L81.52 36.34L81.55 36.37Q81.48 38.77 81.98 41.29Z"/><path fill="#df7590" d="M33.58 33.01L33.56 32.99L33.56 32.98Q36.71 32.67 39.90 32.78L39.87 32.75L39.89 32.77Q39.86 30.23 39.86 27.83L39.75 27.72L39.73 27.70Q39.71 25.20 39.90 22.65L40.05 22.80L40.05 22.80Q38.82 24.50 33.61 33.03ZM43.48 40.35L43.50 40.38L43.51 40.38Q41.66 39.90 39.87 39.83L39.93 39.89L40.04 40.00Q39.76 37.55 39.65 35.08L39.64 35.07L39.76 35.19Q34.38 34.95 29.66 36.36L29.53 36.22L29.71 36.40Q29.65 35.74 29.84 34.75L29.90 34.81L29.90 34.81Q31.68 31.64 35.26 25.36L35.38 25.48L35.24 25.34Q38.15 20.48 41.58 16.60L41.66 16.68L41.66 16.69Q42.43 16.39 44.10 16.12L44.07 16.08L44.16 16.18Q42.21 22.57 42.21 29.61L42.24 29.64L42.19 29.59Q42.20 31.08 42.28 32.57L42.28 32.57L43.63 32.74L43.64 32.75Q44.14 32.68 44.75 32.79L44.80 32.84L44.89 32.94Q45.05 33.97 45.32 35.91L45.23 35.82L45.24 35.84Q44.07 35.61 42.58 35.42L42.45 35.29L42.61 35.45Q42.79 37.42 43.47 40.35ZM45.17 32.56L45.14 32.53L45.06 32.46Q45.00 32.51 44.81 32.51L44.67 32.37L44.34 32.42L44.27 32.35Q44.31 31.02 44.31 29.61L44.29 29.59L44.17 29.47Q44.20 23.11 46.25 17.09L46.36 17.20L46.28 17.12Q45.44 17.31 44.00 17.69L44.13 17.82L44.16 17.85Q44.40 17.10 44.86 15.69L44.84 15.67L44.85 15.68Q43.47 15.98 41.42 16.21L41.50 16.29L41.35 16.15Q37.48 20.54 32.27 29.91L32.34 29.97L34.42 26.31L34.36 26.25Q33.94 27.28 33.68 27.85L33.65 27.82L29.30 36.95L29.30 36.95Q29.80 36.65 30.94 36.27L31.09 36.42L30.78 36.49L30.77 36.47Q30.80 37.31 30.49 38.56L30.48 38.55L30.48 38.55Q34.58 37.21 39.42 37.40L39.46 37.44L39.36 37.34Q39.44 38.34 39.63 40.32L39.66 40.34L39.56 40.24Q40.65 40.27 41.72 40.38L41.77 40.43L41.79 40.45Q41.85 41.05 42.12 42.42L42.10 42.40L42.10 42.40Q44.17 42.79 47.17 43.71L47.07 43.61L47.01 43.55Q46.19 41.58 45.28 38.31L45.28 38.31L46.57 38.62L46.56 38.60Q47.31 38.90 48.00 39.24L48.00 39.24L48.04 39.28Q47.19 36.72 47.04 35.05L46.97 34.97L47.08 35.08Q46.49 34.91 45.34 34.68L45.40 34.74L45.43 34.77Q45.12 33.40 45.12 32.52ZM37.17 32.41L37.14 32.38L37.06 32.30Q37.80 30.98 39.36 28.43L39.50 28.57L39.37 28.44Q39.44 29.47 39.41 30.42L39.33 30.35L39.35 30.36Q39.42 31.42 39.46 32.37L39.46 32.37L39.44 32.36Q38.95 32.40 38.38 32.40L38.19 32.21L38.30 32.32Q37.77 32.40 37.16 32.40Z"/><path fill="#5adc5a" d="M19.51 23.38L19.34 23.21L19.42 23.30Q17.70 19.21 11.49 19.40L11.52 19.43L11.50 19.41Q7.16 19.60 5.18 21.05L5.02 20.89L5.20 21.06Q2.74 22.76 2.74 26.87L2.80 26.93L2.61 28.60L2.79 28.78Q2.77 37.59 11.79 37.59L11.72 37.52L11.63 37.43Q13.86 37.61 15.35 36.81L15.22 36.68L15.21 36.67Q17.05 35.65 16.89 33.79L16.99 33.88L17.02 33.91Q16.82 31.82 13.13 30.90L13.00 30.77L11.13 30.84L11.03 30.74Q10.21 30.88 9.26 30.92L9.14 30.79L9.25 30.91Q9.21 29.91 9.17 28.00L9.27 28.10L9.20 28.04Q16.74 27.93 20.93 27.58L21.06 27.72L21.10 27.76Q20.89 28.42 20.89 29.21L20.99 29.32L20.91 29.24Q21.01 30.13 21.04 30.93L21.02 30.91L20.95 30.84Q19.91 30.90 19.91 30.90L19.90 30.89L20.01 31.00Q18.49 30.85 18.87 30.85L18.89 30.87L18.78 30.76Q20.08 32.59 20.46 34.57L20.29 34.41L20.35 34.46Q20.45 35.18 20.45 35.63L20.47 35.65L20.38 35.56Q20.41 40.23 11.61 40.23L11.62 40.24L11.72 40.34Q4.50 40.23 1.91 38.14L2.06 38.29L1.96 38.19Q-0.06 35.79-0.06 30.73L-0.05 30.74L-0.02 30.77Q0.04 29.76-0.12 27.06L-0.23 26.94L-0.06 27.12Q-0.32 24.64-0.29 23.27L-0.28 23.27L-0.36 23.19Q-0.10 20.48 1.27 18.88L1.13 18.75L1.22 18.84Q3.86 16.87 8.73 16.68L8.72 16.67L11.37 16.57L11.30 16.51Q14.31 16.32 17.73 16.74L17.71 16.72L17.88 16.88Q21.67 17.40 22.62 20.63L22.48 20.50L22.46 20.47Q21.46 21.41 19.37 23.24ZM20.86 25.54L20.94 25.50L20.90 25.46Q22.03 24.30 23.89 22.32L23.92 22.35L23.89 22.32Q23.74 21.52 22.75 19.81L22.75 19.81L22.71 19.77Q21.59 17.16 17.78 16.52L17.72 16.46L17.71 16.45Q15.60 16.35 11.30 16.05L11.28 16.03L8.56 16.13L8.57 16.14Q3.44 16.38 0.85 18.36L0.78 18.28L0.90 18.41Q-0.47 20.04-0.58 23.13L-0.59 23.12L-0.70 23.01Q-0.53 22.72-0.31 28.20L-0.48 28.03L-0.41 28.10Q-0.47 29.36-0.40 32.11L-0.25 32.25L-0.29 32.21Q-0.22 36.55 1.54 38.49L1.67 38.62L1.55 38.51Q2.06 39.47 2.93 40.35L2.87 40.28L2.81 40.23Q5.84 42.23 11.36 42.57L11.39 42.59L14.17 42.68L14.16 42.66Q15.86 42.88 17.88 42.77L17.81 42.70L17.76 42.65Q19.30 42.67 21.39 42.13L21.31 42.05L21.45 42.19Q23.25 41.55 23.21 39.23L23.32 39.34L23.19 39.21Q23.28 38.04 22.21 35.26L22.22 35.27L22.21 35.26Q21.92 34.36 21.38 33.56L21.34 33.51L21.38 33.55Q22.01 33.61 23.19 33.80L23.09 33.70L23.19 33.80Q22.75 30.05 22.78 29.36L22.84 29.41L22.78 29.36Q22.52 29.47 22.10 29.44L22.07 29.41L22.09 29.43Q21.60 29.28 21.22 29.36L21.39 29.53L21.23 29.37Q21.25 28.28 21.32 27.22L21.49 27.38L21.37 27.26Q15.02 27.69 8.74 27.58L8.75 27.59L8.90 27.73Q8.89 28.60 8.89 29.51L8.79 29.42L8.91 31.29L8.81 31.19Q9.32 31.31 9.73 31.27L9.73 31.26L9.64 31.18Q10.16 31.28 10.62 31.28L10.60 31.26L10.60 31.26Q10.47 31.59 10.51 32.09L10.49 32.07L10.67 32.24Q10.54 32.57 10.50 33.07L10.64 33.21L10.47 33.03Q11.70 33.20 12.72 33.16L12.59 33.02L12.69 33.12Q13.70 33.10 14.72 33.14L14.67 33.09L14.63 33.05Q15.67 33.29 16.54 33.67L16.60 33.72L16.66 33.82L16.54 33.70Q16.75 35.28 15.07 36.19L15.11 36.23L15.20 36.32Q13.45 37.16 11.74 37.16L11.79 37.21L11.77 37.19Q7.87 37.13 5.43 35.38L5.45 35.40L5.41 35.36Q4.51 33.40 4.67 30.85L4.63 30.82L4.57 30.75Q4.90 25.98 6.75 23.99L6.79 24.03L6.83 24.06Q8.58 21.97 13.26 21.66L13.26 21.66L13.41 21.81Q16.99 21.51 18.93 23.30L18.92 23.29L19.01 23.38Q19.03 23.43 19.14 23.62L19.03 23.52L19.20 23.57L19.22 23.59Q19.84 24.32 20.41 25.43L20.43 25.45L20.74 25.42Z"/><path fill="#e368c4" d="M72.20 37.82L72.32 37.95L72.20 37.83Q72.67 38.98 73.20 41.00L73.03 40.83L73.05 40.85Q68.87 39.56 64.26 39.83L64.35 39.91L64.34 39.90Q59.69 40.08 55.69 42.06L55.78 42.16L55.67 42.04Q55.97 41.43 56.01 41.51L56.05 41.54L55.90 41.40Q59.73 37.54 63.66 33.13L63.69 33.17L63.58 33.06Q68.13 28.20 69.31 23.51L69.28 23.48L69.15 23.36Q69.76 21.76 68.48 20.58L68.48 20.57L68.38 20.48Q67.10 19.29 65.31 19.44L65.41 19.54L65.33 19.46Q65.05 19.48 64.70 19.48L64.66 19.44L64.70 19.47Q63.08 19.38 61.83 20.30L61.87 20.34L61.91 20.38Q60.58 21.72 60.81 24.38L60.79 24.36L60.85 24.42Q58.94 23.96 57.72 23.50L57.78 23.56L57.84 23.62Q57.65 22.21 57.57 20.76L57.46 20.65L57.63 20.82Q57.54 19.17 58.15 18.02L58.00 17.88L58.05 17.93Q59.92 16.64 63.27 16.64L63.18 16.55L65.01 16.63L65.06 16.68Q67.19 16.57 68.15 16.68L68.24 16.77L68.13 16.66Q72.47 17.08 72.74 19.52L72.75 19.53L72.79 19.57Q72.80 20.08 72.72 20.88L72.87 21.02L72.88 21.04Q72.74 21.58 72.59 22.26L72.62 22.29L72.70 22.37Q71.06 30.48 63.48 37.33L63.50 37.35L63.43 37.28Q64.78 37.06 66.15 37.06L66.28 37.20L66.15 37.07Q69.43 37.12 72.29 37.92ZM71.73 17.10L71.74 17.11L71.70 17.08Q70.15 16.47 68.43 16.40L68.39 16.35L64.90 16.10L65.00 16.20Q60.56 15.95 58.35 17.05L58.33 17.03L58.26 16.96Q57.18 18.32 57.18 20.37L57.30 20.49L57.15 20.34Q57.25 21.12 57.55 23.94L57.67 24.06L57.50 23.89Q58.03 24.11 59.21 24.41L59.21 24.41L59.26 25.50L59.34 25.58Q59.27 26.00 59.34 26.53L59.36 26.55L59.35 26.54Q60.52 26.57 63.00 26.80L63.16 26.96L63.08 26.88Q63.08 26.54 63.08 26.20L62.99 26.11L62.95 26.06Q63.10 24.39 64.32 23.04L64.33 23.04L64.33 23.05Q65.43 21.58 67.22 21.69L67.24 21.72L67.24 21.71Q68.01 21.76 68.78 21.91L68.80 21.94L68.77 21.91Q68.87 22.27 68.94 22.69L69.03 22.78L68.90 22.65Q69.09 23.22 69.01 23.56L68.89 23.44L68.85 23.40Q67.63 28.19 63.21 33.03L63.26 33.07L63.30 33.12Q61.20 35.39 55.75 41.44L55.71 41.40L55.63 41.32Q55.46 42.18 55.12 42.75L55.10 42.73L55.13 42.76Q56.75 41.90 58.27 41.37L58.25 41.35L58.24 41.34Q57.58 41.98 56.63 43.46L56.55 43.38L56.50 43.33Q56.42 43.71 56.31 44.05L56.36 44.11L56.28 44.03Q61.30 42.12 66.78 42.31L66.71 42.24L66.76 42.28Q72.32 42.32 76.88 44.68L76.87 44.67L76.01 42.67L76.03 42.68Q75.31 41.28 75.05 40.48L75.07 40.50L75.10 40.53Q74.31 40.05 73.09 39.63L73.10 39.64L73.04 39.58Q72.96 38.93 72.58 37.55L72.63 37.61L72.64 37.62Q70.34 36.96 68.06 36.77L68.00 36.71L68.17 36.88Q72.68 32.14 74.21 23.88L74.23 23.91L74.55 21.15L74.48 21.08Q74.35 19.23 73.13 18.54L73.12 18.53L73.18 18.63L73.23 18.68Q73.19 18.60 73.11 18.60L72.97 18.46L72.99 18.47Q72.77 17.65 71.66 17.04Z"/><path fill="#d26946" d="M118.25 40.12L118.38 40.26L115.86 33.28L115.91 33.33Q111.49 20.69 105.55 14.30L105.59 14.34L105.64 14.38Q107.59 15.38 110.18 15.99L110.19 16.00L110.22 16.03Q115.34 22.30 119.68 35.05L119.64 35.00L119.73 35.10Q122.71 26.92 123.39 25.32L123.33 25.26L123.44 25.37Q125.76 19.69 128.58 16.38L128.71 16.52L128.60 16.40Q130.73 16.10 133.36 15.23L133.35 15.22L133.29 15.16Q128.76 19.80 125.71 27.03L125.61 26.93L125.74 27.06Q124.30 30.69 120.61 40.20L120.50 40.10L120.62 40.22Q119.95 40.11 119.38 40.07L119.38 40.08L119.44 40.14Q118.82 40.09 118.25 40.12ZM123.36 42.64L123.41 42.70L123.24 42.53Q126.21 32.71 127.77 28.68L127.77 28.67L127.76 28.66Q130.69 20.89 135.11 16.02L135.16 16.07L135.03 15.95Q134.16 16.49 132.07 17.21L131.89 17.04L133.11 15.78L133.22 15.88Q133.77 15.18 134.38 14.54L134.32 14.48L134.21 14.36Q131.44 15.40 128.43 15.97L128.55 16.09L128.48 16.02Q124.00 21.25 120.12 32.71L120.27 32.86L120.29 32.88Q116.59 22.70 113.39 18.32L113.37 18.31L113.41 18.35Q112.95 18.19 112.07 18.03L112.10 18.06L112.14 18.10Q111.82 17.64 110.22 15.58L110.22 15.58L110.28 15.64Q107.27 14.87 104.57 13.46L104.65 13.55L104.60 13.49Q111.15 20.51 115.53 33.30L115.58 33.35L115.60 33.36Q116.92 37.12 118.10 40.70L118.10 40.70L118.07 40.67Q118.39 40.69 119.23 40.57L119.19 40.53L119.18 40.52Q119.57 41.26 120.26 42.59L120.30 42.63L120.31 42.64Q121.00 42.42 121.72 42.49L121.82 42.59L121.89 42.67Q122.54 42.59 123.30 42.59Z"/><path d="M21 34 C81 45,62 13,146 18" stroke="#ecc95f" fill="none"/><path fill="#8484e5" d="M104.84 40.17L104.87 40.20L102.42 33.30L102.37 33.25Q98.02 20.67 92.08 14.28L92.05 14.25L92.11 14.31Q94.24 15.48 96.82 16.09L96.84 16.11L96.69 15.95Q101.91 22.32 106.25 35.07L106.17 35.00L106.32 35.14Q109.26 26.93 109.95 25.33L110.01 25.39L110.01 25.39Q112.30 19.69 115.12 16.38L115.22 16.48L115.18 16.44Q117.26 16.08 119.89 15.21L119.78 15.10L119.77 15.09Q115.38 19.88 112.34 27.11L112.26 27.04L112.14 26.92Q110.76 30.60 107.07 40.12L107.06 40.11L107.19 40.24Q106.60 40.22 106.03 40.18L105.92 40.07L105.91 40.07Q105.39 40.11 104.82 40.15ZM109.95 42.69L109.88 42.63L109.93 42.67Q112.66 32.61 114.22 28.57L114.30 28.66L114.27 28.63Q117.14 20.80 121.56 15.93L121.60 15.97L121.61 15.98Q120.62 16.40 118.53 17.12L118.62 17.22L119.71 15.83L119.70 15.82Q120.25 15.12 120.86 14.47L120.78 14.39L120.79 14.40Q118.09 15.51 115.09 16.08L114.98 15.98L115.01 16.01Q110.69 21.39 106.80 32.85L106.79 32.84L106.83 32.87Q103.09 22.66 99.89 18.28L99.96 18.36L99.97 18.36Q99.63 18.32 98.75 18.17L98.59 18.01L98.72 18.14Q98.33 17.59 96.73 15.54L96.90 15.71L96.78 15.59Q93.84 14.89 91.13 13.48L91.20 13.55L91.10 13.45Q97.82 20.63 102.20 33.42L102.20 33.42L102.16 33.38Q103.31 36.96 104.49 40.54L104.47 40.53L104.54 40.60Q104.90 40.65 105.74 40.54L105.82 40.62L105.85 40.65Q106.16 41.31 106.85 42.64L106.88 42.67L106.75 42.54Q107.65 42.52 108.37 42.60L108.34 42.57L108.38 42.61Q109.05 42.55 109.81 42.55Z"/><path fill="#e787b7" d="M25.88 27.65L25.98 27.74L25.91 27.68Q22.48 27.67 21.38 31.02L21.42 31.06L21.40 31.05Q21.01 32.10 20.90 33.17L20.96 33.23L20.88 33.15Q20.70 35.22 21.69 36.55L21.57 36.43L21.68 36.54Q23.03 37.74 25.51 37.78L25.43 37.71L25.53 37.81Q27.18 37.66 28.59 36.52L28.65 36.58L28.61 36.55Q30.13 35.51 30.13 33.72L30.12 33.71L30.00 33.59Q30.10 33.35 30.02 32.96L30.00 32.94L30.05 33.00Q29.72 27.75 25.91 27.67ZM25.96 40.29L25.95 40.28L25.90 40.23Q22.05 40.41 20.26 38.39L20.29 38.43L20.21 38.34Q19.99 39.39 19.54 40.76L19.57 40.79L19.49 40.70Q17.61 41.54 16.36 42.11L16.43 42.18L16.43 42.18Q18.46 36.07 18.46 29.56L18.52 29.61L18.50 29.59Q18.54 21.33 15.11 13.49L15.20 13.57L15.22 13.60Q17.49 14.88 18.82 15.34L18.82 15.33L18.81 15.32Q20.92 21.96 21.07 27.79L21.11 27.82L21.01 27.72Q22.52 25.12 26.25 25.16L26.26 25.17L26.22 25.13Q29.43 25.14 30.91 27.00L30.96 27.05L30.90 27.00Q32.71 29.26 32.87 32.84L32.97 32.94L32.98 32.95Q33.01 34.09 32.93 35.69L32.85 35.60L32.81 35.57Q32.88 37.11 32.00 38.26L32.03 38.28L31.98 38.23Q30.13 39.85 25.79 40.12ZM31.31 42.67L31.27 42.63L31.32 42.68Q32.93 42.81 34.42 42.12L34.42 42.13L34.39 42.10Q35.41 40.72 35.45 38.77L35.43 38.75L35.49 38.82Q35.49 38.32 35.33 37.14L35.32 37.12L35.36 37.16Q35.33 36.52 35.22 35.61L35.23 35.63L35.24 35.64Q34.39 30.82 32.83 28.77L32.81 28.75L32.80 28.74Q32.84 28.74 32.04 27.87L31.94 27.77L31.87 27.69Q31.64 27.43 31.11 26.63L31.17 26.69L31.26 26.78Q29.55 24.73 26.20 24.77L26.17 24.74L26.31 24.88Q24.15 24.81 22.89 25.42L22.95 25.47L22.85 25.38Q22.60 20.94 21.99 17.74L22.04 17.79L21.96 17.71Q21.21 17.53 19.72 17.15L19.77 17.19L19.78 17.21Q19.69 16.51 19.24 15.06L19.21 15.04L19.19 15.02Q16.80 14.26 14.55 12.70L14.44 12.59L14.45 12.59Q18.25 20.81 18.25 29.61L18.33 29.69L18.34 29.70Q18.28 36.61 15.81 42.81L15.76 42.77L15.76 42.77Q16.46 42.44 17.79 41.86L17.71 41.78L17.83 41.90Q17.59 42.66 16.99 44.18L16.93 44.12L16.98 44.17Q18.87 43.17 21.65 42.63L21.67 42.66L22.01 40.79L22.01 40.79Q24.41 42.58 31.34 42.70ZM27.52 29.97L27.53 29.98L27.62 30.07Q28.58 30.00 29.11 30.38L29.08 30.35L29.09 30.36Q29.39 30.85 29.61 32.86L29.73 32.98L29.59 32.84Q29.88 34.81 28.63 36.12L28.63 36.13L28.64 36.13Q27.33 37.39 25.38 37.28L25.41 37.30L25.46 37.35Q24.61 37.56 23.12 37.07L22.98 36.93L23.09 37.04Q22.73 36.41 22.73 35.87L22.78 35.93L22.86 36.01Q22.77 32.83 24.33 31.23L24.45 31.36L24.36 31.30L24.32 31.26Q25.84 29.96 27.59 30.04Z"/><path fill="#d75a99" d="M92.20 30.44L92.24 30.48L92.23 30.47Q88.71 36.78 85.29 40.74L85.23 40.68L85.31 40.76Q83.36 41.09 80.92 41.97L80.95 41.99L80.92 41.96Q85.78 36.32 90.54 27.91L90.62 27.98L90.67 28.04Q85.95 20.96 79.97 14.56L80.02 14.61L80.06 14.64Q82.95 15.83 85.24 16.32L85.22 16.30L85.24 16.32Q89.98 21.63 92.41 25.59L92.27 25.45L92.30 25.48Q94.84 21.09 98.76 16.67L98.76 16.67L98.81 16.73Q100.48 16.49 103.68 15.73L103.66 15.71L103.68 15.73Q97.49 22.06 94.02 28.00L94.06 28.04L93.98 27.96Q99.25 36.73 103.63 41.30L103.51 41.18L103.65 41.32Q101.03 40.49 98.93 40.26L98.96 40.28L98.91 40.24Q96.19 37.32 92.27 30.51ZM98.75 40.49L98.81 40.55L98.76 40.51Q99.20 40.68 99.66 40.79L99.59 40.72L99.51 40.65Q100.43 41.52 101.95 43.12L101.91 43.08L101.89 43.06Q105.31 43.93 108.36 45.30L108.30 45.24L108.30 45.25Q101.10 38.58 96.00 29.83L96.09 29.91L96.14 29.97Q99.85 23.29 105.76 16.44L105.65 16.33L105.70 16.38Q104.24 17.01 102.07 17.54L102.02 17.50L102.13 17.60Q102.90 16.58 104.65 14.79L104.67 14.82L104.76 14.91Q102.41 15.83 98.72 16.40L98.62 16.31L98.71 16.39Q95.25 20.17 92.67 24.47L92.71 24.51L92.69 24.50Q91.72 22.84 90.54 21.36L90.47 21.29L88.16 18.33L87.91 18.46L87.82 18.37Q87.72 18.42 87.49 18.35L87.54 18.40L87.58 18.44Q86.89 17.59 85.40 16.03L85.32 15.95L85.27 15.90Q81.51 15.07 78.92 13.70L78.91 13.69L78.86 13.64Q85.72 21.04 90.29 28.08L90.30 28.08L90.31 28.10Q85.63 36.09 79.88 42.68L80.08 42.88L80.07 42.86Q81.33 42.15 83.46 41.58L83.54 41.66L82.06 42.91L82.08 42.94Q82.11 42.97 80.78 44.30L80.90 44.42L80.78 44.30Q83.79 43.24 86.95 42.74L87.02 42.81L86.94 42.73Q90.99 38.26 93.58 33.50L93.52 33.44L93.64 33.56Q96.08 37.67 98.78 40.53Z"/><path fill="#de7272" d="M44.35 15.95L44.31 15.91L44.21 15.82Q46.14 20.71 46.71 25.89L46.66 25.84L46.64 25.82Q50.46 21.79 56.36 16.96L56.30 16.90L56.40 17.00Q59.55 16.65 62.18 15.85L62.11 15.78L55.54 21.39L55.54 21.40Q52.21 24.42 49.36 27.28L49.30 27.22L49.29 27.21Q57.38 36.48 62.44 41.20L62.30 41.06L62.33 41.09Q59.28 40.21 56.96 40.06L56.93 40.03L56.86 39.96Q51.19 34.66 46.88 28.84L46.88 28.84L46.91 28.87Q47.02 35.48 45.15 40.81L45.04 40.70L45.18 40.85Q44.90 40.83 44.41 41.02L44.46 41.08L44.35 41.16L44.29 41.09Q44.07 41.10 41.52 42.01L41.64 42.14L41.62 42.11Q44.46 35.44 44.12 27.98L44.19 28.05L44.10 27.96Q43.86 20.71 40.32 14.20L40.36 14.24L40.95 14.57L41.26 14.77L41.38 14.85L41.29 14.75Q42.10 15.22 44.31 15.91ZM44.54 15.57L44.51 15.54L44.44 15.47Q42.26 15.00 39.63 13.48L39.72 13.56L39.55 13.40Q43.96 20.82 43.96 29.76L43.87 29.67L43.88 29.68Q43.85 36.66 40.88 42.71L40.98 42.81L42.98 41.91L42.88 41.81Q42.63 42.98 41.95 44.27L41.91 44.23L41.83 44.15Q44.24 43.52 46.18 43.10L46.13 43.05L46.23 42.92L46.21 42.89Q46.46 42.85 47.03 42.70L47.05 42.71L46.97 42.63Q48.62 36.70 48.73 31.91L48.80 31.97L48.72 31.89Q50.94 34.53 52.77 36.40L52.61 36.24L52.68 36.31Q53.83 37.39 56.84 40.35L56.86 40.38L56.96 40.47L56.93 40.44Q57.83 41.16 59.70 42.76L59.84 42.90L59.68 42.74Q63.72 43.62 67.18 45.33L67.08 45.23L67.11 45.26Q57.86 36.73 51.61 29.30L51.57 29.26L51.60 29.29Q56.01 25.02 64.77 16.42L64.69 16.34L64.78 16.43Q62.20 17.55 60.18 17.93L60.18 17.93L60.15 17.89Q61.40 16.93 63.72 14.92L63.67 14.87L63.66 14.86Q59.69 16.41 56.34 16.60L56.31 16.57L56.19 16.44Q53.26 18.66 48.39 23.34L48.53 23.48L48.46 23.41Q47.99 20.73 47.42 18.18L47.57 18.33L47.49 18.25Q46.30 18.09 45.31 17.75L45.29 17.72L45.29 17.72Q45.13 17.03 44.55 15.58Z"/><path fill="#45d38c" d="M131.57 29.12L131.66 29.21L131.65 29.21Q129.70 29.12 128.49 30.46L128.46 30.43L128.56 30.53Q127.24 31.76 127.09 33.67L127.27 33.85L127.24 33.82Q127.07 35.97 128.29 36.98L128.30 36.99L128.24 36.93Q129.33 37.81 131.46 37.73L131.53 37.80L131.46 37.73Q133.84 37.64 134.79 36.69L134.91 36.81L134.74 36.63Q135.87 35.29 135.76 33.47L135.82 33.52L135.83 33.53Q135.58 31.53 134.49 30.34L134.63 30.47L134.59 30.43Q133.41 29.14 131.58 29.14ZM131.67 19.82L131.66 19.81L131.67 19.82Q130.16 19.60 128.82 20.10L128.93 20.21L128.81 20.09Q127.63 21.00 127.86 22.86L127.79 22.79L127.73 22.73Q128.31 26.55 131.66 26.55L131.68 26.57L131.65 26.54Q133.26 26.78 134.25 25.63L134.13 25.52L134.25 25.64Q135.18 24.43 135.22 22.87L135.12 22.78L135.22 22.87Q135.30 21.13 134.58 20.52L134.51 20.45L134.52 20.47Q132.88 19.66 131.59 19.74ZM131.25 40.23L131.35 40.32L128.34 40.36L128.28 40.31Q126.76 40.31 125.43 39.43L125.34 39.34L125.39 39.39Q124.05 38.28 124.21 35.43L124.17 35.39L124.21 35.43Q124.64 28.55 128.26 27.56L128.31 27.61L128.37 27.67Q126.03 26.71 124.70 21.34L124.64 21.28L124.65 21.29Q124.23 19.81 124.31 19.01L124.35 19.05L124.45 19.15Q124.70 16.97 128.40 16.93L128.37 16.91L128.41 16.94Q132.55 16.78 134.00 16.97L134.08 17.06L134.04 17.02Q137.84 17.50 138.29 19.52L138.45 19.67L138.27 19.50Q138.51 20.23 138.51 20.61L138.45 20.54L138.46 20.56Q138.58 21.37 138.39 21.98L138.22 21.80L138.36 21.94Q137.73 26.15 134.80 27.67L134.72 27.59L134.72 27.60Q138.24 28.40 138.73 33.70L138.80 33.77L138.82 33.79Q138.69 33.81 138.73 35.10L138.81 35.19L138.74 35.12Q138.82 37.86 137.23 38.93L137.33 39.04L137.30 39.01Q135.80 39.75 131.23 40.21ZM133.57 42.58L133.57 42.59L137.04 42.78L136.93 42.66Q138.66 42.76 140.18 42.03L140.10 41.96L140.17 42.03Q141.42 41.41 141.50 39.55L141.44 39.49L141.33 39.38Q141.38 38.29 141.00 36.35L141.05 36.40L141.01 36.36Q140.23 31.84 138.13 29.98L137.99 29.83L137.85 29.51L137.62 29.20L137.59 29.05L137.55 29.01Q139.19 27.65 140.11 23.50L140.06 23.45L140.02 23.41Q140.09 23.10 140.16 22.26L140.24 22.34L140.08 22.18Q140.28 21.62 140.20 21.01L140.16 20.97L140.14 20.94Q140.01 19.52 138.83 19.03L138.86 19.06L138.79 18.94L138.74 18.97L138.76 18.99Q138.41 18.19 137.23 17.39L137.16 17.32L137.20 17.31L137.24 17.36Q135.19 16.61 131.12 16.42L131.12 16.42L131.14 16.44Q129.56 16.30 128.19 16.41L128.30 16.53L128.32 16.55Q127.44 16.51 126.15 16.66L126.16 16.68L126.10 16.62Q124.25 17.08 124.02 18.72L124.10 18.80L123.99 18.69Q124.04 19.27 124.07 20.07L123.94 19.94L123.95 19.94Q124.18 20.59 124.75 22.95L124.78 22.98L124.66 22.86Q125.56 26.20 127.31 27.53L127.27 27.49L127.27 27.49L127.42 27.64Q124.57 28.86 124.03 34.04L123.95 33.95L124.04 34.04Q123.88 36.28 123.88 37.19L123.74 37.06L123.76 37.07Q123.96 38.99 125.14 39.91L125.02 39.79L125.11 39.87Q125.10 39.82 125.37 40.01L125.56 40.20L125.44 40.09Q126.47 42.37 133.58 42.60ZM133.17 31.45L133.30 31.58L133.34 31.61Q134.18 31.47 135.06 31.93L135.15 32.02L135.15 32.02Q135.35 32.83 135.32 33.36L135.41 33.46L135.31 33.35Q135.53 33.85 135.53 34.15L135.43 34.05L135.48 34.10Q135.44 36.42 133.15 37.26L133.10 37.20L133.20 37.30Q132.31 37.52 131.51 37.40L131.55 37.44L131.54 37.43Q130.38 37.49 129.24 37.03L129.25 37.04L129.34 37.14Q129.11 36.53 129.19 35.54L129.11 35.46L129.19 35.54Q129.33 33.92 130.53 32.71L130.46 32.64L130.53 32.71Q131.75 31.51 133.35 31.63ZM133.47 22.04L133.54 22.11L133.43 22.00Q134.40 22.05 134.93 22.21L134.75 22.03L134.90 22.97L134.80 22.87Q134.77 24.26 133.86 25.27L133.84 25.24L133.82 25.23Q133.03 26.36 131.66 26.17L131.55 26.06L131.57 26.08Q130.70 26.19 130.28 25.97L130.18 25.87L130.30 25.99Q130.23 25.69 130.11 25.00L129.97 24.86L130.09 24.98Q129.86 23.61 131.08 22.77L131.02 22.72L131.01 22.70Q132.16 22.10 133.57 22.14Z"/></svg>