<svg xmlns="http://www.w3.org/2000/svg" width="150" height="50" viewBox="0,0,150,50"><rect width="100%" height="100%" fill="white"/><path fill="#dddd59" d="M98.92 49.60L99.02 49.69L99.02 49.69Q101.91 45.81 104.81 39.60L104.77 39.57L104.79 39.59Q101.52 32.90 95.43 24.83L95.47 24.86L95.58 24.98Q97.49 26.13 100.27 26.77L100.20 26.70L100.21 26.71Q103.83 31.47 106.27 36.69L106.24 36.66L106.19 36.61Q108.43 31.39 111.51 26.97L111.44 26.90L111.53 26.99Q113.74 26.64 115.83 25.85L115.68 25.69L115.73 25.74Q112.36 29.61 108.90 37.04L108.83 36.97L106.03 43.00L106.08 43.05Q104.57 46.11 102.82 48.74L102.76 48.67L102.82 48.74Q100.39 49.08 98.94 49.62ZM105.06 50.90L105.15 50.99L105.22 51.06Q106.86 48.10 108.31 44.82L108.23 44.75L111.01 38.46L110.97 38.42Q114.50 30.42 117.81 26.42L117.81 26.42L117.80 26.40Q116.53 27.15 114.62 27.84L114.52 27.74L115.53 26.31L115.72 26.50Q116.25 25.77 116.86 25.09L116.82 25.04L116.87 25.10Q114.03 25.99 111.18 26.45L111.19 26.46L111.30 26.57Q108.61 30.54 106.67 34.99L106.58 34.90L106.49 34.82Q104.93 31.58 103.14 28.77L103.14 28.76L103.23 28.86Q103.00 28.82 102.64 28.78L102.57 28.71L102.55 28.69Q102.21 28.68 102.02 28.68L102.11 28.76L102.07 28.73Q101.23 27.39 100.28 26.25L100.33 26.30L100.41 26.38Q97.25 25.73 94.51 24.01L94.40 23.90L94.42 23.93Q100.76 32.02 104.45 39.63L104.36 39.54L104.41 39.59Q102.20 44.62 98.13 50.25L98.21 50.33L98.19 50.31Q98.86 49.88 99.66 49.72L99.84 49.90L101.31 49.39L101.38 49.46Q100.80 50.22 99.62 51.86L99.52 51.76L99.47 51.71Q101.80 51.14 105.07 50.91Z"/><path d="M15 35 C94 19,57 31,138 24" stroke="#7ae57a" fill="none"/><path fill="#ebeb8d" d="M9.31 25.16L9.17 25.02L9.19 25.03Q10.01 25.32 11.99 25.32L12.09 25.43L12.07 32.56L12.06 32.55Q12.09 36.81 12.21 39.70L12.30 39.80L12.17 39.67Q11.93 39.66 11.55 39.66L11.42 39.53L11.46 39.57Q10.07 39.62 8.62 40.95L8.63 40.96L8.61 40.94Q9.34 33.25 9.15 24.99ZM9.17 19.69L8.13 17.13L8.16 17.15Q9.57 15.98 10.29 15.02L10.30 15.03L10.31 15.04Q11.47 17.00 12.88 18.67L12.94 18.74L12.93 18.73Q11.96 20.08 10.59 22.21L10.73 22.35L10.77 22.40Q9.77 21.05 9.19 19.71L9.32 19.84ZM8.04 41.78L8.11 41.85L8.02 41.76Q9.04 40.69 10.30 40.19L10.40 40.29L10.24 40.14Q10.28 40.86 10.17 42.23L10.27 42.34L10.19 42.25Q10.88 42.03 11.52 42.03L11.49 41.99L11.50 42.00Q13.83 42.13 15.24 44.11L15.16 44.02L15.23 44.09Q13.83 36.60 13.90 26.44L14.01 26.55L13.95 26.48Q13.20 26.68 12.36 26.80L12.40 26.84L12.39 24.96L12.40 24.97Q11.34 25.06 10.55 24.98L10.58 25.02L10.59 25.03Q9.72 24.92 8.85 24.43L8.78 24.36L8.84 24.42Q8.89 26.37 8.89 28.43L8.95 28.49L8.96 28.50Q9.04 35.62 8.16 41.90ZM10.58 22.81L10.64 22.87L10.83 22.68L10.90 22.45L11.01 22.56Q11.38 23.31 12.41 24.79L12.48 24.86L12.44 24.82Q13.80 22.49 15.14 18.95L15.13 18.95L15.03 18.85Q14.20 18.13 12.64 16.53L12.67 16.56L12.69 16.58Q12.42 16.62 12.16 17.08L12.27 17.19L12.24 17.16Q11.34 15.96 10.43 14.51L10.24 14.32L10.25 14.33Q8.94 16.11 7.76 16.45L7.66 16.35L7.66 16.35Q8.89 19.94 10.72 22.95Z"/><path fill="#8dec6e" d="M24.02 29.21L24.09 29.28L23.93 29.12Q22.22 29.28 21.00 30.61L20.99 30.60L20.88 30.49Q19.63 31.79 19.48 33.69L19.61 33.82L19.45 33.66Q19.32 35.85 20.53 36.86L20.54 36.87L20.63 36.96Q21.84 37.96 23.97 37.88L23.93 37.84L23.84 37.75Q26.24 37.68 27.20 36.73L27.29 36.82L27.13 36.66Q28.28 35.34 28.17 33.51L28.08 33.43L28.19 33.53Q27.97 31.56 26.89 30.36L26.96 30.44L26.97 30.44Q25.91 29.27 24.08 29.27ZM24.02 19.81L23.86 19.65L24.05 19.84Q22.54 19.62 21.21 20.11L21.23 20.14L21.31 20.22Q19.84 20.84 20.07 22.71L20.09 22.73L20.11 22.75Q20.60 26.48 23.95 26.48L23.96 26.49L23.92 26.45Q25.59 26.75 26.58 25.61L26.46 25.48L26.47 25.50Q27.62 24.51 27.66 22.95L27.62 22.91L27.50 22.79Q27.58 21.04 26.85 20.43L26.95 20.53L26.89 20.47Q25.30 19.72 24.01 19.80ZM23.75 40.37L23.66 40.27L20.59 40.25L20.59 40.24Q19.07 40.25 17.74 39.38L17.85 39.49L17.70 39.34Q16.49 38.36 16.64 35.50L16.61 35.46L16.56 35.42Q17.03 28.58 20.65 27.59L20.66 27.60L20.68 27.62Q18.33 26.64 17.00 21.27L17.07 21.35L16.94 21.22Q16.76 19.97 16.84 19.17L16.75 19.09L16.67 19.01Q17.04 16.94 20.74 16.91L20.84 17.00L20.83 17.00Q25.07 16.93 26.51 17.12L26.52 17.13L26.50 17.11Q30.25 17.55 30.71 19.56L30.73 19.59L30.70 19.56Q30.94 20.29 30.94 20.67L30.84 20.58L30.82 20.55Q30.77 21.19 30.58 21.80L30.64 21.86L30.64 21.86Q30.06 26.11 27.12 27.63L27.03 27.54L27.12 27.63Q30.64 28.45 31.14 33.74L31.13 33.73L31.18 33.78Q31.15 33.91 31.19 35.20L31.05 35.07L31.14 35.15Q31.28 37.96 29.68 39.02L29.72 39.06L29.68 39.02Q28.33 39.92 23.77 40.38ZM25.97 42.62L25.99 42.64L29.38 42.76L29.37 42.75Q31.03 42.77 32.55 42.05L32.65 42.14L32.60 42.09Q33.64 41.27 33.72 39.40L33.73 39.41L33.85 39.53Q33.76 38.30 33.38 36.36L33.36 36.34L33.47 36.46Q32.62 31.87 30.52 30.00L30.48 29.96L30.27 29.56L30.02 29.24L29.83 28.93L29.81 28.91Q31.48 27.58 32.40 23.43L32.47 23.50L32.46 23.49Q32.42 23.06 32.49 22.23L32.59 22.32L32.42 22.16Q32.66 21.63 32.58 21.02L32.62 21.06L32.52 20.96Q32.45 19.60 31.27 19.10L31.18 19.01L31.17 18.96L31.05 18.92L30.99 18.86Q30.77 18.18 29.59 17.38L29.61 17.40L29.63 17.38L29.66 17.41Q27.70 16.75 23.62 16.56L23.56 16.49L23.57 16.51Q22.00 16.38 20.63 16.50L20.62 16.48L20.62 16.49Q19.77 16.47 18.48 16.62L18.58 16.72L18.53 16.67Q16.68 17.15 16.45 18.79L16.38 18.71L16.43 18.76Q16.25 19.12 16.29 19.92L16.36 19.99L16.35 19.98Q16.53 20.58 17.10 22.94L17.05 22.88L17.11 22.95Q17.80 26.07 19.55 27.41L19.68 27.54L19.63 27.49L19.69 27.55Q17.00 28.93 16.47 34.11L16.31 33.95L16.36 34.00Q16.19 36.23 16.19 37.15L16.24 37.19L16.28 37.23Q16.34 39.00 17.52 39.92L17.44 39.84L17.51 39.91Q17.54 39.90 17.81 40.09L17.84 40.12L17.84 40.13Q18.84 42.38 25.96 42.61ZM25.71 31.62L25.68 31.59L25.69 31.60Q26.45 31.37 27.32 31.83L27.46 31.97L27.38 31.88Q27.73 32.85 27.69 33.38L27.78 33.47L27.80 33.48Q27.82 33.77 27.82 34.07L27.71 33.96L27.85 34.11Q27.89 36.50 25.60 37.34L25.49 37.23L25.60 37.34Q24.69 37.54 23.89 37.42L23.83 37.36L23.91 37.44Q22.88 37.63 21.74 37.17L21.75 37.18L21.74 37.17Q21.34 36.39 21.41 35.40L21.44 35.42L21.51 35.49Q21.69 33.92 22.89 32.71L22.85 32.66L22.92 32.74Q24.12 31.52 25.72 31.63ZM25.79 21.99L25.94 22.14L25.86 22.07Q26.64 21.93 27.17 22.08L27.21 22.13L27.29 23.00L27.28 22.99Q27.27 24.39 26.36 25.40L26.33 25.37L26.27 25.31Q25.44 26.41 24.07 26.22L24.01 26.15L24.05 26.20Q23.05 26.19 22.63 25.96L22.63 25.96L22.51 25.84Q22.57 25.66 22.45 24.98L22.45 24.97L22.44 24.97Q22.17 23.56 23.39 22.72L23.43 22.76L23.33 22.66Q24.53 22.10 25.94 22.14Z"/><path fill="#38e5e5" d="M119.08 41.43L118.95 41.30L118.99 41.34Q116.08 41.48 114.82 40.94L114.84 40.96L114.89 41.01Q113.02 40.29 113.10 37.81L113.09 37.81L112.96 37.67Q113.22 34.40 113.22 34.97L113.21 34.96L113.16 34.91Q113.12 29.53 110.26 24.70L110.38 24.82L110.23 24.67Q112.22 25.62 114.20 26.00L114.32 26.13L114.26 26.07Q115.97 30.68 115.86 35.17L115.84 35.15L115.82 35.13Q115.66 36.61 116.50 37.83L116.60 37.92L116.47 37.80Q117.43 39.18 118.95 38.99L118.93 38.96L119.27 38.81L119.31 38.85Q120.77 38.89 121.58 38.13L121.59 38.14L121.44 37.99Q122.28 37.25 122.28 36.30L122.39 36.40L122.37 36.39Q122.27 36.06 122.24 35.87L122.22 35.86L122.38 36.02Q122.14 30.60 123.29 26.26L123.37 26.35L123.36 26.34Q124.35 26.22 125.34 25.99L125.35 26.00L127.32 25.46L127.42 25.56Q124.89 30.60 125.19 36.16L125.22 36.19L125.24 36.21Q125.43 39.30 123.72 40.44L123.69 40.41L123.55 40.26Q122.38 41.27 119.07 41.42ZM121.28 43.71L121.28 43.71L121.41 43.84Q124.88 44.00 126.71 43.24L126.69 43.22L126.63 43.16Q127.51 42.37 127.51 40.96L127.47 40.91L127.60 41.04Q127.56 40.09 127.29 38.53L127.36 38.59L127.23 38.47Q126.84 35.41 127.22 32.40L127.21 32.40L127.18 32.37Q127.63 29.28 129.04 26.54L128.90 26.39L129.03 26.53Q128.31 26.75 126.97 27.17L127.09 27.29L127.10 27.29Q127.21 26.57 127.51 26.00L127.62 26.11L128.16 24.93L128.03 24.80Q126.22 25.58 123.06 26.07L122.99 26.01L123.03 26.04Q121.87 30.90 122.02 36.00L121.99 35.97L122.02 35.99Q121.97 37.96 119.30 38.46L119.34 38.49L119.00 38.62L118.86 38.63L117.97 38.54L117.81 38.38Q117.71 37.47 117.75 36.98L117.90 37.14L117.75 36.98Q118.10 32.61 117.42 28.20L117.36 28.14L116.31 28.00L116.41 28.11Q115.87 28.06 115.33 27.94L115.31 27.92L115.17 27.78Q114.87 26.45 114.60 25.69L114.51 25.59L114.56 25.65Q111.89 25.33 109.64 24.04L109.54 23.94L109.65 24.05Q111.79 27.55 112.51 30.94L112.38 30.81L112.46 30.89Q112.94 33.09 112.79 36.59L112.80 36.60L112.71 36.51Q112.75 36.66 112.67 37.77L112.78 37.88L112.66 37.76Q112.63 40.24 114.00 41.19L114.01 41.19L113.96 41.15Q114.29 43.35 121.30 43.73Z"/><path fill="#9c80ee" d="M77.93 41.12L77.94 41.14L76.14 41.05L76.30 41.21Q72.77 41.06 71.82 38.93L71.98 39.09L71.96 39.08Q73.00 37.90 74.44 36.80L74.49 36.85L74.59 36.95Q75.07 39.02 77.92 38.87L77.86 38.81L77.85 38.80Q78.79 38.90 79.81 38.67L79.86 38.72L79.73 38.58Q80.66 38.07 80.59 37.12L80.56 37.09L80.63 37.16Q80.45 35.95 78.66 35.26L78.71 35.32L75.00 33.89L74.96 33.85Q72.69 32.58 72.35 29.04L72.29 28.98L72.28 28.96Q72.06 26.81 74.23 26.24L74.33 26.33L74.34 26.34Q75.26 26.08 78.23 26.08L78.16 26.01L78.19 26.04Q83.03 26.00 83.94 28.52L83.88 28.46L84.06 28.63Q83.22 28.97 82.49 29.43L82.64 29.58L81.17 30.47L81.12 30.41Q80.65 28.53 77.41 28.31L77.52 28.42L77.36 28.26Q76.79 28.30 75.77 28.72L75.95 28.90L75.92 28.87Q75.32 29.19 75.32 30.29L75.30 30.27L75.37 30.34Q75.64 31.33 77.46 32.02L77.44 31.99L77.48 32.03Q78.50 32.36 81.16 33.47L81.24 33.54L81.27 33.57Q82.92 34.23 83.11 36.78L83.16 36.84L83.12 36.79Q83.31 37.56 83.24 38.55L83.26 38.58L83.21 38.52Q83.22 39.44 82.64 40.09L82.62 40.06L82.50 39.94Q81.09 41.24 78.04 41.24ZM82.70 43.73L82.71 43.73L82.64 43.66Q83.69 43.84 85.06 43.53L85.09 43.56L84.98 43.45Q86.01 42.73 85.82 41.51L85.93 41.63L85.81 41.50Q85.78 40.98 85.47 39.38L85.58 39.49L85.58 39.49Q84.95 36.46 83.16 35.24L83.09 35.17L83.16 35.23Q82.57 33.77 81.31 33.05L81.39 33.13L81.38 33.12Q80.14 32.71 77.66 31.76L77.66 31.75L77.67 31.76Q77.76 31.25 78.03 31.13L78.03 31.13L78.04 31.15Q78.68 30.72 79.33 30.68L79.30 30.65L79.29 30.64Q80.19 30.71 80.95 30.97L80.87 30.89L80.98 31.07L80.98 30.97L81.33 31.12L81.18 31.01L81.31 31.14Q82.27 31.49 82.46 32.74L82.58 32.87L82.44 32.72Q83.84 32.03 85.74 30.36L85.66 30.28L85.60 30.22Q85.40 29.56 84.41 28.38L84.51 28.47L84.50 28.47Q83.28 25.69 78.18 25.57L78.24 25.63L78.14 25.54Q75.07 25.59 73.09 26.16L73.13 26.20L73.02 26.08Q71.67 26.71 71.90 28.81L71.92 28.84L71.82 28.73Q71.98 30.04 72.90 32.13L72.89 32.12L72.89 32.12Q73.49 33.29 74.51 34.01L74.48 33.98L74.35 33.85Q75.12 35.41 76.41 36.10L76.37 36.06L76.50 36.19Q77.32 36.33 78.28 36.71L78.31 36.74L80.24 37.53L80.25 37.54Q79.93 38.67 77.99 38.56L78.00 38.57L77.98 38.54Q77.62 38.68 76.40 38.38L76.26 38.24L76.27 38.10L76.10 38.15L76.10 38.15Q75.31 37.86 74.67 36.37L74.72 36.43L74.55 36.26Q72.54 37.94 71.43 39.08L71.46 39.11L71.40 39.05Q71.63 39.89 72.66 40.69L72.72 40.75L72.51 40.84L72.62 40.95Q73.92 42.94 78.15 43.32L78.14 43.31L78.25 43.42Q79.56 43.59 82.80 43.82Z"/><path fill="#8ced8c" d="M36.74 29.82L36.86 29.95L36.73 29.82Q36.59 29.91 36.29 29.91L36.16 29.78L36.27 29.89Q34.81 29.76 33.36 30.60L33.50 30.73L33.37 30.60Q32.17 31.84 32.17 33.75L32.19 33.77L32.11 33.68Q32.14 37.14 33.66 38.48L33.57 38.39L33.70 38.52Q34.55 39.59 36.83 39.59L36.89 39.65L36.88 39.63Q37.13 39.66 37.43 39.66L37.49 39.72L37.52 39.75Q39.23 39.74 40.38 38.11L40.30 38.03L40.38 38.11Q41.26 36.44 41.18 34.65L41.14 34.61L41.29 34.76Q41.29 34.23 41.29 33.81L41.27 33.79L41.22 33.74Q41.31 32.04 39.94 30.87L39.98 30.92L39.87 30.81Q38.53 29.67 36.74 29.82ZM41.37 40.13L41.24 40.01L41.35 40.11Q40.25 41.94 36.52 42.05L36.57 42.11L36.54 42.08Q33.07 42.11 31.47 40.51L31.46 40.50L31.52 40.56Q30.06 38.79 29.26 34.00L29.28 34.01L29.25 33.99Q29.02 32.32 29.02 31.06L29.04 31.07L28.93 30.96Q29.03 29.28 29.76 28.21L29.69 28.15L29.76 28.21Q31.07 26.78 34.04 26.78L34.10 26.84L33.97 26.72Q40.37 26.80 42.27 29.38L42.25 29.36L42.33 29.44Q42.36 28.49 42.78 26.89L42.84 26.94L42.96 27.06Q44.06 26.60 46.50 25.81L46.53 25.84L46.49 25.80Q44.08 31.45 43.85 37.77L43.94 37.87L43.93 37.86Q43.58 43.90 45.71 49.72L45.83 49.84L45.89 49.91Q44.05 49.17 42.26 48.90L42.37 49.01L42.36 49.00Q41.35 44.95 41.24 40.00ZM41.96 49.17L41.95 49.16L42.06 49.28Q42.77 49.42 44.18 49.72L44.08 49.61L44.26 49.79Q44.30 50.34 44.87 51.74L44.93 51.80L44.99 51.86Q47.55 52.55 49.83 53.85L49.79 53.81L49.91 53.92Q45.78 47.24 45.78 38.72L45.80 38.73L45.88 38.81Q45.72 32.30 48.20 26.51L48.31 26.63L48.28 26.59Q47.61 26.92 46.24 27.56L46.18 27.50L46.24 27.56Q46.46 26.68 47.11 25.12L47.21 25.22L47.17 25.19Q45.64 25.75 42.44 26.62L42.53 26.71L42.48 26.66Q42.44 27.30 42.13 28.48L42.06 28.41L42.10 28.45Q39.95 26.42 33.82 26.26L33.86 26.30L33.95 26.39Q30.66 26.23 29.29 27.71L29.35 27.77L29.36 27.77Q28.66 28.98 28.70 30.89L28.69 30.88L28.67 30.85Q28.68 33.76 29.67 37.53L29.70 37.56L29.66 37.52Q30.43 40.04 31.34 40.99L31.22 40.87L31.55 41.19L31.70 41.35Q32.73 43.98 38.17 44.21L38.20 44.24L38.37 44.40Q39.24 44.28 41.06 43.97L41.10 44.01L41.19 44.10Q41.52 47.06 42.13 49.34ZM38.66 32.17L38.71 32.21L38.64 32.14Q39.73 32.17 40.57 32.48L40.63 32.53L40.59 32.50Q40.84 33.09 40.95 33.69L40.97 33.71L40.86 33.61Q41.01 34.21 40.93 34.82L40.90 34.78L40.86 34.75Q40.81 36.60 39.79 37.90L39.95 38.06L39.83 37.94Q38.77 39.47 36.90 39.28L36.92 39.30L36.81 39.18Q35.63 39.30 34.68 38.88L34.69 38.90L34.60 38.80Q34.28 38.03 34.28 36.81L34.21 36.74L34.25 36.77Q34.23 36.45 34.23 36.15L34.28 36.20L34.23 36.15Q34.25 34.42 35.59 33.26L35.62 33.29L35.54 33.21Q36.93 32.11 38.68 32.19Z"/><path fill="#3f69e8" d="M97.13 41.04L97.04 40.95L96.99 40.90Q95.70 39.23 94.40 36.14L94.33 36.07L92.28 31.02L92.22 30.96Q90.72 35.05 90.11 36.34L90.12 36.35L90.04 36.27Q88.73 39.34 87.13 41.25L87.09 41.20L87.03 41.14Q86.76 41.26 86.00 41.37L85.90 41.27L85.97 41.34Q86.01 33.96 80.19 28.02L80.15 27.98L80.03 27.87Q78.36 26.12 76.34 24.63L76.26 24.56L76.37 24.66Q78.10 25.10 79.97 25.41L80.14 25.58L80.10 25.53Q86.20 30.53 87.65 36.78L87.54 36.67L87.50 36.63Q88.44 34.83 89.62 31.63L89.70 31.72L89.66 31.67Q90.89 27.80 91.46 26.50L91.60 26.65L92.94 26.58L92.91 26.55Q93.92 28.39 95.10 31.67L95.09 31.66L95.10 31.66Q96.22 35.11 96.87 36.52L96.98 36.63L97.02 36.67Q98.76 30.30 104.24 25.73L104.29 25.79L104.30 25.80Q105.45 25.65 108.19 25.08L108.25 25.14L108.19 25.07Q99.57 31.11 98.39 41.09L98.45 41.15L97.66 40.89L97.68 40.91Q97.38 40.91 97.04 40.95ZM100.03 43.41L102.15 43.67L102.17 43.68Q101.71 42.01 101.71 40.48L101.84 40.62L101.77 40.55Q101.74 37.28 103.15 34.04L103.18 34.07L103.08 33.98Q105.14 29.52 109.25 26.44L109.27 26.46L109.26 26.45Q108.01 26.68 106.14 27.03L106.20 27.08L106.11 26.99Q108.10 25.37 109.40 24.45L109.42 24.48L106.98 25.01L106.84 24.87Q105.74 25.21 104.40 25.36L104.48 25.44L104.34 25.29Q99.21 29.57 97.27 34.60L97.22 34.55L97.24 34.57Q96.56 32.37 95.19 28.10L95.31 28.22L95.23 28.15Q95.00 28.25 94.73 28.25L94.65 28.17L94.20 28.25L94.22 28.28Q94.02 27.89 93.22 26.14L93.18 26.10L91.23 26.20L91.27 26.24Q90.31 29.04 88.21 34.68L88.15 34.61L88.19 34.65Q86.80 30.90 83.71 27.63L83.65 27.56L83.62 27.54Q83.52 27.70 83.21 27.66L83.11 27.56L82.58 27.49L82.56 27.46Q81.78 26.72 79.99 25.12L79.98 25.11L79.96 25.09Q76.70 24.35 75.03 23.85L75.03 23.86L75.14 23.96Q85.86 31.41 85.48 41.72L85.40 41.65L85.40 41.65Q85.68 41.74 86.05 41.70L86.10 41.76L85.96 41.61Q86.47 41.73 86.67 41.73L86.49 41.56L86.62 41.69Q86.56 41.47 86.75 43.57L86.73 43.55L88.77 43.50L88.70 43.42Q91.27 40.59 93.51 34.84L93.57 34.90L93.61 34.94Q95.04 38.73 96.91 41.39L96.87 41.36L96.86 41.34Q97.23 41.37 97.50 41.39L97.40 41.29L97.40 41.29Q97.69 41.34 97.96 41.34L97.97 41.35L100.14 43.52Z"/><path fill="#8099e4" d="M131.76 40.18L131.81 40.23L129.31 33.28L129.37 33.34Q125.07 20.82 119.14 14.42L119.14 14.43L118.97 14.26Q121.12 15.46 123.71 16.07L123.60 15.96L123.65 16.01Q128.71 22.21 133.05 34.96L133.09 35.00L133.11 35.02Q136.21 26.97 136.89 25.37L136.89 25.36L136.86 25.34Q139.30 19.78 142.11 16.46L142.05 16.40L142.15 16.50Q144.09 16.00 146.71 15.13L146.82 15.23L146.75 15.17Q142.20 19.79 139.16 27.02L139.23 27.10L139.06 26.92Q137.78 30.71 134.09 40.23L133.96 40.10L134.11 40.25Q133.50 40.21 132.93 40.17L132.97 40.21L132.95 40.19Q132.32 40.13 131.75 40.17ZM136.82 42.65L136.70 42.54L136.72 42.56Q139.52 32.57 141.09 28.53L141.22 28.66L141.05 28.50Q144.22 20.97 148.64 16.10L148.48 15.94L148.64 16.10Q147.54 16.41 145.45 17.13L145.47 17.16L146.64 15.85L146.64 15.85Q147.07 15.03 147.68 14.38L147.69 14.39L147.82 14.52Q145.01 15.51 142.00 16.08L141.99 16.08L141.89 15.98Q137.58 21.37 133.70 32.83L133.67 32.80L133.76 32.90Q130.01 22.68 126.82 18.30L126.83 18.32L126.79 18.28Q126.53 18.31 125.65 18.16L125.56 18.07L125.60 18.11Q125.40 17.76 123.80 15.70L123.69 15.59L123.66 15.56Q120.76 14.91 118.06 13.50L118.14 13.59L117.97 13.41Q124.61 20.51 128.98 33.30L128.98 33.29L129.07 33.39Q130.30 37.05 131.48 40.62L131.52 40.66L131.42 40.56Q131.86 40.70 132.70 40.59L132.61 40.50L132.76 40.65Q133.10 41.33 133.78 42.66L133.75 42.63L133.70 42.58Q134.45 42.42 135.18 42.49L135.33 42.65L135.25 42.57Q136.00 42.60 136.77 42.60Z"/><path fill="#bfe54c" d="M47.00 32.98L46.95 32.92L46.89 32.86Q49.99 32.50 53.19 32.61L53.23 32.66L53.32 32.74Q53.19 30.10 53.19 27.70L53.16 27.67L53.26 27.77Q53.14 25.18 53.33 22.63L53.40 22.70L53.51 22.81Q52.29 24.52 47.07 33.04ZM56.94 40.36L56.91 40.33L56.91 40.33Q55.30 40.09 53.51 40.01L53.38 39.88L53.39 39.89Q53.20 37.53 53.09 35.06L53.05 35.02L53.05 35.02Q47.70 34.81 42.98 36.22L43.09 36.33L43.13 36.37Q43.21 35.85 43.40 34.86L43.33 34.78L43.39 34.84Q45.12 31.62 48.70 25.34L48.77 25.42L48.81 25.46Q51.66 20.54 55.09 16.66L54.97 16.54L55.09 16.66Q55.86 16.36 57.54 16.10L57.52 16.08L57.57 16.13Q55.70 22.60 55.70 29.64L55.72 29.66L55.80 29.74Q55.73 31.16 55.81 32.64L55.83 32.67L57.13 32.79L56.99 32.64Q57.74 32.83 58.35 32.94L58.34 32.93L58.25 32.84Q58.33 33.80 58.60 35.74L58.65 35.79L58.68 35.81Q57.49 35.58 56.00 35.39L55.88 35.27L56.00 35.39Q56.12 37.29 56.80 40.22ZM58.51 32.45L58.65 32.59L58.50 32.44Q58.44 32.50 58.25 32.50L58.23 32.47L57.72 32.35L57.78 32.41Q57.61 30.87 57.61 29.46L57.74 29.59L57.68 29.52Q57.60 23.05 59.66 17.04L59.81 17.19L59.81 17.19Q58.99 17.40 57.55 17.78L57.59 17.83L57.50 17.73Q57.72 16.97 58.18 15.56L58.21 15.59L58.20 15.58Q56.94 15.99 54.88 16.22L54.95 16.29L54.77 16.11Q50.89 20.49 45.68 29.86L45.75 29.94L47.91 26.34L47.73 26.16Q47.31 27.19 47.04 27.76L47.06 27.78L42.78 36.98L42.76 36.96Q43.43 36.82 44.57 36.44L44.51 36.38L44.41 36.66L44.22 36.47Q44.14 37.19 43.83 38.45L43.98 38.60L43.99 38.60Q47.97 37.14 52.80 37.33L52.88 37.41L52.86 37.39Q52.98 38.41 53.17 40.39L53.17 40.40L53.04 40.26Q54.09 40.25 55.15 40.36L55.24 40.45L55.20 40.41Q55.28 41.03 55.55 42.40L55.71 42.56L55.61 42.45Q57.58 42.75 60.58 43.66L60.62 43.70L60.62 43.70Q59.51 41.45 58.60 38.17L58.54 38.12L60.00 38.59L60.09 38.67Q60.74 38.87 61.43 39.21L61.52 39.31L61.50 39.29Q60.67 36.74 60.52 35.07L60.50 35.05L60.46 35.01Q59.99 34.96 58.85 34.73L58.87 34.75L58.75 34.64Q58.53 33.35 58.53 32.47ZM50.55 32.33L50.47 32.25L50.52 32.31Q51.32 31.05 52.88 28.50L52.89 28.51L52.91 28.52Q52.79 29.36 52.76 30.32L52.82 30.38L52.86 30.42Q52.83 31.38 52.87 32.33L52.81 32.27L52.82 32.28Q52.36 32.35 51.79 32.35L51.73 32.30L51.81 32.37Q51.11 32.28 50.50 32.28Z"/><path fill="#e471c7" d="M68.10 27.09L68.24 27.23L68.15 27.14Q68.97 27.16 70.38 27.01L70.36 26.98L70.34 26.96Q70.38 27.69 70.38 28.34L70.43 28.39L70.43 29.64L70.39 29.61Q69.58 29.63 68.74 29.70L68.65 29.61L68.76 29.72Q67.88 29.72 67.04 29.68L67.01 29.65L66.96 29.60Q64.12 35.79 60.70 40.39L60.65 40.35L60.77 40.46Q58.29 41.15 57.00 41.76L56.85 41.61L57.00 41.76Q61.00 35.93 64.05 29.65L64.00 29.60L61.52 29.76L61.43 29.66Q61.42 28.32 61.31 26.99L61.31 26.99L61.34 27.02Q63.17 27.10 65.22 27.10L65.35 27.22L67.10 23.38L67.14 23.42Q68.09 21.48 69.31 19.88L69.44 20.01L69.50 20.07Q67.74 20.03 66.15 20.03L66.28 20.16L66.26 20.14Q60.19 20.16 56.42 17.96L56.48 18.02L55.74 16.20L55.72 16.19Q55.41 15.38 55.03 14.51L55.05 14.53L55.05 14.52Q59.34 17.11 65.05 17.34L65.09 17.38L65.10 17.38Q70.25 17.62 75.39 15.64L75.38 15.63L75.38 15.64Q75.22 16.08 74.72 16.96L74.57 16.81L74.63 16.86Q71.06 21.67 68.20 27.19ZM76.26 18.26L76.35 18.36L77.30 16.30L77.18 16.17Q76.37 16.81 74.69 17.53L74.68 17.52L74.78 17.12L74.83 17.18Q74.90 16.98 75.01 16.87L75.07 16.93L75.14 16.99Q75.39 16.18 76.11 14.85L76.21 14.94L76.20 14.93Q70.87 17.22 65.12 16.99L65.16 17.02L65.03 16.89Q59.10 16.72 54.35 13.75L54.29 13.69L54.29 13.69Q55.35 15.59 56.19 18.25L56.09 18.15L56.20 18.27Q57.33 18.94 58.13 19.24L58.12 19.24L58.07 19.18Q58.24 19.54 58.70 21.41L58.72 21.44L58.58 21.29Q61.73 22.54 67.25 22.39L67.40 22.54L67.36 22.49Q66.98 23.00 65.00 26.77L64.97 26.73L65.12 26.89Q63.00 26.82 61.02 26.63L61.07 26.68L61.06 26.67Q61.06 27.43 61.06 28.31L61.19 28.43L61.12 30.08L62.80 30.08L62.69 31.38L62.77 31.46Q58.91 38.91 56.13 42.49L56.00 42.36L56.12 42.48Q57.71 41.71 59.35 41.21L59.27 41.14L59.41 41.27Q58.63 42.09 57.26 43.80L57.31 43.85L57.34 43.88Q60.48 42.76 62.92 42.53L62.92 42.53L62.92 42.54Q65.82 38.74 68.95 31.96L68.91 31.93L72.30 32.08L72.42 32.21Q72.29 31.24 72.29 30.32L72.21 30.25L72.26 28.50L72.18 28.43Q72.06 28.57 71.51 28.61L71.41 28.51L71.40 28.50Q70.86 28.55 70.60 28.55L70.68 28.63L70.72 28.68Q70.59 28.43 70.62 28.28L70.65 28.31L70.67 28.05L70.59 27.97Q73.15 22.89 76.24 18.24Z"/></svg>