<svg xmlns="http://www.w3.org/2000/svg" width="150" height="50" viewBox="0,0,150,50"><rect width="100%" height="100%" fill="white"/><path fill="#f188a2" d="M101.40 40.31L101.37 40.28L101.51 40.42Q99.99 40.39 98.43 39.97L98.52 40.06L98.43 39.97Q97.19 39.03 97.04 37.39L97.04 37.39L97.06 37.42Q96.99 37.19 97.18 34.56L97.27 34.66L97.20 34.59Q98.23 34.40 100.25 34.02L100.34 34.11L100.16 34.88L100.09 34.81Q99.82 36.56 101.22 37.13L101.33 37.24L101.24 37.15Q102.00 37.44 104.09 37.44L104.10 37.45L104.14 37.49Q105.64 37.24 105.83 37.16L105.87 37.20L105.84 37.18Q106.87 37.14 107.59 36.64L107.62 36.67L107.50 36.55Q109.01 35.70 108.82 33.61L108.77 33.55L108.83 33.61Q108.54 31.08 106.81 29.52L106.81 29.52L106.78 29.49Q105.16 28.05 102.69 28.05L102.72 28.08L102.58 27.71L102.70 27.83Q102.93 27.64 103.81 27.57L103.83 27.59L103.87 27.62Q105.83 27.57 107.20 26.33L107.26 26.39L107.13 26.26Q108.56 25.08 108.71 23.22L108.62 23.13L108.74 23.25Q108.73 22.82 108.73 22.48L108.76 22.51L108.74 22.49Q108.79 21.02 107.42 20.10L107.31 19.99L107.37 20.05Q106.17 19.27 104.57 19.39L104.51 19.32L104.62 19.43Q103.36 19.31 102.14 19.73L101.99 19.58L102.07 19.66Q100.60 20.17 100.29 21.31L100.27 21.29L100.35 21.37Q100.10 22.07 100.17 22.83L100.16 22.81L100.14 22.80Q99.23 22.68 97.17 21.96L97.17 21.96L97.22 22.01Q96.83 20.17 96.87 19.33L96.99 19.45L96.89 19.35Q97.11 17.93 98.17 17.25L98.03 17.11L98.07 17.14Q99.55 16.61 101.15 16.61L101.17 16.63L101.09 16.55Q104.30 16.56 107.46 16.83L107.52 16.89L107.52 16.89Q112.42 17.15 112.12 20.92L112.22 21.02L112.30 21.10Q112.08 22.44 111.58 24.00L111.54 23.95L111.68 24.09Q110.69 27.10 108.33 28.01L108.39 28.07L108.40 28.08Q111.02 28.61 111.62 31.96L111.50 31.84L111.69 32.02Q111.76 33.00 111.83 35.02L111.92 35.11L111.88 35.07Q111.95 39.44 107.35 39.90L107.48 40.03L107.49 40.04Q106.79 40.14 101.50 40.41ZM106.70 42.64L106.57 42.51L106.73 42.67Q107.33 42.70 110.18 42.77L110.21 42.80L110.17 42.76Q111.80 42.72 113.44 42.07L113.52 42.15L113.58 42.21Q114.76 41.26 114.57 39.51L114.42 39.36L114.49 39.43Q114.43 38.15 114.13 36.40L114.13 36.40L114.06 36.33Q113.35 31.86 111.41 30.22L111.32 30.13L111.30 29.92L111.12 29.70L111.26 29.84Q112.84 28.22 113.60 23.84L113.62 23.86L113.68 23.93Q113.82 23.57 113.94 22.62L113.78 22.46L113.80 22.49Q113.87 21.72 113.80 21.03L113.92 21.16L113.82 21.06Q113.68 19.40 112.39 18.71L112.30 18.62L112.40 18.80L112.25 18.65Q111.92 17.64 110.78 17.10L110.90 17.22L110.94 17.27Q109.26 16.42 104.12 16.12L104.21 16.20L104.27 16.27Q102.48 16.08 100.88 16.08L101.01 16.20L100.91 16.10Q99.26 16.05 97.74 16.70L97.91 16.87L97.76 16.72Q96.64 17.58 96.64 19.33L96.53 19.22L96.61 19.31Q96.56 18.83 96.82 22.18L96.93 22.29L96.88 22.23Q97.21 22.34 98.85 22.95L98.78 22.88L98.73 22.83Q98.89 23.52 98.85 24.02L98.68 23.85L98.80 23.96Q98.86 24.52 98.89 25.05L98.73 24.88L98.71 24.87Q100.53 25.28 102.54 25.39L102.61 25.45L102.56 25.40Q102.54 23.44 103.64 22.60L103.68 22.64L103.70 22.67Q104.56 22.04 106.58 21.81L106.41 21.64L106.40 21.63Q107.69 21.77 108.26 21.97L108.12 21.83L108.22 21.93Q108.26 22.04 108.30 22.16L108.33 22.19L108.38 22.43L108.38 22.89L108.30 22.81Q108.47 23.17 108.43 23.32L108.34 23.23L108.33 23.22Q108.19 24.87 106.67 26.05L106.70 26.08L106.68 26.06Q105.75 26.96 103.74 27.15L103.83 27.25L103.79 27.21Q103.09 27.38 102.21 27.38L102.25 27.42L102.18 27.34Q102.27 27.75 102.43 28.43L102.32 28.33L102.43 28.43Q104.17 28.42 105.62 29.15L105.71 29.24L105.50 29.14L103.88 29.28L103.85 29.24Q104.06 29.76 104.18 30.37L104.09 30.29L104.09 30.29Q106.31 30.29 108.02 31.63L107.98 31.59L107.95 31.56Q108.25 32.01 108.55 33.65L108.54 33.63L108.48 33.57Q108.71 36.54 105.78 36.96L105.77 36.95L105.82 37.01Q103.60 37.15 103.03 37.11L103.03 37.11L102.99 37.06Q102.55 36.97 102.01 36.89L102.14 37.02L102.05 36.47L102.18 36.03L102.21 35.64L102.17 35.26L102.25 35.34Q101.26 35.37 100.46 35.57L100.60 35.70L100.57 35.67Q100.50 35.42 100.50 35.23L100.39 35.11L100.56 35.28Q100.46 34.96 100.46 34.73L100.55 34.81L100.50 34.77Q100.58 34.39 100.74 33.67L100.77 33.71L100.74 33.68Q98.82 33.85 96.95 34.19L96.90 34.13L97.04 34.27Q96.91 34.64 96.79 35.76L96.88 35.85L96.79 35.76Q96.75 36.95 96.75 37.56L96.80 37.61L96.68 37.50Q96.88 39.67 98.25 40.43L98.19 40.37L98.20 40.38Q99.68 42.66 104.40 42.47L104.47 42.54L104.39 42.46Q105.08 42.39 106.60 42.54Z"/><path fill="#b4d943" d="M64.03 29.66L64.19 29.81L64.08 29.70Q59.96 29.58 59.39 32.63L59.40 32.64L59.43 32.67Q59.07 33.56 59.26 34.44L59.39 34.57L59.35 34.53Q59.33 35.27 59.78 36.68L59.78 36.67L59.78 36.67Q60.88 39.87 64.19 39.71L64.28 39.81L64.27 39.79Q66.27 39.85 67.60 38.29L67.54 38.23L67.64 38.33Q68.79 36.78 68.79 34.73L68.78 34.72L68.69 34.62Q68.89 34.10 68.74 33.03L68.84 33.13L68.71 33.00Q68.68 32.14 68.27 31.46L68.26 31.45L68.36 31.55Q66.72 29.87 64.13 29.76ZM68.96 48.22L68.87 48.13L68.94 48.20Q67.20 48.85 59.13 49.24L59.02 49.13L58.93 49.04Q57.31 49.16 55.67 48.33L55.79 48.44L55.62 48.28Q56.46 47.33 58.29 45.54L58.37 45.62L58.46 45.71Q60.82 46.70 62.91 46.51L62.96 46.55L62.85 46.44Q65.72 46.15 66.56 45.89L66.66 46.00L66.56 45.89Q68.83 45.23 68.83 43.44L68.77 43.38L68.88 43.49Q68.95 43.33 68.87 43.10L68.71 42.94L68.66 41.40L68.74 41.49Q68.64 40.63 68.64 39.83L68.57 39.75L68.57 39.76Q67.32 42.12 63.93 42.12L63.99 42.18L63.88 42.07Q60.01 42.08 58.37 39.87L58.36 39.86L58.37 39.88Q57.23 38.31 56.43 33.90L56.52 33.99L56.40 33.86Q56.26 32.51 56.26 31.10L56.08 30.92L56.14 30.98Q56.22 29.27 57.14 28.28L57.16 28.31L57.14 28.29Q58.69 26.76 63.34 26.76L63.33 26.75L65.11 26.97L65.12 26.98Q68.44 27.44 69.77 29.38L69.69 29.30L69.72 29.33Q69.83 28.41 70.25 26.77L70.34 26.87L70.35 26.88Q72.17 26.49 73.92 25.77L73.86 25.70L73.86 25.71Q71.29 31.89 71.29 39.12L71.23 39.06L71.23 39.06Q71.12 41.62 71.50 44.25L71.68 44.43L71.52 44.27Q71.85 45.09 71.78 45.78L71.63 45.63L71.73 45.73Q71.43 47.00 70.21 47.76L70.24 47.78L70.22 47.76Q69.76 48.06 68.92 48.17ZM72.00 51.21L71.94 51.16L72.02 51.24Q73.46 51.26 74.22 50.31L74.15 50.24L74.26 50.35Q74.57 49.37 74.45 48.64L74.46 48.65L74.49 48.68Q74.30 47.96 74.11 47.20L74.07 47.16L74.07 47.16Q72.89 41.98 73.23 36.73L73.15 36.64L73.16 36.66Q73.62 31.32 75.75 26.49L75.69 26.43L73.61 27.39L73.60 27.39Q73.89 26.84 74.12 26.27L74.14 26.29L74.49 25.01L74.64 25.15Q72.25 26.08 70.04 26.49L69.97 26.42L69.94 26.40Q69.71 27.35 69.56 28.37L69.52 28.34L69.51 28.32Q67.50 26.51 63.47 26.51L63.38 26.42L61.69 26.48L61.59 26.38Q58.35 26.38 56.68 27.79L56.76 27.87L56.65 27.76Q55.76 28.77 55.80 30.68L55.90 30.78L55.85 30.73Q55.84 33.16 56.87 37.42L57.00 37.55L56.95 37.50Q57.42 39.41 58.64 40.82L58.52 40.71L58.94 41.13L59.03 41.22L58.96 41.14Q60.05 43.42 62.64 43.95L62.63 43.94L62.68 43.99Q64.08 44.28 65.52 44.32L65.54 44.34L65.57 44.37Q67.29 44.38 68.36 44.00L68.38 44.02L68.34 43.98Q67.66 45.47 64.99 45.81L65.17 45.99L65.09 45.90Q64.09 46.13 63.41 46.13L63.26 45.98L62.93 46.03L62.87 45.98Q60.17 46.09 58.50 45.14L58.42 45.06L56.79 46.86L56.68 46.75Q55.87 47.61 55.03 48.56L55.13 48.66L55.02 48.55Q56.09 49.17 57.08 49.36L57.01 49.28L56.13 50.16L56.22 50.25Q58.85 51.24 64.49 51.24L64.48 51.24L64.71 51.24L64.81 51.34Q68.27 51.18 71.85 51.07ZM66.04 32.09L65.93 31.98L65.90 31.94Q67.33 32.00 68.24 32.42L68.28 32.46L68.17 32.35Q68.30 32.79 68.38 33.47L68.47 33.57L68.40 33.50Q68.52 33.88 68.48 34.79L68.40 34.72L68.49 34.80Q68.49 36.78 67.39 38.08L67.21 37.90L67.38 38.07Q66.14 39.42 64.24 39.38L64.29 39.43L64.18 39.32Q62.76 39.27 61.92 38.86L61.93 38.86L61.99 38.92Q61.62 37.79 61.58 36.76L61.53 36.71L61.42 36.60Q61.40 32.36 66.01 32.06Z"/><path fill="#a18be3" d="M57.52 28.68L57.47 28.63L51.63 28.77L51.71 28.85Q48.73 28.84 45.80 28.77L45.68 28.64L45.78 28.75Q45.84 35.39 43.78 40.91L43.74 40.87L43.78 40.91Q42.02 41.47 40.27 42.15L40.16 42.05L40.32 42.21Q42.99 36.38 42.99 29.72L43.02 29.76L43.06 29.79Q43.11 21.35 39.00 14.31L39.01 14.33L39.01 14.32Q40.40 14.99 42.87 15.79L42.84 15.76L42.82 15.74Q44.94 20.79 45.48 25.66L45.55 25.73L45.67 25.86Q48.69 26.10 51.55 26.06L51.55 26.06L51.59 26.11Q54.22 26.07 57.53 25.80L57.55 25.82L57.69 25.96Q58.14 21.53 59.89 16.43L59.78 16.33L59.82 16.37Q61.68 15.87 63.93 15.03L63.91 15.01L63.96 15.06Q60.40 21.85 60.40 29.81L60.44 29.85L60.33 29.74Q60.41 36.02 62.77 41.35L62.84 41.42L62.78 41.37Q61.13 40.70 59.07 40.40L59.17 40.50L59.16 40.49Q57.50 35.48 57.61 28.78ZM58.81 40.74L58.85 40.79L58.73 40.66Q59.78 40.85 60.89 41.11L60.92 41.15L60.93 41.15Q61.33 41.94 61.98 43.42L61.95 43.39L62.00 43.44Q65.26 44.31 67.05 45.22L67.15 45.32L66.99 45.16Q62.72 39.18 62.42 30.92L62.24 30.74L62.26 30.76Q62.11 22.88 65.76 16.06L65.65 15.95L64.57 16.39L64.55 16.37Q64.17 16.71 63.56 16.87L63.44 16.75L63.46 16.77Q63.89 15.98 64.72 14.42L64.82 14.51L64.75 14.44Q62.05 15.43 59.42 15.93L59.46 15.96L59.41 15.92Q57.80 20.82 57.35 25.50L57.31 25.47L57.35 25.50Q54.92 25.78 52.49 25.78L52.47 25.76L52.36 25.66Q50.08 25.77 47.56 25.62L47.44 25.50L47.58 25.64Q47.37 22.37 46.26 18.30L46.26 18.29L46.09 18.13Q45.50 18.11 44.06 17.73L43.96 17.64L44.08 17.75Q43.71 16.55 43.25 15.52L43.24 15.51L43.23 15.49Q40.41 14.65 38.12 13.40L38.16 13.44L38.19 13.47Q42.68 20.81 42.68 29.61L42.73 29.65L42.76 29.69Q42.77 36.66 39.65 42.79L39.73 42.87L39.66 42.80Q40.45 42.60 41.78 42.03L41.62 41.87L41.69 41.94Q41.33 42.76 40.53 44.28L40.63 44.38L40.54 44.29Q43.33 43.27 45.57 42.85L45.61 42.89L45.62 42.90Q47.43 37.29 47.62 31.12L47.70 31.20L47.71 31.21Q49.18 31.00 52.37 30.96L52.50 31.09L52.47 31.05Q55.23 30.93 57.14 31.00L57.21 31.08L57.22 31.09Q57.52 36.86 58.85 40.78Z"/><path fill="#43df91" d="M135.45 27.16L135.37 27.08L135.47 27.18Q136.22 27.13 137.63 26.98L137.58 26.93L137.73 27.08Q137.57 27.61 137.57 28.25L137.61 28.30L137.69 29.63L137.69 29.63Q136.83 29.61 135.99 29.68L135.93 29.62L135.89 29.58Q135.19 29.76 134.36 29.72L134.35 29.71L134.19 29.56Q131.47 35.86 128.04 40.46L128.01 40.43L127.97 40.39Q125.56 41.14 124.27 41.75L124.10 41.59L124.24 41.72Q128.33 35.99 131.38 29.71L131.31 29.65L128.68 29.64L128.68 29.64Q128.67 28.30 128.56 26.97L128.54 26.95L128.61 27.02Q130.44 27.10 132.49 27.10L132.62 27.23L134.46 23.47L134.46 23.47Q135.41 21.53 136.63 19.93L136.75 20.05L136.73 20.03Q135.15 20.16 133.55 20.16L133.45 20.06L133.48 20.09Q127.41 20.11 123.64 17.91L123.60 17.86L122.99 16.19L122.95 16.15Q122.63 15.33 122.25 14.46L122.26 14.46L122.37 14.58Q126.62 17.12 132.33 17.34L132.27 17.28L132.34 17.35Q137.49 17.59 142.63 15.61L142.69 15.67L142.58 15.56Q142.42 16.00 141.92 16.88L142.01 16.97L141.85 16.81Q138.28 21.62 135.43 27.14ZM143.60 18.33L143.60 18.33L144.46 16.19L144.62 16.34Q143.52 16.70 141.85 17.42L141.91 17.48L142.06 17.14L142.00 17.08Q142.25 17.05 142.36 16.94L142.22 16.80L142.31 16.89Q142.75 16.26 143.47 14.93L143.49 14.95L143.42 14.87Q138.18 17.25 132.43 17.02L132.29 16.88L132.38 16.98Q126.36 16.70 121.60 13.73L121.56 13.69L121.60 13.73Q122.62 15.59 123.46 18.25L123.38 18.18L123.46 18.25Q124.47 18.80 125.27 19.11L125.25 19.09L125.29 19.13Q125.49 19.52 125.95 21.39L126.04 21.48L126.02 21.46Q129.05 22.59 134.57 22.44L134.65 22.51L134.59 22.45Q134.37 23.12 132.39 26.88L132.33 26.82L132.29 26.78Q130.34 26.88 128.36 26.69L128.34 26.68L128.33 26.66Q128.44 27.54 128.44 28.42L128.30 28.27L128.30 29.98L130.03 30.04L130.12 31.54L130.08 31.49Q126.11 38.84 123.33 42.42L123.36 42.44L123.34 42.42Q125.01 41.73 126.65 41.24L126.68 41.27L126.50 41.09Q125.92 42.11 124.55 43.82L124.44 43.71L124.57 43.84Q127.69 42.70 130.13 42.47L130.14 42.49L130.06 42.40Q133.12 38.77 136.24 31.99L136.27 32.02L139.62 32.13L139.52 32.03Q139.43 31.11 139.43 30.19L139.51 30.27L139.53 28.50L139.60 28.57Q139.18 28.41 138.62 28.45L138.79 28.62L138.65 28.48Q138.23 28.65 137.97 28.65L137.97 28.65L137.89 28.57Q137.95 28.52 137.99 28.37L138.01 28.39L137.96 28.07L137.91 28.02Q140.36 22.82 143.44 18.18Z"/><path fill="#e15f80" d="M31.25 47.03L31.37 47.14L31.29 47.06Q30.30 47.22 28.40 47.53L28.44 47.57L28.53 47.66Q29.67 45.34 30.70 44.04L30.78 44.13L30.80 44.14Q32.46 44.36 32.62 44.36L32.75 44.49L32.68 44.42Q33.05 44.56 33.58 44.45L33.58 44.45L33.53 44.39Q34.25 44.36 34.45 44.36L34.29 44.21L34.42 44.33Q36.86 43.96 36.79 41.79L36.96 41.96L36.94 41.94Q36.80 40.36 36.68 34.11L36.69 34.12L36.63 34.06Q36.62 30.54 36.69 26.39L36.75 26.45L38.10 26.20L38.20 26.30Q38.72 26.06 39.41 25.83L39.47 25.89L39.41 25.84Q39.25 30.32 39.29 34.70L39.37 34.78L39.31 34.72Q39.28 39.03 39.81 43.41L39.84 43.43L39.84 43.44Q39.86 43.68 39.86 43.95L40.00 44.09L39.99 44.08Q40.01 45.74 38.33 46.12L38.27 46.05L38.26 46.04Q35.20 46.48 31.35 47.13ZM38.05 22.84L36.00 19.80L36.01 19.81Q36.89 18.25 38.71 15.47L38.88 15.64L38.72 15.48Q39.50 16.48 40.83 18.31L40.82 18.30L38.05 22.84ZM41.15 49.54L41.01 49.40L41.18 49.57Q41.68 49.58 42.44 49.24L42.29 49.09L42.37 49.16Q42.63 48.39 42.63 47.94L42.75 48.06L42.76 48.07Q42.68 47.65 42.57 47.04L42.63 47.10L42.53 47.00Q41.14 40.55 41.14 32.63L41.29 32.78L41.28 32.77Q41.16 29.80 41.32 26.90L41.36 26.95L41.48 27.06Q40.76 27.08 39.62 27.38L39.68 27.44L39.67 27.43Q39.81 27.07 39.85 26.54L39.72 26.41L39.81 25.32L39.84 25.35Q38.16 26.03 36.37 26.07L36.35 26.05L36.29 25.98Q36.30 30.38 36.34 33.96L36.41 34.03L36.40 41.75L36.58 41.92Q36.59 43.84 34.42 43.95L34.37 43.90L34.43 43.96Q34.13 43.90 33.62 43.95L33.63 43.96L33.65 43.98Q33.10 44.00 32.83 44.00L32.79 43.96L32.79 43.96Q32.27 43.90 30.71 43.48L30.82 43.59L30.81 43.58Q30.41 44.24 29.30 45.92L29.25 45.86L27.65 48.11L27.71 48.17Q28.52 47.92 30.16 47.54L30.27 47.65L29.74 48.29L29.27 49.00L29.31 49.05Q31.46 48.76 32.79 48.83L32.84 48.88L32.93 48.97Q35.21 49.12 41.15 49.54ZM38.06 23.61L38.11 23.66L38.30 22.98L38.43 23.11Q38.79 23.54 39.74 25.14L39.64 25.04L39.65 25.05Q41.17 21.92 42.73 18.84L42.72 18.82L42.74 18.85Q41.83 17.33 40.88 16.04L40.89 16.05L40.83 15.99Q40.58 16.16 40.24 16.69L40.37 16.82L40.42 16.87Q40.01 16.23 39.02 14.93L38.97 14.88L38.88 14.80Q37.66 16.36 35.34 19.71L35.45 19.82L35.42 19.79Q36.24 20.92 37.95 23.50Z"/><path fill="#e96caa" d="M117.07 39.88L117.03 39.84L117.21 40.02Q113.01 39.44 111.18 37.99L111.17 37.98L111.11 37.91Q109.30 36.49 108.88 33.48L108.89 33.49L108.92 33.52Q108.77 33.03 108.43 28.27L108.42 28.26L108.52 28.36Q108.51 27.14 108.44 25.88L108.55 25.99L108.54 25.98Q108.26 20.83 110.47 19.08L110.52 19.13L110.41 19.02Q113.11 16.96 120.88 16.28L120.82 16.22L121.00 16.40Q122.21 16.13 123.85 16.17L123.80 16.12L123.82 16.14Q123.90 16.21 126.87 16.21L126.89 16.24L126.82 16.17Q127.79 16.30 129.51 16.46L129.40 16.35L129.51 16.45Q128.96 17.36 127.93 20.44L127.90 20.41L127.88 20.39Q125.78 19.17 122.78 19.17L122.85 19.24L122.87 19.26Q122.06 19.21 121.26 19.28L121.32 19.35L121.23 19.26Q116.13 19.71 113.62 21.69L113.68 21.76L113.61 21.68Q111.57 23.27 111.42 26.62L111.53 26.73L111.50 26.70Q111.45 27.30 111.49 28.55L111.45 28.51L111.47 28.53Q111.58 33.36 113.98 35.46L114.05 35.52L113.89 35.37Q116.08 37.33 121.07 37.64L121.03 37.60L121.09 37.66Q124.26 37.86 127.27 36.07L127.33 36.13L127.32 36.12Q127.87 38.80 128.48 40.18L128.44 40.14L128.44 40.13Q126.44 40.50 124.81 40.46L124.63 40.29L124.65 40.31Q120.21 40.28 117.08 39.90ZM132.30 43.73L132.13 43.56L132.16 43.58Q130.41 40.62 129.73 38.04L129.84 38.14L129.71 38.02Q129.30 38.29 128.31 38.67L128.33 38.69L128.36 38.72Q127.91 37.82 127.72 36.98L127.82 37.08L127.48 35.40L127.39 35.31Q124.10 37.36 120.98 37.25L121.12 37.38L121.06 37.32Q116.77 37.11 114.45 35.36L114.47 35.38L114.47 35.38Q113.28 33.50 113.36 30.57L113.42 30.63L113.38 30.59Q113.51 26.08 115.99 23.95L115.95 23.91L116.05 24.02Q118.24 22.16 122.92 21.55L122.75 21.39L122.72 21.36Q123.63 21.35 124.35 21.35L124.39 21.39L124.33 21.33Q127.09 21.31 129.18 22.83L129.29 22.93L129.13 22.78Q129.74 20.76 130.96 17.53L130.94 17.51L130.84 17.41Q130.72 17.55 130.17 17.50L130.15 17.48L130.05 17.38Q129.54 17.36 129.27 17.36L129.32 17.42L129.37 17.46Q129.52 16.89 129.97 15.90L129.92 15.84L129.89 15.81Q129.66 15.81 127.16 15.73L127.30 15.87L127.14 15.70Q124.73 15.72 124.08 15.75L124.18 15.85L123.99 15.66Q113.51 16.03 110.05 18.62L110.03 18.60L110.08 18.65Q108.17 20.59 108.17 24.51L108.08 24.41L108.02 24.35Q108.17 25.61 108.28 28.31L108.13 28.16L108.15 28.18Q108.32 31.78 108.55 33.49L108.56 33.50L108.60 33.54Q108.83 36.52 110.43 38.04L110.62 38.22L110.62 38.22Q110.99 38.78 112.24 39.93L112.37 40.05L112.25 39.94Q115.50 41.70 120.75 42.46L120.86 42.56L120.83 42.54Q127.17 43.39 132.15 43.58Z"/><path fill="#58e3c0" d="M19.98 32.86L20.01 32.89L20.02 32.90Q23.23 32.65 26.43 32.77L26.32 32.65L26.31 32.64Q26.34 30.16 26.34 27.76L26.40 27.82L26.26 27.68Q26.27 25.22 26.46 22.67L26.52 22.73L26.55 22.76Q25.36 24.50 20.14 33.02ZM30.04 40.37L29.92 40.25L29.91 40.24Q28.36 40.06 26.57 39.99L26.49 39.90L26.54 39.95Q26.39 37.63 26.28 35.16L26.24 35.12L26.12 35.01Q20.91 34.93 16.19 36.34L16.07 36.23L16.13 36.28Q16.32 35.86 16.51 34.87L16.38 34.75L16.52 34.89Q18.15 31.56 21.73 25.28L21.89 25.45L21.88 25.44Q24.62 20.41 28.05 16.53L28.06 16.53L28.09 16.56Q29.10 16.51 30.77 16.24L30.62 16.09L30.75 16.22Q28.84 22.65 28.84 29.69L28.76 29.61L28.79 29.64Q28.75 31.09 28.83 32.57L28.85 32.60L30.25 32.82L30.21 32.78Q30.87 32.86 31.47 32.97L31.36 32.86L31.36 32.86Q31.48 33.86 31.75 35.80L31.86 35.90L31.78 35.83Q30.53 35.53 29.04 35.34L29.09 35.39L28.98 35.27Q29.23 37.32 29.92 40.25ZM31.63 32.48L31.65 32.50L31.70 32.55Q31.53 32.50 31.34 32.50L31.29 32.44L30.84 32.38L30.87 32.40Q30.80 30.97 30.80 29.56L30.73 29.49L30.84 29.59Q30.78 23.14 32.83 17.13L32.90 17.19L32.79 17.08Q31.97 17.29 30.52 17.67L30.55 17.69L30.72 17.86Q30.86 17.01 31.31 15.60L31.33 15.62L31.29 15.58Q30.08 16.05 28.03 16.28L27.92 16.17L27.94 16.19Q24.08 20.59 18.87 29.96L18.90 29.99L20.92 26.27L20.97 26.31Q20.42 27.21 20.16 27.78L20.17 27.80L15.80 36.91L15.84 36.95Q16.50 36.81 17.64 36.43L17.47 36.25L17.38 36.54L17.49 36.65Q17.20 37.16 16.89 38.41L16.97 38.50L16.91 38.43Q21.05 37.13 25.88 37.32L25.85 37.28L25.91 37.35Q26.05 38.40 26.24 40.38L26.22 40.35L26.13 40.27Q27.29 40.36 28.36 40.48L28.23 40.35L28.33 40.45Q28.53 41.19 28.80 42.56L28.82 42.57L28.82 42.57Q30.72 42.80 33.73 43.71L33.56 43.54L33.67 43.66Q32.60 41.45 31.69 38.17L31.74 38.23L33.22 38.71L33.13 38.63Q33.78 38.82 34.47 39.16L34.61 39.31L34.45 39.14Q33.70 36.68 33.55 35.01L33.52 34.98L33.54 35.00Q33.09 34.97 31.95 34.74L31.92 34.71L31.79 34.58Q31.73 33.46 31.73 32.58ZM23.58 32.28L23.56 32.26L23.70 32.39Q24.32 30.95 25.88 28.40L25.96 28.48L26.05 28.58Q25.89 29.37 25.85 30.32L26.02 30.49L25.92 30.39Q25.97 31.43 26.01 32.38L26.06 32.43L25.97 32.34Q25.48 32.38 24.90 32.38L24.93 32.40L24.91 32.38Q24.29 32.37 23.68 32.37Z"/><path fill="#3f3fe8" d="M4.38 47.07L4.43 47.11L4.34 47.03Q3.53 47.36 1.63 47.66L1.55 47.59L1.56 47.60Q2.87 45.44 3.89 44.14L3.77 44.02L3.87 44.12Q5.69 44.49 5.84 44.49L5.73 44.39L5.79 44.44Q6.13 44.56 6.67 44.44L6.52 44.30L6.67 44.44Q7.20 44.22 7.39 44.22L7.43 44.26L7.54 44.37Q10.06 44.07 9.98 41.90L9.93 41.84L9.90 41.81Q9.90 40.37 9.79 34.12L9.73 34.07L9.84 34.18Q9.68 30.52 9.76 26.37L9.82 26.43L11.25 26.26L11.29 26.30Q11.84 26.09 12.52 25.86L12.63 25.96L12.65 25.99Q12.33 30.31 12.36 34.68L12.49 34.81L12.37 34.69Q12.48 39.14 13.01 43.52L13.01 43.51L13.02 43.52Q13.00 43.73 13.00 44.00L13.02 44.02L13.03 44.03Q13.06 45.70 11.39 46.08L11.35 46.04L11.41 46.10Q8.17 46.36 4.32 47.01ZM11.26 22.95L9.08 19.79L9.08 19.79Q10.12 18.39 11.95 15.61L11.97 15.63L11.87 15.54Q12.54 16.43 13.87 18.26L13.96 18.35L11.16 22.86ZM14.15 49.45L14.23 49.53L14.27 49.57Q14.63 49.43 15.39 49.09L15.50 49.20L15.52 49.22Q15.77 48.44 15.77 47.98L15.90 48.12L15.72 47.94Q15.82 47.69 15.70 47.08L15.60 46.98L15.67 47.05Q14.42 40.74 14.42 32.82L14.39 32.78L14.28 32.68Q14.34 29.88 14.49 26.98L14.52 27.02L14.39 26.89Q14.01 27.24 12.87 27.54L12.81 27.48L12.76 27.43Q12.77 26.94 12.80 26.41L12.78 26.39L12.99 25.41L12.94 25.36Q11.17 25.96 9.39 25.99L9.42 26.03L9.44 26.05Q9.46 30.45 9.50 34.03L9.52 34.04L9.66 41.91L9.59 41.84Q9.64 43.80 7.47 43.91L7.39 43.83L7.57 44.01Q7.20 43.87 6.68 43.92L6.79 44.04L6.74 43.99Q6.31 44.12 6.04 44.12L5.86 43.94L5.86 43.94Q5.54 44.08 3.98 43.66L3.83 43.51L3.84 43.51Q3.38 44.13 2.28 45.80L2.38 45.91L0.73 48.10L0.79 48.16Q1.78 48.08 3.42 47.70L3.30 47.58L2.77 48.24L2.28 48.92L2.32 48.96Q4.70 48.91 6.03 48.99L5.87 48.82L5.95 48.91Q8.26 49.08 14.20 49.50ZM11.15 23.61L11.17 23.63L11.39 22.97L11.52 23.10Q11.83 23.49 12.78 25.09L12.74 25.04L12.78 25.08Q14.37 22.04 15.94 18.95L15.94 18.96L15.93 18.95Q14.94 17.35 13.99 16.06L13.92 15.98L13.97 16.03Q13.68 16.16 13.34 16.70L13.51 16.88L13.34 16.71Q12.98 16.11 11.99 14.81L11.98 14.81L12.00 14.83Q10.79 16.40 8.47 19.75L8.59 19.87L8.53 19.81Q9.52 21.10 11.23 23.69Z"/><path fill="#76de53" d="M82.03 30.91L82.07 30.95L82.06 30.94Q81.87 29.64 79.93 28.92L79.94 28.93L79.96 28.95Q79.56 28.85 79.02 28.85L79.03 28.86L79.03 28.86Q77.48 28.68 76.41 29.25L76.49 29.32L76.52 29.36Q75.03 29.97 75.15 31.18L75.20 31.24L75.29 31.32Q75.55 34.06 75.40 36.31L75.42 36.33L75.46 36.37Q75.25 38.75 74.53 41.26L74.51 41.24L74.53 41.26Q72.52 41.88 71.34 42.30L71.32 42.28L71.16 42.12Q72.88 38.62 72.88 34.62L72.88 34.62L72.92 34.67Q72.79 29.10 70.20 24.64L70.33 24.77L70.34 24.77Q71.45 25.17 73.85 25.89L73.97 26.01L73.79 25.82Q74.09 26.55 74.47 28.07L74.49 28.09L74.52 28.12Q75.86 26.03 79.74 26.11L79.78 26.14L79.74 26.11Q81.23 26.15 82.03 26.26L82.03 26.26L82.10 26.34Q84.97 26.62 85.05 28.64L85.19 28.78L85.01 28.60Q85.19 29.65 85.00 30.68L84.99 30.67L85.04 30.72Q84.41 33.06 84.60 36.07L84.64 36.11L84.63 36.09Q84.85 39.02 85.84 41.57L85.84 41.57L85.74 41.47Q84.15 41.18 82.44 41.03L82.33 40.92L82.34 40.93Q81.99 38.68 81.92 36.01L81.87 35.97L81.78 35.88Q81.70 33.13 81.93 30.81ZM82.08 41.39L81.93 41.24L82.08 41.39Q82.86 41.37 84.15 41.60L84.07 41.51L84.57 42.70L84.45 42.58Q84.62 43.06 84.85 43.59L84.94 43.68L84.95 43.69Q87.27 44.14 89.97 45.32L89.98 45.33L89.92 45.27Q87.45 42.04 86.77 38.23L86.90 38.37L86.95 38.42Q86.47 36.14 86.58 32.45L86.71 32.58L86.68 32.56Q86.59 32.16 86.63 31.36L86.72 31.45L86.73 31.46Q86.75 30.79 86.67 30.29L86.68 30.30L86.60 30.23Q86.54 28.60 85.43 28.11L85.35 28.03L85.44 28.12Q85.24 27.23 84.48 26.62L84.56 26.70L84.48 26.62Q82.86 25.68 79.81 25.76L79.84 25.79L79.86 25.81Q77.84 25.69 77.00 25.88L77.13 26.01L76.99 25.87Q75.57 26.24 74.62 27.15L74.69 27.22L74.71 27.24Q74.51 26.63 74.13 25.60L74.26 25.73L74.26 25.72Q71.28 24.88 69.45 23.89L69.50 23.93L69.61 24.04Q72.54 28.80 72.54 34.55L72.57 34.59L72.65 34.66Q72.56 38.95 70.66 42.80L70.63 42.77L70.75 42.89Q71.36 42.51 72.65 42.13L72.74 42.21L72.59 42.06Q72.15 43.38 71.62 44.37L71.70 44.45L71.53 44.28Q73.12 44.00 76.66 43.43L76.67 43.44L76.53 43.30Q77.62 38.26 77.51 33.43L77.47 33.40L77.51 33.43Q77.44 32.56 78.62 31.84L78.65 31.87L78.66 31.88Q79.55 31.10 80.66 30.98L80.65 30.97L80.73 31.05Q81.26 31.09 81.68 31.28L81.60 31.20L81.61 31.21Q81.36 33.67 81.40 36.22L81.57 36.39L81.56 36.38Q81.43 38.72 81.92 41.23Z"/><path d="M14 40 C68 6,84 28,138 32" stroke="#51ea51" fill="none"/><path fill="#ad6feb" d="M87.88 40.25L88.06 40.42L87.97 40.34Q86.55 40.40 84.99 39.99L84.96 39.95L85.11 40.10Q83.73 39.03 83.58 37.39L83.54 37.35L83.62 37.44Q83.68 37.34 83.87 34.72L83.78 34.62L83.79 34.63Q84.80 34.42 86.81 34.04L86.83 34.05L86.58 34.76L86.55 34.73Q86.41 36.60 87.82 37.17L87.85 37.21L87.88 37.24Q88.58 37.48 90.67 37.48L90.72 37.53L90.72 37.52Q92.34 37.40 92.53 37.32L92.39 37.18L92.49 37.28Q93.38 37.10 94.10 36.61L94.13 36.64L94.20 36.71Q95.53 35.68 95.34 33.58L95.34 33.58L95.36 33.60Q95.22 31.22 93.49 29.66L93.43 29.60L93.43 29.59Q91.73 28.07 89.25 28.07L89.22 28.03L89.26 27.85L89.11 27.69Q89.49 27.65 90.36 27.58L90.54 27.75L90.45 27.66Q92.29 27.48 93.66 26.24L93.79 26.38L93.73 26.32Q95.07 25.05 95.22 23.18L95.34 23.30L95.33 23.29Q95.31 22.86 95.31 22.51L95.31 22.52L95.42 22.62Q95.24 20.91 93.86 20.00L93.93 20.07L93.94 20.08Q92.80 19.36 91.20 19.47L91.06 19.32L91.17 19.43Q89.84 19.25 88.62 19.67L88.52 19.57L88.56 19.61Q87.11 20.14 86.81 21.28L86.78 21.25L86.84 21.31Q86.72 22.14 86.80 22.91L86.73 22.83L86.75 22.86Q85.82 22.72 83.76 22.00L83.73 21.97L83.63 21.87Q83.43 20.22 83.47 19.39L83.39 19.31L83.41 19.33Q83.67 17.95 84.73 17.26L84.67 17.20L84.64 17.17Q86.02 16.53 87.61 16.53L87.58 16.50L87.67 16.58Q90.92 16.64 94.08 16.91L94.08 16.90L94.08 16.91Q99.06 17.24 98.75 21.01L98.74 20.99L98.72 20.98Q98.68 22.49 98.18 24.05L98.09 23.96L98.10 23.96Q97.32 27.19 94.96 28.10L94.82 27.96L94.94 28.08Q97.61 28.66 98.22 32.01L98.22 32.01L98.12 31.91Q98.31 33.01 98.38 35.02L98.36 35.00L98.50 35.15Q98.63 39.57 94.02 40.03L93.93 39.94L94.02 40.03Q93.26 40.07 87.97 40.33ZM93.24 42.63L93.15 42.55L93.25 42.64Q93.86 42.68 96.71 42.76L96.56 42.61L96.63 42.68Q98.34 42.71 99.98 42.06L100.12 42.21L100.07 42.16Q101.23 41.18 101.04 39.43L101.03 39.43L101.12 39.52Q100.99 38.16 100.68 36.41L100.68 36.41L100.59 36.32Q99.87 31.83 97.93 30.20L97.89 30.16L97.72 29.80L97.71 29.74L97.62 29.66Q99.40 28.24 100.16 23.86L100.28 23.98L100.33 24.03Q100.22 23.42 100.33 22.47L100.38 22.51L100.30 22.44Q100.52 21.83 100.45 21.14L100.31 21.01L100.42 21.12Q100.24 19.41 98.94 18.72L99.01 18.79L98.84 18.69L98.83 18.69Q98.46 17.63 97.32 17.10L97.34 17.12L97.51 17.29Q95.88 16.49 90.74 16.19L90.74 16.19L90.74 16.19Q89.03 16.07 87.43 16.07L87.50 16.15L87.57 16.22Q85.92 16.17 84.40 16.81L84.26 16.68L84.36 16.78Q83.22 17.62 83.22 19.37L83.12 19.27L83.15 19.30Q83.22 18.95 83.49 22.30L83.46 22.27L83.39 22.21Q83.62 22.20 85.25 22.81L85.43 22.99L85.43 22.99Q85.27 23.36 85.23 23.86L85.23 23.86L85.32 23.94Q85.35 24.47 85.39 25.00L85.41 25.02L85.39 25.00Q87.19 25.39 89.21 25.51L89.06 25.36L89.06 25.36Q89.03 23.39 90.13 22.55L90.20 22.62L90.11 22.53Q91.11 22.05 93.13 21.82L93.00 21.68L92.99 21.68Q94.19 21.73 94.76 21.92L94.74 21.91L94.84 22.00Q94.88 22.12 94.92 22.24L94.90 22.22L94.82 22.33L94.88 22.85L94.86 22.82Q94.87 23.02 94.83 23.17L94.85 23.19L94.87 23.22Q94.82 24.95 93.30 26.13L93.31 26.14L93.27 26.10Q92.42 27.09 90.41 27.28L90.36 27.23L90.42 27.29Q89.62 27.37 88.75 27.37L88.70 27.33L88.70 27.32Q88.87 27.80 89.02 28.48L88.88 28.34L88.88 28.34Q90.71 28.42 92.16 29.15L92.23 29.22L91.96 29.06L90.58 29.43L90.51 29.36Q90.56 29.71 90.67 30.32L90.55 30.20L90.65 30.30Q92.71 30.16 94.43 31.49L94.50 31.56L94.52 31.58Q94.64 31.86 94.95 33.49L95.12 33.66L94.94 33.48Q95.16 36.44 92.23 36.86L92.36 37.00L92.35 36.98Q90.11 37.10 89.54 37.07L89.70 37.23L89.60 37.13Q89.14 37.01 88.61 36.94L88.67 37.00L88.67 36.55L88.64 35.94L88.73 35.61L88.80 35.34L88.76 35.30Q87.90 35.47 87.10 35.66L87.00 35.56L87.15 35.71Q87.11 35.48 87.11 35.29L86.99 35.16L87.08 35.26Q87.09 35.04 87.09 34.82L87.16 34.88L87.05 34.77Q87.10 34.36 87.25 33.64L87.31 33.70L87.35 33.74Q85.40 33.88 83.53 34.22L83.61 34.30L83.56 34.25Q83.53 34.72 83.42 35.84L83.38 35.80L83.33 35.75Q83.35 37.01 83.35 37.62L83.35 37.62L83.22 37.49Q83.47 39.72 84.84 40.48L84.82 40.46L84.76 40.39Q86.18 42.62 90.91 42.43L90.87 42.40L90.94 42.46Q91.59 42.36 93.11 42.51Z"/></svg>