<svg xmlns="http://www.w3.org/2000/svg" width="150" height="50" viewBox="0,0,150,50"><rect width="100%" height="100%" fill="white"/><path d="M16 8 C79 26,61 4,140 16" stroke="#4ad8d8" fill="none"/><path fill="#d64c4c" d="M46.73 41.47L46.91 41.66L46.88 41.62Q44.71 41.17 42.54 41.01L42.44 40.91L42.45 40.93Q41.10 39.58 38.44 35.73L38.41 35.70L38.43 35.72Q36.20 38.78 33.80 41.22L33.74 41.16L31.71 41.60L31.68 41.58Q30.76 41.92 29.77 42.18L29.75 42.16L29.78 42.19Q33.81 37.92 36.82 33.81L36.87 33.86L36.95 33.94Q33.63 29.70 28.22 24.91L28.19 24.88L28.26 24.95Q30.50 25.70 33.21 26.12L33.19 26.10L33.09 26.00Q36.49 29.07 38.40 31.77L38.53 31.91L38.53 31.91Q40.67 28.87 43.42 26.36L43.41 26.35L43.41 26.35Q46.37 25.93 48.20 25.43L48.15 25.38L48.22 25.45Q43.66 29.08 39.97 33.65L40.04 33.72L39.93 33.60Q43.34 38.31 46.80 41.55ZM49.62 24.64L49.58 24.60L49.68 24.71Q46.85 25.61 43.31 25.95L43.15 25.79L43.17 25.81Q40.39 28.59 38.68 31.06L38.62 31.00L38.66 31.04Q37.76 29.99 36.12 28.01L36.14 28.03L35.98 28.06L35.84 27.92Q35.76 27.95 35.64 27.95L35.68 27.99L35.75 28.06Q34.90 27.13 33.26 25.69L33.18 25.61L33.23 25.65Q29.67 25.14 26.82 23.92L26.87 23.97L26.78 23.89Q32.32 28.70 36.36 33.84L36.48 33.96L36.39 33.87Q33.10 38.58 28.68 42.88L28.60 42.80L28.65 42.85Q28.85 42.71 32.35 41.87L32.30 41.82L32.41 41.93Q30.86 43.23 29.23 44.57L29.13 44.47L29.25 44.59Q32.47 43.69 35.63 43.50L35.61 43.49L35.58 43.45Q37.87 41.10 39.77 38.36L39.92 38.51L39.94 38.53Q41.35 40.28 42.56 41.46L42.46 41.35L42.50 41.39Q42.56 41.34 42.63 41.41L42.63 41.40L42.77 41.36L42.89 41.48Q44.07 42.51 45.41 43.58L45.39 43.56L45.49 43.66Q49.02 44.14 51.91 45.17L51.87 45.13L52.00 45.25Q45.84 40.81 42.14 35.63L42.04 35.53L42.01 35.49Q45.70 30.51 50.27 26.43L50.32 26.49L50.26 26.42Q49.36 26.82 48.37 27.05L48.27 26.95L46.28 27.43L46.31 27.47Q47.59 26.65 49.76 24.78Z"/><path fill="#5151e5" d="M42.72 38.95L42.82 39.05L42.65 38.88Q44.64 36.60 49.40 29.33L49.23 29.17L49.41 29.34Q53.47 23.17 56.32 19.89L56.21 19.77L56.34 19.91Q54.26 20.22 52.16 20.22L52.15 20.21L52.10 20.16Q46.78 20.09 42.78 18.30L42.80 18.33L42.81 18.33Q42.14 16.41 41.46 14.85L41.37 14.76L41.53 14.92Q46.07 17.06 51.74 17.17L51.77 17.21L51.64 17.08Q56.82 17.19 62.00 15.29L62.06 15.35L61.95 15.24Q61.72 16.23 61.41 17.03L61.28 16.90L60.75 18.54L60.79 18.57Q57.67 22.15 53.67 27.97L53.75 28.06L50.40 32.85L50.41 32.86Q48.71 35.28 46.89 37.56L46.89 37.56L46.76 37.43Q50.16 36.91 53.47 36.98L53.54 37.05L53.38 36.90Q56.86 37.14 60.02 38.05L59.91 37.95L60.44 39.58L60.54 39.68Q60.69 40.40 61.03 41.24L60.99 41.20L61.13 41.34Q56.42 39.71 51.28 39.90L51.21 39.83L51.20 39.82Q46.06 40.01 41.57 42.03L41.61 42.07L41.63 42.09Q42.10 41.11 42.83 39.06ZM41.09 42.84L40.98 42.73L41.01 42.76Q42.24 42.16 43.04 41.90L43.04 41.89L43.11 41.97Q42.86 42.74 42.17 44.26L42.02 44.11L42.00 44.10Q47.83 42.09 53.81 42.32L53.76 42.26L53.79 42.29Q60.17 42.59 65.20 45.37L65.13 45.30L65.12 45.28Q63.71 42.89 62.91 40.72L62.85 40.66L62.96 40.77Q62.46 40.53 60.94 39.96L60.85 39.87L60.80 39.83Q60.71 39.16 60.29 37.68L60.27 37.65L60.26 37.65Q56.14 36.50 51.04 36.69L51.01 36.66L51.13 36.78Q53.22 33.99 56.76 28.43L56.80 28.48L56.74 28.42Q60.30 22.61 62.20 20.06L62.17 20.03L62.19 20.05Q62.75 18.71 63.78 16.01L63.72 15.94L63.87 16.10Q63.03 16.28 61.58 16.89L61.60 16.91L61.61 16.92Q62.02 16.18 62.74 14.66L62.77 14.69L62.63 14.55Q57.48 16.87 51.77 16.79L51.63 16.64L51.67 16.69Q45.64 16.52 40.69 14.00L40.83 14.14L40.75 14.06Q41.96 16.49 42.68 18.73L42.62 18.68L42.57 18.62Q43.76 19.24 44.56 19.47L44.53 19.44L44.45 19.36Q44.81 20.14 45.08 21.59L45.06 21.57L45.04 21.55Q48.76 22.60 53.63 22.41L53.77 22.55L53.65 22.44Q51.34 25.72 48.03 30.71L48.05 30.73L42.36 38.90L42.46 39.00Q42.14 40.31 41.11 42.86Z"/><path fill="#dd59bc" d="M105.61 41.42L105.51 41.32L105.64 41.45Q102.57 41.42 101.31 40.89L101.34 40.92L101.43 41.01Q99.54 40.26 99.61 37.78L99.50 37.67L99.64 37.81Q99.77 34.39 99.77 34.96L99.70 34.90L99.73 34.93Q99.70 29.56 96.84 24.73L96.90 24.79L96.80 24.69Q98.85 25.71 100.83 26.09L100.86 26.12L100.82 26.09Q102.50 30.66 102.39 35.15L102.43 35.20L102.35 35.11Q102.24 36.64 103.08 37.86L103.03 37.81L103.11 37.89Q104.00 39.19 105.52 39.00L105.46 38.94L105.88 38.87L105.90 38.89Q107.21 38.79 108.03 38.03L108.09 38.09L107.96 37.96Q108.85 37.28 108.85 36.33L108.80 36.27L108.92 36.39Q108.91 36.16 108.88 35.97L108.84 35.93L108.77 35.86Q108.74 30.66 109.89 26.32L109.89 26.33L109.95 26.39Q110.94 26.27 111.93 26.04L111.85 25.96L114.01 25.60L113.92 25.52Q111.44 30.61 111.74 36.17L111.72 36.15L111.64 36.07Q111.89 39.21 110.18 40.35L110.23 40.41L110.22 40.40Q108.88 41.22 105.57 41.37ZM107.88 43.77L107.98 43.86L107.95 43.84Q111.44 44.01 113.26 43.25L113.20 43.18L113.17 43.15Q114.17 42.48 114.17 41.07L114.03 40.93L114.13 41.03Q114.11 40.09 113.84 38.53L113.85 38.54L113.81 38.50Q113.29 35.32 113.67 32.31L113.73 32.36L113.67 32.31Q114.03 29.13 115.44 26.39L115.62 26.57L115.45 26.40Q114.91 26.81 113.58 27.23L113.49 27.15L113.47 27.13Q113.68 26.50 113.99 25.93L114.08 26.02L114.76 24.98L114.57 24.79Q112.72 25.54 109.57 26.03L109.46 25.93L109.58 26.05Q108.34 30.82 108.49 35.93L108.56 35.99L108.58 36.01Q108.59 38.04 105.92 38.53L105.98 38.59L105.66 38.72L105.45 38.67L104.45 38.47L104.52 38.53Q104.41 37.62 104.44 37.13L104.48 37.16L104.47 37.16Q104.55 32.52 103.87 28.10L103.85 28.09L102.77 27.92L102.95 28.10Q102.34 27.99 101.81 27.87L101.70 27.77L101.74 27.80Q101.41 26.44 101.14 25.68L101.18 25.72L101.05 25.59Q98.31 25.21 96.06 23.91L96.02 23.88L96.07 23.92Q98.20 27.43 98.93 30.81L98.96 30.85L98.94 30.82Q99.56 33.16 99.41 36.66L99.32 36.58L99.37 36.62Q99.41 36.78 99.34 37.89L99.21 37.76L99.34 37.89Q99.16 40.22 100.53 41.17L100.58 41.23L100.44 41.08Q100.78 43.29 107.79 43.67Z"/><path fill="#e73a3a" d="M117.95 29.76L117.89 29.70L117.96 29.77Q113.82 29.62 113.25 32.67L113.13 32.56L113.24 32.66Q113.00 33.68 113.19 34.56L113.10 34.46L113.23 34.60Q113.10 35.23 113.56 36.64L113.55 36.63L113.56 36.64Q114.63 39.80 117.94 39.65L118.12 39.83L117.96 39.67Q120.07 39.84 121.41 38.28L121.48 38.35L121.39 38.26Q122.62 36.79 122.62 34.73L122.56 34.67L122.64 34.75Q122.78 34.17 122.63 33.10L122.60 33.07L122.60 33.07Q122.61 32.25 122.19 31.56L122.07 31.44L122.10 31.47Q120.54 29.87 117.95 29.76ZM122.88 48.32L122.87 48.30L122.69 48.13Q120.96 48.80 112.89 49.18L112.81 49.09L112.88 49.16Q111.14 49.17 109.50 48.34L109.62 48.46L109.44 48.28Q110.41 47.46 112.24 45.67L112.20 45.63L112.16 45.59Q114.68 46.74 116.77 46.55L116.72 46.49L116.68 46.45Q119.65 46.27 120.49 46.00L120.33 45.85L120.50 46.01Q122.75 45.34 122.75 43.55L122.65 43.44L122.71 43.50Q122.61 43.17 122.53 42.94L122.62 43.03L122.58 41.51L122.49 41.41Q122.48 40.65 122.48 39.85L122.50 39.86L122.54 39.91Q121.16 42.14 117.77 42.14L117.62 42.00L117.69 42.06Q113.81 42.06 112.17 39.85L112.21 39.89L112.13 39.81Q111.00 38.27 110.21 33.85L110.21 33.86L110.23 33.88Q109.94 32.37 109.94 30.96L109.94 30.96L110.02 31.04Q109.98 29.21 110.89 28.22L110.85 28.18L110.83 28.16Q112.66 26.91 117.31 26.91L117.19 26.79L118.99 27.03L118.99 27.03Q122.26 27.45 123.60 29.39L123.57 29.37L123.42 29.22Q123.65 28.41 124.07 26.78L124.05 26.76L124.10 26.81Q125.97 26.47 127.72 25.75L127.75 25.78L127.75 25.78Q125.10 31.88 125.10 39.11L124.97 38.98L125.04 39.06Q125.12 41.80 125.50 44.43L125.48 44.41L125.33 44.26Q125.59 45.02 125.52 45.70L125.53 45.71L125.43 45.61Q125.26 47.01 124.05 47.77L124.19 47.91L124.20 47.93Q123.58 48.06 122.74 48.18ZM125.67 51.07L125.81 51.21L125.84 51.24Q127.16 51.15 127.92 50.20L127.92 50.19L128.02 50.30Q128.32 49.30 128.20 48.58L128.27 48.65L128.21 48.59Q128.11 47.95 127.92 47.19L127.85 47.12L127.93 47.20Q126.76 42.03 127.10 36.78L127.02 36.70L127.11 36.79Q127.47 31.36 129.61 26.53L129.58 26.51L127.44 27.41L127.37 27.34Q127.59 26.72 127.82 26.15L127.82 26.15L128.39 25.08L128.36 25.06Q126.07 26.08 123.87 26.50L123.90 26.54L123.80 26.43Q123.54 27.35 123.39 28.38L123.28 28.27L123.30 28.30Q121.20 26.38 117.16 26.38L117.27 26.49L115.41 26.38L115.35 26.32Q112.17 26.37 110.49 27.78L110.44 27.73L110.61 27.90Q109.55 28.74 109.59 30.65L109.56 30.62L109.56 30.62Q109.65 33.15 110.68 37.41L110.82 37.55L110.77 37.50Q111.23 39.41 112.45 40.82L112.48 40.85L112.80 41.17L112.85 41.22L112.70 41.07Q113.87 43.42 116.46 43.95L116.41 43.90L116.50 43.99Q117.83 44.22 119.28 44.26L119.44 44.42L119.43 44.41Q121.16 44.43 122.23 44.05L122.25 44.07L122.11 43.93Q121.63 45.62 118.96 45.96L118.81 45.81L118.96 45.95Q117.93 46.14 117.24 46.14L117.20 46.10L116.85 46.13L116.69 45.97Q113.99 46.09 112.32 45.14L112.25 45.08L110.66 46.91L110.65 46.90Q109.80 47.72 108.96 48.67L108.89 48.60L108.80 48.52Q109.92 49.18 110.91 49.37L110.82 49.28L109.99 50.19L109.92 50.13Q112.73 51.31 118.37 51.31L118.24 51.18L118.52 51.23L118.63 51.34Q122.15 51.24 125.73 51.13ZM119.74 31.97L119.72 31.94L119.91 32.14Q121.04 31.89 121.95 32.31L122.12 32.48L122.01 32.37Q122.14 32.81 122.22 33.49L122.29 33.57L122.20 33.47Q122.42 33.96 122.38 34.87L122.23 34.72L122.35 34.84Q122.20 36.68 121.10 37.97L121.21 38.08L121.02 37.89Q120.01 39.47 118.11 39.44L117.96 39.28L117.97 39.30Q116.59 39.28 115.75 38.87L115.73 38.85L115.82 38.93Q115.42 37.77 115.38 36.74L115.31 36.67L115.39 36.75Q115.26 32.40 119.87 32.10Z"/><path fill="#4a6dd8" d="M82.27 41.24L82.25 41.21L79.21 41.03L79.21 41.03Q76.78 40.89 75.98 40.78L76.12 40.92L76.01 40.80Q74.24 40.52 73.06 39.64L73.14 39.72L73.10 39.68Q71.82 38.29 71.60 34.94L71.59 34.93L71.63 34.97Q71.50 34.39 71.43 33.17L71.35 33.09L71.34 33.09Q71.47 32.80 71.39 31.69L71.41 31.71L71.37 31.67Q71.25 30.75 71.29 30.03L71.34 30.07L71.38 30.11Q71.56 28.17 72.59 27.40L72.66 27.48L72.68 27.49Q74.55 26.29 79.39 26.06L79.32 25.99L79.43 26.10Q81.33 25.87 82.13 25.87L82.24 25.98L82.21 25.95Q83.74 26.00 85.11 26.30L85.02 26.21L85.06 26.25Q84.46 27.48 83.93 29.30L83.89 29.27L83.90 29.28Q83.39 29.33 82.89 29.30L83.03 29.43L82.95 29.36Q82.92 29.40 82.38 29.28L82.27 29.17L81.26 28.88L81.32 28.94Q80.23 28.66 79.62 28.69L79.60 28.67L79.60 28.67Q74.92 28.79 74.31 31.61L74.31 31.60L74.43 31.72Q74.11 32.81 74.18 33.76L74.06 33.63L74.20 33.77Q74.20 36.22 75.44 37.30L75.63 37.49L75.50 37.37Q76.83 38.54 79.42 38.57L79.26 38.42L79.36 38.52Q80.79 38.50 81.51 38.20L81.60 38.28L82.54 37.70L82.58 37.74Q83.13 37.53 83.71 37.46L83.70 37.45L83.60 37.36Q83.93 39.25 84.31 40.54L84.31 40.53L84.22 40.44Q84.08 40.91 82.29 41.26ZM85.49 44.15L85.45 44.11L85.56 44.22Q85.94 44.26 86.78 44.34L86.76 44.32L86.76 44.32Q87.38 44.33 87.72 43.76L87.64 43.68L87.76 43.79Q86.44 41.60 85.95 39.51L86.02 39.58L85.94 39.51Q85.72 39.58 85.26 39.58L85.26 39.58L85.31 39.64Q84.89 39.63 84.51 39.82L84.39 39.71L84.49 39.80Q84.16 38.56 84.01 37.15L83.84 36.98L83.95 37.10Q83.29 36.97 82.07 37.54L82.06 37.52L82.10 37.56Q80.79 38.04 80.29 38.04L80.30 38.04L80.29 38.04Q79.91 38.15 79.30 38.11L79.34 38.15L79.29 38.11Q78.39 38.08 76.41 37.51L76.49 37.59L76.49 37.59Q76.02 36.73 76.05 35.59L76.06 35.60L76.13 35.67Q76.33 31.46 81.28 30.92L81.33 30.97L81.36 31.00Q81.95 30.91 83.32 31.25L83.35 31.28L83.39 31.32Q84.73 31.63 85.45 31.59L85.35 31.48L85.41 31.54Q85.80 29.27 86.49 27.45L86.60 27.56L86.58 27.54Q86.22 27.45 85.84 27.38L85.76 27.29L85.02 27.23L84.97 27.18Q85.23 26.76 85.61 25.89L85.53 25.80L85.56 25.83Q83.99 25.44 82.43 25.44L82.55 25.57L82.50 25.52Q80.00 25.42 75.62 25.80L75.79 25.96L75.76 25.93Q73.69 25.96 72.13 26.95L72.22 27.04L72.18 27.00Q71.04 28.03 71.04 29.93L70.98 29.87L70.98 29.87Q71.03 30.34 71.14 31.55L71.01 31.42L71.01 31.43Q71.10 32.46 71.06 33.07L71.14 33.15L71.17 33.18Q71.27 35.15 71.99 38.88L71.86 38.75L71.81 38.70Q72.35 39.69 72.84 40.19L72.78 40.13L72.94 40.28L73.02 40.33L73.13 40.43Q74.08 42.48 78.00 43.09L77.91 43.00L77.90 43.00Q81.15 43.58 83.81 43.85L83.74 43.77L83.78 43.81Q84.69 44.00 85.61 44.27Z"/><path fill="#ea5151" d="M89.89 25.01L89.89 25.01L89.94 25.06Q90.84 25.43 92.82 25.43L92.83 25.44L92.84 32.61L92.90 32.66Q92.92 36.91 93.03 39.80L92.88 39.65L92.97 39.73Q92.69 39.69 92.31 39.69L92.23 39.61L92.19 39.57Q90.84 39.67 89.40 41.00L89.42 41.02L89.27 40.87Q90.10 33.29 89.91 25.03ZM89.92 19.71L88.85 17.11L88.75 17.02Q90.31 15.99 91.03 15.04L91.08 15.08L91.02 15.03Q92.18 16.98 93.59 18.66L93.56 18.63L93.58 18.65Q92.71 20.10 91.33 22.23L91.33 22.22L91.47 22.36Q90.58 21.13 90.01 19.80L90.03 19.82ZM88.75 41.77L88.72 41.73L88.78 41.79Q89.78 40.69 91.03 40.20L91.04 40.21L91.06 40.23Q91.10 40.95 90.98 42.32L90.94 42.28L90.92 42.26Q91.68 42.10 92.32 42.10L92.21 41.98L92.37 42.15Q94.41 41.98 95.82 43.96L95.85 43.99L95.90 44.04Q94.54 36.59 94.62 26.42L94.62 26.42L94.72 26.53Q93.93 26.69 93.10 26.81L93.16 26.87L93.08 24.93L93.18 25.03Q92.00 24.99 91.20 24.91L91.36 25.07L91.30 25.01Q90.53 25.00 89.65 24.50L89.56 24.41L89.64 24.49Q89.69 26.45 89.69 28.51L89.68 28.50L89.68 28.50Q89.65 35.51 88.77 41.79ZM91.41 22.91L91.39 22.90L91.50 22.62L91.72 22.54L91.63 22.45Q92.16 23.36 93.19 24.84L93.11 24.77L93.07 24.72Q94.44 22.41 95.78 18.87L95.87 18.96L95.75 18.84Q94.91 18.11 93.35 16.51L93.29 16.45L93.30 16.47Q93.29 16.76 93.02 17.22L93.00 17.19L92.96 17.15Q91.96 15.85 91.05 14.40L91.12 14.48L91.08 14.44Q89.65 16.09 88.47 16.43L88.46 16.42L88.42 16.38Q89.64 19.96 91.47 22.97Z"/><path fill="#eb7ed0" d="M133.22 40.08L133.19 40.06L131.12 40.27L131.07 40.22Q130.76 40.36 129.79 40.42L129.67 40.30L129.70 40.33Q128.70 40.36 128.21 40.36L128.30 40.45L128.22 40.37Q126.67 40.46 125.64 39.62L125.64 39.63L125.65 39.63Q126.35 38.43 127.99 36.30L127.95 36.26L128.08 36.39Q129.34 37.95 131.55 37.72L131.55 37.73L131.48 37.65Q132.42 37.57 133.07 36.92L133.15 37.01L133.03 36.89Q133.64 36.20 133.53 35.33L133.60 35.40L133.61 35.41Q133.49 30.79 133.56 26.22L133.54 26.21L133.48 26.14Q133.51 21.53 134.05 16.93L134.11 16.99L134.06 16.94Q136.06 16.81 138.19 15.78L138.13 15.72L138.11 15.70Q136.33 22.52 136.33 29.75L136.25 29.68L136.36 29.78Q136.39 33.36 136.85 36.86L136.87 36.88L136.82 36.83Q136.79 37.07 136.79 37.41L136.89 37.51L136.89 37.51Q136.79 37.98 136.56 38.52L136.57 38.52L136.67 38.63Q136.12 39.90 133.31 40.17ZM138.16 42.93L138.17 42.93L138.49 42.91L138.76 42.77L138.98 42.61L139.14 42.77Q139.39 42.44 139.46 42.33L139.43 42.30L139.44 42.31Q139.69 41.18 139.42 40.19L139.40 40.17L139.35 40.12Q138.08 34.40 138.35 28.04L138.36 28.05L138.31 28.00Q138.58 21.91 140.36 16.01L140.29 15.94L140.41 16.06Q139.45 16.62 138.20 17.35L138.18 17.33L138.21 17.35Q138.32 16.52 138.74 15.00L138.73 14.98L138.76 15.01Q136.35 16.45 133.68 16.75L133.55 16.62L133.64 16.71Q133.36 21.19 133.28 26.14L133.17 26.03L133.22 26.07Q133.11 31.94 133.19 35.37L133.15 35.33L133.15 35.33Q133.23 37.12 131.47 37.27L131.40 37.20L131.55 37.35Q129.87 37.49 128.19 35.86L128.06 35.72L128.15 35.81Q125.98 38.21 125.03 39.77L125.07 39.81L125.07 39.81Q125.82 40.57 126.85 40.80L126.83 40.78L126.77 40.72Q126.71 40.89 126.45 41.11L126.39 41.06L126.38 41.04Q127.80 41.98 129.78 42.24L129.87 42.33L129.81 42.27Q130.29 42.41 133.58 42.71L133.60 42.73L133.59 42.72Q136.79 42.92 138.16 42.92Z"/><path fill="#934ed9" d="M64.59 41.23L64.49 41.14L62.81 41.17L62.71 41.07Q59.41 41.16 58.46 39.03L58.45 39.02L58.52 39.09Q59.59 37.95 61.04 36.85L60.98 36.79L61.16 36.97Q61.60 39.01 64.45 38.85L64.45 38.85L64.59 38.99Q65.22 38.79 66.25 38.56L66.35 38.65L66.40 38.71Q67.14 38.00 67.06 37.05L67.06 37.05L67.13 37.12Q67.00 35.96 65.21 35.27L65.20 35.26L61.44 33.79L61.47 33.82Q59.09 32.43 58.75 28.89L58.73 28.87L58.78 28.91Q58.56 26.76 60.73 26.19L60.72 26.17L60.85 26.30Q61.79 26.06 64.76 26.06L64.69 25.99L64.80 26.10Q69.65 26.08 70.56 28.60L70.42 28.45L70.53 28.56Q69.93 29.14 69.20 29.60L69.10 29.50L67.63 30.38L67.67 30.42Q67.28 28.63 64.05 28.40L64.01 28.36L63.96 28.31Q63.40 28.36 62.37 28.78L62.31 28.72L62.32 28.73Q61.82 29.14 61.82 30.25L61.82 30.24L61.85 30.27Q62.19 31.34 64.01 32.02L64.06 32.07L63.99 32.00Q65.00 32.32 67.66 33.42L67.78 33.54L67.68 33.44Q69.48 34.25 69.67 36.80L69.71 36.84L69.66 36.79Q69.73 37.44 69.66 38.43L69.68 38.44L69.80 38.57Q69.76 39.44 69.19 40.09L69.18 40.08L69.06 39.96Q67.48 41.08 64.43 41.08ZM69.21 43.69L69.27 43.74L69.35 43.83Q70.23 43.83 71.60 43.53L71.54 43.47L71.45 43.38Q72.51 42.68 72.32 41.47L72.44 41.59L72.50 41.65Q72.38 41.03 72.07 39.43L72.10 39.46L72.06 39.42Q71.43 36.39 69.64 35.18L69.64 35.18L69.76 35.29Q69.22 33.88 67.96 33.15L68.01 33.20L67.84 33.02Q66.75 32.77 64.27 31.82L64.13 31.68L64.25 31.80Q64.31 31.25 64.58 31.14L64.62 31.18L64.71 31.27Q65.17 30.67 65.82 30.63L65.96 30.77L65.95 30.76Q66.63 30.60 67.39 30.87L67.38 30.86L67.46 31.01L67.62 31.05L67.82 31.07L67.72 31.01L67.83 31.12Q68.90 31.57 69.09 32.83L68.98 32.72L68.97 32.71Q70.25 31.90 72.16 30.23L72.30 30.37L72.21 30.28Q71.94 29.56 70.95 28.38L71.00 28.42L70.96 28.38Q69.75 25.61 64.65 25.50L64.66 25.51L64.71 25.56Q61.61 25.58 59.63 26.15L59.59 26.11L59.56 26.08Q58.21 26.71 58.44 28.81L58.40 28.76L58.48 28.84Q58.57 30.08 59.49 32.17L59.50 32.19L59.46 32.15Q59.94 33.20 60.97 33.92L61.03 33.99L60.89 33.85Q61.59 35.34 62.88 36.03L62.95 36.10L62.90 36.05Q63.94 36.40 64.89 36.78L64.93 36.82L66.78 37.53L66.86 37.61Q66.53 38.73 64.59 38.61L64.52 38.54L64.49 38.51Q63.99 38.50 62.77 38.20L62.95 38.38L62.73 38.01L62.64 38.15L62.75 38.26Q61.92 37.92 61.28 36.44L61.11 36.27L61.12 36.28Q58.99 37.85 57.89 38.99L57.95 39.05L57.85 38.95Q58.28 39.99 59.31 40.79L59.22 40.70L59.14 40.92L59.01 40.79Q60.49 42.96 64.71 43.34L64.75 43.38L64.69 43.31Q65.95 43.44 69.19 43.66Z"/><path fill="#cde584" d="M8.31 14.03L8.43 14.15L8.46 14.18Q9.34 16.13 11.01 16.47L10.93 16.38L10.86 16.32Q11.40 16.43 12.08 16.24L12.25 16.41L12.18 16.34Q12.02 22.31 11.94 28.17L11.85 28.08L11.93 28.15Q11.78 33.83 12.01 39.77L12.02 39.78L12.00 39.76Q11.77 39.76 11.46 39.76L11.54 39.83L11.42 39.71Q10.00 39.86 8.71 41.68L8.72 41.70L8.65 41.62Q9.43 34.80 9.39 27.94L9.28 27.83L9.34 27.89Q9.18 20.92 8.35 14.07ZM8.29 42.83L8.17 42.71L8.23 42.77Q9.31 40.96 10.38 40.50L10.44 40.56L10.30 40.42Q10.29 41.52 10.29 42.51L10.39 42.61L10.29 42.51Q11.03 42.14 11.83 42.26L11.90 42.32L11.81 42.24Q13.76 42.48 14.98 45.18L15.03 45.23L15.05 45.25Q13.96 37.80 13.96 30.34L13.96 30.34L13.82 30.20Q13.95 22.61 14.79 15.30L14.79 15.29L14.62 15.13Q13.68 17.08 12.54 17.69L12.62 17.77L12.53 17.68Q12.67 16.80 12.75 15.73L12.64 15.62L12.67 15.65Q11.80 16.07 11.04 15.92L11.10 15.99L11.12 16.01Q8.90 15.57 7.91 12.72L7.80 12.61L7.84 12.65Q8.93 20.20 9.00 27.74L9.10 27.84L9.02 27.76Q9.10 35.23 8.23 42.77Z"/><path fill="#9276e4" d="M24.57 23.37L24.55 23.35L24.63 23.42Q21.45 23.44 19.62 22.37L19.55 22.30L19.54 22.30Q22.01 20.88 26.88 16.65L26.97 16.74L27.06 16.84Q27.74 16.60 29.03 15.99L28.91 15.86L29.00 15.96Q27.63 21.86 27.51 28.21L27.52 28.22L27.56 28.26Q27.39 34.56 28.46 40.66L28.50 40.70L28.57 40.77Q26.87 40.02 24.74 39.91L24.67 39.84L24.63 39.80Q24.57 35.70 24.57 31.63L24.48 31.54L24.65 31.70Q24.60 27.55 24.64 23.44ZM24.29 25.71L24.18 40.18L24.30 40.30Q25.37 40.16 26.33 40.35L26.35 40.37L26.39 40.42Q26.46 41.09 26.65 42.46L26.72 42.53L26.59 42.40Q29.42 42.91 31.86 45.16L31.91 45.21L32.01 45.31Q29.43 38.08 29.39 30.62L29.48 30.71L29.43 30.66Q29.44 23.29 31.27 16.05L31.23 16.01L31.17 15.96Q30.68 16.42 29.08 17.52L29.04 17.48L28.97 17.41Q29.17 16.66 29.47 15.13L29.57 15.23L29.55 15.21Q28.26 16.01 26.81 16.39L26.74 16.32L26.85 16.43Q23.07 20.00 18.77 22.28L18.67 22.19L18.73 22.25Q20.17 23.38 22.53 23.72L22.44 23.63L22.48 23.68Q21.86 24.23 20.56 25.30L20.52 25.25L20.52 25.26Q22.04 25.67 24.24 25.67L24.20 25.62Z"/></svg>