<svg xmlns="http://www.w3.org/2000/svg" width="150" height="50" viewBox="0,0,150,50"><rect width="100%" height="100%" fill="white"/><path fill="#e4b78a" d="M101.55 33.26L101.68 33.40L101.52 33.23Q101.50 36.19 100.32 40.83L100.23 40.74L100.20 40.71Q98.47 41.30 96.87 42.10L96.81 42.04L96.80 42.03Q99.49 35.09 99.23 27.67L99.12 27.56L99.15 27.59Q98.99 20.31 95.91 13.57L95.86 13.52L95.83 13.50Q97.83 14.82 99.70 15.39L99.58 15.27L99.60 15.29Q101.73 22.26 101.73 28.92L101.76 28.95L101.79 28.98Q101.85 30.48 101.77 31.97L101.65 31.85L101.66 31.85Q102.92 30.76 108.14 25.81L108.17 25.84L108.13 25.80Q109.23 25.80 110.22 25.72L110.18 25.67L112.31 25.57L112.26 25.51Q109.11 28.53 104.81 32.30L104.92 32.41L104.76 32.25Q108.19 35.07 114.66 40.89L114.60 40.83L114.56 40.79Q111.89 39.95 108.92 39.76L108.89 39.73L109.06 39.90Q106.39 37.65 101.52 33.23ZM111.53 42.53L111.40 42.39L111.56 42.55Q116.26 43.37 119.38 45.31L119.25 45.17L119.36 45.29Q118.18 43.99 115.55 41.59L115.53 41.57L115.44 41.48Q115.82 41.71 116.09 41.83L116.02 41.76L115.93 41.67Q113.99 39.80 111.74 37.90L111.76 37.92L107.30 33.99L107.24 33.93Q112.11 29.63 114.55 26.73L114.71 26.90L114.60 26.78Q113.48 26.96 111.01 27.23L110.96 27.18L110.95 27.17Q112.46 25.63 113.14 24.80L113.22 24.88L113.24 24.89Q110.40 25.32 107.92 25.32L107.90 25.30L107.99 25.40Q106.58 26.68 103.84 29.35L103.84 29.35L103.80 29.31Q103.85 23.57 102.86 17.75L102.83 17.72L102.77 17.66Q102.16 17.58 100.68 17.32L100.63 17.27L100.72 17.36Q100.55 16.62 100.09 15.13L100.10 15.15L100.06 15.11Q97.48 14.35 95.24 12.79L95.10 12.66L95.23 12.78Q98.49 19.43 98.83 27.54L98.87 27.58L98.85 27.56Q99.19 35.48 96.18 42.71L96.35 42.87L96.34 42.87Q96.92 42.45 98.25 41.81L98.26 41.82L98.31 41.87Q98.01 42.63 97.36 44.07L97.44 44.16L97.34 44.05Q100.13 42.93 102.27 42.55L102.27 42.55L102.38 42.66Q102.93 40.13 103.43 35.87L103.34 35.78L103.33 35.76Q105.98 38.07 111.42 42.41Z"/><path fill="#e1977e" d="M37.54 19.66L37.50 19.63L35.89 19.69L35.85 19.65Q33.76 19.92 33.53 21.94L33.54 21.94L33.46 21.87Q33.43 22.63 33.46 23.62L33.41 23.57L33.38 23.54Q33.38 25.44 34.64 26.77L34.80 26.93L34.65 26.79Q35.94 28.15 37.84 28.00L37.93 28.09L37.85 28.00Q39.88 27.83 40.64 26.91L40.62 26.89L40.72 27.00Q41.67 25.97 41.94 23.72L42.04 23.82L42.08 23.86Q42.34 21.61 41.08 20.77L41.08 20.77L41.06 20.74Q40.09 19.86 37.43 19.55ZM43.48 28.80L43.53 28.85L42.29 31.19L42.18 31.08Q39.61 36.01 35.85 40.09L35.84 40.08L35.79 40.03Q34.16 40.19 31.46 40.99L31.40 40.93L31.54 41.07Q36.86 34.78 40.02 29.98L39.97 29.94L39.93 29.90Q38.90 30.54 37.26 30.62L37.30 30.65L37.31 30.67Q34.33 30.85 32.81 28.87L32.81 28.87L32.81 28.86Q31.62 27.30 30.52 22.73L30.43 22.64L30.38 22.60Q30.47 22.23 30.32 21.29L30.37 21.34L30.33 21.31Q30.22 20.41 30.22 19.95L30.07 19.81L30.10 19.84Q30.09 18.03 31.15 17.42L31.28 17.56L31.14 17.41Q32.43 16.72 34.30 16.72L34.27 16.70L34.21 16.64Q37.52 16.75 37.52 16.75L37.55 16.78L37.54 16.77Q39.66 16.75 40.91 16.94L40.90 16.94L40.81 16.84Q43.10 17.27 44.02 17.77L43.97 17.72L43.86 17.61Q45.36 18.50 45.55 20.25L45.41 20.11L45.55 20.25Q45.58 20.50 45.38 23.17L45.34 23.13L45.39 23.17Q44.93 25.23 44.70 26.06L44.68 26.04L44.79 26.15Q44.39 27.54 43.63 28.95ZM45.45 31.26L45.44 31.26L45.51 31.32Q46.39 29.01 46.92 24.71L46.90 24.68L46.94 24.72Q47.23 22.54 47.19 21.66L47.22 21.70L47.21 21.68Q47.25 19.90 46.07 18.98L45.92 18.83L45.64 18.74L45.76 18.86Q45.47 18.07 44.55 17.43L44.59 17.46L44.60 17.47Q42.14 16.31 37.34 16.15L37.48 16.29L37.43 16.24Q36.49 16.26 34.06 16.26L34.11 16.31L33.99 16.19Q32.26 16.21 30.77 16.89L30.76 16.88L30.87 17.00Q29.77 17.83 29.84 19.65L29.79 19.61L29.71 19.53Q29.88 20.42 30.07 22.44L30.19 22.55L30.15 22.52Q30.75 25.13 31.02 25.97L31.04 26.00L30.99 25.94Q31.61 27.86 32.56 29.15L32.57 29.16L32.50 29.09Q32.86 29.53 33.24 29.91L33.08 29.74L33.07 29.74Q33.51 30.37 34.16 31.28L33.99 31.12L34.11 31.24Q35.47 32.48 37.41 32.67L37.60 32.85L37.45 32.71Q35.55 35.37 33.99 37.28L34.08 37.37L30.48 41.76L30.45 41.74Q32.62 40.90 34.26 40.55L34.35 40.65L34.39 40.69Q33.56 41.50 32.00 43.21L31.98 43.19L31.99 43.19Q35.02 42.23 38.14 42.20L38.28 42.33L38.09 42.15Q40.48 39.62 44.82 32.39L44.87 32.44L44.95 32.60L44.80 32.45Q45.20 31.85 45.54 31.36ZM39.37 21.95L39.45 22.03L39.37 21.95Q40.09 21.95 40.55 22.06L40.51 22.02L40.61 22.13Q41.07 22.06 41.45 22.17L41.54 22.25L41.56 22.28Q41.66 22.64 41.74 23.06L41.73 23.06L41.64 22.97Q41.74 23.41 41.63 23.79L41.70 23.86L41.62 23.78Q41.59 25.50 40.41 26.61L40.39 26.59L40.56 26.75Q39.54 27.72 37.90 27.68L37.98 27.75L37.89 27.67Q37.40 27.60 35.88 27.29L35.90 27.31L35.97 27.39Q35.65 26.42 35.65 25.70L35.66 25.71L35.80 25.85Q35.74 25.59 35.74 25.36L35.64 25.27L35.72 25.34Q35.55 22.97 37.83 22.17L37.91 22.24L37.92 22.25Q38.68 22.09 39.51 22.09Z"/><path fill="#aa68ed" d="M50.07 28.94L50.12 29.00L49.96 28.84Q47.54 28.96 46.51 30.14L46.39 30.02L46.57 30.20Q45.47 31.30 45.47 33.93L45.35 33.81L45.46 33.92Q45.44 39.01 50.05 38.82L50.10 38.87L50.04 38.81Q52.16 39.02 53.51 37.46L53.57 37.52L53.41 37.37Q54.87 35.91 54.64 33.86L54.54 33.75L54.60 33.82Q54.61 31.28 53.74 30.25L53.65 30.16L53.66 30.17Q52.18 28.84 49.97 28.84ZM55.14 38.77L55.01 38.65L55.05 38.68Q53.85 41.13 49.17 41.13L49.14 41.11L47.85 41.26L47.78 41.19Q45.44 41.21 44.33 40.07L44.38 40.11L44.24 39.98Q43.36 39.09 43.09 36.69L43.02 36.62L43.02 36.63Q42.84 35.12 42.77 33.33L42.87 33.42L42.81 33.37Q42.79 32.40 42.64 30.45L42.51 30.33L42.62 30.44Q42.51 26.14 47.69 26.14L47.55 26.01L49.16 26.05L49.18 26.07Q52.18 26.18 54.28 27.48L54.19 27.39L54.17 27.37Q54.93 27.82 55.42 28.51L55.45 28.54L55.48 28.56Q55.82 27.84 56.36 26.21L56.28 26.13L56.26 26.11Q57.58 26.02 59.90 25.41L59.82 25.33L59.92 25.43Q57.27 29.59 57.27 34.84L57.23 34.81L57.22 34.79Q57.24 38.55 58.61 41.63L58.65 41.67L58.65 41.67Q57.40 41.26 55.50 41.03L55.61 41.15L55.58 41.11Q55.34 40.22 55.03 38.66ZM58.46 43.99L58.37 43.90L60.68 44.57L60.65 44.55Q61.83 44.82 62.82 45.27L62.79 45.24L62.86 45.31Q59.15 40.92 59.15 34.83L59.15 34.83L59.08 34.75Q59.07 30.22 61.21 26.41L61.32 26.52L61.33 26.53Q60.66 26.74 59.33 27.13L59.37 27.17L59.38 27.18Q59.70 26.39 60.58 24.87L60.51 24.81L60.59 24.88Q59.96 25.01 55.96 25.85L55.95 25.84L55.31 27.59L55.42 27.70Q53.60 25.93 49.19 25.70L49.19 25.70L49.14 25.66Q48.12 25.78 45.88 25.93L45.77 25.82L45.78 25.83Q42.23 26.32 42.34 30.35L42.30 30.31L42.21 30.22Q42.36 33.56 42.93 38.02L43.03 38.12L42.98 38.48L42.96 38.47Q43.04 39.27 43.84 40.38L43.98 40.51L43.90 40.44Q44.11 40.65 44.30 40.76L44.21 40.67L44.31 40.77Q44.52 41.21 44.90 41.78L44.78 41.65L44.79 41.67Q46.20 43.19 49.59 43.38L49.70 43.49L49.57 43.37Q51.37 43.65 51.53 43.65L51.42 43.54L53.02 43.58L52.94 43.50Q56.13 43.49 57.35 41.93L57.47 42.05L57.50 42.08Q57.82 42.67 58.43 43.96ZM51.77 31.10L51.91 31.24L51.84 31.17Q53.17 31.17 54.01 31.62L54.00 31.62L54.09 31.70Q54.28 32.39 54.28 33.84L54.32 33.88L54.39 33.94Q54.50 35.77 53.22 37.20L53.21 37.18L53.14 37.11Q51.92 38.59 50.01 38.40L50.05 38.44L50.07 38.46Q48.59 38.42 47.56 38.00L47.51 37.96L47.65 38.10Q47.48 37.28 47.48 36.06L47.29 35.87L47.46 36.03Q47.56 32.48 50.19 31.53L50.12 31.46L50.17 31.51Q50.96 31.09 51.76 31.09Z"/><path fill="#e67e98" d="M23.98 29.17L24.00 29.19L23.89 29.08Q22.01 28.92 20.78 30.35L20.83 30.40L20.81 30.38Q19.66 31.90 19.47 33.80L19.37 33.70L19.33 33.66Q19.18 35.80 20.27 36.77L20.27 36.76L20.33 36.82Q21.41 37.80 23.51 37.68L23.43 37.60L23.40 37.58Q25.47 37.40 26.57 36.71L26.57 36.71L26.66 36.80Q27.83 35.72 27.83 34.16L27.88 34.21L27.75 34.08Q27.80 33.75 27.72 33.37L27.67 33.32L27.64 33.28Q27.75 31.65 26.65 30.29L26.78 30.43L26.68 30.33Q25.61 29.01 23.94 29.13ZM23.54 40.26L23.50 40.23L23.50 40.23Q19.16 40.26 17.75 39.50L17.78 39.53L17.78 39.53Q16.66 38.68 16.47 36.96L16.49 36.99L16.53 37.03Q16.48 36.32 16.51 35.60L16.54 35.62L16.51 35.59Q16.60 34.59 16.60 34.13L16.63 34.15L16.57 34.09Q17.14 31.35 17.29 30.67L17.19 30.57L17.16 30.53Q17.67 28.65 18.51 27.24L18.43 27.16L18.57 27.30Q21.27 22.96 27.21 16.60L27.10 16.49L27.12 16.51Q29.82 16.24 32.03 15.44L32.01 15.43L31.91 15.32Q25.06 22.79 21.86 27.02L21.88 27.03L21.98 27.13Q22.93 26.60 24.22 26.60L24.25 26.63L24.17 26.54Q27.64 26.70 29.16 28.64L29.05 28.53L28.99 28.47Q30.35 30.13 30.69 33.67L30.65 33.63L30.66 33.65Q30.81 34.44 30.81 35.05L30.87 35.11L30.86 35.10Q30.86 38.22 28.65 39.28L28.65 39.29L28.70 39.33Q27.42 39.89 23.54 40.27ZM25.70 42.54L25.79 42.63L25.79 42.63Q27.06 42.57 29.04 42.65L29.02 42.63L29.07 42.68Q30.62 42.66 32.18 41.94L32.33 42.09L32.30 42.06Q33.35 41.21 33.35 39.42L33.34 39.41L33.31 39.38Q33.31 38.89 33.14 37.90L33.13 37.88L33.25 38.01Q33.11 37.05 33.11 36.59L32.96 36.44L33.04 36.52Q32.10 31.73 30.50 29.83L30.48 29.80L30.58 29.90Q30.40 29.69 30.25 29.47L30.40 29.62L30.08 29.37L29.90 29.23L29.96 29.28Q29.53 28.71 28.92 27.76L28.95 27.78L28.91 27.75Q28.12 26.92 26.14 26.46L26.10 26.42L26.09 26.40Q27.23 24.73 30.20 21.04L30.30 21.13L34.55 15.87L34.47 15.79Q32.90 16.66 30.51 17.42L30.54 17.45L30.54 17.46Q31.37 16.38 33.16 14.41L33.19 14.44L33.34 14.58Q30.80 15.51 26.92 16.08L27.03 16.20L27.07 16.23Q21.24 22.01 18.27 26.96L18.30 26.99L18.35 27.05Q16.79 29.52 16.22 35.76L16.29 35.83L16.26 35.80Q16.13 36.32 16.20 37.27L16.17 37.24L16.10 37.17Q16.33 39.07 17.43 39.98L17.42 39.97L17.31 39.86Q17.68 40.00 17.64 40.04L17.81 40.21L17.64 40.04Q18.08 41.01 18.88 41.43L18.88 41.43L18.90 41.45Q20.44 42.23 22.38 42.42L22.36 42.40L22.28 42.32Q22.24 42.28 25.75 42.59ZM25.65 31.49L25.52 31.36L25.48 31.32Q26.14 31.29 27.09 31.78L27.12 31.82L27.17 31.87Q27.45 32.76 27.45 33.41L27.48 33.43L27.39 33.34Q27.66 35.29 26.71 36.28L26.74 36.31L26.61 36.18Q25.51 36.86 23.41 37.17L23.55 37.31L23.44 37.20Q22.02 37.22 21.49 36.96L21.49 36.96L21.60 37.07Q21.27 36.47 21.27 36.17L21.30 36.20L21.37 36.27Q21.15 33.01 24.08 31.71L24.04 31.67L24.00 31.62Q24.81 31.33 25.57 31.41Z"/><path fill="#e89377" d="M128.26 34.63L128.35 34.72L128.41 34.78Q128.44 38.38 125.28 39.68L125.17 39.57L125.20 39.59Q123.22 40.32 118.80 40.47L118.83 40.49L118.77 40.44Q114.11 40.69 111.87 39.51L111.90 39.55L111.86 39.50Q110.06 38.24 110.22 34.89L110.07 34.74L110.09 34.77Q110.27 34.30 110.46 32.32L110.30 32.16L110.31 32.17Q110.51 30.66 110.51 29.67L110.55 29.70L110.39 29.54Q110.58 21.74 106.39 14.32L106.24 14.17L106.21 14.13Q107.41 14.84 110.38 15.91L110.43 15.95L110.46 15.99Q113.32 22.69 113.32 30.08L113.32 30.08L113.30 30.05Q113.28 30.65 113.19 31.83L113.28 31.92L113.25 31.89Q113.21 33.13 113.21 33.74L113.02 33.55L113.08 33.61Q113.20 36.01 114.76 37.00L114.61 36.85L114.59 36.83Q116.38 37.78 119.35 37.78L119.23 37.66L119.32 37.76Q121.89 37.69 123.52 36.51L123.60 36.59L123.60 36.59Q125.50 35.30 125.35 32.78L125.17 32.60L125.30 32.73Q125.16 31.30 125.16 29.97L125.10 29.90L125.07 29.87Q125.12 22.88 127.52 16.37L127.58 16.43L129.75 15.86L129.79 15.90Q130.63 15.49 131.73 15.03L131.88 15.17L131.71 15.01Q128.03 22.17 128.03 29.75L128.16 29.88L128.14 29.86Q128.14 30.70 128.27 32.33L128.20 32.26L128.24 32.31Q128.32 33.89 128.32 34.69ZM130.47 35.57L130.50 35.60L130.54 35.65Q129.69 30.72 130.41 25.62L130.26 25.47L130.41 25.62Q131.05 20.32 133.45 15.95L133.55 16.05L133.38 15.88Q132.87 16.28 131.42 16.92L131.47 16.97L131.29 16.80Q131.69 15.98 132.49 14.42L132.50 14.42L132.52 14.45Q129.19 15.79 127.28 16.13L127.11 15.96L127.12 15.97Q124.75 22.47 124.75 29.74L124.76 29.76L124.85 29.84Q124.74 31.11 124.82 32.52L124.85 32.54L124.86 32.55Q124.98 34.93 123.19 36.14L123.37 36.32L123.25 36.20Q121.75 37.25 119.24 37.29L119.21 37.26L119.30 37.35Q116.44 37.31 115.00 36.55L115.10 36.65L115.07 36.62Q114.90 36.04 114.82 35.58L114.82 35.57L114.95 35.71Q114.77 35.07 114.89 34.58L115.05 34.74L114.99 34.68Q115.18 32.32 115.18 30.00L115.24 30.05L115.11 29.93Q115.31 24.30 113.79 18.40L113.68 18.29L113.65 18.26Q113.00 18.22 111.59 17.88L111.53 17.82L111.51 17.80Q111.21 16.59 110.76 15.67L110.66 15.58L110.73 15.65Q108.04 14.90 105.64 13.53L105.57 13.46L105.50 13.39Q110.15 21.01 110.15 29.73L110.12 29.70L110.09 29.66Q110.18 31.39 110.03 33.10L110.01 33.09L110.06 33.13Q109.82 35.52 109.90 36.70L109.82 36.63L109.94 36.75Q109.96 38.56 111.22 39.70L111.35 39.83L111.20 39.68Q112.23 42.20 116.87 42.58L116.85 42.55L116.99 42.69Q118.94 42.71 121.07 42.78L121.12 42.83L121.18 42.89Q126.48 43.00 129.25 42.05L129.25 42.05L129.24 42.03Q130.88 41.20 130.88 39.14L130.90 39.17L130.97 39.24Q130.84 37.97 130.38 35.49Z"/><path fill="#dabd67" d="M21.18 23.06L21.10 22.98L21.14 23.02Q19.34 25.74 16.67 31.38L16.75 31.46L14.64 35.58L14.72 35.67Q13.84 37.57 12.51 39.81L12.46 39.77L12.45 39.75Q13.02 39.87 11.34 39.91L11.37 39.93L11.36 39.92Q11.33 39.90 10.08 39.90L10.04 39.85L10.12 39.94Q9.28 38.33 6.34 31.18L6.40 31.23L6.36 31.19Q4.21 25.84 2.12 22.84L2.07 22.79L2.07 22.79Q2.85 25.89 2.85 29.05L2.89 29.10L2.82 29.03Q2.96 35.68-0.01 41.23L-0.18 41.06L-0.11 41.13Q-1.40 41.52-3.76 42.24L-3.82 42.18L-3.81 42.19Q0.00 36.63 0.00 29.40L-0.04 29.36L-0.17 29.23Q-0.07 20.38-5.48 13.42L-5.54 13.35L-5.44 13.45Q-3.92 14.06-1.56 14.75L-1.61 14.70L-1.61 14.70Q5.48 21.48 11.57 34.80L11.67 34.90L11.64 34.87Q15.05 27.77 17.25 24.27L17.30 24.32L17.34 24.36Q20.88 18.53 24.84 15.07L24.84 15.07L24.95 15.18Q26.20 14.94 28.56 14.18L28.47 14.09L28.54 14.16Q23.54 20.77 23.54 29.38L23.50 29.34L23.59 29.42Q23.43 35.93 26.86 41.45L26.95 41.54L26.87 41.46Q25.66 41.28 22.92 40.67L22.76 40.51L22.95 40.70Q20.55 35.86 20.55 29.88L20.42 29.76L20.53 29.87Q20.43 26.34 21.11 22.99ZM22.59 40.91L22.69 41.02L22.69 41.01Q23.34 41.09 24.79 41.36L24.73 41.30L24.80 41.37Q25.29 42.17 26.24 43.65L26.19 43.60L26.12 43.52Q28.31 44.00 31.77 45.22L31.86 45.31L31.76 45.20Q25.42 38.80 25.42 28.98L25.46 29.01L25.47 29.02Q25.51 21.34 29.89 15.21L29.87 15.18L27.66 15.87L27.69 15.90Q28.72 14.37 29.36 13.50L29.43 13.57L29.30 13.44Q27.45 14.09 24.82 14.63L24.92 14.72L24.79 14.60Q18.03 20.71 11.98 33.31L12.10 33.43L12.05 33.38Q6.96 22.50 2.01 17.25L1.97 17.21L1.95 17.19Q1.53 17.07 0.96 16.96L0.93 16.93L-0.26 15.66L-0.23 15.69Q-0.85 15.00-1.53 14.39L-1.44 14.49L-1.54 14.39Q-4.48 13.50-6.27 12.77L-6.25 12.79L-6.36 12.69Q-0.36 19.90-0.36 29.30L-0.33 29.34L-0.36 29.31Q-0.34 36.94-4.49 42.80L-4.48 42.81L-4.59 42.70Q-3.83 42.55-2.53 42.13L-2.59 42.07L-2.46 42.20Q-2.70 42.35-4.10 44.44L-3.99 44.56L-4.03 44.52Q-2.19 44.08 1.32 43.32L1.16 43.16L1.20 43.20Q4.99 36.21 4.80 28.45L4.84 28.49L4.68 28.33Q6.30 32.43 9.77 40.31L9.66 40.21L9.78 40.32Q9.90 40.14 10.13 40.14L10.14 40.14L10.85 40.32L10.68 40.16Q11.27 40.98 12.07 42.27L12.00 42.19L12.01 42.20Q13.55 42.12 13.55 42.12L13.71 42.27L13.69 42.25Q14.57 42.10 15.21 42.18L15.37 42.33L15.32 42.28Q16.82 38.19 20.17 30.19L20.16 30.18L20.23 30.25Q20.12 35.70 22.71 41.03Z"/><path fill="#ebeb64" d="M73.83 32.89L73.92 32.98L73.90 32.96Q77.04 32.64 80.24 32.76L80.10 32.61L80.18 32.70Q80.11 30.11 80.11 27.71L80.13 27.74L80.09 27.69Q80.21 25.34 80.40 22.79L80.32 22.71L80.27 22.66Q79.16 24.48 73.94 33.00ZM83.83 40.34L83.72 40.23L83.82 40.33Q82.05 39.93 80.26 39.86L80.33 39.92L80.39 39.98Q80.15 37.58 80.04 35.10L79.92 34.99L79.96 35.02Q74.70 34.91 69.98 36.32L69.91 36.25L69.88 36.21Q70.01 35.74 70.20 34.75L70.37 34.92L70.23 34.78Q72.08 31.68 75.66 25.40L75.67 25.41L75.71 25.45Q78.48 20.45 81.91 16.57L81.97 16.63L81.97 16.63Q82.79 16.39 84.47 16.12L84.45 16.10L84.51 16.16Q82.57 22.56 82.57 29.60L82.64 29.67L82.65 29.68Q82.60 31.11 82.67 32.60L82.66 32.58L84.07 32.82L84.00 32.75Q84.54 32.72 85.15 32.83L85.21 32.89L85.11 32.79Q85.36 33.91 85.62 35.85L85.58 35.81L85.68 35.91Q84.43 35.61 82.94 35.42L82.94 35.41L82.79 35.27Q83.01 37.28 83.70 40.21ZM85.56 32.59L85.52 32.56L85.38 32.41Q85.28 32.42 85.09 32.42L85.17 32.51L84.78 32.50L84.66 32.38Q84.69 31.04 84.69 29.63L84.56 29.50L84.64 29.58Q84.69 23.23 86.74 17.22L86.68 17.15L86.65 17.12Q85.84 17.34 84.40 17.72L84.36 17.68L84.37 17.70Q84.61 16.95 85.07 15.54L85.20 15.67L85.18 15.65Q83.75 15.90 81.70 16.13L81.68 16.11L81.70 16.13Q77.84 20.54 72.63 29.90L72.63 29.91L74.68 26.20L74.68 26.20Q74.23 27.20 73.97 27.78L73.96 27.77L69.67 36.96L69.52 36.81Q70.31 36.79 71.45 36.41L71.31 36.27L71.25 36.60L71.21 36.55Q71.02 37.16 70.71 38.42L70.83 38.53L70.80 38.50Q74.96 37.22 79.80 37.41L79.84 37.46L79.79 37.40Q79.82 38.35 80.01 40.33L80.04 40.36L80.03 40.35Q81.08 40.34 82.15 40.45L82.14 40.45L82.14 40.44Q82.28 41.11 82.54 42.48L82.62 42.56L82.62 42.55Q84.50 42.76 87.51 43.68L87.54 43.71L87.45 43.62Q86.42 41.44 85.50 38.17L85.46 38.12L86.89 38.57L86.91 38.59Q87.59 38.81 88.27 39.15L88.34 39.22L88.40 39.28Q87.56 36.72 87.41 35.05L87.43 35.07L87.41 35.05Q86.86 34.92 85.72 34.69L85.63 34.61L85.72 34.69Q85.55 33.46 85.55 32.58ZM77.53 32.40L77.48 32.35L77.40 32.27Q78.14 30.96 79.70 28.41L79.78 28.49L79.85 28.56Q79.85 29.51 79.82 30.47L79.80 30.45L79.82 30.47Q79.83 31.47 79.87 32.42L79.76 32.31L79.77 32.32Q79.17 32.26 78.60 32.26L78.62 32.28L78.69 32.35Q77.99 32.26 77.38 32.26Z"/><path d="M12 2 C91 13,90 4,140 12" stroke="#3ebee9" fill="none"/><path fill="#eb997e" d="M131.76 40.18L131.67 40.09L129.33 33.30L129.27 33.24Q124.94 20.69 119.01 14.29L119.00 14.28L118.97 14.26Q121.05 15.39 123.64 16.00L123.70 16.06L123.62 15.98Q128.75 22.25 133.09 35.00L133.06 34.97L133.07 34.98Q136.13 26.89 136.82 25.29L136.90 25.37L136.80 25.27Q139.33 19.81 142.15 16.50L142.04 16.39L142.16 16.51Q144.18 16.09 146.81 15.22L146.69 15.10L146.86 15.28Q142.17 19.76 139.12 26.99L139.11 26.97L139.08 26.94Q137.72 30.65 134.03 40.17L134.00 40.14L134.09 40.23Q133.54 40.25 132.96 40.21L132.90 40.15L132.83 40.07Q132.30 40.11 131.72 40.15ZM136.79 42.63L136.71 42.55L136.79 42.62Q139.54 32.59 141.10 28.55L141.18 28.63L141.15 28.60Q144.06 20.81 148.47 15.93L148.46 15.92L148.62 16.08Q147.61 16.48 145.52 17.21L145.51 17.20L146.51 15.72L146.59 15.80Q147.17 15.12 147.77 14.47L147.77 14.47L147.75 14.45Q144.85 15.35 141.84 15.93L141.91 15.99L142.01 16.09Q137.55 21.34 133.66 32.80L133.72 32.85L133.72 32.85Q130.09 22.75 126.89 18.37L126.77 18.26L126.86 18.34Q126.42 18.21 125.55 18.06L125.53 18.04L125.59 18.10Q125.34 17.70 123.74 15.65L123.82 15.72L123.75 15.65Q120.83 14.98 118.13 13.57L118.00 13.44L118.14 13.58Q124.64 20.53 129.01 33.33L129.02 33.33L129.13 33.44Q130.26 37.01 131.44 40.59L131.47 40.61L131.47 40.62Q131.93 40.78 132.77 40.66L132.58 40.47L132.78 40.67Q133.01 41.24 133.69 42.57L133.68 42.56L133.64 42.52Q134.47 42.43 135.19 42.51L135.28 42.60L135.36 42.68Q136.13 42.73 136.89 42.73Z"/><path fill="#51d651" d="M100.09 23.23L100.22 23.36L100.24 23.39Q98.48 19.27 92.28 19.46L92.20 19.39L92.32 19.50Q87.84 19.55 85.86 21.00L85.85 20.99L85.88 21.02Q83.47 22.76 83.47 26.87L83.48 26.88L83.46 28.72L83.41 28.67Q83.36 37.46 92.39 37.46L92.40 37.48L92.37 37.45Q94.55 37.57 96.04 36.77L95.97 36.71L96.04 36.78Q97.72 35.60 97.57 33.73L97.70 33.86L97.60 33.77Q97.49 31.75 93.80 30.84L93.84 30.88L91.89 30.87L91.84 30.83Q90.87 30.81 89.92 30.84L89.95 30.88L89.84 30.77Q89.98 29.95 89.94 28.05L89.83 27.94L89.96 28.07Q97.56 28.01 101.74 27.67L101.71 27.64L101.79 27.72Q101.70 28.50 101.70 29.30L101.78 29.39L101.62 29.22Q101.64 30.04 101.68 30.84L101.82 30.99L101.77 30.94Q100.63 30.90 100.63 30.90L100.65 30.92L100.72 30.98Q99.29 30.93 99.67 30.93L99.57 30.83L99.67 30.93Q100.79 32.58 101.17 34.56L101.04 34.43L101.17 34.56Q101.14 35.14 101.14 35.60L101.25 35.71L101.18 35.63Q101.26 40.36 92.47 40.36L92.48 40.37L92.42 40.31Q85.35 40.37 82.77 38.27L82.68 38.19L82.66 38.17Q80.63 35.76 80.63 30.69L80.81 30.87L80.79 30.86Q80.80 29.80 80.65 27.09L80.67 27.11L80.51 26.96Q80.40 24.64 80.44 23.27L80.44 23.27L80.47 23.30Q80.58 20.44 81.95 18.84L81.99 18.88L81.96 18.85Q84.44 16.73 89.31 16.53L89.29 16.51L92.08 16.56L92.08 16.56Q95.19 16.47 98.62 16.89L98.45 16.72L98.47 16.75Q102.30 17.30 103.25 20.54L103.31 20.59L103.29 20.57Q102.16 21.39 100.07 23.22ZM101.58 25.53L101.63 25.46L101.65 25.48Q102.93 24.48 104.79 22.50L104.74 22.44L104.69 22.39Q104.41 21.47 103.42 19.76L103.44 19.77L103.50 19.83Q102.29 17.13 98.48 16.49L98.36 16.37L98.44 16.45Q96.41 16.43 92.10 16.13L92.05 16.07L89.31 16.15L89.31 16.15Q84.15 16.36 81.56 18.34L81.56 18.33L81.48 18.25Q80.16 19.94 80.05 23.03L80.16 23.14L80.16 23.14Q80.04 22.57 80.27 28.05L80.44 28.21L80.26 28.04Q80.44 29.55 80.51 32.29L80.39 32.17L80.44 32.22Q80.56 36.59 82.31 38.54L82.46 38.69L82.39 38.62Q82.70 39.39 83.57 40.26L83.57 40.26L83.65 40.34Q86.60 42.26 92.12 42.60L91.95 42.44L94.85 42.63L95.02 42.80Q96.58 42.87 98.60 42.76L98.52 42.68L98.52 42.69Q99.99 42.62 102.08 42.09L102.15 42.16L102.10 42.11Q103.94 41.51 103.90 39.19L103.96 39.25L103.90 39.19Q104.07 38.10 103.00 35.33L102.86 35.18L102.82 35.14Q102.67 34.39 102.14 33.59L102.05 33.50L102.04 33.48Q102.74 33.61 103.92 33.80L103.88 33.77L103.87 33.75Q103.67 30.24 103.70 29.55L103.67 29.53L103.62 29.47Q103.17 29.40 102.76 29.37L102.85 29.46L102.76 29.37Q102.49 29.45 102.11 29.52L102.11 29.52L102.04 29.45Q102.04 28.35 102.12 27.28L102.15 27.32L102.06 27.23Q95.78 27.72 89.49 27.60L89.47 27.58L89.49 27.60Q89.60 28.58 89.60 29.49L89.58 29.48L89.67 31.32L89.53 31.18Q90.08 31.35 90.50 31.31L90.53 31.34L90.47 31.28Q90.83 31.22 91.29 31.22L91.28 31.21L91.29 31.22Q91.20 31.59 91.24 32.09L91.32 32.17L91.35 32.20Q91.34 32.65 91.31 33.14L91.30 33.14L91.30 33.14Q92.26 33.03 93.28 32.99L93.45 33.16L93.33 33.04Q94.29 32.97 95.32 33.01L95.41 33.10L95.38 33.07Q96.47 33.36 97.34 33.74L97.30 33.70L97.39 33.82L97.40 33.84Q97.46 35.27 95.79 36.18L95.83 36.22L95.77 36.17Q94.14 37.12 92.43 37.12L92.44 37.13L92.46 37.16Q88.57 37.11 86.14 35.36L86.10 35.33L86.12 35.35Q85.16 33.32 85.31 30.77L85.35 30.81L85.41 30.87Q85.73 26.09 87.58 24.09L87.59 24.10L87.53 24.04Q89.39 22.06 94.07 21.75L94.09 21.77L93.97 21.65Q97.61 21.40 99.55 23.19L99.66 23.30L99.71 23.35Q99.66 23.34 99.77 23.53L99.90 23.66L100.01 23.65L99.87 23.51Q100.53 24.28 101.10 25.39L101.24 25.53L101.53 25.48Z"/><path fill="#7b56eb" d="M64.51 40.20L64.45 40.15L62.19 33.43L62.10 33.34Q57.67 20.69 51.73 14.29L51.83 14.39L51.80 14.36Q53.80 15.41 56.38 16.02L56.43 16.06L56.41 16.04Q61.58 22.35 65.92 35.10L65.77 34.96L65.94 35.13Q68.87 26.90 69.56 25.30L69.58 25.33L69.58 25.33Q72.00 19.76 74.82 16.44L74.85 16.47L74.82 16.45Q76.81 16.00 79.44 15.12L79.55 15.23L79.54 15.22Q74.93 19.79 71.89 27.02L71.89 27.03L71.84 26.97Q70.43 30.63 66.73 40.14L66.82 40.23L66.82 40.23Q66.30 40.28 65.72 40.24L65.64 40.16L65.58 40.10Q65.07 40.16 64.50 40.19ZM69.50 42.61L69.47 42.58L69.47 42.57Q72.29 32.61 73.85 28.57L73.89 28.61L73.93 28.65Q76.89 20.91 81.30 16.04L81.25 15.99L81.35 16.08Q80.21 16.36 78.12 17.08L78.12 17.08L79.28 15.77L79.21 15.69Q79.90 15.13 80.51 14.48L80.44 14.41L80.50 14.47Q77.73 15.51 74.73 16.08L74.65 16.01L74.67 16.02Q70.21 21.27 66.32 32.73L66.48 32.89L66.34 32.75Q62.78 22.72 59.59 18.34L59.50 18.26L59.57 18.32Q59.26 18.32 58.39 18.17L58.30 18.08L58.19 17.97Q58.03 17.66 56.43 15.60L56.48 15.66L56.49 15.66Q53.40 14.82 50.70 13.41L50.70 13.41L50.84 13.55Q57.44 20.61 61.81 33.40L61.70 33.28L61.78 33.36Q63.07 37.09 64.25 40.67L64.23 40.65L64.23 40.65Q64.52 40.64 65.36 40.52L65.39 40.56L65.41 40.58Q65.78 41.28 66.46 42.62L66.39 42.54L66.38 42.54Q67.30 42.54 68.02 42.61L68.00 42.59L68.03 42.63Q68.69 42.56 69.46 42.56Z"/></svg>