<svg xmlns="http://www.w3.org/2000/svg" width="150" height="50" viewBox="0,0,150,50"><rect width="100%" height="100%" fill="white"/><path d="M20 14 C89 12,69 36,148 15" stroke="#e278e2" fill="none"/><path fill="#8eeb8e" d="M68.16 27.14L68.28 27.26L68.11 27.09Q69.05 27.23 70.46 27.08L70.43 27.05L70.47 27.09Q70.31 27.62 70.31 28.26L70.40 28.35L70.44 29.65L70.39 29.60Q69.55 29.60 68.71 29.68L68.64 29.61L68.62 29.58Q67.79 29.63 66.95 29.59L66.91 29.55L67.10 29.74Q64.08 35.74 60.65 40.34L60.69 40.39L60.69 40.38Q58.11 40.97 56.82 41.58L56.95 41.70L56.91 41.67Q61.08 36.01 64.12 29.73L64.11 29.72L61.41 29.64L61.54 29.78Q61.50 28.40 61.38 27.07L61.41 27.10L61.33 27.01Q63.15 27.08 65.20 27.08L65.29 27.16L67.10 23.38L67.10 23.38Q68.26 21.65 69.48 20.05L69.44 20.01L69.37 19.94Q67.79 20.07 66.19 20.07L66.28 20.16L66.34 20.22Q60.12 20.09 56.35 17.89L56.42 17.96L55.82 16.29L55.82 16.29Q55.32 15.30 54.94 14.42L55.08 14.56L54.93 14.41Q59.33 17.10 65.04 17.33L65.00 17.28L65.16 17.44Q70.21 17.58 75.35 15.60L75.34 15.59L75.25 15.50Q75.15 16.01 74.65 16.89L74.66 16.89L74.74 16.97Q70.97 21.58 68.12 27.10ZM76.27 18.27L76.24 18.25L77.19 16.18L77.33 16.33Q76.31 16.75 74.63 17.48L74.69 17.53L74.81 17.15L74.79 17.14Q74.92 17.00 75.03 16.89L75.07 16.92L75.00 16.85Q75.38 16.16 76.10 14.83L76.10 14.83L76.14 14.87Q70.87 17.21 65.12 16.98L65.12 16.98L65.01 16.87Q59.10 16.71 54.34 13.75L54.24 13.65L54.33 13.74Q55.34 15.58 56.18 18.25L56.10 18.16L56.20 18.27Q57.35 18.96 58.14 19.26L58.13 19.24L58.08 19.20Q58.26 19.57 58.72 21.43L58.72 21.44L58.69 21.40Q61.88 22.69 67.40 22.54L67.28 22.41L67.26 22.40Q67.01 23.03 65.03 26.80L65.02 26.78L65.06 26.83Q62.99 26.81 61.01 26.62L61.06 26.67L60.95 26.55Q61.09 27.46 61.09 28.34L61.14 28.39L61.11 30.07L62.75 30.03L62.68 31.37L62.85 31.54Q58.81 38.81 56.03 42.39L56.08 42.43L56.13 42.48Q57.65 41.64 59.28 41.15L59.31 41.18L59.31 41.18Q58.54 42.00 57.17 43.72L57.35 43.90L57.27 43.82Q60.42 42.70 62.85 42.47L62.82 42.44L62.87 42.48Q65.85 38.77 68.97 31.99L68.88 31.89L72.29 32.08L72.41 32.19Q72.16 31.11 72.16 30.19L72.27 30.30L72.27 28.51L72.34 28.59Q72.06 28.57 71.51 28.61L71.53 28.63L71.40 28.50Q70.91 28.60 70.64 28.60L70.63 28.59L70.57 28.52Q70.59 28.43 70.63 28.28L70.64 28.29L70.73 28.12L70.59 27.97Q73.19 22.93 76.28 18.28Z"/><path fill="#5ede7e" d="M17.43 21.54L17.46 21.56L17.49 21.59Q15.72 20.13 14.08 19.75L14.03 19.69L14.05 19.71Q13.04 19.54 10.26 19.50L10.31 19.55L10.16 19.41Q5.00 19.38 2.94 21.40L3.02 21.48L3.05 21.51Q1.46 23.11 1.58 26.81L1.51 26.74L1.53 26.76Q1.67 30.56 1.82 31.51L1.73 31.42L1.78 31.46Q2.78 37.49 10.51 37.49L10.64 37.62L10.62 37.60Q15.20 37.50 17.29 35.10L17.25 35.05L17.29 35.10Q19.20 32.93 19.43 28.17L19.45 28.20L19.42 28.17Q19.63 23.32 17.31 21.41ZM10.54 40.53L10.46 40.45L10.44 40.43Q3.94 40.60 0.98 38.24L1.02 38.28L0.91 38.17Q-0.97 36.21-1.09 31.15L-1.20 31.04L-1.10 31.13Q-1.13 30.61-1.28 27.34L-1.45 27.17L-1.36 27.26Q-1.58 24.56-1.54 23.50L-1.48 23.56L-1.58 23.46Q-1.37 20.66 0.04 18.95L0.01 18.92L0.10 19.01Q2.66 16.74 7.53 16.58L7.59 16.64L7.47 16.53Q9.23 16.46 10.11 16.49L10.22 16.61L10.21 16.60Q20.19 16.71 21.94 21.05L21.96 21.08L21.87 20.98Q22.59 22.92 22.44 25.67L22.46 25.68L22.52 25.75Q22.53 27.47 22.33 30.74L22.34 30.75L22.33 30.73Q22.09 33.50 21.18 35.56L21.19 35.57L21.10 35.49Q19.11 40.27 10.47 40.46ZM22.89 40.50L22.91 40.53L22.83 40.45Q24.23 38.69 24.34 35.60L24.46 35.72L24.38 35.64Q24.41 34.56 24.37 32.97L24.37 32.96L24.37 32.96Q24.42 32.29 24.38 30.46L24.34 30.42L24.41 30.49Q24.25 23.25 22.31 20.78L22.21 20.68L22.28 20.75Q21.95 19.81 20.84 18.70L20.88 18.74L20.81 18.67Q17.56 16.22 10.10 16.07L10.06 16.03L10.08 16.05Q2.80 16.04-0.25 18.63L-0.37 18.51L-0.45 18.43Q-1.82 20.36-1.82 23.30L-1.88 23.23L-1.90 23.22Q-1.85 24.56-1.70 25.89L-1.75 25.84L-1.60 25.99Q-1.58 27.07-1.55 28.52L-1.59 28.48L-1.67 28.40Q-1.58 32.29-1.43 33.47L-1.29 33.61L-1.36 33.54Q-1.02 36.43 0.31 38.22L0.43 38.34L0.46 38.37Q0.76 39.51 1.83 40.27L1.99 40.43L1.93 40.37Q5.13 42.66 12.90 42.85L12.89 42.84L12.97 42.92Q20.22 43.05 22.88 40.50ZM19.11 28.12L19.23 28.24L19.15 28.16Q19.02 32.79 17.12 34.89L16.96 34.73L17.11 34.88Q15.09 37.19 10.63 37.23L10.47 37.07L10.61 37.21Q6.10 37.08 3.97 35.18L4.05 35.26L4.09 35.30Q3.26 33.56 3.34 30.66L3.41 30.74L3.47 30.79Q3.45 26.06 5.47 23.89L5.60 24.02L5.51 23.92Q7.54 21.77 12.14 21.77L12.23 21.85L12.15 21.77Q16.37 21.81 18.47 23.68L18.52 23.72L18.50 23.70Q19.30 25.42 19.18 28.20Z"/><path fill="#92e7e7" d="M119.35 18.44L119.32 18.42L119.43 18.52Q118.73 18.92 118.57 19.72L118.46 19.61L118.52 24.81L118.54 24.83Q119.59 24.74 121.80 24.47L121.74 24.41L121.86 24.53Q121.84 24.96 121.80 25.80L121.72 25.72L121.75 25.75Q121.73 26.53 121.73 26.99L121.76 27.02L120.07 27.01L120.17 27.11Q119.29 27.10 118.41 27.10L118.58 27.27L118.50 27.18Q118.50 31.38 118.43 39.75L118.35 39.67L118.42 39.74Q116.22 39.83 114.73 40.51L114.69 40.47L114.78 40.56Q115.76 34.31 115.65 27.08L115.76 27.19L115.65 27.07Q115.12 27.15 113.82 26.89L113.66 26.73L113.74 26.80Q113.67 25.74 113.48 23.80L113.54 23.86L113.46 23.78Q114.65 24.36 115.60 24.55L115.68 24.63L115.55 24.51Q115.54 23.88 115.23 21.41L115.33 21.51L115.21 21.39Q114.98 19.33 114.98 18.37L115.06 18.46L115.06 18.45Q114.96 16.68 116.37 16.11L116.43 16.17L116.46 16.20Q117.25 15.81 122.08 14.97L122.14 15.03L122.02 14.91Q122.91 14.85 123.75 14.73L123.81 14.80L123.83 14.82Q123.53 15.50 123.37 16.38L123.26 16.26L123.14 18.01L123.14 18.01Q122.42 17.79 121.93 17.90L121.90 17.87L121.88 17.85Q121.32 17.90 119.42 18.51ZM124.87 19.66L124.79 19.58L124.72 19.51Q125.13 17.37 125.74 14.82L125.70 14.78L125.68 14.76Q125.11 15.14 123.81 15.75L123.81 15.75L124.22 14.06L124.16 14.01Q123.02 14.27 120.55 14.81L120.64 14.89L120.57 14.83Q119.29 14.81 116.10 15.72L116.23 15.86L116.25 15.88Q114.55 16.16 114.55 18.03L114.64 18.11L114.58 18.05Q114.60 18.37 114.67 18.71L114.71 18.75L114.63 18.67Q114.81 19.95 114.92 21.29L114.98 21.34L115.19 24.03L115.29 24.13Q113.94 23.77 113.29 23.31L113.17 23.19L113.10 23.12Q113.40 24.25 113.44 25.28L113.34 25.19L113.52 27.24L113.52 27.23Q114.16 27.34 114.96 27.41L114.88 27.34L114.98 29.53L115.26 29.43L115.40 29.57Q115.16 35.57 114.17 41.02L114.18 41.02L114.23 41.08Q115.27 40.63 116.45 40.36L116.50 40.41L116.25 42.41L116.16 42.32Q117.47 42.11 118.77 42.07L118.78 42.09L118.77 42.07Q120.01 42.06 121.27 42.33L121.20 42.26L121.27 42.33Q120.49 37.40 120.49 29.45L120.38 29.34L120.44 29.39Q121.49 29.34 123.58 29.41L123.53 29.36L123.52 27.49L123.54 27.51Q123.58 26.59 123.61 25.64L123.69 25.71L123.71 25.74Q123.24 25.84 122.17 26.10L122.07 26.00L122.09 26.01Q122.11 25.35 122.22 24.02L122.14 23.94L122.15 23.95Q121.29 24.15 120.49 24.23L120.61 24.35L120.64 24.38Q120.61 22.94 120.72 21.53L120.65 21.45L120.73 21.53Q120.88 20.88 121.41 20.54L121.35 20.48L121.42 20.55Q122.37 19.87 123.19 19.79L123.17 19.77L123.18 19.78Q123.94 19.65 124.78 19.57Z"/><path fill="#6383e2" d="M34.85 29.61L34.81 29.57L34.80 29.56Q34.97 34.00 34.25 38.15L34.24 38.14L34.26 38.16Q36.48 37.56 39.56 37.45L39.46 37.35L39.47 37.35Q40.85 37.59 41.92 36.59L41.82 36.49L41.84 36.51Q42.89 35.48 42.89 34.15L42.88 34.14L42.95 34.21Q42.88 33.84 42.84 33.57L42.82 33.55L42.88 33.60Q42.72 30.66 40.47 29.83L40.49 29.85L40.50 29.86Q39.66 29.47 38.97 29.55L39.02 29.60L39.14 29.71Q38.08 29.65 37.05 29.69L37.04 29.67L36.93 29.56Q35.98 29.72 34.95 29.72ZM33.64 19.19L33.74 19.29L33.64 19.19Q34.61 22.60 34.88 26.98L34.83 26.93L34.74 26.83Q36.25 27.02 38.92 27.06L38.93 27.07L38.90 27.04Q41.78 27.03 42.12 23.49L42.22 23.58L42.15 23.51Q42.40 21.63 40.99 20.79L40.88 20.69L40.89 20.69Q40.03 20.22 35.62 19.57L35.71 19.66L35.66 19.61Q34.61 19.48 33.70 19.25ZM30.01 42.10L30.00 42.08L29.91 42.00Q32.55 35.50 32.28 28.11L32.26 28.08L32.18 28.01Q31.88 20.71 28.95 14.24L28.93 14.21L28.96 14.24Q32.74 16.77 38.97 17.02L38.99 17.04L39.03 17.08Q45.30 17.37 45.64 20.26L45.54 20.16L45.58 20.20Q45.87 22.94 44.47 25.60L44.52 25.66L44.50 25.64Q43.84 27.22 42.24 27.91L42.21 27.87L42.22 27.89Q45.79 28.48 46.02 33.85L46.11 33.95L46.06 33.89Q46.17 35.03 46.09 36.44L46.00 36.34L46.00 36.34Q46.09 37.80 45.15 38.74L44.98 38.56L45.12 38.71Q44.04 39.49 42.71 39.64L42.78 39.71L42.78 39.71Q41.37 39.87 40.31 39.87L40.37 39.93L40.24 39.80Q34.52 39.79 29.99 42.07ZM42.78 42.38L42.87 42.47L42.80 42.40Q43.79 42.51 45.66 42.63L45.60 42.57L45.52 42.50Q47.03 42.63 48.13 41.75L48.16 41.78L48.12 41.74Q48.99 40.90 48.88 39.34L48.82 39.28L48.72 39.18Q48.70 38.29 47.98 34.82L48.07 34.92L48.08 34.92Q47.29 31.58 45.42 30.10L45.44 30.11L44.99 29.24L45.00 29.25Q46.64 27.81 47.21 24.05L47.20 24.03L47.36 24.19Q47.38 22.92 47.31 21.51L47.46 21.66L47.30 21.51Q47.35 20.30 46.25 19.46L46.23 19.45L46.17 19.39Q45.97 19.30 45.85 19.26L45.76 19.17L45.71 19.12Q45.54 18.68 44.71 17.88L44.74 17.92L44.71 17.89Q43.19 16.83 38.97 16.64L39.05 16.72L38.87 16.54Q32.35 16.38 28.36 13.49L28.26 13.39L28.34 13.47Q31.65 20.52 31.96 28.05L31.88 27.98L31.99 28.09Q32.19 35.79 29.38 42.72L29.37 42.71L31.42 41.75L31.40 41.73Q31.02 42.87 30.52 44.01L30.55 44.04L30.62 44.11Q34.95 42.28 39.97 42.28L39.93 42.23L39.86 42.16Q41.29 42.18 42.74 42.33ZM40.77 31.95L40.58 31.76L40.72 31.90Q41.35 31.73 42.26 32.19L42.30 32.23L42.24 32.16Q42.47 32.62 42.62 33.69L42.61 33.68L42.63 33.70Q42.80 35.05 41.87 36.10L41.76 35.99L41.93 36.16Q40.91 37.12 39.50 37.00L39.52 37.03L37.94 37.04L37.96 37.07Q37.30 37.20 36.58 37.32L36.47 37.21L36.54 37.28Q36.78 35.39 36.86 31.92L36.84 31.91L36.84 31.91Q37.45 31.79 38.70 31.75L38.73 31.77L38.85 31.90Q39.99 31.75 40.60 31.79ZM39.64 22.26L39.66 22.28L40.08 22.32L40.02 22.26Q40.33 22.34 40.52 22.38L40.41 22.27L40.73 22.20L41.17 22.45L41.82 22.58L41.77 22.52Q41.87 22.77 41.87 23.08L41.91 23.12L41.76 23.50L41.86 23.60Q41.91 24.91 41.03 25.84L41.01 25.82L40.95 25.76Q40.06 26.68 38.84 26.68L38.98 26.81L38.97 26.81Q37.92 26.78 37.92 26.78L37.88 26.74L37.87 26.73Q36.45 26.61 36.79 26.61L36.95 26.77L36.91 26.72Q36.92 25.25 36.61 22.20L36.59 22.18L36.54 22.13Q38.13 22.27 39.65 22.27Z"/><path fill="#5656eb" d="M52.47 40.06L52.45 40.04L50.52 40.39L50.39 40.27Q49.91 40.24 48.94 40.30L48.98 40.34L49.06 40.41Q48.03 40.42 47.53 40.42L47.58 40.46L47.49 40.37Q45.98 40.50 44.95 39.66L44.94 39.64L44.84 39.55Q45.66 38.47 47.30 36.33L47.39 36.42L47.23 36.27Q48.65 38.00 50.86 37.77L50.79 37.69L50.71 37.62Q51.71 37.59 52.36 36.94L52.28 36.86L52.40 36.98Q53.00 36.29 52.89 35.42L52.94 35.47L52.86 35.38Q52.77 30.81 52.85 26.24L52.83 26.22L52.81 26.20Q52.80 21.54 53.33 16.93L53.40 17.00L53.49 17.10Q55.39 16.86 57.52 15.83L57.54 15.85L57.46 15.77Q55.58 22.50 55.58 29.73L55.60 29.76L55.51 29.66Q55.55 33.24 56.01 36.75L56.15 36.88L55.97 36.71Q56.21 37.21 56.21 37.55L56.23 37.57L56.10 37.45Q56.15 38.07 55.92 38.60L55.95 38.63L55.92 38.60Q55.42 39.92 52.60 40.19ZM57.47 42.97L57.47 42.97L57.89 43.05L58.15 42.88L58.31 42.67L58.43 42.78Q58.64 42.42 58.71 42.31L58.75 42.34L58.80 42.39Q58.89 41.11 58.63 40.12L58.60 40.10L58.61 40.11Q57.29 34.33 57.55 27.97L57.52 27.94L57.52 27.94Q57.81 21.87 59.60 15.97L59.54 15.91L59.69 16.06Q58.76 16.66 57.51 17.38L57.53 17.41L57.42 17.29Q57.72 16.64 58.14 15.12L58.07 15.05L58.07 15.05Q55.61 16.44 52.94 16.74L52.88 16.67L52.84 16.63Q52.55 21.11 52.47 26.05L52.52 26.10L52.50 26.08Q52.43 31.98 52.50 35.41L52.48 35.39L52.57 35.48Q52.56 37.18 50.81 37.33L50.80 37.33L50.72 37.25Q49.04 37.39 47.36 35.75L47.41 35.80L47.36 35.75Q45.41 38.37 44.46 39.93L44.37 39.84L44.35 39.82Q45.04 40.51 46.07 40.74L45.98 40.65L46.12 40.79Q46.01 40.90 45.74 41.13L45.77 41.16L45.63 41.02Q47.10 42.00 49.08 42.27L49.17 42.36L49.22 42.40Q49.47 42.31 52.76 42.62L52.73 42.58L52.85 42.71Q56.19 43.06 57.56 43.06Z"/><path fill="#6fe68c" d="M104.83 41.11L104.94 41.22L103.13 41.12L103.09 41.08Q99.84 41.23 98.89 39.09L98.72 38.93L98.74 38.95Q100.04 38.04 101.49 36.94L101.41 36.85L101.35 36.80Q102.10 39.15 104.96 38.99L104.91 38.95L104.90 38.94Q105.69 38.89 106.72 38.66L106.63 38.58L106.71 38.65Q107.51 38.01 107.44 37.06L107.48 37.10L107.45 37.07Q107.50 36.10 105.71 35.41L105.70 35.39L101.91 33.89L101.87 33.86Q99.49 32.46 99.14 28.92L99.27 29.05L99.12 28.89Q98.96 26.79 101.13 26.22L101.09 26.18L101.25 26.34Q102.19 26.10 105.16 26.10L105.02 25.96L105.17 26.11Q109.97 26.04 110.88 28.55L110.82 28.49L110.89 28.55Q110.32 29.17 109.60 29.63L109.55 29.58L107.99 30.38L108.19 30.58Q107.54 28.52 104.31 28.29L104.31 28.30L104.44 28.43Q103.87 28.47 102.84 28.89L102.84 28.88L102.75 28.79Q102.19 29.15 102.19 30.25L102.16 30.22L102.21 30.27Q102.52 31.31 104.35 31.99L104.27 31.92L104.40 32.04Q105.35 32.31 108.01 33.41L108.09 33.49L108.09 33.49Q110.00 34.41 110.19 36.96L110.14 36.91L110.12 36.89Q110.18 37.52 110.10 38.51L110.06 38.46L110.09 38.49Q109.99 39.31 109.42 39.96L109.42 39.96L109.58 40.12Q107.83 41.07 104.79 41.07ZM109.59 43.70L109.61 43.72L109.61 43.73Q110.56 43.80 111.93 43.49L111.92 43.48L111.80 43.37Q112.91 42.73 112.72 41.51L112.72 41.50L112.82 41.61Q112.61 40.90 112.30 39.30L112.44 39.43L112.34 39.34Q111.86 36.46 110.07 35.24L110.12 35.29L110.11 35.28Q109.48 33.77 108.22 33.04L108.28 33.10L108.31 33.14Q106.96 32.62 104.49 31.67L104.61 31.79L104.49 31.68Q104.61 31.18 104.87 31.07L104.93 31.13L104.94 31.14Q105.62 30.75 106.26 30.71L106.14 30.59L106.28 30.72Q107.05 30.66 107.81 30.92L107.72 30.83L107.77 30.96L107.81 30.88L108.13 31.01L108.22 31.14L108.20 31.12Q109.25 31.56 109.44 32.81L109.38 32.76L109.51 32.89Q110.69 31.98 112.60 30.30L112.67 30.37L112.62 30.32Q112.27 29.52 111.28 28.34L111.32 28.38L111.26 28.32Q110.19 25.69 105.09 25.57L104.99 25.48L105.03 25.52Q101.96 25.57 99.98 26.14L99.87 26.03L99.86 26.02Q98.55 26.69 98.78 28.78L98.74 28.74L98.82 28.83Q98.90 30.04 99.81 32.13L99.84 32.17L99.75 32.08Q100.25 33.15 101.28 33.87L101.44 34.03L101.39 33.99Q102.11 35.50 103.40 36.18L103.37 36.15L103.29 36.07Q104.26 36.36 105.21 36.74L105.26 36.78L107.08 37.46L107.11 37.49Q106.80 38.63 104.86 38.52L104.87 38.53L104.84 38.49Q104.35 38.50 103.13 38.19L103.23 38.30L103.18 38.09L102.97 38.11L103.07 38.21Q102.29 37.93 101.64 36.44L101.45 36.25L101.56 36.36Q99.32 37.81 98.21 38.95L98.34 39.08L98.32 39.05Q98.61 39.96 99.64 40.76L99.66 40.78L99.51 40.94L99.37 40.79Q100.85 42.95 105.07 43.34L105.12 43.38L105.07 43.34Q106.31 43.43 109.54 43.66Z"/><path fill="#e34e99" d="M24.02 29.21L24.05 29.24L24.03 29.22Q22.16 29.22 20.94 30.55L20.91 30.52L20.88 30.49Q19.73 31.88 19.57 33.79L19.47 33.69L19.57 33.78Q19.29 35.83 20.51 36.84L20.52 36.85L20.57 36.90Q21.89 38.00 24.02 37.93L23.99 37.90L23.88 37.79Q26.22 37.66 27.18 36.71L27.13 36.67L27.24 36.78Q28.18 35.24 28.07 33.41L28.07 33.41L28.03 33.37Q28.03 31.62 26.94 30.42L26.96 30.44L26.87 30.35Q25.90 29.26 24.07 29.26ZM23.96 19.75L23.93 19.72L23.91 19.70Q22.54 19.63 21.21 20.12L21.22 20.13L21.14 20.05Q19.99 20.99 20.21 22.85L20.19 22.84L20.17 22.81Q20.63 26.51 23.98 26.51L23.95 26.47L23.97 26.50Q25.65 26.81 26.64 25.66L26.53 25.56L26.50 25.53Q27.49 24.38 27.53 22.82L27.48 22.77L27.55 22.84Q27.57 21.04 26.85 20.43L26.88 20.46L26.95 20.53Q25.17 19.59 23.87 19.66ZM23.69 40.30L23.70 40.31L20.71 40.36L20.65 40.31Q19.13 40.31 17.80 39.44L17.78 39.42L17.77 39.40Q16.36 38.22 16.51 35.37L16.59 35.45L16.48 35.34Q16.94 28.49 20.56 27.50L20.65 27.60L20.68 27.62Q18.44 26.75 17.11 21.38L16.95 21.23L16.94 21.22Q16.75 19.96 16.82 19.16L16.84 19.18L16.72 19.06Q17.02 16.92 20.71 16.88L20.70 16.86L20.86 17.03Q24.95 16.82 26.40 17.01L26.34 16.95L26.52 17.13Q30.25 17.55 30.71 19.57L30.79 19.65L30.68 19.54Q30.95 20.30 30.95 20.68L30.87 20.61L30.85 20.58Q30.92 21.34 30.73 21.95L30.59 21.81L30.58 21.80Q30.14 26.19 27.21 27.71L27.21 27.72L27.10 27.61Q30.62 28.42 31.11 33.72L31.08 33.68L31.08 33.68Q31.09 33.85 31.13 35.14L31.19 35.20L31.20 35.21Q31.23 37.91 29.63 38.97L29.58 38.92L29.56 38.90Q28.25 39.84 23.68 40.30ZM26.02 42.67L25.94 42.59L29.24 42.62L29.38 42.76Q31.04 42.78 32.57 42.06L32.51 42.01L32.55 42.04Q33.80 41.43 33.88 39.57L33.83 39.52L33.74 39.43Q33.84 38.39 33.46 36.45L33.42 36.40L33.34 36.33Q32.59 31.84 30.49 29.97L30.44 29.92L30.32 29.61L30.02 29.24L29.98 29.08L29.92 29.02Q31.62 27.71 32.53 23.56L32.42 23.45L32.53 23.56Q32.39 23.04 32.47 22.20L32.58 22.31L32.48 22.21Q32.54 21.51 32.46 20.90L32.56 21.00L32.44 20.88Q32.39 19.54 31.21 19.04L31.14 18.97L31.33 19.12L30.96 18.83L30.94 18.81Q30.85 18.26 29.67 17.46L29.59 17.39L29.69 17.45L29.67 17.43Q27.66 16.71 23.58 16.52L23.57 16.50L23.54 16.47Q21.92 16.30 20.55 16.41L20.56 16.43L20.72 16.58Q19.89 16.59 18.59 16.74L18.49 16.64L18.55 16.70Q16.54 17.01 16.31 18.65L16.33 18.67L16.32 18.66Q16.26 19.13 16.30 19.93L16.48 20.11L16.34 19.97Q16.54 20.59 17.11 22.95L17.13 22.97L16.99 22.82Q17.82 26.09 19.57 27.42L19.61 27.46L19.62 27.47L19.73 27.59Q16.88 28.81 16.35 33.98L16.37 34.01L16.42 34.06Q16.09 36.13 16.09 37.05L16.24 37.20L16.11 37.06Q16.29 38.96 17.47 39.87L17.50 39.89L17.41 39.81Q17.56 39.92 17.83 40.11L17.78 40.06L17.84 40.13Q18.87 42.41 25.99 42.64ZM25.72 31.64L25.62 31.54L25.64 31.56Q26.60 31.53 27.48 31.99L27.38 31.88L27.38 31.89Q27.84 32.95 27.80 33.48L27.82 33.50L27.67 33.36Q27.73 33.68 27.73 33.98L27.89 34.14L27.71 33.97Q27.82 36.43 25.53 37.27L25.52 37.26L25.56 37.30Q24.76 37.60 23.96 37.48L24.02 37.55L24.02 37.55Q22.75 37.50 21.61 37.04L21.61 37.05L21.69 37.13Q21.42 36.47 21.49 35.48L21.46 35.45L21.52 35.51Q21.60 33.84 22.80 32.62L22.79 32.60L22.82 32.64Q24.08 31.48 25.68 31.59ZM25.90 22.11L25.81 22.01L25.88 22.09Q26.62 21.92 27.16 22.07L27.24 22.15L27.11 22.82L27.23 22.94Q27.22 24.34 26.30 25.34L26.21 25.25L26.35 25.39Q25.34 26.31 23.97 26.12L23.95 26.10L23.96 26.11Q23.07 26.20 22.65 25.97L22.55 25.88L22.52 25.84Q22.57 25.66 22.45 24.98L22.44 24.97L22.40 24.93Q22.23 23.61 23.45 22.77L23.49 22.81L23.43 22.76Q24.42 22.00 25.83 22.03Z"/><path fill="#e287cb" d="M71.13 41.12L71.14 41.13L71.05 41.04Q74.35 36.92 81.05 29.00L81.06 29.01L81.01 28.95Q75.04 29.11 71.27 27.74L71.37 27.84L71.40 27.88Q70.63 26.34 69.87 24.93L69.80 24.86L69.93 25.00Q73.88 26.36 78.34 26.40L78.49 26.55L78.50 26.56Q82.89 26.54 87.08 25.47L87.11 25.50L87.01 25.40Q86.56 26.01 86.29 26.55L86.39 26.65L86.32 26.58Q83.85 28.87 81.03 32.48L80.97 32.42L76.22 38.78L76.19 38.75Q78.48 38.60 80.72 38.68L80.55 38.51L80.58 38.54Q82.86 38.68 85.10 39.06L85.06 39.02L85.04 39.00Q85.23 39.65 85.95 41.66L86.00 41.71L85.91 41.62Q82.09 40.70 78.10 40.81L78.17 40.88L78.23 40.95Q74.31 41.10 70.65 42.28L70.57 42.20L70.52 42.15Q70.71 42.11 71.17 41.16ZM70.00 42.80L69.97 42.77L70.07 42.87Q70.85 42.55 72.45 42.13L72.42 42.11L72.47 42.16Q72.24 42.38 71.82 42.80L71.67 42.65L71.63 42.61Q71.42 43.19 70.81 44.34L70.95 44.48L70.89 44.42Q75.62 43.10 80.61 43.25L80.64 43.28L80.53 43.17Q85.51 43.36 90.08 45.22L90.02 45.17L90.16 45.30Q88.58 43.30 87.67 41.25L87.72 41.30L87.75 41.33Q87.04 41.08 85.97 40.85L85.88 40.75L86.01 40.89Q85.83 40.17 85.45 38.73L85.44 38.71L85.29 38.56Q83.73 38.23 80.15 38.11L80.24 38.20L80.29 38.25Q82.60 34.85 87.62 28.49L87.70 28.56L87.73 28.59Q87.94 27.82 88.62 26.48L88.59 26.45L86.30 27.21L86.33 27.23Q86.43 27.18 86.58 27.07L86.59 27.08L86.73 26.84L86.69 26.79Q87.19 25.77 87.76 24.82L87.72 24.78L87.67 24.73Q83.06 26.13 78.34 26.05L78.40 26.11L78.44 26.16Q73.59 26.03 69.10 24.20L69.17 24.28L69.03 24.13Q70.36 26.15 71.16 28.21L70.98 28.03L71.13 28.17Q71.85 28.37 72.92 28.63L73.01 28.72L72.89 28.61Q73.16 29.36 73.46 30.81L73.57 30.92L73.46 30.81Q75.05 31.07 78.37 31.22L78.43 31.29L78.32 31.18Q75.97 34.54 70.79 40.97L70.72 40.90L70.75 40.93Q70.56 41.58 69.99 42.80Z"/><path fill="#4e4ed4" d="M130.73 28.88L130.72 28.87L130.75 28.89Q128.23 28.93 127.20 30.11L127.24 30.14L127.13 30.03Q126.18 31.29 126.18 33.92L126.27 34.01L126.25 33.98Q126.26 39.10 130.87 38.91L130.71 38.75L130.76 38.80Q132.89 39.03 134.25 37.47L134.19 37.42L134.17 37.40Q135.52 35.83 135.29 33.78L135.27 33.76L135.32 33.81Q135.27 31.20 134.39 30.18L134.57 30.35L134.54 30.32Q132.94 28.87 130.73 28.87ZM135.87 38.78L135.82 38.72L135.78 38.68Q134.58 41.14 129.90 41.14L130.00 41.24L128.49 41.18L128.59 41.27Q126.13 41.18 125.03 40.04L125.11 40.12L124.97 39.98Q123.95 38.96 123.69 36.57L123.68 36.56L123.69 36.57Q123.59 35.13 123.51 33.35L123.45 33.28L123.53 33.36Q123.38 32.26 123.23 30.32L123.23 30.32L123.32 30.42Q123.11 26.01 128.29 26.01L128.35 26.08L129.88 26.05L129.96 26.12Q132.90 26.17 134.99 27.47L134.91 27.38L134.89 27.36Q135.76 27.93 136.26 28.61L136.32 28.68L136.23 28.58Q136.46 27.75 136.99 26.11L137.00 26.12L137.00 26.12Q138.33 26.04 140.65 25.43L140.66 25.44L140.53 25.32Q137.94 29.54 137.94 34.79L137.90 34.75L137.99 34.84Q138.07 38.65 139.44 41.73L139.43 41.72L139.36 41.65Q138.24 41.37 136.34 41.14L136.20 41.01L136.23 41.04Q136.15 40.31 135.84 38.75ZM139.13 43.94L139.18 43.99L141.25 44.42L141.40 44.57Q142.52 44.78 143.51 45.23L143.57 45.29L143.61 45.33Q139.92 40.96 139.92 34.87L139.97 34.91L139.96 34.90Q139.78 30.19 141.91 26.39L141.95 26.42L141.99 26.46Q141.33 26.69 140.00 27.07L140.09 27.15L140.03 27.10Q140.46 26.42 141.34 24.90L141.29 24.85L141.32 24.88Q140.60 24.93 136.60 25.76L136.70 25.86L136.07 27.63L136.18 27.73Q134.27 25.87 129.86 25.64L129.97 25.75L129.83 25.61Q128.79 25.72 126.54 25.87L126.54 25.87L126.64 25.96Q122.89 26.25 123.01 30.29L122.89 30.17L123.07 30.35Q123.00 33.48 123.57 37.93L123.63 37.99L123.61 38.39L123.65 38.43Q123.89 39.40 124.69 40.50L124.65 40.46L124.54 40.35Q124.79 40.60 124.98 40.71L125.00 40.73L125.02 40.76Q125.16 41.12 125.54 41.69L125.67 41.83L125.62 41.77Q126.98 43.25 130.37 43.44L130.41 43.47L130.47 43.54Q132.01 43.56 132.16 43.56L132.25 43.65L133.70 43.53L133.70 43.53Q137.03 43.67 138.25 42.10L138.13 41.98L138.10 41.96Q138.42 42.54 139.03 43.83ZM132.59 31.19L132.55 31.15L132.49 31.09Q133.83 31.10 134.66 31.55L134.75 31.64L134.81 31.69Q135.09 32.48 135.09 33.92L135.06 33.89L135.12 33.95Q135.16 35.70 133.88 37.13L133.93 37.18L133.88 37.12Q132.74 38.69 130.84 38.50L130.87 38.53L130.87 38.53Q129.39 38.50 128.37 38.08L128.34 38.06L128.23 37.94Q128.13 37.21 128.13 35.99L128.20 36.05L128.07 35.93Q128.22 32.42 130.85 31.47L130.81 31.43L130.92 31.54Q131.79 31.19 132.59 31.19Z"/><path fill="#e26ea8" d="M88.68 36.95L88.57 36.84L88.62 36.90Q89.74 37.78 91.15 37.63L91.20 37.68L91.13 37.61Q94.11 37.85 94.76 34.50L94.68 34.42L94.84 34.59Q95.48 31.45 95.48 28.06L95.43 28.02L95.30 25.30L95.37 25.37Q95.29 24.03 94.94 22.77L94.99 22.82L95.13 22.96Q93.79 25.16 91.81 29.92L91.78 29.88L91.79 29.90Q89.80 34.65 88.58 36.86ZM93.72 20.48L93.64 20.41L93.67 20.43Q92.46 19.56 91.12 19.56L91.20 19.64L91.16 19.60Q89.79 19.56 88.68 20.47L88.70 20.49L88.52 20.31Q87.59 21.39 87.40 22.88L87.40 22.88L87.30 22.78Q86.93 24.13 86.90 25.61L87.00 25.72L86.93 25.65Q86.98 25.70 86.98 28.56L86.87 28.45L86.87 28.45Q86.96 30.90 87.42 34.51L87.41 34.51L87.40 34.49Q89.21 29.64 93.59 20.35ZM95.15 39.16L95.27 39.28L95.31 39.32Q93.40 40.07 91.07 40.07L91.13 40.13L89.57 40.21L89.52 40.15Q86.28 40.15 85.14 38.44L85.16 38.46L85.20 38.49Q84.41 36.33 84.33 33.40L84.30 33.37L84.34 33.41Q84.18 31.54 84.11 28.08L84.21 28.19L84.10 28.07Q84.20 27.00 84.05 23.95L84.05 23.94L84.01 23.90Q83.82 21.51 84.12 19.53L84.23 19.63L84.21 19.62Q84.78 16.76 89.12 16.53L89.11 16.53L89.00 16.41Q89.80 16.41 91.13 16.45L91.10 16.42L91.10 16.41Q96.81 16.61 97.87 20.07L97.80 19.99L97.77 19.97Q98.54 22.03 98.50 23.89L98.40 23.79L98.38 23.77Q98.39 28.84 98.31 30.06L98.37 30.12L98.27 30.02Q98.07 33.82 97.77 35.11L97.72 35.07L97.76 35.11Q97.12 38.23 95.22 39.22ZM100.24 39.07L100.21 39.04L100.09 38.92Q100.31 36.13 100.27 34.34L100.31 34.38L100.30 29.84L100.24 29.79Q100.15 26.76 99.62 21.24L99.66 21.28L99.73 21.36Q99.18 19.51 97.89 18.75L97.81 18.67L97.86 18.73Q96.36 16.23 91.18 16.08L91.20 16.09L91.21 16.11Q90.22 15.96 88.89 16.00L88.87 15.98L88.92 16.03Q84.48 16.19 83.98 19.31L83.95 19.28L83.87 19.20Q83.48 21.51 83.59 23.60L83.67 23.68L83.68 23.69Q84.04 28.09 84.00 31.44L83.98 31.41L83.85 31.28Q83.87 35.03 83.98 36.06L84.00 36.08L84.07 36.15Q84.43 39.21 85.95 40.01L85.90 39.96L85.87 39.93Q87.30 42.08 91.30 42.35L91.36 42.41L91.44 42.49Q94.93 42.64 95.58 42.60L95.51 42.53L95.66 42.67Q98.42 42.43 99.56 40.83L99.69 40.96L99.54 40.81Q100.12 40.21 100.20 39.03ZM91.50 37.22L91.55 37.28L91.53 37.25Q92.17 35.76 93.24 33.06L93.33 33.15L95.14 29.02L95.03 28.91Q95.05 30.61 94.67 33.96L94.55 33.84L94.72 34.01Q94.04 36.87 91.64 37.36ZM89.67 25.08L89.63 25.03L89.65 25.06Q90.01 23.17 90.69 22.60L90.78 22.68L90.83 22.74Q91.26 22.28 92.55 22.09L92.50 22.04L92.51 22.06Q90.78 25.69 88.91 30.33L88.84 30.26L88.94 30.36Q88.94 27.65 89.62 25.03Z"/></svg>