<svg xmlns="http://www.w3.org/2000/svg" width="150" height="50" viewBox="0,0,150,50"><rect width="100%" height="100%" fill="white"/><path fill="#73afec" d="M44.35 15.95L44.29 15.89L44.23 15.83Q46.18 20.75 46.75 25.92L46.76 25.94L46.66 25.83Q50.35 21.68 56.25 16.85L56.29 16.89L56.33 16.93Q59.55 16.65 62.18 15.85L62.23 15.89L55.65 21.51L55.60 21.45Q52.13 24.34 49.28 27.20L49.30 27.22L49.33 27.25Q57.36 36.46 62.43 41.18L62.36 41.12L62.35 41.11Q59.27 40.20 56.95 40.05L57.03 40.13L57.01 40.10Q51.25 34.73 46.95 28.91L46.87 28.82L46.89 28.84Q46.89 35.36 45.03 40.69L45.20 40.86L45.04 40.70Q44.90 40.82 44.40 41.02L44.33 40.94L44.37 41.17L44.26 41.06Q44.09 41.12 41.54 42.03L41.54 42.03L41.54 42.03Q44.62 35.59 44.27 28.13L44.17 28.03L44.15 28.01Q43.93 20.79 40.39 14.28L40.32 14.21L40.85 14.47L41.21 14.72L41.42 14.88L41.40 14.86Q42.15 15.27 44.35 15.95ZM44.51 15.54L44.45 15.48L44.50 15.53Q42.18 14.92 39.55 13.40L39.62 13.47L39.53 13.37Q43.99 20.85 43.99 29.79L44.02 29.82L43.96 29.76Q43.91 36.72 40.94 42.77L41.05 42.87L43.06 42.00L43.03 41.96Q42.62 42.97 41.94 44.26L41.84 44.16L41.92 44.24Q44.23 43.51 46.17 43.09L46.05 42.96L46.07 42.76L46.23 42.92Q46.38 42.76 46.95 42.61L47.02 42.68L46.99 42.65Q48.62 36.71 48.74 31.91L48.66 31.84L48.67 31.85Q50.77 34.36 52.60 36.23L52.72 36.35L52.61 36.24Q53.88 37.44 56.89 40.41L56.86 40.37L56.98 40.50L56.86 40.38Q57.88 41.21 59.75 42.81L59.73 42.79L59.71 42.77Q63.55 43.45 67.01 45.16L67.02 45.17L67.16 45.31Q57.91 36.78 51.67 29.36L51.51 29.20L51.67 29.36Q55.90 24.91 64.65 16.31L64.68 16.33L64.75 16.40Q62.19 17.53 60.17 17.91L60.21 17.95L60.14 17.89Q61.43 16.97 63.75 14.95L63.64 14.83L63.67 14.86Q59.67 16.38 56.32 16.57L56.16 16.42L56.27 16.52Q53.31 18.70 48.43 23.38L48.39 23.34L48.55 23.50Q48.10 20.84 47.53 18.29L47.52 18.28L47.50 18.26Q46.37 18.16 45.38 17.81L45.26 17.70L45.38 17.82Q45.14 17.05 44.57 15.60Z"/><path fill="#73dd8d" d="M39.02 40.18L39.10 40.26L39.00 40.16Q37.16 40.10 35.48 40.68L35.51 40.70L35.51 40.71Q36.03 37.07 36.14 33.95L36.15 33.96L36.06 33.87Q36.23 30.88 36.00 27.23L36.05 27.28L35.93 27.15Q34.63 26.88 33.87 26.50L33.90 26.54L33.38 23.38L33.45 23.46Q34.18 24.07 35.78 24.64L35.89 24.75L35.79 24.65Q35.66 22.62 35.24 19.88L35.20 19.84L35.17 19.81Q37.51 20.54 39.14 20.39L39.19 20.43L39.03 25.00L39.06 25.03Q40.38 24.87 41.72 24.37L41.83 24.48L41.71 24.37Q41.76 25.37 41.53 27.12L41.53 27.12L41.54 27.13Q39.95 27.40 38.92 27.40L38.87 27.35L38.98 27.47Q39.00 29.65 39.00 33.91L38.83 33.75L38.89 33.80Q39.05 38.12 39.13 40.29ZM42.21 23.88L42.20 23.87L42.17 23.84Q41.93 23.98 41.33 24.21L41.19 24.08L41.61 21.33L41.74 21.47Q40.91 21.74 39.50 21.97L39.44 21.90L39.51 21.97Q39.53 21.31 39.68 19.94L39.68 19.93L39.62 19.88Q39.00 19.94 38.43 19.94L38.39 19.90L38.44 19.95Q36.33 19.97 34.69 19.25L34.56 19.12L34.59 19.15Q35.12 21.66 35.39 24.14L35.38 24.13L35.48 24.23Q34.48 23.76 32.96 22.74L33.11 22.88L33.10 22.88Q33.43 24.15 33.66 26.86L33.63 26.84L33.67 26.87Q34.11 27.08 35.29 27.50L35.14 27.36L35.32 27.53Q35.19 28.01 35.23 29.42L35.34 29.53L35.58 29.43L35.83 29.61L35.72 29.50Q35.92 30.88 35.92 32.06L35.92 32.05L35.89 32.02Q35.77 36.85 34.97 41.19L35.07 41.29L35.08 41.31Q35.30 41.22 37.24 40.68L37.14 40.58L37.07 40.52Q37.26 41.35 37.15 42.73L37.06 42.63L37.17 42.74Q37.96 42.66 38.76 42.66L38.62 42.52L38.77 42.67Q40.42 42.61 42.06 43.18L42.10 43.22L42.07 43.19Q40.65 37.39 40.84 29.47L40.97 29.61L43.21 29.06L43.29 29.14Q43.46 28.33 43.54 27.30L43.52 27.28L43.55 25.11L43.68 25.24Q43.14 25.53 41.96 25.99L41.96 25.99L41.88 25.90Q42.19 24.58 42.11 24.23L42.07 24.19L42.03 24.15Q41.98 23.91 42.05 23.72Z"/><path fill="#ebb57f" d="M71.08 41.07L71.19 41.18L71.06 41.04Q74.23 36.80 80.93 28.88L80.92 28.87L80.97 28.91Q75.14 29.21 71.37 27.84L71.26 27.73L71.27 27.75Q70.70 26.41 69.94 25.00L69.80 24.86L69.78 24.85Q74.03 26.50 78.48 26.54L78.46 26.52L78.40 26.46Q82.97 26.62 87.16 25.55L86.99 25.38L87.16 25.55Q86.63 26.09 86.37 26.62L86.34 26.60L86.31 26.57Q83.92 28.93 81.10 32.55L81.05 32.50L76.15 38.71L76.06 38.63Q78.32 38.45 80.57 38.53L80.73 38.69L80.62 38.58Q82.81 38.64 85.06 39.02L85.11 39.07L85.13 39.09Q85.24 39.66 85.97 41.68L85.83 41.54L85.97 41.68Q82.27 40.88 78.27 40.99L78.12 40.84L78.23 40.95Q74.16 40.95 70.50 42.13L70.68 42.31L70.57 42.20Q70.63 42.03 71.09 41.08ZM70.01 42.82L69.99 42.80L70.04 42.84Q70.86 42.56 72.46 42.15L72.37 42.05L72.39 42.07Q72.06 42.20 71.64 42.62L71.69 42.67L71.65 42.63Q71.41 43.19 70.80 44.33L70.79 44.32L70.88 44.41Q75.71 43.18 80.69 43.33L80.64 43.28L80.55 43.19Q85.62 43.46 90.19 45.33L90.02 45.16L90.10 45.24Q88.60 43.32 87.69 41.27L87.69 41.27L87.76 41.35Q86.89 40.93 85.82 40.70L85.96 40.84L85.92 40.80Q85.71 40.05 85.33 38.60L85.34 38.62L85.35 38.62Q83.80 38.29 80.22 38.18L80.19 38.15L80.26 38.22Q82.66 34.91 87.68 28.55L87.67 28.53L87.62 28.48Q87.98 27.86 88.67 26.53L88.58 26.43L86.35 27.26L86.22 27.13Q86.41 27.16 86.56 27.05L86.55 27.03L86.76 26.86L86.69 26.79Q87.10 25.68 87.67 24.73L87.83 24.89L87.79 24.85Q83.10 26.17 78.38 26.10L78.43 26.15L78.44 26.16Q73.53 25.97 69.04 24.14L69.16 24.26L69.16 24.26Q70.36 26.15 71.16 28.21L71.03 28.07L71.12 28.16Q71.99 28.50 73.06 28.77L72.88 28.59L73.05 28.76Q73.26 29.47 73.57 30.92L73.44 30.79L73.43 30.78Q75.00 31.02 78.31 31.17L78.34 31.20L78.47 31.33Q76.07 34.64 70.89 41.07L70.84 41.02L70.76 40.94Q70.63 41.65 70.06 42.86Z"/><path fill="#6ea8e2" d="M72.98 40.37L73.00 40.39L73.00 40.40Q70.10 36.58 67.47 27.94L67.38 27.85L67.37 27.84Q66.63 25.61 65.83 23.48L65.92 23.57L62.95 32.25L63.09 32.39Q61.18 37.22 58.79 40.46L58.80 40.47L58.83 40.50Q58.06 40.65 56.43 40.80L56.28 40.65L56.26 40.64Q56.47 39.55 56.47 38.30L56.41 38.24L56.40 38.23Q56.37 32.18 53.63 26.05L53.65 26.07L53.64 26.06Q50.51 19.16 44.64 14.17L44.76 14.29L44.64 14.17Q46.79 14.87 49.15 15.40L49.27 15.53L49.22 15.48Q57.82 23.85 59.12 34.81L59.25 34.95L59.11 34.80Q60.75 31.50 62.20 26.13L62.31 26.24L62.22 26.16Q64.31 18.77 64.81 17.36L64.76 17.31L67.05 17.35L67.05 17.35Q67.65 19.28 68.29 21.61L68.33 21.64L69.64 26.15L69.67 26.18Q71.13 31.52 72.54 34.76L72.54 34.76L72.49 34.71Q74.21 23.14 82.12 15.79L82.11 15.78L82.16 15.82Q83.62 15.43 86.59 14.78L86.63 14.81L86.71 14.89Q81.39 19.21 78.35 25.34L78.33 25.32L78.24 25.23Q75.24 31.56 75.24 38.33L75.26 38.36L75.22 38.32Q75.29 39.49 75.36 40.63L75.36 40.62L74.15 40.44L74.18 40.47Q73.48 40.31 72.91 40.31ZM79.31 43.36L79.16 43.21L79.30 43.34Q77.92 39.65 78.04 35.76L78.10 35.83L78.10 35.83Q78.40 24.25 87.76 15.99L87.84 16.06L87.71 15.93Q86.84 16.24 84.90 16.78L84.85 16.73L84.94 16.82Q85.84 15.93 87.74 14.14L87.72 14.11L87.74 14.14Q85.12 14.94 82.18 15.43L82.20 15.45L82.25 15.50Q74.61 22.48 72.71 31.96L72.79 32.04L72.67 31.92Q72.14 30.33 69.29 18.87L69.27 18.85L69.26 18.84Q68.96 19.03 68.00 19.03L67.92 18.95L67.68 17.94L67.56 17.82Q67.63 17.48 67.41 16.99L67.25 16.83L64.46 16.93L64.32 16.80Q63.56 19.31 62.28 24.43L62.37 24.51L62.27 24.42Q61.12 29.66 60.13 32.13L60.08 32.09L60.08 32.08Q58.55 24.24 53.00 17.92L52.87 17.79L52.85 17.78Q52.45 17.80 51.50 17.61L51.39 17.49L51.43 17.53Q50.72 16.70 49.15 15.07L49.10 15.02L49.12 15.03Q45.71 14.21 43.54 13.41L43.60 13.48L43.55 13.42Q49.37 18.25 52.65 24.46L52.57 24.38L52.57 24.39Q56.00 30.97 56.00 37.98L55.96 37.93L56.04 38.02Q55.96 39.50 55.77 41.10L55.79 41.11L55.86 41.19Q56.08 41.18 56.54 41.08L56.54 41.09L56.63 41.18Q56.90 40.90 57.13 40.90L57.18 40.95L57.16 41.96L57.13 41.92Q57.23 42.49 57.31 43.02L57.28 42.99L57.39 43.10Q58.39 42.88 60.68 42.73L60.69 42.74L60.66 42.71Q64.30 37.34 67.05 27.93L67.01 27.90L67.06 27.95Q69.80 36.70 72.77 40.66L72.74 40.64L72.91 40.81Q73.28 40.72 74.12 40.83L74.07 40.78L74.12 40.83Q75.08 41.98 76.15 43.05L76.01 42.91L76.12 43.02Q76.85 43.02 79.24 43.29Z"/><path fill="#4ed971" d="M101.34 40.26L101.38 40.29L101.42 40.33Q99.99 40.39 98.43 39.97L98.44 39.98L98.38 39.92Q97.34 39.18 97.19 37.54L97.16 37.52L96.99 37.35Q97.13 37.34 97.32 34.71L97.29 34.68L97.18 34.57Q98.36 34.53 100.38 34.15L100.21 33.98L100.02 34.74L100.07 34.79Q99.91 36.65 101.32 37.22L101.34 37.24L101.25 37.16Q102.08 37.53 104.18 37.53L104.08 37.44L104.08 37.43Q105.83 37.43 106.02 37.36L105.96 37.29L105.94 37.28Q106.93 37.20 107.65 36.70L107.57 36.62L107.48 36.53Q108.95 35.64 108.76 33.54L108.71 33.50L108.75 33.54Q108.55 31.09 106.81 29.53L106.91 29.62L106.88 29.59Q105.06 27.94 102.58 27.94L102.65 28.00L102.64 27.77L102.59 27.72Q103.02 27.74 103.90 27.66L103.93 27.69L103.94 27.70Q105.77 27.51 107.14 26.27L107.18 26.31L107.08 26.22Q108.55 25.08 108.71 23.21L108.70 23.21L108.76 23.27Q108.84 22.93 108.84 22.59L108.86 22.61L108.86 22.61Q108.75 20.97 107.38 20.06L107.32 20.00L107.33 20.01Q106.11 19.21 104.51 19.33L104.56 19.37L104.69 19.50Q103.22 19.18 102.00 19.59L102.00 19.60L102.11 19.71Q100.61 20.18 100.30 21.32L100.29 21.31L100.31 21.32Q100.17 22.14 100.25 22.90L100.16 22.82L100.17 22.82Q99.24 22.70 97.19 21.98L97.23 22.01L97.04 21.83Q96.94 20.28 96.98 19.44L96.85 19.32L96.92 19.39Q96.97 17.79 98.03 17.11L98.11 17.19L98.11 17.18Q99.59 16.65 101.19 16.65L101.12 16.58L101.14 16.60Q104.32 16.58 107.48 16.84L107.46 16.83L107.38 16.75Q112.52 17.25 112.22 21.02L112.23 21.03L112.19 20.98Q112.05 22.41 111.55 23.97L111.65 24.07L111.69 24.11Q110.81 27.22 108.45 28.13L108.36 28.04L108.35 28.04Q110.93 28.52 111.54 31.87L111.51 31.84L111.61 31.94Q111.89 33.14 111.97 35.16L112.00 35.18L111.98 35.17Q112.14 39.63 107.54 40.09L107.51 40.06L107.35 39.90Q106.68 40.04 101.39 40.30ZM106.68 42.62L106.65 42.59L106.60 42.54Q107.25 42.63 110.11 42.70L110.13 42.72L110.15 42.74Q111.96 42.88 113.60 42.23L113.46 42.09L113.45 42.08Q114.77 41.27 114.58 39.52L114.46 39.40L114.46 39.40Q114.35 38.07 114.04 36.32L114.02 36.29L114.06 36.34Q113.44 31.95 111.50 30.31L111.50 30.31L111.12 29.74L111.15 29.73L111.13 29.71Q112.86 28.25 113.63 23.87L113.63 23.87L113.68 23.92Q113.73 23.48 113.84 22.53L113.76 22.44L113.89 22.57Q114.00 21.85 113.93 21.16L113.76 21.00L113.91 21.14Q113.62 19.34 112.33 18.65L112.37 18.70L112.41 18.81L112.38 18.78Q111.93 17.64 110.79 17.11L110.85 17.17L110.95 17.28Q109.27 16.43 104.13 16.13L104.21 16.20L104.19 16.19Q102.54 16.13 100.94 16.13L101.01 16.21L101.01 16.20Q99.41 16.20 97.89 16.85L97.81 16.77L97.89 16.85Q96.58 17.52 96.58 19.27L96.64 19.33L96.63 19.32Q96.55 18.82 96.82 22.17L96.94 22.29L96.91 22.27Q97.25 22.38 98.89 22.99L98.79 22.89L98.83 22.93Q98.79 23.43 98.75 23.92L98.74 23.91L98.76 23.93Q98.81 24.48 98.85 25.01L98.72 24.88L98.78 24.94Q100.56 25.31 102.57 25.42L102.62 25.46L102.63 25.47Q102.62 23.53 103.73 22.69L103.57 22.53L103.56 22.53Q104.56 22.04 106.58 21.81L106.48 21.71L106.56 21.80Q107.66 21.75 108.23 21.94L108.14 21.85L108.28 21.98Q108.28 22.07 108.32 22.18L108.33 22.19L108.34 22.39L108.44 22.95L108.34 22.85Q108.48 23.18 108.45 23.33L108.43 23.32L108.31 23.20Q108.32 25.00 106.80 26.18L106.84 26.22L106.79 26.17Q105.81 27.02 103.79 27.21L103.79 27.21L103.93 27.35Q103.03 27.33 102.16 27.33L102.27 27.43L102.26 27.43Q102.31 27.78 102.46 28.47L102.40 28.41L102.46 28.46Q104.20 28.46 105.65 29.18L105.62 29.15L105.46 29.10L103.93 29.33L103.85 29.24Q104.01 29.71 104.12 30.32L104.03 30.23L104.19 30.39Q106.17 30.15 107.88 31.49L107.91 31.51L107.86 31.47Q108.25 32.01 108.55 33.64L108.54 33.63L108.46 33.55Q108.69 36.52 105.76 36.94L105.79 36.97L105.80 36.98Q103.66 37.20 103.09 37.16L103.17 37.24L103.11 37.19Q102.64 37.06 102.11 36.98L102.10 36.97L102.03 36.45L102.13 35.98L102.30 35.73L102.36 35.45L102.18 35.27Q101.35 35.46 100.55 35.65L100.47 35.58L100.49 35.59Q100.48 35.39 100.48 35.20L100.57 35.29L100.55 35.27Q100.54 35.04 100.54 34.81L100.52 34.79L100.52 34.79Q100.58 34.39 100.74 33.67L100.73 33.66L100.73 33.66Q98.84 33.87 96.98 34.21L96.88 34.12L96.95 34.19Q96.94 34.67 96.83 35.79L96.89 35.85L96.94 35.91Q96.65 36.85 96.65 37.46L96.67 37.49L96.71 37.52Q96.88 39.67 98.25 40.44L98.21 40.39L98.24 40.42Q99.73 42.72 104.45 42.53L104.36 42.44L104.37 42.44Q105.14 42.46 106.67 42.61Z"/><path fill="#a7e792" d="M137.47 41.02L137.44 41.00L137.48 41.03Q136.09 39.26 134.79 36.17L134.75 36.13L132.73 31.10L132.73 31.10Q131.05 35.02 130.44 36.31L130.46 36.33L130.40 36.28Q129.00 39.25 127.40 41.15L127.47 41.22L127.33 41.08Q126.96 41.09 126.19 41.20L126.19 41.20L126.25 41.26Q126.27 33.86 120.45 27.92L120.40 27.87L120.44 27.92Q118.65 26.05 116.63 24.56L116.76 24.69L116.77 24.70Q118.53 25.16 120.39 25.47L120.37 25.44L120.44 25.51Q126.49 30.46 127.93 36.70L127.88 36.64L127.91 36.67Q128.91 34.93 130.09 31.73L130.07 31.71L130.02 31.67Q131.25 27.80 131.82 26.50L131.97 26.65L133.36 26.63L133.37 26.64Q134.29 28.40 135.47 31.68L135.38 31.58L135.42 31.62Q136.62 35.15 137.27 36.56L137.27 36.55L137.28 36.56Q139.25 30.43 144.73 25.86L144.73 25.86L144.55 25.67Q145.77 25.61 148.51 25.03L148.61 25.13L148.52 25.04Q139.93 31.10 138.75 41.08L138.75 41.09L138.18 41.04L138.10 40.96Q137.83 41.00 137.49 41.04ZM140.50 43.51L142.50 43.65L142.39 43.54Q142.13 42.07 142.13 40.54L142.15 40.56L142.17 40.58Q142.06 37.23 143.47 34.00L143.60 34.13L143.54 34.07Q145.47 29.49 149.58 26.41L149.56 26.38L149.58 26.41Q148.38 26.69 146.51 27.03L146.53 27.05L146.55 27.06Q148.58 25.49 149.88 24.57L149.79 24.48L147.24 24.90L147.40 25.06Q146.11 25.22 144.78 25.37L144.81 25.40L144.66 25.25Q139.55 29.54 137.61 34.57L137.55 34.52L137.56 34.52Q137.05 32.49 135.68 28.23L135.56 28.11L135.57 28.12Q135.21 28.10 134.94 28.10L135.06 28.22L134.41 28.10L134.51 28.21Q134.36 27.86 133.56 26.11L133.64 26.19L131.57 26.18L131.45 26.06Q130.54 28.91 128.44 34.54L128.44 34.54L128.58 34.68Q127.15 30.89 124.07 27.62L123.99 27.54L124.15 27.70Q123.81 27.63 123.51 27.59L123.53 27.62L122.98 27.52L122.94 27.48Q122.16 26.74 120.38 25.14L120.36 25.13L120.33 25.10Q117.20 24.48 115.52 23.98L115.51 23.97L115.47 23.93Q126.20 31.39 125.82 41.70L125.87 41.76L125.83 41.72Q125.99 41.68 126.35 41.64L126.46 41.75L126.42 41.72Q126.65 41.54 126.84 41.54L126.91 41.62L127.02 41.73Q127.03 41.58 127.22 43.67L127.12 43.57L129.05 43.41L129.06 43.42Q131.55 40.51 133.80 34.76L133.90 34.86L133.90 34.86Q135.38 38.70 137.24 41.36L137.21 41.33L137.16 41.28Q137.61 41.39 137.88 41.41L137.76 41.29L137.84 41.38Q138.06 41.34 138.32 41.34L138.36 41.38L140.47 43.49Z"/><path fill="#7cedd1" d="M17.81 47.04L17.81 47.04L17.78 47.01Q16.95 47.32 15.05 47.63L15.05 47.63L14.92 47.50Q16.27 45.39 17.30 44.09L17.34 44.13L17.41 44.21Q19.16 44.50 19.31 44.50L19.27 44.47L19.14 44.34Q19.53 44.49 20.06 44.38L20.03 44.35L19.98 44.30Q20.76 44.32 20.95 44.32L20.87 44.24L20.96 44.33Q23.45 44.00 23.38 41.83L23.31 41.77L23.36 41.82Q23.42 40.43 23.31 34.19L23.24 34.13L23.19 34.07Q23.26 30.64 23.34 26.49L23.28 26.44L24.61 26.17L24.68 26.23Q25.25 26.05 25.94 25.82L26.05 25.93L26.10 25.98Q25.86 30.38 25.89 34.76L25.81 34.67L25.89 34.75Q25.80 39.01 26.33 43.38L26.40 43.45L26.37 43.42Q26.50 43.78 26.50 44.04L26.42 43.96L26.50 44.04Q26.42 45.60 24.74 45.98L24.86 46.09L24.86 46.10Q21.65 46.39 17.80 47.04ZM24.64 22.88L22.57 19.82L22.50 19.75Q23.55 18.37 25.38 15.59L25.31 15.52L25.31 15.52Q26.07 16.51 27.40 18.34L27.34 18.28L24.68 22.92ZM27.67 49.52L27.70 49.55L27.71 49.55Q28.24 49.60 29.01 49.25L28.88 49.13L28.88 49.13Q29.33 48.55 29.33 48.09L29.35 48.11L29.26 48.02Q29.27 47.69 29.16 47.08L29.04 46.96L29.02 46.94Q27.69 40.55 27.69 32.63L27.73 32.67L27.79 32.73Q27.82 29.91 27.97 27.01L27.98 27.02L27.93 26.97Q27.46 27.22 26.32 27.53L26.30 27.51L26.29 27.50Q26.35 27.07 26.39 26.54L26.28 26.42L26.46 25.43L26.39 25.36Q24.61 25.94 22.82 25.97L22.99 26.15L22.90 26.05Q22.84 30.37 22.88 33.95L22.86 33.93L23.11 41.91L23.01 41.81Q23.19 43.89 21.02 44.01L20.89 43.88L20.91 43.89Q20.62 43.84 20.11 43.90L20.17 43.96L20.20 43.99Q19.76 44.12 19.49 44.12L19.43 44.05L19.34 43.96Q18.97 44.05 17.41 43.63L17.31 43.53L17.45 43.67Q16.94 44.23 15.83 45.90L15.77 45.84L14.28 48.19L14.19 48.11Q15.15 48.00 16.79 47.62L16.85 47.68L16.27 48.28L15.86 49.05L15.74 48.93Q18.13 48.88 19.46 48.96L19.47 48.97L19.31 48.81Q21.65 49.01 27.59 49.43ZM24.60 23.60L24.62 23.63L25.01 23.14L24.84 22.97Q25.30 23.51 26.26 25.11L26.23 25.08L26.25 25.10Q27.84 22.05 29.40 18.96L29.27 18.83L29.41 18.97Q28.33 17.28 27.37 15.99L27.48 16.09L27.47 16.08Q27.26 16.29 26.92 16.82L26.86 16.76L26.78 16.69Q26.36 16.04 25.37 14.74L25.55 14.92L25.38 14.75Q24.36 16.51 22.04 19.87L21.91 19.74L21.88 19.70Q22.95 21.08 24.66 23.67Z"/><path fill="#eb6feb" d="M91.48 19.67L91.48 19.67L91.40 19.59Q89.56 19.85 88.61 20.00L88.61 20.00L88.58 19.97Q86.97 20.23 85.75 20.76L85.73 20.74L85.70 20.71Q82.24 22.19 82.12 26.88L82.09 26.84L82.03 26.79Q82.06 29.56 82.71 32.49L82.72 32.50L82.64 32.41Q83.57 36.51 87.19 37.69L87.17 37.67L87.12 37.62Q89.00 38.16 90.44 38.01L90.45 38.02L90.85 37.96L90.94 38.05Q91.01 37.93 91.20 37.97L91.24 38.01L91.24 38.01Q91.43 38.05 91.59 38.01L91.68 38.11L91.49 37.92Q94.14 37.68 95.52 37.11L95.57 37.16L92.00 33.63L92.06 33.69Q92.45 33.43 93.06 32.82L93.01 32.77L93.78 31.72L93.98 31.91Q95.70 33.86 97.68 35.92L97.68 35.92L97.70 35.94Q99.96 34.05 100.22 28.68L100.27 28.73L100.33 28.79Q100.29 27.76 100.29 26.85L100.40 26.96L100.40 26.96Q100.35 21.24 95.29 20.13L95.25 20.09L95.27 20.11Q93.90 19.73 91.39 19.58ZM104.27 41.75L104.24 41.72L104.33 41.81Q103.74 42.25 102.56 43.13L102.57 43.14L97.98 39.27L98.08 39.36Q95.56 40.54 91.30 40.58L91.35 40.64L91.39 40.67Q84.76 40.71 81.95 38.46L81.87 38.38L81.86 38.38Q80.22 36.73 79.76 33.76L79.73 33.73L79.73 33.73Q79.49 31.89 79.11 28.31L79.24 28.44L79.13 28.34Q79.08 27.56 78.96 25.81L79.00 25.85L79.10 25.94Q78.85 24.29 78.89 23.41L78.93 23.46L78.90 23.43Q78.99 20.36 80.75 18.80L80.86 18.91L80.86 18.91Q82.23 17.43 85.43 16.94L85.46 16.96L85.48 16.98Q87.99 16.64 90.89 16.72L90.86 16.69L90.95 16.78Q98.46 16.91 101.58 19.27L101.43 19.11L101.43 19.12Q103.61 21.26 103.34 26.17L103.49 26.32L103.34 26.16Q103.23 29.90 103.04 31.23L102.93 31.12L103.10 31.29Q102.42 35.75 100.10 38.07L100.11 38.08L100.08 38.06Q101.51 39.26 104.25 41.73ZM99.38 17.45L99.41 17.48L99.33 17.40Q97.42 16.78 90.91 16.29L90.83 16.21L90.86 16.24Q89.54 16.32 86.76 16.44L86.75 16.43L86.70 16.38Q82.46 16.59 80.21 18.57L80.30 18.66L80.16 18.52Q78.64 20.12 78.64 23.28L78.66 23.30L78.62 23.25Q78.65 24.13 78.81 25.84L78.65 25.69L78.65 25.69Q78.83 27.43 78.83 28.30L78.90 28.37L78.79 28.26Q79.08 30.15 79.46 33.73L79.42 33.69L79.40 33.67Q79.84 36.62 81.44 38.67L81.37 38.61L81.41 38.65Q81.79 39.52 83.00 40.66L82.83 40.48L82.90 40.56Q85.75 42.68 90.92 42.95L90.86 42.88L90.93 42.95Q91.21 42.89 93.60 43.00L93.48 42.88L93.55 42.94Q98.42 43.17 100.70 42.11L100.67 42.07L100.73 42.14Q101.46 42.67 106.18 46.25L106.28 46.35L106.18 46.25Q106.89 45.82 108.19 44.83L108.21 44.86L108.08 44.72Q107.34 44.17 106.54 43.49L106.50 43.44L104.73 41.87L104.83 41.82L104.94 41.92Q104.32 41.42 103.10 40.39L103.21 40.50L103.10 40.39Q104.98 37.86 104.98 33.33L105.12 33.46L105.10 33.44Q104.95 32.87 104.98 32.03L105.03 32.08L105.03 32.08Q105.06 31.23 105.06 30.81L105.20 30.95L105.16 30.91Q105.02 25.25 104.29 22.89L104.34 22.94L104.41 23.00Q103.93 21.61 103.05 20.55L103.16 20.65L103.15 20.64Q102.41 18.57 99.48 17.54ZM93.42 22.07L93.37 22.02L93.46 22.11Q97.55 22.05 99.37 23.64L99.23 23.50L99.37 23.64Q99.90 24.82 100.02 26.15L99.92 26.05L99.95 26.09Q100.00 27.32 99.93 28.69L99.99 28.75L99.93 28.70Q99.57 33.62 97.63 35.34L97.72 35.42L97.60 35.31Q96.37 34.08 93.86 31.34L93.95 31.43L93.78 31.26Q92.98 31.99 91.42 33.55L91.56 33.68L91.48 33.61Q92.18 34.34 93.32 35.52L93.30 35.50L93.13 35.44L93.19 35.50Q93.65 35.93 94.68 36.99L94.81 37.13L94.79 37.11Q93.86 37.43 91.54 37.74L91.46 37.66L90.85 37.58L90.50 37.65L90.57 37.76L90.56 37.74Q87.10 37.76 85.12 36.12L85.01 36.01L85.06 36.06Q83.95 33.88 83.99 30.76L84.11 30.88L84.06 30.83Q84.24 22.14 93.42 22.06Z"/><path fill="#88f1f1" d="M114.28 32.98L114.21 32.91L114.18 32.88Q117.37 32.61 120.57 32.72L120.58 32.73L120.49 32.64Q120.55 30.19 120.55 27.79L120.55 27.79L120.48 27.72Q120.43 25.20 120.62 22.65L120.70 22.73L120.77 22.79Q119.45 24.41 114.24 32.94ZM124.15 40.30L124.25 40.40L124.07 40.21Q122.50 40.02 120.71 39.95L120.65 39.88L120.61 39.84Q120.42 37.48 120.30 35.00L120.44 35.14L120.48 35.18Q115.04 34.88 110.32 36.29L110.31 36.28L110.26 36.23Q110.45 35.81 110.64 34.82L110.58 34.77L110.66 34.84Q112.48 31.71 116.05 25.43L115.93 25.30L116.06 25.44Q118.93 20.54 122.36 16.65L122.26 16.55L122.23 16.53Q123.16 16.39 124.83 16.12L124.87 16.16L124.88 16.17Q122.91 22.53 122.91 29.57L123.07 29.73L122.96 29.63Q122.91 31.06 122.99 32.55L123.04 32.60L124.36 32.74L124.37 32.75Q125.00 32.81 125.61 32.93L125.56 32.88L125.63 32.94Q125.69 33.88 125.96 35.82L125.88 35.75L126.03 35.90Q124.76 35.58 123.27 35.39L123.28 35.40L123.24 35.36Q123.43 37.33 124.11 40.26ZM125.85 32.52L125.79 32.46L125.92 32.59Q125.55 32.33 125.36 32.33L125.41 32.38L125.04 32.39L124.99 32.34Q125.02 31.00 125.02 29.59L124.95 29.52L124.93 29.51Q124.89 23.07 126.95 17.06L127.00 17.11L126.99 17.10Q126.28 17.41 124.83 17.79L124.76 17.72L124.81 17.77Q124.99 16.96 125.45 15.56L125.46 15.57L125.42 15.52Q124.20 15.99 122.15 16.22L122.08 16.15L122.07 16.14Q118.30 20.63 113.08 29.99L113.03 29.94L115.01 26.18L115.16 26.32Q114.67 27.28 114.41 27.85L114.46 27.91L110.03 36.95L109.96 36.88Q110.59 36.71 111.73 36.33L111.74 36.34L111.55 36.53L111.56 36.54Q111.47 37.25 111.16 38.50L111.19 38.54L111.23 38.57Q115.22 37.12 120.06 37.31L120.06 37.31L120.06 37.31Q120.09 38.26 120.28 40.24L120.39 40.34L120.33 40.28Q121.51 40.40 122.57 40.51L122.45 40.39L122.55 40.49Q122.70 41.17 122.96 42.54L122.90 42.48L122.94 42.51Q124.80 42.70 127.81 43.61L127.88 43.69L127.85 43.65Q126.79 41.45 125.87 38.18L125.89 38.19L127.34 38.65L127.32 38.63Q128.03 38.88 128.71 39.23L128.63 39.15L128.72 39.24Q127.87 36.67 127.72 35.00L127.74 35.01L127.73 35.01Q127.16 34.86 126.02 34.63L126.15 34.76L126.06 34.67Q125.84 33.38 125.84 32.51ZM117.84 32.35L117.91 32.42L117.80 32.31Q118.68 31.13 120.24 28.58L120.06 28.41L120.17 28.52Q120.16 29.45 120.12 30.41L120.16 30.45L120.22 30.50Q120.20 31.48 120.24 32.43L120.13 32.32L120.14 32.33Q119.58 32.31 119.01 32.31L119.01 32.31L118.96 32.25Q118.37 32.27 117.76 32.27Z"/><path fill="#6ddd89" d="M9.87 29.87L9.93 29.93L9.83 29.82Q9.65 29.88 9.35 29.88L9.26 29.79L9.36 29.89Q8.05 29.92 6.61 30.75L6.59 30.73L6.54 30.69Q5.17 31.75 5.17 33.65L5.19 33.68L5.12 33.60Q5.16 37.08 6.69 38.41L6.71 38.43L6.72 38.44Q7.71 39.66 10.00 39.66L9.88 39.55L9.91 39.58Q10.26 39.70 10.57 39.70L10.44 39.58L10.53 39.67Q12.15 39.57 13.30 37.94L13.33 37.97L13.30 37.94Q14.46 36.55 14.39 34.76L14.42 34.80L14.29 34.66Q14.42 34.27 14.42 33.85L14.40 33.82L14.39 33.81Q14.39 32.03 13.02 30.87L13.07 30.91L12.99 30.84Q11.72 29.78 9.93 29.93ZM14.32 39.99L14.37 40.04L14.34 40.01Q13.32 41.92 9.59 42.03L9.58 42.03L9.56 42.01Q6.21 42.16 4.61 40.56L4.54 40.49L4.63 40.58Q3.14 38.78 2.34 33.99L2.31 33.95L2.46 34.10Q2.09 32.29 2.09 31.03L2.08 31.02L2.15 31.09Q2.14 29.29 2.86 28.23L2.78 28.14L2.89 28.26Q4.25 26.88 7.22 26.88L7.08 26.73L7.16 26.81Q13.52 26.85 15.42 29.44L15.40 29.42L15.33 29.35Q15.58 28.61 16.00 27.01L15.89 26.90L16.03 27.04Q17.24 26.69 19.67 25.89L19.74 25.95L19.60 25.82Q17.27 31.56 17.05 37.88L16.99 37.82L16.98 37.82Q16.71 43.94 18.84 49.77L18.92 49.84L18.82 49.74Q17.28 49.31 15.49 49.04L15.38 48.92L15.43 48.98Q14.52 45.03 14.41 40.08ZM15.05 49.17L15.16 49.28L15.05 49.17Q15.93 49.48 17.34 49.78L17.26 49.70L17.17 49.62Q17.46 50.40 18.03 51.80L18.04 51.82L17.98 51.76Q20.73 52.64 23.01 53.94L23.03 53.95L22.91 53.83Q18.96 47.33 18.96 38.81L18.87 38.71L18.96 38.81Q18.95 32.44 21.42 26.65L21.46 26.69L21.40 26.63Q20.69 26.90 19.31 27.55L19.27 27.50L19.22 27.46Q19.61 26.74 20.26 25.18L20.18 25.10L20.28 25.20Q18.81 25.82 15.61 26.70L15.58 26.67L15.61 26.70Q15.34 27.12 15.04 28.30L15.12 28.38L15.13 28.39Q13.02 26.39 6.89 26.24L7.00 26.35L7.06 26.41Q3.84 26.31 2.47 27.80L2.51 27.84L2.51 27.83Q1.63 28.86 1.67 30.76L1.79 30.88L1.79 30.89Q1.82 33.81 2.81 37.58L2.87 37.64L2.71 37.48Q3.38 39.90 4.29 40.85L4.40 40.96L4.65 41.21L4.67 41.23Q5.88 44.04 11.33 44.27L11.40 44.34L11.28 44.23Q12.46 44.41 14.29 44.11L14.13 43.95L14.26 44.08Q14.57 47.01 15.18 49.30ZM11.80 32.22L11.78 32.20L11.73 32.14Q12.94 32.29 13.78 32.59L13.66 32.48L13.63 32.45Q13.81 32.97 13.93 33.58L14.04 33.69L14.08 33.73Q14.08 34.19 14.00 34.80L13.93 34.73L14.06 34.86Q14.06 36.76 13.03 38.05L12.91 37.93L12.89 37.91Q11.85 39.46 9.98 39.27L9.99 39.28L10.03 39.32Q8.61 39.19 7.66 38.78L7.65 38.76L7.61 38.72Q7.46 38.11 7.46 36.89L7.33 36.77L7.44 36.88Q7.25 36.38 7.25 36.08L7.33 36.16L7.23 36.06Q7.29 34.37 8.62 33.21L8.72 33.31L8.57 33.15Q9.93 32.02 11.68 32.10Z"/><path d="M13 45 C95 35,62 37,140 47" stroke="#df8161" fill="none"/></svg>