<svg xmlns="http://www.w3.org/2000/svg" width="150" height="50" viewBox="0,0,150,50"><rect width="100%" height="100%" fill="white"/><path fill="#60c4e6" d="M75.03 19.32L75.00 19.30L74.98 19.28Q75.92 23.60 76.07 27.17L75.97 27.07L76.00 27.10Q77.09 27.16 78.15 27.16L78.14 27.15L80.50 27.31L80.43 27.23Q81.48 27.22 82.35 25.81L82.33 25.78L82.26 25.72Q83.00 24.55 83.11 23.37L83.09 23.35L83.17 23.43Q83.64 20.50 79.41 20.01L79.43 20.03L79.37 19.97Q77.63 19.86 75.00 19.29ZM76.04 29.89L76.13 29.98L76.03 29.88Q76.09 36.22 74.95 40.63L74.95 40.64L74.84 40.52Q73.53 41.08 71.21 42.15L71.07 42.01L71.02 41.96Q73.40 35.32 73.14 28.05L73.12 28.03L73.12 28.03Q72.99 20.82 70.21 14.39L70.11 14.28L70.14 14.31Q74.21 17.02 80.45 17.02L80.61 17.18L80.43 16.99Q86.58 17.09 86.74 20.56L86.70 20.52L86.65 20.47Q86.73 22.91 85.74 25.57L85.73 25.57L85.76 25.60Q85.42 26.78 84.47 28.00L84.40 27.93L84.53 28.07Q83.06 29.52 80.51 29.78L80.51 29.79L80.52 29.80Q78.26 29.83 76.02 29.87ZM82.20 32.16L82.28 32.25L82.18 32.14Q86.44 32.49 87.70 27.69L87.58 27.57L87.67 27.66Q88.68 24.06 88.53 22.05L88.36 21.88L88.40 21.92Q88.24 20.35 87.48 19.36L87.49 19.37L87.64 19.52Q87.26 19.14 86.76 18.91L86.69 18.84L86.63 18.78Q86.80 18.79 86.19 18.03L86.17 18.02L86.02 17.86Q84.58 16.65 80.62 16.65L80.58 16.61L80.66 16.70Q73.79 16.71 69.57 13.55L69.40 13.39L69.47 13.45Q72.67 20.58 72.94 28.04L72.89 27.99L72.89 27.99Q73.28 35.77 70.62 42.85L70.49 42.72L70.45 42.68Q71.66 42.18 72.65 41.80L72.57 41.72L72.26 42.94L72.25 42.92Q72.07 43.51 71.81 44.08L71.82 44.10L71.75 44.02Q74.20 43.00 77.09 42.47L77.02 42.41L77.09 42.48Q77.96 36.98 78.03 32.26L77.91 32.14L78.07 32.30Q79.01 32.06 80.00 32.06L80.03 32.09L80.19 32.25Q81.47 32.20 82.27 32.23ZM81.20 22.18L81.21 22.19L81.28 22.26Q81.68 22.17 82.67 22.40L82.73 22.46L82.73 22.46Q82.88 22.72 82.92 23.03L82.89 22.99L82.91 23.01Q83.04 23.38 82.97 23.64L82.90 23.57L82.85 23.52Q82.72 24.73 82.00 25.61L81.97 25.58L82.12 25.73Q81.39 26.63 80.36 26.82L80.43 26.89L80.35 26.82Q79.77 26.96 78.14 26.96L78.03 26.85L78.04 26.86Q78.00 24.58 77.77 22.22L77.75 22.20L79.59 22.36L79.54 22.31Q80.34 22.27 81.22 22.20Z"/><path fill="#4f75e7" d="M131.44 40.30L131.33 40.19L131.46 40.32Q127.82 40.26 126.19 39.73L126.25 39.80L126.17 39.71Q124.38 39.26 124.08 35.87L123.95 35.74L125.34 34.62L125.47 34.75Q126.09 34.12 126.85 33.62L126.83 33.60L126.87 33.64Q126.61 35.55 128.21 36.76L128.16 36.72L128.29 36.85Q129.56 37.85 131.69 37.66L131.77 37.74L131.72 37.69Q136.15 37.32 135.96 33.78L135.87 33.69L135.79 33.61Q135.69 31.41 133.06 30.20L133.14 30.27L133.14 30.27Q130.14 29.06 127.78 27.84L127.81 27.87L127.83 27.90Q125.39 26.67 124.40 21.99L124.26 21.85L124.23 21.82Q124.14 21.39 124.03 20.63L124.18 20.78L124.18 20.78Q124.10 20.02 124.18 19.45L124.10 19.37L124.02 19.29Q124.28 17.80 125.54 17.34L125.51 17.32L125.52 17.33Q127.99 16.53 131.99 16.72L131.86 16.59L131.95 16.68Q133.67 16.68 134.47 16.76L134.43 16.72L134.44 16.73Q136.03 17.02 137.09 17.48L137.15 17.54L137.03 17.42Q139.21 17.96 139.44 20.44L139.37 20.36L139.35 20.35Q138.41 21.16 136.20 22.49L136.08 22.37L136.26 22.55Q135.72 19.41 131.34 19.41L131.42 19.50L131.36 19.43Q129.41 19.39 128.42 20.07L128.40 20.05L128.51 20.16Q127.21 20.53 127.43 22.32L127.58 22.47L127.52 22.41Q127.87 24.70 130.84 26.22L130.85 26.24L130.67 26.05Q131.26 26.34 135.75 27.97L135.71 27.94L135.76 27.99Q138.37 29.45 138.78 33.83L138.88 33.92L138.75 33.79Q138.78 33.98 138.86 35.23L138.87 35.24L138.95 35.32Q139.00 38.07 137.43 39.18L137.50 39.24L137.33 39.07Q135.56 40.12 131.37 40.23ZM133.79 42.72L133.65 42.59L133.74 42.68Q135.21 42.78 137.19 42.78L137.13 42.72L137.12 42.70Q139.16 42.65 140.42 42.23L140.54 42.36L140.56 42.38Q141.71 41.48 141.64 39.69L141.63 39.68L141.65 39.70Q141.59 38.69 141.21 36.63L141.28 36.70L141.18 36.60Q140.24 31.89 138.14 30.02L138.18 30.06L138.14 30.03Q137.44 28.52 136.10 27.80L136.14 27.83L130.78 25.70L130.75 25.68Q130.38 25.46 129.93 25.24L130.01 25.32L129.95 24.99L129.82 24.52L129.85 24.55Q129.77 23.22 130.92 22.61L130.79 22.48L130.82 22.51Q131.60 21.96 133.31 21.77L133.29 21.75L133.33 21.79Q134.46 21.66 135.60 22.12L135.64 22.16L135.54 22.06Q135.71 22.26 135.90 23.10L135.88 23.08L135.81 23.01Q136.14 22.99 136.63 22.76L136.63 22.77L136.55 22.69Q137.37 23.69 137.48 24.83L137.31 24.66L137.43 24.78Q137.38 24.62 141.03 22.03L141.16 22.15L141.02 22.02Q140.83 19.46 139.38 18.78L139.46 18.85L139.43 18.82Q138.87 17.58 137.42 17.05L137.32 16.94L137.46 17.08Q135.10 16.20 131.90 16.20L131.88 16.19L131.97 16.28Q126.98 16.19 125.11 16.88L125.13 16.90L125.08 16.85Q123.69 17.25 123.58 18.92L123.62 18.97L123.60 18.94Q123.62 19.53 124.04 21.74L124.12 21.83L123.97 21.68Q124.69 25.48 126.86 27.73L126.94 27.81L126.99 27.86Q127.65 29.43 129.15 30.12L129.27 30.23L129.14 30.10Q130.76 30.90 134.68 32.46L134.63 32.41L134.56 32.39L135.36 32.87L135.37 32.93L135.41 32.96Q135.42 33.24 135.46 33.58L135.50 33.63L135.50 33.62Q135.61 37.12 131.69 37.27L131.71 37.30L131.63 37.22Q130.48 37.24 129.18 36.86L129.14 36.82L129.21 36.89Q128.88 36.06 128.88 35.34L128.86 35.32L128.89 35.35Q128.83 35.03 128.87 34.76L129.01 34.90L128.95 34.84Q128.59 35.13 127.79 35.63L127.70 35.53L127.62 35.45Q127.30 34.52 127.45 33.15L127.31 33.01L127.32 33.03Q125.28 34.25 123.68 35.66L123.69 35.67L123.64 35.62Q123.77 36.52 123.85 37.55L123.74 37.43L123.75 37.45Q124.20 39.30 125.49 40.06L125.39 39.96L125.43 40.00Q126.68 41.86 129.23 42.24L129.20 42.21L129.15 42.16Q130.81 42.49 133.74 42.68Z"/><path fill="#70e4aa" d="M52.87 27.73L52.98 27.84L52.92 27.78Q49.34 27.63 48.24 30.98L48.15 30.89L48.31 31.05Q47.98 32.16 47.86 33.23L47.78 33.14L47.76 33.12Q47.48 35.09 48.47 36.42L48.53 36.48L48.47 36.42Q49.94 37.74 52.41 37.78L52.41 37.77L52.38 37.74Q54.15 37.73 55.56 36.58L55.51 36.53L55.51 36.53Q57.09 35.56 57.09 33.77L57.04 33.72L57.02 33.70Q56.93 33.27 56.85 32.89L56.93 32.96L56.98 33.01Q56.74 27.87 52.93 27.79ZM52.84 40.26L52.82 40.24L52.76 40.18Q49.03 40.49 47.24 38.47L47.08 38.31L47.19 38.42Q47.04 39.52 46.58 40.89L46.45 40.76L46.55 40.86Q44.56 41.58 43.31 42.15L43.31 42.15L43.35 42.19Q45.49 36.18 45.49 29.67L45.46 29.65L45.52 29.70Q45.49 21.37 42.06 13.53L42.07 13.53L42.01 13.48Q44.28 14.76 45.61 15.21L45.75 15.35L45.61 15.21Q47.88 22.02 48.04 27.84L47.97 27.77L47.99 27.79Q49.40 25.09 53.13 25.13L53.13 25.13L53.19 25.19Q56.42 25.22 57.91 27.09L57.83 27.02L57.90 27.09Q59.72 29.36 59.88 32.94L59.89 32.95L59.72 32.79Q59.89 34.06 59.82 35.66L59.82 35.67L59.76 35.60Q59.83 37.16 58.96 38.30L58.89 38.24L59.00 38.34Q57.05 39.87 52.71 40.13ZM58.23 42.68L58.19 42.64L58.27 42.72Q59.86 42.82 61.34 42.14L61.26 42.05L61.21 42.01Q62.38 40.78 62.42 38.84L62.36 38.78L62.37 38.79Q62.43 38.35 62.28 37.17L62.33 37.23L62.21 37.10Q62.12 36.41 62.01 35.49L62.06 35.55L62.09 35.58Q61.20 30.72 59.63 28.67L59.69 28.72L59.70 28.73Q59.76 28.75 58.96 27.88L58.82 27.73L58.76 27.68Q58.55 27.43 58.02 26.63L58.12 26.73L58.18 26.80Q56.51 24.78 53.16 24.82L53.22 24.88L53.08 24.74Q51.06 24.81 49.81 25.42L49.92 25.54L49.89 25.50Q49.45 20.88 48.84 17.68L48.82 17.66L48.96 17.80Q48.15 17.57 46.67 17.18L46.65 17.17L46.76 17.27Q46.47 16.38 46.02 14.93L46.02 14.94L46.05 14.97Q43.56 14.11 41.31 12.55L41.34 12.58L41.44 12.68Q45.15 20.80 45.15 29.60L45.23 29.68L45.09 29.53Q45.21 36.63 42.74 42.83L42.59 42.68L42.64 42.73Q43.44 42.51 44.77 41.94L44.76 41.93L44.69 41.85Q44.53 42.68 43.92 44.21L43.82 44.10L43.79 44.08Q45.84 43.23 48.62 42.70L48.61 42.69L49.03 40.90L48.98 40.86Q51.33 42.59 58.26 42.71ZM54.46 30.00L54.54 30.08L54.51 30.05Q55.57 30.08 56.10 30.46L56.06 30.42L55.98 30.34Q56.38 30.93 56.61 32.95L56.61 32.95L56.50 32.84Q56.81 34.83 55.55 36.14L55.62 36.21L55.54 36.12Q54.31 37.47 52.37 37.36L52.35 37.33L52.33 37.31Q51.50 37.55 50.02 37.05L49.95 36.99L49.94 36.98Q49.81 36.58 49.81 36.04L49.76 36.00L49.73 35.97Q49.71 32.86 51.27 31.26L51.34 31.33L51.18 31.21L51.27 31.30Q52.75 29.96 54.50 30.04Z"/><path fill="#849ce5" d="M108.92 30.89L108.94 30.91L108.91 30.88Q108.91 29.77 106.96 29.05L106.79 28.87L106.82 28.91Q106.43 28.82 105.90 28.82L105.94 28.87L105.94 28.86Q104.46 28.76 103.40 29.33L103.46 29.39L103.43 29.36Q102.14 30.16 102.25 31.38L102.07 31.20L102.10 31.23Q102.58 34.18 102.43 36.43L102.43 36.43L102.40 36.40Q102.15 38.74 101.43 41.25L101.41 41.23L101.50 41.33Q99.35 41.81 98.17 42.22L98.23 42.28L98.13 42.18Q99.83 38.67 99.83 34.67L99.75 34.59L99.76 34.60Q99.75 29.14 97.16 24.69L97.20 24.72L97.14 24.67Q98.48 25.28 100.88 26.01L100.88 26.01L100.80 25.93Q101.05 26.59 101.43 28.12L101.53 28.22L101.57 28.26Q102.87 26.14 106.76 26.21L106.77 26.22L106.78 26.24Q108.27 26.28 109.07 26.39L108.99 26.32L108.94 26.26Q111.98 26.72 112.06 28.74L112.05 28.73L111.92 28.60Q111.97 29.53 111.78 30.56L111.93 30.70L111.83 30.60Q111.36 33.10 111.55 36.10L111.66 36.22L111.50 36.06Q111.81 39.07 112.80 41.62L112.72 41.55L112.82 41.65Q111.01 41.13 109.30 40.98L109.35 41.03L109.40 41.08Q108.89 38.66 108.81 36.00L108.74 35.92L108.81 36.00Q108.72 33.24 108.94 30.91ZM109.01 41.41L108.99 41.39L108.98 41.38Q109.70 41.30 110.99 41.53L110.99 41.52L111.48 42.70L111.31 42.53Q111.69 43.21 111.91 43.74L111.87 43.70L111.89 43.72Q114.03 43.99 116.73 45.17L116.81 45.25L116.76 45.20Q114.44 42.12 113.76 38.31L113.74 38.30L113.84 38.40Q113.43 36.20 113.55 32.51L113.52 32.48L113.48 32.44Q113.52 32.18 113.56 31.38L113.58 31.40L113.51 31.33Q113.73 30.87 113.66 30.37L113.58 30.30L113.54 30.25Q113.47 28.62 112.36 28.13L112.26 28.03L112.45 28.22Q112.29 27.37 111.53 26.76L111.41 26.64L111.50 26.73Q109.63 25.55 106.59 25.62L106.63 25.66L106.77 25.81Q104.73 25.67 103.89 25.86L104.00 25.97L103.95 25.92Q102.63 26.39 101.68 27.31L101.54 27.16L101.63 27.25Q101.44 26.65 101.06 25.62L101.07 25.63L101.15 25.71Q98.30 24.99 96.47 24.00L96.54 24.07L96.38 23.91Q99.54 28.89 99.54 34.64L99.53 34.63L99.56 34.66Q99.49 38.97 97.58 42.81L97.58 42.81L97.67 42.90Q98.23 42.47 99.53 42.09L99.60 42.17L99.53 42.10Q99.17 43.49 98.64 44.47L98.50 44.34L98.58 44.42Q99.93 43.90 103.47 43.33L103.46 43.32L103.43 43.29Q104.41 38.15 104.30 33.31L104.35 33.36L104.37 33.38Q104.30 32.52 105.48 31.79L105.52 31.83L105.42 31.73Q106.53 31.16 107.63 31.05L107.56 30.98L107.70 31.12Q108.15 31.07 108.57 31.26L108.51 31.20L108.53 31.22Q108.44 33.84 108.48 36.39L108.32 36.23L108.39 36.30Q108.37 38.76 108.87 41.27Z"/><path fill="#e67994" d="M91.02 40.25L91.00 40.23L90.98 40.20Q87.59 40.40 85.96 39.87L86.00 39.91L85.85 39.76Q83.97 39.21 83.67 35.82L83.63 35.78L85.02 34.66L85.07 34.71Q85.71 34.09 86.47 33.60L86.64 33.77L86.62 33.75Q86.21 35.51 87.81 36.73L87.80 36.72L87.88 36.80Q89.16 37.82 91.29 37.62L91.30 37.64L91.21 37.55Q95.72 37.25 95.53 33.71L95.46 33.65L95.43 33.62Q95.29 31.38 92.66 30.16L92.65 30.14L92.76 30.25Q89.93 29.22 87.57 28.00L87.43 27.86L87.43 27.86Q85.01 26.66 84.02 21.98L84.05 22.01L83.90 21.85Q83.77 21.38 83.65 20.62L83.75 20.72L83.67 20.64Q83.70 19.98 83.78 19.41L83.64 19.28L83.68 19.31Q83.79 17.67 85.04 17.21L85.12 17.29L85.19 17.36Q87.58 16.48 91.58 16.67L91.45 16.54L91.46 16.54Q93.35 16.72 94.15 16.80L94.26 16.91L94.26 16.91Q95.62 16.98 96.69 17.44L96.74 17.49L96.67 17.42Q98.84 17.95 99.07 20.43L98.96 20.32L99.13 20.48Q98.07 21.18 95.86 22.51L95.71 22.36L95.80 22.45Q95.46 19.53 91.09 19.53L91.01 19.45L90.95 19.39Q89.11 19.45 88.12 20.14L88.07 20.09L88.05 20.07Q86.92 20.61 87.15 22.40L87.23 22.48L87.23 22.49Q87.48 24.67 90.45 26.20L90.48 26.23L90.46 26.21Q90.89 26.33 95.38 27.97L95.49 28.07L95.46 28.05Q98.06 29.51 98.48 33.89L98.47 33.88L98.41 33.82Q98.48 34.04 98.56 35.30L98.46 35.20L98.45 35.19Q98.68 38.12 97.11 39.22L97.08 39.18L97.04 39.14Q95.27 40.19 91.08 40.30ZM93.39 42.69L93.30 42.60L93.31 42.61Q94.69 42.62 96.67 42.62L96.78 42.73L96.67 42.62Q98.87 42.73 100.13 42.31L100.01 42.19L100.09 42.27Q101.33 41.45 101.25 39.67L101.25 39.67L101.23 39.65Q101.28 38.74 100.89 36.68L100.75 36.53L100.82 36.61Q99.92 31.94 97.83 30.08L97.82 30.07L97.77 30.02Q97.03 28.48 95.70 27.76L95.65 27.70L90.48 25.77L90.32 25.61Q90.06 25.51 89.61 25.28L89.57 25.24L89.60 25.00L89.42 24.49L89.57 24.64Q89.35 23.16 90.50 22.55L90.38 22.43L90.39 22.45Q91.22 21.94 92.93 21.75L92.95 21.77L92.97 21.79Q94.06 21.62 95.20 22.08L95.18 22.05L95.16 22.03Q95.34 22.26 95.53 23.09L95.55 23.12L95.56 23.13Q95.60 22.82 96.09 22.59L96.17 22.67L96.13 22.63Q96.88 23.57 96.99 24.71L96.96 24.67L97.08 24.80Q97.14 24.74 100.80 22.16L100.69 22.05L100.67 22.03Q100.52 19.52 99.08 18.83L99.10 18.86L99.13 18.89Q98.38 17.46 96.94 16.92L97.02 17.01L96.92 16.91Q94.82 16.30 91.63 16.30L91.61 16.28L91.49 16.16Q86.53 16.11 84.66 16.79L84.74 16.88L84.72 16.85Q83.44 17.36 83.32 19.03L83.30 19.01L83.24 18.95Q83.19 19.47 83.61 21.68L83.74 21.81L83.62 21.69Q84.46 25.62 86.63 27.86L86.54 27.77L86.54 27.77Q87.35 29.50 88.86 30.18L88.86 30.18L88.78 30.11Q90.30 30.80 94.22 32.37L94.37 32.51L94.17 32.35L94.94 32.82L94.90 32.82L94.97 32.89Q95.13 33.32 95.17 33.66L95.08 33.57L95.24 33.73Q95.28 37.16 91.36 37.31L91.22 37.17L91.28 37.23Q90.10 37.23 88.81 36.85L88.88 36.92L88.90 36.94Q88.48 36.03 88.48 35.30L88.56 35.38L88.47 35.30Q88.46 35.02 88.50 34.76L88.57 34.83L88.48 34.74Q88.23 35.14 87.43 35.63L87.34 35.54L87.43 35.62Q86.82 34.41 86.97 33.04L86.91 32.98L87.04 33.11Q84.87 34.21 83.27 35.62L83.30 35.65L83.38 35.72Q83.27 36.38 83.35 37.41L83.50 37.56L83.48 37.54Q83.75 39.22 85.05 39.98L85.09 40.02L85.15 40.09Q86.37 41.91 88.92 42.29L88.80 42.17L88.89 42.27Q90.42 42.46 93.35 42.65Z"/><path fill="#42e091" d="M17.32 15.83L17.33 15.84L17.31 15.82Q19.22 20.70 19.79 25.87L19.90 25.99L19.88 25.96Q23.51 21.75 29.41 16.92L29.51 17.01L29.41 16.92Q32.70 16.71 35.33 15.91L35.17 15.75L28.63 21.39L28.79 21.55Q25.30 24.42 22.44 27.27L22.36 27.19L22.45 27.28Q30.39 36.39 35.45 41.12L35.39 41.06L35.37 41.03Q32.26 40.09 29.93 39.94L30.03 40.04L30.07 40.08Q24.25 34.63 19.95 28.81L19.86 28.72L19.96 28.82Q20.07 35.45 18.21 40.78L18.13 40.70L18.20 40.77Q18.04 40.88 17.55 41.07L17.43 40.96L17.43 41.14L17.43 41.14Q17.34 41.28 14.79 42.19L14.76 42.17L14.75 42.16Q17.59 35.47 17.24 28.01L17.34 28.10L17.30 28.07Q16.89 20.65 13.35 14.14L13.47 14.26L13.99 14.51L14.43 14.84L14.51 14.88L14.40 14.77Q15.11 15.14 17.32 15.83ZM17.70 15.64L17.60 15.54L17.68 15.62Q15.32 14.97 12.69 13.45L12.79 13.54L12.66 13.41Q17.07 20.83 17.07 29.78L16.99 29.70L17.11 29.82Q17.06 36.77 14.09 42.82L13.97 42.70L16.11 41.95L16.13 41.97Q15.70 42.96 15.02 44.25L15.04 44.27L15.05 44.28Q17.29 43.48 19.24 43.06L19.11 42.93L19.32 42.91L19.28 42.88Q19.54 42.83 20.11 42.68L20.10 42.67L20.09 42.66Q21.83 36.82 21.94 32.02L21.85 31.93L21.77 31.86Q23.88 34.38 25.71 36.25L25.67 36.21L25.69 36.23Q26.95 37.41 29.96 40.38L29.99 40.42L30.02 40.44L30.02 40.45Q31.07 41.30 32.93 42.90L32.88 42.85L32.82 42.79Q36.74 43.55 40.20 45.26L40.11 45.17L40.16 45.21Q30.99 36.77 24.74 29.34L24.56 29.16L24.72 29.32Q29.09 25.01 37.84 16.40L37.77 16.34L37.91 16.47Q35.19 17.44 33.17 17.82L33.32 17.97L33.20 17.85Q34.55 16.99 36.87 14.97L36.80 14.90L36.85 14.96Q32.64 16.26 29.29 16.45L29.35 16.51L29.27 16.43Q26.47 18.77 21.59 23.45L21.63 23.49L21.49 23.35Q21.13 20.79 20.56 18.23L20.61 18.28L20.58 18.25Q19.48 18.18 18.49 17.84L18.33 17.67L18.51 17.85Q18.25 17.07 17.68 15.62Z"/><path fill="#d07eeb" d="M16.25 40.90L16.31 40.95L16.25 40.89Q15.01 39.27 13.71 36.18L13.67 36.14L11.68 31.14L11.49 30.96Q9.89 34.95 9.28 36.25L9.34 36.30L9.36 36.32Q7.94 39.28 6.34 41.19L6.31 41.15L6.39 41.24Q6.03 41.26 5.27 41.37L5.11 41.21L5.20 41.30Q5.26 33.93-0.57 27.99L-0.63 27.94L-0.62 27.94Q-2.47 26.02-4.49 24.53L-4.36 24.66L-4.44 24.58Q-2.44 25.28-0.57 25.59L-0.76 25.40L-0.68 25.48Q5.45 30.51 6.90 36.75L6.92 36.78L6.84 36.70Q7.66 34.78 8.84 31.58L8.87 31.61L8.99 31.73Q10.35 27.99 10.92 26.69L10.80 26.57L12.31 26.67L12.17 26.53Q13.15 28.35 14.33 31.63L14.35 31.64L14.30 31.59Q15.66 35.27 16.31 36.68L16.27 36.65L16.25 36.62Q18.02 30.29 23.51 25.72L23.55 25.77L23.62 25.84Q24.79 25.72 27.53 25.14L27.54 25.15L27.41 25.02Q18.85 31.12 17.67 41.10L17.56 40.98L17.03 40.99L16.95 40.91Q16.60 40.86 16.26 40.90ZM19.34 43.45L21.31 43.55L21.46 43.70Q21.00 42.02 21.00 40.50L21.08 40.58L21.08 40.59Q21.04 37.31 22.45 34.07L22.51 34.14L22.49 34.11Q24.51 29.62 28.62 26.54L28.56 26.48L28.57 26.48Q27.28 26.68 25.42 27.03L25.51 27.12L25.44 27.05Q27.34 25.34 28.64 24.42L28.65 24.44L26.24 25.00L26.26 25.01Q25.03 25.23 23.70 25.38L23.71 25.40L23.62 25.30Q18.51 29.60 16.57 34.62L16.53 34.59L16.57 34.63Q15.80 32.34 14.43 28.07L14.58 28.22L14.58 28.22Q14.17 28.15 13.90 28.15L13.97 28.22L13.38 28.16L13.33 28.12Q13.29 27.88 12.49 26.13L12.52 26.16L10.38 26.07L10.52 26.21Q9.47 28.94 7.38 34.57L7.35 34.54L7.41 34.61Q6.14 30.97 3.06 27.70L2.98 27.62L2.92 27.56Q2.82 27.73 2.51 27.69L2.35 27.52L1.89 27.52L1.81 27.45Q0.93 26.60-0.86 25.00L-0.82 25.04L-0.85 25.01Q-3.91 24.46-5.59 23.96L-5.63 23.93L-5.65 23.91Q5.07 31.34 4.69 41.66L4.72 41.70L4.64 41.62Q4.91 41.70 5.27 41.66L5.24 41.62L5.25 41.63Q5.66 41.64 5.85 41.64L5.80 41.59L5.81 41.60Q5.83 41.48 6.02 43.57L5.99 43.53L7.97 43.42L7.87 43.33Q10.58 40.62 12.82 34.87L12.73 34.78L12.82 34.87Q14.27 38.68 16.13 41.34L16.21 41.42L16.14 41.35Q16.43 41.30 16.69 41.31L16.81 41.43L16.78 41.40Q17.00 41.37 17.26 41.37L17.28 41.39L19.26 43.37Z"/><path fill="#8062d9" d="M126.90 40.47L126.87 40.45L126.87 40.45Q123.87 36.53 121.24 27.89L121.14 27.79L121.22 27.87Q120.42 25.59 119.62 23.46L119.67 23.50L116.92 32.40L116.81 32.29Q115.07 37.29 112.68 40.53L112.65 40.50L112.60 40.46Q111.90 40.66 110.26 40.82L110.19 40.75L110.18 40.73Q110.35 39.61 110.35 38.35L110.21 38.22L110.25 38.25Q110.34 32.33 107.59 26.20L107.62 26.23L107.45 26.06Q104.46 19.30 98.60 14.31L98.63 14.35L98.60 14.32Q100.62 14.88 102.98 15.42L103.13 15.56L103.08 15.52Q111.76 23.97 113.05 34.93L113.00 34.87L112.99 34.87Q114.73 31.66 116.18 26.30L116.04 26.16L116.02 26.13Q118.18 18.81 118.67 17.40L118.63 17.36L120.79 17.28L120.73 17.22Q121.63 19.45 122.28 21.77L122.24 21.73L123.34 26.04L123.50 26.20Q124.95 31.52 126.35 34.76L126.48 34.88L126.46 34.86Q128.01 23.12 135.92 15.77L136.02 15.87L136.07 15.92Q137.58 15.57 140.55 14.92L140.52 14.89L140.47 14.84Q135.12 19.12 132.07 25.24L132.02 25.20L132.18 25.35Q128.95 31.45 128.95 38.23L128.95 38.23L129.03 38.31Q128.95 39.33 129.03 40.47L129.07 40.51L127.88 40.35L127.89 40.36Q127.38 40.39 126.81 40.39ZM133.14 43.37L133.12 43.35L133.05 43.28Q131.81 39.71 131.92 35.83L131.96 35.87L131.81 35.72Q132.18 24.21 141.55 15.95L141.69 16.09L141.66 16.06Q140.62 16.21 138.68 16.74L138.76 16.82L138.70 16.76Q139.73 16.00 141.64 14.21L141.52 14.09L141.51 14.08Q138.98 14.99 136.05 15.48L135.93 15.36L135.97 15.40Q128.46 22.51 126.56 31.99L126.62 32.05L126.61 32.04Q126.07 30.43 123.21 18.97L123.24 19.00L123.21 18.97Q122.64 18.89 121.68 18.89L121.69 18.90L121.41 17.86L121.46 17.91Q121.44 17.46 121.21 16.97L121.14 16.90L118.24 16.90L118.30 16.96Q117.35 19.28 116.07 24.40L116.16 24.49L116.22 24.54Q114.85 29.57 113.86 32.04L113.91 32.09L113.77 31.96Q112.22 24.09 106.67 17.77L106.70 17.80L106.81 17.91Q106.33 17.85 105.37 17.66L105.24 17.52L105.27 17.56Q104.47 16.64 102.91 15.00L103.10 15.20L103.10 15.19Q99.62 14.30 97.45 13.50L97.53 13.58L97.52 13.57Q103.17 18.23 106.44 24.43L106.47 24.47L106.44 24.43Q109.93 31.08 109.93 38.09L109.79 37.95L109.92 38.08Q109.94 39.66 109.75 41.26L109.66 41.17L109.64 41.15Q109.84 41.12 110.30 41.03L110.33 41.06L110.37 41.10Q110.88 41.06 111.11 41.06L111.02 40.97L111.08 42.06L111.02 42.00Q111.10 42.53 111.17 43.06L111.08 42.97L111.16 43.05Q112.24 42.91 114.52 42.76L114.64 42.88L114.55 42.79Q118.19 37.40 120.93 28.00L120.91 27.98L120.92 27.99Q123.64 36.72 126.61 40.68L126.59 40.66L126.58 40.66Q127.22 40.83 128.05 40.95L128.01 40.90L127.97 40.86Q128.84 41.93 129.91 42.99L129.84 42.93L129.86 42.94Q130.68 43.05 133.08 43.31Z"/><path fill="#68d968" d="M59.67 19.25L59.65 19.23L59.52 19.10Q60.70 23.62 60.85 26.82L60.85 26.82L60.80 26.77Q61.41 26.92 65.79 27.04L65.74 26.99L65.77 27.02Q68.40 27.14 68.78 23.67L68.66 23.55L68.62 23.51Q68.80 21.75 67.89 20.84L67.89 20.84L67.97 20.92Q66.74 20.07 64.76 19.92L64.66 19.82L64.65 19.81Q61.41 19.58 59.55 19.12ZM60.92 28.71L61.04 28.84L61.04 28.84Q61.25 34.87 59.46 40.81L59.47 40.82L59.35 40.70Q58.13 41.04 55.54 42.07L55.54 42.07L55.52 42.05Q58.47 35.67 58.12 28.20L57.95 28.03L58.02 28.10Q57.82 20.86 54.51 14.35L54.51 14.35L54.42 14.26Q59.21 16.99 66.17 16.99L66.22 17.03L66.36 17.18Q71.87 17.05 72.13 20.59L72.14 20.60L72.21 20.66Q72.22 21.21 72.14 21.82L72.07 21.75L72.18 23.08L71.99 22.89Q71.20 26.86 69.07 28.57L69.17 28.67L69.08 28.57Q68.41 29.40 67.39 29.40L67.39 29.40L64.69 29.29L64.66 29.26Q70.24 36.48 74.77 41.05L74.78 41.06L74.79 41.06Q72.63 40.35 69.70 40.01L69.77 40.08L69.73 40.04Q65.85 35.97 60.94 28.73ZM69.62 40.43L69.60 40.40L69.80 40.30L71.18 41.67L71.12 41.62Q71.78 42.24 72.43 42.85L72.44 42.86L72.38 42.81Q75.90 43.40 79.48 45.26L79.53 45.30L79.54 45.32Q72.58 38.54 67.17 31.62L67.18 31.63L68.79 31.49L68.82 31.51Q71.94 31.55 73.27 27.02L73.26 27.01L73.35 27.10Q73.96 24.82 73.96 22.12L74.09 22.24L74.05 22.20Q74.05 19.92 72.34 19.27L72.36 19.30L72.34 19.28Q72.13 18.80 71.56 18.11L71.58 18.13L71.58 18.13Q69.94 16.72 66.29 16.65L66.24 16.60L66.36 16.72Q58.39 16.48 53.70 13.47L53.73 13.49L53.62 13.39Q57.47 20.31 57.81 28.00L57.69 27.89L57.77 27.96Q58.14 35.95 55.02 42.81L54.93 42.71L54.90 42.69Q56.32 42.27 57.12 41.97L57.08 41.93L56.05 44.18L56.11 44.24Q58.83 43.18 61.49 42.69L61.49 42.69L61.53 42.73Q62.81 37.61 63.00 32.40L63.01 32.41L62.83 32.23Q66.37 37.21 69.53 40.33ZM68.40 22.53L68.42 22.55L68.31 22.44Q68.32 22.68 68.32 23.02L68.34 23.04L68.41 23.69L68.39 23.66Q68.39 24.76 67.70 25.72L67.76 25.78L67.73 25.75Q67.02 26.40 66.10 26.59L66.12 26.61L66.09 26.58Q65.85 26.60 64.25 26.64L64.41 26.80L64.24 26.64Q63.83 26.83 62.99 26.72L62.87 26.59L63.00 26.72Q62.88 25.19 62.54 22.15L62.53 22.14L62.42 22.03Q63.84 22.24 64.53 22.24L64.63 22.34L64.45 22.16Q66.44 22.32 68.38 22.51Z"/><path fill="#977fe0" d="M37.68 40.29L37.67 40.27L35.10 33.25L35.17 33.32Q30.77 20.69 24.83 14.30L24.96 14.43L24.93 14.40Q26.89 15.41 29.48 16.02L29.55 16.09L29.46 16.00Q34.65 22.33 38.99 35.08L38.86 34.96L38.98 35.07Q41.94 26.88 42.63 25.29L42.70 25.35L42.64 25.30Q45.04 19.70 47.85 16.39L47.95 16.48L47.86 16.39Q49.99 16.09 52.62 15.21L52.49 15.08L52.50 15.09Q48.05 19.82 45.01 27.06L44.97 27.02L45.05 27.09Q43.65 30.76 39.96 40.28L39.92 40.24L39.93 40.25Q39.35 40.24 38.78 40.20L38.80 40.22L38.77 40.19Q38.20 40.19 37.63 40.23ZM42.61 42.63L42.52 42.54L42.57 42.59Q45.32 32.54 46.88 28.51L47.01 28.63L46.96 28.59Q50.03 20.96 54.45 16.09L54.42 16.06L54.37 16.01Q53.27 16.32 51.17 17.04L51.21 17.08L52.29 15.69L52.34 15.74Q52.92 15.06 53.53 14.41L53.59 14.47L53.67 14.55Q50.82 15.51 47.81 16.08L47.80 16.07L47.80 16.07Q43.47 21.44 39.58 32.90L39.45 32.77L39.52 32.84Q35.78 22.63 32.59 18.25L32.57 18.23L32.59 18.25Q32.19 18.16 31.32 18.01L31.43 18.13L31.34 18.03Q31.09 17.63 29.49 15.58L29.52 15.60L29.46 15.55Q26.55 14.88 23.85 13.47L23.95 13.57L23.83 13.45Q30.46 20.54 34.83 33.33L34.90 33.39L34.86 33.35Q36.13 37.06 37.31 40.64L37.21 40.54L37.30 40.63Q37.61 40.63 38.45 40.52L38.43 40.51L38.56 40.63Q38.81 41.23 39.50 42.56L39.55 42.61L39.47 42.53Q40.29 42.44 41.01 42.51L41.01 42.51L41.17 42.67Q41.94 42.71 42.70 42.71Z"/><path d="M17 7 C81 27,88 36,142 25" stroke="#dfdf57" fill="none"/></svg>