<svg xmlns="http://www.w3.org/2000/svg" width="150" height="50" viewBox="0,0,150,50"><rect width="100%" height="100%" fill="white"/><path d="M5 4 C92 4,56 46,132 42" stroke="#62e862" fill="none"/><path fill="#ec9d82" d="M72.28 28.80L72.37 28.89L72.36 28.88Q69.76 28.79 68.46 29.93L68.44 29.90L68.51 29.98Q67.06 31.19 67.25 33.70L67.25 33.70L67.24 33.70Q67.42 36.54 68.60 37.61L68.69 37.69L68.71 37.72Q70.04 38.85 72.13 38.70L72.18 38.75L72.23 38.80Q74.42 38.85 75.82 37.60L75.68 37.45L75.76 37.53Q77.11 36.41 77.30 33.85L77.27 33.82L77.32 33.88Q77.75 29.02 72.38 28.90ZM72.19 41.38L72.07 41.27L70.49 41.25L70.60 41.36Q67.74 41.35 66.26 39.94L66.20 39.89L66.22 39.91Q65.15 38.80 64.88 36.86L65.06 37.04L64.99 36.97Q64.89 35.92 64.74 33.71L64.69 33.66L64.65 33.62Q64.66 32.72 64.55 30.47L64.44 30.36L64.45 30.37Q64.50 28.64 65.45 27.49L65.28 27.32L65.37 27.41Q67.18 25.99 71.90 26.14L71.86 26.10L71.77 26.00Q76.69 26.16 78.51 27.69L78.48 27.66L78.59 27.76Q80.05 28.95 79.86 32.15L79.96 32.25L79.83 32.12Q79.68 35.74 79.60 36.16L79.49 36.05L79.57 36.12Q79.21 38.36 77.88 39.54L78.01 39.67L77.88 39.54Q75.91 41.30 72.10 41.30ZM76.75 43.66L76.77 43.68L76.91 43.82Q78.36 43.82 80.26 43.67L80.24 43.65L80.17 43.58Q80.72 43.56 80.72 43.40L80.73 43.41L80.78 43.47Q80.80 43.41 80.76 43.26L80.66 43.15L80.62 43.12Q80.62 43.01 80.62 42.89L80.60 42.87L80.65 42.92Q80.64 42.65 80.99 42.34L80.91 42.26L81.02 42.37Q81.75 41.08 81.75 39.18L81.92 39.35L81.89 39.32Q81.80 38.28 81.70 35.86L81.66 35.82L81.73 35.89Q81.66 33.50 81.51 32.39L81.59 32.48L81.46 32.34Q81.15 30.28 80.23 29.14L80.19 29.10L79.97 29.00L79.88 28.90Q79.82 28.35 79.02 27.43L78.97 27.38L78.90 27.31Q76.59 25.57 71.68 25.57L71.76 25.65L70.02 25.67L70.03 25.68Q66.68 25.64 64.97 27.01L65.00 27.04L65.07 27.11Q64.15 28.17 64.19 30.19L64.18 30.18L64.16 30.16Q64.22 30.64 64.35 31.89L64.27 31.81L64.29 31.83Q64.37 33.04 64.33 33.49L64.38 33.54L64.47 33.63Q64.58 36.56 64.66 37.02L64.71 37.07L64.73 37.09Q65.01 39.12 65.92 40.26L65.88 40.22L66.12 40.54L66.07 40.48Q67.03 43.08 70.76 43.49L70.76 43.50L70.78 43.52Q71.55 43.53 76.81 43.72ZM74.03 31.00L74.16 31.14L74.02 31.00Q74.90 31.04 76.57 31.57L76.69 31.69L76.60 31.60Q76.91 32.29 76.88 33.78L76.94 33.84L76.92 33.82Q76.94 37.42 74.05 38.18L73.87 38.00L73.88 38.01Q73.18 38.23 72.16 38.35L72.24 38.43L72.20 38.39Q71.17 38.46 69.45 37.85L69.43 37.82L69.53 37.93Q69.13 37.07 69.16 35.58L69.28 35.70L69.17 35.59Q69.35 33.37 70.72 32.34L70.63 32.26L70.67 32.29Q71.61 31.44 74.16 31.13Z"/><path fill="#5353e3" d="M57.13 23.13L57.02 23.02L57.05 23.05Q55.17 25.70 52.51 31.33L52.65 31.48L50.65 35.72L50.63 35.70Q49.70 37.55 48.37 39.80L48.41 39.84L48.28 39.71Q48.91 39.88 47.23 39.92L47.15 39.84L47.10 39.79Q47.19 39.87 45.93 39.87L45.87 39.81L45.90 39.84Q45.10 38.28 42.17 31.12L42.21 31.16L42.26 31.21Q39.98 25.74 37.89 22.73L38.05 22.89L37.94 22.78Q38.66 25.82 38.66 28.98L38.83 29.16L38.81 29.14Q38.81 35.65 35.84 41.20L35.81 41.17L35.73 41.09Q34.35 41.39 31.99 42.11L32.07 42.19L32.17 42.29Q35.85 36.60 35.85 29.37L35.69 29.21L35.73 29.25Q35.73 20.31 30.32 13.34L30.30 13.31L30.45 13.46Q31.98 14.08 34.34 14.76L34.38 14.81L34.45 14.87Q41.38 21.50 47.47 34.82L47.45 34.80L47.59 34.94Q51.06 27.91 53.27 24.41L53.26 24.40L53.16 24.30Q56.70 18.47 60.66 15.00L60.76 15.11L60.80 15.15Q61.94 14.80 64.30 14.04L64.43 14.17L64.42 14.17Q59.42 20.77 59.42 29.38L59.32 29.28L59.39 29.34Q59.38 36.00 62.81 41.52L62.76 41.48L62.82 41.53Q61.52 41.26 58.77 40.65L58.77 40.64L58.67 40.54Q56.42 35.85 56.42 29.87L56.44 29.90L56.44 29.90Q56.43 26.47 57.12 23.12ZM58.51 40.95L58.46 40.91L58.45 40.90Q59.18 41.05 60.63 41.32L60.62 41.31L60.58 41.27Q61.16 42.15 62.11 43.64L62.05 43.58L62.03 43.56Q64.21 44.02 67.67 45.24L67.66 45.23L67.66 45.23Q61.37 38.86 61.37 29.04L61.49 29.16L61.34 29.01Q61.38 21.32 65.75 15.19L65.79 15.22L63.53 15.86L63.65 15.98Q64.69 14.47 65.34 13.59L65.15 13.40L65.16 13.42Q63.33 14.10 60.71 14.64L60.82 14.75L60.78 14.71Q53.98 20.77 47.92 33.37L47.83 33.28L47.97 33.42Q42.66 22.32 37.71 17.07L37.79 17.15L37.78 17.14Q37.44 17.11 36.87 16.99L36.85 16.97L35.57 15.61L35.69 15.74Q35.09 15.06 34.40 14.45L34.42 14.46L34.43 14.48Q31.23 13.33 29.44 12.61L29.57 12.73L29.54 12.71Q35.52 19.91 35.52 29.31L35.61 29.40L35.58 29.36Q35.51 36.91 31.36 42.77L31.28 42.69L31.27 42.69Q32.13 42.63 33.42 42.21L33.36 42.14L33.34 42.12Q33.16 42.33 31.75 44.42L31.87 44.54L31.84 44.51Q33.58 43.97 37.08 43.21L37.16 43.28L37.04 43.16Q40.83 36.18 40.64 28.42L40.63 28.41L40.75 28.52Q42.12 32.37 45.59 40.25L45.70 40.36L45.54 40.21Q45.86 40.22 46.09 40.22L46.10 40.23L46.57 40.16L46.63 40.23Q47.16 40.98 47.96 42.28L47.90 42.23L47.96 42.28Q49.62 42.30 49.62 42.30L49.53 42.21L49.53 42.21Q50.53 42.18 51.17 42.26L51.07 42.16L51.08 42.17Q52.68 38.17 56.03 30.17L56.05 30.19L56.15 30.29Q55.89 35.59 58.47 40.92Z"/><path d="M6 5 C61 5,68 48,131 47" stroke="#7cd95d" fill="none"/><path fill="#997dec" d="M97.94 20.09L97.92 20.06L97.93 20.08Q93.62 20.07 89.93 19.08L89.90 19.05L90.03 19.18Q91.52 23.72 91.71 28.56L91.68 28.52L91.58 28.42Q91.90 33.34 90.68 37.95L90.70 37.97L90.69 37.96Q93.38 37.23 96.89 37.08L96.90 37.09L96.92 37.11Q100.82 36.90 102.61 34.46L102.69 34.55L102.57 34.42Q104.21 32.48 104.40 28.37L104.34 28.32L104.30 28.27Q104.41 26.56 103.96 24.85L103.92 24.81L103.99 24.88Q102.70 20.13 97.98 20.13ZM86.04 42.11L86.15 42.22L86.08 42.15Q88.90 36.40 88.90 29.70L89.00 29.80L89.04 29.84Q88.87 21.15 84.57 14.14L84.64 14.21L84.66 14.23Q89.99 16.97 98.25 17.16L98.15 17.06L98.10 17.01Q106.99 17.22 107.34 24.38L107.48 24.52L107.31 24.35Q107.42 27.05 107.38 28.50L107.52 28.64L107.38 28.50Q107.33 33.21 106.50 35.38L106.51 35.40L106.45 35.34Q106.20 36.61 105.44 37.45L105.41 37.41L105.40 37.41Q104.07 38.97 101.45 39.47L101.28 39.30L101.31 39.33Q99.89 39.78 96.89 40.01L96.72 39.84L96.84 39.96Q90.59 40.30 85.99 42.05ZM103.99 42.01L104.08 42.10L103.98 42.00Q106.79 41.73 108.43 40.24L108.30 40.11L108.46 40.27Q109.46 38.31 109.42 35.57L109.45 35.59L109.54 35.68Q109.61 34.38 109.46 30.88L109.34 30.77L108.94 26.17L109.08 26.31Q108.89 24.04 107.94 21.94L107.84 21.84L107.83 21.83Q107.36 20.94 106.68 20.30L106.67 20.29L106.70 20.17L106.72 20.19Q104.92 17.13 100.50 16.75L100.66 16.91L100.57 16.81Q97.91 16.71 90.91 15.98L90.78 15.86L90.78 15.86Q87.67 15.56 83.97 13.54L83.88 13.45L83.84 13.40Q88.67 20.79 88.67 29.55L88.66 29.53L88.70 29.58Q88.83 36.71 85.48 42.88L85.33 42.72L85.40 42.80Q85.98 42.42 87.31 41.93L87.35 41.97L87.44 42.06Q87.13 42.93 86.26 44.42L86.08 44.24L86.20 44.36Q89.14 43.19 92.49 42.70L92.51 42.71L92.57 42.77Q94.67 42.47 98.32 42.36L98.38 42.41L98.20 42.24Q102.21 42.25 104.04 42.06ZM103.98 28.33L104.08 28.44L103.95 28.31Q103.61 36.33 96.91 36.72L96.94 36.75L97.04 36.85Q94.95 36.82 92.90 37.09L93.02 37.21L93.03 37.22Q93.61 33.23 93.61 29.58L93.75 29.71L93.69 29.65Q93.58 25.85 92.86 22.01L92.94 22.09L92.90 22.05Q95.14 22.39 99.82 22.39L99.91 22.48L99.94 22.50Q101.32 22.37 102.96 23.32L102.95 23.30L102.82 23.18Q104.17 25.52 104.02 28.37Z"/><path fill="#c984e0" d="M122.66 20.14L122.65 20.13L122.55 20.03Q118.23 20.01 114.54 19.02L114.67 19.16L114.67 19.16Q116.08 23.61 116.27 28.44L116.37 28.55L116.26 28.43Q116.42 33.20 115.20 37.81L115.26 37.86L115.25 37.86Q118.10 37.28 121.60 37.13L121.53 37.06L121.70 37.22Q125.60 37.02 127.39 34.58L127.29 34.48L127.23 34.42Q128.83 32.44 129.02 28.33L129.13 28.44L129.13 28.43Q129.20 26.68 128.74 24.97L128.72 24.94L128.62 24.84Q127.39 20.15 122.67 20.15ZM110.78 42.18L110.68 42.08L110.64 42.04Q113.66 36.50 113.66 29.80L113.54 29.68L113.62 29.75Q113.55 21.15 109.24 14.15L109.26 14.16L109.31 14.22Q114.51 16.82 122.77 17.01L122.90 17.14L122.79 17.03Q131.63 17.19 131.97 24.35L132.11 24.49L132.04 24.42Q132.07 27.04 132.03 28.48L132.15 28.61L132.08 28.54Q132.06 33.27 131.22 35.44L131.31 35.52L131.23 35.44Q130.72 36.46 129.96 37.30L130.02 37.36L129.99 37.33Q128.65 38.88 126.02 39.38L125.96 39.31L126.01 39.36Q124.56 39.78 121.55 40.01L121.54 40.00L121.44 39.89Q115.41 40.45 110.81 42.20ZM128.61 41.97L128.72 42.07L128.59 41.94Q131.42 41.69 133.06 40.20L133.02 40.17L133.07 40.22Q134.20 38.38 134.16 35.64L134.22 35.70L134.10 35.58Q134.24 34.34 134.09 30.84L134.17 30.92L133.64 26.21L133.74 26.31Q133.43 23.91 132.48 21.82L132.63 21.96L132.60 21.94Q131.98 20.89 131.29 20.24L131.27 20.22L131.34 20.14L131.37 20.17Q129.68 17.23 125.27 16.85L125.21 16.79L125.33 16.91Q122.59 16.72 115.59 16.00L115.56 15.97L115.44 15.85Q112.30 15.53 108.60 13.51L108.51 13.41L108.52 13.42Q113.46 20.91 113.46 29.67L113.37 29.58L113.39 29.60Q113.46 36.67 110.11 42.84L110.12 42.85L110.14 42.87Q110.64 42.42 111.98 41.93L112.11 42.06L112.00 41.95Q111.67 42.80 110.79 44.28L110.86 44.36L110.84 44.33Q113.87 43.25 117.22 42.75L117.17 42.70L117.22 42.76Q119.28 42.42 122.94 42.31L122.97 42.34L123.01 42.38Q126.92 42.29 128.75 42.10ZM128.75 28.43L128.78 28.47L128.69 28.38Q128.39 36.45 121.69 36.83L121.68 36.82L121.72 36.86Q119.71 36.91 117.65 37.17L117.57 37.09L117.63 37.16Q118.34 33.29 118.34 29.64L118.39 29.69L118.37 29.67Q118.38 25.99 117.66 22.14L117.51 22.00L117.61 22.09Q119.95 22.53 124.64 22.53L124.64 22.54L124.46 22.36Q126.01 22.39 127.65 23.34L127.65 23.34L127.58 23.27Q128.76 25.44 128.61 28.30Z"/><path d="M4 45 C71 6,90 33,135 19" stroke="#e8977c" fill="none"/><path d="M16 14 C73 37,67 35,143 14" stroke="#7474e0" fill="none"/><path d="M2 8 C69 40,70 30,146 40" stroke="#e174e1" fill="none"/><path fill="#89ea89" d="M21.59 29.02L21.64 29.07L21.66 29.09Q19.89 29.04 18.65 30.47L18.56 30.37L18.55 30.36Q17.30 31.78 17.11 33.68L17.22 33.79L17.23 33.80Q16.92 35.78 18.01 36.75L18.01 36.75L18.02 36.76Q19.10 37.72 21.19 37.61L21.14 37.56L21.30 37.72Q23.24 37.41 24.35 36.73L24.37 36.75L24.38 36.76Q25.48 35.62 25.48 34.05L25.59 34.17L25.61 34.19Q25.54 33.73 25.46 33.35L25.56 33.45L25.39 33.28Q25.60 31.74 24.50 30.39L24.54 30.43L24.52 30.41Q23.26 28.91 21.59 29.02ZM21.18 40.15L21.26 40.23L21.35 40.32Q16.89 40.23 15.48 39.47L15.52 39.52L15.42 39.41Q14.54 38.80 14.35 37.09L14.30 37.03L14.20 36.94Q14.29 36.38 14.33 35.65L14.33 35.66L14.18 35.51Q14.34 34.57 14.34 34.11L14.40 34.17L14.45 34.22Q14.76 31.22 14.91 30.53L15.06 30.68L15.02 30.64Q15.48 28.70 16.32 27.29L16.30 27.27L16.21 27.18Q18.87 22.80 24.81 16.44L24.81 16.44L24.79 16.42Q27.47 16.14 29.68 15.34L29.78 15.44L29.82 15.48Q22.89 22.86 19.69 27.09L19.72 27.11L19.79 27.18Q20.66 26.57 21.96 26.57L21.99 26.60L21.93 26.54Q25.20 26.50 26.72 28.44L26.82 28.55L26.87 28.59Q28.14 30.17 28.48 33.71L28.42 33.65L28.43 33.65Q28.49 34.36 28.49 34.97L28.55 35.04L28.65 35.13Q28.51 38.11 26.30 39.18L26.33 39.21L26.31 39.19Q25.19 39.90 21.31 40.28ZM23.49 42.57L23.57 42.66L23.50 42.58Q24.88 42.63 26.85 42.70L26.73 42.58L26.78 42.63Q28.36 42.65 29.92 41.92L29.93 41.93L30.11 42.11Q31.03 41.13 31.03 39.34L31.12 39.43L31.14 39.45Q31.16 38.97 30.99 37.98L31.02 38.02L30.88 37.87Q30.81 36.99 30.81 36.53L30.71 36.43L30.83 36.55Q29.84 31.72 28.25 29.82L28.26 29.83L28.33 29.90Q28.24 29.77 28.08 29.54L28.08 29.54L27.73 29.26L27.73 29.30L27.76 29.33Q27.35 28.77 26.74 27.81L26.76 27.84L26.77 27.84Q25.82 26.86 23.84 26.40L23.85 26.41L23.91 26.47Q24.99 24.74 27.96 21.04L28.11 21.19L32.33 15.89L32.16 15.73Q30.74 16.75 28.35 17.51L28.38 17.54L28.36 17.52Q29.28 16.53 31.07 14.56L31.09 14.58L31.06 14.55Q28.53 15.48 24.65 16.05L24.77 16.17L24.79 16.19Q19.05 22.07 16.08 27.02L16.13 27.07L16.05 26.99Q14.42 29.39 13.85 35.64L13.97 35.76L14.02 35.80Q13.88 36.31 13.96 37.27L13.93 37.24L14.00 37.31Q14.04 39.02 15.14 39.94L15.21 40.00L15.19 39.98Q15.52 40.09 15.49 40.13L15.47 40.11L15.40 40.05Q15.80 40.97 16.60 41.39L16.60 41.39L16.68 41.47Q18.14 42.17 20.08 42.36L19.97 42.25L19.99 42.27Q19.99 42.27 23.49 42.57ZM23.26 31.34L23.35 31.43L23.31 31.39Q23.86 31.26 24.82 31.75L24.75 31.69L24.79 31.73Q25.19 32.74 25.19 33.39L25.27 33.46L25.11 33.31Q25.45 35.32 24.49 36.31L24.47 36.28L24.34 36.15Q23.30 36.90 21.21 37.21L21.35 37.35L21.32 37.32Q19.79 37.23 19.25 36.97L19.18 36.90L19.19 36.90Q19.11 36.56 19.11 36.25L19.04 36.18L19.12 36.26Q18.80 32.90 21.74 31.61L21.69 31.56L21.83 31.70Q22.62 31.38 23.38 31.46Z"/></svg>