<svg xmlns="http://www.w3.org/2000/svg" width="150" height="50" viewBox="0,0,150,50"><rect width="100%" height="100%" fill="white"/><path fill="#8aea6a" d="M67.07 32.86L67.15 32.94L67.10 32.89Q70.28 32.60 73.48 32.72L73.42 32.67L73.43 32.67Q73.33 30.06 73.33 27.66L73.37 27.70L73.36 27.69Q73.35 25.21 73.54 22.66L73.65 22.77L73.56 22.67Q72.29 24.33 67.07 32.86ZM77.15 40.39L77.16 40.40L77.00 40.24Q75.29 39.90 73.50 39.82L73.53 39.86L73.70 40.02Q73.44 37.59 73.32 35.12L73.28 35.07L73.37 35.16Q68.02 34.95 63.29 36.36L63.21 36.27L63.27 36.33Q63.41 35.87 63.60 34.88L63.64 34.91L63.46 34.73Q65.38 31.71 68.96 25.42L68.84 25.31L68.96 25.42Q71.83 20.53 75.26 16.64L75.31 16.70L75.19 16.58Q76.11 16.43 77.79 16.17L77.86 16.24L77.73 16.11Q75.91 22.62 75.91 29.67L75.96 29.72L75.92 29.68Q75.91 31.15 75.98 32.64L75.90 32.55L77.29 32.76L77.25 32.72Q77.90 32.81 78.51 32.92L78.46 32.86L78.49 32.89Q78.62 33.91 78.89 35.85L78.80 35.76L78.94 35.90Q77.66 35.57 76.17 35.38L76.08 35.29L76.14 35.34Q76.32 37.31 77.00 40.24ZM78.75 32.51L78.83 32.59L78.71 32.47Q78.60 32.48 78.41 32.48L78.40 32.46L77.95 32.40L78.07 32.51Q77.90 30.97 77.90 29.56L77.84 29.51L77.96 29.62Q77.85 23.12 79.90 17.10L79.88 17.07L79.87 17.07Q79.20 17.43 77.76 17.81L77.75 17.81L77.73 17.78Q77.88 16.95 78.34 15.54L78.43 15.62L78.43 15.63Q77.04 15.92 74.99 16.15L75.12 16.28L75.12 16.28Q71.04 20.46 65.82 29.82L65.87 29.87L67.99 26.24L67.96 26.21Q67.65 27.35 67.38 27.92L67.30 27.84L62.93 36.95L62.86 36.88Q63.51 36.72 64.65 36.34L64.59 36.28L64.45 36.52L64.55 36.62Q64.39 37.26 64.08 38.51L64.12 38.55L64.10 38.53Q68.25 37.23 73.08 37.42L73.02 37.36L72.98 37.32Q73.16 38.41 73.35 40.39L73.29 40.34L73.27 40.32Q74.26 40.24 75.32 40.35L75.39 40.42L75.41 40.44Q75.49 41.05 75.76 42.42L75.81 42.47L75.87 42.53Q77.70 42.70 80.71 43.61L80.77 43.66L80.68 43.58Q79.70 41.46 78.79 38.18L78.85 38.24L80.26 38.67L80.28 38.69Q80.88 38.83 81.57 39.17L81.55 39.15L81.62 39.23Q80.88 36.77 80.72 35.09L80.70 35.07L80.68 35.05Q80.03 34.82 78.89 34.59L78.99 34.69L79.05 34.75Q78.84 33.47 78.84 32.60ZM70.81 32.41L70.68 32.28L70.70 32.30Q71.45 30.99 73.01 28.44L72.99 28.42L72.99 28.42Q73.09 29.48 73.05 30.43L73.10 30.48L72.94 30.31Q72.99 31.35 73.02 32.30L73.12 32.40L73.15 32.43Q72.45 32.26 71.87 32.26L71.94 32.32L72.02 32.41Q71.38 32.37 70.77 32.37Z"/><path fill="#d646b2" d="M43.58 30.60L43.66 30.67L43.60 30.61Q43.64 30.66 47.03 30.62L47.04 30.63L46.93 30.52Q49.34 30.64 50.40 30.68L50.40 30.67L50.24 30.52Q49.37 27.82 46.93 22.18L46.93 22.18L46.77 22.02Q46.38 23.61 45.33 26.46L45.20 26.33L45.33 26.46Q44.24 29.27 43.67 30.68ZM51.43 33.07L51.49 33.13L51.51 33.15Q49.12 33.01 46.92 33.05L46.91 33.04L46.89 33.02Q44.79 33.21 42.51 33.41L42.39 33.28L42.47 33.37Q41.02 36.86 37.78 41.05L37.66 40.92L37.62 40.89Q35.18 41.65 33.81 42.14L33.77 42.10L33.81 42.14Q38.77 36.33 43.46 22.97L43.54 23.05L43.58 23.10Q44.80 19.63 46.17 16.39L46.23 16.45L46.21 16.43Q46.50 16.41 46.84 16.41L46.81 16.38L47.54 16.39L47.45 16.30Q48.34 17.80 53.17 29.45L53.12 29.40L53.15 29.43Q56.41 37.25 60.41 41.40L60.42 41.42L60.39 41.38Q59.95 41.33 56.07 40.45L55.90 40.28L55.91 40.29Q53.37 37.18 51.39 33.03ZM55.89 40.69L55.88 40.69L56.47 40.78L56.54 40.85Q56.81 40.89 57.12 41.01L57.13 41.02L57.01 40.90Q57.33 41.25 59.15 43.27L59.27 43.39L59.32 43.44Q62.91 44.29 65.31 45.32L65.18 45.18L65.20 45.21Q59.74 40.69 55.74 32.70L55.78 32.74L55.67 32.63Q54.09 29.37 52.64 25.41L52.66 25.43L49.94 17.96L50.01 18.03Q49.71 18.07 49.48 18.07L49.47 18.05L48.89 18.01L48.84 17.96Q48.58 17.40 47.86 16.03L47.78 15.94L47.88 16.04Q47.37 16.07 46.91 16.03L46.92 16.04L46.92 16.04Q46.45 15.99 45.92 15.99L45.96 16.03L45.80 15.87Q44.39 19.79 40.51 29.96L40.63 30.08L40.60 30.05Q37.45 37.97 32.80 42.77L32.77 42.74L32.77 42.73Q33.90 42.42 35.92 41.81L35.86 41.75L35.78 41.67Q35.14 42.67 33.58 44.46L33.49 44.38L33.62 44.50Q35.31 43.83 39.23 43.07L39.14 42.98L39.13 42.97Q42.50 38.57 44.06 35.34L44.10 35.37L44.21 35.48Q45.93 35.34 48.25 35.38L48.23 35.36L48.29 35.42Q50.91 35.33 52.28 35.41L52.24 35.37L52.34 35.47Q53.46 37.69 55.82 40.63ZM48.12 25.95L48.14 25.98L48.21 26.04Q49.05 28.10 49.81 30.19L49.82 30.21L46.51 30.20L46.55 30.24Q47.15 28.84 48.22 26.06Z"/><path fill="#ed7c98" d="M122.01 40.09L122.01 40.09L119.85 40.21L119.92 40.28Q119.43 40.25 118.46 40.31L118.52 40.36L118.49 40.33Q117.59 40.46 117.10 40.46L117.04 40.41L117.08 40.45Q115.34 40.35 114.32 39.51L114.47 39.66L114.44 39.64Q115.17 38.46 116.80 36.32L116.90 36.43L116.87 36.39Q118.03 37.86 120.24 37.63L120.23 37.62L120.36 37.74Q121.20 37.56 121.84 36.91L121.86 36.93L121.81 36.88Q122.40 36.17 122.29 35.30L122.42 35.44L122.46 35.47Q122.33 30.85 122.41 26.28L122.35 26.23L122.28 26.16Q122.45 21.68 122.99 17.08L122.99 17.08L122.82 16.91Q124.87 16.83 127.00 15.80L126.91 15.71L126.93 15.73Q125.15 22.55 125.15 29.79L125.21 29.85L125.15 29.79Q125.06 33.24 125.52 36.74L125.51 36.73L125.68 36.90Q125.65 37.14 125.65 37.48L125.69 37.52L125.61 37.44Q125.73 38.13 125.50 38.66L125.46 38.63L125.34 38.51Q124.86 39.85 122.05 40.12ZM126.90 42.88L126.92 42.91L127.36 43.00L127.65 42.87L127.79 42.63L127.84 42.68Q128.10 42.37 128.18 42.25L128.22 42.30L128.16 42.23Q128.36 41.07 128.09 40.08L128.24 40.22L128.25 40.23Q126.83 34.36 127.09 28.00L127.10 28.01L127.03 27.94Q127.37 21.91 129.15 16.01L129.04 15.89L129.14 15.99Q128.24 16.62 126.98 17.34L127.00 17.36L127.01 17.37Q127.20 16.61 127.62 15.08L127.52 14.99L127.55 15.01Q125.11 16.43 122.45 16.73L122.36 16.64L122.38 16.66Q122.16 21.20 122.08 26.15L121.91 25.98L121.93 25.99Q122.01 32.05 122.09 35.48L122.06 35.45L122.09 35.48Q121.98 37.09 120.23 37.24L120.35 37.36L120.24 37.24Q118.59 37.42 116.91 35.79L117.00 35.87L116.92 35.80Q114.79 38.24 113.84 39.80L113.98 39.93L113.91 39.86Q114.53 40.49 115.56 40.71L115.57 40.72L115.62 40.78Q115.43 40.81 115.16 41.04L115.27 41.15L115.27 41.15Q116.60 41.99 118.58 42.25L118.74 42.41L118.72 42.39Q119.07 42.40 122.36 42.70L122.41 42.75L122.40 42.74Q125.69 43.04 127.06 43.04Z"/><path d="M11 43 C82 42,71 48,139 45" stroke="#8e74dc" fill="none"/><path d="M11 35 C77 28,95 40,148 9" stroke="#e95ce9" fill="none"/><path fill="#66ea87" d="M19.04 30.72L18.93 30.61L19.01 30.69Q18.92 30.59 22.30 30.56L22.26 30.52L22.25 30.51Q24.61 30.58 25.68 30.62L25.57 30.51L25.64 30.58Q24.60 27.71 22.16 22.08L22.18 22.09L22.26 22.17Q21.67 23.56 20.62 26.42L20.50 26.30L20.53 26.32Q19.51 29.21 18.94 30.62ZM26.78 33.09L26.89 33.20L26.82 33.13Q24.42 32.98 22.21 33.02L22.40 33.21L22.21 33.02Q20.00 33.09 17.71 33.28L17.86 33.42L17.79 33.35Q16.15 36.66 12.92 40.85L13.02 40.95L13.02 40.95Q10.34 41.48 8.97 41.97L9.02 42.02L9.04 42.04Q14.19 36.41 18.87 23.05L18.86 23.04L18.84 23.02Q20.16 19.65 21.53 16.42L21.40 16.29L21.47 16.36Q21.91 16.49 22.25 16.49L22.10 16.34L22.93 16.45L22.91 16.42Q23.55 17.68 28.38 29.33L28.41 29.35L28.39 29.33Q31.65 37.16 35.65 41.31L35.66 41.33L35.78 41.44Q35.14 41.18 31.26 40.31L31.40 40.46L31.30 40.35Q28.74 37.22 26.76 33.07ZM31.29 40.76L31.22 40.69L31.78 40.75L31.78 40.75Q32.05 40.80 32.35 40.91L32.44 40.99L32.41 40.97Q32.65 41.24 34.47 43.26L34.53 43.32L34.48 43.27Q38.18 44.22 40.58 45.25L40.52 45.19L40.58 45.26Q35.12 40.75 31.12 32.75L31.19 32.82L31.11 32.73Q29.52 29.47 28.07 25.51L27.95 25.39L25.27 17.96L25.36 18.04Q24.98 18.00 24.75 18.00L24.85 18.10L24.33 18.12L24.27 18.06Q23.81 17.30 23.09 15.93L23.12 15.96L23.20 16.04Q22.71 16.08 22.25 16.04L22.10 15.88L22.28 16.07Q21.75 15.95 21.21 15.95L21.22 15.96L21.25 15.99Q19.89 19.95 16.00 30.12L15.87 29.98L15.92 30.04Q12.87 38.06 8.22 42.86L8.06 42.70L8.07 42.70Q9.20 42.39 11.22 41.78L11.24 41.80L11.23 41.79Q10.48 42.67 8.92 44.46L8.87 44.42L8.82 44.37Q10.51 43.70 14.44 42.94L14.52 43.03L14.49 43.00Q17.85 38.59 19.41 35.35L19.48 35.43L19.41 35.35Q21.34 35.41 23.66 35.45L23.54 35.33L23.54 35.33Q26.26 35.35 27.63 35.43L27.64 35.44L27.59 35.38Q28.87 37.77 31.23 40.70ZM23.58 26.09L23.50 26.01L23.43 25.93Q24.30 28.03 25.07 30.12L25.10 30.15L21.78 30.14L21.78 30.14Q22.53 28.88 23.60 26.10Z"/><path d="M19 20 C70 14,77 31,136 34" stroke="#7ce897" fill="none"/><path d="M15 7 C75 48,79 23,147 33" stroke="#e0b73c" fill="none"/><path d="M8 2 C55 17,79 21,136 37" stroke="#4040e7" fill="none"/><path fill="#93db4c" d="M90.07 49.72L90.07 49.71L90.01 49.65Q92.82 45.69 95.72 39.49L95.69 39.46L95.73 39.50Q92.65 33.00 86.56 24.93L86.55 24.91L86.56 24.93Q88.46 26.06 91.24 26.71L91.24 26.71L91.16 26.63Q94.85 31.47 97.29 36.68L97.23 36.62L97.19 36.58Q99.33 31.26 102.41 26.84L102.48 26.91L102.46 26.89Q104.76 26.64 106.86 25.84L106.81 25.79L106.84 25.83Q103.29 29.51 99.83 36.93L99.98 37.09L97.12 43.06L97.11 43.05Q95.59 46.09 93.83 48.72L93.92 48.80L93.95 48.83Q91.48 49.14 90.03 49.68ZM96.12 50.93L96.25 51.06L96.09 50.90Q97.83 48.03 99.27 44.75L99.33 44.81L102.12 38.54L102.06 38.48Q105.58 30.47 108.90 26.47L108.91 26.49L108.81 26.39Q107.44 27.03 105.54 27.72L105.71 27.89L106.63 26.38L106.69 26.44Q107.18 25.67 107.79 24.98L107.83 25.02L107.83 25.03Q105.07 26.00 102.21 26.45L102.34 26.58L102.20 26.44Q99.50 30.40 97.56 34.86L97.52 34.82L97.67 34.97Q96.04 31.66 94.25 28.85L94.22 28.82L94.09 28.68Q94.01 28.80 93.65 28.76L93.68 28.79L93.63 28.74Q93.31 28.74 93.12 28.74L93.01 28.64L92.98 28.61Q92.35 27.48 91.40 26.33L91.35 26.28L91.31 26.25Q88.16 25.61 85.42 23.90L85.38 23.86L85.40 23.88Q91.78 32.01 95.47 39.62L95.36 39.51L95.47 39.61Q93.22 44.60 89.15 50.24L89.19 50.28L89.17 50.26Q89.94 49.93 90.74 49.78L90.70 49.74L92.34 49.40L92.48 49.54Q91.73 50.11 90.55 51.75L90.62 51.83L90.54 51.75Q92.81 51.12 96.09 50.89Z"/></svg>