<svg xmlns="http://www.w3.org/2000/svg" width="150" height="50" viewBox="0,0,150,50"><rect width="100%" height="100%" fill="white"/><path fill="#ea7aea" d="M122.45 29.98L122.37 29.90L122.42 29.95Q119.86 29.79 118.53 31.01L118.55 31.02L118.44 30.92Q117.20 32.23 117.51 34.74L117.54 34.78L117.41 34.65Q117.72 37.17 118.94 38.42L118.98 38.46L119.06 38.54Q120.08 39.83 122.21 39.76L122.29 39.84L122.20 39.74Q122.67 39.64 122.86 39.64L122.96 39.74L122.99 39.77Q126.42 39.05 126.54 34.45L126.55 34.46L126.62 34.53Q126.69 32.16 126.01 31.37L126.08 31.44L126.02 31.38Q125.03 30.16 122.48 30.01ZM125.68 41.63L125.78 41.72L125.60 41.54Q124.31 42.16 122.75 42.08L122.82 42.15L122.83 42.16Q118.92 42.29 117.63 39.70L117.63 39.70L117.67 39.74Q117.44 45.03 116.11 49.30L116.27 49.45L116.12 49.30Q114.30 49.77 112.66 50.50L112.76 50.59L112.75 50.58Q115.40 44.70 115.13 37.73L115.02 37.63L115.09 37.69Q114.83 30.85 111.93 24.79L111.84 24.70L111.86 24.72Q113.90 25.99 115.61 26.45L115.49 26.34L116.02 27.81L116.12 27.92Q116.21 28.23 116.48 29.33L116.51 29.37L116.45 29.31Q117.47 27.24 121.05 27.05L121.03 27.04L121.12 27.13Q121.86 26.95 122.73 26.95L122.81 27.03L123.21 26.93L123.37 27.09Q123.45 27.06 123.64 27.10L123.63 27.09L123.87 27.02L123.95 27.10Q125.99 27.35 126.71 27.58L126.63 27.50L126.79 27.65Q128.19 28.03 129.07 28.99L129.05 28.96L129.02 28.93Q129.83 30.09 129.79 31.50L129.79 31.50L129.96 31.66Q129.92 34.48 129.13 37.15L129.12 37.14L129.07 37.10Q127.99 40.54 125.63 41.57ZM130.02 42.30L129.89 42.14L130.04 42.29Q131.03 40.19 131.33 36.08L131.35 36.10L131.34 36.09Q131.57 34.42 131.57 33.16L131.56 33.15L131.49 33.09Q131.65 31.72 130.89 30.31L130.70 30.12L130.79 30.21Q130.39 29.77 129.89 29.39L129.79 29.29L129.68 29.07L129.41 28.68L129.44 28.59L129.43 28.58Q127.85 26.70 123.51 26.70L123.45 26.63L122.77 26.57L122.83 26.63Q118.09 26.53 116.45 28.13L116.57 28.25L116.59 28.27Q116.32 27.65 116.17 27.16L116.13 27.12L115.97 26.16L115.91 26.10Q113.51 25.57 111.30 24.08L111.27 24.06L111.22 24.00Q114.40 30.23 114.71 37.47L114.80 37.55L114.76 37.52Q115.09 44.82 112.24 51.29L112.24 51.29L114.12 50.32L114.10 50.30Q113.97 51.16 113.28 52.72L113.33 52.76L113.20 52.63Q116.04 51.70 118.36 51.36L118.19 51.18L118.19 51.18Q119.46 46.52 119.61 42.79L119.56 42.73L119.60 42.78Q121.03 44.29 124.65 44.51L124.48 44.34L124.56 44.42Q128.44 44.61 129.89 42.18L129.98 42.27ZM124.19 32.06L124.31 32.18L124.29 32.17Q124.86 32.01 125.96 32.35L125.95 32.34L126.10 32.48Q126.36 33.47 126.32 34.65L126.23 34.56L126.28 34.61Q126.22 35.47 126.03 36.11L126.05 36.13L126.13 36.21Q125.28 38.98 122.77 39.28L122.76 39.27L123.03 39.43L122.95 39.35Q122.89 39.37 122.78 39.41L122.68 39.31L122.14 39.30L122.30 39.46Q121.06 39.40 120.07 38.91L120.08 38.92L119.62 36.74L119.74 36.86Q119.53 34.48 120.82 33.45L120.90 33.53L120.91 33.54Q121.86 32.40 124.26 32.13Z"/><path fill="#4edeba" d="M45.05 25.02L45.20 25.16L45.14 25.10Q45.87 25.31 47.85 25.31L47.94 25.39L47.88 32.49L48.04 32.65Q47.97 36.81 48.09 39.71L48.06 39.68L48.14 39.75Q47.68 39.53 47.30 39.53L47.43 39.66L47.35 39.58Q45.88 39.56 44.44 40.89L44.48 40.93L44.42 40.87Q45.33 33.37 45.14 25.11ZM45.18 19.82L44.08 17.20L43.93 17.05Q45.53 16.06 46.25 15.10L46.34 15.19L46.17 15.02Q47.25 16.90 48.66 18.57L48.64 18.56L48.71 18.63Q47.98 20.22 46.61 22.36L46.51 22.25L46.58 22.32Q45.77 21.17 45.20 19.84L45.07 19.71ZM43.90 41.76L43.98 41.84L44.01 41.87Q44.98 40.74 46.23 40.25L46.24 40.26L46.27 40.29Q46.31 41.01 46.20 42.38L46.19 42.37L46.06 42.25Q46.86 42.13 47.50 42.13L47.45 42.08L47.44 42.06Q49.61 42.02 51.01 44.00L51.13 44.12L51.08 44.07Q49.71 36.61 49.79 26.45L49.88 26.53L49.79 26.44Q49.15 26.76 48.31 26.87L48.32 26.88L48.33 25.03L48.30 24.99Q47.29 25.13 46.49 25.05L46.48 25.04L46.39 24.95Q45.55 24.87 44.68 24.38L44.83 24.53L44.81 24.51Q44.84 26.45 44.84 28.50L44.85 28.51L44.87 28.53Q44.83 35.54 43.96 41.82ZM46.50 22.85L46.64 22.99L46.70 22.67L46.85 22.51L46.78 22.45Q47.16 23.20 48.18 24.69L48.18 24.68L48.29 24.79Q49.66 22.47 50.99 18.93L50.85 18.79L50.86 18.80Q50.14 18.19 48.58 16.59L48.58 16.59L48.55 16.56Q48.42 16.74 48.15 17.20L48.06 17.10L48.05 17.09Q47.23 15.96 46.31 14.52L46.23 14.44L46.29 14.49Q44.80 16.09 43.62 16.43L43.70 16.52L43.66 16.47Q44.63 19.80 46.46 22.81Z"/><path d="M16 31 C67 31,87 15,142 11" stroke="#57dada" fill="none"/><path d="M11 6 C68 4,71 7,141 19" stroke="#ecd387" fill="none"/><path fill="#b34cd6" d="M23.94 20.08L24.06 20.21L23.90 20.05Q19.60 20.04 15.90 19.05L15.94 19.09L15.93 19.08Q17.45 23.65 17.64 28.48L17.58 28.42L17.60 28.44Q17.89 33.34 16.67 37.94L16.64 37.91L16.68 37.96Q19.55 37.39 23.05 37.24L22.92 37.11L22.86 37.05Q26.94 37.02 28.73 34.58L28.75 34.60L28.70 34.55Q30.09 32.37 30.28 28.26L30.30 28.27L30.42 28.39Q30.54 26.68 30.08 24.97L29.98 24.87L30.03 24.92Q28.79 20.21 24.07 20.21ZM12.08 42.14L12.11 42.17L12.13 42.19Q15.04 36.54 15.04 29.84L15.02 29.82L15.04 29.84Q15.04 21.31 10.73 14.30L10.56 14.13L10.69 14.26Q15.86 16.84 24.12 17.03L24.24 17.15L24.17 17.08Q33.04 17.27 33.39 24.43L33.43 24.48L33.37 24.42Q33.41 27.05 33.38 28.49L33.46 28.58L33.51 28.62Q33.43 33.31 32.60 35.48L32.65 35.53L32.51 35.39Q32.16 36.57 31.40 37.41L31.39 37.40L31.38 37.38Q29.95 38.85 27.32 39.34L27.44 39.46L27.40 39.42Q25.87 39.76 22.87 39.99L22.88 40.00L22.74 39.86Q16.69 40.40 12.09 42.15ZM30.08 42.10L30.01 42.03L30.08 42.10Q32.76 41.70 34.40 40.21L34.34 40.16L34.38 40.20Q35.58 38.43 35.54 35.69L35.57 35.72L35.47 35.61Q35.50 34.28 35.35 30.77L35.43 30.85L35.09 26.32L35.08 26.32Q34.79 23.93 33.83 21.83L33.81 21.81L33.92 21.92Q33.35 20.93 32.67 20.29L32.71 20.33L32.74 20.21L32.68 20.14Q30.89 17.10 26.47 16.72L26.48 16.72L26.58 16.83Q23.91 16.71 16.91 15.99L16.87 15.95L16.96 16.04Q13.68 15.58 9.99 13.56L9.91 13.48L9.80 13.37Q14.74 20.86 14.74 29.62L14.66 29.54L14.80 29.68Q14.78 36.66 11.43 42.82L11.33 42.73L11.35 42.75Q12.00 42.45 13.33 41.95L13.31 41.93L13.40 42.02Q12.97 42.77 12.09 44.25L12.23 44.39L12.15 44.31Q15.27 43.32 18.62 42.83L18.54 42.74L18.66 42.86Q20.72 42.53 24.38 42.41L24.38 42.41L24.30 42.34Q28.11 42.14 29.93 41.95ZM30.10 28.45L30.10 28.46L30.12 28.48Q29.72 36.45 23.02 36.83L22.98 36.79L22.92 36.73Q21.03 36.90 18.98 37.16L18.91 37.10L18.93 37.12Q19.58 33.20 19.58 29.55L19.69 29.65L19.63 29.59Q19.70 25.97 18.97 22.12L18.90 22.05L18.94 22.09Q21.27 22.51 25.95 22.51L25.97 22.53L25.98 22.55Q27.25 22.29 28.89 23.24L28.79 23.15L28.98 23.34Q30.23 25.58 30.08 28.44Z"/><path d="M13 28 C87 23,91 37,141 41" stroke="#d68e46" fill="none"/><path fill="#63e7a5" d="M95.79 29.22L95.83 29.27L95.75 29.19Q93.83 29.13 92.61 30.46L92.63 30.48L92.69 30.54Q91.46 31.86 91.31 33.76L91.36 33.82L91.24 33.69Q91.13 35.90 92.34 36.91L92.26 36.83L92.35 36.92Q93.62 37.98 95.75 37.90L95.75 37.90L95.62 37.77Q98.09 37.77 99.04 36.81L98.92 36.70L98.89 36.66Q99.88 35.18 99.77 33.35L99.96 33.55L99.95 33.53Q99.66 31.50 98.58 30.30L98.63 30.35L98.70 30.42Q97.61 29.22 95.79 29.22ZM95.78 19.81L95.68 19.71L95.63 19.66Q94.36 19.68 93.02 20.18L92.96 20.11L93.00 20.15Q91.68 20.93 91.91 22.79L91.93 22.81L91.88 22.76Q92.41 26.53 95.76 26.53L95.71 26.48L95.79 26.55Q97.41 26.80 98.40 25.66L98.38 25.64L98.31 25.57Q99.25 24.38 99.29 22.82L99.42 22.95L99.27 22.81Q99.40 21.11 98.68 20.50L98.65 20.47L98.73 20.55Q97.10 19.76 95.81 19.84ZM95.43 40.29L95.40 40.25L92.37 40.27L92.43 40.33Q90.83 40.25 89.50 39.38L89.45 39.33L89.51 39.39Q88.23 38.33 88.38 35.48L88.26 35.36L88.36 35.46Q88.87 28.66 92.49 27.67L92.35 27.53L92.32 27.51Q90.21 26.76 88.87 21.39L88.87 21.39L88.76 21.27Q88.51 19.96 88.58 19.16L88.50 19.08L88.45 19.02Q88.79 16.93 92.49 16.90L92.45 16.86L92.52 16.93Q96.66 16.77 98.10 16.96L98.10 16.95L98.22 17.08Q102.01 17.55 102.47 19.57L102.52 19.62L102.55 19.65Q102.67 20.26 102.67 20.65L102.59 20.56L102.59 20.57Q102.61 21.27 102.42 21.88L102.32 21.79L102.51 21.97Q101.80 26.10 98.87 27.62L98.96 27.71L98.81 27.56Q102.29 28.34 102.78 33.63L102.87 33.72L102.82 33.67Q102.85 33.85 102.89 35.14L102.98 35.24L102.96 35.21Q102.99 37.91 101.39 38.98L101.34 38.93L101.41 39.00Q99.97 39.79 95.40 40.25ZM97.83 42.72L97.81 42.70L101.04 42.66L101.15 42.77Q102.71 42.69 104.23 41.97L104.41 42.15L104.29 42.03Q105.50 41.37 105.58 39.51L105.46 39.39L105.62 39.55Q105.50 38.29 105.12 36.35L105.19 36.42L105.29 36.52Q104.26 31.76 102.17 29.89L102.18 29.90L101.95 29.49L101.74 29.20L101.56 28.90L101.65 28.99Q103.23 27.57 104.14 23.42L104.11 23.38L104.11 23.39Q104.12 23.01 104.19 22.17L104.35 22.33L104.37 22.34Q104.30 21.51 104.22 20.91L104.32 21.01L104.21 20.90Q104.13 19.52 102.95 19.02L103.03 19.10L103.03 19.06L102.83 18.94L102.80 18.91Q102.47 18.12 101.29 17.32L101.41 17.45L101.36 17.36L101.45 17.45Q99.49 16.78 95.42 16.59L95.24 16.41L95.38 16.55Q93.84 16.46 92.47 16.57L92.36 16.46L92.38 16.48Q91.51 16.45 90.21 16.60L90.37 16.76L90.22 16.61Q88.30 17.02 88.08 18.65L88.07 18.64L88.18 18.76Q88.20 19.31 88.24 20.11L88.19 20.06L88.10 19.97Q88.21 20.51 88.79 22.87L88.91 22.99L88.75 22.83Q89.58 26.10 91.33 27.43L91.28 27.38L91.43 27.52L91.52 27.62Q88.66 28.84 88.13 34.01L88.21 34.10L88.15 34.03Q87.88 36.16 87.88 37.07L88.01 37.20L87.90 37.10Q88.01 38.91 89.19 39.83L89.17 39.81L89.11 39.76Q89.29 39.90 89.56 40.09L89.65 40.18L89.58 40.11Q90.69 42.47 97.81 42.70ZM97.39 31.54L97.40 31.56L97.44 31.59Q98.34 31.51 99.21 31.96L99.21 31.96L99.19 31.94Q99.60 32.96 99.56 33.49L99.55 33.48L99.62 33.55Q99.61 33.80 99.61 34.11L99.56 34.06L99.65 34.15Q99.59 36.45 97.31 37.29L97.35 37.33L97.31 37.29Q96.46 37.54 95.66 37.43L95.69 37.46L95.64 37.41Q94.56 37.55 93.42 37.10L93.39 37.06L93.49 37.16Q93.11 36.40 93.19 35.42L93.26 35.49L93.21 35.43Q93.37 33.85 94.57 32.63L94.58 32.63L94.65 32.71Q95.78 31.42 97.38 31.53ZM97.60 22.05L97.67 22.11L97.68 22.13Q98.50 22.04 99.03 22.19L99.04 22.19L98.88 22.84L98.93 22.88Q98.91 24.28 98.00 25.28L98.06 25.35L97.95 25.24Q97.18 26.39 95.81 26.20L95.71 26.10L95.79 26.18Q94.69 26.07 94.27 25.84L94.44 26.01L94.43 26.00Q94.22 25.56 94.11 24.88L94.28 25.05L94.29 25.06Q93.93 23.56 95.15 22.72L95.13 22.70L95.12 22.69Q96.23 22.05 97.64 22.09Z"/><path fill="#77edb2" d="M79.87 23.19L79.89 23.22L79.92 23.24Q78.27 19.24 72.07 19.43L72.07 19.44L72.00 19.37Q67.60 19.50 65.62 20.94L65.56 20.88L65.58 20.90Q63.20 22.67 63.20 26.79L63.28 26.86L63.24 28.68L63.34 28.79Q63.29 37.57 72.31 37.57L72.24 37.50L72.19 37.45Q74.25 37.45 75.74 36.65L75.74 36.66L75.85 36.77Q77.65 35.71 77.50 33.85L77.49 33.84L77.44 33.79Q77.28 31.73 73.59 30.82L73.54 30.77L71.70 30.87L71.66 30.82Q70.76 30.87 69.80 30.91L69.84 30.94L69.83 30.94Q69.81 29.96 69.77 28.06L69.72 28.01L69.65 27.95Q77.31 27.95 81.50 27.61L81.48 27.59L81.59 27.70Q81.44 28.43 81.44 29.23L81.50 29.29L81.57 29.35Q81.46 30.04 81.50 30.84L81.61 30.96L81.48 30.82Q80.47 30.91 80.47 30.91L80.52 30.97L80.37 30.82Q78.98 30.80 79.36 30.80L79.48 30.91L79.40 30.84Q80.61 32.58 80.99 34.56L80.91 34.48L80.81 34.38Q80.96 35.14 80.96 35.60L81.04 35.68L80.93 35.56Q81.06 40.34 72.27 40.34L72.27 40.35L72.14 40.21Q65.05 40.24 62.46 38.15L62.50 38.18L62.48 38.17Q60.61 35.91 60.61 30.85L60.53 30.78L60.63 30.88Q60.63 29.81 60.48 27.10L60.30 26.93L60.43 27.06Q60.25 24.67 60.28 23.30L60.22 23.23L60.28 23.29Q60.46 20.50 61.83 18.90L61.70 18.77L61.69 18.76Q64.33 16.80 69.21 16.61L69.21 16.61L71.76 16.42L71.83 16.50Q75.00 16.46 78.42 16.88L78.38 16.83L78.33 16.79Q82.09 17.27 83.04 20.51L83.05 20.52L83.07 20.54Q82.00 21.40 79.90 23.23ZM81.42 25.55L81.54 25.55L81.54 25.55Q82.63 24.36 84.50 22.38L84.55 22.43L84.49 22.38Q84.31 21.55 83.32 19.83L83.28 19.79L83.27 19.79Q81.95 16.98 78.15 16.33L78.32 16.51L78.28 16.47Q76.08 16.29 71.78 15.98L71.81 16.02L69.06 16.08L69.12 16.14Q64.02 16.41 61.43 18.39L61.33 18.29L61.38 18.33Q60.01 19.98 59.90 23.06L59.85 23.02L59.96 23.12Q60.00 22.70 60.23 28.19L60.19 28.15L60.14 28.10Q60.16 29.46 60.24 32.20L60.31 32.27L60.27 32.23Q60.42 36.64 62.17 38.58L62.18 38.59L62.10 38.52Q62.48 39.35 63.35 40.22L63.40 40.27L63.42 40.29Q66.25 42.09 71.77 42.43L71.79 42.45L74.83 42.79L74.82 42.78Q76.34 42.81 78.35 42.70L78.27 42.61L78.40 42.74Q79.77 42.59 81.87 42.06L81.96 42.15L81.85 42.05Q83.94 41.69 83.90 39.37L83.72 39.19L83.76 39.23Q83.86 38.07 82.79 35.29L82.67 35.18L82.69 35.20Q82.40 34.29 81.87 33.50L81.96 33.59L81.87 33.50Q82.47 33.52 83.65 33.71L83.61 33.68L83.72 33.78Q83.31 30.07 83.35 29.38L83.39 29.42L83.32 29.36Q83.13 29.54 82.71 29.50L82.54 29.33L82.63 29.42Q82.19 29.32 81.81 29.40L81.79 29.38L81.77 29.36Q81.85 28.34 81.92 27.27L81.98 27.33L82.00 27.34Q75.58 27.71 69.30 27.59L69.31 27.60L69.34 27.63Q69.41 28.58 69.41 29.49L69.40 29.48L69.34 31.17L69.36 31.19Q69.84 31.29 70.26 31.25L70.21 31.20L70.31 31.31Q70.70 31.27 71.16 31.27L71.04 31.15L71.05 31.17Q71.18 31.75 71.21 32.24L71.22 32.25L71.17 32.20Q71.17 32.66 71.13 33.15L71.17 33.19L71.04 33.06Q72.16 33.11 73.19 33.08L73.18 33.07L73.27 33.16Q74.12 32.99 75.15 33.02L75.20 33.07L75.28 33.15Q76.33 33.41 77.21 33.79L77.16 33.73L77.18 33.79L77.09 33.71Q77.28 35.27 75.61 36.18L75.75 36.32L75.60 36.18Q74.04 37.20 72.32 37.20L72.26 37.14L72.33 37.21Q68.38 37.10 65.95 35.35L66.03 35.44L65.98 35.39Q65.03 33.37 65.18 30.82L65.25 30.89L65.14 30.78Q65.52 26.06 67.37 24.06L67.28 23.97L67.34 24.03Q69.27 22.12 73.96 21.81L73.83 21.69L73.85 21.71Q77.61 21.59 79.55 23.37L79.55 23.37L79.53 23.36Q79.51 23.38 79.63 23.57L79.62 23.56L79.70 23.53L79.69 23.52Q80.44 24.38 81.01 25.49L80.96 25.43L81.42 25.55Z"/><path d="M5 32 C93 47,60 11,138 11" stroke="#90e9bc" fill="none"/><path d="M9 42 C91 46,55 17,132 20" stroke="#6ca5de" fill="none"/></svg>