<svg xmlns="http://www.w3.org/2000/svg" width="150" height="50" viewBox="0,0,150,50"><rect width="100%" height="100%" fill="white"/><path d="M2 31 C84 7,70 23,139 29" stroke="#8669dd" fill="none"/><path d="M11 2 C68 30,95 20,129 46" stroke="#466de1" fill="none"/><path d="M17 48 C70 15,56 32,140 8" stroke="#e16941" fill="none"/><path fill="#6be4e4" d="M49.63 39.90L49.54 39.81L47.62 39.83L47.67 39.88Q46.67 39.83 45.72 39.94L45.83 40.05L45.64 39.87Q46.31 33.76 46.31 29.77L46.27 29.72L46.39 29.84Q42.29 23.04 34.64 14.36L34.71 14.43L34.79 14.51Q36.53 15.45 39.88 16.25L39.89 16.27L39.85 16.22Q44.90 21.81 47.91 27.02L48.01 27.12L47.86 26.97Q50.83 21.38 55.21 16.35L55.26 16.40L55.23 16.37Q57.75 16.08 60.26 15.28L60.22 15.24L60.13 15.14Q54.22 21.38 49.34 29.79L49.34 29.78L49.33 29.78Q49.19 36.68 49.50 39.77ZM58.59 17.18L61.31 14.35L61.30 14.33Q58.33 15.63 55.21 16.08L55.20 16.08L55.20 16.08Q50.95 20.77 48.13 25.87L48.11 25.85L48.06 25.81Q45.93 22.15 42.74 18.27L42.71 18.24L42.83 18.36Q42.52 18.32 42.03 18.25L42.08 18.30L42.10 18.32Q41.43 17.53 39.91 15.86L39.84 15.79L39.84 15.79Q36.39 14.97 33.42 13.40L33.47 13.46L33.47 13.46Q41.14 21.89 45.90 29.81L45.96 29.87L46.04 29.94Q45.87 36.21 45.26 40.36L45.16 40.26L45.29 40.39Q46.05 40.39 47.49 40.27L47.37 40.15L47.45 41.26L47.50 41.31Q47.41 41.68 47.34 42.21L47.45 42.32L47.31 42.18Q50.89 42.22 52.64 42.42L52.57 42.34L52.66 42.43Q51.34 37.68 51.22 31.70L51.34 31.83L51.27 31.75Q55.77 23.42 62.31 16.07L62.30 16.05L58.77 17.36Z"/><path d="M15 13 C90 44,70 12,130 15" stroke="#4093e7" fill="none"/><path fill="#ec73ec" d="M95.95 19.66L95.94 19.65L95.88 19.59Q93.95 19.76 93.00 19.91L92.96 19.86L92.98 19.89Q91.35 20.12 90.13 20.65L90.24 20.76L90.17 20.69Q86.70 22.17 86.59 26.86L86.63 26.89L86.46 26.73Q86.39 29.40 87.04 32.33L87.21 32.50L87.23 32.52Q87.99 36.44 91.61 37.62L91.62 37.64L91.61 37.63Q93.57 38.25 95.02 38.10L95.06 38.14L95.44 38.07L95.39 38.02Q95.51 37.95 95.70 37.99L95.73 38.02L95.73 38.01Q96.01 38.14 96.16 38.10L96.11 38.05L96.13 38.07Q98.68 37.73 100.05 37.16L100.09 37.20L96.45 33.59L96.40 33.55Q96.84 33.34 97.45 32.73L97.50 32.78L98.32 31.77L98.36 31.81Q100.12 33.80 102.10 35.86L102.14 35.90L102.22 35.98Q104.45 34.06 104.72 28.69L104.83 28.80L104.76 28.73Q104.88 27.87 104.88 26.95L104.89 26.96L104.79 26.86Q104.90 21.30 99.84 20.19L99.69 20.05L99.70 20.05Q98.56 19.91 96.05 19.75ZM108.65 41.65L108.74 41.74L108.77 41.77Q108.09 42.11 106.91 42.99L106.99 43.07L102.58 39.39L102.50 39.30Q100.04 40.53 95.78 40.57L95.73 40.53L95.86 40.66Q89.33 40.79 86.51 38.54L86.43 38.46L86.38 38.41Q84.59 36.62 84.13 33.65L84.26 33.77L84.15 33.67Q84.10 32.02 83.72 28.44L83.68 28.40L83.72 28.44Q83.61 27.61 83.49 25.85L83.61 25.97L83.50 25.86Q83.27 24.22 83.30 23.34L83.36 23.40L83.48 23.52Q83.61 20.48 85.36 18.92L85.20 18.77L85.34 18.90Q86.72 17.43 89.91 16.93L90.01 17.02L89.92 16.94Q92.54 16.71 95.44 16.78L95.27 16.61L95.37 16.72Q102.78 16.74 105.90 19.10L105.92 19.12L106.02 19.22Q108.09 21.25 107.82 26.16L107.97 26.31L107.97 26.31Q107.60 29.78 107.41 31.12L107.50 31.21L107.60 31.30Q106.93 35.77 104.60 38.09L104.45 37.94L104.56 38.05Q106.06 39.32 108.80 41.80ZM103.91 17.49L103.84 17.42L103.94 17.52Q101.82 16.70 95.31 16.20L95.45 16.34L95.33 16.21Q93.94 16.24 91.16 16.35L91.14 16.33L91.12 16.32Q87.05 16.70 84.81 18.68L84.79 18.66L84.81 18.68Q82.99 19.99 82.99 23.15L83.00 23.15L82.96 23.11Q82.97 23.96 83.13 25.68L83.13 25.68L83.27 25.83Q83.32 27.43 83.32 28.31L83.41 28.40L83.43 28.42Q83.42 30.01 83.80 33.59L83.98 33.77L83.87 33.66Q84.27 36.56 85.87 38.62L85.81 38.57L85.78 38.53Q86.25 39.50 87.47 40.64L87.35 40.52L87.46 40.64Q90.17 42.62 95.35 42.89L95.25 42.78L95.27 42.81Q95.75 42.95 98.15 43.06L98.03 42.94L98.11 43.02Q102.79 43.06 105.08 42.00L105.09 42.00L105.14 42.06Q105.97 42.69 110.69 46.27L110.65 46.24L110.76 46.34Q111.25 45.69 112.54 44.70L112.73 44.89L112.72 44.88Q111.72 44.06 110.92 43.38L111.05 43.52L109.35 42.00L109.48 41.98L109.42 41.92Q108.88 41.50 107.67 40.47L107.54 40.35L107.52 40.33Q109.51 37.90 109.51 33.37L109.47 33.33L109.49 33.35Q109.57 33.01 109.61 32.18L109.46 32.02L109.61 32.17Q109.68 31.36 109.68 30.95L109.64 30.91L109.57 30.84Q109.52 25.27 108.80 22.91L108.89 23.00L108.96 23.07Q108.51 21.71 107.63 20.64L107.56 20.57L107.56 20.56Q106.77 18.44 103.83 17.41ZM97.90 22.06L97.90 22.07L97.88 22.05Q101.99 22.00 103.82 23.60L103.74 23.53L103.79 23.57Q104.35 24.79 104.47 26.12L104.43 26.08L104.50 26.15Q104.60 27.43 104.52 28.80L104.46 28.74L104.39 28.67Q104.18 33.75 102.24 35.47L102.07 35.30L102.21 35.43Q100.82 34.05 98.31 31.31L98.31 31.31L98.40 31.40Q97.55 32.07 95.99 33.63L96.05 33.69L96.08 33.72Q96.55 34.23 97.69 35.41L97.63 35.34L97.56 35.40L97.63 35.46Q98.29 36.09 99.32 37.15L99.17 37.00L99.15 36.98Q98.33 37.41 96.01 37.72L95.87 37.58L95.39 37.63L94.97 37.63L94.96 37.67L95.02 37.73Q91.50 37.66 89.52 36.03L89.53 36.04L89.55 36.06Q88.44 33.89 88.48 30.77L88.63 30.91L88.50 30.79Q88.70 22.12 97.88 22.04Z"/><path fill="#70df70" d="M74.90 27.16L74.99 27.25L74.86 27.12Q75.61 27.07 77.02 26.92L77.18 27.07L77.20 27.09Q77.11 27.69 77.11 28.33L77.12 28.35L77.04 29.52L76.99 29.48Q76.30 29.63 75.47 29.70L75.40 29.63L75.41 29.65Q74.47 29.59 73.64 29.55L73.78 29.69L73.69 29.60Q70.97 35.90 67.54 40.51L67.48 40.44L67.45 40.42Q65.02 41.14 63.72 41.75L63.73 41.76L63.73 41.76Q67.78 35.99 70.83 29.71L70.83 29.71L68.23 29.74L68.25 29.76Q68.18 28.35 68.06 27.02L67.99 26.94L68.08 27.04Q70.01 27.22 72.07 27.22L71.99 27.14L73.84 23.40L73.90 23.45Q74.90 21.56 76.12 19.96L76.03 19.88L76.22 20.06Q74.49 20.05 72.90 20.05L72.98 20.13L73.01 20.16Q66.80 20.04 63.03 17.84L63.19 18.00L62.37 16.11L62.44 16.19Q62.16 15.41 61.78 14.53L61.74 14.49L61.73 14.48Q66.14 17.18 71.85 17.41L71.77 17.33L71.87 17.42Q77.00 17.64 82.13 15.66L82.01 15.54L82.02 15.55Q81.89 16.03 81.40 16.90L81.38 16.88L81.30 16.81Q77.69 21.57 74.84 27.09ZM83.08 18.36L82.97 18.25L83.98 16.25L83.89 16.16Q82.93 16.65 81.26 17.37L81.35 17.46L81.62 17.24L81.59 17.21Q81.74 17.09 81.85 16.98L81.81 16.94L81.68 16.80Q82.15 16.21 82.88 14.88L82.85 14.86L82.91 14.91Q77.60 17.22 71.85 16.99L71.78 16.92L71.79 16.92Q65.83 16.71 61.07 13.74L61.06 13.74L60.98 13.65Q62.06 15.57 62.89 18.23L62.97 18.31L62.83 18.17Q64.08 18.96 64.88 19.26L64.86 19.25L64.78 19.16Q65.03 19.61 65.49 21.48L65.35 21.34L65.37 21.35Q68.48 22.56 74.00 22.41L74.01 22.43L74.06 22.47Q73.83 23.12 71.85 26.89L71.80 26.84L71.71 26.74Q69.76 26.85 67.78 26.66L67.84 26.72L67.79 26.67Q67.86 27.50 67.86 28.38L67.87 28.39L67.89 30.12L69.58 30.14L69.59 31.56L69.55 31.51Q65.64 38.91 62.86 42.49L62.79 42.41L62.73 42.36Q64.47 41.74 66.11 41.25L66.06 41.20L65.95 41.08Q65.26 42.00 63.89 43.71L63.97 43.79L63.94 43.76Q67.06 42.61 69.49 42.38L69.55 42.44L69.63 42.52Q72.57 38.76 75.69 31.99L75.73 32.02L79.06 32.12L79.07 32.12Q78.90 31.12 78.90 30.21L79.04 30.35L79.08 28.60L79.07 28.59Q78.62 28.40 78.07 28.44L78.09 28.46L78.13 28.50Q77.68 28.64 77.41 28.64L77.34 28.57L77.42 28.65Q77.30 28.41 77.34 28.26L77.48 28.40L77.31 27.97L77.43 28.09Q79.87 22.88 82.96 18.23Z"/><path d="M10 14 C91 10,82 23,144 41" stroke="#aa6de8" fill="none"/><path fill="#c778e2" d="M113.71 15.79L113.75 15.83L113.74 15.83Q115.61 20.67 116.18 25.85L116.28 25.94L116.24 25.90Q119.86 21.68 125.76 16.84L125.83 16.92L125.91 17.00Q129.13 16.71 131.75 15.91L131.72 15.87L125.07 21.41L125.15 21.49Q121.78 24.48 118.93 27.33L118.91 27.31L118.81 27.21Q126.81 36.39 131.87 41.11L131.94 41.19L131.84 41.08Q128.76 40.18 126.44 40.02L126.41 39.99L126.46 40.04Q120.76 34.72 116.46 28.90L116.46 28.91L116.28 28.72Q116.54 35.49 114.67 40.82L114.53 40.67L114.59 40.74Q114.38 40.79 113.89 40.99L113.88 40.98L113.79 41.08L113.93 41.22Q113.74 41.26 111.19 42.17L111.19 42.17L111.09 42.07Q114.12 35.58 113.77 28.12L113.73 28.08L113.80 28.14Q113.40 20.74 109.86 14.23L109.80 14.17L110.47 14.57L110.72 14.70L110.91 14.86L110.77 14.73Q111.66 15.27 113.87 15.96ZM114.07 15.59L114.11 15.62L114.00 15.51Q111.84 15.07 109.22 13.55L109.07 13.40L109.23 13.56Q113.53 20.87 113.53 29.82L113.46 29.75L113.37 29.66Q113.35 36.64 110.38 42.69L110.40 42.72L112.57 41.99L112.48 41.90Q112.18 43.01 111.49 44.30L111.46 44.27L111.38 44.18Q113.64 43.40 115.58 42.98L115.67 43.07L115.67 42.84L115.73 42.90Q116.03 42.90 116.60 42.75L116.52 42.66L116.44 42.58Q118.18 36.75 118.30 31.96L118.20 31.86L118.19 31.85Q120.41 34.49 122.24 36.36L122.17 36.28L122.26 36.38Q123.46 37.50 126.47 40.47L126.33 40.33L126.45 40.46L126.32 40.32Q127.50 41.31 129.36 42.91L129.18 42.72L129.29 42.83Q133.11 43.49 136.57 45.20L136.53 45.17L136.66 45.30Q127.25 36.61 121.01 29.19L121.16 29.33L121.00 29.17Q125.47 24.96 134.22 16.36L134.18 16.32L134.20 16.34Q131.76 17.59 129.74 17.97L129.71 17.94L129.68 17.91Q131.00 17.02 133.32 15.00L133.29 14.97L133.27 14.95Q129.04 16.24 125.69 16.43L125.75 16.49L125.68 16.42Q122.78 18.66 117.91 23.35L117.91 23.35L117.94 23.38Q117.63 20.86 117.06 18.31L117.01 18.25L117.01 18.26Q115.89 18.17 114.90 17.83L114.82 17.74L114.78 17.70Q114.67 17.06 114.10 15.61Z"/><path fill="#e9cb71" d="M20.95 27.54L21.08 27.67L21.13 27.72Q18.89 27.73 17.62 29.24L17.47 29.09L17.60 29.22Q16.18 30.58 16.07 32.87L16.09 32.89L16.21 33.01Q16.01 35.59 16.85 36.54L16.92 36.61L16.88 36.57Q18.00 37.84 20.32 37.69L20.40 37.77L20.37 37.74Q24.86 37.28 25.24 34.27L25.30 34.34L25.38 34.41Q25.44 33.56 25.44 32.76L25.40 32.72L25.46 32.78Q25.47 30.81 24.32 29.28L24.20 29.15L24.26 29.22Q23.04 27.66 21.10 27.70ZM25.82 37.67L25.86 37.71L25.84 37.69Q24.33 39.80 19.95 40.02L20.11 40.18L19.97 40.04Q15.76 40.17 14.12 39.07L14.19 39.14L14.20 39.15Q13.33 38.32 13.18 36.60L13.07 36.49L13.04 36.46Q13.08 35.43 13.27 33.57L13.28 33.58L13.26 33.56Q13.82 29.32 15.04 27.49L15.02 27.48L14.94 27.40Q16.69 25.04 20.54 25.08L20.53 25.07L20.48 25.02Q23.00 25.07 25.29 27.39L25.26 27.36L25.22 27.32Q25.44 21.61 27.04 15.10L26.97 15.02L26.95 15.01Q28.82 14.56 30.69 13.72L30.69 13.73L30.73 13.76Q28.21 20.45 27.94 27.46L27.89 27.41L27.94 27.45Q27.47 34.44 29.60 41.03L29.59 41.02L29.75 41.18Q28.16 40.61 26.44 40.23L26.39 40.18L26.33 40.12Q25.94 38.74 25.79 37.64ZM28.84 43.13L28.82 43.10L28.93 43.22Q31.01 43.77 33.56 45.30L33.46 45.19L33.59 45.33Q29.85 38.24 29.70 29.94L29.74 29.98L29.62 29.86Q29.60 21.77 32.68 14.38L32.69 14.39L32.66 14.36Q31.88 14.72 30.43 15.37L30.46 15.39L30.60 15.53Q30.77 14.22 31.37 13.00L31.42 13.04L31.39 13.01Q29.07 14.16 26.63 14.73L26.66 14.75L26.71 14.80Q25.10 20.43 24.83 26.52L24.99 26.67L24.88 26.56Q22.89 24.65 20.38 24.54L20.48 24.64L20.51 24.67Q16.99 24.46 15.09 26.56L15.11 26.57L15.03 26.50Q13.35 28.89 12.93 33.57L13.02 33.67L12.91 33.56Q12.77 36.42 12.77 36.84L12.77 36.84L12.66 36.73Q12.82 38.56 13.96 39.63L13.97 39.64L13.97 39.64Q14.11 39.78 14.30 39.86L14.43 39.99L14.89 40.63L14.89 40.63Q15.76 41.89 18.73 42.15L18.84 42.27L18.81 42.23Q21.00 42.37 22.37 42.44L22.36 42.43L22.36 42.44Q26.55 42.62 28.26 41.29L28.32 41.35L28.24 41.27Q28.52 42.12 28.98 43.26ZM22.64 29.92L22.55 29.83L22.69 29.98Q23.68 29.93 24.52 30.43L24.45 30.36L24.61 30.52Q24.91 31.62 24.98 32.65L24.98 32.64L25.03 32.69Q25.37 36.96 20.35 37.30L20.35 37.30L20.36 37.31Q19.41 37.28 18.31 37.01L18.45 37.16L18.30 37.00Q18.06 36.38 17.99 35.85L18.04 35.90L18.02 35.89Q17.97 35.22 18.00 34.61L17.97 34.58L18.07 34.68Q18.46 31.34 21.09 30.35L21.04 30.30L21.07 30.33Q21.99 29.92 22.67 29.96Z"/></svg>