<svg xmlns="http://www.w3.org/2000/svg" width="150" height="50" viewBox="0,0,150,50"><rect width="100%" height="100%" fill="white"/><path fill="#52e4e4" d="M80.46 41.56L80.51 41.62L80.41 41.51Q78.25 41.07 76.08 40.92L76.17 41.00L76.23 41.06Q74.77 39.61 72.11 35.77L72.04 35.70L72.12 35.78Q69.86 38.81 67.47 41.25L67.53 41.31L65.32 41.58L65.29 41.55Q64.31 41.83 63.32 42.09L63.30 42.07L63.27 42.04Q67.56 38.03 70.57 33.92L70.61 33.97L70.50 33.86Q67.24 29.68 61.83 24.88L61.76 24.81L61.83 24.88Q64.15 25.71 66.85 26.13L66.76 26.04L66.76 26.04Q70.28 29.22 72.18 31.92L72.16 31.90L72.20 31.94Q74.19 28.75 76.93 26.24L77.05 26.35L76.96 26.27Q79.93 25.85 81.76 25.36L81.95 25.55L81.83 25.43Q77.36 29.14 73.66 33.70L73.59 33.63L73.54 33.58Q77.03 38.37 80.50 41.61ZM83.22 24.61L83.41 24.80L83.35 24.74Q80.40 25.52 76.86 25.86L76.83 25.83L76.90 25.91Q74.07 28.63 72.36 31.11L72.32 31.07L72.36 31.10Q71.42 30.01 69.78 28.03L69.79 28.05L69.63 28.08L69.61 28.06Q69.47 28.03 69.36 28.03L69.29 27.96L69.29 27.96Q68.46 27.06 66.83 25.61L66.94 25.72L66.84 25.63Q63.42 25.25 60.56 24.03L60.49 23.96L60.46 23.92Q65.94 28.68 69.97 33.82L70.09 33.94L70.00 33.85Q66.69 38.53 62.27 42.84L62.32 42.88L62.24 42.80Q62.51 42.73 66.01 41.89L65.97 41.85L65.89 41.77Q64.50 43.24 62.87 44.57L62.81 44.51L62.73 44.43Q66.06 43.65 69.22 43.46L69.28 43.52L69.18 43.43Q71.53 41.12 73.43 38.38L73.46 38.41L73.54 38.50Q74.97 40.27 76.19 41.45L76.06 41.32L76.04 41.29Q76.24 41.38 76.31 41.46L76.39 41.54L76.49 41.45L76.59 41.54Q77.66 42.46 78.99 43.52L79.15 43.69L79.03 43.56Q82.60 44.09 85.49 45.11L85.59 45.21L85.55 45.17Q79.39 40.73 75.70 35.55L75.66 35.51L75.61 35.46Q79.42 30.59 83.99 26.52L83.94 26.47L83.89 26.42Q83.03 26.86 82.04 27.09L82.07 27.11L79.97 27.48L79.96 27.47Q81.23 26.65 83.40 24.79Z"/><path d="M4 13 C78 33,88 48,132 40" stroke="#df66df" fill="none"/><path fill="#df7bad" d="M124.96 41.32L124.90 41.26L121.84 41.05L121.83 41.05Q119.56 41.06 118.76 40.94L118.59 40.78L118.76 40.95Q116.95 40.62 115.77 39.74L115.75 39.72L115.64 39.62Q114.46 38.32 114.23 34.97L114.16 34.90L114.19 34.92Q114.08 34.36 114.00 33.14L114.00 33.14L114.08 33.22Q113.96 32.68 113.88 31.58L113.99 31.69L114.02 31.72Q113.90 30.79 113.93 30.07L113.89 30.03L113.91 30.04Q114.08 28.08 115.11 27.32L115.09 27.30L115.15 27.36Q117.15 26.28 121.98 26.05L122.00 26.07L121.99 26.05Q124.03 25.97 124.83 25.97L124.82 25.95L124.71 25.84Q126.32 25.97 127.69 26.28L127.64 26.22L127.70 26.29Q126.99 27.40 126.46 29.23L126.55 29.32L126.48 29.25Q126.05 29.40 125.56 29.36L125.58 29.38L125.49 29.28Q125.46 29.34 124.93 29.22L124.89 29.19L123.90 28.91L124.02 29.04Q122.94 28.75 122.33 28.79L122.35 28.81L122.20 28.66Q117.53 28.79 116.92 31.61L116.91 31.60L116.91 31.59Q116.59 32.68 116.67 33.64L116.75 33.72L116.77 33.74Q116.82 36.23 118.06 37.31L118.20 37.45L118.04 37.29Q119.47 38.57 122.05 38.61L121.89 38.44L122.00 38.55Q123.48 38.58 124.20 38.28L124.09 38.17L125.26 37.81L125.18 37.74Q125.79 37.58 126.36 37.51L126.32 37.47L126.28 37.42Q126.59 39.29 126.97 40.59L127.00 40.63L126.97 40.59Q126.76 40.99 124.97 41.34ZM128.03 44.09L128.12 44.17L128.13 44.19Q128.43 44.14 129.27 44.22L129.32 44.27L129.37 44.33Q129.95 44.29 130.29 43.72L130.29 43.72L130.41 43.84Q129.06 41.62 128.57 39.53L128.62 39.57L128.56 39.52Q128.22 39.48 127.77 39.48L127.76 39.48L127.85 39.56Q127.34 39.48 126.96 39.67L126.95 39.65L126.99 39.70Q126.77 38.57 126.62 37.16L126.59 37.13L126.62 37.15Q125.88 36.95 124.66 37.52L124.71 37.57L124.76 37.61Q123.55 38.20 123.06 38.20L122.91 38.05L122.99 38.13Q122.54 38.18 121.93 38.14L122.00 38.21L121.85 38.06Q121.07 38.16 119.10 37.59L118.98 37.47L118.95 37.45Q118.76 36.87 118.80 35.73L118.64 35.57L118.81 35.74Q119.00 31.52 123.95 30.98L123.78 30.81L123.86 30.90Q124.55 30.90 125.92 31.24L125.99 31.32L125.85 31.17Q127.37 31.66 128.09 31.62L128.07 31.60L128.07 31.60Q128.34 29.21 129.02 27.38L129.10 27.45L129.09 27.44Q128.82 27.44 128.43 27.36L128.34 27.27L127.56 27.17L127.64 27.25Q127.81 26.74 128.19 25.86L128.09 25.76L128.18 25.85Q126.63 25.48 125.07 25.48L125.11 25.52L125.14 25.55Q122.74 25.55 118.36 25.93L118.29 25.86L118.34 25.91Q116.44 26.10 114.88 27.09L114.79 27.00L114.78 27.00Q113.67 28.05 113.67 29.95L113.56 29.84L113.50 29.79Q113.54 30.25 113.66 31.47L113.62 31.43L113.74 31.55Q113.74 32.50 113.70 33.11L113.78 33.18L113.80 33.21Q113.75 35.02 114.48 38.76L114.59 38.87L114.46 38.74Q114.86 39.59 115.35 40.09L115.38 40.11L115.52 40.25L115.61 40.31L115.65 40.35Q116.75 42.55 120.67 43.16L120.56 43.05L120.57 43.06Q123.85 43.68 126.51 43.94L126.33 43.76L126.45 43.88Q127.13 43.83 128.04 44.10Z"/><path d="M3 42 C77 4,77 21,131 10" stroke="#d6914c" fill="none"/><path fill="#663ae7" d="M55.13 30.34L55.08 30.29L55.07 30.28Q55.19 29.90 55.15 29.49L55.32 29.65L55.31 29.64Q55.05 29.08 54.74 28.89L54.88 29.03L54.90 29.04Q54.14 28.44 53.27 28.59L53.24 28.56L53.19 28.52Q52.07 28.46 50.44 29.57L50.44 29.57L50.50 29.63Q49.03 30.48 49.03 31.66L49.07 31.70L49.07 31.71Q49.20 33.09 49.20 36.40L49.09 36.29L49.15 36.35Q49.16 38.95 49.31 40.97L49.19 40.85L49.16 40.82Q47.42 40.79 47.42 40.79L47.51 40.88L47.43 40.80Q46.61 40.93 45.89 41.01L45.83 40.95L45.87 40.99Q46.29 38.48 46.37 36.23L46.28 36.15L46.28 36.15Q46.52 31.59 45.87 30.30L45.85 30.27L45.86 30.29Q45.44 29.56 44.87 29.25L45.03 29.41L44.98 29.37Q44.17 28.67 42.61 28.55L42.66 28.60L42.52 28.46Q40.52 28.25 39.99 29.85L40.02 29.88L39.98 29.85Q39.90 30.41 40.01 30.90L40.01 30.90L39.92 30.82Q40.66 33.65 40.31 36.42L40.32 36.43L40.31 36.42Q39.93 39.16 38.52 41.60L38.47 41.55L38.56 41.64Q37.53 41.78 35.43 42.20L35.57 42.34L35.42 42.19Q38.00 39.02 38.00 34.72L38.03 34.75L37.93 34.65Q37.90 28.75 33.86 24.53L33.90 24.56L33.91 24.57Q34.63 24.84 35.58 25.07L35.62 25.11L37.39 25.54L37.31 25.46Q37.85 26.16 38.73 27.83L38.70 27.81L38.65 27.75Q38.81 25.86 41.24 25.82L41.21 25.79L41.25 25.83Q41.46 25.85 42.45 25.92L42.39 25.86L42.50 25.97Q47.55 26.34 48.69 29.15L48.63 29.09L48.71 29.17Q50.34 26.43 55.37 25.89L55.27 25.80L55.32 25.85Q56.15 25.80 57.03 25.92L57.03 25.92L56.89 25.78Q59.16 26.03 59.00 27.59L58.91 27.50L58.96 27.55Q58.98 28.29 58.72 29.05L58.70 29.04L58.68 29.02Q57.28 32.03 57.51 35.57L57.54 35.61L57.56 35.63Q57.57 38.91 59.48 41.73L59.63 41.88L59.64 41.89Q57.85 41.44 56.02 41.21L56.17 41.35L56.16 41.34Q54.90 38.75 54.71 35.98L54.65 35.91L54.56 35.83Q54.46 33.06 55.11 30.32ZM55.89 41.68L55.77 41.56L55.90 41.69Q56.50 41.65 57.84 41.84L57.91 41.91L57.85 41.85Q58.52 42.71 59.66 44.12L59.60 44.06L59.63 44.09Q62.50 44.60 64.59 45.25L64.54 45.19L64.65 45.31Q59.63 41.39 59.36 34.88L59.33 34.85L59.32 34.83Q59.28 32.78 59.89 30.88L59.88 30.86L59.86 30.84Q60.06 29.94 60.06 29.21L59.94 29.09L59.98 29.14Q60.13 28.38 59.53 27.81L59.54 27.82L59.35 27.60L59.36 27.61Q59.40 27.08 59.33 26.58L59.43 26.68L59.34 26.59Q59.24 26.07 58.78 25.80L58.84 25.87L58.87 25.89Q58.18 25.39 57.30 25.36L57.23 25.28L57.34 25.39Q54.55 25.35 51.89 26.30L51.74 26.15L51.72 26.13Q49.92 27.00 48.74 28.41L48.67 28.34L48.57 28.24Q47.09 25.84 42.26 25.50L42.19 25.43L42.24 25.48Q41.51 25.40 41.09 25.40L41.08 25.39L41.11 25.42Q39.14 25.50 38.53 26.76L38.49 26.72L38.51 26.74Q38.11 26.15 37.42 25.08L37.46 25.12L37.56 25.22Q34.98 24.58 33.00 23.94L33.05 23.98L33.14 24.07Q37.67 28.33 37.67 34.61L37.60 34.55L37.61 34.56Q37.72 39.39 34.87 42.86L34.84 42.83L34.88 42.87Q35.37 42.75 35.87 42.68L35.78 42.59L36.68 42.34L36.83 42.49Q36.15 43.56 35.04 44.78L35.03 44.77L34.96 44.70Q36.61 44.41 39.73 43.80L39.73 43.80L39.79 43.86Q42.36 39.65 42.36 34.74L42.33 34.71L42.34 34.72Q42.40 33.98 42.33 33.15L42.29 33.11L42.32 33.14Q42.24 32.37 43.23 31.57L43.30 31.64L43.20 31.59L43.13 31.51Q43.80 31.12 44.98 31.00L44.89 30.91L44.86 30.88Q45.51 31.12 45.82 31.12L45.81 31.11L45.76 31.25L45.81 31.30Q46.00 33.92 45.88 36.28L45.88 36.28L45.98 36.38Q45.79 38.59 45.29 41.25L45.36 41.32L45.33 41.29Q46.36 41.29 46.36 41.29L46.41 41.34L46.38 41.31Q47.84 41.33 47.50 41.33L47.33 41.16L47.41 41.23Q47.55 41.87 47.51 42.33L47.49 42.30L47.49 42.31Q47.48 42.79 47.48 43.29L47.46 43.27L49.89 43.23L49.88 43.21Q51.21 43.29 52.47 43.36L52.30 43.19L52.42 43.31Q50.83 39.56 51.03 33.62L51.10 33.69L51.05 33.65Q51.02 32.48 52.20 31.72L52.20 31.72L52.23 31.74Q53.11 30.91 54.36 30.72L54.45 30.80L54.74 30.78L54.72 30.76Q54.32 32.73 54.32 34.71L54.33 34.71L54.30 34.69Q54.32 38.47 55.84 41.63ZM50.42 30.20L50.57 30.12L50.32 30.21L50.44 30.22Z"/><path d="M14 2 C62 35,60 46,140 20" stroke="#e37792" fill="none"/><path fill="#9848e9" d="M13.63 14.29L13.71 14.37L13.64 14.30Q17.38 16.78 22.14 17.01L22.11 16.98L22.14 17.01Q26.78 17.20 31.05 15.45L31.07 15.47L31.04 15.44Q30.75 15.96 29.99 18.73L30.13 18.87L30.01 18.75Q27.35 19.86 24.38 20.02L24.39 20.02L24.35 19.98Q21.40 20.15 18.50 19.43L18.49 19.42L18.47 19.40Q19.18 23.04 19.37 26.69L19.41 26.73L19.49 26.81Q21.42 26.95 23.02 26.91L23.04 26.93L23.01 26.90Q24.27 26.94 26.66 26.83L26.71 26.87L26.63 26.80Q26.67 27.52 26.67 28.20L26.56 28.10L26.53 29.39L26.65 29.51Q24.26 29.52 19.46 29.60L19.44 29.57L19.43 29.56Q19.46 33.71 18.89 37.71L18.84 37.66L18.75 37.56Q21.50 37.04 24.24 37.15L24.18 37.09L24.27 37.18Q26.83 37.12 29.42 37.96L29.52 38.06L29.45 37.99Q29.55 38.81 29.81 39.57L29.80 39.55L30.21 41.03L30.30 41.12Q27.16 39.89 23.73 39.89L23.71 39.87L23.59 39.74Q18.88 39.91 14.62 42.15L14.45 41.99L14.55 42.08Q16.74 35.14 16.48 28.02L16.64 28.18L16.57 28.12Q16.36 21.01 13.69 14.35ZM14.03 42.78L13.96 42.71L14.09 42.84Q15.31 42.08 16.07 41.73L15.95 41.62L15.96 41.62Q15.83 42.45 15.25 43.97L15.30 44.02L15.34 44.06Q19.82 42.03 24.88 42.29L24.80 42.21L24.87 42.27Q30.03 42.56 34.02 45.26L34.07 45.31L33.95 45.19Q32.79 42.66 32.10 40.72L32.26 40.87L32.22 40.83Q31.29 40.29 30.31 39.95L30.23 39.87L30.22 39.86Q29.77 38.42 29.62 37.62L29.66 37.67L29.72 37.73Q26.50 36.60 23.34 36.60L23.34 36.60L23.37 36.62Q22.36 36.76 21.22 36.88L21.11 36.76L21.15 36.81Q21.29 35.58 21.33 34.36L21.34 34.37L21.47 31.91L21.39 31.83Q23.15 31.69 24.94 31.73L24.91 31.70L24.92 31.71Q26.79 31.79 28.58 31.94L28.66 32.02L28.71 32.07Q28.60 31.09 28.60 30.13L28.46 29.99L28.51 28.14L27.81 28.31L27.67 28.17Q27.31 28.31 26.85 28.31L26.85 28.30L26.90 28.35Q26.83 27.61 26.99 26.31L27.06 26.39L26.97 26.30Q25.38 26.54 24.20 26.57L24.16 26.53L24.17 26.54Q23.37 26.69 21.54 26.62L21.54 26.62L21.36 26.43Q21.33 25.07 21.14 22.25L21.19 22.30L21.13 22.24Q22.22 22.42 23.21 22.42L23.11 22.32L23.20 22.41Q27.96 22.45 31.66 20.55L31.61 20.50L31.66 20.56Q32.09 18.05 32.97 15.84L33.15 16.03L33.02 15.90Q31.70 16.75 30.87 17.10L30.97 17.20L30.84 17.07Q31.24 16.40 31.70 14.84L31.59 14.73L31.75 14.89Q26.95 16.87 22.08 16.57L22.20 16.69L22.13 16.62Q16.83 16.31 12.98 13.45L12.94 13.41L13.08 13.55Q15.87 20.41 16.18 28.03L16.27 28.12L16.28 28.13Q16.57 36.04 14.06 42.81Z"/><path d="M4 23 C91 38,93 24,147 11" stroke="#ed81d2" fill="none"/><path d="M15 30 C64 14,82 27,133 38" stroke="#e67650" fill="none"/><path fill="#5f81e7" d="M92.65 33.33L92.66 33.34L92.63 33.31Q92.49 36.14 91.31 40.79L91.31 40.79L91.22 40.70Q89.41 41.21 87.81 42.01L87.93 42.13L87.91 42.11Q90.51 35.08 90.25 27.66L90.34 27.75L90.30 27.71Q90.03 20.32 86.94 13.58L86.89 13.52L86.87 13.51Q88.79 14.74 90.65 15.31L90.80 15.46L90.61 15.27Q92.79 22.29 92.79 28.95L92.80 28.96L92.89 29.04Q92.90 30.50 92.82 31.99L92.67 31.84L92.79 31.95Q93.96 30.76 99.17 25.81L99.06 25.70L99.08 25.72Q100.19 25.73 101.18 25.65L101.27 25.74L103.35 25.57L103.37 25.59Q100.07 28.46 95.77 32.23L95.92 32.38L95.83 32.29Q99.27 35.12 105.74 40.94L105.59 40.79L105.75 40.96Q102.93 39.96 99.96 39.77L100.09 39.90L100.04 39.85Q97.57 37.80 92.70 33.38ZM102.44 42.40L102.46 42.43L102.53 42.49Q107.27 43.35 110.39 45.29L110.33 45.23L110.32 45.22Q109.16 43.95 106.53 41.55L106.52 41.54L106.46 41.48Q106.70 41.56 106.97 41.68L106.96 41.67L106.94 41.65Q105.00 39.79 102.76 37.89L102.73 37.85L98.22 33.88L98.24 33.90Q103.28 29.77 105.72 26.88L105.65 26.81L105.58 26.73Q104.45 26.90 101.97 27.16L101.89 27.08L101.99 27.19Q103.55 25.70 104.24 24.86L104.26 24.88L104.17 24.79Q101.56 25.46 99.09 25.46L99.07 25.44L99.05 25.42Q97.60 26.68 94.86 29.34L94.79 29.27L94.91 29.39Q94.79 23.48 93.80 17.66L93.81 17.67L93.79 17.65Q93.11 17.50 91.63 17.24L91.60 17.21L91.75 17.36Q91.60 16.64 91.15 15.16L91.11 15.13L91.03 15.04Q88.46 14.30 86.21 12.74L86.10 12.63L86.15 12.67Q89.63 19.54 89.97 27.65L90.05 27.73L89.85 27.53Q90.39 35.64 87.38 42.88L87.19 42.69L87.37 42.87Q87.91 42.41 89.24 41.77L89.39 41.91L89.23 41.76Q89.10 42.70 88.46 44.14L88.49 44.17L88.35 44.04Q91.24 43.00 93.37 42.62L93.43 42.68L93.34 42.59Q93.88 40.04 94.37 35.78L94.46 35.87L94.34 35.75Q97.02 38.08 102.46 42.42Z"/></svg>