<svg xmlns="http://www.w3.org/2000/svg" width="150" height="50" viewBox="0,0,150,50"><rect width="100%" height="100%" fill="white"/><path d="M16 43 C59 11,64 6,133 41" stroke="#977aef" fill="none"/><path fill="#418cd6" d="M119.08 25.05L119.13 25.10L119.20 25.16Q119.94 25.37 121.92 25.37L121.88 25.33L122.01 32.63L121.92 32.53Q122.03 36.86 122.14 39.76L122.21 39.83L122.20 39.82Q121.84 39.69 121.46 39.69L121.31 39.53L121.35 39.58Q120.00 39.67 118.55 41.00L118.46 40.92L118.51 40.96Q119.35 33.39 119.16 25.13ZM119.09 19.72L118.00 17.12L117.93 17.05Q119.50 16.03 120.22 15.07L120.22 15.07L120.26 15.11Q121.26 16.91 122.67 18.58L122.81 18.73L122.73 18.65Q121.90 20.14 120.53 22.28L120.55 22.29L120.52 22.26Q119.64 21.04 119.07 19.70L119.13 19.77ZM117.93 41.79L117.98 41.84L117.94 41.80Q118.86 40.62 120.11 40.13L120.19 40.21L120.29 40.31Q120.22 40.92 120.11 42.29L120.12 42.30L120.12 42.30Q120.70 41.97 121.35 41.97L121.41 42.04L121.52 42.14Q123.68 42.10 125.09 44.08L125.01 44.00L125.14 44.13Q123.74 36.64 123.82 26.48L123.88 26.54L123.79 26.45Q123.06 26.66 122.22 26.78L122.27 26.83L122.19 24.89L122.31 25.00Q121.32 25.15 120.52 25.08L120.47 25.03L120.52 25.08Q119.54 24.87 118.67 24.37L118.76 24.47L118.71 24.41Q118.90 26.50 118.90 28.56L118.88 28.54L118.88 28.54Q118.81 35.51 117.93 41.79ZM120.56 22.91L120.46 22.81L120.62 22.59L120.78 22.45L120.83 22.50Q121.27 23.32 122.30 24.80L122.18 24.68L122.25 24.75Q123.60 22.41 124.93 18.87L124.84 18.78L125.03 18.97Q124.06 18.11 122.50 16.51L122.59 16.60L122.55 16.56Q122.26 16.58 121.99 17.04L122.09 17.13L121.99 17.03Q121.17 15.90 120.25 14.46L120.31 14.51L120.30 14.50Q118.86 16.15 117.68 16.50L117.59 16.41L117.71 16.52Q118.69 19.86 120.51 22.86Z"/><path d="M17 34 C88 2,59 15,130 44" stroke="#589ee3" fill="none"/><path fill="#dd7654" d="M68.40 40.34L68.48 40.42L68.34 40.28Q64.43 40.67 63.44 38.34L63.31 38.22L63.47 38.38Q64.13 37.33 65.69 35.54L65.67 35.52L65.63 35.48Q66.21 37.58 69.22 37.69L69.26 37.74L69.16 37.64Q72.59 37.75 74.23 36.42L74.18 36.38L74.28 36.48Q75.67 34.85 75.59 32.15L75.56 32.12L75.56 32.12Q75.45 27.10 70.66 27.33L70.63 27.30L70.53 27.20Q67.86 27.50 66.11 28.76L65.98 28.63L65.78 28.58L65.46 28.34L65.49 28.37Q65.76 25.14 65.65 22.40L65.65 22.40L65.77 22.52Q65.60 19.84 65.26 16.53L65.20 16.47L65.34 16.61Q68.99 17.55 72.79 17.43L72.71 17.35L72.75 17.39Q76.50 17.25 80.07 16.00L80.10 16.02L79.60 17.62L79.48 17.50Q79.17 18.25 78.98 19.09L78.99 19.10L79.06 19.17Q76.03 20.29 72.14 20.29L72.00 20.15L72.15 20.30Q70.67 20.26 69.18 20.11L69.12 20.05L69.06 19.98Q69.08 20.77 68.74 25.22L68.79 25.28L68.74 25.22Q69.52 24.70 71.57 24.55L71.52 24.50L71.52 24.50Q75.37 24.84 76.81 26.52L76.72 26.42L76.85 26.55Q78.05 27.91 78.32 31.75L78.37 31.81L78.32 31.76Q78.77 36.12 77.55 38.14L77.37 37.96L77.55 38.14Q75.39 39.91 72.08 40.14L72.15 40.20L72.06 40.11Q71.13 40.25 68.46 40.40ZM74.57 42.74L74.47 42.64L74.49 42.66Q77.98 42.80 79.88 41.70L79.73 41.55L79.74 41.55Q80.82 40.12 80.82 38.03L80.75 37.95L80.86 38.06Q80.75 34.87 79.80 30.76L79.92 30.88L79.79 30.75Q79.45 29.05 78.24 27.64L78.23 27.63L78.40 27.84L78.07 27.43L77.70 27.21L77.70 27.22Q77.38 26.48 76.73 25.79L76.84 25.90L76.73 25.83L76.72 25.82Q75.25 24.20 71.56 24.20L71.65 24.29L71.22 24.12L71.36 24.27Q71.40 23.66 71.59 22.56L71.47 22.44L71.53 22.50Q76.46 22.55 80.50 20.92L80.67 21.09L80.59 21.01Q81.05 19.64 82.00 16.82L81.97 16.79L79.96 17.82L79.95 17.81Q80.31 16.65 80.80 15.51L80.80 15.51L80.77 15.48Q76.92 16.92 72.81 17.00L72.71 16.90L72.79 16.98Q68.73 17.14 64.77 16.03L64.70 15.96L64.71 15.98Q65.48 20.48 65.48 24.90L65.50 24.91L65.44 24.85Q65.43 26.75 65.32 28.65L65.20 28.53L65.30 28.64Q65.61 28.87 66.18 29.17L66.08 29.07L66.05 29.04Q66.39 28.81 67.04 28.47L67.03 28.46L67.04 28.47Q67.04 29.27 66.81 30.79L66.81 30.79L66.79 30.77Q67.23 30.98 67.65 31.21L67.64 31.20L67.68 31.25Q70.48 29.51 72.35 29.51L72.29 29.46L72.40 29.57Q73.73 29.56 74.91 30.21L74.86 30.16L74.78 30.08Q75.22 31.21 75.26 32.16L75.26 32.16L75.19 32.09Q75.34 34.76 74.31 35.86L74.21 35.76L74.23 35.77Q72.94 37.07 70.69 37.30L70.67 37.27L70.70 37.30Q69.78 37.42 69.10 37.34L68.95 37.19L69.06 37.30Q68.09 37.06 67.33 36.72L67.37 36.76L67.31 36.50L67.27 36.70L67.25 36.67Q66.55 36.28 66.02 34.95L65.96 34.89L66.01 34.94Q64.60 36.27 62.92 38.40L62.94 38.42L62.91 38.39Q63.14 38.96 63.98 39.91L63.99 39.93L63.99 39.92Q65.16 41.86 67.98 42.35L67.97 42.34L67.86 42.23Q69.12 42.54 74.49 42.66Z"/><path fill="#e390ce" d="M100.05 30.90L100.02 30.86L100.09 30.94Q100.09 29.41 99.27 28.50L99.23 28.46L99.22 28.44Q98.51 27.64 97.06 27.68L97.01 27.63L97.10 27.72Q94.83 27.84 93.99 29.97L93.81 29.79L93.85 29.84Q93.67 30.72 93.63 31.40L93.60 31.37L93.54 31.31Q93.29 36.13 92.38 40.47L92.42 40.51L92.47 40.56Q90.78 41.08 88.91 42.07L88.91 42.06L88.85 42.01Q91.22 35.13 90.96 27.82L90.93 27.79L90.86 27.71Q90.70 20.48 88.15 13.66L88.11 13.63L88.00 13.51Q89.95 15.01 91.97 15.70L91.81 15.53L91.82 15.55Q93.31 21.38 93.50 27.24L93.58 27.32L93.50 27.24Q94.84 25.12 97.55 25.19L97.61 25.26L97.64 25.29Q102.61 25.27 102.72 30.63L102.86 30.77L102.80 30.71Q102.95 36.42 104.32 41.07L104.37 41.11L104.25 41.00Q102.51 40.28 100.76 40.09L100.80 40.14L100.73 40.07Q100.11 36.70 99.99 30.84ZM100.30 40.28L100.44 40.42L100.43 40.41Q101.40 40.47 102.50 40.73L102.45 40.68L102.54 40.77Q102.57 40.91 103.10 42.89L103.09 42.88L103.09 42.88Q106.00 43.78 108.02 45.22L108.06 45.26L108.04 45.24Q105.43 39.54 104.89 33.22L104.91 33.24L104.89 33.22Q104.60 29.54 103.19 27.98L103.14 27.94L103.08 27.87Q103.20 27.91 102.55 27.45L102.37 27.27L102.45 27.35Q102.20 26.84 101.55 26.08L101.61 26.14L101.68 26.13L101.66 26.11Q100.76 25.21 97.64 24.95L97.61 24.92L97.70 25.00Q96.98 25.00 95.57 25.35L95.43 25.21L95.55 25.32Q95.21 20.35 94.87 17.83L94.82 17.78L94.98 17.95Q94.16 17.78 92.68 17.47L92.60 17.39L92.77 17.56Q92.47 16.69 92.20 15.20L92.29 15.29L92.34 15.34Q89.32 14.30 87.45 12.74L87.51 12.79L87.39 12.68Q90.32 19.79 90.58 27.60L90.62 27.64L90.57 27.58Q90.87 35.38 88.32 42.73L88.35 42.76L88.42 42.82Q89.25 42.14 90.39 41.64L90.40 41.65L89.75 44.00L89.67 43.93Q92.88 42.69 94.86 42.50L94.83 42.46L94.88 42.51Q95.39 37.04 95.58 33.08L95.58 33.09L95.49 33.00Q95.69 31.25 97.63 30.15L97.56 30.08L97.61 30.13Q98.03 29.79 98.56 29.82L98.59 29.86L98.74 30.00Q98.71 29.82 99.05 29.86L99.07 29.87L99.61 30.08L99.68 30.14Q99.60 30.44 99.71 30.90L99.62 30.80L99.66 30.85Q99.80 36.85 100.30 40.28Z"/><path fill="#e8ad71" d="M26.00 30.84L26.15 30.99L26.05 30.89Q26.08 29.40 25.26 28.49L25.26 28.49L25.36 28.59Q24.42 27.55 22.97 27.59L23.03 27.65L22.95 27.57Q20.67 27.68 19.83 29.81L19.92 29.90L19.82 29.81Q19.66 30.71 19.63 31.40L19.49 31.27L19.68 31.45Q19.41 36.25 18.50 40.59L18.50 40.59L18.41 40.50Q16.71 41.01 14.85 42.00L14.89 42.04L14.92 42.08Q17.09 34.99 16.82 27.68L16.93 27.79L16.87 27.73Q16.52 20.30 13.97 13.49L14.03 13.54L14.09 13.61Q15.76 14.82 17.78 15.50L17.80 15.53L17.96 15.68Q19.41 21.48 19.60 27.34L19.60 27.34L19.50 27.24Q21.01 25.28 23.71 25.36L23.54 25.19L23.60 25.24Q28.60 25.26 28.71 30.63L28.73 30.64L28.82 30.74Q28.96 36.43 30.33 41.07L30.29 41.04L30.24 40.99Q28.46 40.23 26.71 40.04L26.61 39.94L26.61 39.95Q26.22 36.81 26.10 30.95ZM26.35 40.33L26.31 40.29L26.39 40.37Q27.42 40.49 28.53 40.76L28.51 40.74L28.48 40.71Q28.47 40.82 29.01 42.80L29.11 42.90L29.20 42.99Q32.09 43.86 34.10 45.31L34.10 45.30L34.15 45.35Q31.33 39.45 30.79 33.13L30.93 33.26L30.81 33.14Q30.53 29.48 29.12 27.92L29.21 28.00L29.18 27.97Q29.13 27.85 28.49 27.39L28.39 27.29L28.48 27.39Q28.13 26.77 27.49 26.01L27.54 26.07L27.62 26.07L27.71 26.16Q26.74 25.19 23.61 24.92L23.54 24.85L23.70 25.01Q23.00 25.02 21.59 25.37L21.52 25.30L21.44 25.22Q21.32 20.45 20.98 17.94L20.85 17.81L20.88 17.84Q20.18 17.79 18.69 17.48L18.74 17.53L18.59 17.38Q18.54 16.76 18.27 15.28L18.27 15.27L18.23 15.23Q15.22 14.20 13.36 12.64L13.41 12.70L13.39 12.68Q16.45 19.92 16.71 27.72L16.67 27.68L16.62 27.63Q16.88 35.40 14.33 42.74L14.38 42.78L14.43 42.84Q15.22 42.11 16.36 41.61L16.47 41.72L15.74 44.00L15.78 44.04Q18.81 42.62 20.79 42.43L20.80 42.44L20.76 42.39Q21.33 36.98 21.52 33.02L21.57 33.07L21.54 33.04Q21.69 31.26 23.64 30.15L23.57 30.09L23.56 30.08Q24.17 29.93 24.70 29.97L24.71 29.97L24.61 29.88Q24.72 29.83 25.06 29.87L25.08 29.89L25.53 30.00L25.61 30.08Q25.67 30.51 25.78 30.97L25.78 30.96L25.73 30.91Q25.87 36.92 26.36 40.34Z"/><path fill="#ea967a" d="M45.83 29.95L45.69 29.81L45.69 29.81Q45.47 29.81 45.16 29.81L45.21 29.87L45.10 29.75Q43.95 29.93 42.50 30.77L42.40 30.67L42.42 30.68Q41.08 31.78 41.08 33.69L41.17 33.78L41.02 33.63Q41.04 37.08 42.56 38.41L42.60 38.44L42.64 38.48Q43.45 39.52 45.73 39.52L45.75 39.54L45.75 39.54Q46.07 39.63 46.38 39.63L46.31 39.56L46.45 39.70Q48.05 39.59 49.19 37.96L49.21 37.97L49.20 37.96Q50.21 36.42 50.13 34.63L50.15 34.65L50.16 34.66Q50.23 34.19 50.23 33.77L50.20 33.75L50.34 33.88Q50.22 31.98 48.85 30.82L48.87 30.84L48.93 30.90Q47.51 29.69 45.72 29.84ZM50.27 40.06L50.31 40.10L50.15 39.94Q49.20 41.93 45.47 42.04L45.51 42.07L45.45 42.01Q42.14 42.21 40.54 40.61L40.42 40.49L40.48 40.55Q39.09 38.85 38.29 34.06L38.32 34.08L38.19 33.96Q37.86 32.18 37.86 30.92L37.86 30.92L38.00 31.06Q38.02 29.29 38.74 28.23L38.66 28.15L38.59 28.08Q40.00 26.74 42.97 26.74L43.11 26.88L43.00 26.78Q49.24 26.70 51.14 29.29L51.16 29.30L51.28 29.43Q51.39 28.54 51.81 26.94L51.80 26.94L51.86 27.00Q53.05 26.62 55.49 25.82L55.50 25.83L55.55 25.88Q53.19 31.60 52.96 37.92L52.78 37.74L52.91 37.86Q52.58 43.93 54.71 49.76L54.75 49.79L54.87 49.91Q53.04 49.19 51.25 48.92L51.18 48.85L51.33 49.00Q50.44 45.06 50.33 40.12ZM50.93 49.17L51.11 49.35L51.10 49.34Q51.65 49.32 53.05 49.62L53.09 49.65L53.07 49.64Q53.28 50.34 53.85 51.75L53.84 51.74L53.92 51.82Q56.52 52.55 58.80 53.85L58.88 53.93L58.78 53.82Q54.72 47.22 54.72 38.69L54.76 38.73L54.76 38.73Q54.69 32.30 57.16 26.51L57.31 26.65L57.18 26.53Q56.50 26.84 55.13 27.48L55.12 27.47L55.24 27.60Q55.49 26.74 56.13 25.18L56.07 25.11L56.10 25.15Q54.69 25.83 51.49 26.70L51.48 26.69L51.38 26.59Q51.41 27.30 51.10 28.48L51.03 28.41L51.08 28.46Q49.04 26.53 42.91 26.38L42.88 26.35L42.77 26.24Q39.69 26.29 38.32 27.77L38.22 27.67L38.24 27.68Q37.55 28.91 37.59 30.81L37.64 30.85L37.65 30.87Q37.65 33.76 38.64 37.53L38.60 37.49L38.64 37.53Q39.32 39.96 40.23 40.91L40.28 40.96L40.54 41.22L40.67 41.35Q41.82 44.09 47.26 44.32L47.28 44.35L47.31 44.37Q48.24 44.31 50.07 44.01L50.01 43.95L50.02 43.96Q50.38 46.95 50.99 49.23ZM47.58 32.12L47.54 32.08L47.57 32.10Q48.69 32.16 49.52 32.46L49.60 32.54L49.55 32.48Q49.83 33.11 49.95 33.72L49.82 33.60L49.84 33.62Q49.94 34.17 49.86 34.78L49.84 34.76L49.91 34.83Q49.79 36.62 48.77 37.91L48.80 37.94L48.79 37.94Q47.65 39.38 45.78 39.19L45.85 39.25L45.77 39.17Q44.61 39.31 43.66 38.89L43.58 38.81L43.63 38.87Q43.28 38.06 43.28 36.84L43.28 36.84L43.16 36.72Q43.23 36.48 43.23 36.18L43.15 36.10L43.28 36.23Q43.29 34.49 44.62 33.33L44.59 33.30L44.62 33.33Q45.82 32.03 47.57 32.11Z"/><path d="M11 11 C65 22,85 7,148 30" stroke="#67e9a8" fill="none"/><path d="M12 47 C55 32,83 13,131 29" stroke="#a056eb" fill="none"/><path d="M17 22 C94 44,75 40,144 16" stroke="#73e773" fill="none"/></svg>