<svg xmlns="http://www.w3.org/2000/svg" width="150" height="50" viewBox="0,0,150,50"><rect width="100%" height="100%" fill="white"/><path d="M18 41 C77 17,88 27,146 13" stroke="#45e245" fill="none"/><path fill="#3ee467" d="M120.06 40.13L120.09 40.17L120.16 40.23Q116.79 40.44 115.15 39.90L115.03 39.78L115.14 39.90Q113.05 39.14 112.74 35.75L112.83 35.83L114.31 34.80L114.20 34.69Q114.88 34.12 115.64 33.62L115.78 33.76L115.76 33.74Q115.39 35.54 116.99 36.76L117.03 36.80L117.12 36.89Q118.31 37.81 120.44 37.62L120.54 37.72L120.41 37.59Q124.81 37.19 124.62 33.65L124.60 33.63L124.68 33.71Q124.45 31.39 121.83 30.18L121.80 30.15L121.94 30.28Q119.00 29.14 116.64 27.92L116.71 27.99L116.61 27.88Q114.10 26.60 113.11 21.92L113.04 21.85L113.17 21.97Q113.06 21.52 112.95 20.76L112.79 20.61L112.95 20.77Q112.78 19.91 112.86 19.34L112.88 19.37L112.89 19.37Q113.09 17.82 114.34 17.36L114.23 17.25L114.31 17.33Q116.77 16.51 120.77 16.70L120.76 16.69L120.60 16.54Q122.42 16.64 123.22 16.72L123.34 16.85L123.29 16.79Q124.77 16.98 125.84 17.43L125.83 17.43L125.94 17.54Q128.02 17.99 128.25 20.46L128.11 20.32L128.25 20.45Q127.18 21.14 124.98 22.47L124.91 22.40L124.89 22.39Q124.60 19.51 120.22 19.51L120.06 19.35L120.08 19.37Q118.20 19.39 117.21 20.08L117.26 20.12L117.25 20.11Q116.14 20.68 116.37 22.47L116.33 22.44L116.33 22.44Q116.54 24.58 119.51 26.10L119.64 26.23L119.53 26.12Q120.17 26.46 124.66 28.10L124.48 27.92L124.51 27.95Q127.17 29.47 127.59 33.84L127.62 33.87L127.63 33.88Q127.53 33.94 127.61 35.20L127.65 35.24L127.73 35.31Q127.67 37.96 126.11 39.07L126.27 39.23L126.28 39.23Q124.44 40.21 120.25 40.32ZM122.56 42.71L122.42 42.57L122.51 42.66Q123.87 42.65 125.85 42.65L125.82 42.62L125.82 42.62Q127.98 42.69 129.24 42.27L129.26 42.29L129.22 42.25Q130.54 41.52 130.47 39.73L130.35 39.61L130.40 39.66Q130.33 38.64 129.95 36.59L129.97 36.61L129.89 36.52Q128.98 31.84 126.88 29.98L126.94 30.03L126.91 30.01Q126.24 28.53 124.90 27.81L124.86 27.77L119.47 25.61L119.61 25.75Q119.16 25.45 118.70 25.22L118.72 25.24L118.70 24.96L118.59 24.51L118.63 24.54Q118.56 23.21 119.70 22.60L119.64 22.54L119.71 22.61Q120.41 21.98 122.13 21.79L122.07 21.74L122.05 21.72Q123.32 21.73 124.46 22.19L124.35 22.08L124.48 22.20Q124.37 22.13 124.56 22.97L124.69 23.10L124.60 23.01Q124.85 22.92 125.34 22.69L125.43 22.78L125.33 22.68Q125.98 23.52 126.09 24.66L126.11 24.67L126.16 24.72Q126.27 24.72 129.92 22.13L129.98 22.18L129.87 22.07Q129.69 19.54 128.24 18.85L128.10 18.71L128.18 18.79Q127.65 17.57 126.20 17.04L126.23 17.06L126.23 17.06Q123.80 16.12 120.60 16.12L120.76 16.28L120.68 16.20Q115.78 16.21 113.91 16.89L113.95 16.93L113.83 16.81Q112.61 17.38 112.50 19.06L112.51 19.07L112.46 19.01Q112.44 19.57 112.86 21.78L112.84 21.76L112.82 21.73Q113.56 25.57 115.73 27.81L115.75 27.82L115.68 27.76Q116.44 29.44 117.95 30.12L118.09 30.27L118.04 30.21Q119.59 30.95 123.51 32.51L123.45 32.45L123.39 32.43L124.11 32.84L124.21 32.97L124.06 32.82Q124.22 33.26 124.26 33.60L124.25 33.59L124.40 33.74Q124.47 37.20 120.55 37.35L120.50 37.30L120.42 37.22Q119.30 37.27 118.00 36.89L118.04 36.93L118.04 36.93Q117.75 36.15 117.75 35.42L117.64 35.31L117.61 35.29Q117.69 35.10 117.73 34.84L117.66 34.76L117.81 34.91Q117.32 35.07 116.52 35.56L116.45 35.50L116.57 35.62Q116.04 34.48 116.20 33.11L116.14 33.06L116.18 33.09Q114.07 34.25 112.47 35.66L112.37 35.57L112.48 35.68Q112.45 36.41 112.52 37.43L112.67 37.57L112.57 37.47Q112.92 39.24 114.22 40.00L114.24 40.03L114.30 40.08Q115.49 41.89 118.04 42.27L118.06 42.28L118.04 42.26Q119.58 42.47 122.51 42.66Z"/><path fill="#53d4b4" d="M18.67 33.35L18.56 33.24L18.63 33.31Q18.38 36.04 17.20 40.68L17.28 40.76L17.27 40.75Q15.53 41.33 13.93 42.13L13.86 42.06L13.97 42.17Q16.55 35.12 16.28 27.69L16.30 27.71L16.22 27.63Q15.88 20.17 12.80 13.44L12.81 13.45L12.89 13.53Q14.83 14.78 16.69 15.35L16.65 15.31L16.68 15.34Q18.84 22.33 18.84 28.99L18.94 29.09L18.84 29.00Q18.86 30.46 18.78 31.95L18.70 31.86L18.83 31.99Q19.99 30.79 25.21 25.85L25.07 25.70L25.19 25.83Q26.27 25.80 27.26 25.72L27.29 25.75L29.24 25.46L29.20 25.42Q26.06 28.45 21.76 32.22L21.83 32.29L21.86 32.32Q25.26 35.11 31.73 40.93L31.70 40.90L31.65 40.86Q29.07 40.10 26.10 39.91L25.93 39.74L26.02 39.83Q23.51 37.73 18.63 33.32ZM28.60 42.56L28.52 42.48L28.57 42.53Q33.24 43.32 36.36 45.26L36.33 45.23L36.41 45.31Q35.12 43.91 32.49 41.51L32.50 41.51L32.48 41.49Q32.69 41.55 32.95 41.66L33.01 41.72L32.98 41.68Q30.88 39.67 28.64 37.76L28.66 37.79L24.36 34.02L24.22 33.88Q29.27 29.76 31.71 26.86L31.71 26.87L31.60 26.75Q30.45 26.90 27.97 27.16L27.95 27.14L27.93 27.12Q29.67 25.82 30.36 24.98L30.19 24.81L30.28 24.90Q27.42 25.32 24.95 25.32L25.00 25.37L24.95 25.32Q23.53 26.61 20.79 29.27L20.91 29.39L20.84 29.32Q20.82 23.52 19.83 17.69L19.86 17.72L19.97 17.83Q19.08 17.47 17.59 17.20L17.71 17.32L17.71 17.32Q17.43 16.47 16.97 14.98L17.05 15.06L17.14 15.15Q14.40 14.23 12.15 12.67L12.27 12.79L12.21 12.73Q15.63 19.54 15.97 27.65L16.03 27.71L15.90 27.58Q16.25 35.50 13.24 42.73L13.27 42.76L13.37 42.87Q14.07 42.57 15.40 41.92L15.38 41.91L15.40 41.92Q15.12 42.71 14.48 44.16L14.39 44.07L14.41 44.10Q17.32 43.09 19.46 42.71L19.42 42.67L19.33 42.58Q19.90 40.06 20.39 35.80L20.53 35.94L20.40 35.81Q23.03 38.10 28.48 42.44Z"/><path d="M6 38 C56 19,60 19,137 39" stroke="#b7e689" fill="none"/><path d="M6 7 C80 11,69 38,134 33" stroke="#3fdede" fill="none"/><path d="M6 27 C83 45,88 34,143 11" stroke="#63ec86" fill="none"/><path d="M18 28 C78 30,85 33,143 11" stroke="#456bdd" fill="none"/><path fill="#89a0e5" d="M43.68 40.29L43.76 40.37L43.72 40.32Q39.76 40.67 38.77 38.34L38.66 38.24L38.64 38.21Q39.49 37.35 41.05 35.56L41.05 35.56L41.07 35.58Q41.50 37.53 44.51 37.65L44.51 37.65L44.61 37.75Q47.92 37.75 49.56 36.42L49.62 36.47L49.59 36.45Q50.95 34.80 50.87 32.10L50.82 32.05L50.86 32.08Q50.66 26.97 45.86 27.20L45.92 27.26L46.04 27.38Q43.17 27.47 41.41 28.73L41.31 28.63L41.09 28.55L40.86 28.41L40.88 28.42Q41.27 25.31 41.16 22.57L41.02 22.44L41.08 22.49Q40.96 19.86 40.62 16.55L40.59 16.53L40.68 16.61Q44.36 17.59 48.16 17.47L48.07 17.38L48.17 17.47Q51.80 17.22 55.37 15.97L55.54 16.13L54.80 17.48L54.92 17.61Q54.56 18.31 54.37 19.15L54.35 19.13L54.35 19.13Q51.25 20.18 47.36 20.18L47.44 20.25L47.45 20.26Q45.95 20.21 44.47 20.06L44.46 20.05L44.50 20.09Q44.42 20.77 44.07 25.22L44.06 25.21L44.00 25.15Q44.81 24.67 46.87 24.51L47.02 24.67L46.95 24.59Q50.70 24.85 52.15 26.52L52.13 26.51L52.03 26.40Q53.44 27.96 53.71 31.81L53.84 31.95L53.84 31.95Q53.97 36.00 52.76 38.02L52.82 38.08L52.85 38.11Q50.73 39.91 47.42 40.14L47.48 40.21L47.46 40.18Q46.49 40.28 43.83 40.43ZM49.75 42.59L49.89 42.72L49.83 42.67Q53.28 42.77 55.18 41.66L55.07 41.55L55.21 41.69Q56.25 40.21 56.25 38.12L56.11 37.98L56.15 38.02Q56.24 35.03 55.29 30.91L55.15 30.78L55.27 30.89Q54.81 29.07 53.59 27.66L53.52 27.59L53.69 27.79L53.44 27.47L53.00 27.18L53.10 27.28Q52.66 26.42 52.01 25.74L52.12 25.85L52.04 25.80L52.07 25.83Q50.52 24.13 46.82 24.13L46.97 24.27L46.61 24.18L46.66 24.23Q46.71 23.63 46.90 22.53L46.96 22.59L46.82 22.45Q51.89 22.65 55.93 21.01L55.95 21.03L55.90 20.99Q56.43 19.69 57.38 16.87L57.20 16.68L55.15 17.69L55.24 17.78Q55.63 16.64 56.13 15.50L56.13 15.51L56.17 15.54Q52.15 16.82 48.04 16.89L48.20 17.05L48.14 16.99Q43.98 17.06 40.02 15.96L40.13 16.07L39.96 15.90Q40.78 20.45 40.78 24.86L40.80 24.88L40.70 24.78Q40.77 26.75 40.65 28.65L40.71 28.71L40.56 28.56Q40.80 28.73 41.37 29.03L41.43 29.09L41.44 29.10Q41.81 28.89 42.45 28.55L42.46 28.56L42.51 28.60Q42.42 29.32 42.19 30.84L42.26 30.91L42.11 30.75Q42.55 30.97 42.97 31.20L43.10 31.33L42.92 31.15Q45.82 29.52 47.69 29.52L47.57 29.41L47.72 29.56Q48.99 29.49 50.17 30.14L50.23 30.20L50.08 30.05Q50.49 31.14 50.53 32.10L50.46 32.03L50.60 32.17Q50.61 34.69 49.58 35.80L49.53 35.74L49.62 35.84Q48.24 37.04 45.99 37.27L45.97 37.25L46.02 37.30Q45.01 37.31 44.32 37.24L44.27 37.18L44.32 37.23Q43.46 37.09 42.69 36.75L42.67 36.72L42.77 36.63L42.65 36.74L42.51 36.61Q41.74 36.14 41.21 34.81L41.35 34.95L41.28 34.88Q39.92 36.26 38.25 38.39L38.31 38.46L38.25 38.40Q38.63 39.11 39.46 40.07L39.50 40.10L39.32 39.92Q40.47 41.83 43.29 42.33L43.26 42.30L43.30 42.34Q44.39 42.48 49.76 42.59Z"/><path fill="#597de7" d="M101.42 40.85L101.50 40.93L101.56 40.99Q100.14 39.19 98.85 36.11L98.94 36.20L96.88 31.13L96.88 31.13Q95.30 35.15 94.69 36.44L94.52 36.27L94.51 36.26Q93.11 39.24 91.51 41.14L91.55 41.19L91.49 41.12Q91.20 41.22 90.44 41.33L90.39 41.28L90.50 41.39Q90.32 33.78 84.49 27.84L84.52 27.87L84.57 27.92Q82.88 26.15 80.86 24.67L80.85 24.66L80.71 24.52Q82.68 25.19 84.54 25.50L84.52 25.47L84.48 25.43Q90.69 30.54 92.13 36.78L91.94 36.59L92.14 36.78Q93.02 34.93 94.20 31.73L94.07 31.60L94.17 31.70Q95.43 27.85 96.00 26.56L96.14 26.70L97.49 26.64L97.52 26.67Q98.32 28.30 99.50 31.58L99.59 31.67L99.47 31.55Q100.83 35.23 101.47 36.64L101.52 36.68L101.42 36.58Q103.20 30.26 108.68 25.69L108.71 25.72L108.80 25.81Q109.94 25.66 112.68 25.08L112.64 25.04L112.75 25.15Q104.11 31.17 102.93 41.14L102.80 41.01L102.18 40.93L102.17 40.92Q101.90 40.95 101.56 40.99ZM104.50 43.40L106.55 43.58L106.52 43.55Q106.23 42.04 106.23 40.52L106.27 40.56L106.24 40.53Q106.19 37.24 107.59 34.00L107.74 34.15L107.57 33.98Q109.56 29.46 113.67 26.37L113.68 26.38L113.77 26.47Q112.51 26.70 110.65 27.04L110.69 27.09L110.65 27.05Q112.58 25.36 113.87 24.45L113.91 24.49L111.41 24.95L111.48 25.02Q110.13 25.12 108.80 25.27L108.86 25.33L108.89 25.36Q103.71 29.59 101.77 34.61L101.79 34.64L101.83 34.67Q101.02 32.34 99.65 28.08L99.80 28.22L99.78 28.20Q99.36 28.13 99.09 28.13L99.14 28.17L98.66 28.23L98.59 28.16Q98.46 27.84 97.66 26.09L97.67 26.10L95.75 26.23L95.62 26.10Q94.76 29.01 92.66 34.64L92.71 34.69L92.58 34.56Q91.21 30.83 88.13 27.56L88.14 27.57L88.14 27.57Q87.93 27.62 87.62 27.59L87.56 27.52L87.02 27.43L87.04 27.45Q86.13 26.59 84.34 24.99L84.41 25.05L84.46 25.11Q81.36 24.52 79.68 24.02L79.62 23.96L79.57 23.91Q90.25 31.32 89.87 41.64L89.90 41.66L89.85 41.62Q90.20 41.77 90.56 41.73L90.45 41.62L90.56 41.73Q90.88 41.65 91.07 41.65L91.13 41.72L91.12 41.70Q90.96 41.39 91.15 43.49L91.33 43.66L93.17 43.42L93.21 43.45Q95.83 40.67 98.08 34.92L98.11 34.95L97.99 34.84Q99.52 38.72 101.38 41.38L101.45 41.45L101.30 41.30Q101.73 41.39 101.99 41.40L102.01 41.42L101.85 41.26Q102.29 41.46 102.56 41.46L102.53 41.43L104.51 43.40Z"/><path fill="#a868e8" d="M75.64 41.33L75.65 41.34L72.45 41.00L72.52 41.07Q70.25 41.09 69.45 40.97L69.26 40.78L69.35 40.87Q67.45 40.45 66.26 39.57L66.26 39.57L66.40 39.71Q64.96 38.16 64.74 34.81L64.83 34.90L64.82 34.89Q64.85 34.46 64.77 33.24L64.81 33.28L64.66 33.13Q64.62 32.67 64.54 31.57L64.68 31.71L64.72 31.75Q64.50 30.73 64.54 30.01L64.69 30.16L64.60 30.07Q64.77 28.10 65.80 27.34L65.89 27.44L65.80 27.34Q67.77 26.23 72.60 26.00L72.67 26.07L72.67 26.07Q74.59 25.85 75.39 25.85L75.51 25.98L75.38 25.85Q76.89 25.87 78.26 26.18L78.38 26.30L78.33 26.25Q77.64 27.39 77.11 29.22L77.11 29.22L77.19 29.29Q76.80 29.47 76.30 29.43L76.16 29.29L76.24 29.37Q76.19 29.40 75.66 29.28L75.57 29.19L74.63 28.98L74.64 28.99Q73.54 28.69 72.93 28.73L72.97 28.76L73.00 28.79Q68.19 28.79 67.59 31.60L67.61 31.63L67.56 31.58Q67.29 32.72 67.37 33.67L67.44 33.75L67.47 33.77Q67.54 36.28 68.78 37.37L68.86 37.45L68.71 37.30Q69.99 38.43 72.58 38.47L72.69 38.58L72.61 38.50Q74.12 38.56 74.85 38.26L74.94 38.35L75.93 37.82L75.94 37.83Q76.44 37.56 77.01 37.49L76.90 37.38L76.93 37.41Q77.19 39.23 77.57 40.52L77.58 40.53L77.67 40.63Q77.25 40.82 75.47 41.16ZM78.83 44.22L78.75 44.14L78.79 44.18Q79.18 44.22 80.01 44.30L80.03 44.31L80.03 44.32Q80.72 44.39 81.06 43.82L80.98 43.75L80.96 43.72Q79.72 41.61 79.23 39.52L79.24 39.52L79.27 39.56Q79.01 39.60 78.55 39.60L78.45 39.50L78.46 39.51Q78.14 39.61 77.76 39.80L77.71 39.75L77.78 39.82Q77.25 38.38 77.10 36.97L77.24 37.11L77.22 37.09Q76.56 36.96 75.34 37.53L75.31 37.51L75.27 37.46Q74.22 38.20 73.73 38.20L73.58 38.06L73.68 38.15Q73.10 38.08 72.50 38.04L72.50 38.04L72.52 38.06Q71.59 38.00 69.61 37.43L69.71 37.53L69.79 37.61Q69.36 36.81 69.40 35.67L69.49 35.75L69.39 35.66Q69.54 31.39 74.49 30.86L74.51 30.87L74.51 30.87Q75.29 30.97 76.66 31.31L76.50 31.15L76.52 31.17Q77.87 31.50 78.59 31.46L78.70 31.57L78.74 31.61Q79.19 29.39 79.88 27.56L79.80 27.49L79.84 27.52Q79.49 27.45 79.11 27.37L79.06 27.32L78.36 27.31L78.33 27.27Q78.46 26.71 78.84 25.84L78.82 25.82L78.81 25.81Q77.26 25.44 75.69 25.44L75.71 25.46L75.75 25.50Q73.31 25.46 68.94 25.84L68.95 25.85L69.07 25.97Q67.05 26.04 65.49 27.03L65.41 26.95L65.50 27.04Q64.27 27.99 64.27 29.89L64.28 29.90L64.34 29.96Q64.29 30.33 64.41 31.55L64.32 31.47L64.46 31.60Q64.53 32.63 64.49 33.24L64.34 33.08L64.45 33.19Q64.51 35.11 65.23 38.84L65.11 38.73L65.09 38.70Q65.49 39.56 65.98 40.05L65.98 40.05L66.33 40.40L66.37 40.40L66.30 40.33Q67.32 42.45 71.24 43.06L71.26 43.09L71.21 43.04Q74.40 43.55 77.06 43.82L77.04 43.80L76.99 43.75Q77.93 43.97 78.84 44.23Z"/></svg>