<svg xmlns="http://www.w3.org/2000/svg" width="150" height="50" viewBox="0,0,150,50"><rect width="100%" height="100%" fill="white"/><path d="M12 39 C69 3,79 34,139 34" stroke="#eed076" fill="none"/><path fill="#72ade8" d="M14.80 14.35L14.74 14.29L14.74 14.29Q17.30 16.01 19.05 16.43L19.11 16.50L19.04 16.42Q20.46 23.02 20.46 29.60L20.37 29.52L20.41 29.56Q20.35 33.49 19.82 37.49L19.80 37.47L19.75 37.42Q22.08 37.05 24.55 37.13L24.45 37.02L24.47 37.04Q26.99 37.17 29.12 37.89L29.24 38.00L29.10 37.86Q29.39 39.37 29.84 40.93L29.98 41.07L29.93 41.02Q26.39 39.50 22.55 39.76L22.63 39.84L22.70 39.91Q18.91 40.24 15.67 42.14L15.64 42.11L15.67 42.14Q17.68 35.09 17.41 28.08L17.59 28.26L17.41 28.08Q17.28 21.14 14.85 14.40ZM15.04 42.76L15.02 42.75L15.03 42.75Q15.83 42.49 17.20 41.77L17.11 41.67L17.10 41.67Q17.02 42.50 16.49 43.99L16.50 44.00L16.33 43.83Q19.91 42.19 23.75 42.19L23.88 42.32L23.86 42.29Q29.43 42.23 33.55 45.28L33.54 45.27L33.52 45.25Q32.89 43.78 31.86 40.82L31.78 40.74L31.92 40.88Q30.81 40.18 29.93 39.80L29.92 39.79L29.82 39.69Q29.78 39.08 29.48 37.67L29.45 37.65L29.48 37.67Q26.89 36.79 23.88 36.79L23.80 36.72L23.90 36.82Q23.00 36.68 22.20 36.72L22.18 36.69L22.27 36.79Q22.58 31.91 22.50 27.80L22.36 27.67L22.39 27.69Q22.35 23.61 22.00 18.63L22.03 18.65L22.03 18.65Q20.56 18.48 19.76 18.29L19.73 18.26L19.87 18.39Q19.66 17.58 19.43 16.17L19.40 16.13L19.40 16.14Q16.30 15.32 14.06 13.38L14.23 13.55L14.09 13.41Q16.94 20.60 17.21 28.10L17.21 28.11L17.24 28.14Q17.43 35.60 15.03 42.75Z"/><path fill="#a68cf1" d="M105.19 41.63L105.03 41.47L105.17 41.61Q103.00 41.15 100.83 41.00L100.79 40.96L100.76 40.93Q99.46 39.63 96.79 35.78L96.72 35.72L96.81 35.80Q94.55 38.84 92.16 41.27L92.17 41.29L90.00 41.59L90.02 41.61Q89.02 41.87 88.04 42.14L87.99 42.10L87.99 42.09Q92.10 37.91 95.11 33.80L95.28 33.97L95.26 33.94Q91.91 29.68 86.50 24.88L86.43 24.81L86.51 24.89Q88.73 25.63 91.43 26.04L91.41 26.02L91.38 25.99Q94.83 29.10 96.73 31.80L96.72 31.80L96.70 31.77Q98.99 28.88 101.73 26.37L101.63 26.27L101.65 26.29Q104.65 25.90 106.48 25.41L106.52 25.45L106.59 25.52Q101.96 29.08 98.27 33.64L98.27 33.65L98.28 33.66Q101.59 38.26 105.06 41.50ZM107.99 24.71L107.91 24.63L108.06 24.78Q105.11 25.56 101.57 25.90L101.49 25.82L101.53 25.86Q98.74 28.63 97.03 31.11L97.03 31.11L96.94 31.02Q96.05 29.98 94.41 28.00L94.33 27.91L94.27 28.05L94.28 28.06Q94.04 27.93 93.92 27.93L94.05 28.06L93.89 27.90Q93.17 27.10 91.53 25.65L91.52 25.64L91.60 25.71Q87.94 25.11 85.09 23.89L85.20 24.00L85.09 23.89Q90.57 28.65 94.61 33.79L94.65 33.83L94.62 33.80Q91.40 38.57 86.98 42.87L86.98 42.87L86.92 42.81Q87.12 42.67 90.62 41.83L90.68 41.89L90.56 41.77Q89.18 43.25 87.55 44.58L87.52 44.55L87.57 44.61Q90.73 43.66 93.89 43.47L93.80 43.37L93.93 43.51Q96.19 41.12 98.09 38.38L98.11 38.40L98.14 38.42Q99.66 40.29 100.88 41.47L100.85 41.44L100.73 41.32Q100.87 41.34 100.94 41.42L100.92 41.40L101.08 41.37L101.10 41.39Q102.40 42.54 103.74 43.60L103.69 43.55L103.84 43.71Q107.40 44.22 110.29 45.25L110.16 45.12L110.26 45.22Q104.10 40.77 100.41 35.60L100.42 35.60L100.33 35.51Q104.01 30.51 108.57 26.44L108.50 26.36L108.49 26.36Q107.56 26.71 106.57 26.94L106.58 26.96L104.64 27.49L104.69 27.54Q105.75 26.50 107.92 24.64Z"/><path d="M1 16 C65 26,55 21,131 40" stroke="#eac861" fill="none"/><path d="M17 27 C81 39,90 16,146 48" stroke="#9ee886" fill="none"/><path d="M9 40 C95 47,66 5,132 46" stroke="#39b5de" fill="none"/><path d="M8 7 C79 23,56 48,146 24" stroke="#88ebba" fill="none"/><path fill="#6fe16f" d="M128.31 37.88L128.25 37.82L128.37 37.94Q128.68 38.93 129.21 40.95L129.10 40.83L129.12 40.86Q125.05 39.68 120.44 39.95L120.41 39.91L120.36 39.86Q115.75 40.09 111.75 42.06L111.80 42.11L111.71 42.02Q112.08 41.48 112.12 41.56L111.97 41.41L112.10 41.54Q115.69 37.43 119.61 33.02L119.77 33.18L119.64 33.05Q124.06 28.07 125.24 23.38L125.30 23.45L125.25 23.40Q125.80 21.74 124.52 20.56L124.53 20.57L124.54 20.57Q123.19 19.32 121.40 19.47L121.38 19.45L121.33 19.40Q121.04 19.42 120.70 19.42L120.79 19.51L120.75 19.47Q119.20 19.44 117.94 20.35L117.93 20.33L117.87 20.28Q116.58 21.65 116.81 24.32L116.90 24.42L116.79 24.30Q115.19 24.15 113.97 23.69L113.85 23.57L113.89 23.61Q113.63 22.13 113.55 20.68L113.69 20.82L113.69 20.82Q113.52 19.09 114.13 17.95L114.14 17.96L114.14 17.96Q115.91 16.56 119.26 16.56L119.24 16.55L121.10 16.65L121.07 16.63Q123.24 16.55 124.19 16.66L124.28 16.75L124.36 16.83Q128.54 17.09 128.80 19.52L128.82 19.54L128.92 19.64Q128.98 20.19 128.90 20.99L128.88 20.98L128.85 20.94Q128.77 21.55 128.62 22.23L128.62 22.24L128.73 22.35Q127.10 30.46 119.52 37.31L119.43 37.22L119.52 37.31Q120.94 37.17 122.31 37.17L122.16 37.02L122.17 37.03Q125.56 37.18 128.42 37.98ZM127.82 17.13L127.70 17.01L127.67 16.98Q126.12 16.39 124.41 16.31L124.51 16.41L120.98 16.12L121.11 16.24Q116.62 15.94 114.41 17.05L114.39 17.03L114.44 17.07Q113.21 18.28 113.21 20.34L113.36 20.49L113.34 20.47Q113.32 21.13 113.62 23.95L113.74 24.07L113.68 24.01Q114.20 24.22 115.38 24.53L115.43 24.57L115.43 25.60L115.26 25.44Q115.23 25.90 115.30 26.43L115.31 26.44L115.43 26.56Q116.61 26.60 119.09 26.82L119.06 26.80L119.16 26.90Q119.02 26.41 119.02 26.07L119.11 26.17L119.08 26.14Q119.06 24.28 120.28 22.93L120.31 22.97L120.36 23.02Q121.45 21.54 123.24 21.65L123.25 21.66L123.39 21.80Q124.14 21.83 124.90 21.98L124.80 21.88L124.84 21.92Q124.93 22.28 125.01 22.70L125.09 22.77L125.11 22.80Q124.99 23.06 124.92 23.41L124.97 23.45L124.92 23.41Q123.77 28.27 119.35 33.10L119.23 32.99L119.24 33.00Q117.10 35.24 111.66 41.29L111.71 41.34L111.83 41.45Q111.52 42.17 111.17 42.74L111.21 42.78L111.29 42.86Q112.89 41.98 114.41 41.45L114.29 41.33L114.41 41.45Q113.59 41.93 112.64 43.41L112.75 43.52L112.70 43.47Q112.62 43.84 112.50 44.19L112.38 44.07L112.33 44.01Q117.30 42.05 122.78 42.24L122.70 42.16L122.71 42.17Q128.55 42.50 133.12 44.86L132.93 44.67L132.09 42.68L131.99 42.58Q131.45 41.36 131.18 40.56L131.02 40.40L131.04 40.42Q130.44 40.12 129.22 39.70L129.25 39.73L129.13 39.61Q128.93 38.84 128.55 37.47L128.55 37.47L128.55 37.47Q126.51 37.06 124.22 36.87L124.17 36.82L124.15 36.80Q128.91 32.30 130.43 24.04L130.45 24.07L130.62 21.15L130.54 21.08Q130.38 19.20 129.16 18.51L129.30 18.65L129.19 18.58L129.21 18.60Q129.10 18.45 129.03 18.45L129.15 18.58L129.14 18.57Q128.94 17.76 127.84 17.15Z"/><path fill="#e64141" d="M43.04 40.26L43.05 40.27L43.07 40.29Q41.66 40.36 40.10 39.94L40.08 39.92L40.12 39.96Q38.97 39.11 38.81 37.47L38.86 37.52L38.78 37.44Q38.69 37.20 38.88 34.57L38.96 34.65L39.03 34.72Q39.94 34.41 41.96 34.03L42.08 34.15L41.89 34.92L41.76 34.78Q41.58 36.62 42.99 37.19L42.99 37.20L43.03 37.23Q43.75 37.50 45.84 37.50L45.78 37.44L45.74 37.39Q47.34 37.24 47.53 37.17L47.65 37.29L47.66 37.30Q48.48 37.06 49.21 36.56L49.19 36.55L49.18 36.53Q50.63 35.63 50.44 33.53L50.50 33.59L50.51 33.60Q50.29 31.13 48.56 29.57L48.61 29.62L48.49 29.51Q46.90 28.09 44.43 28.09L44.38 28.04L44.34 27.78L44.28 27.72Q44.74 27.75 45.61 27.67L45.61 27.67L45.59 27.65Q47.59 27.63 48.96 26.39L48.88 26.32L48.79 26.22Q50.31 25.14 50.47 23.28L50.30 23.12L50.46 23.27Q50.48 22.88 50.48 22.53L50.54 22.59L50.56 22.61Q50.46 20.99 49.09 20.07L49.02 20.01L49.13 20.12Q47.94 19.35 46.34 19.46L46.31 19.42L46.20 19.32Q45.06 19.32 43.84 19.74L43.85 19.75L43.79 19.68Q42.27 20.14 41.96 21.28L42.03 21.35L42.02 21.34Q41.82 22.10 41.90 22.86L41.87 22.83L41.98 22.94Q40.87 22.63 38.82 21.91L38.78 21.87L38.75 21.84Q38.68 20.32 38.72 19.48L38.68 19.44L38.56 19.33Q38.74 17.87 39.80 17.18L39.78 17.16L39.87 17.25Q41.19 16.56 42.79 16.56L42.88 16.64L42.84 16.60Q46.04 16.60 49.20 16.87L49.09 16.76L49.18 16.85Q54.15 17.18 53.85 20.95L53.82 20.92L53.81 20.91Q53.75 22.42 53.26 23.98L53.41 24.13L53.25 23.97Q52.47 27.19 50.11 28.10L50.04 28.03L50.05 28.04Q52.67 28.57 53.28 31.92L53.30 31.94L53.35 31.98Q53.46 33.01 53.54 35.03L53.65 35.14L53.63 35.12Q53.69 39.48 49.08 39.94L49.20 40.06L49.16 40.02Q48.51 40.17 43.22 40.43ZM48.43 42.67L48.43 42.68L48.30 42.55Q48.89 42.57 51.75 42.64L51.90 42.79L51.80 42.69Q53.66 42.88 55.30 42.23L55.17 42.11L55.22 42.16Q56.39 41.20 56.20 39.45L56.10 39.34L56.09 39.33Q56.09 38.12 55.79 36.37L55.80 36.37L55.82 36.40Q54.96 31.77 53.02 30.13L53.06 30.18L52.84 29.76L52.82 29.71L52.97 29.85Q54.65 28.33 55.41 23.96L55.33 23.87L55.40 23.95Q55.44 23.49 55.55 22.54L55.46 22.44L55.51 22.50Q55.68 21.83 55.60 21.14L55.62 21.16L55.50 21.04Q55.48 19.50 54.19 18.81L54.05 18.68L53.96 18.66L54.02 18.72Q53.80 17.82 52.66 17.28L52.50 17.13L52.53 17.16Q51.03 16.49 45.89 16.19L45.99 16.29L45.81 16.11Q44.14 16.04 42.54 16.04L42.59 16.09L42.72 16.22Q40.93 16.03 39.41 16.68L39.56 16.82L39.42 16.69Q38.34 17.58 38.34 19.34L38.23 19.22L38.28 19.27Q38.26 18.84 38.53 22.19L38.60 22.26L38.59 22.25Q38.81 22.24 40.44 22.85L40.56 22.97L40.52 22.93Q40.59 23.53 40.55 24.02L40.45 23.92L40.47 23.94Q40.48 24.44 40.52 24.98L40.56 25.02L40.47 24.93Q42.35 25.40 44.37 25.52L44.30 25.45L44.28 25.43Q44.24 23.45 45.35 22.61L45.33 22.60L45.39 22.66Q46.09 21.87 48.11 21.65L48.19 21.72L48.26 21.79Q49.30 21.69 49.87 21.88L49.91 21.92L49.86 21.88Q49.95 22.04 49.99 22.16L50.04 22.20L50.00 22.36L50.12 22.93L50.09 22.90Q50.15 23.15 50.11 23.31L50.03 23.22L50.10 23.29Q50.08 25.06 48.56 26.24L48.42 26.11L48.39 26.07Q47.49 27.00 45.48 27.20L45.48 27.20L45.48 27.20Q44.90 27.49 44.02 27.49L43.96 27.44L43.95 27.42Q44.05 27.82 44.20 28.51L44.20 28.51L44.03 28.34Q45.93 28.49 47.38 29.21L47.27 29.11L47.11 29.06L45.65 29.35L45.68 29.38Q45.60 29.60 45.71 30.21L45.71 30.21L45.85 30.35Q47.93 30.22 49.64 31.55L49.57 31.48L49.68 31.59Q49.81 31.87 50.12 33.51L50.16 33.56L50.20 33.60Q50.29 36.42 47.36 36.84L47.46 36.94L47.39 36.88Q45.28 37.12 44.70 37.08L44.70 37.08L44.67 37.05Q44.37 37.09 43.84 37.02L43.72 36.90L43.85 36.57L43.87 36.02L43.92 35.65L43.99 35.38L43.93 35.32Q43.01 35.42 42.21 35.61L42.23 35.64L42.23 35.64Q42.09 35.31 42.09 35.12L42.17 35.19L42.27 35.30Q42.12 34.92 42.12 34.69L42.15 34.72L42.31 34.88Q42.18 34.30 42.34 33.57L42.36 33.59L42.35 33.59Q40.47 33.80 38.60 34.14L38.59 34.13L38.60 34.14Q38.76 34.79 38.64 35.91L38.56 35.83L38.58 35.85Q38.45 36.96 38.45 37.57L38.44 37.56L38.50 37.62Q38.47 39.57 39.84 40.33L39.92 40.40L39.84 40.33Q41.41 42.70 46.13 42.51L46.02 42.39L46.20 42.57Q46.91 42.53 48.44 42.68Z"/><path fill="#8fa4e4" d="M65.29 49.60L65.29 49.60L65.37 49.68Q68.22 45.75 71.11 39.54L71.03 39.47L71.19 39.63Q68.00 33.01 61.90 24.93L61.90 24.93L61.93 24.96Q63.75 26.01 66.52 26.66L66.62 26.76L66.52 26.66Q70.12 31.40 72.55 36.61L72.51 36.57L72.61 36.67Q74.64 31.24 77.73 26.82L77.79 26.88L77.74 26.83Q80.00 26.54 82.09 25.74L82.04 25.69L82.11 25.76Q78.71 29.59 75.24 37.02L75.22 37.00L72.47 43.08L72.41 43.02Q70.93 46.11 69.18 48.74L69.13 48.68L69.14 48.69Q66.77 49.10 65.32 49.63ZM71.44 50.91L71.43 50.91L71.40 50.88Q73.18 48.05 74.62 44.77L74.66 44.80L77.33 38.42L77.39 38.47Q80.97 30.52 84.28 26.52L84.11 26.36L84.19 26.43Q82.88 27.14 80.97 27.82L81.05 27.90L82.03 26.44L81.94 26.36Q82.57 25.72 83.18 25.04L83.12 24.99L83.23 25.09Q80.49 26.08 77.63 26.54L77.61 26.52L77.53 26.44Q74.86 30.42 72.91 34.88L72.98 34.95L72.90 34.87Q71.25 31.54 69.46 28.72L69.52 28.79L69.42 28.68Q69.34 28.79 68.98 28.75L68.98 28.76L69.01 28.78Q68.62 28.72 68.43 28.72L68.35 28.64L68.42 28.71Q67.62 27.41 66.66 26.27L66.68 26.29L66.61 26.21Q63.63 25.74 60.88 24.03L60.75 23.89L60.72 23.87Q67.01 31.90 70.70 39.52L70.70 39.52L70.83 39.64Q68.62 44.67 64.55 50.30L64.40 50.16L64.42 50.18Q65.27 49.93 66.07 49.77L66.05 49.75L67.74 49.46L67.64 49.36Q67.10 50.15 65.92 51.79L65.84 51.71L66.01 51.88Q68.26 51.24 71.53 51.01Z"/></svg>