<svg xmlns="http://www.w3.org/2000/svg" width="150" height="50" viewBox="0,0,150,50"><rect width="100%" height="100%" fill="white"/><path fill="#5475d8" d="M23.39 40.25L23.26 40.12L23.29 40.15Q21.50 40.14 19.82 40.71L19.86 40.75L19.77 40.66Q20.40 37.14 20.51 34.02L20.34 33.85L20.35 33.86Q20.62 30.97 20.40 27.32L20.24 27.16L20.38 27.30Q18.83 26.77 18.07 26.39L18.20 26.53L17.85 23.55L17.85 23.55Q18.63 24.21 20.22 24.78L20.05 24.61L20.21 24.77Q19.82 22.48 19.41 19.74L19.47 19.80L19.59 19.92Q21.77 20.50 23.40 20.35L23.41 20.35L23.20 24.87L23.33 24.99Q24.73 24.91 26.06 24.42L25.94 24.30L26.02 24.37Q25.93 25.24 25.70 26.99L25.72 27.00L25.70 26.99Q24.20 27.35 23.18 27.35L23.16 27.33L23.27 27.44Q23.15 29.50 23.15 33.76L23.25 33.86L23.16 33.78Q23.26 38.02 23.34 40.19ZM26.42 23.79L26.54 23.91L26.53 23.89Q26.16 23.90 25.55 24.13L25.64 24.22L25.98 21.41L25.88 21.30Q25.16 21.68 23.75 21.91L23.67 21.83L23.74 21.90Q23.75 21.23 23.90 19.85L23.89 19.84L23.91 19.86Q23.36 20.00 22.79 20.00L22.75 19.96L22.65 19.86Q20.66 20.01 19.03 19.28L18.95 19.21L18.89 19.15Q19.39 21.63 19.66 24.10L19.79 24.24L19.65 24.09Q18.93 23.90 17.40 22.88L17.28 22.75L17.29 22.76Q17.57 23.99 17.80 26.70L17.89 26.79L17.97 26.87Q18.33 27.01 19.52 27.42L19.61 27.52L19.63 27.54Q19.57 28.08 19.60 29.49L19.60 29.49L19.97 29.51L20.19 29.66L20.13 29.60Q20.06 30.71 20.06 31.89L20.05 31.88L20.14 31.97Q20.11 36.88 19.31 41.22L19.27 41.19L19.37 41.29Q19.55 41.17 21.49 40.63L21.42 40.56L21.49 40.63Q21.53 41.32 21.42 42.69L21.41 42.68L21.40 42.67Q22.15 42.55 22.95 42.55L22.94 42.54L22.99 42.59Q24.67 42.56 26.31 43.13L26.37 43.19L26.36 43.18Q25.04 37.48 25.23 29.56L25.20 29.53L27.66 29.21L27.67 29.22Q27.68 28.24 27.76 27.22L27.76 27.22L27.88 25.13L27.87 25.12Q27.45 25.54 26.27 25.99L26.14 25.86L26.14 25.87Q26.51 24.60 26.44 24.26L26.34 24.16L26.44 24.26Q26.48 24.11 26.56 23.92Z"/><path d="M13 43 C70 48,54 26,140 31" stroke="#4d98e4" fill="none"/><path fill="#eb93bf" d="M68.37 40.30L68.35 40.29L68.40 40.34Q64.42 40.66 63.44 38.34L63.38 38.29L63.28 38.19Q64.16 37.35 65.72 35.56L65.71 35.56L65.69 35.53Q66.27 37.64 69.28 37.75L69.11 37.58L69.27 37.74Q72.56 37.73 74.20 36.39L74.18 36.37L74.31 36.51Q75.58 34.76 75.50 32.06L75.56 32.11L75.59 32.15Q75.31 26.96 70.51 27.19L70.71 27.38L70.67 27.34Q67.88 27.52 66.13 28.78L65.96 28.60L65.74 28.54L65.55 28.43L65.51 28.38Q65.93 25.30 65.81 22.56L65.70 22.45L65.73 22.48Q65.58 19.82 65.24 16.51L65.21 16.48L65.29 16.56Q68.85 17.41 72.66 17.30L72.76 17.40L72.77 17.41Q76.56 17.31 80.13 16.06L80.04 15.97L79.51 17.53L79.48 17.50Q79.29 18.38 79.10 19.22L79.01 19.12L78.98 19.09Q75.93 20.19 72.05 20.19L72.09 20.23L72.08 20.23Q70.69 20.28 69.21 20.13L69.20 20.12L69.22 20.15Q69.11 20.80 68.77 25.25L68.69 25.17L68.79 25.27Q69.48 24.67 71.54 24.52L71.59 24.57L71.68 24.66Q75.25 24.73 76.70 26.40L76.72 26.43L76.72 26.42Q78.17 28.03 78.44 31.87L78.33 31.76L78.38 31.81Q78.64 36.00 77.42 38.01L77.42 38.01L77.54 38.13Q75.48 39.99 72.16 40.22L72.17 40.23L72.08 40.14Q71.07 40.19 68.41 40.34ZM74.55 42.72L74.56 42.73L74.50 42.67Q78.00 42.82 79.91 41.72L79.78 41.59L79.85 41.66Q80.80 40.10 80.80 38.01L80.80 38.01L80.82 38.03Q80.75 34.87 79.80 30.76L79.96 30.92L79.84 30.80Q79.42 29.01 78.20 27.60L78.22 27.62L78.40 27.84L78.14 27.50L77.78 27.30L77.74 27.25Q77.49 26.59 76.85 25.90L76.74 25.80L76.85 25.95L76.74 25.83Q75.22 24.16 71.53 24.16L71.59 24.22L71.20 24.11L71.23 24.14Q71.47 23.73 71.66 22.62L71.54 22.50L71.48 22.45Q76.51 22.60 80.55 20.96L80.68 21.09L80.51 20.93Q81.05 19.64 82.00 16.82L82.01 16.83L79.94 17.81L79.81 17.68Q80.21 16.55 80.70 15.41L80.74 15.45L80.73 15.44Q76.84 16.84 72.73 16.92L72.82 17.00L72.82 17.01Q68.72 17.13 64.76 16.02L64.64 15.91L64.70 15.97Q65.35 20.35 65.35 24.76L65.46 24.87L65.36 24.78Q65.37 26.69 65.26 28.59L65.28 28.62L65.19 28.52Q65.53 28.79 66.10 29.09L66.06 29.05L66.04 29.03Q66.51 28.93 67.16 28.59L67.18 28.61L67.08 28.52Q67.07 29.30 66.84 30.83L66.82 30.80L66.82 30.80Q67.28 31.03 67.70 31.26L67.67 31.23L67.70 31.26Q70.49 29.52 72.36 29.52L72.30 29.46L72.31 29.47Q73.73 29.57 74.91 30.22L74.90 30.20L74.92 30.22Q75.18 31.17 75.22 32.12L75.27 32.17L75.19 32.09Q75.39 34.80 74.36 35.91L74.30 35.84L74.35 35.89Q72.90 37.03 70.65 37.26L70.70 37.31L70.62 37.23Q69.74 37.38 69.06 37.30L69.09 37.34L69.03 37.27Q68.11 37.08 67.35 36.74L67.40 36.79L67.44 36.64L67.22 36.64L67.18 36.60Q66.36 36.09 65.83 34.76L65.91 34.84L65.96 34.89Q64.66 36.33 62.99 38.46L62.95 38.43L62.93 38.41Q63.31 39.13 64.15 40.09L64.05 39.99L64.02 39.96Q65.22 41.91 68.03 42.41L68.04 42.42L67.89 42.26Q69.10 42.52 74.46 42.63Z"/><path fill="#88e06a" d="M106.02 34.80L105.99 34.78L106.01 34.80Q106.00 38.37 102.84 39.67L102.78 39.60L102.86 39.68Q100.92 40.45 96.51 40.60L96.46 40.55L96.53 40.62Q91.66 40.67 89.42 39.49L89.43 39.50L89.44 39.51Q87.52 38.12 87.67 34.77L87.79 34.89L87.64 34.74Q87.81 34.26 88.00 32.29L87.97 32.25L87.99 32.28Q88.00 30.57 88.00 29.58L88.03 29.61L88.08 29.66Q88.14 21.73 83.95 14.30L83.85 14.20L83.81 14.16Q85.05 14.91 88.02 15.97L88.03 15.98L87.91 15.87Q90.87 22.66 90.87 30.05L90.94 30.12L90.84 30.02Q90.88 30.67 90.78 31.85L90.88 31.94L90.83 31.90Q90.77 33.11 90.77 33.72L90.68 33.63L90.65 33.60Q90.64 35.88 92.20 36.87L92.33 36.99L92.16 36.83Q93.92 37.74 96.89 37.74L96.76 37.62L96.80 37.66Q99.56 37.79 101.19 36.61L101.05 36.46L101.15 36.56Q103.07 35.29 102.92 32.77L102.74 32.59L102.83 32.69Q102.78 31.34 102.78 30.00L102.65 29.88L102.80 30.03Q102.67 22.86 105.07 16.35L105.16 16.44L107.28 15.82L107.19 15.73Q108.19 15.47 109.29 15.01L109.37 15.09L109.35 15.07Q105.63 22.20 105.63 29.78L105.59 29.73L105.69 29.83Q105.70 30.68 105.83 32.32L105.70 32.18L105.71 32.19Q105.89 33.88 105.89 34.68ZM108.08 35.61L107.97 35.51L108.12 35.65Q107.23 30.69 107.95 25.59L107.95 25.59L107.80 25.44Q108.74 20.44 111.14 16.06L110.97 15.89L111.01 15.93Q110.36 16.19 108.91 16.84L108.94 16.87L108.98 16.91Q109.44 16.15 110.24 14.59L110.10 14.44L110.17 14.52Q106.73 15.76 104.83 16.11L104.70 15.98L104.69 15.97Q102.50 22.65 102.50 29.92L102.38 29.80L102.50 29.92Q102.41 31.19 102.48 32.60L102.51 32.63L102.54 32.66Q102.60 34.96 100.81 36.18L100.76 36.14L100.95 36.33Q99.44 37.36 96.92 37.40L96.87 37.34L96.84 37.31Q94.17 37.46 92.72 36.70L92.59 36.57L92.61 36.59Q92.53 36.09 92.46 35.64L92.51 35.69L92.48 35.66Q92.49 35.22 92.61 34.72L92.57 34.68L92.47 34.58Q92.80 32.36 92.80 30.04L92.79 30.03L92.74 29.98Q92.74 24.15 91.21 18.25L91.27 18.30L91.18 18.22Q90.61 18.26 89.20 17.91L89.11 17.82L89.15 17.86Q88.72 16.52 88.26 15.61L88.20 15.54L88.32 15.66Q85.63 14.92 83.23 13.55L83.25 13.56L83.08 13.39Q87.84 21.12 87.84 29.84L87.71 29.71L87.77 29.77Q87.84 31.48 87.69 33.19L87.63 33.13L87.57 33.07Q87.34 35.47 87.42 36.65L87.42 36.65L87.42 36.65Q87.55 38.57 88.81 39.71L88.77 39.68L88.80 39.71Q89.91 42.30 94.56 42.68L94.45 42.58L94.43 42.56Q96.67 42.86 98.80 42.93L98.81 42.94L98.77 42.90Q104.19 43.14 106.97 42.19L106.84 42.06L106.88 42.10Q108.47 41.22 108.47 39.17L108.42 39.11L108.52 39.21Q108.46 38.01 108.00 35.53Z"/><path d="M5 10 C76 30,86 21,134 30" stroke="#c877e3" fill="none"/><path d="M15 2 C62 15,82 4,137 12" stroke="#8e8eea" fill="none"/><path d="M12 13 C88 32,77 13,132 39" stroke="#734de4" fill="none"/><path d="M4 2 C82 48,69 11,141 3" stroke="#df7a7a" fill="none"/><path fill="#e7e787" d="M118.22 14.06L118.29 14.13L118.20 14.04Q119.23 16.13 120.90 16.48L120.76 16.34L120.81 16.39Q121.26 16.41 121.94 16.22L121.98 16.26L122.14 16.42Q121.89 22.30 121.81 28.16L121.72 28.07L121.81 28.15Q121.68 33.86 121.91 39.79L121.87 39.76L121.99 39.88Q121.74 39.85 121.43 39.85L121.44 39.85L121.43 39.85Q119.93 39.91 118.64 41.73L118.54 41.64L118.52 41.62Q119.17 34.65 119.13 27.80L119.28 27.95L119.09 27.77Q119.08 20.93 118.24 14.08ZM118.02 42.68L118.21 42.87L118.19 42.85Q119.26 41.02 120.32 40.57L120.19 40.43L120.25 40.49Q120.19 41.54 120.19 42.53L120.08 42.42L120.10 42.44Q120.88 42.12 121.68 42.23L121.73 42.28L121.68 42.23Q123.81 42.64 125.03 45.35L124.99 45.31L125.00 45.32Q123.65 37.62 123.65 30.15L123.79 30.30L123.71 30.21Q123.83 22.60 124.66 15.29L124.55 15.18L124.64 15.26Q123.66 17.18 122.52 17.79L122.42 17.70L122.46 17.73Q122.40 16.64 122.47 15.58L122.62 15.72L122.49 15.59Q121.79 16.19 121.03 16.04L120.91 15.91L121.07 16.07Q118.75 15.54 117.76 12.68L117.74 12.67L117.87 12.80Q118.82 20.22 118.90 27.76L118.87 27.73L118.82 27.68Q118.91 35.16 118.04 42.70Z"/><path fill="#bde150" d="M43.31 33.33L43.26 33.28L43.19 33.21Q43.21 36.20 42.03 40.84L41.86 40.67L41.87 40.68Q40.11 41.25 38.51 42.04L38.50 42.04L38.58 42.12Q41.16 35.06 40.89 27.63L40.95 27.69L40.84 27.58Q40.57 20.19 37.48 13.45L37.50 13.47L37.59 13.56Q39.52 14.81 41.39 15.38L41.34 15.33L41.41 15.40Q43.42 22.25 43.42 28.91L43.42 28.91L43.50 28.99Q43.47 30.41 43.39 31.89L43.47 31.97L43.49 31.98Q44.57 30.71 49.79 25.76L49.85 25.82L49.78 25.76Q50.80 25.67 51.79 25.59L51.96 25.77L53.98 25.54L53.94 25.49Q50.87 28.59 46.56 32.36L46.49 32.28L46.47 32.26Q49.94 35.13 56.41 40.95L56.30 40.84L56.28 40.81Q53.54 39.90 50.57 39.71L50.71 39.85L50.68 39.82Q48.08 37.64 43.21 33.23ZM53.21 42.50L53.13 42.43L53.26 42.56Q57.85 43.26 60.97 45.20L60.94 45.17L61.06 45.29Q59.83 43.95 57.21 41.55L57.30 41.64L57.12 41.47Q57.40 41.59 57.66 41.70L57.66 41.70L57.66 41.70Q55.68 39.79 53.43 37.89L53.32 37.78L49.04 34.04L48.97 33.96Q54.00 29.81 56.43 26.92L56.30 26.79L56.38 26.87Q55.11 26.89 52.64 27.16L52.61 27.14L52.57 27.10Q54.34 25.82 55.02 24.98L54.85 24.81L54.86 24.81Q52.17 25.40 49.70 25.40L49.74 25.45L49.70 25.40Q48.35 26.76 45.61 29.43L45.44 29.26L45.52 29.33Q45.58 23.60 44.59 17.78L44.58 17.77L44.54 17.73Q43.89 17.62 42.41 17.35L42.27 17.21L42.35 17.29Q42.23 16.61 41.78 15.12L41.77 15.11L41.78 15.12Q39.16 14.33 36.91 12.77L36.75 12.61L36.86 12.72Q40.33 19.58 40.68 27.69L40.68 27.69L40.65 27.66Q41.02 35.61 38.02 42.85L38.01 42.84L37.85 42.68Q38.57 42.40 39.90 41.76L40.04 41.90L40.04 41.90Q39.65 42.58 39.00 44.02L39.19 44.21L39.18 44.20Q41.83 42.93 43.96 42.55L44.03 42.61L44.09 42.67Q44.54 40.05 45.04 35.78L45.19 35.94L45.07 35.81Q47.83 38.22 53.27 42.56Z"/></svg>