<svg xmlns="http://www.w3.org/2000/svg" width="150" height="50" viewBox="0,0,150,50"><rect width="100%" height="100%" fill="white"/><path d="M3 22 C55 48,71 15,149 11" stroke="#dddd59" fill="none"/><path fill="#e0388c" d="M22.60 30.36L22.60 30.35L22.62 30.38Q19.23 36.81 15.80 40.77L15.68 40.65L15.82 40.79Q13.87 41.12 11.43 41.99L11.40 41.96L11.46 42.02Q16.46 36.52 21.22 28.10L21.06 27.94L21.09 27.97Q16.60 21.12 10.62 14.73L10.47 14.57L10.45 14.55Q13.52 15.91 15.81 16.41L15.79 16.39L15.77 16.37Q20.41 21.58 22.84 25.54L22.85 25.55L22.94 25.63Q25.38 21.14 29.30 16.73L29.30 16.73L29.27 16.70Q30.87 16.39 34.07 15.63L34.15 15.72L34.09 15.66Q28.08 22.17 24.61 28.11L24.60 28.09L24.44 27.93Q29.69 36.69 34.07 41.25L34.03 41.22L34.13 41.32Q31.47 40.44 29.37 40.21L29.48 40.32L29.38 40.22Q26.70 37.35 22.78 30.54ZM29.37 40.63L29.22 40.48L29.24 40.50Q29.55 40.55 30.01 40.66L30.01 40.66L30.13 40.78Q30.78 41.39 32.30 42.99L32.47 43.16L32.36 43.04Q35.84 43.98 38.89 45.35L38.76 45.22L38.84 45.30Q31.66 38.66 26.56 29.90L26.47 29.81L26.55 29.89Q30.36 23.30 36.26 16.45L36.24 16.43L36.18 16.37Q34.82 17.11 32.65 17.65L32.58 17.58L32.56 17.55Q33.37 16.57 35.12 14.78L35.27 14.94L35.18 14.84Q32.82 15.76 29.13 16.33L29.10 16.30L29.14 16.34Q25.61 20.04 23.02 24.35L23.05 24.38L23.18 24.51Q22.14 22.77 20.96 21.29L21.07 21.41L18.65 18.33L18.33 18.40L18.41 18.48Q18.20 18.42 17.98 18.35L17.94 18.31L18.01 18.38Q17.30 17.52 15.82 15.96L15.80 15.95L15.73 15.87Q12.01 15.08 9.42 13.71L9.39 13.68L9.36 13.65Q16.16 20.99 20.73 28.03L20.76 28.06L20.80 28.10Q16.27 36.25 10.52 42.84L10.47 42.78L10.52 42.83Q11.84 42.17 13.97 41.60L13.91 41.54L12.66 43.03L12.60 42.97Q12.54 42.91 11.21 44.24L11.27 44.31L11.40 44.44Q14.38 43.34 17.54 42.84L17.52 42.83L17.43 42.73Q21.47 38.25 24.06 33.50L24.09 33.52L24.05 33.48Q26.61 37.72 29.32 40.58Z"/><path fill="#77e893" d="M43.78 36.90L43.82 36.94L43.79 36.91Q44.92 37.81 46.33 37.66L46.44 37.77L46.27 37.60Q49.28 37.87 49.93 34.52L49.96 34.55L49.93 34.52Q50.53 31.36 50.53 27.97L50.60 28.04L50.61 25.46L50.57 25.41Q50.54 24.13 50.20 22.88L50.18 22.86L50.12 22.80Q48.92 25.14 46.94 29.90L47.00 29.95L46.90 29.86Q44.93 34.62 43.71 36.83ZM48.75 20.37L48.81 20.42L48.77 20.38Q47.72 19.68 46.39 19.68L46.35 19.64L46.36 19.65Q44.91 19.53 43.81 20.45L43.85 20.49L43.73 20.36Q42.61 21.26 42.42 22.75L42.39 22.72L42.45 22.78Q42.14 24.18 42.10 25.67L42.03 25.60L42.08 25.65Q42.05 25.62 42.05 28.48L41.99 28.41L42.07 28.49Q42.11 30.89 42.56 34.50L42.57 34.51L42.44 34.38Q44.36 29.64 48.73 20.35ZM50.39 39.25L50.46 39.31L50.42 39.27Q48.64 40.16 46.32 40.16L46.39 40.24L44.72 40.20L44.73 40.21Q41.50 40.22 40.36 38.51L40.30 38.44L40.30 38.44Q39.55 36.32 39.47 33.39L39.40 33.32L39.46 33.38Q39.41 31.62 39.33 28.15L39.22 28.04L39.22 28.04Q39.28 26.92 39.13 23.88L39.03 23.77L39.15 23.90Q39.04 21.58 39.35 19.60L39.25 19.50L39.35 19.60Q39.81 16.64 44.15 16.41L44.27 16.53L44.26 16.52Q44.94 16.40 46.27 16.44L46.21 16.38L46.24 16.41Q52.00 16.65 53.07 20.11L53.08 20.12L53.00 20.05Q53.62 21.95 53.58 23.82L53.53 23.77L53.59 23.84Q53.56 28.86 53.48 30.08L53.45 30.04L53.50 30.10Q53.29 33.89 52.99 35.18L52.89 35.08L52.85 35.05Q52.31 38.27 50.40 39.26ZM55.42 39.10L55.33 39.01L55.41 39.09Q55.52 36.19 55.48 34.40L55.57 34.49L55.46 29.85L55.51 29.90Q55.39 26.85 54.86 21.33L54.88 21.35L54.78 21.25Q54.23 19.41 52.93 18.64L52.99 18.71L53.08 18.79Q51.48 16.20 46.30 16.05L46.27 16.02L46.34 16.08Q45.49 16.07 44.16 16.11L44.04 16.00L44.14 16.10Q39.53 16.09 39.03 19.21L39.08 19.26L39.05 19.23Q38.61 21.49 38.73 23.59L38.69 23.55L38.78 23.64Q39.18 28.08 39.14 31.43L39.04 31.32L39.09 31.38Q39.00 35.01 39.11 36.04L39.17 36.10L39.21 36.14Q39.55 39.18 41.08 39.98L41.02 39.93L41.02 39.93Q42.58 42.21 46.57 42.47L46.49 42.39L46.47 42.37Q50.05 42.60 50.69 42.56L50.80 42.66L50.81 42.67Q53.61 42.47 54.75 40.87L54.71 40.83L54.77 40.88Q55.23 40.17 55.31 38.99ZM46.76 37.33L46.70 37.27L46.75 37.32Q47.35 35.79 48.42 33.09L48.44 33.11L50.09 28.83L50.22 28.95Q50.10 30.50 49.72 33.85L49.69 33.83L49.87 34.00Q49.13 36.80 46.73 37.30ZM44.84 25.09L44.81 25.06L44.80 25.05Q45.12 23.13 45.81 22.56L45.91 22.67L45.84 22.59Q46.31 22.19 47.61 22.00L47.68 22.07L47.58 21.97Q45.85 25.61 43.99 30.26L44.02 30.29L44.12 30.39Q44.01 27.58 44.70 24.95Z"/><path d="M14 8 C95 47,56 34,142 29" stroke="#4be6e6" fill="none"/><path d="M3 17 C56 25,69 48,142 3" stroke="#eb92eb" fill="none"/><path d="M19 33 C89 22,79 3,148 5" stroke="#b94fdd" fill="none"/><path fill="#65e6a5" d="M67.93 33.28L67.93 33.28L68.04 33.39Q67.74 36.06 66.56 40.70L66.55 40.70L66.60 40.75Q64.92 41.39 63.32 42.19L63.28 42.15L63.21 42.08Q65.86 35.10 65.60 27.68L65.59 27.66L65.52 27.60Q65.23 20.19 62.15 13.45L62.10 13.41L62.11 13.42Q64.27 14.88 66.13 15.46L65.97 15.29L66.02 15.34Q68.27 22.43 68.27 29.09L68.20 29.02L68.10 28.92Q68.24 30.51 68.17 32.00L68.10 31.93L68.01 31.84Q69.32 30.79 74.54 25.84L74.41 25.72L74.38 25.69Q75.50 25.70 76.49 25.62L76.53 25.66L78.66 25.55L78.63 25.52Q75.42 28.48 71.12 32.24L71.14 32.26L71.10 32.22Q74.57 35.09 81.04 40.91L81.01 40.88L81.01 40.88Q78.34 40.04 75.37 39.85L75.35 39.83L75.24 39.72Q72.87 37.76 68.00 33.35ZM77.76 42.39L77.94 42.56L77.78 42.40Q82.54 43.29 85.67 45.23L85.67 45.23L85.66 45.23Q84.54 43.99 81.91 41.59L81.96 41.64L81.89 41.57Q82.07 41.60 82.34 41.71L82.47 41.85L82.40 41.78Q80.35 39.80 78.11 37.90L78.12 37.91L73.63 33.96L73.58 33.91Q78.55 29.70 80.98 26.81L80.94 26.77L80.92 26.75Q79.82 26.94 77.34 27.20L77.29 27.14L77.24 27.10Q78.97 25.78 79.65 24.94L79.60 24.89L79.60 24.89Q76.86 25.42 74.39 25.42L74.41 25.45L74.36 25.39Q73.02 26.76 70.28 29.43L70.20 29.35L70.21 29.36Q70.11 23.47 69.12 17.65L69.16 17.68L69.27 17.80Q68.49 17.55 67.00 17.28L67.09 17.36L67.02 17.29Q66.91 16.61 66.45 15.13L66.32 15.00L66.35 15.03Q63.80 14.30 61.55 12.74L61.55 12.74L61.49 12.68Q64.89 19.47 65.23 27.58L65.21 27.55L65.37 27.71Q65.69 35.61 62.69 42.85L62.57 42.73L62.55 42.71Q63.40 42.57 64.73 41.92L64.70 41.89L64.57 41.76Q64.37 42.62 63.72 44.07L63.84 44.20L63.82 44.17Q66.53 42.96 68.66 42.58L68.76 42.68L68.80 42.72Q69.34 40.18 69.84 35.91L69.68 35.75L69.76 35.83Q72.37 38.11 77.82 42.45Z"/><path d="M5 40 C60 24,72 25,134 13" stroke="#3962de" fill="none"/><path fill="#3be1e1" d="M112.31 39.03L112.17 38.88L112.16 38.87Q114.18 36.63 118.93 29.36L118.76 29.19L118.76 29.18Q122.97 23.15 125.82 19.87L125.86 19.91L125.73 19.78Q123.66 20.11 121.56 20.11L121.66 20.20L121.51 20.05Q116.25 20.05 112.26 18.26L112.36 18.36L112.42 18.42Q111.59 16.34 110.91 14.78L110.95 14.83L110.98 14.86Q115.47 16.94 121.14 17.06L121.15 17.07L121.22 17.14Q126.37 17.23 131.55 15.32L131.49 15.26L131.53 15.30Q131.06 16.05 130.75 16.85L130.82 16.92L130.30 18.57L130.24 18.51Q127.26 22.22 123.26 28.05L123.26 28.05L119.95 32.88L119.92 32.86Q118.12 35.16 116.29 37.45L116.42 37.58L116.29 37.44Q119.75 36.98 123.06 37.06L123.00 37.00L123.06 37.06Q126.25 37.02 129.41 37.93L129.52 38.04L129.94 39.56L129.98 39.60Q130.27 40.46 130.61 41.30L130.64 41.33L130.59 41.28Q125.82 39.59 120.68 39.78L120.73 39.83L120.67 39.77Q115.61 40.04 111.12 42.06L111.13 42.07L111.20 42.14Q111.51 41.00 112.23 38.95ZM110.48 42.72L110.57 42.80L110.54 42.78Q111.75 42.16 112.55 41.89L112.58 41.93L112.62 41.97Q112.26 42.63 111.57 44.15L111.65 44.23L111.57 44.15Q117.28 42.01 123.26 42.24L123.38 42.37L123.20 42.19Q129.66 42.56 134.68 45.34L134.66 45.31L134.62 45.27Q133.16 42.82 132.36 40.65L132.46 40.75L132.51 40.80Q132.00 40.56 130.48 39.99L130.45 39.96L130.39 39.90Q130.24 39.18 129.82 37.69L129.71 37.58L129.90 37.77Q125.58 36.42 120.48 36.61L120.53 36.66L120.64 36.78Q122.61 33.87 126.15 28.31L126.28 28.44L126.29 28.45Q129.86 22.66 131.77 20.11L131.78 20.12L131.88 20.23Q132.23 18.67 133.26 15.96L133.34 16.05L133.26 15.96Q132.60 16.33 131.15 16.94L131.24 17.03L131.23 17.02Q131.53 16.18 132.26 14.66L132.30 14.71L132.34 14.74Q126.98 16.84 121.27 16.76L121.26 16.75L121.12 16.62Q115.16 16.52 110.21 14.01L110.34 14.14L110.19 13.98Q111.33 16.35 112.06 18.60L112.05 18.59L112.21 18.75Q113.28 19.24 114.07 19.47L114.08 19.48L114.10 19.50Q114.32 20.14 114.59 21.58L114.55 21.54L114.55 21.55Q118.34 22.68 123.22 22.49L123.20 22.47L123.13 22.40Q120.87 25.74 117.56 30.72L117.55 30.71L111.86 38.88L111.99 39.01Q111.58 40.24 110.55 42.79Z"/><path fill="#6dd84a" d="M95.82 40.12L95.83 40.13L93.48 33.33L93.42 33.27Q89.08 20.70 83.14 14.31L83.11 14.28L83.17 14.34Q85.27 15.48 87.86 16.09L87.70 15.94L87.77 16.01Q92.96 22.34 97.30 35.10L97.31 35.10L97.22 35.01Q100.37 27.01 101.06 25.41L101.06 25.41L100.95 25.31Q103.45 19.81 106.27 16.50L106.26 16.49L106.21 16.44Q108.18 15.98 110.81 15.10L110.94 15.23L110.79 15.08Q106.40 19.87 103.36 27.10L103.31 27.06L103.33 27.07Q101.88 30.69 98.19 40.20L98.22 40.24L98.15 40.17Q97.62 40.21 97.05 40.17L96.99 40.11L97.09 40.21Q96.42 40.11 95.85 40.15ZM100.92 42.63L100.97 42.68L100.97 42.69Q103.72 32.64 105.28 28.60L105.28 28.61L105.17 28.50Q108.28 20.91 112.70 16.04L112.66 16.00L112.66 16.00Q111.57 16.31 109.47 17.04L109.58 17.15L110.63 15.72L110.74 15.83Q111.33 15.16 111.94 14.51L111.96 14.54L111.97 14.55Q109.01 15.40 106.00 15.97L106.08 16.04L106.15 16.11Q101.58 21.25 97.70 32.71L97.78 32.79L97.84 32.86Q94.09 22.63 90.89 18.25L90.96 18.32L90.99 18.36Q90.48 18.14 89.60 17.99L89.63 18.02L89.68 18.07Q89.51 17.75 87.91 15.69L87.76 15.54L87.94 15.72Q84.94 14.97 82.24 13.56L82.19 13.51L82.13 13.45Q88.83 20.61 93.21 33.40L93.20 33.39L93.28 33.47Q94.36 36.98 95.54 40.56L95.57 40.60L95.55 40.58Q96.04 40.76 96.87 40.64L96.88 40.65L96.77 40.54Q97.16 41.27 97.84 42.60L97.79 42.55L97.86 42.62Q98.60 42.44 99.32 42.52L99.41 42.61L99.47 42.67Q100.06 42.53 100.82 42.53Z"/></svg>