<svg xmlns="http://www.w3.org/2000/svg" width="150" height="50" viewBox="0,0,150,50"><rect width="100%" height="100%" fill="white"/><path fill="#da67da" d="M91.90 33.03L91.88 33.01L91.81 32.93Q95.00 32.66 98.20 32.78L98.20 32.78L98.09 32.67Q98.04 30.10 98.04 27.70L98.13 27.79L98.03 27.70Q98.10 25.29 98.29 22.74L98.24 22.69L98.23 22.68Q97.11 24.49 91.89 33.02ZM101.73 40.31L101.72 40.29L101.79 40.37Q100.02 39.96 98.23 39.88L98.22 39.87L98.19 39.85Q98.09 37.58 97.98 35.10L98.00 35.13L97.87 35.00Q92.57 34.83 87.85 36.24L87.97 36.37L87.85 36.24Q88.03 35.81 88.22 34.82L88.14 34.75L88.29 34.90Q90.05 31.70 93.62 25.42L93.61 25.41L93.67 25.47Q96.55 20.58 99.98 16.70L99.84 16.57L99.95 16.67Q100.72 16.37 102.39 16.10L102.45 16.17L102.42 16.13Q100.57 22.62 100.57 29.66L100.47 29.56L100.62 29.71Q100.55 31.13 100.63 32.61L100.55 32.54L102.02 32.83L101.84 32.65Q102.54 32.77 103.15 32.89L103.18 32.92L103.08 32.82Q103.22 33.83 103.49 35.78L103.54 35.83L103.44 35.73Q102.35 35.59 100.86 35.40L100.87 35.41L100.87 35.41Q101.14 37.46 101.82 40.40ZM103.36 32.45L103.35 32.45L103.47 32.56Q103.12 32.33 102.93 32.33L103.11 32.50L102.62 32.39L102.73 32.51Q102.63 31.03 102.63 29.63L102.55 29.55L102.44 29.44Q102.61 23.22 104.67 17.20L104.62 17.15L104.66 17.20Q103.92 17.48 102.47 17.86L102.29 17.68L102.37 17.76Q102.70 17.09 103.15 15.69L103.13 15.67L103.01 15.55Q101.71 15.91 99.65 16.14L99.81 16.30L99.79 16.28Q95.88 20.63 90.66 30.00L90.49 29.82L92.59 26.18L92.75 26.34Q92.17 27.21 91.91 27.78L91.96 27.83L87.49 36.83L87.57 36.92Q88.14 36.69 89.28 36.31L89.29 36.32L89.17 36.58L89.26 36.67Q89.04 37.25 88.74 38.50L88.75 38.51L88.79 38.56Q92.95 37.27 97.78 37.46L97.67 37.34L97.69 37.37Q97.68 38.27 97.87 40.25L97.90 40.28L98.00 40.37Q99.00 40.31 100.07 40.43L99.99 40.36L100.07 40.44Q100.17 41.06 100.43 42.43L100.40 42.40L100.47 42.47Q102.32 42.64 105.32 43.55L105.38 43.61L105.35 43.58Q104.48 41.57 103.56 38.29L103.44 38.17L105.00 38.74L104.92 38.66Q105.64 38.92 106.33 39.27L106.24 39.18L106.32 39.26Q105.46 36.68 105.30 35.01L105.25 34.95L105.32 35.02Q104.76 34.88 103.61 34.65L103.54 34.58L103.60 34.64Q103.38 33.35 103.38 32.47ZM95.44 32.37L95.51 32.44L95.43 32.37Q96.14 31.02 97.70 28.47L97.69 28.46L97.68 28.44Q97.78 29.50 97.75 30.46L97.73 30.44L97.66 30.37Q97.64 31.34 97.68 32.29L97.81 32.43L97.69 32.31Q97.06 32.21 96.49 32.21L96.49 32.21L96.51 32.22Q96.10 32.43 95.49 32.43Z"/><path fill="#b442db" d="M50.84 41.20L50.84 41.21L47.93 41.14L47.84 41.06Q45.53 41.03 44.73 40.91L44.73 40.92L44.60 40.78Q42.95 40.62 41.77 39.74L41.60 39.58L41.77 39.75Q40.43 38.29 40.20 34.94L40.20 34.94L40.25 34.99Q40.22 34.50 40.14 33.28L39.99 33.13L40.10 33.24Q39.99 32.71 39.92 31.61L39.89 31.59L39.87 31.57Q39.85 30.75 39.89 30.02L40.00 30.13L39.91 30.04Q40.21 28.21 41.24 27.45L41.12 27.33L41.13 27.34Q43.07 26.20 47.90 25.97L48.03 26.09L47.87 25.94Q50.06 25.99 50.86 25.99L50.78 25.91L50.84 25.97Q52.31 25.96 53.68 26.26L53.68 26.26L53.62 26.21Q53.00 27.41 52.47 29.24L52.51 29.28L52.49 29.26Q52.00 29.35 51.51 29.31L51.57 29.37L51.46 29.26Q51.43 29.30 50.89 29.19L50.80 29.09L49.87 28.88L49.99 29.01Q48.88 28.70 48.27 28.74L48.36 28.82L48.36 28.82Q43.51 28.77 42.90 31.59L42.88 31.57L42.90 31.59Q42.73 32.83 42.81 33.78L42.71 33.68L42.68 33.65Q42.91 36.31 44.14 37.40L44.14 37.40L44.04 37.29Q45.39 38.50 47.98 38.53L48.00 38.55L48.03 38.58Q49.43 38.53 50.15 38.23L50.10 38.18L51.20 37.75L51.29 37.85Q51.77 37.56 52.34 37.49L52.32 37.47L52.32 37.46Q52.45 39.16 52.83 40.45L52.89 40.51L52.98 40.60Q52.76 40.99 50.97 41.33ZM54.04 44.09L54.14 44.19L54.19 44.25Q54.50 44.22 55.34 44.29L55.36 44.31L55.41 44.37Q55.96 44.31 56.31 43.74L56.31 43.74L56.35 43.78Q55.03 41.58 54.53 39.49L54.67 39.62L54.71 39.66Q54.23 39.49 53.77 39.49L53.82 39.54L53.90 39.62Q53.33 39.46 52.95 39.65L53.10 39.80L53.08 39.79Q52.76 38.55 52.61 37.15L52.51 37.05L52.59 37.13Q51.87 36.94 50.66 37.51L50.78 37.64L50.66 37.52Q49.50 38.15 49.01 38.15L48.93 38.07L49.06 38.20Q48.46 38.09 47.85 38.06L47.87 38.08L47.88 38.09Q47.08 38.17 45.10 37.59L45.09 37.59L45.06 37.56Q44.70 36.81 44.73 35.67L44.69 35.62L44.66 35.59Q45.00 31.52 49.95 30.99L49.81 30.85L49.96 31.00Q50.56 30.91 51.93 31.25L51.84 31.16L51.91 31.23Q53.36 31.65 54.08 31.61L54.06 31.59L54.09 31.62Q54.35 29.21 55.03 27.39L55.16 27.52L55.03 27.39Q54.73 27.36 54.35 27.28L54.33 27.26L53.61 27.22L53.64 27.25Q53.81 26.74 54.19 25.86L54.23 25.90L54.09 25.76Q52.72 25.57 51.16 25.57L50.99 25.40L51.10 25.51Q48.76 25.57 44.38 25.95L44.36 25.92L44.40 25.97Q42.41 26.07 40.85 27.06L40.78 26.99L40.76 26.97Q39.66 28.04 39.66 29.95L39.52 29.80L39.66 29.95Q39.58 30.28 39.69 31.50L39.63 31.44L39.65 31.46Q39.80 32.56 39.76 33.17L39.78 33.18L39.68 33.09Q39.82 35.09 40.54 38.82L40.58 38.86L40.46 38.74Q40.97 39.71 41.47 40.21L41.40 40.14L41.53 40.27L41.66 40.36L41.66 40.35Q42.77 42.57 46.69 43.18L46.54 43.03L46.68 43.17Q49.71 43.53 52.37 43.80L52.44 43.87L52.50 43.93Q53.23 43.94 54.15 44.20Z"/><path d="M14 43 C76 11,94 42,147 29" stroke="#e14be1" fill="none"/></svg>