<svg xmlns="http://www.w3.org/2000/svg" width="150" height="50" viewBox="0,0,150,50"><rect width="100%" height="100%" fill="white"/><path d="M9 26 C94 36,80 20,130 39" stroke="#5ac0e1" fill="none"/><path fill="#ee90bf" d="M50.93 41.29L50.83 41.19L47.87 41.09L47.86 41.08Q45.42 40.92 44.62 40.80L44.67 40.85L44.65 40.84Q42.90 40.57 41.72 39.69L41.70 39.67L41.65 39.62Q40.29 38.15 40.06 34.80L40.19 34.93L40.25 34.99Q40.19 34.47 40.11 33.25L40.10 33.24L40.03 33.17Q39.96 32.68 39.88 31.58L39.94 31.63L39.92 31.61Q39.83 30.73 39.87 30.00L39.87 30.01L40.00 30.13Q40.06 28.06 41.09 27.30L41.21 27.42L41.21 27.42Q43.03 26.16 47.87 25.93L47.98 26.04L48.05 26.12Q49.89 25.82 50.68 25.82L50.70 25.83L50.86 25.99Q52.35 26.00 53.72 26.30L53.55 26.13L53.61 26.20Q53.08 27.49 52.55 29.32L52.53 29.30L52.46 29.23Q52.09 29.43 51.59 29.39L51.53 29.33L51.44 29.24Q51.51 29.39 50.98 29.27L50.92 29.21L49.93 28.95L50.04 29.05Q48.81 28.63 48.20 28.67L48.17 28.63L48.29 28.75Q43.49 28.75 42.88 31.57L43.00 31.68L42.98 31.67Q42.62 32.71 42.69 33.66L42.69 33.66L42.76 33.73Q42.85 36.25 44.08 37.34L44.23 37.48L44.11 37.36Q45.38 38.48 47.97 38.52L48.05 38.60L47.89 38.44Q49.48 38.59 50.21 38.28L50.27 38.34L51.11 37.66L51.17 37.72Q51.67 37.46 52.24 37.39L52.33 37.47L52.36 37.50Q52.52 39.23 52.91 40.53L52.83 40.45L52.93 40.55Q52.70 40.93 50.91 41.27ZM54.04 44.09L54.11 44.17L54.21 44.26Q54.55 44.27 55.39 44.34L55.37 44.33L55.27 44.23Q55.98 44.32 56.32 43.75L56.42 43.85L56.31 43.74Q55.07 41.62 54.57 39.53L54.70 39.66L54.61 39.56Q54.28 39.54 53.82 39.54L53.90 39.62L53.87 39.59Q53.36 39.50 52.98 39.69L52.94 39.64L53.11 39.81Q52.62 38.41 52.47 37.00L52.63 37.16L52.47 37.00Q51.99 37.06 50.77 37.63L50.70 37.55L50.69 37.55Q49.40 38.05 48.91 38.05L49.04 38.19L48.93 38.07Q48.50 38.13 47.89 38.10L47.92 38.13L47.84 38.04Q46.92 38.01 44.94 37.44L45.09 37.59L45.13 37.62Q44.79 36.90 44.82 35.76L44.72 35.65L44.77 35.71Q44.86 31.37 49.81 30.84L49.94 30.97L49.81 30.84Q50.46 30.81 51.84 31.16L51.95 31.27L51.98 31.30Q53.38 31.67 54.10 31.64L54.03 31.56L54.07 31.60Q54.41 29.28 55.10 27.45L55.09 27.45L55.16 27.52Q54.78 27.40 54.40 27.33L54.42 27.35L53.64 27.25L53.63 27.24Q53.73 26.66 54.11 25.78L54.12 25.79L54.18 25.85Q52.66 25.51 51.10 25.51L51.09 25.50L51.07 25.48Q48.60 25.41 44.22 25.79L44.26 25.83L44.27 25.84Q42.47 26.13 40.90 27.12L40.76 26.97L40.78 26.99Q39.54 27.92 39.54 29.83L39.51 29.80L39.60 29.89Q39.53 30.23 39.64 31.45L39.65 31.46L39.72 31.52Q39.79 32.55 39.75 33.16L39.73 33.13L39.64 33.05Q39.76 35.03 40.49 38.77L40.48 38.76L40.59 38.87Q40.95 39.69 41.45 40.18L41.36 40.10L41.56 40.30L41.67 40.36L41.72 40.42Q42.73 42.54 46.65 43.15L46.57 43.06L46.55 43.04Q49.69 43.51 52.35 43.78L52.36 43.79L52.40 43.83Q53.29 43.99 54.20 44.26Z"/><path fill="#87e7e7" d="M89.59 47.06L89.59 47.06L89.67 47.15Q88.63 47.25 86.73 47.55L86.70 47.52L86.68 47.50Q88.11 45.47 89.13 44.17L89.02 44.06L88.97 44.01Q90.91 44.50 91.06 44.50L91.07 44.51L91.05 44.49Q91.23 44.44 91.77 44.33L91.81 44.37L91.84 44.40Q92.49 44.29 92.68 44.29L92.75 44.36L92.62 44.24Q95.33 44.12 95.25 41.95L95.06 41.77L95.21 41.91Q95.15 40.40 95.03 34.16L95.02 34.14L94.91 34.04Q94.89 30.52 94.97 26.37L95.10 26.50L96.41 26.21L96.46 26.26Q97.14 26.18 97.83 25.95L97.88 26.00L97.70 25.82Q97.58 30.35 97.62 34.72L97.51 34.61L97.59 34.70Q97.66 39.11 98.19 43.49L98.11 43.40L98.08 43.37Q98.21 43.73 98.21 44.00L98.28 44.07L98.19 43.98Q98.29 45.72 96.62 46.10L96.56 46.04L96.52 46.00Q93.36 46.34 89.51 46.99ZM96.33 22.82L94.25 19.75L94.17 19.66Q95.26 18.32 97.09 15.54L97.14 15.59L97.11 15.56Q97.81 16.50 99.15 18.32L99.10 18.28L96.47 22.96ZM99.43 49.52L99.43 49.52L99.39 49.48Q99.94 49.53 100.70 49.19L100.62 49.11L100.76 49.25Q101.04 48.50 101.04 48.05L100.98 47.99L100.99 48.00Q101.05 47.71 100.94 47.11L100.82 46.98L100.78 46.95Q99.47 40.58 99.47 32.66L99.56 32.74L99.58 32.77Q99.56 29.89 99.71 26.99L99.79 27.07L99.64 26.92Q99.19 27.20 98.05 27.50L98.03 27.48L98.04 27.49Q98.10 27.06 98.14 26.53L98.00 26.39L98.08 25.29L98.11 25.32Q96.37 25.94 94.58 25.98L94.69 26.08L94.71 26.11Q94.66 30.44 94.70 34.02L94.62 33.94L94.84 41.89L94.88 41.92Q94.93 43.88 92.76 43.99L92.70 43.93L92.69 43.92Q92.56 44.02 92.04 44.07L91.89 43.92L91.97 44.00Q91.37 43.97 91.10 43.97L91.07 43.93L91.18 44.05Q90.62 43.95 89.06 43.53L89.11 43.58L89.18 43.65Q88.65 44.18 87.54 45.85L87.49 45.80L85.98 48.14L86.01 48.17Q86.89 47.98 88.53 47.60L88.58 47.65L88.18 48.43L87.47 48.90L87.58 49.01Q89.80 48.79 91.13 48.87L91.15 48.90L91.07 48.81Q93.41 49.02 99.35 49.43ZM96.27 23.52L96.30 23.54L96.74 23.11L96.62 22.99Q97.07 23.52 98.02 25.12L97.98 25.07L98.01 25.11Q99.61 22.06 101.17 18.97L101.19 19.00L101.08 18.88Q100.07 17.27 99.12 15.97L99.19 16.04L99.23 16.08Q98.90 16.17 98.56 16.71L98.65 16.80L98.61 16.76Q98.24 16.16 97.25 14.86L97.22 14.84L97.16 14.78Q96.06 16.45 93.74 19.81L93.80 19.86L93.76 19.83Q94.60 20.98 96.32 23.56Z"/></svg>