<svg xmlns="http://www.w3.org/2000/svg" width="150" height="50" viewBox="0,0,150,50"><rect width="100%" height="100%" fill="white"/><path fill="#89e6a0" d="M98.94 39.87L98.94 39.88L96.95 39.82L97.03 39.91Q95.96 39.79 95.01 39.90L95.07 39.97L94.99 39.88Q95.54 33.66 95.54 29.66L95.70 29.82L95.72 29.84Q91.72 23.14 84.07 14.46L84.05 14.43L84.03 14.42Q85.90 15.49 89.25 16.29L89.22 16.25L89.23 16.27Q94.22 21.79 97.23 27.00L97.29 27.07L97.20 26.97Q100.30 21.52 104.68 16.49L104.64 16.45L104.63 16.44Q107.10 16.09 109.61 15.29L109.57 15.26L109.45 15.13Q103.40 21.22 98.52 29.63L98.67 29.78L98.66 29.77Q98.61 36.77 98.92 39.85ZM107.93 17.19L110.70 14.40L110.71 14.41Q107.57 15.54 104.45 15.99L104.52 16.06L104.46 16.00Q100.24 20.73 97.42 25.83L97.57 25.97L97.41 25.81Q95.43 22.32 92.23 18.43L92.08 18.28L92.09 18.29Q91.95 18.42 91.46 18.34L91.45 18.34L91.40 18.28Q90.77 17.54 89.25 15.87L89.26 15.88L89.21 15.83Q85.82 15.06 82.85 13.50L82.86 13.52L82.90 13.55Q90.59 22.00 95.35 29.92L95.32 29.90L95.37 29.94Q95.18 36.18 94.57 40.33L94.55 40.32L94.52 40.29Q95.25 40.26 96.70 40.15L96.85 40.29L96.76 41.23L96.72 41.19Q96.69 41.62 96.61 42.15L96.77 42.31L96.64 42.18Q100.30 42.30 102.05 42.49L102.09 42.53L102.07 42.51Q100.67 37.68 100.56 31.71L100.55 31.70L100.55 31.69Q105.03 23.35 111.58 16.00L111.59 16.01L108.06 17.32Z"/><path fill="#ca64eb" d="M47.53 18.38L47.52 18.37L47.70 18.55Q46.79 18.75 46.64 19.55L46.67 19.58L46.77 24.82L46.68 24.72Q47.93 24.83 50.14 24.57L50.07 24.50L49.99 24.41Q50.06 24.95 50.02 25.78L49.96 25.72L50.00 25.77Q50.06 26.62 50.06 27.08L49.93 26.95L48.40 27.09L48.39 27.08Q47.57 27.14 46.70 27.14L46.82 27.26L46.74 27.18Q46.71 31.35 46.64 39.72L46.69 39.77L46.74 39.83Q44.51 39.87 43.02 40.56L42.99 40.53L43.01 40.55Q44.05 34.36 43.94 27.12L43.96 27.14L43.87 27.06Q43.28 27.07 41.98 26.81L41.89 26.72L41.93 26.75Q41.94 25.78 41.75 23.83L41.85 23.94L41.81 23.89Q42.85 24.33 43.81 24.52L43.73 24.44L43.90 24.61Q43.89 23.99 43.58 21.51L43.40 21.34L43.43 21.36Q43.19 19.30 43.19 18.35L43.19 18.34L43.19 18.35Q43.34 16.81 44.75 16.24L44.66 16.16L44.67 16.17Q45.54 15.86 50.37 15.02L50.42 15.06L50.30 14.94Q51.04 14.74 51.88 14.62L51.98 14.72L52.06 14.80Q51.74 15.47 51.59 16.35L51.65 16.41L51.20 17.83L51.35 17.98Q50.64 17.76 50.15 17.87L50.09 17.82L50.10 17.83Q49.50 17.84 47.60 18.45ZM53.01 19.56L53.12 19.67L53.04 19.59Q53.40 17.40 54.01 14.85L54.01 14.84L53.95 14.79Q53.36 15.15 52.06 15.76L52.08 15.77L52.38 13.98L52.54 14.14Q51.25 14.25 48.77 14.79L48.87 14.88L48.88 14.89Q47.51 14.78 44.31 15.69L44.45 15.83L44.35 15.73Q42.90 16.27 42.90 18.13L42.92 18.15L42.80 18.03Q42.88 18.41 42.96 18.76L42.86 18.66L42.86 18.66Q43.13 20.03 43.24 21.37L43.33 21.46L43.44 24.03L43.54 24.14Q42.16 23.75 41.52 23.29L41.44 23.21L41.34 23.12Q41.45 24.06 41.49 25.09L41.55 25.16L41.63 27.10L41.71 27.18Q42.44 27.38 43.24 27.45L43.20 27.41L43.28 29.58L43.55 29.48L43.52 29.44Q43.45 35.62 42.46 41.07L42.46 41.07L42.41 41.01Q43.45 40.56 44.63 40.30L44.69 40.36L44.40 42.32L44.50 42.41Q45.73 42.12 47.02 42.09L46.95 42.01L47.01 42.08Q48.18 41.99 49.44 42.26L49.54 42.36L49.53 42.35Q48.66 37.32 48.66 29.37L48.61 29.32L48.61 29.32Q49.70 29.30 51.79 29.38L51.91 29.50L51.94 27.67L51.93 27.66Q51.94 26.71 51.98 25.76L51.85 25.64L52.00 25.78Q51.37 25.73 50.31 25.99L50.25 25.94L50.33 26.01Q50.26 25.26 50.37 23.92L50.45 24.00L50.45 24.01Q49.57 24.19 48.77 24.27L48.92 24.41L48.90 24.39Q48.88 22.97 49.00 21.56L48.85 21.42L48.95 21.51Q49.03 20.80 49.56 20.45L49.71 20.60L49.63 20.52Q50.66 19.91 51.48 19.84L51.39 19.75L51.38 19.74Q52.12 19.58 52.96 19.50Z"/><path d="M8 6 C91 41,78 2,130 42" stroke="#3c65e0" fill="none"/></svg>