<svg xmlns="http://www.w3.org/2000/svg" width="150" height="50" viewBox="0,0,150,50"><rect width="100%" height="100%" fill="white"/><path d="M13 16 C71 5,84 3,144 46" stroke="#e6d08e" fill="none"/><path fill="#6464e6" d="M104.61 23.27L104.67 23.33L104.66 23.32Q102.92 19.22 96.71 19.41L96.73 19.42L96.67 19.37Q92.38 19.61 90.40 21.05L90.34 20.99L90.29 20.95Q87.88 22.68 87.88 26.79L87.85 26.76L87.96 28.74L87.82 28.60Q87.88 37.49 96.90 37.49L96.98 37.57L96.85 37.44Q99.08 37.62 100.57 36.82L100.44 36.69L100.45 36.71Q102.34 35.74 102.19 33.87L102.22 33.90L102.13 33.81Q101.89 31.67 98.20 30.76L98.22 30.78L96.35 30.85L96.35 30.85Q95.44 30.89 94.49 30.93L94.34 30.78L94.37 30.81Q94.33 29.82 94.29 27.91L94.31 27.93L94.43 28.05Q102.09 28.06 106.28 27.72L106.32 27.76L106.14 27.58Q106.09 28.41 106.09 29.21L106.21 29.33L106.23 29.35Q106.11 30.03 106.15 30.83L106.31 30.99L106.21 30.89Q105.02 30.80 105.02 30.80L105.22 31.00L105.09 30.87Q103.63 30.78 104.01 30.78L104.09 30.86L104.02 30.79Q105.24 32.55 105.62 34.53L105.60 34.51L105.53 34.43Q105.74 35.25 105.74 35.71L105.72 35.68L105.74 35.71Q105.64 40.25 96.85 40.25L96.81 40.22L96.96 40.37Q89.79 40.32 87.20 38.22L87.18 38.20L87.12 38.14Q85.28 35.93 85.28 30.86L85.16 30.74L85.12 30.69Q85.18 29.69 85.03 26.99L85.04 27.00L84.97 26.94Q84.93 24.68 84.97 23.31L84.98 23.33L84.96 23.31Q85.06 20.44 86.43 18.84L86.47 18.88L86.43 18.84Q89.03 16.83 93.90 16.64L93.76 16.50L96.56 16.55L96.56 16.55Q99.66 16.46 103.09 16.88L102.94 16.73L103.03 16.82Q106.84 17.36 107.80 20.60L107.79 20.59L107.66 20.46Q106.68 21.42 104.59 23.25ZM105.99 25.45L106.20 25.55L106.18 25.53Q107.29 24.36 109.16 22.38L109.26 22.48L109.14 22.36Q108.85 21.42 107.86 19.71L107.90 19.75L107.90 19.74Q106.72 17.09 102.91 16.44L102.85 16.37L102.89 16.41Q100.87 16.41 96.56 16.10L96.45 15.99L93.78 16.13L93.77 16.13Q88.61 16.34 86.02 18.32L86.03 18.32L86.08 18.38Q84.67 19.97 84.56 23.05L84.52 23.02L84.48 22.98Q84.50 22.54 84.73 28.02L84.90 28.20L84.73 28.03Q84.83 29.45 84.90 32.20L84.93 32.22L84.90 32.20Q85.00 36.55 86.75 38.49L86.84 38.58L86.84 38.58Q87.23 39.44 88.11 40.31L88.04 40.24L88.04 40.24Q91.08 42.25 96.60 42.59L96.55 42.55L99.32 42.61L99.31 42.60Q101.10 42.91 103.12 42.79L103.04 42.72L103.12 42.80Q104.51 42.67 106.61 42.13L106.53 42.06L106.55 42.08Q108.56 41.65 108.52 39.33L108.38 39.19L108.45 39.26Q108.45 38.00 107.38 35.22L107.38 35.22L107.33 35.16Q107.13 34.36 106.60 33.56L106.53 33.49L106.60 33.57Q107.26 33.65 108.44 33.84L108.28 33.68L108.31 33.71Q107.98 30.07 108.02 29.39L107.99 29.36L108.02 29.38Q107.65 29.40 107.23 29.36L107.38 29.51L107.21 29.34Q106.89 29.36 106.51 29.44L106.47 29.40L106.63 29.55Q106.53 28.35 106.61 27.29L106.54 27.22L106.56 27.24Q100.33 27.79 94.05 27.67L94.10 27.73L94.09 27.72Q94.06 28.56 94.06 29.48L94.11 29.53L94.06 31.23L94.14 31.30Q94.55 31.33 94.97 31.30L94.86 31.19L94.88 31.20Q95.39 31.30 95.85 31.30L95.84 31.29L95.78 31.24Q95.83 31.74 95.87 32.24L95.71 32.08L95.74 32.11Q95.78 32.60 95.74 33.09L95.68 33.03L95.83 33.18Q96.79 33.08 97.82 33.04L97.89 33.11L97.80 33.03Q98.95 33.15 99.98 33.19L99.91 33.11L99.94 33.14Q100.86 33.26 101.73 33.64L101.88 33.79L101.87 33.82L101.77 33.72Q102.07 35.39 100.39 36.30L100.33 36.23L100.40 36.31Q98.72 37.21 97.00 37.21L96.86 37.07L96.91 37.12Q93.01 37.06 90.57 35.31L90.71 35.45L90.69 35.42Q89.68 33.35 89.83 30.80L89.91 30.88L89.94 30.91Q90.09 25.96 91.94 23.96L92.03 24.05L91.92 23.94Q93.82 22.00 98.50 21.69L98.60 21.80L98.51 21.70Q102.23 21.54 104.17 23.33L104.04 23.20L104.15 23.30Q104.12 23.32 104.24 23.51L104.24 23.51L104.47 23.63L104.50 23.65Q105.11 24.38 105.68 25.48L105.69 25.49L105.93 25.40Z"/><path fill="#45e6e6" d="M39.82 15.91L39.76 15.85L39.71 15.79Q41.67 20.72 42.24 25.90L42.21 25.87L42.25 25.91Q45.88 21.70 51.78 16.87L51.92 17.00L51.93 17.01Q55.10 16.68 57.73 15.88L57.70 15.85L51.21 21.55L51.12 21.46Q47.67 24.36 44.81 27.22L44.87 27.27L44.89 27.30Q52.89 36.48 57.96 41.20L57.80 41.05L57.77 41.01Q54.85 40.26 52.52 40.11L52.44 40.02L52.38 39.96Q46.75 34.71 42.45 28.89L42.40 28.84L42.44 28.88Q42.41 35.36 40.54 40.69L40.64 40.79L40.64 40.78Q40.42 40.83 39.93 41.02L39.98 41.08L39.76 41.05L39.86 41.15Q39.74 41.25 37.18 42.16L37.14 42.12L37.19 42.17Q39.97 35.43 39.63 27.97L39.69 28.04L39.69 28.03Q39.49 20.83 35.95 14.32L35.95 14.32L36.44 14.55L36.86 14.85L36.75 14.70L36.87 14.83Q37.58 15.19 39.79 15.88ZM40.03 15.55L40.10 15.62L40.10 15.61Q37.76 14.99 35.13 13.47L35.05 13.39L35.17 13.51Q39.48 20.82 39.48 29.77L39.35 29.64L39.53 29.82Q39.39 36.68 36.42 42.73L36.56 42.87L38.49 41.91L38.46 41.88Q38.17 43.00 37.49 44.29L37.45 44.26L37.39 44.20Q39.63 43.39 41.57 42.97L41.60 43.00L41.68 42.85L41.72 42.89Q42.02 42.89 42.59 42.74L42.45 42.59L42.42 42.57Q44.18 36.75 44.29 31.95L44.28 31.94L44.21 31.86Q46.33 34.41 48.16 36.28L48.16 36.28L48.16 36.28Q49.29 37.33 52.30 40.30L52.46 40.46L52.35 40.35L52.49 40.49Q53.45 41.26 55.32 42.86L55.20 42.75L55.24 42.79Q59.13 43.52 62.60 45.23L62.72 45.35L62.55 45.18Q53.38 36.74 47.14 29.31L46.99 29.17L47.10 29.28Q51.46 24.95 60.21 16.35L60.26 16.40L60.31 16.45Q57.61 17.44 55.59 17.82L55.68 17.91L55.76 17.99Q56.93 16.95 59.25 14.93L59.26 14.94L59.23 14.91Q55.03 16.23 51.68 16.42L51.71 16.45L51.79 16.53Q48.83 18.71 43.96 23.40L43.90 23.34L43.92 23.35Q43.62 20.84 43.05 18.29L42.96 18.21L42.94 18.19Q41.76 18.03 40.77 17.69L40.90 17.83L40.90 17.82Q40.56 16.95 39.99 15.51Z"/></svg>