<svg xmlns="http://www.w3.org/2000/svg" width="150" height="50" viewBox="0,0,150,50"><rect width="100%" height="100%" fill="white"/><path fill="#f28c8c" d="M41.73 19.25L41.60 19.12L41.72 19.24Q42.74 23.60 42.89 26.80L43.05 26.96L42.95 26.86Q43.36 26.81 47.73 26.92L47.75 26.94L47.87 27.06Q50.35 27.03 50.73 23.56L50.71 23.54L50.66 23.49Q50.98 21.87 50.06 20.95L49.96 20.85L50.13 21.02Q48.72 19.99 46.74 19.84L46.73 19.82L46.86 19.96Q43.47 19.57 41.60 19.12ZM42.99 28.73L43.09 28.82L43.02 28.75Q43.23 34.79 41.44 40.73L41.49 40.78L41.52 40.81Q40.20 41.05 37.62 42.08L37.58 42.04L37.65 42.11Q40.51 35.65 40.17 28.19L40.04 28.06L40.02 28.04Q39.81 20.78 36.49 14.27L36.54 14.32L36.47 14.24Q41.28 17.00 48.24 17.00L48.41 17.16L48.26 17.02Q54.02 17.14 54.29 20.68L54.28 20.67L54.16 20.56Q54.33 21.26 54.25 21.87L54.15 21.76L54.19 23.02L54.08 22.92Q53.33 26.92 51.20 28.64L51.25 28.69L51.09 28.53Q50.47 29.39 49.44 29.39L49.32 29.27L46.82 29.36L46.79 29.32Q52.36 36.54 56.89 41.10L56.93 41.15L56.92 41.13Q54.73 40.39 51.79 40.04L51.75 40.00L51.71 39.96Q47.89 35.95 42.98 28.72ZM51.69 40.44L51.63 40.37L51.84 40.28L53.16 41.60L53.26 41.70Q53.85 42.25 54.50 42.86L54.50 42.87L54.41 42.77Q58.03 43.46 61.61 45.33L61.45 45.17L61.50 45.21Q54.64 38.55 49.23 31.62L49.16 31.54L50.95 31.58L50.96 31.60Q54.07 31.62 55.40 27.09L55.31 26.99L55.46 27.15Q56.05 24.85 56.05 22.14L56.13 22.22L56.02 22.11Q56.11 19.91 54.39 19.27L54.43 19.30L54.38 19.26Q54.25 18.86 53.68 18.17L53.58 18.07L53.70 18.19Q51.97 16.69 48.32 16.62L48.38 16.68L48.40 16.70Q40.53 16.56 35.85 13.56L35.68 13.38L35.78 13.48Q39.59 20.38 39.93 28.07L39.83 27.96L39.77 27.91Q40.09 35.83 36.96 42.69L36.97 42.69L37.12 42.84Q38.41 42.31 39.21 42.00L39.19 41.98L38.15 44.22L38.03 44.09Q40.77 43.06 43.43 42.57L43.53 42.67L43.53 42.67Q44.83 37.57 45.02 32.35L45.02 32.35L45.04 32.38Q48.38 37.16 51.54 40.29ZM50.44 22.51L50.41 22.48L50.36 22.43Q50.33 22.63 50.33 22.97L50.44 23.08L50.35 23.56L50.50 23.72Q50.46 24.78 49.77 25.73L49.80 25.75L49.74 25.69Q49.04 26.36 48.12 26.55L48.17 26.60L48.22 26.64Q47.92 26.61 46.32 26.65L46.43 26.76L46.48 26.81Q45.71 26.65 44.87 26.54L44.97 26.64L45.03 26.69Q44.86 25.11 44.52 22.07L44.52 22.07L44.53 22.08Q45.91 22.24 46.59 22.24L46.64 22.28L46.55 22.20Q48.39 22.21 50.33 22.40Z"/><path d="M16 36 C75 16,90 25,146 3" stroke="#c2e45c" fill="none"/><path fill="#a35ee8" d="M93.03 40.30L93.06 40.33L93.18 40.45Q89.03 40.60 88.04 38.28L87.99 38.23L88.11 38.36Q88.81 37.33 90.37 35.54L90.30 35.48L90.39 35.56Q90.88 37.58 93.88 37.69L93.79 37.60L93.97 37.77Q97.30 37.79 98.93 36.46L98.90 36.43L98.87 36.39Q100.29 34.81 100.22 32.11L100.22 32.11L100.13 32.02Q100.07 27.05 95.27 27.28L95.22 27.22L95.31 27.31Q92.43 27.40 90.67 28.66L90.63 28.61L90.35 28.48L90.13 28.34L90.26 28.47Q90.57 25.28 90.46 22.54L90.36 22.44L90.47 22.55Q90.31 19.88 89.96 16.56L90.01 16.61L90.01 16.61Q93.55 17.45 97.36 17.33L97.43 17.41L97.42 17.39Q101.13 17.22 104.71 15.97L104.88 16.13L104.26 17.61L104.16 17.52Q103.95 18.37 103.76 19.21L103.68 19.13L103.77 19.22Q100.63 20.22 96.74 20.22L96.74 20.22L96.65 20.13Q95.33 20.25 93.84 20.10L93.88 20.14L93.73 19.99Q93.64 20.66 93.30 25.11L93.35 25.16L93.33 25.14Q94.26 24.78 96.32 24.63L96.20 24.51L96.30 24.61Q99.92 24.73 101.37 26.41L101.50 26.54L101.46 26.50Q102.84 28.03 103.10 31.87L103.04 31.81L103.13 31.90Q103.28 35.97 102.06 37.99L102.06 37.99L102.15 38.07Q100.21 40.06 96.90 40.29L96.88 40.27L96.74 40.13Q95.79 40.24 93.12 40.40ZM99.06 42.56L99.10 42.61L99.22 42.72Q102.50 42.65 104.40 41.55L104.46 41.60L104.48 41.62Q105.46 40.09 105.46 38.00L105.49 38.03L105.43 37.97Q105.52 34.97 104.57 30.86L104.54 30.84L104.49 30.78Q104.21 29.14 103.00 27.73L102.92 27.65L102.88 27.65L102.81 27.50L102.37 27.22L102.42 27.27Q102.14 26.57 101.49 25.88L101.36 25.76L101.47 25.90L101.47 25.90Q100.02 24.30 96.33 24.30L96.14 24.11L95.87 24.11L95.91 24.15Q96.11 23.70 96.31 22.60L96.14 22.43L96.21 22.51Q101.17 22.59 105.21 20.96L105.23 20.98L105.33 21.08Q105.66 19.58 106.61 16.76L106.57 16.73L104.52 17.72L104.50 17.70Q104.93 16.61 105.43 15.47L105.49 15.53L105.45 15.49Q101.59 16.92 97.47 16.99L97.42 16.93L97.40 16.92Q93.26 17.00 89.30 15.90L89.42 16.02L89.32 15.92Q90.16 20.49 90.16 24.90L89.97 24.72L89.99 24.74Q90.08 26.73 89.97 28.63L89.86 28.52L90.04 28.71Q90.28 28.87 90.85 29.18L90.78 29.11L90.74 29.06Q91.18 28.94 91.83 28.59L91.75 28.51L91.86 28.63Q91.75 29.31 91.52 30.83L91.51 30.83L91.58 30.90Q92.01 31.09 92.43 31.32L92.40 31.29L92.37 31.27Q95.15 29.52 97.02 29.52L96.97 29.47L96.92 29.42Q98.30 29.47 99.48 30.11L99.43 30.07L99.54 30.18Q99.93 31.25 99.97 32.20L99.82 32.06L99.90 32.13Q100.00 34.75 98.98 35.85L98.88 35.76L98.95 35.83Q97.50 36.96 95.25 37.19L95.41 37.35L95.40 37.34Q94.28 37.25 93.60 37.18L93.67 37.25L93.59 37.17Q92.86 37.16 92.09 36.82L92.15 36.87L92.09 36.62L91.90 36.66L92.00 36.76Q91.08 36.14 90.54 34.81L90.64 34.90L90.52 34.78Q89.31 36.32 87.64 38.45L87.60 38.41L87.68 38.49Q87.93 39.08 88.77 40.04L88.77 40.04L88.77 40.03Q89.73 41.76 92.55 42.26L92.60 42.31L92.65 42.36Q93.89 42.65 99.26 42.76Z"/></svg>