<svg xmlns="http://www.w3.org/2000/svg" width="150" height="50" viewBox="0,0,150,50"><rect width="100%" height="100%" fill="white"/><path fill="#46b6db" d="M104.47 40.47L104.43 40.43L104.45 40.45Q101.45 36.54 98.82 27.89L98.83 27.90L98.72 27.79Q98.03 25.62 97.23 23.49L97.30 23.55L94.51 32.41L94.50 32.40Q92.62 37.27 90.22 40.50L90.21 40.49L90.18 40.46Q89.39 40.58 87.75 40.73L87.67 40.66L87.77 40.75Q87.86 39.55 87.86 38.29L87.95 38.38L87.76 38.19Q87.78 32.20 85.04 26.07L85.08 26.11L85.15 26.18Q81.98 19.24 76.11 14.25L76.10 14.24L76.13 14.26Q78.28 14.96 80.64 15.50L80.55 15.41L80.60 15.46Q89.40 24.03 90.69 34.99L90.51 34.82L90.68 34.98Q92.19 31.54 93.64 26.18L93.68 26.22L93.75 26.29Q95.70 18.76 96.20 17.35L96.07 17.22L98.36 17.27L98.47 17.38Q99.09 19.33 99.74 21.65L99.71 21.63L100.96 26.08L100.98 26.10Q102.47 31.47 103.88 34.71L103.92 34.75L103.87 34.69Q105.57 23.11 113.49 15.76L113.51 15.78L113.49 15.76Q115.06 15.47 118.03 14.82L117.98 14.77L118.04 14.83Q112.65 19.07 109.61 25.20L109.75 25.35L109.60 25.19Q106.63 31.56 106.63 38.33L106.55 38.25L106.58 38.28Q106.65 39.45 106.72 40.60L106.64 40.51L105.60 40.50L105.61 40.50Q104.99 40.42 104.42 40.42ZM110.53 43.18L110.69 43.34L110.72 43.37Q109.42 39.76 109.54 35.87L109.49 35.82L109.42 35.75Q109.90 24.36 119.27 16.10L119.15 15.98L119.20 16.03Q118.28 16.29 116.34 16.82L116.35 16.84L116.31 16.79Q117.32 16.01 119.22 14.22L119.06 14.06L119.07 14.07Q116.56 14.99 113.63 15.48L113.63 15.48L113.46 15.31Q105.95 22.43 104.05 31.90L104.18 32.04L104.21 32.07Q103.60 30.39 100.74 18.93L100.77 18.95L100.76 18.94Q100.24 18.92 99.29 18.92L99.35 18.98L98.99 17.86L99.04 17.91Q98.94 17.39 98.71 16.89L98.80 16.99L95.84 16.92L95.71 16.79Q94.94 19.30 93.67 24.42L93.72 24.47L93.66 24.41Q92.33 29.47 91.34 31.95L91.38 31.99L91.52 32.13Q89.93 24.22 84.37 17.90L84.30 17.83L84.30 17.83Q83.86 17.80 82.91 17.61L82.85 17.56L82.93 17.64Q82.06 16.66 80.50 15.02L80.52 15.03L80.58 15.10Q77.24 14.34 75.07 13.54L75.01 13.49L75.09 13.57Q80.63 18.11 83.90 24.32L83.91 24.33L83.94 24.36Q87.36 30.94 87.36 37.95L87.43 38.01L87.52 38.10Q87.51 39.66 87.32 41.26L87.16 41.10L87.34 41.28Q87.45 41.15 87.90 41.06L87.92 41.07L87.98 41.13Q88.33 40.93 88.56 40.93L88.69 41.06L88.69 42.09L88.58 41.98Q88.63 42.49 88.71 43.02L88.60 42.92L88.73 43.04Q89.87 42.96 92.15 42.81L92.05 42.71L92.13 42.79Q95.64 37.28 98.38 27.87L98.45 27.95L98.41 27.91Q101.22 36.73 104.19 40.69L104.31 40.81L104.31 40.81Q104.71 40.75 105.54 40.86L105.65 40.97L105.55 40.87Q106.42 41.92 107.48 42.99L107.54 43.05L107.42 42.93Q108.15 42.93 110.55 43.20Z"/><path fill="#b7da4d" d="M49.42 39.91L49.26 39.75L49.36 39.85Q47.41 39.80 45.39 39.99L45.30 39.91L45.47 40.07Q46.11 34.82 46.11 29.98L45.97 29.85L46.00 29.88Q46.09 25.05 45.44 19.83L45.45 19.84L45.45 19.84Q40.90 19.48 37.70 17.80L37.67 17.77L36.83 15.91L36.94 16.01Q36.81 15.58 36.20 14.36L36.13 14.29L36.15 14.31Q41.12 16.88 47.13 17.07L47.21 17.15L47.26 17.20Q52.96 17.19 58.40 15.13L58.44 15.17L58.49 15.22Q57.89 16.75 57.25 18.58L57.23 18.56L57.13 18.46Q53.62 19.87 49.36 20.06L49.23 19.92L49.21 19.91Q49.01 24.93 49.01 29.88L48.97 29.83L49.01 29.87Q48.96 34.77 49.27 39.76ZM59.10 14.46L59.10 14.45L59.11 14.47Q53.44 16.90 47.23 16.71L47.20 16.68L47.19 16.67Q40.40 16.35 35.30 13.38L35.42 13.50L35.34 13.43Q36.07 14.69 37.37 17.96L37.39 17.99L37.38 17.98Q38.10 18.36 39.36 18.93L39.36 18.93L39.40 18.97Q39.70 19.73 40.04 21.25L39.95 21.15L39.88 21.08Q42.30 22.06 45.34 22.28L45.34 22.28L45.23 22.17Q45.64 25.89 45.64 29.66L45.63 29.65L45.73 29.75Q45.76 35.15 44.96 40.51L44.93 40.49L44.82 40.38Q46.53 40.29 47.06 40.29L47.03 40.27L47.09 40.33Q47.13 40.67 47.07 41.34L46.92 41.18L47.01 41.27Q46.96 41.95 46.96 42.29L46.90 42.22L47.04 42.37Q48.20 42.27 49.72 42.35L49.75 42.38L49.65 42.28Q50.56 42.31 52.39 42.46L52.35 42.43L52.38 42.46Q51.25 37.63 51.14 32.46L51.00 32.32L51.04 32.36Q50.95 27.09 51.48 22.18L51.41 22.10L51.46 22.16Q55.45 21.65 58.61 20.43L58.60 20.43L58.64 20.47Q59.33 18.07 60.36 16.02L60.27 15.93L60.24 15.90Q59.00 16.68 58.20 16.98L58.15 16.93L58.10 16.89Q58.59 15.66 59.16 14.52Z"/><path d="M14 2 C83 1,64 2,131 13" stroke="#cfe887" fill="none"/></svg>