<svg xmlns="http://www.w3.org/2000/svg" width="150" height="50" viewBox="0,0,150,50"><rect width="100%" height="100%" fill="white"/><path fill="#61e582" d="M47.33 41.45L47.34 41.45L47.20 41.31Q44.36 41.52 43.11 40.99L43.19 41.07L43.09 40.97Q41.22 40.24 41.29 37.76L41.26 37.73L41.34 37.81Q41.34 34.27 41.34 34.84L41.33 34.83L41.39 34.89Q41.48 29.65 38.62 24.82L38.46 24.65L38.50 24.69Q40.51 25.67 42.49 26.05L42.53 26.10L42.40 25.97Q44.21 30.67 44.09 35.16L44.18 35.25L44.02 35.09Q43.99 36.69 44.83 37.91L44.86 37.95L44.75 37.84Q45.65 39.16 47.18 38.97L47.15 38.94L47.70 38.99L47.60 38.89Q49.00 38.88 49.82 38.12L49.84 38.15L49.82 38.13Q50.59 37.32 50.59 36.37L50.61 36.38L50.50 36.27Q50.55 36.10 50.52 35.91L50.54 35.93L50.55 35.95Q50.54 30.76 51.69 26.42L51.55 26.29L51.67 26.41Q52.64 26.27 53.63 26.04L53.58 26.00L55.62 25.52L55.71 25.61Q53.13 30.60 53.43 36.16L53.29 36.02L53.48 36.21Q53.66 39.28 51.95 40.43L51.88 40.35L51.94 40.42Q50.47 41.12 47.16 41.27ZM49.57 43.75L49.68 43.87L49.63 43.82Q52.96 43.84 54.79 43.08L54.93 43.21L54.92 43.20Q55.87 42.48 55.87 41.07L55.76 40.97L55.81 41.01Q55.73 40.02 55.47 38.46L55.47 38.46L55.46 38.46Q55.08 35.41 55.46 32.40L55.38 32.33L55.42 32.36Q55.78 29.18 57.19 26.44L57.19 26.44L57.31 26.56Q56.68 26.88 55.35 27.30L55.24 27.20L55.33 27.29Q55.48 26.60 55.79 26.03L55.80 26.04L56.35 24.88L56.43 24.96Q54.46 25.58 51.30 26.07L51.32 26.09L51.27 26.04Q50.06 30.85 50.21 35.95L50.20 35.94L50.12 35.85Q50.31 38.06 47.65 38.56L47.59 38.50L47.16 38.53L47.08 38.60L46.14 38.46L46.18 38.50Q46.12 37.64 46.16 37.15L46.04 37.03L46.07 37.06Q46.37 32.64 45.68 28.22L45.49 28.03L44.49 27.94L44.54 27.99Q44.10 28.04 43.56 27.93L43.45 27.82L43.50 27.87Q43.20 26.53 42.93 25.77L42.90 25.74L42.79 25.64Q40.03 25.23 37.78 23.94L37.82 23.97L37.79 23.94Q39.86 27.39 40.59 30.78L40.68 30.87L40.63 30.82Q41.22 33.13 41.07 36.63L41.05 36.60L41.04 36.60Q41.01 36.69 40.94 37.79L40.99 37.84L41.01 37.87Q40.83 40.19 42.20 41.15L42.23 41.18L42.24 41.19Q42.51 43.32 49.52 43.70Z"/><path d="M14 31 C76 7,70 30,147 14" stroke="#55e19b" fill="none"/><path fill="#6d8ded" d="M90.97 19.15L90.92 19.10L90.96 19.14Q92.22 23.75 92.37 26.95L92.38 26.96L92.34 26.91Q92.83 26.95 97.21 27.07L97.19 27.05L97.11 26.97Q99.71 27.06 100.09 23.59L100.17 23.67L100.15 23.65Q100.34 21.89 99.42 20.98L99.45 21.01L99.38 20.94Q98.05 19.99 96.07 19.84L96.13 19.89L96.18 19.94Q92.94 19.71 91.07 19.25ZM92.44 28.84L92.33 28.74L92.36 28.76Q92.61 34.84 90.82 40.78L90.74 40.69L90.76 40.71Q89.46 40.98 86.87 42.01L86.99 42.13L87.02 42.15Q89.71 35.52 89.37 28.06L89.53 28.22L89.44 28.13Q89.22 20.87 85.91 14.36L85.90 14.35L85.72 14.17Q90.75 17.14 97.71 17.14L97.65 17.07L97.59 17.01Q103.29 17.08 103.56 20.62L103.59 20.65L103.52 20.59Q103.66 21.26 103.58 21.87L103.48 21.76L103.54 23.04L103.42 22.92Q102.70 26.96 100.57 28.67L100.53 28.63L100.53 28.64Q99.72 29.31 98.69 29.31L98.78 29.39L96.17 29.38L96.19 29.40Q101.74 36.58 106.27 41.15L106.29 41.17L106.21 41.09Q103.99 40.32 101.06 39.97L101.02 39.94L101.10 40.02Q97.34 36.07 92.43 28.83ZM100.90 40.31L101.01 40.42L101.24 40.35L102.55 41.66L102.45 41.55Q103.20 42.26 103.84 42.87L103.77 42.80L103.80 42.83Q107.25 43.35 110.83 45.21L110.97 45.35L110.77 45.16Q103.92 38.49 98.51 31.56L98.44 31.49L100.21 31.51L100.28 31.58Q103.35 31.57 104.69 27.04L104.67 27.02L104.77 27.12Q105.47 24.93 105.47 22.23L105.42 22.17L105.45 22.21Q105.43 19.90 103.71 19.25L103.73 19.27L103.60 19.15Q103.66 18.93 103.08 18.24L103.04 18.20L103.04 18.20Q101.33 16.72 97.68 16.65L97.74 16.70L97.57 16.54Q89.80 16.50 85.12 13.49L85.10 13.47L85.09 13.46Q88.85 20.31 89.20 28.00L89.11 27.91L89.11 27.91Q89.51 35.92 86.39 42.77L86.42 42.81L86.32 42.71Q87.62 42.18 88.42 41.87L88.46 41.92L87.40 44.13L87.45 44.18Q90.11 43.08 92.78 42.58L92.87 42.67L92.93 42.73Q94.21 37.61 94.40 32.40L94.34 32.34L94.38 32.38Q97.75 37.20 100.91 40.32ZM99.79 22.53L99.77 22.51L99.74 22.48Q99.72 22.68 99.72 23.02L99.80 23.11L99.81 23.68L99.84 23.72Q99.70 24.68 99.01 25.63L99.03 25.65L99.04 25.66Q98.37 26.36 97.46 26.55L97.46 26.55L97.60 26.69Q97.24 26.60 95.64 26.63L95.65 26.65L95.75 26.74Q95.12 26.73 94.28 26.61L94.22 26.55L94.39 26.72Q94.11 25.03 93.77 21.99L93.88 22.10L93.81 22.03Q95.22 22.21 95.90 22.21L95.95 22.27L95.85 22.17Q97.73 22.22 99.67 22.41Z"/></svg>