<svg xmlns="http://www.w3.org/2000/svg" width="150" height="50" viewBox="0,0,150,50"><rect width="100%" height="100%" fill="white"/><path d="M10 23 C91 35,80 10,142 16" stroke="#76e4c8" fill="none"/><path fill="#46d2af" d="M47.43 30.52L47.39 30.48L47.35 30.44Q43.83 36.75 40.41 40.70L40.51 40.81L40.44 40.74Q38.53 41.11 36.09 41.99L36.09 41.99L36.18 42.07Q40.95 36.34 45.71 27.93L45.80 28.02L45.88 28.09Q41.12 20.97 35.14 14.58L35.15 14.59L35.25 14.68Q38.24 15.96 40.52 16.46L40.37 16.30L40.49 16.42Q45.08 21.59 47.52 25.55L47.47 25.49L47.53 25.56Q49.95 21.05 53.87 16.63L53.94 16.70L53.93 16.69Q55.51 16.36 58.70 15.60L58.70 15.60L58.71 15.61Q52.64 22.06 49.18 28.00L49.16 27.98L49.20 28.03Q54.35 36.68 58.73 41.25L58.64 41.16L58.64 41.16Q56.22 40.53 54.13 40.30L54.09 40.26L54.13 40.30Q51.33 37.32 47.41 30.50ZM54.05 40.64L54.02 40.61L54.03 40.63Q54.29 40.62 54.75 40.73L54.73 40.71L54.75 40.73Q55.58 41.53 57.11 43.13L56.97 42.99L57.05 43.07Q60.34 43.81 63.39 45.18L63.51 45.30L63.38 45.18Q56.34 38.67 51.24 29.91L51.15 29.82L51.21 29.88Q54.98 23.26 60.88 16.41L60.83 16.36L60.83 16.36Q59.38 17.01 57.21 17.54L57.32 17.65L57.34 17.67Q58.09 16.63 59.84 14.84L59.85 14.85L59.78 14.78Q57.49 15.76 53.80 16.33L53.82 16.35L53.88 16.41Q50.30 20.07 47.71 24.37L47.82 24.48L47.70 24.35Q46.81 22.78 45.63 21.30L45.67 21.34L43.39 18.41L42.98 18.38L43.08 18.48Q42.84 18.40 42.62 18.32L42.58 18.29L42.63 18.34Q42.01 17.56 40.53 16.00L40.50 15.98L40.42 15.90Q36.57 14.97 33.98 13.60L33.99 13.62L34.12 13.75Q40.77 20.93 45.34 27.98L45.37 28.00L45.47 28.10Q40.80 36.11 35.05 42.69L35.12 42.76L35.06 42.70Q36.51 42.18 38.65 41.61L38.64 41.60L37.31 43.02L37.34 43.04Q37.23 42.94 35.90 44.27L35.87 44.24L35.87 44.24Q39.02 43.31 42.18 42.82L42.24 42.88L42.13 42.77Q46.14 38.26 48.73 33.50L48.66 33.42L48.63 33.39Q51.23 37.67 53.93 40.52Z"/><path fill="#9aeb7f" d="M95.89 41.15L95.93 41.18L94.14 41.11L94.21 41.18Q90.69 41.05 89.74 38.91L89.86 39.04L89.77 38.95Q91.08 38.05 92.53 36.95L92.45 36.86L92.54 36.96Q93.07 39.08 95.92 38.93L95.92 38.93L95.80 38.80Q96.67 38.84 97.70 38.61L97.72 38.63L97.63 38.54Q98.63 38.09 98.55 37.14L98.57 37.16L98.59 37.19Q98.49 36.05 96.70 35.37L96.67 35.34L92.94 33.89L92.87 33.82Q90.47 32.41 90.13 28.87L90.16 28.90L90.27 29.02Q90.10 26.91 92.27 26.34L92.13 26.19L92.15 26.22Q93.06 25.95 96.03 25.95L96.03 25.94L96.19 26.11Q100.90 25.94 101.82 28.45L101.98 28.61L101.80 28.44Q101.34 29.16 100.62 29.62L100.56 29.56L99.13 30.48L99.10 30.46Q98.60 28.55 95.36 28.32L95.47 28.42L95.34 28.30Q94.78 28.34 93.75 28.76L93.78 28.79L93.73 28.74Q93.24 29.16 93.24 30.27L93.21 30.24L93.15 30.18Q93.49 31.24 95.32 31.93L95.46 32.07L95.49 32.10Q96.41 32.33 99.07 33.44L99.06 33.43L99.14 33.51Q100.91 34.29 101.10 36.84L101.22 36.96L101.06 36.79Q101.24 37.55 101.16 38.54L101.16 38.53L101.18 38.55Q101.09 39.38 100.52 40.03L100.45 39.95L100.60 40.10Q98.85 41.06 95.80 41.06ZM100.63 43.72L100.72 43.80L100.55 43.64Q101.56 43.77 102.93 43.47L102.97 43.50L102.96 43.49Q104.06 42.84 103.87 41.62L103.71 41.46L103.74 41.49Q103.70 40.96 103.40 39.36L103.35 39.31L103.48 39.45Q102.93 36.50 101.14 35.28L101.02 35.16L101.12 35.26Q100.58 33.84 99.32 33.12L99.41 33.20L99.35 33.15Q98.10 32.74 95.63 31.78L95.57 31.73L95.64 31.79Q95.75 31.29 96.01 31.18L96.05 31.21L95.94 31.10Q96.66 30.75 97.30 30.72L97.35 30.76L97.27 30.69Q98.13 30.71 98.89 30.97L98.86 30.94L98.85 31.01L98.86 30.91L99.12 30.98L99.18 31.07L99.18 31.07Q100.22 31.50 100.41 32.76L100.37 32.72L100.51 32.86Q101.65 31.91 103.56 30.23L103.54 30.21L103.67 30.35Q103.40 29.62 102.41 28.44L102.30 28.33L102.38 28.41Q101.25 25.71 96.14 25.60L96.17 25.62L96.19 25.65Q92.94 25.52 90.96 26.09L91.05 26.17L91.02 26.15Q89.51 26.61 89.74 28.71L89.84 28.82L89.77 28.74Q89.94 30.05 90.85 32.15L90.88 32.17L90.86 32.15Q91.36 33.23 92.39 33.95L92.39 33.95L92.39 33.95Q93.13 35.49 94.42 36.17L94.42 36.17L94.28 36.03Q95.33 36.40 96.29 36.78L96.18 36.68L98.25 37.61L98.25 37.60Q97.87 38.67 95.93 38.56L95.83 38.46L95.86 38.48Q95.49 38.61 94.27 38.31L94.34 38.37L94.15 38.03L94.18 38.29L94.19 38.30Q93.32 37.93 92.67 36.44L92.54 36.31L92.57 36.34Q90.35 37.81 89.24 38.95L89.29 39.00L89.33 39.04Q89.64 39.96 90.67 40.76L90.72 40.81L90.44 40.84L90.50 40.89Q91.85 42.92 96.07 43.30L96.12 43.36L96.14 43.37Q97.43 43.53 100.67 43.75Z"/></svg>