<svg xmlns="http://www.w3.org/2000/svg" width="150" height="50" viewBox="0,0,150,50"><rect width="100%" height="100%" fill="white"/><path d="M10 18 C91 12,71 41,143 2" stroke="#73ecaf" fill="none"/><path fill="#54e7c2" d="M38.16 38.87L38.22 38.94L38.17 38.89Q40.04 36.50 44.80 29.22L44.92 29.35L44.76 29.18Q48.85 23.03 51.70 19.76L51.73 19.78L51.84 19.89Q49.73 20.18 47.64 20.18L47.57 20.12L47.56 20.10Q42.35 20.15 38.35 18.36L38.30 18.30L38.35 18.35Q37.73 16.48 37.05 14.92L36.95 14.82L37.02 14.90Q41.55 17.03 47.22 17.14L47.21 17.13L47.19 17.11Q52.35 17.21 57.53 15.30L57.55 15.33L57.56 15.34Q57.18 16.17 56.87 16.97L56.83 16.93L56.30 18.56L56.21 18.48Q53.20 22.16 49.20 27.99L49.28 28.06L45.86 32.79L45.89 32.83Q44.20 35.25 42.37 37.53L42.36 37.52L42.34 37.49Q45.71 36.95 49.02 37.02L49.00 37.00L49.02 37.02Q52.30 37.06 55.46 37.98L55.44 37.96L56.07 39.70L56.01 39.63Q56.32 40.51 56.66 41.35L56.62 41.31L56.67 41.36Q51.90 39.68 46.77 39.87L46.81 39.91L46.77 39.87Q41.54 39.98 37.05 41.99L37.17 42.11L37.12 42.07Q37.63 41.12 38.35 39.07ZM36.61 42.84L36.63 42.87L36.61 42.85Q37.74 42.15 38.54 41.89L38.54 41.89L38.56 41.90Q38.23 42.60 37.54 44.12L37.54 44.12L37.52 44.10Q43.35 42.09 49.33 42.32L49.32 42.31L49.33 42.32Q55.53 42.43 60.55 45.20L60.72 45.37L60.65 45.30Q59.28 42.94 58.48 40.77L58.34 40.63L58.41 40.70Q57.98 40.53 56.45 39.96L56.41 39.92L56.41 39.92Q56.16 39.10 55.74 37.62L55.82 37.69L55.82 37.69Q51.74 36.58 46.64 36.77L46.54 36.67L46.55 36.69Q48.61 33.87 52.15 28.31L52.17 28.33L52.23 28.39Q55.93 22.73 57.84 20.18L57.72 20.06L57.70 20.04Q58.21 18.65 59.24 15.95L59.33 16.04L59.35 16.06Q58.70 16.43 57.25 17.04L57.22 17.01L57.21 17.00Q57.43 16.08 58.16 14.56L58.21 14.61L58.28 14.69Q52.86 16.73 47.15 16.65L47.26 16.76L47.17 16.67Q41.25 16.61 36.30 14.10L36.31 14.11L36.21 14.00Q37.32 16.34 38.04 18.58L38.17 18.71L38.11 18.65Q39.34 19.31 40.14 19.54L39.97 19.37L40.07 19.47Q40.35 20.16 40.61 21.61L40.53 21.53L40.48 21.48Q44.29 22.62 49.16 22.43L49.14 22.41L49.20 22.47Q46.79 25.65 43.48 30.64L43.44 30.60L37.89 38.91L37.99 39.02Q37.51 40.17 36.49 42.72Z"/><path fill="#efa38a" d="M95.44 40.18L95.46 40.20L95.46 40.20Q92.11 40.43 90.48 39.90L90.32 39.75L90.40 39.82Q88.41 39.17 88.11 35.78L88.15 35.82L89.49 34.65L89.65 34.80Q90.18 34.08 90.94 33.59L91.08 33.73L90.97 33.62Q90.69 35.50 92.28 36.72L92.28 36.72L92.38 36.81Q93.59 37.76 95.72 37.57L95.86 37.70L95.71 37.56Q100.11 37.16 99.92 33.62L99.89 33.59L99.93 33.63Q99.88 31.48 97.25 30.26L97.12 30.14L97.15 30.16Q94.42 29.22 92.06 28.01L92.00 27.95L91.89 27.83Q89.41 26.57 88.42 21.89L88.49 21.96L88.40 21.87Q88.29 21.42 88.18 20.66L88.16 20.64L88.29 20.77Q88.14 19.94 88.22 19.37L88.12 19.27L88.24 19.39Q88.28 17.68 89.54 17.22L89.55 17.24L89.65 17.33Q92.07 16.48 96.07 16.67L96.01 16.62L95.98 16.58Q97.91 16.80 98.71 16.87L98.72 16.88L98.73 16.90Q100.21 17.08 101.28 17.54L101.23 17.49L101.24 17.50Q103.24 17.87 103.47 20.34L103.52 20.39L103.47 20.35Q102.42 21.04 100.21 22.37L100.30 22.46L100.31 22.47Q99.79 19.36 95.41 19.36L95.39 19.35L95.55 19.50Q93.61 19.47 92.62 20.15L92.52 20.05L92.69 20.22Q91.39 20.60 91.62 22.39L91.71 22.48L91.60 22.37Q91.89 24.60 94.86 26.13L94.86 26.12L94.88 26.15Q95.49 26.45 99.98 28.08L99.81 27.91L99.89 28.00Q102.57 29.53 102.99 33.91L102.92 33.84L102.89 33.81Q102.92 33.99 102.99 35.24L102.93 35.18L103.03 35.28Q103.10 38.06 101.54 39.16L101.45 39.07L101.45 39.07Q99.75 40.19 95.56 40.30ZM97.90 42.72L97.75 42.57L97.86 42.67Q99.32 42.77 101.30 42.77L101.30 42.77L101.33 42.79Q103.33 42.70 104.58 42.28L104.66 42.36L104.67 42.37Q105.83 41.47 105.75 39.68L105.69 39.62L105.80 39.73Q105.66 38.64 105.28 36.58L105.38 36.68L105.23 36.53Q104.42 31.96 102.33 30.09L102.36 30.12L102.37 30.13Q101.63 28.59 100.30 27.87L100.17 27.74L94.91 25.71L94.88 25.69Q94.58 25.54 94.12 25.31L94.07 25.26L94.03 24.95L93.90 24.48L94.05 24.63Q93.75 23.07 94.89 22.46L94.96 22.53L95.00 22.57Q95.69 21.92 97.40 21.73L97.37 21.70L97.49 21.83Q98.58 21.66 99.73 22.12L99.66 22.05L99.62 22.01Q99.72 22.15 99.91 22.99L100.05 23.13L99.99 23.07Q100.10 22.84 100.60 22.61L100.63 22.64L100.72 22.73Q101.44 23.64 101.55 24.78L101.49 24.72L101.50 24.73Q101.48 24.60 105.14 22.01L105.18 22.05L105.21 22.09Q104.88 19.40 103.44 18.71L103.43 18.70L103.56 18.83Q103.02 17.61 101.58 17.08L101.53 17.03L101.48 16.99Q99.14 16.13 95.94 16.13L96.08 16.27L95.99 16.17Q91.19 16.29 89.33 16.97L89.27 16.91L89.28 16.93Q87.95 17.39 87.84 19.06L87.88 19.10L87.71 18.94Q87.76 19.56 88.18 21.77L88.08 21.67L88.12 21.71Q88.85 25.52 91.02 27.76L90.96 27.70L91.07 27.82Q91.84 29.50 93.35 30.19L93.37 30.21L93.35 30.19Q94.74 30.77 98.66 32.33L98.71 32.37L98.71 32.41L99.42 32.82L99.40 32.84L99.43 32.87Q99.64 33.34 99.68 33.69L99.60 33.60L99.64 33.64Q99.69 37.09 95.77 37.24L95.86 37.33L95.81 37.28Q94.61 37.25 93.31 36.87L93.36 36.92L93.27 36.83Q93.10 36.17 93.10 35.44L93.01 35.35L93.10 35.44Q92.95 35.02 92.99 34.76L92.96 34.73L93.12 34.89Q92.60 35.02 91.80 35.51L91.83 35.54L91.82 35.53Q91.28 34.39 91.44 33.02L91.58 33.16L91.42 33.00Q89.46 34.32 87.86 35.72L87.70 35.56L87.74 35.60Q87.82 36.44 87.89 37.47L87.83 37.41L87.90 37.47Q88.18 39.16 89.47 39.92L89.60 40.05L89.63 40.08Q90.75 41.81 93.30 42.19L93.29 42.18L93.32 42.21Q94.81 42.37 97.74 42.56Z"/></svg>