<svg xmlns="http://www.w3.org/2000/svg" width="150" height="50" viewBox="0,0,150,50"><rect width="100%" height="100%" fill="white"/><path fill="#84e584" d="M41.67 30.81L41.66 30.81L41.72 30.87Q41.73 29.36 40.91 28.44L41.09 28.62L40.99 28.52Q40.12 27.56 38.68 27.59L38.83 27.75L38.77 27.69Q36.37 27.69 35.54 29.82L35.66 29.95L35.65 29.94Q35.34 30.70 35.31 31.38L35.25 31.32L35.20 31.28Q35.10 36.23 34.18 40.57L34.18 40.57L34.22 40.61Q32.49 41.09 30.62 42.08L30.63 42.09L30.51 41.96Q32.85 35.06 32.59 27.75L32.60 27.77L32.65 27.81Q32.28 20.36 29.73 13.54L29.80 13.62L29.86 13.67Q31.45 14.81 33.47 15.50L33.56 15.59L33.59 15.62Q35.05 21.41 35.24 27.28L35.16 27.20L35.20 27.24Q36.65 25.23 39.35 25.30L39.32 25.27L39.26 25.21Q44.40 25.36 44.51 30.73L44.42 30.64L44.54 30.76Q44.57 36.34 45.94 40.98L46.07 41.11L46.11 41.16Q44.17 40.24 42.42 40.05L42.32 39.96L42.32 39.96Q41.94 36.84 41.83 30.97ZM41.96 40.24L41.98 40.27L42.14 40.42Q43.16 40.53 44.26 40.79L44.14 40.67L44.31 40.85Q44.20 40.85 44.73 42.83L44.86 42.95L44.78 42.88Q47.70 43.78 49.72 45.22L49.78 45.29L49.85 45.35Q47.11 39.53 46.58 33.21L46.56 33.19L46.46 33.10Q46.20 29.45 44.80 27.89L44.80 27.89L44.91 28.01Q44.86 27.88 44.21 27.42L44.07 27.28L44.21 27.42Q44.00 26.94 43.35 26.18L43.33 26.16L43.38 26.13L43.28 26.04Q42.54 25.29 39.41 25.02L39.29 24.89L39.31 24.91Q38.64 24.97 37.23 25.32L37.27 25.36L37.14 25.22Q36.90 20.34 36.56 17.82L36.63 17.90L36.55 17.82Q35.86 17.77 34.37 17.47L34.41 17.51L34.42 17.52Q34.15 16.67 33.88 15.18L33.89 15.20L33.87 15.18Q30.88 14.17 29.02 12.61L29.19 12.78L29.13 12.72Q32.13 19.90 32.39 27.71L32.32 27.63L32.28 27.59Q32.53 35.34 29.98 42.69L30.06 42.77L30.00 42.71Q30.89 42.08 32.03 41.58L32.10 41.65L31.45 44.01L31.49 44.05Q34.45 42.56 36.43 42.37L36.46 42.40L36.43 42.37Q37.13 37.09 37.32 33.13L37.34 33.15L37.34 33.15Q37.44 31.31 39.38 30.21L39.29 30.11L39.41 30.23Q39.91 29.97 40.44 30.01L40.41 29.97L40.41 29.97Q40.50 29.92 40.84 29.95L40.87 29.98L41.37 30.14L41.25 30.02Q41.28 30.43 41.39 30.88L41.43 30.92L41.47 30.96Q41.49 36.85 41.99 40.27Z"/><path d="M14 15 C91 5,58 49,144 14" stroke="#df61c0" fill="none"/><path fill="#6363dd" d="M10.57 19.61L10.64 19.67L9.03 19.74L9.10 19.81Q6.89 19.96 6.66 21.98L6.54 21.86L6.61 21.92Q6.44 22.55 6.48 23.54L6.47 23.54L6.59 23.66Q6.60 25.56 7.85 26.90L7.92 26.97L7.90 26.95Q9.02 28.14 10.93 27.99L10.99 28.06L10.89 27.95Q12.99 27.85 13.75 26.93L13.71 26.89L13.88 27.06Q14.95 26.16 15.22 23.91L15.14 23.83L15.10 23.79Q15.34 21.52 14.09 20.68L14.09 20.69L14.08 20.68Q13.21 19.89 10.55 19.58ZM16.74 28.97L16.69 28.92L15.31 31.12L15.40 31.21Q12.58 35.89 8.81 39.96L8.84 39.99L8.96 40.11Q7.32 40.26 4.61 41.06L4.53 40.97L4.46 40.90Q9.93 34.76 13.08 29.96L12.96 29.84L12.99 29.87Q11.95 30.50 10.31 30.58L10.43 30.69L10.31 30.57Q7.41 30.84 5.89 28.86L5.81 28.78L5.76 28.73Q4.63 27.21 3.52 22.65L3.43 22.55L3.43 22.55Q3.47 22.14 3.32 21.20L3.38 21.26L3.28 21.16Q3.13 20.23 3.13 19.77L3.24 19.88L3.28 19.92Q3.23 18.09 4.30 17.48L4.34 17.52L4.21 17.39Q5.45 16.65 7.31 16.65L7.28 16.62L7.29 16.63Q10.63 16.77 10.63 16.77L10.61 16.75L10.57 16.71Q12.74 16.75 14.00 16.94L14.07 17.02L13.95 16.89Q16.08 17.16 17.00 17.65L17.04 17.69L17.00 17.66Q18.46 18.51 18.65 20.26L18.59 20.20L18.63 20.24Q18.55 20.39 18.36 23.06L18.47 23.16L18.45 23.14Q17.98 25.19 17.75 26.02L17.73 26.00L17.81 26.08Q17.44 27.50 16.68 28.91ZM18.49 31.21L18.54 31.26L18.53 31.25Q19.59 29.12 20.12 24.82L20.17 24.86L20.03 24.73Q20.34 22.56 20.31 21.69L20.39 21.77L20.26 21.64Q20.28 19.83 19.10 18.92L19.10 18.92L18.69 18.70L18.74 18.75Q18.59 18.11 17.68 17.46L17.62 17.40L17.59 17.37Q15.37 16.45 10.58 16.30L10.51 16.23L10.54 16.26Q9.59 16.27 7.16 16.27L7.10 16.21L7.21 16.32Q5.45 16.31 3.96 16.99L3.90 16.93L3.93 16.96Q2.70 17.67 2.78 19.50L2.89 19.61L2.81 19.53Q2.94 20.39 3.13 22.40L3.21 22.48L3.30 22.58Q3.73 25.02 3.99 25.86L4.04 25.90L4.12 25.99Q4.67 27.83 5.63 29.13L5.53 29.03L5.64 29.13Q5.91 29.48 6.29 29.86L6.26 29.84L6.19 29.76Q6.52 30.28 7.16 31.20L7.21 31.24L7.22 31.25Q8.63 32.55 10.57 32.74L10.59 32.75L10.60 32.77Q8.76 35.50 7.20 37.40L7.12 37.32L3.46 41.66L3.60 41.79Q5.70 40.89 7.34 40.55L7.47 40.67L7.42 40.62Q6.57 41.41 5.01 43.12L4.98 43.10L5.07 43.19Q8.10 42.22 11.22 42.18L11.35 42.31L11.36 42.32Q13.56 39.61 17.90 32.38L17.96 32.44L17.92 32.47L17.92 32.48Q18.31 31.87 18.65 31.38ZM12.63 22.12L12.60 22.09L12.59 22.08Q13.10 21.86 13.55 21.98L13.59 22.02L13.61 22.03Q14.25 22.14 14.63 22.25L14.61 22.23L14.71 22.33Q14.76 22.65 14.84 23.07L14.74 22.97L14.84 23.07Q14.90 23.48 14.79 23.86L14.88 23.95L14.70 23.77Q14.66 25.48 13.48 26.58L13.64 26.75L13.52 26.63Q12.70 27.79 11.06 27.75L10.94 27.62L11.00 27.69Q10.55 27.65 9.02 27.35L8.96 27.28L9.03 27.35Q8.88 26.55 8.88 25.83L8.89 25.84L8.85 25.80Q8.72 25.48 8.72 25.25L8.68 25.21L8.67 25.21Q8.65 22.98 10.94 22.18L11.03 22.27L11.09 22.33Q11.77 22.09 12.60 22.09Z"/><path fill="#d57757" d="M64.38 40.99L64.35 40.96L64.47 41.08Q60.15 29.68 55.01 24.69L55.17 24.86L55.11 24.79Q56.53 25.38 59.50 26.02L59.54 26.06L59.49 26.01Q63.05 29.95 65.60 36.61L65.67 36.68L65.63 36.64Q68.33 29.33 70.95 26.28L70.87 26.20L70.88 26.21Q72.93 26.16 75.36 25.47L75.21 25.32L75.18 25.29Q72.03 28.04 69.86 32.61L69.95 32.71L69.89 32.64Q69.51 33.29 66.13 40.91L66.25 41.03L66.14 40.92Q65.59 41.05 64.37 40.98ZM69.08 43.48L68.99 43.39L69.10 43.50Q72.45 31.20 77.01 26.52L76.90 26.40L75.51 26.99L75.35 26.83Q74.57 27.08 73.73 27.20L73.85 27.31L73.89 27.35Q74.33 26.91 75.14 26.04L75.12 26.01L75.18 26.07Q75.89 25.09 76.34 24.67L76.40 24.73L76.28 24.60Q74.26 25.44 70.83 25.93L70.73 25.83L70.83 25.93Q68.11 29.11 66.05 34.71L66.07 34.73L66.00 34.66Q64.41 30.51 62.58 28.04L62.58 28.03L61.99 27.98L62.03 28.01Q61.58 27.84 61.35 27.84L61.47 27.96L61.53 28.02Q61.18 27.55 59.47 25.49L59.45 25.47L59.62 25.65Q56.24 25.12 53.99 23.98L53.87 23.85L53.91 23.89Q60.03 29.60 64.03 41.32L64.16 41.45L65.07 41.38L65.16 41.47Q65.40 42.01 66.24 43.31L66.20 43.26L67.58 43.28L67.72 43.42Q68.29 43.26 68.93 43.34Z"/><path fill="#80e9e9" d="M20.16 33.04L20.02 32.90L20.12 33.00Q23.08 32.49 26.28 32.61L26.31 32.64L26.45 32.78Q26.28 30.10 26.28 27.70L26.29 27.71L26.33 27.76Q26.25 25.20 26.44 22.65L26.55 22.75L26.46 22.66Q25.21 24.35 20.00 32.88ZM29.92 40.25L29.87 40.20L29.94 40.27Q28.31 40.01 26.52 39.93L26.50 39.92L26.51 39.93Q26.40 37.65 26.29 35.17L26.13 35.02L26.28 35.16Q20.96 34.99 16.24 36.39L16.11 36.27L16.18 36.34Q16.26 35.80 16.45 34.81L16.52 34.89L16.36 34.73Q18.16 31.57 21.73 25.29L21.89 25.45L21.82 25.38Q24.79 20.58 28.22 16.70L28.17 16.65L28.21 16.69Q29.07 16.48 30.74 16.21L30.70 16.17L30.67 16.14Q28.77 22.58 28.77 29.63L28.87 29.72L28.77 29.63Q28.73 31.07 28.81 32.55L28.94 32.69L30.23 32.79L30.11 32.68Q30.87 32.86 31.48 32.98L31.38 32.87L31.43 32.93Q31.45 33.82 31.71 35.76L31.75 35.80L31.71 35.76Q30.59 35.59 29.11 35.40L29.09 35.39L29.15 35.45Q29.24 37.33 29.93 40.26ZM31.59 32.44L31.63 32.48L31.57 32.42Q31.50 32.46 31.31 32.46L31.22 32.37L30.98 32.52L30.94 32.48Q30.73 30.89 30.73 29.48L30.73 29.48L30.72 29.48Q30.68 23.04 32.73 17.02L32.92 17.21L32.76 17.05Q32.08 17.39 30.63 17.77L30.64 17.78L30.57 17.71Q30.76 16.92 31.22 15.51L31.28 15.57L31.30 15.59Q29.98 15.94 27.92 16.17L28.01 16.26L28.04 16.29Q23.98 20.49 18.76 29.86L18.81 29.90L20.87 26.21L20.87 26.21Q20.52 27.31 20.25 27.88L20.17 27.79L15.69 36.80L15.74 36.84Q16.47 36.77 17.61 36.39L17.53 36.31L17.48 36.64L17.37 36.53Q17.22 37.18 16.92 38.44L16.98 38.50L17.06 38.59Q21.06 37.14 25.90 37.33L25.85 37.29L25.95 37.38Q25.99 38.33 26.18 40.31L26.25 40.38L26.22 40.36Q27.30 40.38 28.37 40.49L28.21 40.33L28.32 40.44Q28.37 41.03 28.64 42.40L28.66 42.42L28.69 42.45Q30.67 42.75 33.68 43.67L33.58 43.57L33.66 43.65Q32.71 41.56 31.80 38.28L31.79 38.27L33.12 38.61L33.21 38.71Q33.91 38.95 34.60 39.29L34.58 39.28L34.47 39.17Q33.79 36.77 33.64 35.10L33.50 34.96L33.65 35.11Q32.94 34.82 31.80 34.59L31.83 34.62L31.87 34.67Q31.74 33.47 31.74 32.59ZM23.75 32.44L23.64 32.33L23.68 32.37Q24.42 31.06 25.98 28.51L26.05 28.57L26.05 28.58Q26.05 29.53 26.01 30.48L25.85 30.31L25.99 30.46Q25.87 31.33 25.91 32.28L26.00 32.37L25.99 32.36Q25.47 32.38 24.90 32.38L24.77 32.25L24.90 32.38Q24.31 32.39 23.70 32.39Z"/><path fill="#79e6cb" d="M116.03 14.11L116.01 14.10L115.95 14.04Q116.90 16.05 118.57 16.39L118.65 16.47L118.48 16.30Q119.20 16.60 119.88 16.41L119.86 16.38L119.89 16.42Q119.59 22.24 119.51 28.10L119.46 28.05L119.49 28.09Q119.42 33.84 119.65 39.78L119.67 39.80L119.63 39.76Q119.40 39.75 119.09 39.75L119.16 39.82L119.24 39.90Q117.64 39.86 116.34 41.69L116.21 41.55L116.32 41.66Q117.01 34.73 116.97 27.88L116.97 27.89L116.99 27.90Q116.93 21.03 116.10 14.18ZM115.81 42.71L115.91 42.82L115.90 42.80Q116.97 40.98 118.04 40.53L118.00 40.48L118.10 40.59Q117.98 41.57 117.98 42.56L118.02 42.60L117.99 42.57Q118.74 42.21 119.53 42.33L119.55 42.34L119.42 42.21Q121.53 42.61 122.75 45.31L122.70 45.27L122.69 45.25Q121.57 37.78 121.57 30.32L121.55 30.30L121.43 30.18Q121.61 22.62 122.44 15.31L122.28 15.15L122.42 15.29Q121.40 17.16 120.26 17.77L120.27 17.79L120.17 17.69Q120.30 16.79 120.38 15.72L120.26 15.60L120.20 15.55Q119.40 16.04 118.64 15.89L118.69 15.94L118.67 15.92Q116.58 15.61 115.59 12.76L115.44 12.61L115.48 12.65Q116.63 20.28 116.71 27.81L116.67 27.77L116.71 27.81Q116.67 35.16 115.79 42.70Z"/><path d="M6 14 C91 49,92 45,132 41" stroke="#7ee1e1" fill="none"/><path fill="#df708c" d="M44.15 41.04L44.22 41.12L44.21 41.11Q47.34 36.81 54.04 28.90L54.15 29.00L54.13 28.98Q48.15 29.14 44.38 27.77L44.36 27.74L44.31 27.69Q43.69 26.32 42.93 24.91L42.86 24.83L43.01 24.99Q47.09 26.48 51.54 26.51L51.51 26.48L51.59 26.56Q55.94 26.49 60.13 25.43L60.11 25.41L60.25 25.55Q59.79 26.16 59.52 26.69L59.41 26.57L59.42 26.58Q56.89 28.81 54.07 32.43L54.14 32.50L49.27 38.74L49.16 38.64Q51.55 38.59 53.80 38.67L53.69 38.56L53.75 38.61Q55.87 38.61 58.12 38.99L58.21 39.08L58.07 38.94Q58.31 39.64 59.04 41.66L58.94 41.56L58.94 41.57Q55.33 40.84 51.33 40.96L51.37 40.99L51.22 40.85Q47.23 40.93 43.58 42.11L43.58 42.11L43.65 42.18Q43.84 42.14 44.29 41.19ZM43.09 42.80L43.05 42.77L43.16 42.87Q43.84 42.45 45.44 42.03L45.58 42.18L45.56 42.15Q45.14 42.19 44.72 42.61L44.90 42.79L44.73 42.62Q44.62 43.31 44.01 44.45L44.01 44.44L43.91 44.35Q48.73 43.11 53.71 43.26L53.66 43.21L53.70 43.25Q58.73 43.48 63.30 45.35L63.16 45.21L63.29 45.34Q61.68 43.31 60.77 41.26L60.84 41.33L60.89 41.38Q60.09 41.04 59.03 40.81L58.92 40.70L59.05 40.83Q58.84 40.09 58.46 38.65L58.43 38.62L58.36 38.55Q56.86 38.27 53.28 38.15L53.43 38.30L53.25 38.11Q55.62 34.78 60.64 28.42L60.71 28.48L60.76 28.54Q61.01 27.80 61.70 26.47L61.66 26.43L59.39 27.20L59.49 27.31Q59.54 27.20 59.70 27.09L59.60 27.00L59.80 26.82L59.75 26.76Q60.29 25.78 60.86 24.83L60.89 24.85L60.82 24.79Q56.18 26.16 51.46 26.08L51.38 26.00L51.51 26.14Q46.63 25.97 42.13 24.15L42.11 24.13L42.28 24.29Q43.41 26.10 44.21 28.16L44.26 28.21L44.21 28.16Q44.95 28.37 46.01 28.63L46.17 28.79L46.07 28.69Q46.36 29.48 46.67 30.92L46.52 30.78L46.64 30.90Q48.21 31.13 51.52 31.29L51.48 31.24L51.50 31.27Q49.00 34.47 43.82 40.91L43.83 40.92L43.94 41.03Q43.65 41.57 43.08 42.79Z"/><path fill="#6f4bdc" d="M127.69 32.94L127.62 32.87L127.73 32.97Q130.87 32.65 134.07 32.76L133.99 32.69L133.95 32.65Q134.04 30.22 134.04 27.82L134.02 27.81L134.05 27.84Q133.95 25.26 134.14 22.71L134.06 22.63L134.05 22.62Q132.95 24.45 127.73 32.98ZM137.57 40.26L137.56 40.25L137.66 40.36Q135.94 40.01 134.15 39.93L134.22 40.00L134.18 39.96Q134.04 37.65 133.93 35.18L133.82 35.07L133.89 35.14Q128.56 34.94 123.84 36.35L123.77 36.28L123.70 36.21Q123.81 35.72 124.00 34.73L124.01 34.73L124.07 34.80Q125.93 31.70 129.50 25.42L129.54 25.46L129.41 25.33Q132.35 20.50 135.77 16.62L135.81 16.65L135.87 16.71Q136.75 16.52 138.42 16.26L138.30 16.13L138.29 16.12Q136.50 22.67 136.50 29.71L136.51 29.72L136.44 29.65Q136.40 31.10 136.47 32.58L136.57 32.68L137.74 32.67L137.79 32.72Q138.33 32.69 138.94 32.80L139.08 32.94L139.01 32.87Q139.16 33.90 139.43 35.84L139.46 35.87L139.44 35.85Q138.12 35.48 136.63 35.29L136.72 35.37L136.76 35.41Q137.01 37.45 137.69 40.39ZM139.28 32.50L139.34 32.55L139.25 32.47Q139.10 32.43 138.91 32.43L138.94 32.46L138.60 32.50L138.61 32.51Q138.32 30.85 138.32 29.44L138.34 29.46L138.39 29.52Q138.35 23.08 140.41 17.06L140.52 17.18L140.45 17.10Q139.64 17.33 138.20 17.71L138.30 17.81L138.27 17.78Q138.51 17.03 138.97 15.62L138.92 15.58L138.93 15.58Q137.65 15.98 135.59 16.20L135.68 16.30L135.64 16.26Q131.63 20.50 126.41 29.87L126.36 29.82L128.56 26.26L128.54 26.25Q128.22 27.37 127.95 27.94L127.95 27.94L123.35 36.82L123.48 36.95Q124.10 36.77 125.24 36.39L125.19 36.33L124.95 36.48L125.11 36.64Q124.97 37.30 124.67 38.55L124.57 38.45L124.70 38.58Q128.76 37.20 133.59 37.39L133.62 37.42L133.48 37.28Q133.58 38.29 133.77 40.27L133.81 40.31L133.73 40.24Q134.92 40.36 135.99 40.47L135.99 40.47L135.99 40.48Q136.02 41.03 136.28 42.40L136.37 42.49L136.26 42.38Q138.34 42.79 141.35 43.70L141.18 43.53L141.29 43.64Q140.32 41.53 139.40 38.25L139.45 38.30L140.73 38.59L140.79 38.65Q141.41 38.81 142.10 39.16L142.14 39.20L142.16 39.22Q141.33 36.67 141.18 35.00L141.31 35.14L141.19 35.01Q140.63 34.88 139.49 34.65L139.53 34.69L139.58 34.74Q139.37 33.46 139.37 32.59ZM131.23 32.29L131.39 32.44L131.20 32.26Q132.13 31.13 133.69 28.58L133.60 28.49L133.59 28.48Q133.52 29.36 133.48 30.31L133.55 30.38L133.67 30.50Q133.59 31.41 133.63 32.36L133.64 32.37L133.63 32.36Q133.10 32.37 132.53 32.37L132.52 32.35L132.47 32.31Q131.98 32.43 131.37 32.43Z"/><path d="M15 47 C61 39,93 7,136 20" stroke="#d17bee" fill="none"/><path fill="#d3d345" d="M84.40 28.65L84.39 28.64L78.44 28.67L78.53 28.76Q75.55 28.75 72.62 28.67L72.68 28.73L72.75 28.80Q72.74 35.38 70.68 40.90L70.64 40.85L70.79 41.01Q68.86 41.40 67.11 42.09L67.12 42.10L67.18 42.16Q69.88 36.37 69.88 29.70L70.01 29.84L69.89 29.71Q69.95 21.28 65.84 14.24L65.83 14.24L65.85 14.25Q67.41 15.09 69.89 15.89L69.89 15.90L69.84 15.84Q71.97 20.91 72.51 25.78L72.58 25.86L72.47 25.74Q75.71 26.20 78.56 26.17L78.46 26.06L78.55 26.15Q81.16 26.10 84.48 25.84L84.58 25.94L84.44 25.80Q84.94 21.43 86.70 16.33L86.82 16.46L86.71 16.34Q88.62 15.90 90.87 15.06L90.98 15.17L90.87 15.06Q87.24 21.79 87.24 29.74L87.25 29.75L87.36 29.86Q87.23 35.94 89.59 41.27L89.72 41.40L89.70 41.37Q87.98 40.65 85.93 40.34L85.91 40.33L86.00 40.42Q84.33 35.39 84.44 28.69ZM85.80 40.82L85.78 40.80L85.81 40.84Q86.66 40.81 87.77 41.08L87.77 41.08L87.79 41.10Q88.21 41.90 88.85 43.39L88.82 43.36L88.95 43.48Q92.30 44.43 94.09 45.34L94.08 45.34L94.07 45.33Q89.63 39.18 89.33 30.91L89.16 30.74L89.14 30.73Q88.93 22.79 92.59 15.98L92.52 15.91L91.55 16.46L91.58 16.50Q90.97 16.61 90.36 16.76L90.37 16.77L90.39 16.78Q90.74 15.92 91.58 14.36L91.61 14.39L91.76 14.54Q88.96 15.43 86.33 15.93L86.35 15.94L86.39 15.98Q84.78 20.88 84.32 25.57L84.16 25.40L84.16 25.40Q81.68 25.63 79.24 25.63L79.33 25.72L79.39 25.78Q77.01 25.80 74.50 25.64L74.33 25.48L74.52 25.66Q74.29 22.39 73.19 18.32L73.08 18.21L73.14 18.27Q72.45 18.15 71.00 17.77L71.02 17.79L70.92 17.69Q70.58 16.51 70.12 15.48L70.22 15.58L70.20 15.55Q67.40 14.74 65.12 13.48L65.05 13.41L65.19 13.55Q69.65 20.87 69.65 29.66L69.68 29.70L69.59 29.60Q69.73 36.72 66.61 42.84L66.60 42.83L66.61 42.84Q67.34 42.59 68.68 42.02L68.57 41.91L68.58 41.91Q68.19 42.71 67.39 44.24L67.48 44.32L67.38 44.22Q70.30 43.33 72.54 42.91L72.54 42.91L72.47 42.84Q74.32 37.26 74.51 31.09L74.62 31.21L74.65 31.24Q76.24 31.15 79.44 31.11L79.44 31.12L79.32 31.00Q82.17 30.96 84.08 31.03L84.19 31.14L84.19 31.15Q84.39 36.83 85.72 40.75Z"/><path fill="#edd17c" d="M105.63 41.43L105.48 41.28L105.47 41.28Q102.59 41.44 101.33 40.91L101.51 41.08L101.37 40.94Q99.41 40.13 99.49 37.65L99.45 37.62L99.62 37.79Q99.61 34.24 99.61 34.81L99.80 35.00L99.72 34.92Q99.63 29.50 96.78 24.67L96.77 24.66L96.81 24.70Q98.75 25.61 100.72 25.99L100.84 26.10L100.80 26.06Q102.55 30.70 102.43 35.20L102.47 35.23L102.40 35.16Q102.28 36.68 103.12 37.90L103.14 37.92L103.04 37.83Q104.09 39.29 105.61 39.10L105.44 38.92L105.93 38.92L105.83 38.82Q107.22 38.80 108.04 38.04L108.10 38.10L108.01 38.01Q108.80 37.22 108.80 36.27L108.97 36.44L108.94 36.41Q108.92 36.17 108.89 35.98L108.80 35.89L108.85 35.94Q108.78 30.69 109.92 26.35L109.97 26.40L109.87 26.30Q110.90 26.23 111.89 26.00L111.96 26.06L113.89 25.49L113.92 25.52Q111.39 30.57 111.70 36.12L111.72 36.15L111.60 36.03Q111.88 39.20 110.17 40.34L110.19 40.36L110.12 40.30Q108.83 41.17 105.52 41.33ZM107.98 43.86L107.89 43.78L107.95 43.84Q111.33 43.90 113.15 43.14L113.22 43.20L113.14 43.13Q114.13 42.44 114.13 41.03L114.04 40.94L114.09 40.99Q114.14 40.13 113.87 38.57L113.90 38.59L113.80 38.50Q113.39 35.41 113.77 32.41L113.82 32.46L113.70 32.34Q114.18 29.28 115.59 26.54L115.62 26.57L115.49 26.44Q114.91 26.81 113.57 27.23L113.60 27.25L113.53 27.18Q113.82 26.63 114.12 26.06L114.18 26.12L114.73 24.96L114.59 24.81Q112.67 25.48 109.51 25.98L109.52 25.99L109.54 26.01Q108.43 30.91 108.58 36.01L108.52 35.95L108.51 35.95Q108.49 37.94 105.82 38.43L105.93 38.54L105.63 38.70L105.46 38.68L104.55 38.57L104.42 38.44Q104.35 37.57 104.39 37.08L104.44 37.12L104.34 37.03Q104.55 32.52 103.86 28.10L103.82 28.06L102.86 28.01L102.79 27.94Q102.26 27.91 101.73 27.79L101.72 27.78L101.82 27.88Q101.42 26.46 101.15 25.69L101.16 25.70L101.19 25.73Q98.40 25.30 96.15 24.00L96.16 24.02L96.13 23.98Q98.34 27.56 99.06 30.95L98.91 30.80L98.88 30.77Q99.53 33.13 99.38 36.64L99.29 36.55L99.39 36.65Q99.36 36.73 99.28 37.83L99.27 37.81L99.27 37.82Q99.21 40.27 100.58 41.22L100.50 41.14L100.50 41.14Q100.95 43.46 107.96 43.84Z"/><path fill="#58e8c4" d="M87.30 32.91L87.44 33.05L87.32 32.93Q90.37 32.51 93.57 32.63L93.59 32.65L93.65 32.71Q93.66 30.21 93.66 27.81L93.68 27.83L93.64 27.78Q93.57 25.25 93.76 22.70L93.79 22.73L93.77 22.70Q92.59 24.46 87.38 32.99ZM97.30 40.36L97.31 40.37L97.30 40.36Q95.60 40.03 93.81 39.95L93.83 39.97L93.83 39.97Q93.59 37.56 93.48 35.09L93.45 35.06L93.50 35.12Q88.08 34.83 83.36 36.24L83.50 36.37L83.46 36.34Q83.45 35.72 83.64 34.73L83.65 34.74L83.78 34.87Q85.61 31.75 89.19 25.47L89.04 25.32L89.16 25.44Q91.98 20.50 95.41 16.61L95.45 16.66L95.44 16.64Q96.31 16.45 97.99 16.19L98.03 16.23L98.05 16.25Q96.01 22.54 96.01 29.58L96.01 29.59L96.05 29.62Q96.12 31.18 96.19 32.67L96.07 32.54L97.34 32.63L97.37 32.66Q98.14 32.86 98.75 32.98L98.61 32.83L98.59 32.82Q98.71 33.81 98.98 35.75L99.01 35.79L98.99 35.76Q97.74 35.47 96.25 35.28L96.27 35.29L96.24 35.27Q96.51 37.32 97.19 40.25ZM98.89 32.47L98.93 32.51L98.94 32.52Q98.80 32.49 98.61 32.49L98.62 32.51L98.22 32.49L98.23 32.49Q98.01 30.90 98.01 29.49L97.97 29.46L98.12 29.60Q98.12 23.21 100.17 17.19L100.05 17.07L100.02 17.04Q99.43 17.48 97.99 17.86L97.98 17.85L97.86 17.73Q98.17 17.06 98.63 15.65L98.51 15.53L98.53 15.54Q97.37 16.06 95.31 16.29L95.30 16.27L95.18 16.16Q91.37 20.61 86.16 29.97L86.03 29.85L88.10 26.17L88.25 26.32Q87.76 27.28 87.50 27.85L87.44 27.79L83.10 36.93L83.01 36.84Q83.79 36.82 84.93 36.44L84.78 36.29L84.60 36.49L84.76 36.65Q84.58 37.27 84.28 38.53L84.23 38.48L84.30 38.55Q88.31 37.11 93.14 37.30L93.30 37.46L93.30 37.46Q93.21 38.29 93.40 40.27L93.40 40.27L93.52 40.39Q94.42 40.22 95.48 40.33L95.56 40.41L95.52 40.37Q95.64 41.02 95.90 42.39L96.07 42.55L95.92 42.41Q97.79 42.60 100.80 43.52L100.93 43.64L100.94 43.66Q99.99 41.56 99.08 38.29L98.96 38.17L100.50 38.72L100.51 38.73Q101.06 38.82 101.74 39.16L101.87 39.29L101.90 39.32Q101.08 36.79 100.93 35.12L100.88 35.07L100.83 35.02Q100.20 34.81 99.06 34.58L99.09 34.60L99.06 34.58Q98.94 33.39 98.94 32.51ZM90.92 32.34L90.86 32.28L90.93 32.35Q91.76 31.12 93.32 28.57L93.25 28.51L93.15 28.41Q93.16 29.36 93.12 30.32L93.12 30.31L93.12 30.32Q93.26 31.45 93.30 32.40L93.20 32.30L93.32 32.42Q92.75 32.38 92.18 32.38L92.01 32.21L92.05 32.25Q91.45 32.26 90.84 32.26Z"/></svg>