<svg xmlns="http://www.w3.org/2000/svg" width="150" height="50" viewBox="0,0,150,50"><rect width="100%" height="100%" fill="white"/><path fill="#f188a2" d="M68.20 27.19L68.21 27.19L68.14 27.13Q69.07 27.26 70.48 27.11L70.48 27.10L70.33 26.95Q70.29 27.59 70.29 28.24L70.29 28.25L70.37 29.58L70.26 29.48Q69.60 29.64 68.76 29.72L68.64 29.60L68.72 29.69Q67.89 29.73 67.06 29.69L67.01 29.65L66.91 29.55Q64.21 35.88 60.79 40.48L60.76 40.45L60.64 40.33Q58.27 41.12 56.97 41.73L56.91 41.66L56.90 41.65Q61.05 35.98 64.09 29.70L64.07 29.67L61.54 29.78L61.50 29.73Q61.43 28.33 61.31 27.00L61.27 26.95L61.40 27.08Q63.19 27.12 65.24 27.12L65.36 27.24L67.13 23.41L67.19 23.47Q68.13 21.51 69.35 19.92L69.34 19.91L69.36 19.93Q67.81 20.10 66.21 20.10L66.34 20.22L66.25 20.13Q60.09 20.06 56.32 17.85L56.32 17.86L55.75 16.22L55.64 16.11Q55.31 15.29 54.93 14.41L54.94 14.42L55.06 14.54Q59.34 17.11 65.05 17.34L65.13 17.42L65.05 17.33Q70.21 17.59 75.35 15.61L75.40 15.65L75.34 15.59Q75.24 16.11 74.75 16.98L74.73 16.97L74.66 16.89Q71.07 21.68 68.22 27.20ZM76.30 18.30L76.21 18.21L77.31 16.30L77.30 16.30Q76.35 16.79 74.67 17.51L74.70 17.54L74.77 17.12L74.75 17.10Q74.88 16.96 74.99 16.84L75.01 16.86L75.04 16.90Q75.38 16.16 76.10 14.83L76.13 14.86L76.13 14.86Q70.82 17.17 65.07 16.94L64.98 16.85L65.03 16.90Q59.08 16.70 54.32 13.73L54.26 13.67L54.32 13.72Q55.28 15.52 56.12 18.19L56.12 18.19L56.23 18.30Q57.32 18.93 58.12 19.23L58.04 19.16L57.98 19.09Q58.25 19.55 58.70 21.42L58.71 21.42L58.71 21.43Q61.76 22.57 67.28 22.42L67.30 22.44L67.35 22.49Q67.12 23.13 65.14 26.90L64.97 26.73L64.99 26.75Q62.96 26.78 60.98 26.59L61.10 26.71L61.11 26.72Q61.20 27.57 61.20 28.44L61.04 28.29L61.01 29.97L62.87 30.16L62.70 31.39L62.76 31.45Q58.78 38.77 56.00 42.35L56.17 42.52L56.09 42.44Q57.69 41.68 59.33 41.19L59.39 41.25L59.25 41.11Q58.71 42.17 57.34 43.89L57.20 43.74L57.27 43.82Q60.38 42.66 62.82 42.43L62.77 42.39L62.94 42.56Q65.88 38.80 69.00 32.02L68.83 31.85L72.24 32.03L72.33 32.11Q72.33 31.27 72.33 30.36L72.30 30.33L72.19 28.44L72.17 28.42Q72.02 28.53 71.47 28.57L71.41 28.51L71.49 28.59Q70.86 28.55 70.60 28.55L70.64 28.59L70.61 28.56Q70.57 28.41 70.61 28.26L70.74 28.39L70.68 28.06L70.70 28.08Q73.10 22.83 76.18 18.18Z"/><path fill="#519be5" d="M124.75 28.64L124.75 28.64L118.96 28.83L118.93 28.80Q115.87 28.71 112.94 28.63L113.07 28.77L113.08 28.77Q113.08 35.35 111.02 40.87L111.03 40.88L111.01 40.87Q109.35 41.52 107.59 42.21L107.48 42.09L107.62 42.23Q110.32 36.45 110.32 29.78L110.20 29.66L110.37 29.83Q110.24 21.21 106.12 14.16L106.24 14.27L106.17 14.21Q107.62 14.94 110.09 15.74L110.15 15.79L110.19 15.83Q112.26 20.83 112.79 25.70L112.92 25.83L112.94 25.86Q116.12 26.25 118.97 26.21L118.91 26.15L118.99 26.23Q121.50 26.08 124.81 25.81L124.96 25.96L124.84 25.84Q125.30 21.42 127.05 16.32L127.11 16.38L126.99 16.26Q129.12 16.03 131.36 15.19L131.20 15.03L131.21 15.04Q127.60 21.79 127.60 29.74L127.72 29.86L127.58 29.72Q127.72 36.06 130.08 41.39L130.07 41.39L130.02 41.33Q128.43 40.73 126.37 40.43L126.35 40.40L126.30 40.36Q124.67 35.37 124.78 28.67ZM126.01 40.68L126.16 40.83L126.02 40.69Q127.13 40.92 128.24 41.19L128.24 41.19L128.14 41.09Q128.51 41.84 129.16 43.33L129.19 43.35L129.16 43.33Q132.60 44.37 134.39 45.28L134.35 45.25L134.39 45.29Q129.99 39.17 129.68 30.91L129.53 30.76L129.68 30.90Q129.24 22.74 132.89 15.92L132.89 15.92L131.91 16.46L131.98 16.53Q131.31 16.58 130.70 16.73L130.72 16.76L130.84 16.88Q131.27 16.08 132.10 14.52L132.11 14.53L132.13 14.54Q129.41 15.52 126.79 16.02L126.65 15.88L126.77 16.01Q125.03 20.77 124.57 25.45L124.69 25.57L124.70 25.58Q122.16 25.74 119.72 25.74L119.71 25.73L119.74 25.76Q117.23 25.65 114.72 25.50L114.78 25.56L114.70 25.48Q114.50 22.24 113.40 18.16L113.39 18.15L113.49 18.26Q112.79 18.13 111.34 17.75L111.28 17.68L111.24 17.64Q110.86 16.43 110.41 15.40L110.55 15.54L110.48 15.47Q107.69 14.66 105.40 13.40L105.49 13.49L105.54 13.54Q110.10 20.96 110.10 29.75L110.03 29.68L110.08 29.73Q110.04 36.66 106.92 42.79L107.00 42.86L106.89 42.76Q107.64 42.52 108.97 41.95L108.91 41.88L108.96 41.93Q108.57 42.73 107.77 44.25L107.90 44.37L107.76 44.24Q110.57 43.25 112.82 42.83L112.96 42.96L112.88 42.89Q114.66 37.24 114.85 31.07L115.02 31.25L115.00 31.22Q116.56 31.11 119.76 31.07L119.76 31.07L119.79 31.10Q122.54 30.96 124.45 31.04L124.43 31.02L124.53 31.12Q124.78 36.86 126.12 40.78Z"/><path fill="#eac966" d="M19.35 23.22L19.38 23.26L19.38 23.26Q17.64 19.15 11.43 19.34L11.41 19.32L11.46 19.37Q7.13 19.57 5.15 21.01L5.02 20.89L5.14 21.00Q2.67 22.69 2.67 26.80L2.60 26.73L2.65 28.64L2.60 28.59Q2.77 37.60 11.79 37.60L11.79 37.59L11.81 37.61Q13.73 37.48 15.21 36.68L15.25 36.71L15.22 36.68Q17.05 35.66 16.90 33.79L17.01 33.91L16.99 33.89Q16.84 31.83 13.14 30.91L13.01 30.78L11.11 30.82L11.21 30.92Q10.23 30.89 9.28 30.93L9.16 30.82L9.18 30.83Q9.24 29.94 9.20 28.04L9.24 28.07L9.27 28.10Q16.88 28.06 21.06 27.72L21.01 27.67L21.08 27.73Q20.96 28.49 20.96 29.29L21.05 29.38L20.94 29.27Q21.07 30.20 21.11 31.00L21.04 30.93L20.98 30.87Q19.81 30.80 19.81 30.80L19.88 30.87L19.84 30.83Q18.57 30.94 18.95 30.94L18.89 30.87L18.91 30.90Q19.97 32.48 20.35 34.46L20.41 34.52L20.27 34.38Q20.44 35.17 20.44 35.62L20.55 35.73L20.44 35.62Q20.54 40.37 11.75 40.37L11.74 40.36L11.70 40.32Q4.49 40.23 1.90 38.13L2.06 38.29L2.04 38.28Q-0.08 35.77-0.08 30.71L0.01 30.80L0.05 30.84Q-0.09 29.63-0.24 26.93L-0.13 27.05L-0.06 27.11Q-0.29 24.67-0.26 23.30L-0.27 23.29L-0.29 23.26Q-0.22 20.37 1.15 18.77L1.30 18.92L1.23 18.84Q3.73 16.74 8.60 16.55L8.63 16.58L11.37 16.58L11.25 16.45Q14.45 16.46 17.87 16.87L17.88 16.88L17.87 16.88Q21.53 17.26 22.48 20.50L22.48 20.49L22.52 20.53Q21.54 21.49 19.45 23.32ZM20.86 25.53L20.89 25.45L20.98 25.54Q22.10 24.38 23.97 22.40L24.02 22.45L24.02 22.45Q23.68 21.47 22.69 19.76L22.69 19.75L22.75 19.81Q21.43 17.00 17.62 16.36L17.75 16.49L17.66 16.39Q15.70 16.46 11.40 16.15L11.28 16.03L8.56 16.13L8.60 16.17Q3.40 16.34 0.81 18.31L0.88 18.38L0.81 18.32Q-0.57 19.94-0.68 23.03L-0.75 22.96L-0.61 23.10Q-0.63 22.62-0.40 28.11L-0.33 28.18L-0.39 28.11Q-0.29 29.55-0.21 32.29L-0.22 32.28L-0.25 32.25Q-0.16 36.60 1.59 38.54L1.59 38.55L1.56 38.51Q1.92 39.33 2.79 40.21L2.88 40.29L2.91 40.33Q5.83 42.21 11.35 42.56L11.36 42.57L14.22 42.72L14.13 42.63Q15.80 42.82 17.82 42.71L17.78 42.67L17.80 42.69Q19.23 42.60 21.32 42.06L21.26 42.00L21.38 42.12Q23.30 41.61 23.27 39.28L23.30 39.32L23.31 39.33Q23.31 38.07 22.24 35.29L22.22 35.27L22.15 35.20Q21.93 34.37 21.39 33.57L21.40 33.57L21.35 33.53Q22.02 33.62 23.20 33.81L23.08 33.70L23.18 33.79Q22.93 30.23 22.97 29.55L22.83 29.41L22.81 29.39Q22.49 29.45 22.07 29.41L22.17 29.51L21.99 29.33Q21.67 29.35 21.29 29.43L21.39 29.53L21.30 29.44Q21.34 28.37 21.41 27.31L21.49 27.38L21.33 27.22Q15.19 27.86 8.91 27.75L8.83 27.67L8.87 27.70Q8.87 28.58 8.87 29.50L8.82 29.45L8.88 31.25L8.78 31.16Q9.32 31.32 9.74 31.28L9.79 31.32L9.66 31.20Q10.07 31.19 10.53 31.19L10.62 31.28L10.46 31.12Q10.53 31.65 10.57 32.14L10.61 32.19L10.50 32.07Q10.62 32.66 10.59 33.15L10.59 33.16L10.61 33.18Q11.68 33.18 12.71 33.14L12.72 33.15L12.57 33.01Q13.71 33.12 14.74 33.16L14.78 33.20L14.70 33.12Q15.71 33.33 16.59 33.71L16.68 33.81L16.60 33.76L16.55 33.71Q16.72 35.25 15.04 36.16L15.03 36.15L15.18 36.30Q13.40 37.10 11.68 37.10L11.65 37.07L11.70 37.12Q7.80 37.06 5.36 35.31L5.43 35.39L5.36 35.31Q4.55 33.44 4.70 30.89L4.59 30.78L4.60 30.79Q4.96 26.04 6.81 24.04L6.71 23.95L6.85 24.09Q8.72 22.11 13.40 21.81L13.30 21.71L13.33 21.74Q16.96 21.48 18.90 23.27L18.93 23.30L18.85 23.22Q19.04 23.45 19.15 23.64L19.04 23.53L19.29 23.66L19.13 23.50Q19.83 24.31 20.40 25.42L20.49 25.50L20.87 25.55Z"/><path d="M8 8 C74 27,91 20,137 16" stroke="#79ade1" fill="none"/><path fill="#52e9c3" d="M34.88 36.97L34.89 36.98L34.80 36.89Q35.91 37.77 37.31 37.62L37.43 37.73L37.35 37.65Q40.21 37.77 40.86 34.42L41.03 34.60L40.88 34.44Q41.61 31.41 41.61 28.02L41.55 27.96L41.53 25.34L41.59 25.41Q41.47 24.03 41.13 22.78L41.29 22.94L41.17 22.82Q40.02 25.21 38.04 29.97L38.09 30.02L38.03 29.96Q36.05 34.71 34.83 36.92ZM39.88 20.46L39.87 20.45L39.89 20.47Q38.64 19.56 37.30 19.56L37.33 19.58L37.32 19.58Q35.83 19.42 34.72 20.33L34.76 20.37L34.73 20.33Q33.68 21.30 33.49 22.79L33.54 22.84L33.52 22.82Q33.25 24.26 33.21 25.74L33.18 25.71L33.10 25.63Q33.18 25.72 33.18 28.57L33.11 28.50L33.20 28.59Q33.11 30.86 33.56 34.47L33.59 34.50L33.54 34.45Q35.50 29.75 39.88 20.46ZM41.40 39.23L41.34 39.17L41.42 39.24Q39.71 40.21 37.39 40.21L37.38 40.19L35.73 40.18L35.75 40.20Q32.37 40.06 31.23 38.34L31.29 38.40L31.29 38.40Q30.45 36.20 30.38 33.27L30.53 33.42L30.41 33.30Q30.34 31.52 30.27 28.06L30.42 28.21L30.31 28.10Q30.22 26.82 30.06 23.78L30.11 23.82L30.21 23.92Q30.04 21.55 30.34 19.57L30.45 19.68L30.31 19.54Q30.83 16.63 35.17 16.40L35.12 16.35L35.25 16.48Q35.88 16.31 37.21 16.35L37.31 16.44L37.31 16.44Q43.05 16.66 44.11 20.13L44.13 20.14L44.05 20.06Q44.57 21.87 44.53 23.74L44.63 23.84L44.57 23.78Q44.57 28.85 44.50 30.07L44.52 30.09L44.37 29.94Q44.29 33.86 43.99 35.15L44.04 35.21L44.00 35.16Q43.33 38.27 41.43 39.26ZM46.44 39.09L46.45 39.10L46.42 39.07Q46.50 36.14 46.46 34.35L46.60 34.49L46.56 29.92L46.55 29.91Q46.32 26.75 45.79 21.23L45.96 21.40L45.86 21.31Q45.31 19.46 44.02 18.70L44.06 18.74L44.07 18.75Q42.39 16.08 37.21 15.93L37.32 16.04L37.23 15.95Q36.34 15.89 35.01 15.93L35.04 15.96L35.18 16.11Q30.50 16.03 30.00 19.15L30.02 19.17L30.04 19.19Q29.76 21.61 29.87 23.70L29.70 23.53L29.86 23.69Q30.15 28.02 30.11 31.37L30.14 31.39L30.01 31.27Q30.00 34.99 30.12 36.01L30.22 36.12L30.11 36.01Q30.48 39.08 32.01 39.88L32.03 39.90L32.08 39.96Q33.62 42.22 37.61 42.48L37.57 42.44L37.58 42.45Q41.15 42.67 41.80 42.63L41.75 42.58L41.82 42.66Q44.60 42.43 45.74 40.83L45.72 40.80L45.69 40.78Q46.31 40.21 46.38 39.03ZM37.78 37.32L37.85 37.39L37.68 37.22Q38.49 35.89 39.55 33.19L39.59 33.23L41.14 28.84L41.27 28.97Q41.22 30.60 40.84 33.95L40.83 33.94L40.75 33.86Q40.25 36.89 37.85 37.39ZM35.74 24.96L35.85 25.07L35.84 25.06Q36.33 23.30 37.01 22.73L36.95 22.67L36.99 22.71Q37.29 22.14 38.59 21.95L38.71 22.07L38.76 22.12Q37.02 25.75 35.16 30.40L35.02 30.26L35.04 30.28Q35.02 27.56 35.71 24.93Z"/><path fill="#91e575" d="M95.57 29.54L95.58 29.56L95.43 29.41Q94.34 28.74 93.70 28.78L93.67 28.75L93.72 28.81Q92.36 28.89 91.32 29.90L91.32 29.90L91.23 29.81Q90.14 30.78 90.26 32.15L90.24 32.13L90.37 32.27Q90.63 36.56 89.75 41.09L89.67 41.01L89.84 41.18Q87.55 41.55 86.44 42.08L86.41 42.05L86.48 42.11Q87.92 37.88 87.69 33.43L87.69 33.44L87.71 33.45Q87.39 28.87 85.68 24.80L85.81 24.92L85.68 24.79Q86.98 25.64 89.26 26.29L89.13 26.16L89.86 29.02L89.86 29.01Q90.37 25.95 94.64 25.95L94.64 25.95L94.62 25.94Q95.15 26.00 95.45 26.00L95.43 25.98L95.43 25.98Q96.64 25.90 97.90 26.59L97.87 26.56L98.03 26.72Q96.70 28.05 95.55 29.53ZM97.04 31.39L97.23 31.44L97.20 31.41Q98.12 30.27 99.80 27.84L99.76 27.80L99.69 27.73Q99.37 27.52 97.84 27.25L97.89 27.30L97.77 27.18Q98.09 26.85 98.55 26.24L98.63 26.32L98.63 26.33Q96.61 25.29 94.67 25.48L94.80 25.62L94.73 25.55Q92.86 25.81 92.13 26.07L92.16 26.10L92.07 26.01Q90.69 26.46 89.89 27.56L89.96 27.63L89.74 26.76L89.59 25.97L89.45 25.83Q87.11 25.46 85.13 24.13L85.09 24.10L85.18 24.19Q87.19 28.43 87.41 33.31L87.40 33.29L87.54 33.43Q87.66 38.24 85.91 42.77L85.87 42.73L85.91 42.77Q87.01 42.31 87.89 42.01L87.94 42.06L87.88 41.99Q87.67 43.16 87.18 44.22L87.06 44.10L87.14 44.19Q89.95 43.31 92.09 43.19L92.08 43.19L92.22 38.61L92.28 38.67Q92.39 36.41 92.39 34.17L92.46 34.24L92.34 34.13Q92.46 33.06 93.37 32.09L93.38 32.09L93.38 32.09Q94.24 31.07 95.38 30.99L95.49 31.10L95.35 30.97Q95.95 30.80 96.67 31.49L96.65 31.47L97.02 31.38ZM92.17 29.72L92.17 29.65L92.19 29.78L92.05 29.60Z"/><path d="M21 37 C90 17,90 4,140 31" stroke="#58c4e9" fill="none"/><path d="M3 3 C93 16,76 40,134 17" stroke="#e8e85e" fill="none"/><path fill="#4ce0bb" d="M75.20 36.93L75.13 36.86L75.24 36.97Q76.26 37.76 77.67 37.60L77.74 37.68L77.80 37.74Q80.67 37.86 81.31 34.51L81.25 34.45L81.30 34.50Q82.02 31.45 82.02 28.06L81.94 27.99L81.95 25.40L81.96 25.42Q81.90 24.10 81.56 22.84L81.60 22.88L81.53 22.82Q80.39 25.22 78.41 29.98L78.30 29.86L78.38 29.94Q76.47 34.77 75.25 36.98ZM80.28 20.49L80.14 20.36L80.12 20.34Q79.16 19.72 77.83 19.72L77.65 19.55L77.80 19.69Q76.17 19.40 75.07 20.31L75.24 20.48L75.23 20.47Q74.00 21.26 73.81 22.75L73.81 22.74L73.80 22.74Q73.61 24.26 73.57 25.74L73.50 25.67L73.54 25.71Q73.52 25.69 73.52 28.55L73.53 28.56L73.52 28.55Q73.53 30.92 73.99 34.54L73.90 34.45L73.83 34.38Q75.90 29.78 80.28 20.49ZM81.78 39.24L81.73 39.20L81.79 39.25Q79.95 40.08 77.63 40.08L77.67 40.12L76.11 40.20L75.97 40.06Q72.81 40.14 71.67 38.42L71.73 38.48L71.59 38.34Q70.90 36.28 70.82 33.35L70.81 33.33L70.79 33.32Q70.71 31.52 70.63 28.06L70.64 28.07L70.62 28.04Q70.70 26.94 70.54 23.90L70.56 23.91L70.53 23.88Q70.49 21.63 70.79 19.65L70.80 19.66L70.82 19.68Q71.20 16.63 75.54 16.40L75.51 16.37L75.54 16.41Q76.41 16.47 77.74 16.51L77.67 16.44L77.76 16.53Q83.43 16.68 84.49 20.14L84.41 20.06L84.35 20.00Q84.99 21.93 84.95 23.80L85.05 23.90L84.96 23.81Q84.88 28.79 84.81 30.01L84.80 30.00L84.89 30.10Q84.66 33.86 84.35 35.16L84.40 35.20L84.28 35.08Q83.72 38.29 81.82 39.28ZM86.68 38.96L86.81 39.09L86.76 39.05Q87.01 36.28 86.97 34.50L86.99 34.51L86.89 29.88L86.93 29.93Q86.77 26.83 86.23 21.31L86.26 21.34L86.24 21.32Q85.74 19.52 84.44 18.76L84.31 18.63L84.34 18.66Q82.89 16.21 77.71 16.06L77.58 15.94L77.58 15.93Q76.87 16.06 75.53 16.10L75.53 16.10L75.44 16.00Q70.87 16.04 70.38 19.16L70.36 19.15L70.52 19.31Q70.05 21.54 70.17 23.63L70.06 23.53L70.11 23.58Q70.53 28.03 70.49 31.38L70.41 31.30L70.53 31.42Q70.40 35.02 70.51 36.05L70.58 36.11L70.49 36.02Q70.94 39.17 72.46 39.97L72.48 39.99L72.37 39.88Q73.97 42.21 77.97 42.47L77.86 42.37L77.94 42.45Q81.42 42.58 82.07 42.54L82.06 42.53L82.15 42.62Q85.06 42.53 86.21 40.93L86.24 40.96L86.17 40.90Q86.57 40.11 86.65 38.93ZM78.16 37.34L78.09 37.27L78.20 37.38Q78.78 35.82 79.84 33.12L79.79 33.06L81.66 28.99L81.50 28.84Q81.48 30.50 81.10 33.85L81.22 33.96L81.23 33.98Q80.58 36.86 78.18 37.36ZM76.08 24.94L76.21 25.07L76.12 24.98Q76.59 23.21 77.28 22.63L77.31 22.67L77.20 22.56Q77.83 22.31 79.13 22.12L79.05 22.05L79.05 22.05Q77.42 25.78 75.55 30.43L75.45 30.33L75.48 30.35Q75.51 27.68 76.20 25.06Z"/><path fill="#4c98e5" d="M107.67 39.86L107.68 39.87L107.57 39.77Q105.77 39.86 103.75 40.05L103.67 39.98L103.62 39.93Q104.34 34.74 104.34 29.91L104.43 30.00L104.42 29.98Q104.42 25.07 103.77 19.86L103.68 19.77L103.68 19.76Q99.09 19.37 95.89 17.69L96.01 17.81L95.25 16.02L95.29 16.06Q95.10 15.57 94.49 14.35L94.44 14.30L94.35 14.21Q99.40 16.86 105.42 17.05L105.58 17.22L105.39 17.02Q111.35 17.27 116.79 15.22L116.70 15.13L116.83 15.26Q116.05 16.61 115.41 18.44L115.49 18.52L115.38 18.41Q111.92 19.86 107.66 20.05L107.51 19.90L107.54 19.94Q107.26 24.87 107.26 29.82L107.39 29.95L107.45 30.01Q107.30 34.81 107.60 39.80ZM117.54 14.59L117.54 14.59L117.56 14.61Q111.64 16.80 105.43 16.61L105.54 16.71L105.38 16.56Q98.81 16.46 93.71 13.49L93.61 13.39L93.65 13.43Q94.41 14.72 95.70 18.00L95.66 17.95L95.81 18.11Q96.46 18.41 97.72 18.99L97.74 19.00L97.72 18.99Q98.01 19.73 98.35 21.25L98.27 21.17L98.34 21.24Q100.51 21.96 103.55 22.19L103.66 22.30L103.51 22.15Q104.04 25.99 104.04 29.76L103.97 29.69L103.93 29.65Q103.96 35.05 103.16 40.42L103.12 40.38L103.08 40.34Q104.82 40.29 105.36 40.29L105.30 40.23L105.44 40.38Q105.37 40.61 105.31 41.27L105.41 41.37L105.28 41.24Q105.29 41.98 105.29 42.32L105.27 42.29L105.24 42.27Q106.50 42.27 108.02 42.34L107.92 42.24L108.01 42.33Q108.91 42.36 110.74 42.51L110.64 42.41L110.78 42.56Q109.51 37.59 109.39 32.41L109.31 32.33L109.28 32.30Q109.27 27.11 109.80 22.20L109.81 22.20L109.80 22.19Q113.78 21.68 116.94 20.47L116.79 20.32L116.90 20.43Q117.46 17.91 118.49 15.85L118.68 16.04L118.68 16.03Q117.19 16.56 116.39 16.87L116.42 16.90L116.50 16.98Q116.97 15.73 117.54 14.59Z"/><path fill="#a059e7" d="M52.08 18.45L52.08 18.44L52.07 18.43Q51.37 18.84 51.22 19.64L51.20 19.63L51.15 24.71L51.14 24.70Q52.42 24.84 54.63 24.57L54.47 24.42L54.60 24.55Q54.62 25.02 54.58 25.86L54.51 25.79L54.48 25.75Q54.42 26.50 54.42 26.95L54.51 27.04L52.90 27.10L52.84 27.05Q52.09 27.18 51.22 27.18L51.13 27.09L51.16 27.12Q51.16 31.30 51.08 39.68L51.15 39.75L51.10 39.70Q48.86 39.75 47.38 40.43L47.49 40.54L47.38 40.43Q48.48 34.30 48.37 27.07L48.32 27.02L48.35 27.05Q47.81 27.12 46.52 26.85L46.45 26.79L46.48 26.82Q46.55 25.90 46.36 23.96L46.22 23.82L46.23 23.82Q47.33 24.31 48.28 24.50L48.27 24.49L48.30 24.53Q48.29 23.90 47.98 21.43L48.01 21.45L48.07 21.51Q47.74 19.36 47.74 18.41L47.83 18.50L47.81 18.48Q47.74 16.73 49.15 16.16L49.17 16.18L49.14 16.16Q50.09 15.92 54.92 15.08L54.84 15.00L54.78 14.94Q55.64 14.85 56.48 14.73L56.37 14.63L56.43 14.69Q56.30 15.55 56.15 16.42L56.11 16.39L55.75 17.89L55.78 17.92Q55.10 17.73 54.60 17.85L54.73 17.98L54.71 17.96Q53.94 17.79 52.04 18.40ZM57.61 19.68L57.48 19.54L57.56 19.62Q57.78 17.29 58.39 14.74L58.41 14.76L58.41 14.77Q57.86 15.17 56.57 15.77L56.60 15.81L56.95 14.06L57.02 14.13Q55.79 14.32 53.32 14.85L53.20 14.73L53.32 14.85Q52.04 14.83 48.84 15.74L48.88 15.78L48.94 15.84Q47.31 16.19 47.31 18.06L47.33 18.07L47.23 17.98Q47.23 18.28 47.30 18.62L47.46 18.77L47.33 18.65Q47.71 20.13 47.82 21.46L47.69 21.32L48.03 24.15L48.00 24.11Q46.55 23.65 45.90 23.20L45.85 23.14L45.87 23.16Q46.12 24.25 46.16 25.28L46.12 25.23L46.19 27.18L46.10 27.09Q46.90 27.35 47.70 27.43L47.77 27.50L47.66 29.48L48.04 29.48L48.01 29.45Q47.95 35.63 46.96 41.08L46.97 41.09L46.98 41.10Q47.92 40.55 49.10 40.29L49.24 40.43L48.90 42.33L48.93 42.36Q50.30 42.21 51.59 42.17L51.51 42.09L51.42 42.00Q52.83 42.15 54.08 42.41L53.94 42.27L54.05 42.38Q53.07 37.25 53.07 29.29L53.11 29.33L53.07 29.30Q54.19 29.31 56.28 29.38L56.30 29.41L56.35 27.59L56.36 27.59Q56.32 26.61 56.36 25.66L56.34 25.64L56.34 25.64Q55.88 25.75 54.82 26.02L54.82 26.02L54.75 25.95Q54.83 25.35 54.95 24.02L55.00 24.07L55.01 24.07Q54.05 24.19 53.25 24.26L53.22 24.23L53.38 24.39Q53.32 22.93 53.44 21.52L53.51 21.59L53.41 21.48Q53.56 20.84 54.10 20.50L54.01 20.42L54.20 20.61Q54.97 19.73 55.79 19.66L55.92 19.79L55.94 19.81Q56.71 19.69 57.55 19.62Z"/><path fill="#c8e07f" d="M15.80 38.94L15.79 38.93L15.82 38.96Q17.71 36.58 22.47 29.31L22.39 29.24L22.37 29.22Q26.59 23.20 29.44 19.92L29.39 19.86L29.41 19.89Q27.28 20.15 25.18 20.15L25.24 20.21L25.23 20.20Q19.91 20.13 15.91 18.34L15.98 18.42L15.94 18.37Q15.20 16.38 14.52 14.82L14.53 14.83L14.47 14.77Q19.03 16.93 24.70 17.04L24.68 17.03L24.73 17.08Q29.94 17.22 35.12 15.32L35.11 15.31L35.09 15.28Q34.71 16.13 34.40 16.92L34.50 17.02L33.89 18.58L33.89 18.58Q30.78 22.17 26.78 27.99L26.80 28.01L23.39 32.75L23.44 32.80Q21.79 35.26 19.97 37.55L19.88 37.47L19.91 37.49Q23.17 36.83 26.48 36.91L26.55 36.97L26.56 36.98Q29.98 37.17 33.14 38.08L33.03 37.98L33.67 39.72L33.65 39.70Q33.86 40.48 34.21 41.32L34.24 41.35L34.15 41.26Q29.51 39.71 24.37 39.90L24.34 39.87L24.23 39.76Q19.20 40.06 14.71 42.08L14.66 42.03L14.71 42.08Q15.01 40.93 15.73 38.87ZM14.03 42.69L14.14 42.81L14.04 42.70Q15.34 42.18 16.14 41.91L16.14 41.91L16.09 41.86Q15.95 42.74 15.26 44.27L15.18 44.18L15.19 44.19Q20.87 42.03 26.84 42.26L26.82 42.23L26.82 42.23Q33.16 42.48 38.19 45.26L38.27 45.35L38.18 45.25Q36.72 42.80 35.92 40.63L35.97 40.68L35.98 40.69Q35.58 40.57 34.06 39.99L34.00 39.93L33.92 39.86Q33.88 39.24 33.46 37.76L33.30 37.59L33.40 37.70Q29.22 36.48 24.12 36.67L24.21 36.77L24.15 36.71Q26.29 33.97 29.83 28.41L29.73 28.32L29.72 28.31Q33.47 22.69 35.37 20.14L35.45 20.22L35.39 20.16Q35.86 18.72 36.88 16.02L36.95 16.08L36.83 15.97Q36.11 16.27 34.66 16.88L34.74 16.96L34.68 16.90Q35.19 16.27 35.92 14.74L35.90 14.73L35.84 14.67Q30.40 16.69 24.69 16.61L24.74 16.67L24.83 16.75Q18.75 16.54 13.80 14.02L13.77 13.99L13.88 14.10Q14.91 16.35 15.64 18.60L15.75 18.71L15.65 18.61Q16.91 19.31 17.71 19.54L17.52 19.34L17.71 19.53Q17.91 20.15 18.18 21.60L18.22 21.64L18.09 21.51Q21.90 22.65 26.77 22.46L26.71 22.41L26.81 22.50Q24.30 25.59 20.99 30.58L21.03 30.62L15.43 38.87L15.51 38.96Q15.21 40.30 14.19 42.85Z"/><path fill="#48e970" d="M132.30 23.46L132.31 23.47L132.15 23.31Q129.13 23.49 127.30 22.42L127.32 22.43L127.13 22.25Q129.67 20.90 134.54 16.68L134.66 16.80L134.64 16.78Q135.34 16.56 136.63 15.95L136.54 15.86L136.60 15.92Q135.21 21.80 135.09 28.16L135.19 28.25L135.27 28.34Q135.03 34.56 136.09 40.65L136.18 40.74L136.12 40.68Q134.37 39.88 132.24 39.77L132.30 39.83L132.28 39.81Q132.14 35.64 132.14 31.56L132.11 31.53L132.15 31.57Q132.16 27.47 132.20 23.35ZM131.85 25.63L131.88 40.25L131.88 40.24Q133.04 40.19 133.99 40.38L134.01 40.39L134.07 40.46Q134.18 41.18 134.37 42.55L134.39 42.57L134.31 42.49Q137.10 42.95 139.53 45.20L139.61 45.27L139.62 45.28Q137.10 38.12 137.07 30.66L137.12 30.72L137.01 30.61Q137.05 23.26 138.88 16.03L138.87 16.02L138.88 16.02Q138.30 16.40 136.70 17.50L136.79 17.59L136.71 17.52Q136.90 16.75 137.21 15.23L137.28 15.30L137.27 15.30Q135.87 15.99 134.43 16.37L134.45 16.39L134.45 16.39Q130.72 20.01 126.42 22.29L126.36 22.24L126.40 22.28Q127.77 23.34 130.13 23.69L130.17 23.73L130.18 23.74Q129.54 24.28 128.25 25.35L128.08 25.18L128.16 25.26Q129.61 25.60 131.82 25.60L131.83 25.61Z"/></svg>