<svg xmlns="http://www.w3.org/2000/svg" width="150" height="50" viewBox="0,0,150,50"><rect width="100%" height="100%" fill="white"/><path fill="#db3d64" d="M129.50 14.13L129.47 14.10L129.51 14.14Q130.36 16.06 132.04 16.40L132.10 16.46L132.11 16.47Q132.53 16.47 133.21 16.28L133.32 16.39L133.32 16.39Q133.03 22.23 132.95 28.09L133.04 28.18L133.03 28.16Q132.99 33.95 133.22 39.89L133.22 39.89L133.13 39.81Q132.99 39.89 132.69 39.89L132.58 39.78L132.66 39.87Q130.99 39.75 129.69 41.58L129.77 41.66L129.70 41.59Q130.34 34.62 130.30 27.76L130.37 27.83L130.34 27.80Q130.41 21.05 129.57 14.20ZM129.32 42.77L129.25 42.70L129.34 42.79Q130.44 40.99 131.50 40.54L131.54 40.57L131.52 40.56Q131.30 41.44 131.30 42.43L131.45 42.57L131.43 42.55Q132.07 42.10 132.87 42.21L132.98 42.32L132.89 42.23Q134.99 42.61 136.21 45.32L136.07 45.18L136.17 45.28Q135.06 37.81 135.06 30.35L134.92 30.21L135.04 30.33Q134.96 22.52 135.80 15.21L135.82 15.23L135.84 15.25Q134.89 17.20 133.75 17.81L133.70 17.75L133.69 17.75Q133.60 16.63 133.68 15.57L133.73 15.62L133.67 15.56Q132.91 16.10 132.15 15.95L132.21 16.00L132.16 15.96Q130.05 15.63 129.06 12.78L129.00 12.72L129.07 12.79Q130.06 20.25 130.14 27.79L130.17 27.82L130.08 27.73Q130.22 35.25 129.34 42.79Z"/><path d="M21 25 C82 36,88 6,148 13" stroke="#91e7d2" fill="none"/><path fill="#80eeb7" d="M63.49 28.91L63.48 28.90L63.42 28.83Q60.89 28.86 59.86 30.04L59.88 30.06L60.01 30.18Q58.85 31.23 58.85 33.86L58.91 33.92L58.88 33.89Q58.97 39.08 63.57 38.89L63.43 38.75L63.49 38.81Q65.67 39.08 67.02 37.52L66.98 37.48L66.89 37.39Q68.28 35.87 68.05 33.81L68.04 33.80L68.00 33.76Q68.00 31.20 67.12 30.18L67.23 30.29L67.26 30.32Q65.70 28.91 63.49 28.91ZM68.54 38.72L68.58 38.76L68.60 38.78Q67.40 41.23 62.72 41.23L62.67 41.18L61.16 41.12L61.23 41.19Q58.88 41.20 57.77 40.05L57.77 40.05L57.73 40.01Q56.70 38.98 56.44 36.59L56.44 36.59L56.49 36.64Q56.33 35.14 56.25 33.35L56.32 33.42L56.15 33.26Q56.10 32.25 55.94 30.31L56.07 30.43L56.04 30.40Q55.96 26.14 61.14 26.14L61.12 26.12L62.69 26.13L62.62 26.05Q65.54 26.08 67.63 27.38L67.71 27.46L67.70 27.44Q68.50 27.94 69.00 28.63L69.02 28.65L68.86 28.49Q69.26 27.82 69.79 26.18L69.69 26.08L69.75 26.14Q70.89 25.87 73.21 25.26L73.38 25.44L73.36 25.41Q70.61 29.48 70.61 34.73L70.71 34.83L70.77 34.90Q70.69 38.54 72.06 41.62L72.08 41.65L71.98 41.55Q70.95 41.35 69.04 41.12L69.10 41.18L68.99 41.06Q68.91 40.34 68.60 38.78ZM71.81 43.89L71.88 43.96L74.08 44.52L74.00 44.44Q75.34 44.87 76.33 45.33L76.18 45.18L76.29 45.28Q72.63 40.94 72.63 34.85L72.56 34.78L72.60 34.82Q72.51 30.20 74.64 26.39L74.64 26.39L74.64 26.39Q74.06 26.69 72.73 27.07L72.81 27.15L72.76 27.10Q73.08 26.32 73.96 24.79L74.03 24.87L73.89 24.73Q73.30 24.90 69.31 25.74L69.43 25.86L68.81 27.64L68.78 27.61Q67.00 25.87 62.59 25.64L62.59 25.65L62.68 25.73Q61.58 25.78 59.33 25.93L59.19 25.79L59.20 25.80Q55.68 26.31 55.79 30.35L55.62 30.17L55.62 30.17Q55.76 33.51 56.33 37.97L56.35 37.98L56.44 38.49L56.44 38.50Q56.57 39.34 57.37 40.45L57.26 40.34L57.41 40.49Q57.56 40.64 57.75 40.76L57.70 40.71L57.72 40.73Q58.00 41.23 58.38 41.80L58.36 41.79L58.37 41.79Q59.83 43.37 63.22 43.56L63.08 43.42L63.03 43.37Q64.69 43.50 64.84 43.50L64.88 43.55L66.57 43.67L66.53 43.63Q69.58 43.49 70.80 41.93L70.88 42.00L70.94 42.06Q71.30 42.70 71.91 43.99ZM65.39 31.27L65.32 31.19L65.30 31.17Q66.56 31.10 67.40 31.56L67.38 31.54L67.42 31.58Q67.85 32.50 67.85 33.95L67.67 33.78L67.81 33.91Q67.97 35.79 66.69 37.21L66.62 37.14L66.71 37.23Q65.47 38.69 63.57 38.50L63.57 38.51L63.46 38.40Q61.98 38.36 60.95 37.94L60.98 37.97L61.02 38.01Q60.84 37.18 60.84 35.96L60.87 35.99L60.87 36.00Q60.89 32.37 63.52 31.41L63.55 31.44L63.59 31.48Q64.47 31.14 65.27 31.14Z"/><path d="M12 40 C71 10,62 17,136 19" stroke="#9ee754" fill="none"/><path fill="#e35353" d="M39.52 27.83L39.45 27.76L39.46 27.77Q35.81 27.55 34.71 30.90L34.75 30.94L34.87 31.06Q34.52 32.16 34.41 33.23L34.37 33.19L34.36 33.18Q34.15 35.21 35.14 36.54L35.07 36.48L35.13 36.53Q36.44 37.69 38.91 37.73L38.83 37.64L38.89 37.70Q40.76 37.79 42.17 36.65L42.05 36.53L42.23 36.70Q43.46 35.38 43.46 33.59L43.52 33.66L43.61 33.75Q43.49 33.28 43.41 32.90L43.37 32.86L43.40 32.89Q43.18 27.76 39.37 27.68ZM39.24 40.11L39.36 40.23L39.39 40.26Q35.52 40.43 33.73 38.41L33.66 38.34L33.64 38.32Q33.54 39.48 33.08 40.85L33.06 40.82L33.13 40.89Q31.08 41.55 29.83 42.12L29.87 42.17L29.86 42.15Q32.08 36.23 32.08 29.72L32.07 29.71L31.95 29.59Q32.01 21.35 28.59 13.51L28.64 13.56L28.67 13.60Q30.98 14.92 32.32 15.37L32.26 15.31L32.15 15.21Q34.33 21.92 34.48 27.74L34.47 27.73L34.42 27.68Q36.03 25.17 39.76 25.21L39.73 25.19L39.70 25.15Q42.84 25.10 44.33 26.96L44.47 27.11L44.41 27.05Q46.24 29.33 46.39 32.91L46.33 32.85L46.42 32.94Q46.51 34.14 46.43 35.73L46.30 35.60L46.43 35.73Q46.39 37.17 45.51 38.31L45.44 38.25L45.43 38.23Q43.71 39.97 39.37 40.24ZM44.75 42.65L44.72 42.62L44.76 42.66Q46.35 42.77 47.83 42.08L47.83 42.08L47.74 41.99Q48.94 40.79 48.98 38.85L48.90 38.77L48.85 38.72Q49.02 38.39 48.86 37.21L48.75 37.10L48.79 37.14Q48.68 36.42 48.56 35.50L48.67 35.61L48.66 35.60Q47.69 30.67 46.13 28.62L46.18 28.67L46.11 28.59Q46.27 28.72 45.47 27.85L45.35 27.72L45.36 27.73Q45.19 27.52 44.66 26.72L44.70 26.77L44.73 26.80Q43.02 24.75 39.67 24.78L39.68 24.79L39.72 24.84Q37.71 24.91 36.45 25.52L36.39 25.46L36.33 25.40Q36.07 20.95 35.46 17.75L35.46 17.75L35.49 17.79Q34.79 17.66 33.31 17.28L33.28 17.25L33.20 17.17Q33.05 16.41 32.60 14.97L32.67 15.04L32.68 15.05Q30.10 14.11 27.86 12.55L27.88 12.57L27.98 12.67Q31.68 20.79 31.68 29.58L31.68 29.59L31.74 29.64Q31.71 36.58 29.23 42.78L29.31 42.86L29.29 42.84Q29.92 42.44 31.25 41.87L31.17 41.79L31.19 41.81Q30.95 42.56 30.34 44.08L30.50 44.24L30.40 44.14Q32.29 43.14 35.07 42.60L35.25 42.79L35.63 40.96L35.57 40.90Q37.93 42.65 44.86 42.76ZM41.12 30.11L41.09 30.08L41.09 30.08Q42.03 29.99 42.56 30.37L42.58 30.40L42.50 30.31Q42.84 30.84 43.07 32.86L43.09 32.88L43.22 33.02Q43.29 34.76 42.03 36.07L42.05 36.09L42.03 36.07Q40.79 37.40 38.85 37.28L38.86 37.30L38.90 37.33Q37.92 37.43 36.44 36.93L36.43 36.93L36.56 37.05Q36.25 36.47 36.25 35.94L36.21 35.91L36.19 35.89Q36.20 32.80 37.76 31.21L37.73 31.18L37.85 31.34L37.85 31.34Q39.37 30.04 41.12 30.12Z"/><path fill="#9074e6" d="M78.39 23.37L78.35 23.33L78.47 23.44Q75.32 23.49 73.49 22.43L73.49 22.43L73.34 22.27Q75.91 20.96 80.78 16.74L80.85 16.81L80.87 16.83Q81.44 16.48 82.73 15.87L82.87 16.00L82.77 15.91Q81.50 21.91 81.39 28.27L81.34 28.22L81.31 28.19Q81.24 34.59 82.31 40.68L82.21 40.59L82.33 40.70Q80.60 39.93 78.47 39.82L78.53 39.87L78.56 39.91Q78.34 35.65 78.34 31.58L78.37 31.60L78.37 31.61Q78.43 27.55 78.47 23.44ZM78.06 25.66L78.08 40.27L78.04 40.22Q79.29 40.25 80.24 40.44L80.18 40.38L80.29 40.50Q80.23 41.04 80.42 42.41L80.49 42.49L80.49 42.48Q83.43 43.10 85.86 45.34L85.72 45.21L85.77 45.25Q83.26 38.10 83.22 30.64L83.26 30.68L83.35 30.76Q83.25 23.27 85.07 16.04L85.04 16.01L85.07 16.04Q84.44 16.36 82.84 17.46L82.86 17.48L82.97 17.60Q83.04 16.71 83.34 15.19L83.36 15.20L83.33 15.17Q82.11 16.05 80.67 16.43L80.57 16.34L80.69 16.46Q76.82 19.93 72.52 22.22L72.56 22.26L72.50 22.20Q73.97 23.36 76.33 23.71L76.39 23.76L76.39 23.76Q75.67 24.23 74.38 25.29L74.30 25.21L74.30 25.22Q75.76 25.57 77.97 25.57L78.09 25.69Z"/><path fill="#8cd1e8" d="M114.87 34.69L114.91 34.73L114.85 34.67Q114.93 38.33 111.77 39.62L111.82 39.67L111.64 39.49Q109.87 40.43 105.46 40.58L105.33 40.45L105.50 40.62Q100.68 40.71 98.43 39.53L98.30 39.40L98.44 39.54Q96.56 38.20 96.72 34.85L96.77 34.90L96.63 34.76Q96.67 34.16 96.86 32.18L96.92 32.23L96.94 32.25Q97.12 30.72 97.12 29.73L97.01 29.62L97.03 29.64Q96.98 21.59 92.79 14.17L92.84 14.22L92.78 14.16Q94.03 14.92 97.00 15.98L96.86 15.84L96.99 15.97Q99.75 22.58 99.75 29.97L99.84 30.06L99.83 30.04Q99.93 30.76 99.84 31.94L99.71 31.80L99.80 31.89Q99.59 32.97 99.59 33.57L99.73 33.71L99.56 33.54Q99.67 35.93 101.23 36.92L101.15 36.84L101.15 36.84Q102.82 37.68 105.79 37.68L105.85 37.74L105.88 37.77Q108.50 37.76 110.14 36.58L110.15 36.60L110.18 36.62Q111.95 35.19 111.79 32.68L111.73 32.61L111.81 32.69Q111.64 31.23 111.64 29.90L111.70 29.96L111.64 29.90Q111.64 22.85 114.04 16.34L114.15 16.45L116.17 15.74L116.27 15.84Q117.16 15.47 118.27 15.01L118.29 15.04L118.29 15.04Q114.56 22.16 114.56 29.74L114.56 29.74L114.54 29.71Q114.70 30.71 114.83 32.34L114.85 32.36L114.85 32.37Q114.88 33.90 114.88 34.70ZM117.09 35.65L117.00 35.56L117.02 35.58Q116.19 30.68 116.91 25.57L116.89 25.56L116.78 25.44Q117.58 20.30 119.97 15.92L119.95 15.90L120.03 15.98Q119.48 16.34 118.03 16.99L117.86 16.82L117.86 16.82Q118.23 15.97 119.03 14.41L119.02 14.40L119.04 14.42Q115.57 15.63 113.66 15.97L113.78 16.08L113.79 16.09Q111.30 22.48 111.30 29.75L111.37 29.82L111.30 29.74Q111.43 31.24 111.50 32.65L111.52 32.67L111.42 32.57Q111.55 34.95 109.76 36.17L109.73 36.14L109.78 36.19Q108.29 37.25 105.78 37.29L105.89 37.39L105.83 37.34Q102.98 37.30 101.53 36.54L101.61 36.62L101.68 36.68Q101.62 36.21 101.54 35.75L101.47 35.68L101.43 35.64Q101.37 35.12 101.48 34.63L101.48 34.62L101.62 34.76Q101.73 32.32 101.73 30.00L101.79 30.07L101.81 30.08Q101.83 24.28 100.31 18.37L100.20 18.27L100.23 18.30Q99.61 18.28 98.20 17.94L98.07 17.82L98.15 17.89Q97.73 16.56 97.27 15.64L97.17 15.54L97.30 15.67Q94.47 14.78 92.07 13.41L92.12 13.46L92.15 13.50Q96.67 20.98 96.67 29.70L96.71 29.74L96.75 29.78Q96.82 31.48 96.66 33.19L96.61 33.14L96.53 33.06Q96.31 35.47 96.39 36.65L96.35 36.61L96.42 36.68Q96.58 38.63 97.84 39.77L97.75 39.68L97.87 39.81Q98.90 42.33 103.55 42.71L103.45 42.61L103.55 42.71Q105.46 42.68 107.59 42.76L107.74 42.90L107.70 42.86Q113.11 43.09 115.89 42.14L115.88 42.13L115.80 42.05Q117.37 41.15 117.37 39.09L117.49 39.21L117.52 39.24Q117.47 38.05 117.02 35.58Z"/><path fill="#8be26e" d="M25.26 18.53L25.20 18.47L25.12 18.40Q24.54 18.92 24.39 19.72L24.24 19.57L24.24 24.71L24.38 24.85Q25.45 24.78 27.66 24.51L27.65 24.50L27.58 24.43Q27.52 24.83 27.49 25.67L27.58 25.77L27.51 25.70Q27.66 26.65 27.66 27.10L27.62 27.06L25.89 27.01L25.90 27.02Q25.23 27.23 24.36 27.23L24.23 27.10L24.24 27.11Q24.36 31.42 24.29 39.79L24.20 39.71L24.19 39.70Q21.96 39.75 20.47 40.43L20.56 40.52L20.46 40.42Q21.53 34.26 21.42 27.03L21.54 27.15L21.50 27.11Q20.91 27.13 19.62 26.86L19.50 26.75L19.56 26.81Q19.50 25.75 19.31 23.81L19.28 23.78L19.39 23.89Q20.55 24.45 21.51 24.64L21.36 24.50L21.38 24.52Q21.35 23.87 21.04 21.40L21.06 21.41L21.11 21.47Q20.79 19.31 20.79 18.36L20.83 18.41L20.77 18.35Q20.83 16.73 22.23 16.16L22.28 16.21L22.34 16.26Q23.09 15.84 27.93 15.00L27.96 15.03L27.92 14.99Q28.67 14.79 29.51 14.68L29.61 14.78L29.54 14.70Q29.35 15.50 29.19 16.38L29.09 16.28L28.91 17.96L28.93 17.98Q28.16 17.70 27.66 17.82L27.81 17.97L27.63 17.79Q27.11 17.88 25.21 18.49ZM30.54 19.51L30.56 19.54L30.70 19.67Q30.88 17.30 31.48 14.75L31.52 14.78L31.61 14.87Q30.96 15.18 29.67 15.78L29.75 15.87L29.99 14.02L30.08 14.10Q28.76 14.20 26.29 14.73L26.45 14.89L26.27 14.71Q25.26 14.95 22.06 15.87L21.90 15.71L21.99 15.79Q20.43 16.22 20.43 18.08L20.47 18.12L20.42 18.07Q20.50 18.46 20.58 18.81L20.40 18.62L20.40 18.63Q20.71 20.04 20.82 21.37L20.84 21.38L20.94 23.96L20.94 23.96Q19.73 23.74 19.08 23.28L18.97 23.17L19.06 23.26Q19.11 24.15 19.15 25.17L19.07 25.10L19.30 27.19L19.33 27.22Q20.10 27.46 20.90 27.53L20.84 27.48L20.71 29.44L21.21 29.56L21.17 29.52Q20.99 35.58 20.00 41.03L20.11 41.13L20.00 41.03Q21.05 40.59 22.23 40.32L22.28 40.38L22.00 42.34L22.15 42.50Q23.31 42.13 24.60 42.09L24.58 42.07L24.61 42.10Q25.91 42.14 27.16 42.40L27.00 42.24L27.04 42.28Q26.26 37.35 26.26 29.39L26.30 29.43L26.15 29.29Q27.43 29.47 29.53 29.54L29.43 29.45L29.44 27.59L29.54 27.69Q29.39 26.59 29.43 25.64L29.55 25.75L29.38 25.59Q29.02 25.79 27.95 26.06L28.01 26.12L27.96 26.07Q27.98 25.41 28.09 24.07L28.07 24.04L28.01 23.99Q27.23 24.27 26.43 24.35L26.35 24.27L26.46 24.38Q26.49 23.00 26.60 21.59L26.50 21.49L26.46 21.45Q26.70 20.89 27.23 20.55L27.12 20.44L27.24 20.56Q28.07 19.75 28.89 19.67L28.93 19.71L28.88 19.66Q29.74 19.63 30.58 19.55Z"/><path fill="#aae372" d="M88.68 36.96L88.73 37.00L88.63 36.91Q89.73 37.77 91.13 37.62L91.20 37.69L91.18 37.66Q94.21 37.95 94.86 34.60L94.79 34.54L94.76 34.51Q95.48 31.46 95.48 28.07L95.40 27.99L95.37 25.37L95.43 25.42Q95.38 24.12 95.03 22.86L95.13 22.96L95.03 22.86Q93.80 25.17 91.82 29.93L91.76 29.86L91.93 30.04Q89.79 34.64 88.57 36.84ZM93.74 20.50L93.68 20.45L93.72 20.48Q92.62 19.73 91.29 19.73L91.20 19.64L91.12 19.56Q89.79 19.56 88.69 20.48L88.70 20.49L88.54 20.33Q87.51 21.31 87.32 22.80L87.23 22.71L87.29 22.78Q86.87 24.07 86.83 25.55L87.00 25.72L86.90 25.61Q86.88 25.59 86.88 28.45L86.95 28.52L86.86 28.43Q86.90 30.83 87.35 34.45L87.41 34.50L87.35 34.45Q89.37 29.80 93.75 20.51ZM95.28 39.29L95.25 39.26L95.30 39.30Q93.48 40.15 91.15 40.15L91.19 40.19L89.44 40.07L89.61 40.24Q86.31 40.18 85.16 38.46L85.04 38.34L85.21 38.51Q84.43 36.35 84.35 33.42L84.28 33.35L84.20 33.27Q84.21 31.57 84.13 28.11L84.18 28.15L84.07 28.05Q84.06 26.85 83.91 23.81L83.90 23.79L83.99 23.89Q83.86 21.55 84.16 19.57L84.13 19.54L84.14 19.55Q84.70 16.68 89.04 16.45L88.97 16.38L89.12 16.53Q89.79 16.40 91.12 16.44L91.14 16.46L91.09 16.40Q96.79 16.58 97.85 20.05L97.84 20.04L97.85 20.04Q98.48 21.97 98.45 23.84L98.35 23.75L98.51 23.91Q98.36 28.82 98.29 30.04L98.29 30.04L98.19 29.94Q98.04 33.79 97.74 35.08L97.83 35.18L97.69 35.04Q97.07 38.18 95.16 39.17ZM100.25 39.09L100.09 38.92L100.14 38.97Q100.35 36.17 100.31 34.38L100.38 34.45L100.39 29.93L100.27 29.81Q100.16 26.77 99.63 21.25L99.75 21.37L99.73 21.35Q99.24 19.57 97.94 18.81L97.95 18.81L97.85 18.72Q96.20 16.08 91.03 15.92L91.05 15.95L91.07 15.97Q90.32 16.06 88.99 16.09L88.98 16.08L88.92 16.03Q84.32 16.03 83.83 19.16L83.84 19.17L83.88 19.21Q83.52 21.55 83.63 23.64L83.57 23.59L83.69 23.70Q84.05 28.10 84.01 31.45L83.97 31.41L83.98 31.41Q83.83 35.00 83.94 36.02L83.96 36.04L83.98 36.06Q84.34 39.12 85.86 39.92L85.87 39.93L85.87 39.93Q87.39 42.17 91.39 42.44L91.35 42.41L91.32 42.38Q95.03 42.74 95.68 42.70L95.56 42.58L95.56 42.57Q98.49 42.50 99.63 40.90L99.61 40.88L99.68 40.95Q100.13 40.22 100.21 39.04ZM91.58 37.31L91.57 37.29L91.55 37.27Q92.32 35.91 93.39 33.21L93.34 33.16L95.03 28.91L95.08 28.97Q94.94 30.50 94.56 33.85L94.63 33.91L94.63 33.92Q93.99 36.81 91.59 37.31ZM89.58 24.99L89.61 25.01L89.67 25.08Q90.10 23.26 90.79 22.69L90.69 22.59L90.70 22.60Q91.14 22.16 92.43 21.97L92.46 22.00L92.48 22.02Q90.70 25.61 88.84 30.26L88.95 30.37L88.99 30.41Q88.85 27.57 89.54 24.94Z"/><path d="M15 13 C60 13,60 16,141 23" stroke="#dc65be" fill="none"/><path fill="#7ae457" d="M3.81 15.77L3.83 15.80L3.85 15.81Q5.86 20.79 6.43 25.97L6.41 25.95L6.47 26.01Q10.02 21.72 15.92 16.88L15.94 16.90L16.05 17.01Q19.10 16.56 21.73 15.76L21.80 15.83L15.23 21.44L15.19 21.41Q11.79 24.36 8.94 27.22L8.96 27.25L9.02 27.30Q16.92 36.38 21.98 41.10L21.95 41.07L22.04 41.16Q18.98 40.27 16.65 40.11L16.49 39.95L16.60 40.06Q10.86 34.70 6.56 28.88L6.54 28.86L6.55 28.87Q6.58 35.41 4.72 40.74L4.72 40.75L4.71 40.73Q4.47 40.76 3.98 40.95L4.08 41.05L4.05 41.22L4.05 41.22Q3.81 41.21 1.26 42.12L1.27 42.13L1.24 42.10Q4.17 35.51 3.83 28.05L3.84 28.06L3.86 28.09Q3.60 20.82 0.06 14.31L-0.00 14.25L0.55 14.54L0.97 14.84L1.07 14.90L0.93 14.76Q1.75 15.24 3.96 15.93ZM4.13 15.52L4.25 15.65L4.24 15.63Q1.83 14.94-0.80 13.42L-0.78 13.43L-0.72 13.49Q3.51 20.73 3.51 29.67L3.52 29.69L3.54 29.71Q3.46 36.63 0.49 42.68L0.50 42.69L2.58 41.88L2.63 41.93Q2.20 42.91 1.52 44.20L1.54 44.22L1.54 44.23Q3.74 43.38 5.69 42.97L5.81 43.09L5.85 42.90L5.88 42.93Q5.98 42.73 6.55 42.58L6.65 42.67L6.58 42.60Q8.19 36.64 8.30 31.84L8.31 31.84L8.42 31.95Q10.56 34.52 12.39 36.38L12.32 36.31L12.24 36.23Q13.51 37.42 16.51 40.39L16.44 40.32L16.49 40.37L16.52 40.40Q17.60 41.29 19.46 42.89L19.43 42.85L19.34 42.77Q23.23 43.50 26.70 45.21L26.65 45.16L26.81 45.32Q17.50 36.74 11.26 29.31L11.24 29.29L11.26 29.31Q15.58 24.96 24.34 16.35L24.42 16.44L24.31 16.33Q21.81 17.51 19.79 17.90L19.82 17.93L19.87 17.98Q20.95 16.85 23.27 14.83L23.28 14.83L23.43 14.99Q19.20 16.28 15.85 16.47L15.85 16.47L15.86 16.48Q12.94 18.70 8.07 23.39L8.18 23.49L8.14 23.45Q7.69 20.79 7.12 18.24L7.20 18.33L7.21 18.33Q6.01 18.16 5.02 17.82L4.96 17.76L5.06 17.86Q4.74 17.01 4.17 15.56Z"/><path fill="#e538b9" d="M121.37 39.88L121.30 39.81L119.36 39.81L119.40 39.85Q118.48 39.88 117.53 39.99L117.48 39.95L117.49 39.96Q118.07 33.76 118.07 29.76L118.10 29.79L118.10 29.80Q114.15 23.15 106.50 14.47L106.47 14.43L106.53 14.49Q108.18 15.35 111.53 16.15L111.55 16.17L111.63 16.24Q116.58 21.73 119.59 26.94L119.65 27.00L119.72 27.08Q122.61 21.40 126.99 16.38L127.04 16.43L127.08 16.47Q129.53 16.09 132.04 15.29L131.93 15.19L132.04 15.30Q125.84 21.24 120.96 29.65L121.11 29.79L121.11 29.80Q121.10 36.83 121.40 39.91ZM130.53 17.36L133.23 14.51L133.16 14.44Q130.02 15.56 126.90 16.02L126.90 16.02L126.94 16.06Q122.72 20.79 119.91 25.89L119.98 25.96L119.91 25.89Q117.76 22.22 114.56 18.34L114.62 18.40L114.64 18.42Q114.39 18.43 113.90 18.36L113.77 18.23L113.78 18.24Q113.11 17.46 111.59 15.79L111.50 15.69L111.56 15.75Q108.16 14.98 105.19 13.42L105.26 13.49L105.29 13.52Q112.92 21.91 117.68 29.83L117.68 29.84L117.74 29.90Q117.69 36.28 117.08 40.43L117.05 40.39L117.01 40.35Q117.68 40.26 119.13 40.15L119.14 40.16L119.13 41.18L119.25 41.30Q119.21 41.71 119.13 42.25L119.11 42.22L119.12 42.23Q122.65 42.23 124.40 42.42L124.48 42.49L124.45 42.47Q123.14 37.73 123.02 31.75L122.98 31.70L122.98 31.71Q127.47 23.36 134.01 16.01L134.06 16.06L130.38 17.21Z"/><path fill="#baed86" d="M61.63 23.14L61.58 23.09L61.49 23.00Q59.67 25.71 57.00 31.34L56.97 31.31L55.17 35.75L54.99 35.57Q54.13 37.49 52.80 39.74L52.85 39.79L52.88 39.83Q53.35 39.84 51.68 39.88L51.72 39.92L51.71 39.90Q51.73 39.93 50.47 39.93L50.31 39.77L50.39 39.85Q49.68 38.38 46.75 31.22L46.66 31.13L46.64 31.11Q44.58 25.85 42.48 22.84L42.39 22.75L42.56 22.92Q43.18 25.86 43.18 29.02L43.22 29.06L43.33 29.17Q43.25 35.60 40.28 41.15L40.31 41.18L40.18 41.05Q39.00 41.56 36.64 42.28L36.65 42.29L36.52 42.16Q40.33 36.60 40.33 29.37L40.20 29.24L40.20 29.23Q40.35 20.44 34.94 13.47L34.87 13.40L34.83 13.36Q36.45 14.06 38.81 14.75L38.80 14.74L38.83 14.77Q45.98 21.62 52.08 34.94L52.04 34.91L52.05 34.91Q55.53 27.90 57.74 24.39L57.60 24.25L57.73 24.39Q61.25 18.54 65.21 15.07L65.20 15.06L65.18 15.04Q66.47 14.85 68.83 14.09L68.80 14.05L68.88 14.13Q63.80 20.67 63.80 29.28L63.80 29.27L63.84 29.31Q63.92 36.05 67.34 41.57L67.31 41.53L67.38 41.61Q65.99 41.24 63.25 40.63L63.30 40.69L63.28 40.67Q60.96 35.91 60.96 29.93L60.95 29.92L60.85 29.82Q60.86 26.41 61.55 23.06ZM63.03 40.99L63.10 41.05L62.99 40.95Q63.70 41.09 65.15 41.35L65.10 41.30L65.17 41.38Q65.55 42.06 66.50 43.55L66.51 43.55L66.59 43.63Q68.75 44.08 72.21 45.30L72.08 45.17L72.21 45.30Q65.87 38.88 65.87 29.06L65.89 29.08L65.97 29.16Q65.79 21.25 70.17 15.12L70.36 15.31L68.00 15.84L68.02 15.86Q69.13 14.42 69.77 13.55L69.65 13.43L69.82 13.60Q67.84 14.12 65.21 14.65L65.24 14.69L65.32 14.76Q58.49 20.80 52.44 33.40L52.48 33.44L52.38 33.35Q47.29 22.47 42.34 17.21L42.37 17.24L42.27 17.14Q41.96 17.14 41.39 17.03L41.28 16.92L40.20 15.76L40.17 15.73Q39.49 14.98 38.81 14.37L38.86 14.42L38.82 14.38Q35.74 13.35 33.95 12.63L34.11 12.79L34.11 12.79Q39.90 19.80 39.90 29.20L40.07 29.37L40.04 29.34Q39.99 36.91 35.84 42.77L35.77 42.70L35.83 42.76Q36.63 42.65 37.92 42.23L37.81 42.11L37.77 42.07Q37.70 42.39 36.30 44.48L36.28 44.46L36.24 44.42Q38.16 44.06 41.66 43.30L41.55 43.19L41.53 43.17Q45.36 36.22 45.17 28.45L45.07 28.36L45.17 28.46Q46.70 32.47 50.17 40.35L50.09 40.27L50.17 40.35Q50.42 40.30 50.65 40.30L50.49 40.14L51.14 40.25L51.17 40.29Q51.60 40.94 52.40 42.24L52.32 42.16L52.35 42.18Q54.01 42.21 54.01 42.21L53.92 42.12L53.92 42.12Q55.09 42.26 55.73 42.33L55.56 42.16L55.74 42.34Q57.20 38.21 60.55 30.21L60.60 30.25L60.61 30.27Q60.48 35.70 63.07 41.03Z"/></svg>