<svg xmlns="http://www.w3.org/2000/svg" width="150" height="50" viewBox="0,0,150,50"><rect width="100%" height="100%" fill="white"/><path fill="#cae57a" d="M119.08 30.41L119.09 30.42L119.01 30.35Q115.57 36.73 112.15 40.69L112.15 40.69L112.08 40.62Q110.39 41.21 107.95 42.09L107.81 41.95L107.97 42.11Q112.71 36.34 117.47 27.93L117.51 27.97L117.49 27.94Q112.88 20.97 106.90 14.58L107.05 14.72L107.03 14.71Q109.92 15.88 112.20 16.38L112.10 16.28L112.18 16.36Q116.73 21.48 119.17 25.44L119.34 25.61L119.23 25.50Q121.75 21.09 125.67 16.68L125.67 16.67L125.63 16.63Q127.29 16.39 130.48 15.63L130.50 15.64L130.56 15.70Q124.32 21.99 120.86 27.93L121.00 28.07L121.00 28.06Q126.20 36.77 130.58 41.34L130.59 41.36L130.48 41.24Q127.82 40.37 125.73 40.14L125.87 40.29L125.75 40.17Q123.06 37.28 119.14 30.47ZM125.72 40.55L125.67 40.50L125.76 40.59Q126.06 40.63 126.52 40.74L126.42 40.64L126.57 40.80Q127.25 41.44 128.78 43.04L128.90 43.16L128.74 43.01Q132.17 43.89 135.22 45.26L135.23 45.27L135.12 45.16Q128.12 38.69 123.02 29.93L122.92 29.84L122.92 29.84Q126.70 23.22 132.60 16.37L132.56 16.34L132.58 16.35Q131.25 17.11 129.08 17.65L129.04 17.61L128.93 17.50Q129.86 16.64 131.62 14.85L131.64 14.88L131.63 14.86Q129.16 15.67 125.47 16.24L125.54 16.32L125.47 16.24Q122.20 20.21 119.62 24.51L119.54 24.44L119.45 24.35Q118.54 22.75 117.36 21.27L117.48 21.39L115.20 18.46L114.75 18.39L114.79 18.44Q114.63 18.42 114.40 18.34L114.35 18.30L114.31 18.26Q113.69 17.48 112.20 15.92L112.14 15.86L112.19 15.91Q108.39 15.04 105.80 13.67L105.91 13.78L105.74 13.61Q112.49 20.89 117.06 27.94L117.17 28.05L117.22 28.10Q112.73 36.28 106.98 42.87L106.81 42.69L106.87 42.76Q108.31 42.22 110.44 41.65L110.31 41.52L109.11 43.05L109.10 43.04Q109.00 42.94 107.67 44.28L107.76 44.37L107.79 44.40Q110.64 43.18 113.80 42.68L113.89 42.78L113.86 42.75Q117.95 38.30 120.54 33.54L120.44 33.44L120.56 33.57Q122.99 37.67 125.69 40.52Z"/><path d="M18 28 C72 36,69 43,143 17" stroke="#c1e457" fill="none"/><path fill="#99db56" d="M64.42 41.03L64.35 40.96L64.35 40.95Q60.15 29.68 55.01 24.70L55.17 24.85L55.11 24.79Q56.54 25.39 59.51 26.04L59.43 25.95L59.45 25.97Q63.03 29.93 65.58 36.59L65.60 36.61L65.58 36.59Q68.24 29.24 70.87 26.19L70.93 26.26L70.97 26.30Q72.90 26.13 75.33 25.45L75.29 25.40L75.18 25.29Q72.14 28.16 69.97 32.72L70.01 32.76L69.88 32.63Q69.65 33.43 66.26 41.04L66.27 41.06L66.20 40.98Q65.54 41.01 64.33 40.93ZM69.06 43.47L69.11 43.51L68.94 43.34Q72.38 31.13 76.95 26.45L76.89 26.39L75.37 26.86L75.52 27.00Q74.62 27.13 73.78 27.24L73.75 27.22L73.74 27.20Q74.29 26.88 75.11 26.00L75.14 26.04L75.19 26.08Q75.90 25.10 76.35 24.68L76.47 24.79L76.31 24.63Q74.23 25.41 70.81 25.91L70.81 25.91L70.78 25.88Q68.03 29.03 65.97 34.63L65.98 34.64L65.91 34.57Q64.38 30.48 62.55 28.01L62.56 28.01L62.00 27.99L62.05 28.04Q61.75 28.00 61.52 28.00L61.44 27.93L61.48 27.96Q61.16 27.53 59.45 25.48L59.56 25.59L59.46 25.48Q56.27 25.16 54.03 24.01L54.02 24.01L53.89 23.87Q60.03 29.60 64.03 41.32L64.03 41.32L64.97 41.27L65.08 41.39Q65.51 42.12 66.35 43.41L66.38 43.45L67.67 43.37L67.75 43.45Q68.38 43.36 69.03 43.43Z"/><path d="M10 10 C79 31,61 42,129 2" stroke="#6ae589" fill="none"/><path fill="#e6e664" d="M78.39 23.36L78.48 23.46L78.42 23.40Q75.25 23.42 73.42 22.36L73.32 22.26L73.30 22.24Q75.95 21.00 80.82 16.78L80.72 16.67L80.86 16.82Q81.42 16.46 82.72 15.85L82.84 15.98L82.87 16.01Q81.41 21.82 81.30 28.18L81.35 28.23L81.43 28.31Q81.19 34.55 82.26 40.64L82.40 40.78L82.40 40.78Q80.70 40.03 78.57 39.92L78.49 39.83L78.53 39.88Q78.39 35.70 78.39 31.63L78.38 31.62L78.40 31.64Q78.47 27.60 78.51 23.49ZM78.00 25.60L77.95 40.13L78.13 40.32Q79.33 40.29 80.28 40.49L80.29 40.49L80.14 40.34Q80.31 41.12 80.50 42.49L80.44 42.44L80.56 42.55Q83.41 43.08 85.85 45.33L85.82 45.31L85.82 45.30Q83.20 38.03 83.16 30.57L83.17 30.58L83.17 30.58Q83.25 23.28 85.08 16.05L85.03 15.99L84.99 15.96Q84.56 16.48 82.97 17.59L82.93 17.55L82.87 17.49Q83.04 16.71 83.34 15.19L83.37 15.21L83.35 15.19Q82.13 16.07 80.69 16.45L80.56 16.33L80.66 16.42Q76.78 19.89 72.48 22.17L72.47 22.17L72.55 22.24Q73.90 23.29 76.26 23.64L76.22 23.60L76.26 23.63Q75.74 24.29 74.44 25.36L74.37 25.28L74.45 25.37Q75.81 25.62 78.01 25.62L78.01 25.62Z"/><path d="M12 15 C79 14,84 35,138 38" stroke="#e773ad" fill="none"/><path fill="#6586eb" d="M130.90 27.62L130.84 27.56L130.83 27.55Q128.67 27.63 127.39 29.14L127.33 29.07L127.51 29.25Q126.17 30.69 126.06 32.98L126.11 33.03L125.98 32.90Q126.01 35.71 126.84 36.66L126.78 36.59L126.79 36.60Q127.95 37.92 130.27 37.76L130.27 37.76L130.23 37.72Q134.88 37.42 135.26 34.42L135.18 34.33L135.11 34.26Q135.30 33.54 135.30 32.74L135.37 32.81L135.27 32.71Q135.30 30.77 134.16 29.24L134.12 29.20L134.19 29.27Q132.87 27.60 130.93 27.64ZM135.69 37.66L135.83 37.80L135.78 37.75Q134.24 39.82 129.86 40.05L129.85 40.05L130.00 40.19Q125.78 40.32 124.15 39.21L124.16 39.23L124.00 39.06Q123.04 38.15 122.89 36.44L123.05 36.59L122.96 36.50Q123.00 35.48 123.19 33.61L123.20 33.62L123.24 33.66Q123.70 29.33 124.92 27.50L124.79 27.37L124.89 27.47Q126.59 25.05 130.43 25.09L130.42 25.09L130.43 25.09Q132.76 24.94 135.04 27.27L135.04 27.26L135.17 27.39Q135.25 21.54 136.85 15.03L136.80 14.98L136.90 15.08Q138.66 14.52 140.53 13.68L140.69 13.84L140.64 13.79Q138.04 20.41 137.77 27.41L137.72 27.35L137.64 27.27Q137.36 34.46 139.49 41.04L139.65 41.20L139.59 41.14Q137.86 40.44 136.14 40.05L136.29 40.20L136.33 40.25Q135.88 38.80 135.73 37.70ZM138.84 43.25L138.83 43.23L138.87 43.28Q140.96 43.85 143.52 45.37L143.42 45.28L143.42 45.27Q139.75 38.26 139.60 29.96L139.53 29.89L139.52 29.87Q139.39 21.68 142.47 14.29L142.61 14.43L142.44 14.25Q141.78 14.74 140.33 15.39L140.36 15.41L140.48 15.54Q140.74 14.31 141.34 13.09L141.42 13.16L141.35 13.09Q138.95 14.16 136.52 14.73L136.48 14.70L136.55 14.77Q135.15 20.60 134.88 26.69L134.77 26.58L134.89 26.70Q132.86 24.75 130.35 24.63L130.41 24.69L130.38 24.66Q126.88 24.47 124.98 26.57L124.99 26.58L125.03 26.62Q123.31 28.97 122.89 33.65L122.94 33.70L122.92 33.69Q122.64 36.41 122.64 36.83L122.61 36.80L122.61 36.80Q122.66 38.52 123.80 39.59L123.77 39.56L123.92 39.70Q124.13 39.92 124.33 40.00L124.32 39.99L124.62 40.48L124.70 40.56Q125.76 42.00 128.73 42.27L128.74 42.29L128.66 42.21Q130.94 42.42 132.31 42.50L132.16 42.35L132.33 42.53Q136.52 42.71 138.23 41.38L138.13 41.28L138.14 41.29Q138.38 42.11 138.84 43.25ZM132.44 29.84L132.53 29.93L132.45 29.86Q133.61 29.99 134.45 30.48L134.46 30.50L134.38 30.42Q134.81 31.64 134.88 32.67L134.87 32.65L135.03 32.81Q135.32 37.02 130.29 37.37L130.14 37.21L130.24 37.31Q129.35 37.33 128.24 37.06L128.34 37.16L128.34 37.16Q128.06 36.50 127.99 35.97L127.95 35.94L128.01 35.99Q127.89 35.26 127.92 34.65L127.91 34.64L127.94 34.67Q128.18 31.17 130.80 30.18L130.95 30.33L130.82 30.20Q131.86 29.91 132.54 29.95Z"/><path fill="#e688b7" d="M19.16 30.25L19.21 30.29L19.19 30.27Q19.34 29.94 19.31 29.52L19.34 29.56L19.38 29.60Q19.26 29.17 18.95 28.98L18.94 28.96L18.93 28.96Q18.14 28.31 17.26 28.46L17.38 28.59L17.28 28.49Q16.19 28.45 14.55 29.56L14.59 29.60L14.63 29.64Q13.15 30.49 13.15 31.67L13.15 31.66L13.23 31.74Q13.24 33.01 13.24 36.32L13.22 36.30L13.14 36.22Q13.26 38.93 13.41 40.95L13.25 40.78L13.38 40.91Q11.57 40.81 11.57 40.81L11.70 40.95L11.54 40.79Q10.54 40.74 9.82 40.82L9.86 40.86L9.96 40.96Q10.25 38.32 10.33 36.08L10.41 36.15L10.49 36.24Q10.60 31.55 9.95 30.26L9.99 30.29L9.98 30.29Q9.62 29.62 9.05 29.31L9.02 29.29L8.99 29.25Q8.16 28.53 6.59 28.42L6.71 28.54L6.60 28.43Q4.67 28.29 4.14 29.89L4.13 29.87L4.13 29.88Q3.91 30.30 4.02 30.80L3.99 30.77L4.07 30.84Q4.71 33.58 4.37 36.36L4.45 36.44L4.31 36.30Q4.00 39.11 2.59 41.55L2.78 41.73L2.72 41.68Q1.65 41.79-0.44 42.21L-0.39 42.26L-0.45 42.20Q1.98 38.88 1.98 34.57L2.12 34.71L2.09 34.69Q1.98 28.71-2.06 24.49L-1.91 24.63L-2.00 24.55Q-1.25 24.84-0.30 25.07L-0.19 25.17L1.51 25.54L1.42 25.45Q1.98 26.17 2.86 27.84L2.75 27.73L2.74 27.72Q3.03 25.96 5.47 25.92L5.37 25.82L5.42 25.87Q5.60 25.86 6.59 25.94L6.65 26.00L6.47 25.82Q11.56 26.23 12.71 29.05L12.74 29.08L12.69 29.04Q14.39 26.36 19.42 25.82L19.37 25.78L19.39 25.80Q20.13 25.66 21.01 25.78L21.16 25.93L21.16 25.93Q23.25 26.00 23.09 27.56L23.21 27.67L23.14 27.60Q23.13 28.32 22.87 29.08L22.82 29.03L22.80 29.01Q21.40 32.04 21.63 35.58L21.64 35.58L21.67 35.62Q21.79 39.01 23.69 41.83L23.69 41.83L23.76 41.89Q22.06 41.52 20.23 41.30L20.25 41.31L20.14 41.20Q18.93 38.66 18.74 35.88L18.68 35.83L18.81 35.95Q18.68 33.16 19.33 30.42ZM19.98 41.65L20.02 41.69L20.03 41.71Q20.70 41.72 22.03 41.91L22.07 41.96L22.10 41.99Q22.59 42.67 23.74 44.07L23.66 44.00L23.62 43.96Q26.56 44.54 28.65 45.18L28.68 45.21L28.71 45.24Q23.73 41.37 23.47 34.86L23.41 34.80L23.42 34.82Q23.35 32.73 23.96 30.82L24.06 30.92L24.04 30.90Q24.14 29.90 24.14 29.18L24.20 29.24L24.21 29.24Q24.26 28.38 23.65 27.81L23.57 27.73L23.48 27.60L23.61 27.73Q23.60 27.15 23.52 26.66L23.55 26.69L23.56 26.69Q23.51 26.22 23.05 25.95L22.90 25.81L22.88 25.78Q22.32 25.41 21.44 25.37L21.36 25.30L21.34 25.27Q18.64 25.32 15.98 26.27L16.03 26.32L15.94 26.23Q13.99 26.94 12.81 28.35L12.73 28.27L12.77 28.31Q11.28 25.91 6.44 25.56L6.38 25.50L6.47 25.59Q5.76 25.53 5.34 25.53L5.17 25.36L5.34 25.53Q3.17 25.41 2.56 26.67L2.64 26.75L2.56 26.67Q2.31 26.23 1.62 25.16L1.60 25.14L1.67 25.21Q-0.83 24.65-2.81 24.01L-2.79 24.02L-2.89 23.92Q1.86 28.41 1.86 34.69L1.79 34.62L1.83 34.66Q1.87 39.42-0.98 42.88L-1.11 42.76L-1.02 42.85Q-0.59 42.66-0.10 42.59L-0.17 42.51L0.93 42.48L0.87 42.41Q0.22 43.51-0.89 44.73L-0.89 44.73L-1.01 44.61Q0.69 44.37 3.82 43.76L3.78 43.72L3.73 43.67Q6.52 39.69 6.52 34.78L6.52 34.78L6.39 34.65Q6.42 33.88 6.34 33.04L6.40 33.09L6.37 33.06Q6.43 32.44 7.42 31.64L7.40 31.63L7.40 31.66L7.42 31.68Q7.93 31.12 9.11 31.01L9.00 30.90L8.98 30.88Q9.61 31.09 9.92 31.09L9.95 31.12L9.97 31.34L9.82 31.19Q10.24 34.05 10.13 36.41L10.10 36.38L10.08 36.36Q9.87 38.55 9.38 41.21L9.50 41.33L9.37 41.20Q10.39 41.20 10.39 41.20L10.51 41.32L10.55 41.36Q11.83 41.19 11.49 41.19L11.51 41.21L11.47 41.18Q11.58 41.78 11.54 42.24L11.51 42.20L11.56 42.25Q11.57 42.76 11.57 43.25L11.42 43.10L13.96 43.17L13.97 43.18Q15.20 43.16 16.46 43.23L16.58 43.36L16.57 43.34Q14.90 39.51 15.09 33.57L15.18 33.66L15.18 33.66Q15.15 32.49 16.33 31.72L16.48 31.87L16.43 31.83Q17.31 30.99 18.57 30.80L18.64 30.88L18.92 30.84L18.90 30.83Q18.48 32.76 18.48 34.74L18.53 34.80L18.47 34.73Q18.45 38.48 19.97 41.64ZM14.57 30.23L14.68 30.11L14.57 30.34L14.52 30.17Z"/><path fill="#da6cda" d="M83.10 38.97L83.13 39.00L83.01 38.87Q84.99 36.59 89.75 29.32L89.79 29.36L89.78 29.36Q93.72 23.05 96.58 19.78L96.52 19.73L96.57 19.78Q94.61 20.21 92.52 20.21L92.52 20.21L92.37 20.07Q87.17 20.12 83.17 18.33L83.19 18.35L83.10 18.26Q82.41 16.31 81.73 14.75L81.71 14.74L81.75 14.78Q86.39 17.02 92.06 17.13L92.09 17.16L92.14 17.21Q97.14 17.14 102.31 15.24L102.39 15.31L102.33 15.25Q102.05 16.19 101.75 16.99L101.71 16.96L101.17 18.59L101.15 18.57Q97.97 22.09 93.97 27.91L94.13 28.07L90.69 32.78L90.82 32.90Q88.95 35.14 87.12 37.43L87.29 37.59L87.13 37.44Q90.56 36.95 93.88 37.03L93.86 37.01L93.82 36.97Q97.12 37.03 100.28 37.95L100.34 38.01L100.76 39.54L100.88 39.65Q101.12 40.47 101.47 41.31L101.32 41.16L101.48 41.32Q96.76 39.68 91.62 39.87L91.68 39.93L91.62 39.88Q86.45 40.03 81.95 42.05L81.96 42.06L82.06 42.16Q82.42 41.07 83.14 39.01ZM81.32 42.71L81.44 42.83L81.47 42.86Q82.65 42.22 83.45 41.95L83.37 41.86L83.39 41.89Q83.17 42.70 82.49 44.22L82.51 44.24L82.37 44.10Q88.18 42.07 94.16 42.30L94.08 42.22L94.22 42.36Q100.53 42.58 105.56 45.36L105.51 45.32L105.43 45.23Q103.99 42.80 103.19 40.63L103.36 40.80L103.35 40.79Q102.71 40.42 101.19 39.85L101.20 39.86L101.22 39.88Q101.04 39.13 100.62 37.64L100.74 37.76L100.57 37.60Q96.43 36.42 91.33 36.61L91.46 36.74L91.38 36.67Q93.59 34.00 97.13 28.44L96.98 28.29L97.08 28.39Q100.63 22.58 102.53 20.03L102.68 20.17L102.66 20.15Q103.08 18.67 104.11 15.97L104.18 16.04L104.23 16.09Q103.40 16.28 101.95 16.89L102.08 17.02L102.04 16.98Q102.36 16.16 103.08 14.64L103.05 14.60L103.07 14.63Q97.80 16.81 92.08 16.74L92.03 16.68L91.99 16.64Q86.00 16.51 81.05 14.00L81.21 14.16L81.07 14.02Q82.21 16.38 82.93 18.62L83.02 18.72L82.95 18.64Q84.05 19.17 84.85 19.40L84.91 19.46L84.85 19.40Q85.13 20.09 85.39 21.54L85.34 21.49L85.51 21.66Q89.19 22.67 94.06 22.48L94.07 22.49L94.01 22.43Q91.62 25.64 88.31 30.63L88.23 30.54L82.72 38.89L82.79 38.97Q82.52 40.33 81.49 42.88Z"/><path fill="#36e2b7" d="M103.74 40.01L103.71 39.97L103.63 39.90Q99.53 39.41 97.70 37.96L97.54 37.81L97.69 37.96Q95.76 36.40 95.34 33.39L95.38 33.44L95.47 33.52Q95.29 33.00 94.94 28.24L94.97 28.27L95.02 28.32Q95.13 27.20 95.05 25.95L94.94 25.84L95.11 26.01Q94.74 20.76 96.95 19.01L96.94 19.01L97.13 19.20Q99.79 17.09 107.55 16.41L107.54 16.40L107.47 16.33Q108.71 16.08 110.35 16.12L110.35 16.12L110.36 16.13Q110.48 16.25 113.45 16.25L113.35 16.15L113.48 16.28Q114.21 16.18 115.93 16.33L115.89 16.29L115.93 16.33Q115.54 17.39 114.51 20.47L114.48 20.44L114.48 20.44Q112.37 19.21 109.36 19.21L109.35 19.19L109.36 19.21Q108.53 19.13 107.73 19.21L107.70 19.18L107.81 19.29Q102.66 19.70 100.15 21.68L100.23 21.76L100.24 21.77Q98.19 23.34 98.04 26.69L98.02 26.67L97.98 26.63Q97.89 27.19 97.93 28.45L97.92 28.43L98.04 28.56Q98.05 33.29 100.45 35.39L100.44 35.38L100.56 35.49Q102.64 37.34 107.62 37.64L107.58 37.60L107.71 37.73Q110.75 37.80 113.76 36.01L113.74 35.99L113.82 36.08Q114.43 38.81 115.04 40.18L115.09 40.24L115.09 40.24Q112.87 40.38 111.23 40.34L111.33 40.44L111.34 40.45Q106.75 40.27 103.63 39.89ZM118.86 43.75L118.78 43.66L118.84 43.72Q116.95 40.62 116.27 38.03L116.33 38.09L116.22 37.98Q115.93 38.38 114.94 38.76L114.88 38.70L114.87 38.69Q114.64 38.00 114.45 37.16L114.30 37.01L113.95 35.33L114.00 35.38Q110.69 37.40 107.57 37.28L107.49 37.21L107.62 37.34Q103.27 37.06 100.94 35.30L100.92 35.28L101.02 35.38Q99.93 33.61 100.01 30.68L99.99 30.66L99.90 30.57Q100.02 26.05 102.50 23.91L102.64 24.06L102.62 24.04Q104.65 22.03 109.33 21.42L109.30 21.39L109.40 21.49Q110.07 21.25 110.80 21.25L110.92 21.38L110.81 21.27Q113.58 21.26 115.68 22.78L115.77 22.88L115.82 22.92Q116.21 20.69 117.43 17.45L117.45 17.47L117.52 17.54Q117.14 17.43 116.59 17.37L116.58 17.37L116.72 17.51Q116.11 17.39 115.85 17.39L115.85 17.40L115.76 17.31Q116.01 16.83 116.47 15.84L116.50 15.87L116.45 15.83Q116.20 15.80 113.70 15.73L113.76 15.78L113.74 15.76Q111.25 15.69 110.60 15.73L110.62 15.74L110.62 15.75Q100.07 16.05 96.61 18.63L96.62 18.65L96.59 18.61Q94.69 20.56 94.69 24.48L94.67 24.46L94.67 24.46Q94.68 25.58 94.80 28.28L94.76 28.24L94.75 28.24Q94.87 31.78 95.10 33.50L95.19 33.58L95.02 33.42Q95.57 36.71 97.17 38.23L97.08 38.14L97.07 38.13Q97.58 38.83 98.84 39.98L98.82 39.96L98.91 40.05Q102.00 41.65 107.25 42.41L107.34 42.50L107.26 42.42Q113.75 43.43 118.74 43.62Z"/><path fill="#6ce9aa" d="M24.93 41.46L24.93 41.47L24.76 41.29Q21.93 41.51 20.68 40.98L20.76 41.07L20.76 41.06Q18.69 40.13 18.76 37.66L18.82 37.71L18.86 37.75Q18.93 34.28 18.93 34.85L18.91 34.84L19.03 34.96Q19.05 29.65 16.20 24.82L16.05 24.67L16.10 24.72Q18.08 25.67 20.06 26.05L20.09 26.08L20.03 26.02Q21.72 30.61 21.61 35.10L21.77 35.26L21.69 35.18Q21.52 36.65 22.36 37.87L22.27 37.78L22.45 37.96Q23.21 39.14 24.73 38.95L24.81 39.03L25.13 38.85L25.21 38.93Q26.55 38.86 27.37 38.10L27.37 38.10L27.36 38.09Q28.12 37.27 28.12 36.32L28.13 36.32L28.16 36.35Q28.19 36.16 28.15 35.97L28.14 35.96L28.01 35.83Q28.04 30.68 29.19 26.34L29.21 26.37L29.23 26.38Q30.27 26.33 31.26 26.10L31.29 26.12L33.30 25.62L33.13 25.45Q30.60 30.50 30.90 36.06L30.99 36.14L31.03 36.18Q31.25 39.29 29.54 40.44L29.52 40.42L29.38 40.28Q28.19 41.26 24.88 41.41ZM27.12 43.73L27.19 43.80L27.11 43.72Q30.53 43.83 32.36 43.07L32.48 43.19L32.53 43.24Q33.43 42.47 33.43 41.06L33.31 40.94L33.35 40.97Q33.34 40.05 33.07 38.49L33.05 38.47L33.13 38.55Q32.65 35.40 33.03 32.40L33.05 32.42L33.07 32.44Q33.45 29.27 34.85 26.53L34.79 26.47L34.82 26.49Q34.24 26.87 32.91 27.28L32.90 27.28L32.85 27.23Q33.05 26.59 33.35 26.02L33.29 25.96L33.84 24.79L33.96 24.92Q31.90 25.44 28.74 25.94L28.75 25.94L28.85 26.04Q27.59 30.80 27.74 35.90L27.76 35.92L27.85 36.01Q27.88 38.06 25.22 38.56L25.10 38.44L24.75 38.54L24.66 38.61L23.80 38.55L23.77 38.52Q23.62 37.57 23.66 37.08L23.64 37.05L23.67 37.08Q23.89 32.59 23.21 28.17L23.21 28.17L22.19 28.07L22.17 28.04Q21.55 27.92 21.02 27.81L21.08 27.87L21.00 27.79Q20.77 26.53 20.50 25.77L20.48 25.75L20.34 25.61Q17.55 25.18 15.30 23.88L15.43 24.01L15.36 23.94Q17.53 27.47 18.25 30.86L18.21 30.82L18.23 30.85Q18.70 33.03 18.55 36.53L18.51 36.49L18.55 36.53Q18.60 36.70 18.53 37.80L18.51 37.78L18.46 37.74Q18.38 40.17 19.75 41.12L19.72 41.09L19.74 41.11Q20.15 43.39 27.16 43.77Z"/><path fill="#c772e3" d="M36.22 25.15L36.11 25.04L36.09 25.02Q36.95 25.35 38.93 25.35L39.00 25.42L38.89 32.48L39.04 32.62Q39.04 36.84 39.15 39.74L39.14 39.73L39.12 39.71Q38.73 39.54 38.35 39.54L38.42 39.61L38.47 39.67Q36.89 39.53 35.44 40.87L35.59 41.01L35.43 40.85Q36.37 33.38 36.18 25.12ZM36.15 19.76L34.96 17.05L35.12 17.21Q36.54 16.04 37.26 15.08L37.30 15.13L37.36 15.18Q38.35 16.97 39.76 18.65L39.81 18.69L39.67 18.56Q38.89 20.10 37.52 22.23L37.65 22.36L37.55 22.27Q36.68 21.05 36.11 19.72L36.09 19.70ZM34.97 41.80L35.03 41.86L34.91 41.74Q36.01 40.75 37.27 40.25L37.15 40.14L37.28 40.26Q37.21 40.88 37.10 42.25L37.05 42.21L37.06 42.22Q37.84 42.08 38.49 42.08L38.46 42.06L38.40 41.99Q40.58 41.97 41.99 43.95L42.12 44.07L41.98 43.94Q40.75 36.61 40.82 26.45L40.97 26.60L40.87 26.50Q40.12 26.70 39.28 26.81L39.38 26.91L39.20 24.87L39.38 25.05Q38.18 24.98 37.38 24.91L37.45 24.98L37.51 25.04Q36.70 24.99 35.83 24.50L35.73 24.41L35.74 24.41Q35.95 26.53 35.95 28.58L35.87 28.50L35.83 28.47Q35.84 35.52 34.97 41.80ZM37.49 22.81L37.67 23.00L37.73 22.67L37.86 22.50L37.87 22.51Q38.33 23.35 39.36 24.84L39.39 24.87L39.32 24.79Q40.54 22.32 41.87 18.78L41.90 18.81L41.91 18.81Q41.19 18.21 39.62 16.61L39.54 16.52L39.58 16.57Q39.28 16.57 39.02 17.03L39.18 17.20L39.14 17.15Q38.22 15.93 37.31 14.48L37.20 14.38L37.19 14.36Q35.92 16.18 34.74 16.52L34.57 16.35L34.68 16.47Q35.76 19.91 37.59 22.91Z"/><path fill="#a4ed8b" d="M60.33 41.62L60.30 41.59L60.36 41.65Q58.06 41.06 55.89 40.91L55.91 40.93L55.92 40.94Q54.62 39.64 51.95 35.79L51.90 35.74L51.84 35.68Q49.65 38.78 47.25 41.22L47.37 41.34L45.12 41.56L45.23 41.67Q44.20 41.90 43.21 42.17L43.06 42.01L43.21 42.17Q47.32 37.97 50.33 33.86L50.41 33.94L50.30 33.83Q47.09 29.71 41.68 24.91L41.56 24.79L41.74 24.97Q43.89 25.64 46.60 26.06L46.54 26.00L46.64 26.10Q49.98 29.10 51.88 31.80L51.94 31.86L51.88 31.80Q54.07 28.81 56.81 26.30L56.80 26.29L56.87 26.36Q59.79 25.89 61.62 25.39L61.75 25.53L61.70 25.47Q57.23 29.19 53.54 33.76L53.48 33.70L53.48 33.70Q56.86 38.38 60.32 41.61ZM63.06 24.63L63.11 24.68L63.16 24.73Q60.20 25.50 56.66 25.84L56.61 25.80L56.69 25.88Q53.72 28.46 52.01 30.94L52.07 31.00L52.14 31.07Q51.30 30.07 49.66 28.09L49.61 28.05L49.33 27.96L49.35 27.97Q49.16 27.90 49.04 27.90L49.20 28.05L49.14 27.99Q48.38 27.16 46.74 25.71L46.82 25.78L46.76 25.73Q43.09 25.10 40.24 23.89L40.21 23.86L40.19 23.84Q45.75 28.68 49.79 33.82L49.91 33.94L49.88 33.91Q46.41 38.43 41.99 42.74L41.99 42.73L42.04 42.78Q42.40 42.80 45.90 41.96L45.89 41.95L45.81 41.87Q44.33 43.25 42.69 44.58L42.61 44.50L42.62 44.50Q45.90 43.67 49.06 43.48L49.00 43.43L48.92 43.35Q51.46 41.23 53.36 38.49L53.36 38.50L53.21 38.34Q54.62 40.10 55.84 41.28L55.98 41.41L55.98 41.41Q55.97 41.30 56.05 41.37L56.04 41.36L56.39 41.52L56.32 41.45Q57.64 42.62 58.97 43.69L58.93 43.65L58.98 43.70Q62.57 44.24 65.46 45.26L65.41 45.22L65.36 45.17Q59.24 40.76 55.55 35.58L55.50 35.53L55.58 35.61Q59.21 30.56 63.77 26.48L63.81 26.52L63.70 26.42Q62.71 26.71 61.72 26.94L61.83 27.06L59.75 27.45L59.75 27.45Q60.93 26.54 63.10 24.67Z"/></svg>