<svg xmlns="http://www.w3.org/2000/svg" width="150" height="50" viewBox="0,0,150,50"><rect width="100%" height="100%" fill="white"/><path fill="#ec78b2" d="M96.95 40.87L97.12 41.04L97.00 40.91Q95.75 39.29 94.46 36.20L94.35 36.10L92.34 31.08L92.28 31.01Q90.72 35.06 90.12 36.35L90.04 36.27L90.18 36.42Q88.65 39.26 87.05 41.16L87.01 41.13L87.00 41.12Q86.68 41.17 85.92 41.29L85.84 41.21L85.85 41.22Q85.98 33.93 80.15 27.99L80.11 27.94L80.16 28.00Q78.28 26.04 76.26 24.56L76.25 24.54L76.30 24.59Q78.17 25.16 80.03 25.47L80.15 25.58L80.04 25.47Q86.01 30.35 87.46 36.59L87.60 36.73L87.48 36.61Q88.40 34.79 89.58 31.59L89.64 31.65L89.56 31.57Q90.94 27.85 91.51 26.55L91.58 26.63L92.96 26.59L92.95 26.59Q93.90 28.37 95.08 31.65L95.01 31.57L94.98 31.55Q96.22 35.11 96.87 36.52L97.05 36.70L96.89 36.54Q98.83 30.37 104.31 25.80L104.29 25.78L104.37 25.86Q105.43 25.63 108.17 25.05L108.28 25.16L108.26 25.14Q99.48 31.03 98.30 41.00L98.29 40.99L97.65 40.88L97.63 40.86Q97.38 40.92 97.04 40.96ZM100.06 43.44L102.09 43.61L102.06 43.57Q101.79 42.08 101.79 40.56L101.70 40.47L101.86 40.63Q101.74 37.28 103.15 34.04L103.09 33.99L103.18 34.07Q105.08 29.47 109.19 26.38L109.23 26.42L109.33 26.52Q107.98 26.65 106.11 27.00L106.24 27.13L106.19 27.07Q108.16 25.42 109.45 24.51L109.54 24.59L106.94 24.97L106.91 24.94Q105.68 25.15 104.35 25.31L104.37 25.33L104.32 25.28Q99.13 29.49 97.19 34.51L97.25 34.58L97.34 34.67Q96.63 32.44 95.26 28.18L95.33 28.24L95.21 28.12Q94.99 28.25 94.73 28.25L94.61 28.13L94.19 28.25L94.15 28.21Q94.01 27.88 93.21 26.13L93.25 26.16L91.09 26.06L91.08 26.04Q90.20 28.93 88.10 34.57L88.22 34.69L88.16 34.63Q86.85 30.96 83.77 27.68L83.80 27.72L83.72 27.63Q83.43 27.61 83.13 27.57L83.11 27.56L82.60 27.50L82.58 27.48Q81.70 26.65 79.92 25.05L79.93 25.07L80.04 25.17Q76.85 24.50 75.18 24.00L75.17 24.00L75.09 23.91Q85.76 31.31 85.37 41.62L85.38 41.63L85.44 41.69Q85.67 41.73 86.03 41.69L85.96 41.62L85.99 41.65Q86.44 41.69 86.63 41.69L86.49 41.55L86.64 41.70Q86.65 41.56 86.84 43.66L86.78 43.60L88.73 43.46L88.63 43.36Q91.24 40.56 93.49 34.81L93.60 34.93L93.50 34.83Q95.11 38.80 96.98 41.46L96.91 41.39L96.88 41.37Q97.10 41.24 97.37 41.26L97.45 41.35L97.39 41.28Q97.74 41.38 98.00 41.38L97.97 41.35L99.99 43.37Z"/><path fill="#39dede" d="M57.72 41.16L57.58 41.02L57.60 41.04Q60.80 36.82 67.50 28.90L67.46 28.86L67.56 28.96Q61.66 29.19 57.90 27.82L57.87 27.80L57.82 27.75Q57.14 26.31 56.38 24.90L56.36 24.88L56.49 25.01Q60.44 26.37 64.89 26.41L65.00 26.51L64.94 26.46Q69.45 26.54 73.63 25.48L73.67 25.51L73.68 25.52Q73.29 26.20 73.02 26.73L72.86 26.57L72.90 26.61Q70.38 28.85 67.56 32.47L67.61 32.51L62.75 38.77L62.77 38.79Q64.84 38.42 67.09 38.50L67.19 38.61L67.11 38.52Q69.39 38.67 71.64 39.05L71.51 38.93L71.55 38.96Q71.81 39.68 72.53 41.70L72.37 41.54L72.52 41.68Q68.77 40.83 64.78 40.95L64.76 40.93L64.68 40.85Q60.81 41.05 57.15 42.23L57.06 42.14L57.08 42.16Q57.15 42.00 57.60 41.05ZM56.51 42.77L56.55 42.81L56.58 42.84Q57.31 42.47 58.91 42.05L58.94 42.08L58.91 42.05Q58.72 42.32 58.30 42.74L58.19 42.62L58.21 42.64Q58.02 43.26 57.41 44.40L57.52 44.51L57.50 44.49Q62.06 42.99 67.05 43.15L67.19 43.29L67.04 43.14Q72.02 43.32 76.59 45.19L76.68 45.27L76.64 45.24Q75.29 43.47 74.38 41.41L74.27 41.30L74.35 41.39Q73.58 41.08 72.52 40.85L72.46 40.79L72.49 40.82Q72.27 40.06 71.89 38.62L71.91 38.64L71.82 38.55Q70.43 38.38 66.85 38.27L66.72 38.14L66.81 38.22Q69.20 34.90 74.22 28.54L74.08 28.40L74.17 28.49Q74.53 27.86 75.22 26.53L75.11 26.42L72.76 27.12L72.78 27.14Q72.84 27.05 73.00 26.94L73.14 27.08L73.26 26.82L73.29 26.85Q73.74 25.77 74.31 24.82L74.36 24.87L74.26 24.77Q69.59 26.12 64.87 26.04L64.94 26.11L64.93 26.10Q60.06 25.95 55.57 24.12L55.62 24.18L55.70 24.26Q56.83 26.07 57.63 28.13L57.67 28.17L57.69 28.18Q58.53 28.50 59.60 28.76L59.58 28.75L59.53 28.69Q59.81 29.48 60.12 30.92L60.11 30.92L60.01 30.81Q61.67 31.15 64.99 31.30L64.87 31.18L64.83 31.14Q62.58 34.61 57.41 41.04L57.44 41.08L57.27 40.91Q57.06 41.53 56.49 42.75Z"/><path fill="#c8e66f" d="M48.17 19.37L48.22 19.43L48.13 19.33Q49.08 23.67 49.23 27.24L49.07 27.09L49.23 27.25Q50.32 27.31 51.39 27.31L51.26 27.19L53.63 27.34L53.48 27.19Q54.49 27.14 55.37 25.73L55.51 25.87L55.51 25.88Q56.18 24.64 56.29 23.46L56.18 23.35L56.23 23.40Q56.70 20.48 52.47 19.98L52.40 19.91L52.45 19.95Q50.78 19.92 48.15 19.35ZM49.11 29.87L49.11 29.87L49.29 30.05Q49.05 36.09 47.91 40.50L47.98 40.58L48.07 40.67Q46.46 40.92 44.13 41.98L44.21 42.06L44.20 42.05Q46.59 35.42 46.33 28.15L46.28 28.10L46.38 28.20Q46.03 20.77 43.25 14.33L43.16 14.25L43.16 14.24Q47.38 17.09 53.62 17.09L53.54 17.01L53.61 17.08Q59.65 17.07 59.80 20.53L59.87 20.60L59.86 20.59Q59.86 22.95 58.87 25.61L58.90 25.65L58.90 25.65Q58.43 26.70 57.48 27.92L57.56 28.00L57.47 27.91Q56.20 29.57 53.65 29.84L53.63 29.82L53.59 29.78Q51.44 29.91 49.19 29.95ZM55.34 32.22L55.42 32.29L55.32 32.19Q59.57 32.52 60.82 27.72L60.77 27.67L60.71 27.60Q61.68 23.97 61.53 21.95L61.45 21.88L61.45 21.87Q61.43 20.45 60.67 19.46L60.73 19.52L60.62 19.41Q60.24 19.03 59.74 18.80L59.80 18.86L59.87 18.92Q59.71 18.62 59.11 17.86L59.19 17.94L59.11 17.86Q57.66 16.64 53.70 16.64L53.75 16.69L53.75 16.69Q46.80 16.63 42.58 13.47L42.62 13.52L42.48 13.37Q45.80 20.62 46.07 28.08L45.97 27.98L46.03 28.04Q46.24 35.64 43.58 42.72L43.71 42.86L43.66 42.81Q44.73 42.16 45.72 41.78L45.64 41.70L45.21 42.79L45.33 42.91Q45.21 43.55 44.94 44.13L44.92 44.11L44.80 43.99Q47.23 42.95 50.13 42.42L50.19 42.48L50.20 42.50Q51.09 37.02 51.16 32.30L51.16 32.30L51.11 32.24Q52.19 32.15 53.18 32.15L53.18 32.14L53.19 32.16Q54.44 32.07 55.24 32.11ZM54.31 22.20L54.41 22.30L54.36 22.25Q54.94 22.33 55.93 22.56L55.85 22.49L55.93 22.56Q56.06 22.81 56.10 23.11L55.96 22.97L56.09 23.11Q56.09 23.34 56.02 23.60L55.95 23.53L56.07 23.65Q55.84 24.75 55.11 25.63L55.11 25.63L55.21 25.73Q54.63 26.79 53.60 26.98L53.56 26.93L53.57 26.94Q52.71 26.80 51.07 26.80L51.04 26.78L51.12 26.85Q51.05 24.53 50.82 22.17L50.77 22.13L52.56 22.24L52.57 22.25Q53.57 22.41 54.44 22.33Z"/><path fill="#87cfe7" d="M71.03 41.02L71.03 41.01L71.08 41.07Q74.33 36.89 81.03 28.97L80.99 28.93L80.98 28.93Q75.05 29.12 71.28 27.75L71.34 27.81L71.27 27.75Q70.64 26.35 69.87 24.94L69.86 24.93L69.87 24.93Q73.98 26.45 78.43 26.49L78.41 26.47L78.51 26.57Q82.90 26.55 87.09 25.48L87.04 25.44L87.15 25.54Q86.61 26.07 86.34 26.60L86.45 26.71L86.47 26.73Q83.78 28.79 80.96 32.41L81.09 32.54L76.15 38.71L76.15 38.71Q78.42 38.55 80.67 38.63L80.69 38.65L80.67 38.63Q82.74 38.56 84.98 38.94L85.11 39.07L85.11 39.07Q85.20 39.62 85.93 41.64L85.97 41.68L85.92 41.63Q82.25 40.86 78.26 40.97L78.27 40.99L78.24 40.96Q74.17 40.96 70.51 42.14L70.53 42.15L70.57 42.20Q70.57 41.96 71.02 41.01ZM69.99 42.79L70.07 42.87L70.10 42.90Q70.85 42.55 72.45 42.14L72.39 42.07L72.39 42.07Q72.23 42.37 71.81 42.79L71.70 42.68L71.80 42.78Q71.41 43.19 70.80 44.33L70.88 44.41L70.90 44.43Q75.66 43.13 80.64 43.29L80.56 43.20L80.65 43.29Q85.52 43.36 90.09 45.23L90.06 45.20L90.06 45.21Q88.57 43.30 87.66 41.24L87.66 41.24L87.76 41.34Q87.06 41.09 85.99 40.87L85.87 40.75L85.84 40.71Q85.68 40.02 85.30 38.58L85.36 38.64L85.33 38.60Q83.74 38.24 80.16 38.12L80.15 38.11L80.27 38.23Q82.69 34.94 87.71 28.58L87.54 28.40L87.61 28.48Q87.87 27.75 88.55 26.41L88.62 26.48L86.30 27.20L86.33 27.24Q86.38 27.13 86.54 27.02L86.54 27.02L86.66 26.76L86.63 26.74Q87.11 25.69 87.68 24.74L87.77 24.82L87.82 24.88Q83.20 26.27 78.48 26.20L78.36 26.07L78.39 26.11Q73.63 26.07 69.14 24.24L69.16 24.26L69.09 24.19Q70.26 26.05 71.06 28.11L71.13 28.18L71.10 28.14Q71.95 28.46 73.02 28.73L72.94 28.65L72.95 28.66Q73.23 29.43 73.53 30.88L73.40 30.75L73.38 30.72Q74.98 31.00 78.29 31.15L78.42 31.27L78.34 31.19Q75.96 34.52 70.78 40.96L70.72 40.90L70.73 40.91Q70.68 41.70 70.11 42.92Z"/><path fill="#704dda" d="M35.38 26.83L35.29 26.74L35.38 26.83Q37.26 27.08 39.09 27.08L38.90 26.88L39.04 27.03Q40.85 27.04 42.67 26.89L42.60 26.82L42.64 26.86Q42.42 27.40 42.42 28.13L42.58 28.28L42.46 29.49L42.43 29.46Q40.18 29.57 35.42 29.69L35.46 29.73L35.30 29.57Q35.38 35.59 34.24 40.57L34.25 40.59L34.26 40.60Q31.97 41.20 30.49 42.00L30.61 42.12L30.52 42.03Q32.89 35.27 32.62 28.15L32.64 28.16L32.69 28.21Q32.34 20.98 29.68 14.31L29.69 14.33L29.68 14.32Q33.29 16.78 38.05 17.01L38.10 17.07L38.17 17.13Q42.85 17.32 47.00 15.57L46.88 15.45L47.01 15.58Q46.73 16.40 46.50 17.20L46.41 17.11L45.90 18.69L45.94 18.74Q43.18 19.78 40.21 19.93L40.24 19.96L40.28 20.00Q37.24 20.05 34.38 19.32L34.39 19.33L34.45 19.39Q35.27 22.92 35.46 26.91ZM47.49 14.73L47.46 14.70L47.61 14.85Q43.00 16.98 38.13 16.67L38.14 16.68L38.01 16.56Q32.66 16.23 28.93 13.38L28.94 13.39L29.02 13.46Q31.86 20.38 32.17 28.00L32.25 28.08L32.13 27.96Q32.59 36.03 30.08 42.81L30.02 42.75L29.99 42.72Q30.69 42.36 32.06 41.71L32.02 41.67L32.03 41.68Q31.87 42.47 31.30 44.00L31.31 44.00L31.23 43.92Q33.57 42.88 36.47 42.38L36.47 42.39L36.56 42.48Q37.11 37.54 37.30 31.83L37.31 31.85L37.25 31.78Q39.14 31.85 40.97 31.85L40.92 31.80L41.01 31.89Q42.81 31.90 44.64 32.09L44.53 31.99L44.62 32.07Q44.43 31.04 44.43 30.13L44.46 30.16L44.39 28.19L44.49 28.29Q43.59 28.27 42.75 28.27L42.82 28.33L42.87 28.38Q42.91 27.55 42.99 26.52L43.01 26.54L42.89 26.42Q41.48 26.57 40.07 26.57L40.10 26.60L40.14 26.64Q38.68 26.59 37.31 26.55L37.26 26.51L37.23 24.34L37.27 24.38Q37.21 23.25 37.09 22.19L37.06 22.15L37.16 22.25Q38.09 22.27 39.08 22.27L39.10 22.29L39.08 22.27Q43.83 22.27 47.45 20.36L47.55 20.46L47.47 20.38Q47.93 18.52 48.85 15.90L48.92 15.97L48.86 15.91Q47.55 16.73 46.75 17.08L46.80 17.12L46.73 17.05Q47.02 16.32 47.52 14.76Z"/><path fill="#9b54e2" d="M27.24 39.93L27.15 39.85L25.13 39.76L25.31 39.95Q24.24 39.82 23.28 39.93L23.24 39.89L23.37 40.02Q23.91 33.78 23.91 29.78L23.91 29.79L23.82 29.70Q19.83 23.01 12.18 14.33L12.37 14.52L12.35 14.49Q13.98 15.33 17.33 16.13L17.42 16.21L17.33 16.13Q22.40 21.73 25.41 26.95L25.38 26.92L25.40 26.94Q28.55 21.52 32.93 16.49L32.94 16.50L32.90 16.46Q35.31 16.07 37.83 15.27L37.70 15.14L37.83 15.27Q31.75 21.34 26.88 29.75L26.92 29.78L26.80 29.66Q26.77 36.69 27.08 39.77ZM36.29 17.31L38.88 14.34L38.88 14.33Q35.83 15.56 32.71 16.01L32.82 16.12L32.70 16.00Q28.54 20.79 25.72 25.89L25.63 25.80L25.68 25.85Q23.57 22.21 20.37 18.33L20.37 18.33L20.35 18.31Q20.04 18.26 19.54 18.18L19.68 18.32L19.60 18.24Q19.01 17.54 17.49 15.87L17.39 15.77L17.47 15.84Q14.09 15.10 11.13 13.54L11.12 13.53L10.98 13.39Q18.81 21.99 23.57 29.90L23.49 29.82L23.64 29.97Q23.39 36.15 22.78 40.30L22.81 40.33L22.91 40.43Q23.59 40.35 25.03 40.24L25.01 40.21L25.08 41.31L25.07 41.30Q25.10 41.79 25.02 42.32L24.96 42.26L24.87 42.17Q28.41 42.17 30.16 42.36L30.27 42.47L30.26 42.46Q29.06 37.83 28.95 31.85L28.96 31.86L28.81 31.72Q33.30 23.37 39.84 16.03L39.89 16.07L36.22 17.23Z"/><path fill="#c9e37c" d="M17.30 21.40L17.38 21.48L17.31 21.42Q15.78 20.19 14.14 19.81L14.19 19.85L14.06 19.72Q12.92 19.42 10.14 19.38L10.25 19.50L10.17 19.41Q4.97 19.36 2.92 21.37L3.06 21.51L3.02 21.47Q1.46 23.11 1.57 26.81L1.47 26.71L1.55 26.78Q1.69 30.57 1.84 31.52L1.80 31.49L1.84 31.53Q2.88 37.59 10.61 37.59L10.50 37.48L10.59 37.57Q15.24 37.54 17.34 35.14L17.25 35.06L17.31 35.12Q19.15 32.89 19.38 28.13L19.44 28.18L19.40 28.15Q19.77 23.46 17.45 21.55ZM10.57 40.56L10.48 40.48L10.49 40.48Q3.89 40.54 0.92 38.18L1.06 38.32L1.05 38.31Q-1.16 36.02-1.27 30.96L-1.19 31.05L-1.25 30.99Q-1.22 30.52-1.38 27.24L-1.30 27.32L-1.41 27.21Q-1.50 24.64-1.46 23.58L-1.53 23.52L-1.39 23.65Q-1.26 20.78 0.15 19.06L0.16 19.07L0.02 18.93Q2.64 16.72 7.51 16.57L7.56 16.61L7.43 16.48Q9.34 16.57 10.22 16.61L10.21 16.60L10.08 16.46Q20.09 16.61 21.84 20.95L21.97 21.09L21.86 20.97Q22.71 23.05 22.56 25.79L22.62 25.85L22.46 25.69Q22.56 27.50 22.37 30.77L22.30 30.71L22.37 30.78Q22.07 33.48 21.16 35.54L21.30 35.68L21.17 35.55Q19.16 40.32 10.52 40.51ZM22.93 40.55L22.89 40.51L22.97 40.59Q24.29 38.75 24.41 35.67L24.39 35.65L24.32 35.58Q24.33 34.48 24.29 32.88L24.30 32.90L24.27 32.86Q24.32 32.19 24.28 30.36L24.35 30.44L24.33 30.41Q24.28 23.28 22.34 20.81L22.26 20.73L22.37 20.84Q21.90 19.76 20.80 18.66L20.84 18.70L20.84 18.70Q17.57 16.23 10.11 16.08L10.18 16.15L10.16 16.13Q2.73 15.97-0.32 18.56L-0.37 18.50L-0.44 18.43Q-1.82 20.36-1.82 23.30L-1.92 23.19L-1.80 23.32Q-1.92 24.49-1.77 25.82L-1.73 25.86L-1.67 25.92Q-1.70 26.96-1.66 28.40L-1.61 28.45L-1.64 28.42Q-1.41 32.47-1.25 33.65L-1.37 33.53L-1.37 33.53Q-1.00 36.45 0.33 38.24L0.40 38.31L0.32 38.23Q0.76 39.51 1.83 40.27L1.94 40.39L1.98 40.42Q5.23 42.76 12.99 42.95L12.87 42.82L12.91 42.86Q20.25 43.08 22.92 40.53ZM19.14 28.16L19.23 28.24L19.28 28.29Q19.01 32.78 17.11 34.88L17.07 34.84L17.07 34.84Q15.09 37.20 10.64 37.24L10.60 37.20L10.58 37.18Q6.30 37.28 4.17 35.38L4.09 35.30L4.12 35.32Q3.40 33.70 3.48 30.80L3.42 30.75L3.36 30.69Q3.44 26.05 5.46 23.88L5.56 23.97L5.55 23.97Q7.47 21.69 12.07 21.69L12.16 21.79L12.18 21.80Q16.42 21.86 18.51 23.72L18.45 23.65L18.44 23.65Q19.29 25.41 19.18 28.19Z"/><path d="M18 26 C71 26,89 15,146 15" stroke="#96d953" fill="none"/><path fill="#8b8bed" d="M115.66 29.69L115.52 29.56L115.68 29.71Q115.65 33.95 114.92 38.09L114.96 38.13L114.86 38.03Q117.17 37.52 120.25 37.41L120.28 37.44L120.17 37.33Q121.47 37.48 122.53 36.47L122.68 36.62L122.54 36.48Q123.64 35.50 123.64 34.17L123.61 34.15L123.72 34.25Q123.74 33.97 123.71 33.71L123.71 33.71L123.67 33.67Q123.59 30.81 121.34 29.97L121.27 29.90L121.34 29.97Q120.50 29.59 119.82 29.67L119.76 29.61L119.80 29.65Q118.69 29.53 117.66 29.57L117.80 29.70L117.62 29.53Q116.59 29.60 115.56 29.60ZM114.35 19.17L114.33 19.15L114.44 19.27Q115.36 22.62 115.62 26.99L115.49 26.86L115.44 26.81Q117.00 27.04 119.66 27.08L119.62 27.03L119.74 27.15Q122.66 27.18 123.01 23.64L122.87 23.51L122.82 23.46Q123.19 21.70 121.79 20.86L121.66 20.73L121.65 20.73Q120.82 20.27 116.40 19.62L116.28 19.51L116.44 19.67Q115.29 19.43 114.38 19.20ZM110.74 42.10L110.64 42.00L110.83 42.19Q113.25 35.47 112.98 28.08L112.92 28.02L112.99 28.09Q112.70 20.80 109.77 14.33L109.65 14.21L109.78 14.34Q113.61 16.91 119.83 17.16L119.79 17.12L119.78 17.10Q125.92 17.27 126.26 20.16L126.28 20.18L126.31 20.21Q126.65 22.99 125.25 25.65L125.21 25.62L125.32 25.73Q124.41 27.06 122.81 27.75L122.94 27.87L122.81 27.74Q126.54 28.50 126.77 33.87L126.76 33.86L126.73 33.84Q126.91 35.05 126.84 36.46L126.78 36.40L126.86 36.48Q126.77 37.76 125.84 38.70L125.72 38.57L125.80 38.65Q124.90 39.62 123.57 39.78L123.50 39.71L123.47 39.68Q122.07 39.84 121.01 39.84L120.92 39.75L121.09 39.92Q115.24 39.78 110.71 42.07ZM123.62 42.49L123.61 42.48L123.61 42.48Q124.46 42.45 126.32 42.56L126.38 42.63L126.36 42.60Q127.66 42.53 128.77 41.66L128.93 41.83L128.88 41.77Q129.57 40.75 129.46 39.19L129.57 39.31L129.59 39.32Q129.56 38.42 128.84 34.96L128.76 34.88L128.67 34.78Q127.97 31.54 126.11 30.05L126.17 30.12L125.68 29.21L125.86 29.39Q127.43 27.88 128.01 24.11L128.01 24.12L127.97 24.07Q128.22 23.03 128.15 21.62L128.11 21.59L128.06 21.54Q128.02 20.25 126.92 19.41L127.05 19.53L126.96 19.45Q126.59 19.19 126.48 19.16L126.41 19.09L126.55 19.23Q126.21 18.63 125.38 17.83L125.44 17.89L125.44 17.89Q123.86 16.76 119.63 16.57L119.74 16.68L119.69 16.64Q113.12 16.42 109.12 13.53L109.08 13.48L108.98 13.38Q112.34 20.47 112.64 28.01L112.61 27.98L112.72 28.09Q113.00 35.86 110.18 42.79L110.16 42.77L112.14 41.75L112.31 41.92Q111.83 42.96 111.33 44.10L111.44 44.20L111.27 44.03Q115.68 42.27 120.70 42.27L120.75 42.33L120.76 42.34Q122.01 42.18 123.46 42.33ZM121.39 31.85L121.43 31.88L121.31 31.77Q122.11 31.77 123.02 32.22L123.07 32.27L122.98 32.18Q123.17 32.60 123.32 33.66L123.24 33.58L123.34 33.68Q123.45 34.97 122.52 36.02L122.59 36.09L122.53 36.03Q121.62 37.10 120.21 36.99L120.18 36.96L118.79 37.16L118.65 37.03Q118.00 37.17 117.27 37.29L117.22 37.23L117.30 37.31Q117.65 35.53 117.72 32.06L117.54 31.88L117.72 32.06Q118.18 31.80 119.44 31.76L119.53 31.85L119.61 31.93Q120.75 31.78 121.36 31.82ZM120.28 22.18L120.42 22.32L120.82 22.33L120.67 22.18Q121.05 22.33 121.24 22.37L121.22 22.35L121.50 22.25L121.88 22.44L122.47 22.49L122.58 22.60Q122.66 22.83 122.66 23.14L122.67 23.16L122.67 23.69L122.60 23.61Q122.55 24.82 121.67 25.75L121.74 25.82L121.65 25.73Q120.83 26.71 119.61 26.71L119.58 26.68L119.60 26.71Q118.67 26.80 118.67 26.80L118.67 26.81L118.56 26.70Q117.25 26.68 117.59 26.68L117.67 26.76L117.57 26.66Q117.64 25.24 117.34 22.20L117.24 22.10L117.26 22.12Q118.80 22.21 120.32 22.21Z"/><path fill="#8eebeb" d="M133.64 27.77L133.58 27.71L133.53 27.65Q130.14 27.69 129.03 31.04L129.00 31.01L128.94 30.95Q128.66 32.11 128.54 33.18L128.53 33.16L128.60 33.24Q128.34 35.22 129.33 36.55L129.34 36.56L129.37 36.59Q130.60 37.67 133.07 37.71L133.16 37.80L133.03 37.66Q134.81 37.66 136.22 36.52L136.28 36.57L136.32 36.62Q137.66 35.40 137.66 33.62L137.70 33.65L137.67 33.63Q137.66 33.27 137.58 32.89L137.64 32.95L137.71 33.02Q137.33 27.73 133.52 27.65ZM133.44 40.13L133.42 40.11L133.46 40.15Q129.78 40.51 127.99 38.49L128.00 38.50L127.83 38.32Q127.64 39.39 127.18 40.76L127.25 40.83L127.14 40.72Q125.27 41.56 124.02 42.13L123.94 42.06L124.07 42.19Q126.16 36.12 126.16 29.61L126.28 29.73L126.11 29.56Q126.16 21.32 122.74 13.48L122.69 13.43L122.74 13.48Q125.17 14.92 126.51 15.38L126.48 15.36L126.48 15.35Q128.57 21.98 128.72 27.80L128.66 27.74L128.61 27.68Q130.19 25.15 133.92 25.19L133.84 25.11L133.83 25.11Q137.07 25.15 138.56 27.01L138.62 27.07L138.53 26.99Q140.45 29.36 140.60 32.94L140.58 32.92L140.51 32.85Q140.61 34.06 140.54 35.66L140.60 35.72L140.51 35.63Q140.55 37.15 139.67 38.29L139.53 38.15L139.64 38.26Q137.78 39.86 133.44 40.13ZM138.91 42.63L139.00 42.72L139.07 42.80Q140.54 42.77 142.02 42.09L141.94 42.00L141.96 42.02Q143.07 40.74 143.11 38.80L143.14 38.83L143.16 38.85Q143.06 38.26 142.91 37.08L142.94 37.11L142.94 37.10Q142.83 36.38 142.71 35.47L142.76 35.52L142.86 35.62Q142.04 30.84 140.48 28.79L140.43 28.73L140.38 28.68Q140.37 28.64 139.57 27.76L139.61 27.80L139.65 27.84Q139.34 27.50 138.81 26.70L138.86 26.74L138.80 26.68Q137.15 24.69 133.80 24.73L133.80 24.73L133.86 24.79Q131.83 24.86 130.58 25.47L130.64 25.53L130.66 25.55Q130.31 21.01 129.70 17.82L129.59 17.70L129.63 17.74Q128.90 17.59 127.42 17.21L127.40 17.19L127.44 17.23Q127.26 16.44 126.80 14.99L126.77 14.96L126.74 14.93Q124.46 14.28 122.21 12.72L122.17 12.68L122.04 12.55Q125.84 20.77 125.84 29.56L125.95 29.67L125.93 29.65Q125.87 36.56 123.40 42.77L123.42 42.79L123.51 42.88Q124.14 42.48 125.48 41.91L125.43 41.87L125.42 41.86Q125.24 42.66 124.63 44.19L124.57 44.13L124.55 44.11Q126.66 43.33 129.44 42.79L129.38 42.73L129.66 40.80L129.74 40.88Q131.99 42.53 138.92 42.64ZM135.17 29.98L135.21 30.02L135.31 30.12Q136.24 30.03 136.77 30.41L136.69 30.33L136.81 30.44Q137.06 30.89 137.29 32.90L137.32 32.93L137.21 32.83Q137.51 34.80 136.25 36.11L136.35 36.21L136.33 36.19Q135.01 37.44 133.07 37.33L133.03 37.29L133.14 37.40Q132.13 37.45 130.64 36.95L130.62 36.93L130.76 37.07Q130.37 36.42 130.37 35.88L130.46 35.97L130.54 36.05Q130.54 32.97 132.11 31.37L131.98 31.24L131.95 31.25L132.03 31.33Q133.55 30.04 135.30 30.11Z"/><path d="M7 31 C81 1,94 27,130 41" stroke="#6fa8e0" fill="none"/><path fill="#64e1c2" d="M102.54 14.88L102.46 14.79L102.46 14.80Q103.50 16.98 105.45 16.98L105.64 17.18L105.49 17.03Q106.09 17.14 106.51 16.99L106.41 16.89L106.38 16.85Q106.26 22.07 106.23 28.46L106.28 28.52L106.28 28.51Q106.18 34.69 106.37 39.95L106.37 39.95L106.29 39.87Q106.07 39.88 105.69 39.88L105.52 39.71L105.65 39.84Q104.23 39.79 102.82 41.66L102.81 41.65L102.77 41.61Q103.45 34.90 103.41 28.20L103.45 28.24L103.41 28.19Q103.46 21.58 102.54 14.88ZM102.30 42.73L102.42 42.85L102.27 42.70Q103.35 41.35 104.53 40.62L104.48 40.57L104.51 40.60Q104.37 41.45 104.29 42.52L104.31 42.53L104.33 42.55Q105.16 42.13 105.92 42.24L105.96 42.29L106.02 42.34Q107.95 42.45 109.32 45.23L109.38 45.28L109.39 45.29Q108.08 37.81 108.08 30.54L108.15 30.62L108.21 30.68Q108.13 23.05 108.93 15.94L109.06 16.07L109.01 16.02Q107.99 17.85 106.92 18.50L106.74 18.32L106.91 18.49Q106.88 17.74 107.00 16.36L106.89 16.26L107.03 16.40Q106.22 16.81 105.46 16.69L105.41 16.64L105.38 16.62Q103.01 16.34 101.99 13.45L102.10 13.56L101.93 13.40Q103.14 21.00 103.26 28.16L103.15 28.05L103.19 28.10Q103.30 35.25 102.31 42.75Z"/><path d="M11 14 C86 11,85 16,143 41" stroke="#e1c05a" fill="none"/></svg>