<svg xmlns="http://www.w3.org/2000/svg" width="150" height="50" viewBox="0,0,150,50"><rect width="100%" height="100%" fill="white"/><path d="M4 22 C89 18,90 43,131 46" stroke="#4b4be1" fill="none"/><path fill="#de72c3" d="M17.26 41.06L17.27 41.07L17.29 41.10Q20.48 36.86 27.18 28.94L27.06 28.82L27.18 28.95Q21.25 29.15 17.48 27.78L17.41 27.71L17.53 27.83Q16.74 26.27 15.98 24.86L16.13 25.01L15.97 24.85Q20.12 26.41 24.57 26.45L24.62 26.50L24.53 26.41Q29.02 26.48 33.21 25.42L33.32 25.53L33.20 25.41Q32.86 26.14 32.59 26.67L32.59 26.66L32.61 26.68Q30.02 28.85 27.20 32.47L27.23 32.50L22.28 38.66L22.41 38.79Q24.58 38.53 26.82 38.60L26.72 38.50L26.85 38.63Q29.03 38.67 31.27 39.05L31.22 39.00L31.23 39.01Q31.37 39.60 32.09 41.62L32.02 41.55L32.02 41.55Q28.34 40.77 24.34 40.88L24.36 40.90L24.28 40.82Q20.48 41.09 16.82 42.27L16.86 42.30L16.68 42.12Q16.76 41.98 17.22 41.03ZM16.16 42.79L16.18 42.80L16.15 42.77Q16.94 42.46 18.54 42.04L18.66 42.17L18.57 42.07Q18.40 42.36 17.98 42.78L17.88 42.67L17.92 42.72Q17.63 43.23 17.02 44.37L17.06 44.41L17.12 44.46Q21.77 43.06 26.75 43.21L26.76 43.22L26.68 43.14Q31.81 43.47 36.37 45.33L36.34 45.30L36.31 45.27Q34.91 43.45 33.99 41.39L33.90 41.29L34.01 41.40Q33.27 41.13 32.20 40.90L32.14 40.83L32.03 40.72Q31.92 40.08 31.54 38.64L31.52 38.61L31.50 38.59Q29.96 38.27 26.38 38.16L26.42 38.20L26.34 38.11Q28.85 34.92 33.88 28.56L33.79 28.47L33.88 28.57Q34.15 27.84 34.83 26.51L34.87 26.54L32.43 27.15L32.42 27.15Q32.61 27.18 32.77 27.07L32.64 26.95L32.90 26.82L32.99 26.92Q33.35 25.75 33.92 24.80L33.91 24.78L33.94 24.82Q29.22 26.11 24.50 26.04L24.56 26.09L24.49 26.03Q19.68 25.94 15.19 24.11L15.37 24.29L15.18 24.10Q16.41 26.02 17.21 28.07L17.24 28.10L17.22 28.09Q18.07 28.40 19.14 28.67L19.09 28.62L19.08 28.61Q19.31 29.33 19.61 30.78L19.67 30.84L19.62 30.79Q21.32 31.16 24.63 31.31L24.47 31.15L24.67 31.34Q22.22 34.61 17.05 41.04L16.97 40.97L17.08 41.08Q16.74 41.57 16.16 42.79Z"/><path fill="#4242e5" d="M101.88 23.03L101.93 23.08L101.82 22.97Q100.10 25.78 97.44 31.42L97.34 31.31L95.43 35.65L95.49 35.71Q94.52 37.52 93.19 39.77L93.23 39.80L93.19 39.77Q93.74 39.86 92.06 39.90L92.07 39.90L92.08 39.91Q92.04 39.88 90.78 39.88L90.72 39.81L90.72 39.81Q90.11 38.44 87.18 31.29L87.04 31.14L87.17 31.28Q84.92 25.83 82.83 22.82L82.84 22.84L82.80 22.79Q83.53 25.85 83.53 29.01L83.57 29.04L83.62 29.09Q83.60 35.58 80.63 41.14L80.71 41.22L80.55 41.06Q79.33 41.51 76.97 42.24L76.97 42.24L76.87 42.14Q80.53 36.44 80.53 29.20L80.71 29.38L80.58 29.25Q80.72 20.45 75.31 13.48L75.22 13.38L75.25 13.42Q76.78 14.03 79.14 14.72L79.14 14.71L79.17 14.74Q86.35 21.63 92.44 34.95L92.35 34.85L92.41 34.91Q95.91 27.90 98.11 24.40L98.16 24.45L98.02 24.31Q101.73 18.65 105.69 15.18L105.63 15.13L105.52 15.02Q106.77 14.78 109.13 14.02L109.16 14.05L109.28 14.17Q104.15 20.66 104.15 29.26L104.17 29.28L104.21 29.32Q104.14 35.91 107.57 41.43L107.65 41.51L107.69 41.55Q106.26 41.16 103.52 40.55L103.51 40.53L103.63 40.66Q101.25 35.84 101.25 29.86L101.24 29.85L101.27 29.88Q101.31 26.50 102.00 23.15ZM103.34 40.93L103.43 41.03L103.42 41.02Q104.01 41.03 105.45 41.30L105.55 41.40L105.62 41.47Q105.95 42.10 106.90 43.58L106.99 43.67L107.02 43.70Q109.06 44.03 112.52 45.25L112.59 45.31L112.47 45.19Q106.30 38.95 106.30 29.12L106.30 29.13L106.32 29.14Q106.29 21.38 110.66 15.25L110.71 15.30L108.41 15.90L108.54 16.02Q109.46 14.39 110.10 13.51L110.00 13.40L110.03 13.43Q108.29 14.21 105.66 14.74L105.61 14.69L105.58 14.66Q98.87 20.82 92.82 33.42L92.71 33.31L92.68 33.29Q87.63 22.44 82.68 17.19L82.57 17.08L82.65 17.16Q82.35 17.16 81.78 17.05L81.67 16.94L80.39 15.59L80.42 15.61Q79.83 14.95 79.14 14.34L79.25 14.45L79.26 14.46Q76.17 13.43 74.39 12.70L74.47 12.79L74.39 12.70Q80.42 19.95 80.42 29.36L80.41 29.35L80.30 29.24Q80.42 36.97 76.27 42.84L76.11 42.68L76.13 42.69Q76.87 42.52 78.16 42.10L78.14 42.08L78.21 42.15Q78.05 42.37 76.64 44.46L76.74 44.56L76.62 44.44Q78.47 44.01 81.98 43.25L81.92 43.19L82.01 43.29Q85.72 36.22 85.53 28.45L85.43 28.36L85.47 28.39Q87.07 32.47 90.54 40.35L90.53 40.35L90.53 40.35Q90.77 40.28 91.00 40.28L91.00 40.29L91.43 40.18L91.42 40.17Q91.92 40.89 92.71 42.19L92.83 42.31L92.76 42.23Q94.35 42.19 94.35 42.19L94.34 42.18L94.44 42.28Q95.39 42.20 96.04 42.27L96.01 42.25L95.96 42.19Q97.61 38.25 100.96 30.25L100.86 30.15L100.84 30.14Q100.81 35.66 103.40 40.99Z"/><path d="M16 46 C90 25,80 9,143 7" stroke="#5adcdc" fill="none"/><path fill="#e3bd49" d="M83.49 40.85L83.51 40.87L83.51 40.88Q82.23 39.21 80.93 36.13L80.92 36.12L78.95 31.15L78.94 31.13Q77.29 35.08 76.68 36.37L76.73 36.42L76.62 36.31Q75.17 39.24 73.57 41.14L73.61 41.18L73.61 41.18Q73.13 41.09 72.37 41.20L72.56 41.38L72.54 41.36Q72.51 33.91 66.68 27.97L66.56 27.85L66.69 27.98Q64.83 26.05 62.82 24.56L62.79 24.54L62.78 24.53Q64.78 25.23 66.65 25.54L66.55 25.44L66.66 25.55Q72.61 30.40 74.05 36.64L74.10 36.68L74.16 36.75Q74.97 34.81 76.15 31.61L76.14 31.61L76.26 31.72Q77.58 27.95 78.16 26.65L78.01 26.51L79.60 26.69L79.53 26.62Q80.29 28.22 81.47 31.49L81.47 31.49L81.65 31.67Q82.90 35.25 83.55 36.65L83.41 36.51L83.55 36.66Q85.24 30.23 90.72 25.67L90.79 25.74L90.89 25.84Q92.06 25.71 94.80 25.14L94.81 25.15L94.85 25.19Q86.15 31.15 84.97 41.12L84.86 41.01L84.26 40.94L84.34 41.03Q83.96 40.95 83.62 40.99ZM86.63 43.47L88.72 43.69L88.62 43.59Q88.38 42.13 88.38 40.61L88.27 40.49L88.36 40.59Q88.39 37.39 89.80 34.15L89.65 34.00L89.65 34.00Q91.68 29.52 95.79 26.44L95.89 26.54L95.83 26.47Q94.60 26.73 92.73 27.07L92.75 27.08L92.73 27.06Q94.63 25.35 95.92 24.44L96.08 24.60L93.39 24.87L93.42 24.90Q92.27 25.20 90.94 25.35L90.90 25.32L90.87 25.29Q85.83 29.65 83.89 34.67L83.75 34.53L83.72 34.50Q83.19 32.45 81.82 28.19L81.88 28.24L81.76 28.12Q81.51 28.22 81.25 28.22L81.25 28.23L80.70 28.21L80.76 28.27Q80.60 27.92 79.80 26.17L79.75 26.12L77.72 26.14L77.62 26.05Q76.85 29.04 74.76 34.68L74.77 34.69L74.75 34.67Q73.34 30.90 70.26 27.63L70.31 27.68L70.34 27.70Q69.94 27.57 69.63 27.53L69.62 27.52L69.04 27.40L69.05 27.41Q68.25 26.65 66.46 25.05L66.54 25.12L66.53 25.12Q63.40 24.50 61.73 24.01L61.64 23.92L61.72 24.00Q72.38 31.39 72.00 41.71L72.02 41.72L71.99 41.69Q72.24 41.75 72.60 41.71L72.50 41.62L72.60 41.71Q72.89 41.60 73.08 41.60L73.08 41.60L73.21 41.73Q73.13 41.50 73.32 43.60L73.40 43.68L75.23 43.41L75.29 43.47Q77.84 40.62 80.09 34.87L80.06 34.84L80.17 34.94Q81.52 38.66 83.39 41.33L83.43 41.37L83.47 41.41Q83.67 41.27 83.94 41.29L84.05 41.40L84.10 41.45Q84.29 41.39 84.55 41.39L84.55 41.39L86.58 43.42Z"/><path fill="#e164c2" d="M126.78 40.36L126.73 40.31L126.77 40.35Q123.78 36.44 121.15 27.80L121.22 27.87L121.22 27.87Q120.48 25.65 119.68 23.51L119.68 23.51L116.80 32.28L116.84 32.32Q114.97 37.19 112.58 40.43L112.59 40.45L112.54 40.40Q111.77 40.54 110.13 40.69L110.19 40.74L110.23 40.79Q110.21 39.48 110.21 38.22L110.19 38.20L110.22 38.23Q110.21 32.20 107.47 26.07L107.49 26.09L107.55 26.15Q104.51 19.34 98.64 14.35L98.54 14.25L98.61 14.32Q100.69 14.95 103.05 15.48L103.01 15.44L103.09 15.52Q111.72 23.93 113.01 34.89L113.09 34.97L113.01 34.89Q114.66 31.59 116.11 26.22L116.20 26.31L116.20 26.31Q118.02 18.66 118.52 17.25L118.65 17.38L120.81 17.29L120.92 17.40Q121.49 19.31 122.14 21.63L122.11 21.60L123.34 26.03L123.33 26.02Q124.96 31.54 126.37 34.77L126.43 34.84L126.33 34.73Q127.98 23.09 135.90 15.74L135.94 15.79L135.93 15.78Q137.50 15.49 140.47 14.84L140.44 14.80L140.39 14.76Q135.22 19.21 132.17 25.34L132.15 25.33L132.17 25.34Q129.07 31.57 129.07 38.34L128.92 38.20L128.93 38.21Q129.03 39.41 129.11 40.55L129.09 40.53L127.94 40.42L127.87 40.34Q127.41 40.42 126.84 40.42ZM133.04 43.27L133.03 43.26L133.05 43.28Q131.77 39.68 131.88 35.79L131.94 35.84L131.83 35.74Q132.26 24.29 141.63 16.03L141.55 15.95L141.53 15.94Q140.64 16.22 138.69 16.75L138.64 16.70L138.75 16.81Q139.67 15.94 141.58 14.15L141.56 14.14L141.61 14.19Q138.94 14.94 136.01 15.44L136.00 15.43L135.90 15.33Q128.54 22.59 126.64 32.07L126.60 32.03L126.58 32.01Q125.97 30.33 123.11 18.88L123.16 18.92L123.15 18.92Q122.72 18.97 121.77 18.97L121.73 18.94L121.50 17.95L121.47 17.91Q121.39 17.42 121.16 16.93L121.22 16.98L118.22 16.88L118.31 16.97Q117.48 19.41 116.20 24.53L116.13 24.46L116.17 24.50Q114.93 29.65 113.94 32.13L113.93 32.11L113.80 31.98Q112.31 24.17 106.75 17.85L106.75 17.86L106.77 17.87Q106.16 17.69 105.21 17.50L105.31 17.60L105.37 17.65Q104.53 16.70 102.96 15.06L103.00 15.10L103.04 15.14Q99.58 14.26 97.41 13.46L97.37 13.42L97.46 13.52Q103.03 18.09 106.30 24.30L106.36 24.35L106.31 24.30Q109.93 31.09 109.93 38.09L109.79 37.95L109.93 38.09Q109.83 39.55 109.63 41.14L109.76 41.27L109.70 41.21Q109.86 41.14 110.32 41.05L110.27 41.00L110.26 40.99Q110.88 41.05 111.11 41.05L110.97 40.92L110.97 41.95L111.07 42.05Q111.05 42.48 111.12 43.01L111.10 42.99L111.15 43.04Q112.24 42.92 114.53 42.76L114.50 42.74L114.57 42.81Q118.16 37.37 120.90 27.97L120.90 27.96L120.95 28.02Q123.71 36.80 126.68 40.75L126.57 40.65L126.72 40.79Q127.18 40.80 128.02 40.91L128.08 40.97L127.98 40.88Q128.87 41.96 129.94 43.02L129.85 42.94L129.95 43.03Q130.60 42.96 133.00 43.23Z"/><path fill="#65e6e6" d="M66.02 40.26L65.88 40.13L65.88 40.13Q63.99 40.03 62.31 40.60L62.31 40.59L62.44 40.73Q62.92 37.05 63.03 33.93L63.13 34.03L62.97 33.87Q63.15 30.89 62.92 27.23L62.96 27.27L62.95 27.26Q61.56 26.90 60.80 26.52L60.76 26.48L60.37 23.46L60.29 23.39Q61.06 24.04 62.66 24.61L62.73 24.69L62.77 24.72Q62.58 22.63 62.16 19.89L62.14 19.87L62.18 19.91Q64.38 20.51 66.01 20.35L66.08 20.42L65.96 25.02L65.87 24.93Q67.39 24.97 68.72 24.47L68.68 24.42L68.67 24.42Q68.52 25.22 68.29 26.97L68.37 27.05L68.39 27.07Q66.80 27.34 65.77 27.34L65.85 27.43L65.89 27.46Q65.92 29.66 65.92 33.93L65.86 33.87L65.92 33.93Q65.94 38.10 66.02 40.27ZM69.07 23.83L69.01 23.76L69.01 23.76Q68.72 23.86 68.11 24.09L68.11 24.09L68.65 21.47L68.60 21.41Q67.74 21.66 66.33 21.89L66.31 21.87L66.31 21.87Q66.29 21.16 66.44 19.79L66.45 19.80L66.54 19.89Q65.85 19.88 65.28 19.88L65.39 20.00L65.31 19.92Q63.26 19.99 61.62 19.27L61.48 19.13L61.51 19.16Q62.12 21.76 62.39 24.23L62.32 24.15L62.24 24.08Q61.40 23.77 59.88 22.74L59.96 22.83L59.87 22.73Q60.20 24.02 60.43 26.72L60.58 26.87L60.56 26.85Q60.89 26.96 62.07 27.38L62.10 27.40L62.21 27.51Q62.08 27.99 62.11 29.40L62.17 29.46L62.50 29.44L62.78 29.64L62.74 29.61Q62.71 30.75 62.71 31.93L62.75 31.97L62.70 31.93Q62.67 36.84 61.87 41.18L62.01 41.33L62.02 41.33Q62.16 41.17 64.10 40.64L64.13 40.67L64.10 40.63Q64.21 41.39 64.10 42.76L64.03 42.70L63.92 42.59Q64.72 42.51 65.52 42.51L65.51 42.50L65.66 42.65Q67.28 42.55 68.91 43.13L69.00 43.21L68.86 43.07Q67.70 37.54 67.89 29.62L67.74 29.47L70.21 29.15L70.20 29.15Q70.37 28.32 70.44 27.29L70.37 27.22L70.46 25.11L70.57 25.22Q69.93 25.41 68.75 25.87L68.88 26.00L68.87 25.99Q69.13 24.62 69.06 24.27L69.10 24.32L69.05 24.26Q68.98 24.01 69.06 23.82Z"/><path d="M10 29 C61 29,68 42,149 19" stroke="#d24bb0" fill="none"/><path fill="#be55e1" d="M57.60 28.77L57.48 28.64L51.68 28.82L51.71 28.85Q48.74 28.85 45.81 28.77L45.82 28.79L45.78 28.75Q45.85 35.40 43.79 40.92L43.91 41.04L43.82 40.94Q41.94 41.39 40.19 42.08L40.16 42.04L40.32 42.21Q43.00 36.40 43.00 29.74L43.07 29.81L43.02 29.76Q43.07 21.32 38.96 14.28L39.01 14.33L38.90 14.21Q40.41 14.99 42.88 15.79L42.83 15.74L42.97 15.88Q45.12 20.96 45.65 25.83L45.62 25.81L45.62 25.81Q48.84 26.25 51.69 26.21L51.60 26.11L51.54 26.06Q54.34 26.18 57.65 25.92L57.58 25.85L57.70 25.97Q58.13 21.52 59.88 16.42L59.91 16.46L59.81 16.35Q61.78 15.97 64.03 15.13L64.02 15.12L64.07 15.17Q60.36 21.82 60.36 29.77L60.32 29.74L60.47 29.88Q60.34 35.95 62.70 41.28L62.76 41.35L62.65 41.24Q61.24 40.82 59.19 40.51L59.16 40.49L59.00 40.33Q57.51 35.49 57.62 28.79ZM58.76 40.70L58.73 40.67L58.88 40.82Q59.79 40.85 60.89 41.12L60.99 41.21L60.96 41.18Q61.39 41.99 62.03 43.48L61.95 43.40L61.92 43.37Q65.34 44.39 67.13 45.30L67.18 45.35L67.02 45.19Q62.62 39.07 62.31 30.81L62.37 30.87L62.28 30.78Q62.03 22.80 65.68 15.98L65.62 15.92L64.67 16.50L64.52 16.35Q64.20 16.75 63.59 16.90L63.42 16.73L63.58 16.89Q63.99 16.08 64.82 14.52L64.80 14.49L64.67 14.36Q62.09 15.48 59.47 15.97L59.57 16.08L59.40 15.90Q57.75 20.77 57.30 25.45L57.31 25.47L57.32 25.47Q54.92 25.77 52.48 25.77L52.47 25.76L52.51 25.81Q50.00 25.69 47.49 25.54L47.57 25.62L47.53 25.58Q47.21 22.21 46.10 18.14L46.17 18.20L46.21 18.25Q45.59 18.20 44.14 17.82L44.14 17.81L44.11 17.78Q43.72 16.56 43.27 15.53L43.28 15.55L43.28 15.55Q40.45 14.70 38.17 13.44L38.18 13.45L38.12 13.40Q42.75 20.88 42.75 29.68L42.78 29.71L42.77 29.70Q42.70 36.59 39.58 42.72L39.67 42.81L39.70 42.84Q40.34 42.49 41.67 41.92L41.68 41.93L41.66 41.91Q41.34 42.77 40.54 44.29L40.59 44.34L40.63 44.38Q43.44 43.39 45.69 42.97L45.57 42.85L45.63 42.91Q47.39 37.25 47.58 31.08L47.63 31.12L47.69 31.19Q49.23 31.05 52.43 31.01L52.41 31.00L52.45 31.03Q55.41 31.11 57.32 31.18L57.20 31.06L57.26 31.12Q57.40 36.74 58.73 40.67Z"/><path fill="#b280e4" d="M113.49 30.40L113.36 30.27L113.46 30.37Q113.57 29.98 113.53 29.56L113.53 29.57L113.45 29.48Q113.45 29.18 113.15 28.99L113.06 28.90L113.04 28.88Q112.44 28.43 111.57 28.59L111.44 28.46L111.52 28.54Q110.39 28.48 108.75 29.58L108.83 29.66L108.91 29.74Q107.32 30.47 107.32 31.65L107.32 31.65L107.40 31.73Q107.48 33.07 107.48 36.38L107.42 36.32L107.45 36.35Q107.34 38.83 107.49 40.85L107.53 40.88L107.59 40.94Q105.77 40.83 105.77 40.83L105.88 40.95L105.76 40.83Q104.72 40.74 104.00 40.82L104.17 40.98L104.18 41.00Q104.61 38.49 104.68 36.24L104.61 36.18L104.58 36.14Q104.83 31.60 104.18 30.30L104.12 30.24L104.17 30.29Q103.79 29.60 103.22 29.30L103.34 29.42L103.29 29.37Q102.34 28.54 100.78 28.43L100.84 28.49L100.92 28.56Q98.86 28.29 98.33 29.89L98.30 29.87L98.35 29.91Q98.17 30.38 98.29 30.88L98.31 30.90L98.30 30.89Q98.87 33.55 98.52 36.33L98.65 36.46L98.56 36.37Q98.34 39.27 96.94 41.71L96.77 41.54L96.92 41.70Q95.87 41.83 93.78 42.25L93.77 42.24L93.69 42.16Q96.26 38.98 96.26 34.68L96.31 34.73L96.17 34.58Q96.28 28.84 92.25 24.61L92.17 24.54L92.27 24.64Q93.02 24.93 93.98 25.16L93.88 25.07L95.57 25.42L95.60 25.45Q96.22 26.22 97.10 27.90L97.03 27.83L96.93 27.73Q97.10 25.84 99.53 25.80L99.55 25.82L99.66 25.93Q99.84 25.92 100.83 26.00L100.75 25.92L100.68 25.85Q105.68 26.17 106.82 28.98L106.97 29.13L106.91 29.07Q108.55 26.34 113.58 25.80L113.59 25.82L113.59 25.81Q114.33 25.68 115.21 25.79L115.16 25.75L115.25 25.84Q117.49 26.06 117.33 27.62L117.30 27.59L117.30 27.58Q117.26 28.27 116.99 29.03L116.89 28.92L116.89 28.92Q115.59 32.04 115.82 35.58L115.86 35.63L115.85 35.61Q115.92 38.95 117.82 41.77L117.78 41.73L117.91 41.86Q116.23 41.52 114.41 41.29L114.45 41.33L114.42 41.30Q113.14 38.68 112.95 35.91L112.93 35.89L112.88 35.84Q112.70 32.99 113.34 30.25ZM114.08 41.57L114.22 41.71L114.19 41.68Q114.94 41.78 116.27 41.98L116.16 41.86L116.11 41.81Q116.83 42.72 117.97 44.13L117.80 43.96L117.92 44.08Q120.73 44.53 122.82 45.17L122.93 45.28L122.89 45.24Q117.79 41.24 117.52 34.73L117.70 34.91L117.54 34.76Q117.54 32.74 118.15 30.83L118.14 30.82L118.21 30.89Q118.34 29.92 118.34 29.19L118.24 29.09L118.33 29.19Q118.29 28.23 117.68 27.66L117.66 27.64L117.70 27.64L117.82 27.76Q117.87 27.24 117.80 26.75L117.73 26.68L117.67 26.63Q117.69 26.22 117.23 25.95L117.14 25.87L117.22 25.94Q116.53 25.44 115.65 25.40L115.59 25.34L115.58 25.33Q112.83 25.32 110.16 26.27L110.09 26.19L110.01 26.12Q108.15 26.92 106.97 28.33L106.95 28.31L106.92 28.28Q105.34 25.78 100.50 25.44L100.57 25.51L100.56 25.50Q99.80 25.39 99.38 25.39L99.39 25.40L99.35 25.36Q97.35 25.41 96.74 26.67L96.81 26.73L96.87 26.80Q96.54 26.27 95.85 25.21L95.77 25.13L95.73 25.09Q93.32 24.62 91.34 23.97L91.25 23.88L91.33 23.96Q96.04 28.40 96.04 34.68L95.96 34.60L96.05 34.69Q96.05 39.41 93.19 42.88L93.04 42.72L93.11 42.80Q93.57 42.65 94.07 42.57L94.03 42.54L95.09 42.45L94.95 42.31Q94.30 43.42 93.20 44.63L93.33 44.77L93.32 44.76Q94.92 44.42 98.04 43.81L97.99 43.75L98.10 43.86Q100.75 39.73 100.75 34.82L100.73 34.81L100.59 34.67Q100.68 33.96 100.61 33.12L100.67 33.18L100.66 33.18Q100.49 32.32 101.48 31.52L101.54 31.58L101.50 31.58L101.44 31.52Q102.07 31.08 103.25 30.97L103.27 30.99L103.20 30.92Q103.78 31.08 104.09 31.08L104.01 31.01L104.05 31.23L104.04 31.22Q104.28 33.91 104.17 36.27L104.19 36.28L104.17 36.26Q104.16 38.65 103.66 41.32L103.69 41.34L103.55 41.20Q104.65 41.28 104.65 41.28L104.57 41.19L104.69 41.32Q106.08 41.26 105.74 41.26L105.79 41.31L105.76 41.28Q105.79 41.81 105.75 42.27L105.81 42.32L105.70 42.21Q105.75 42.76 105.75 43.25L105.68 43.18L108.12 43.15L108.14 43.17Q109.34 43.12 110.60 43.19L110.66 43.25L110.67 43.26Q109.20 39.62 109.39 33.68L109.40 33.69L109.34 33.63Q109.32 32.47 110.50 31.71L110.66 31.87L110.65 31.86Q111.45 30.94 112.70 30.75L112.64 30.69L112.97 30.72L112.99 30.74Q112.53 32.64 112.53 34.62L112.57 34.66L112.67 34.76Q112.55 38.41 114.08 41.57ZM108.72 30.19L108.75 30.00L108.68 30.27L108.57 30.04Z"/><path fill="#6bdbbf" d="M12.54 29.94L12.53 29.94L12.46 29.87Q10.02 29.83 8.69 31.04L8.56 30.92L8.62 30.98Q7.24 32.14 7.54 34.66L7.69 34.80L7.54 34.66Q7.90 37.23 9.12 38.48L9.09 38.45L9.05 38.42Q10.23 39.86 12.36 39.78L12.42 39.84L12.27 39.69Q12.83 39.68 13.02 39.68L13.05 39.71L13.03 39.69Q16.62 39.13 16.73 34.52L16.80 34.59L16.66 34.45Q16.86 32.21 16.17 31.41L16.02 31.26L16.21 31.45Q15.14 30.15 12.59 30.00ZM15.78 41.60L15.74 41.56L15.84 41.67Q14.56 42.29 13.00 42.21L12.88 42.09L12.96 42.17Q9.14 42.39 7.85 39.80L7.72 39.68L7.88 39.83Q7.56 45.03 6.23 49.30L6.28 49.34L6.23 49.30Q4.53 49.88 2.90 50.61L2.97 50.68L2.88 50.60Q5.39 44.57 5.12 37.61L5.20 37.68L5.17 37.65Q4.90 30.79 2.00 24.74L2.09 24.82L2.05 24.79Q3.96 25.94 5.68 26.40L5.68 26.40L6.12 27.79L6.28 27.95Q6.29 28.19 6.56 29.29L6.66 29.39L6.54 29.27Q7.51 27.16 11.09 26.97L11.13 27.01L11.22 27.10Q12.10 27.07 12.98 27.07L12.97 27.06L13.42 27.02L13.32 26.92Q13.47 26.96 13.66 27.00L13.72 27.05L14.09 27.12L14.02 27.05Q16.21 27.45 16.93 27.68L16.85 27.59L16.93 27.68Q18.36 28.08 19.24 29.03L19.14 28.94L19.14 28.93Q19.99 30.13 19.95 31.54L20.07 31.66L19.92 31.50Q19.96 34.40 19.16 37.06L19.26 37.17L19.20 37.10Q18.21 40.65 15.85 41.67ZM20.16 42.33L20.05 42.18L20.12 42.25Q21.15 40.20 21.46 36.09L21.40 36.03L21.42 36.05Q21.55 34.27 21.55 33.02L21.64 33.11L21.61 33.08Q21.60 31.55 20.84 30.14L20.86 30.16L20.87 30.17Q20.41 29.67 19.92 29.29L20.05 29.43L19.90 29.17L19.61 28.75L19.56 28.60L19.67 28.70Q17.86 26.59 13.52 26.59L13.45 26.52L12.91 26.59L12.87 26.54Q8.19 26.51 6.55 28.11L6.57 28.13L6.60 28.16Q6.45 27.67 6.30 27.17L6.23 27.10L6.12 26.19L6.07 26.15Q3.54 25.48 1.34 24.00L1.36 24.03L1.35 24.01Q4.56 30.26 4.86 37.50L4.85 37.48L4.91 37.55Q5.10 44.71 2.25 51.18L2.36 51.29L4.30 50.37L4.32 50.39Q4.08 51.14 3.39 52.70L3.45 52.76L3.31 52.62Q6.11 51.65 8.44 51.31L8.43 51.30L8.39 51.26Q9.41 46.35 9.56 42.62L9.56 42.61L9.73 42.78Q11.10 44.23 14.71 44.46L14.74 44.48L14.69 44.44Q18.70 44.75 20.15 42.31L19.99 42.16ZM14.49 32.24L14.33 32.08L14.41 32.16Q15.03 32.06 16.13 32.40L16.07 32.34L16.25 32.52Q16.52 33.51 16.49 34.69L16.40 34.61L16.35 34.55Q16.45 35.57 16.26 36.22L16.15 36.11L16.24 36.20Q15.56 39.14 13.05 39.44L12.93 39.33L13.13 39.41L13.17 39.45Q13.01 39.37 12.90 39.41L12.97 39.48L12.31 39.35L12.32 39.35Q11.10 39.32 10.11 38.83L10.14 38.85L9.75 36.75L9.73 36.73Q9.63 34.46 10.93 33.43L11.05 33.55L11.04 33.54Q11.98 32.39 14.37 32.12Z"/><path fill="#3be6e6" d="M131.84 41.21L131.67 41.05L129.98 41.06L130.00 41.09Q126.63 41.11 125.68 38.97L125.79 39.09L125.76 39.05Q126.81 37.90 128.26 36.80L128.36 36.89L128.24 36.78Q128.95 39.09 131.81 38.94L131.70 38.83L131.79 38.92Q132.64 38.94 133.67 38.71L133.61 38.65L133.59 38.62Q134.57 38.16 134.49 37.21L134.36 37.07L134.51 37.23Q134.35 36.04 132.56 35.35L132.55 35.33L128.76 33.83L128.69 33.76Q126.38 32.44 126.04 28.90L126.11 28.97L126.03 28.90Q125.87 26.80 128.04 26.23L128.07 26.25L127.98 26.17Q128.99 25.99 131.96 25.99L132.06 26.09L131.94 25.97Q136.95 26.11 137.86 28.62L137.88 28.64L137.86 28.62Q137.22 29.15 136.49 29.61L136.37 29.49L135.02 30.50L135.03 30.51Q134.46 28.53 131.22 28.30L131.26 28.34L131.22 28.30Q130.77 28.46 129.74 28.88L129.59 28.72L129.65 28.78Q129.12 29.17 129.12 30.27L129.18 30.33L129.06 30.21Q129.52 31.39 131.35 32.08L131.21 31.95L131.30 32.04Q132.42 32.47 135.09 33.57L134.95 33.44L135.07 33.56Q136.84 34.34 137.03 36.89L137.10 36.96L137.01 36.87Q137.09 37.51 137.01 38.50L137.00 38.50L137.11 38.60Q136.95 39.35 136.37 40.00L136.36 39.98L136.45 40.08Q134.82 41.14 131.77 41.14ZM136.54 43.75L136.53 43.74L136.55 43.76Q137.46 43.79 138.83 43.49L138.90 43.56L138.88 43.53Q139.79 42.69 139.60 41.48L139.74 41.62L139.64 41.52Q139.65 41.03 139.35 39.43L139.30 39.38L139.25 39.34Q138.67 36.36 136.89 35.14L137.08 35.33L136.98 35.24Q136.49 33.88 135.24 33.15L135.16 33.08L135.27 33.19Q134.03 32.79 131.56 31.83L131.55 31.83L131.41 31.69Q131.66 31.33 131.93 31.21L131.85 31.13L131.80 31.09Q132.47 30.70 133.12 30.66L133.21 30.74L133.04 30.57Q133.89 30.59 134.65 30.86L134.66 30.86L134.84 31.11L134.80 30.97L135.06 31.03L135.13 31.15L134.96 30.97Q136.08 31.48 136.27 32.74L136.25 32.72L136.26 32.73Q137.64 32.01 139.54 30.34L139.55 30.34L139.42 30.22Q139.33 29.67 138.34 28.49L138.21 28.36L138.32 28.47Q137.15 25.73 132.04 25.62L131.94 25.51L132.08 25.66Q128.85 25.55 126.87 26.12L126.79 26.04L126.85 26.10Q125.47 26.70 125.70 28.79L125.73 28.82L125.76 28.85Q125.69 29.93 126.60 32.02L126.65 32.06L126.66 32.07Q127.17 33.16 128.20 33.88L128.35 34.03L128.28 33.96Q128.94 35.42 130.23 36.11L130.30 36.17L130.22 36.10Q131.12 36.31 132.07 36.69L132.22 36.84L133.95 37.43L134.12 37.59Q133.78 38.70 131.84 38.58L131.67 38.42L131.77 38.52Q131.42 38.66 130.20 38.36L130.13 38.28L130.13 38.14L129.95 38.18L130.02 38.26Q129.06 37.79 128.41 36.30L128.46 36.35L128.45 36.34Q126.35 37.93 125.25 39.07L125.17 39.00L125.29 39.12Q125.45 39.89 126.48 40.69L126.43 40.64L126.37 40.88L126.30 40.82Q127.79 42.99 132.02 43.37L131.93 43.29L132.13 43.49Q133.36 43.57 136.59 43.80Z"/><path fill="#69eccb" d="M41.30 27.19L41.33 27.23L41.28 27.17Q42.09 27.18 43.49 27.03L43.50 27.04L43.57 27.10Q43.50 27.72 43.50 28.36L43.52 28.39L43.49 29.61L43.50 29.62Q42.54 29.50 41.70 29.57L41.69 29.57L41.83 29.71Q40.89 29.63 40.05 29.60L40.12 29.66L40.10 29.65Q37.32 35.89 33.89 40.49L33.80 40.40L33.88 40.49Q31.25 41.01 29.96 41.62L29.99 41.65L30.11 41.77Q34.15 35.99 37.19 29.71L37.23 29.74L34.61 29.75L34.47 29.62Q34.47 28.28 34.35 26.95L34.41 27.01L34.40 26.99Q36.28 27.12 38.33 27.12L38.47 27.25L40.34 23.53L40.20 23.39Q41.24 21.54 42.46 19.94L42.56 20.04L42.48 19.96Q40.84 20.03 39.24 20.03L39.33 20.12L39.33 20.12Q33.31 20.19 29.54 17.98L29.43 17.87L28.86 16.23L28.83 16.21Q28.56 15.44 28.18 14.57L28.03 14.42L28.08 14.46Q32.46 17.13 38.17 17.36L38.22 17.42L38.22 17.41Q43.23 17.51 48.37 15.53L48.51 15.68L48.45 15.61Q48.16 15.93 47.67 16.81L47.72 16.87L47.83 16.98Q44.08 21.60 41.23 27.12ZM49.38 18.29L49.37 18.28L50.31 16.21L50.30 16.21Q49.32 16.67 47.65 17.40L47.67 17.42L47.82 17.08L47.99 17.24Q48.09 17.08 48.20 16.96L48.21 16.97L48.19 16.95Q48.56 16.25 49.28 14.92L49.17 14.81L49.24 14.88Q43.93 17.18 38.18 16.96L38.13 16.90L38.13 16.90Q32.17 16.70 27.42 13.73L27.48 13.79L27.34 13.66Q28.47 15.62 29.31 18.29L29.27 18.25L29.28 18.26Q30.43 18.95 31.23 19.26L31.06 19.08L31.09 19.11Q31.22 19.43 31.67 21.30L31.78 21.41L31.66 21.29Q34.84 22.56 40.36 22.41L40.46 22.51L40.50 22.55Q40.20 23.12 38.22 26.89L38.11 26.78L38.18 26.85Q36.09 26.81 34.11 26.62L34.11 26.62L34.18 26.69Q34.22 27.50 34.22 28.37L34.11 28.27L34.30 30.16L35.89 30.08L35.79 31.39L35.84 31.44Q31.97 38.88 29.19 42.46L29.23 42.49L29.11 42.37Q30.81 41.72 32.45 41.22L32.47 41.25L32.46 41.23Q31.70 42.08 30.33 43.79L30.30 43.75L30.38 43.83Q33.41 42.60 35.85 42.38L35.90 42.42L35.91 42.44Q38.88 38.70 42.00 31.93L41.93 31.86L45.40 32.09L45.43 32.12Q45.40 31.25 45.40 30.34L45.37 30.31L45.39 28.54L45.39 28.54Q45.05 28.47 44.50 28.51L44.47 28.48L44.46 28.46Q44.03 28.63 43.77 28.63L43.74 28.61L43.73 28.60Q43.61 28.36 43.65 28.21L43.72 28.28L43.66 27.95L43.82 28.11Q46.36 23.01 49.45 18.36Z"/></svg>