<svg xmlns="http://www.w3.org/2000/svg" width="150" height="50" viewBox="0,0,150,50"><rect width="100%" height="100%" fill="white"/><path fill="#df7b94" d="M88.58 19.42L88.47 19.31L88.50 19.34Q89.30 23.52 89.45 27.10L89.51 27.16L89.45 27.11Q90.65 27.28 91.72 27.28L91.61 27.17L93.80 27.15L93.82 27.17Q94.90 27.18 95.77 25.77L95.83 25.83L95.71 25.71Q96.45 24.54 96.56 23.36L96.61 23.41L96.70 23.51Q96.95 20.37 92.73 19.87L92.79 19.94L92.86 20.00Q91.25 20.03 88.63 19.46ZM89.51 29.91L89.54 29.94L89.50 29.89Q89.48 36.15 88.33 40.57L88.28 40.51L88.36 40.59Q86.92 41.01 84.59 42.08L84.57 42.05L84.66 42.15Q86.93 35.40 86.67 28.13L86.71 28.16L86.68 28.14Q86.36 20.74 83.58 14.30L83.61 14.33L83.56 14.28Q87.66 17.01 93.90 17.01L94.06 17.17L93.94 17.05Q99.94 17.00 100.10 20.47L100.23 20.59L100.28 20.64Q100.29 23.02 99.30 25.69L99.24 25.62L99.31 25.69Q98.80 26.70 97.85 27.92L97.86 27.94L97.94 28.01Q96.60 29.60 94.05 29.87L94.12 29.94L94.09 29.92Q91.86 29.97 89.61 30.00ZM95.63 32.14L95.65 32.16L95.61 32.12Q99.86 32.45 101.12 27.65L101.17 27.71L101.18 27.71Q101.95 23.88 101.80 21.86L101.80 21.86L101.82 21.89Q101.71 20.36 100.95 19.37L100.95 19.38L101.05 19.48Q100.60 19.03 100.11 18.80L100.08 18.78L100.18 18.87Q100.25 18.79 99.64 18.02L99.66 18.05L99.52 17.91Q97.95 16.57 93.99 16.57L94.04 16.61L94.09 16.67Q87.22 16.68 82.99 13.52L82.84 13.37L82.91 13.44Q86.13 20.59 86.40 28.05L86.29 27.94L86.35 28.00Q86.59 35.63 83.93 42.71L83.97 42.75L84.03 42.81Q85.04 42.10 86.03 41.72L86.14 41.83L85.64 42.86L85.74 42.96Q85.39 43.37 85.12 43.94L85.16 43.98L85.12 43.94Q87.69 43.05 90.59 42.51L90.63 42.56L90.53 42.46Q91.36 36.93 91.44 32.21L91.42 32.19L91.54 32.31Q92.51 32.11 93.50 32.11L93.61 32.22L93.65 32.25Q94.94 32.21 95.73 32.24ZM94.83 22.35L94.76 22.28L94.65 22.17Q95.25 22.28 96.24 22.51L96.31 22.58L96.29 22.56Q96.28 22.66 96.32 22.97L96.31 22.96L96.27 22.92Q96.46 23.34 96.38 23.61L96.39 23.61L96.42 23.64Q96.23 24.78 95.51 25.66L95.53 25.68L95.42 25.57Q94.91 26.70 93.88 26.89L93.97 26.98L93.93 26.94Q93.19 26.92 91.55 26.92L91.56 26.93L91.54 26.91Q91.55 24.67 91.32 22.31L91.23 22.21L92.90 22.22L93.04 22.36Q93.87 22.35 94.75 22.27Z"/><path fill="#53dede" d="M135.83 29.45L135.78 29.39L135.98 29.59Q134.77 28.80 134.12 28.84L133.95 28.67L134.09 28.81Q132.62 28.79 131.58 29.80L131.58 29.81L131.56 29.78Q130.63 30.91 130.75 32.28L130.65 32.18L130.62 32.15Q131.04 36.61 130.16 41.14L130.22 41.19L130.19 41.17Q127.93 41.57 126.83 42.11L126.85 42.13L126.79 42.07Q128.33 37.94 128.11 33.48L128.15 33.53L128.17 33.54Q127.86 28.98 126.15 24.90L126.22 24.97L126.11 24.87Q127.36 25.65 129.64 26.30L129.51 26.17L130.09 28.88L130.10 28.89Q130.80 26.01 135.06 26.01L135.07 26.02L135.15 26.10Q135.51 26.01 135.82 26.01L135.84 26.03L135.72 25.90Q136.99 25.88 138.25 26.57L138.40 26.72L138.40 26.73Q137.01 27.99 135.87 29.48ZM137.55 31.54L137.50 31.34L137.53 31.37Q138.41 30.20 140.08 27.76L140.18 27.86L140.09 27.76Q139.60 27.39 138.08 27.12L138.20 27.25L138.10 27.14Q138.41 26.81 138.87 26.20L138.88 26.21L139.05 26.38Q137.09 25.41 135.15 25.60L135.15 25.60L135.11 25.57Q133.27 25.86 132.55 26.12L132.36 25.93L132.42 26.00Q131.06 26.47 130.26 27.57L130.33 27.63L130.10 26.76L129.91 25.93L129.84 25.85Q127.51 25.50 125.53 24.17L125.52 24.16L125.41 24.05Q127.69 28.57 127.91 33.44L127.79 33.32L127.90 33.43Q128.05 38.26 126.30 42.79L126.29 42.79L126.40 42.90Q127.48 42.41 128.35 42.10L128.29 42.04L128.18 41.93Q128.05 43.18 127.56 44.24L127.51 44.20L127.52 44.20Q130.44 43.43 132.57 43.32L132.52 43.26L132.59 38.62L132.60 38.62Q132.83 36.50 132.83 34.25L132.78 34.19L132.80 34.22Q132.86 33.09 133.77 32.12L133.69 32.05L133.69 32.04Q134.65 31.12 135.79 31.04L135.69 30.94L135.71 30.96Q136.36 30.85 137.09 31.54L137.10 31.56L137.57 31.56ZM132.50 29.69L132.47 29.59L132.54 29.77L132.52 29.71Z"/><path fill="#7db5ec" d="M122.74 41.35L122.71 41.31L119.65 41.11L119.57 41.02Q117.16 40.90 116.36 40.79L116.50 40.92L116.48 40.91Q114.66 40.57 113.48 39.69L113.38 39.59L113.50 39.72Q112.07 38.18 111.84 34.82L111.98 34.96L111.93 34.91Q111.95 34.47 111.87 33.25L111.84 33.23L111.85 33.23Q111.86 32.82 111.78 31.72L111.79 31.72L111.80 31.74Q111.71 30.84 111.75 30.12L111.79 30.17L111.74 30.12Q111.99 28.24 113.02 27.47L112.88 27.33L112.95 27.41Q114.97 26.34 119.80 26.11L119.65 25.96L119.81 26.12Q121.68 25.86 122.48 25.86L122.60 25.98L122.60 25.98Q123.98 25.87 125.35 26.18L125.40 26.22L125.39 26.21Q124.91 27.56 124.37 29.39L124.21 29.22L124.39 29.40Q123.86 29.45 123.37 29.41L123.30 29.34L123.25 29.29Q123.11 29.23 122.58 29.12L122.73 29.27L121.73 28.98L121.78 29.04Q120.69 28.75 120.09 28.79L120.06 28.77L120.08 28.79Q115.30 28.81 114.69 31.62L114.65 31.58L114.70 31.63Q114.33 32.67 114.41 33.62L114.44 33.65L114.56 33.78Q114.57 36.22 115.81 37.31L115.85 37.35L115.95 37.45Q117.12 38.47 119.71 38.51L119.74 38.53L119.81 38.61Q121.12 38.47 121.84 38.16L121.99 38.31L122.88 37.67L122.86 37.65Q123.42 37.45 123.99 37.38L124.08 37.47L124.09 37.48Q124.23 39.18 124.61 40.47L124.65 40.51L124.73 40.60Q124.40 40.87 122.61 41.21ZM125.87 44.17L125.87 44.17L125.87 44.17Q126.35 44.30 127.18 44.38L127.04 44.24L127.01 44.21Q127.80 44.39 128.14 43.82L128.17 43.85L128.03 43.70Q126.89 41.68 126.39 39.59L126.30 39.50L126.42 39.62Q126.02 39.52 125.56 39.52L125.60 39.56L125.58 39.54Q125.16 39.54 124.78 39.73L124.77 39.72L124.87 39.82Q124.52 38.55 124.37 37.14L124.33 37.11L124.36 37.13Q123.71 37.02 122.49 37.59L122.38 37.48L122.40 37.50Q121.25 38.14 120.76 38.14L120.79 38.18L120.82 38.21Q120.24 38.12 119.63 38.08L119.76 38.21L119.61 38.06Q118.68 38.01 116.70 37.44L116.83 37.57L116.85 37.59Q116.41 36.76 116.44 35.62L116.49 35.67L116.39 35.56Q116.75 31.51 121.70 30.98L121.72 31.00L121.56 30.84Q122.30 30.89 123.67 31.24L123.59 31.15L123.71 31.27Q125.09 31.63 125.81 31.59L125.68 31.45L125.86 31.64Q126.23 29.34 126.91 27.51L126.91 27.50L126.91 27.51Q126.55 27.42 126.17 27.34L126.13 27.30L125.44 27.29L125.45 27.31Q125.55 26.72 125.93 25.84L125.90 25.81L125.84 25.76Q124.46 25.55 122.90 25.55L122.81 25.46L122.90 25.55Q120.46 25.51 116.08 25.89L116.08 25.89L116.16 25.96Q114.15 26.05 112.59 27.04L112.66 27.11L112.66 27.11Q111.28 27.90 111.28 29.80L111.42 29.95L111.41 29.94Q111.35 30.30 111.47 31.52L111.50 31.55L111.52 31.57Q111.60 32.60 111.56 33.21L111.42 33.07L111.54 33.19Q111.62 35.13 112.34 38.86L112.31 38.84L112.35 38.87Q112.68 39.66 113.18 40.15L113.08 40.06L113.27 40.25L113.37 40.32L113.31 40.25Q114.36 42.41 118.28 43.02L118.43 43.17L118.25 42.99Q121.53 43.59 124.19 43.86L124.20 43.87L124.14 43.81Q124.96 43.91 125.87 44.17Z"/><path fill="#72c7e3" d="M102.04 19.42L101.88 19.27L102.00 19.38Q102.90 23.67 103.05 27.25L102.90 27.10L102.92 27.11Q103.99 27.16 105.05 27.16L105.04 27.15L107.34 27.24L107.38 27.28Q108.38 27.21 109.25 25.80L109.33 25.87L109.20 25.75Q110.03 24.67 110.14 23.49L110.02 23.37L110.06 23.41Q110.42 20.38 106.19 19.88L106.15 19.84L106.24 19.93Q104.54 19.86 101.91 19.29ZM102.99 29.92L103.08 30.02L103.10 30.04Q103.01 36.23 101.87 40.65L101.88 40.66L101.74 40.52Q100.41 41.05 98.08 42.11L98.02 42.05L98.09 42.12Q100.43 35.44 100.17 28.17L100.03 28.03L100.05 28.05Q99.80 20.72 97.02 14.29L97.10 14.36L97.09 14.36Q101.19 17.09 107.44 17.09L107.37 17.02L107.47 17.12Q113.57 17.17 113.73 20.64L113.63 20.54L113.61 20.52Q113.67 22.95 112.68 25.61L112.76 25.69L112.73 25.66Q112.26 26.71 111.30 27.92L111.29 27.92L111.26 27.89Q110.08 29.63 107.53 29.90L107.41 29.78L107.52 29.89Q105.23 29.89 102.99 29.93ZM109.09 32.14L109.14 32.20L109.06 32.11Q113.38 32.51 114.63 27.72L114.61 27.69L114.52 27.61Q115.43 23.91 115.28 21.89L115.30 21.91L115.43 22.04Q115.27 20.47 114.51 19.48L114.57 19.54L114.40 19.37Q114.16 19.13 113.66 18.90L113.54 18.78L113.60 18.84Q113.57 18.66 112.96 17.90L112.94 17.88L112.95 17.88Q111.56 16.72 107.60 16.72L107.59 16.71L107.41 16.53Q100.71 16.72 96.48 13.56L96.41 13.49L96.33 13.41Q99.53 20.53 99.79 27.99L99.89 28.08L99.88 28.07Q100.17 35.75 97.50 42.83L97.43 42.76L97.38 42.70Q98.49 42.10 99.48 41.72L99.55 41.79L99.23 42.99L99.11 42.88Q98.91 43.44 98.65 44.01L98.76 44.12L98.73 44.09Q101.15 43.05 104.04 42.51L103.91 42.39L103.91 42.39Q104.77 36.89 104.85 32.17L104.92 32.24L104.96 32.28Q105.98 32.11 106.97 32.11L107.03 32.17L106.93 32.08Q108.39 32.21 109.19 32.24ZM108.21 22.28L108.26 22.33L108.26 22.33Q108.76 22.33 109.75 22.56L109.77 22.58L109.73 22.54Q109.86 22.79 109.90 23.09L109.76 22.96L109.75 22.94Q109.81 23.24 109.74 23.50L109.69 23.46L109.80 23.56Q109.77 24.87 109.05 25.75L108.94 25.64L109.01 25.70Q108.28 26.62 107.25 26.81L107.30 26.85L107.26 26.82Q106.58 26.86 104.95 26.86L105.00 26.92L104.95 26.87Q104.93 24.60 104.70 22.24L104.74 22.27L106.38 22.24L106.41 22.27Q107.25 22.27 108.12 22.19Z"/><path d="M8 40 C57 25,89 24,131 47" stroke="#ebeb64" fill="none"/><path fill="#7474e1" d="M5.88 19.27L5.77 19.16L5.84 19.24Q6.88 23.62 7.03 26.82L7.11 26.89L7.16 26.94Q7.57 26.90 11.95 27.02L11.92 26.99L12.00 27.07Q14.47 27.02 14.85 23.56L14.90 23.61L14.93 23.64Q15.09 21.86 14.18 20.95L14.21 20.97L14.25 21.02Q12.92 20.07 10.94 19.92L10.80 19.77L10.93 19.91Q7.60 19.58 5.73 19.13ZM7.20 28.82L7.20 28.81L7.19 28.80Q7.41 34.85 5.62 40.79L5.60 40.77L5.54 40.71Q4.35 41.08 1.76 42.11L1.67 42.01L1.78 42.12Q4.55 35.57 4.21 28.10L4.27 28.17L4.17 28.07Q3.86 20.71 0.54 14.20L0.58 14.23L0.53 14.19Q5.38 16.99 12.35 16.99L12.35 16.99L12.45 17.09Q18.17 17.17 18.43 20.71L18.37 20.65L18.26 20.54Q18.49 21.30 18.41 21.91L18.28 21.77L18.31 23.02L18.32 23.03Q17.53 27.00 15.40 28.72L15.28 28.59L15.22 28.53Q14.60 29.40 13.57 29.40L13.48 29.30L10.93 29.34L10.79 29.21Q16.51 36.57 21.05 41.14L21.02 41.12L20.96 41.05Q18.88 40.41 15.94 40.07L15.84 39.97L15.89 40.02Q12.17 36.11 7.26 28.87ZM15.81 40.43L15.83 40.45L15.96 40.28L17.28 41.60L17.32 41.64Q17.81 42.09 18.45 42.70L18.44 42.68L18.50 42.74Q22.17 43.48 25.75 45.35L25.68 45.27L25.72 45.32Q18.74 38.52 13.33 31.60L13.40 31.66L15.11 31.62L15.04 31.55Q18.19 31.62 19.52 27.09L19.51 27.08L19.43 27.00Q20.14 24.82 20.14 22.11L20.17 22.14L20.25 22.22Q20.12 19.81 18.41 19.16L18.49 19.24L18.41 19.17Q18.41 18.90 17.84 18.22L17.77 18.15L17.72 18.09Q16.20 16.80 12.55 16.72L12.40 16.58L12.50 16.67Q4.62 16.53-0.06 13.52L-0.04 13.54L-0.13 13.46Q3.65 20.32 4.00 28.01L3.97 27.98L3.89 27.90Q4.28 35.90 1.15 42.75L1.25 42.85L1.17 42.77Q2.47 42.24 3.27 41.94L3.15 41.82L2.15 44.09L2.17 44.11Q4.97 43.14 7.63 42.65L7.68 42.70L7.68 42.70Q8.87 37.49 9.06 32.28L9.01 32.22L9.17 32.38Q12.62 37.28 15.78 40.40ZM14.53 22.48L14.51 22.46L14.43 22.38Q14.46 22.64 14.46 22.98L14.61 23.13L14.50 23.59L14.44 23.53Q14.62 24.81 13.94 25.77L13.76 25.59L13.91 25.74Q13.19 26.39 12.28 26.58L12.25 26.56L12.42 26.73Q12.02 26.59 10.42 26.63L10.46 26.67L10.45 26.66Q9.95 26.77 9.11 26.65L9.12 26.66L9.00 26.54Q9.08 25.21 8.74 22.17L8.59 22.02L8.58 22.01Q10.04 22.26 10.73 22.26L10.82 22.34L10.70 22.23Q12.48 22.17 14.42 22.36Z"/><path fill="#ca64eb" d="M61.02 34.66L61.06 34.70L61.05 34.69Q61.15 38.37 57.99 39.66L57.95 39.62L57.83 39.50Q55.93 40.30 51.51 40.46L51.69 40.63L51.51 40.45Q46.72 40.57 44.47 39.39L44.61 39.53L44.61 39.53Q42.63 38.08 42.78 34.73L42.91 34.86L42.95 34.90Q42.85 34.15 43.04 32.17L43.05 32.18L43.03 32.16Q43.18 30.60 43.18 29.61L43.24 29.67L43.25 29.68Q43.26 21.69 39.07 14.27L39.02 14.22L39.03 14.23Q40.20 14.90 43.17 15.97L43.11 15.91L43.15 15.95Q46.04 22.69 46.04 30.07L46.03 30.07L46.05 30.08Q46.05 30.69 45.95 31.87L45.91 31.82L45.94 31.86Q45.92 33.11 45.92 33.72L45.85 33.65L45.89 33.69Q45.79 35.88 47.35 36.87L47.31 36.82L47.49 37.01Q49.09 37.77 52.06 37.77L52.08 37.79L51.91 37.62Q54.71 37.79 56.34 36.61L56.29 36.55L56.31 36.58Q58.08 35.14 57.93 32.63L58.06 32.77L58.05 32.76Q57.84 31.25 57.84 29.92L57.82 29.89L57.90 29.97Q57.82 22.85 60.22 16.34L60.36 16.48L62.53 15.92L62.49 15.87Q63.47 15.59 64.57 15.14L64.44 15.01L64.50 15.07Q60.86 22.27 60.86 29.85L60.71 29.70L60.86 29.86Q60.70 30.53 60.84 32.17L61.02 32.35L60.89 32.22Q61.04 33.88 61.04 34.68ZM63.14 35.52L63.19 35.57L63.14 35.52Q62.38 30.69 63.11 25.59L63.04 25.52L62.97 25.45Q63.79 20.33 66.19 15.95L66.24 16.01L66.22 15.99Q65.62 16.31 64.18 16.95L64.12 16.89L64.03 16.80Q64.60 16.15 65.39 14.59L65.20 14.40L65.26 14.46Q61.92 15.80 60.01 16.14L59.85 15.97L60.00 16.13Q57.52 22.51 57.52 29.79L57.64 29.90L57.66 29.93Q57.57 31.21 57.65 32.62L57.72 32.69L57.64 32.61Q57.83 35.04 56.04 36.26L55.99 36.22L55.93 36.15Q54.44 37.21 51.93 37.25L52.04 37.36L52.02 37.34Q49.24 37.38 47.79 36.62L47.86 36.68L47.70 36.53Q47.67 36.07 47.59 35.62L47.70 35.72L47.60 35.63Q47.51 35.08 47.62 34.59L47.79 34.76L47.73 34.69Q48.01 32.42 48.01 30.09L47.86 29.95L48.00 30.09Q47.98 24.25 46.46 18.34L46.34 18.23L46.45 18.33Q45.78 18.28 44.38 17.94L44.38 17.94L44.24 17.80Q43.84 16.49 43.39 15.58L43.49 15.68L43.48 15.67Q40.73 14.86 38.33 13.49L38.39 13.55L38.25 13.41Q42.88 21.01 42.88 29.72L42.86 29.71L42.89 29.74Q42.82 31.30 42.67 33.02L42.81 33.16L42.67 33.02Q42.50 35.48 42.58 36.66L42.64 36.72L42.51 36.59Q42.82 38.69 44.07 39.83L44.03 39.79L44.01 39.76Q45.10 42.34 49.74 42.72L49.56 42.54L49.63 42.60Q51.82 42.85 53.95 42.93L53.82 42.80L53.88 42.86Q59.16 42.96 61.94 42.01L62.06 42.13L62.08 42.15Q63.58 41.17 63.58 39.12L63.54 39.09L63.69 39.24Q63.71 38.11 63.25 35.63Z"/><path fill="#7eebd0" d="M63.62 29.80L63.73 29.91L63.74 29.92Q63.36 29.77 63.06 29.77L63.04 29.75L63.10 29.81Q61.87 29.92 60.43 30.75L60.39 30.72L60.25 30.58Q59.11 31.87 59.11 33.78L59.02 33.69L59.11 33.78Q58.98 37.07 60.50 38.40L60.62 38.52L60.63 38.53Q61.52 39.65 63.80 39.65L63.74 39.59L63.73 39.58Q64.01 39.63 64.31 39.63L64.43 39.74L64.44 39.75Q65.97 39.57 67.11 37.94L67.27 38.09L67.17 37.99Q68.26 36.53 68.18 34.74L68.18 34.74L68.18 34.74Q68.30 34.32 68.30 33.91L68.31 33.92L68.23 33.84Q68.26 32.08 66.89 30.91L66.94 30.97L66.84 30.86Q65.47 29.70 63.68 29.86ZM68.27 40.12L68.25 40.10L68.13 39.98Q67.13 41.91 63.39 42.02L63.37 42.00L63.40 42.02Q59.99 42.12 58.39 40.52L58.48 40.61L58.53 40.66Q56.91 38.73 56.11 33.94L56.13 33.96L56.19 34.02Q55.83 32.21 55.83 30.95L55.85 30.97L55.98 31.10Q55.91 29.25 56.64 28.18L56.70 28.25L56.59 28.14Q57.95 26.76 60.92 26.76L60.96 26.79L60.91 26.75Q67.24 26.75 69.14 29.34L69.11 29.31L69.08 29.28Q69.39 28.60 69.81 27.00L69.75 26.94L69.83 27.02Q71.13 26.77 73.57 25.97L73.55 25.95L73.43 25.83Q71.09 31.56 70.86 37.87L70.82 37.83L70.72 37.73Q70.63 44.05 72.77 49.87L72.70 49.80L72.79 49.89Q70.95 49.16 69.16 48.89L69.25 48.98L69.29 49.02Q68.39 45.07 68.27 40.12ZM68.86 49.17L68.93 49.23L68.86 49.17Q69.66 49.40 71.07 49.70L71.07 49.70L71.01 49.64Q71.35 50.48 71.93 51.89L71.96 51.92L71.82 51.78Q74.51 52.61 76.80 53.90L76.76 53.87L76.71 53.81Q72.78 47.33 72.78 38.80L72.81 38.83L72.62 38.65Q72.74 32.41 75.22 26.63L75.24 26.64L75.28 26.69Q74.55 26.95 73.18 27.60L73.21 27.62L73.09 27.50Q73.43 26.74 74.08 25.18L74.03 25.14L74.15 25.25Q72.55 25.74 69.35 26.62L69.44 26.71L69.42 26.69Q69.27 27.23 68.97 28.41L68.97 28.41L68.87 28.31Q66.84 26.40 60.72 26.25L60.84 26.37L60.73 26.27Q57.70 26.35 56.33 27.84L56.29 27.80L56.14 27.65Q55.46 28.87 55.50 30.78L55.55 30.82L55.56 30.84Q55.57 33.74 56.56 37.51L56.65 37.60L56.62 37.57Q57.19 39.90 58.11 40.85L58.19 40.93L58.62 41.36L58.63 41.37Q59.82 44.16 65.27 44.39L65.21 44.33L65.24 44.36Q66.21 44.34 68.04 44.04L68.01 44.01L68.11 44.11Q68.27 46.89 68.88 49.18ZM65.52 32.12L65.63 32.23L65.51 32.11Q66.72 32.25 67.56 32.56L67.48 32.48L67.58 32.57Q67.61 32.95 67.72 33.56L67.85 33.68L67.80 33.63Q67.87 34.16 67.79 34.77L67.74 34.72L67.86 34.84Q67.85 36.73 66.82 38.03L66.82 38.02L66.73 37.94Q65.61 39.41 63.75 39.22L63.78 39.24L63.72 39.19Q62.47 39.23 61.52 38.81L61.61 38.90L61.50 38.80Q61.18 38.01 61.18 36.80L61.19 36.81L61.24 36.86Q61.07 36.38 61.07 36.08L61.09 36.10L61.06 36.07Q61.19 34.45 62.52 33.28L62.42 33.19L62.56 33.33Q63.87 32.14 65.62 32.22Z"/><path d="M14 10 C87 35,83 22,142 19" stroke="#e9e98f" fill="none"/><path fill="#5ee2e2" d="M26.04 30.00L25.90 29.85L25.90 29.85Q23.49 29.84 22.16 31.06L22.17 31.07L22.05 30.95Q20.82 32.27 21.12 34.78L21.02 34.68L21.13 34.79Q21.40 37.27 22.62 38.53L22.56 38.46L22.63 38.54Q23.60 39.77 25.73 39.69L25.90 39.87L25.80 39.77Q26.24 39.63 26.43 39.63L26.51 39.72L26.59 39.80Q30.10 39.15 30.21 34.55L30.23 34.57L30.15 34.49Q30.29 32.19 29.61 31.39L29.56 31.34L29.65 31.43Q28.61 30.16 26.06 30.01ZM29.24 41.60L29.26 41.63L29.17 41.54Q27.94 42.21 26.38 42.14L26.43 42.18L26.35 42.11Q22.65 42.44 21.36 39.85L21.37 39.87L21.30 39.79Q21.17 45.19 19.84 49.45L19.72 49.33L19.82 49.44Q17.98 49.88 16.34 50.60L16.36 50.61L16.28 50.54Q18.84 44.57 18.58 37.61L18.60 37.63L18.70 37.73Q18.46 30.90 15.57 24.85L15.56 24.84L15.40 24.69Q17.43 25.95 19.15 26.41L19.11 26.37L19.55 27.77L19.64 27.85Q19.78 28.23 20.05 29.33L20.04 29.33L20.05 29.34Q21.01 27.21 24.59 27.02L24.61 27.04L24.61 27.04Q25.41 26.92 26.28 26.92L26.42 27.06L26.94 27.09L26.97 27.11Q26.94 26.97 27.13 27.01L27.22 27.10L27.48 27.06L27.54 27.11Q29.48 27.27 30.21 27.50L30.30 27.59L30.23 27.53Q31.85 28.11 32.73 29.07L32.68 29.02L32.57 28.91Q33.56 30.24 33.52 31.65L33.39 31.52L33.48 31.61Q33.38 34.37 32.59 37.03L32.68 37.13L32.72 37.17Q31.67 40.65 29.31 41.68ZM33.52 42.24L33.51 42.19L33.51 42.18Q34.59 40.18 34.90 36.07L35.03 36.21L34.87 36.05Q35.16 34.43 35.16 33.17L35.01 33.02L35.14 33.15Q35.06 31.55 34.30 30.14L34.32 30.16L34.28 30.12Q33.83 29.64 33.33 29.25L33.39 29.31L33.19 29.00L33.10 28.80L32.96 28.54L33.11 28.69Q31.35 26.62 27.01 26.62L27.05 26.66L26.43 26.65L26.36 26.58Q21.71 26.58 20.07 28.18L20.07 28.17L20.13 28.24Q19.96 27.72 19.81 27.22L19.82 27.23L19.44 26.06L19.56 26.18Q17.06 25.54 14.85 24.06L14.84 24.05L14.85 24.06Q18.11 30.36 18.41 37.60L18.30 37.49L18.38 37.57Q18.56 44.71 15.70 51.18L15.66 51.13L17.79 50.41L17.74 50.36Q17.50 51.11 16.82 52.67L16.79 52.64L16.72 52.58Q19.50 51.58 21.82 51.24L21.91 51.33L21.92 51.34Q22.99 46.47 23.14 42.74L23.05 42.65L23.09 42.69Q24.46 44.14 28.08 44.37L28.10 44.38L28.18 44.47Q32.07 44.66 33.51 42.22L33.48 42.19ZM27.84 32.14L27.85 32.15L27.77 32.06Q28.52 32.09 29.62 32.43L29.55 32.37L29.52 32.34Q29.95 33.48 29.91 34.66L29.81 34.57L29.90 34.65Q29.91 35.58 29.72 36.23L29.67 36.17L29.59 36.10Q29.02 39.15 26.51 39.45L26.39 39.33L26.48 39.30L26.49 39.31Q26.53 39.43 26.41 39.47L26.36 39.41L25.85 39.43L25.81 39.40Q24.71 39.47 23.72 38.98L23.66 38.92L23.20 36.74L23.31 36.85Q23.08 34.46 24.37 33.43L24.37 33.43L24.36 33.42Q25.42 32.38 27.82 32.12Z"/><path fill="#ed82b7" d="M36.74 29.83L36.70 29.78L36.83 29.92Q36.55 29.86 36.24 29.86L36.28 29.90L36.28 29.90Q34.86 29.81 33.41 30.65L33.37 30.61L33.36 30.60Q32.14 31.82 32.14 33.72L32.06 33.64L32.01 33.59Q32.15 37.15 33.67 38.48L33.62 38.43L33.72 38.53Q34.58 39.62 36.86 39.62L36.79 39.54L36.85 39.61Q37.03 39.56 37.34 39.56L37.43 39.65L37.39 39.61Q39.12 39.63 40.26 38.00L40.35 38.08L40.21 37.94Q41.40 36.58 41.33 34.79L41.18 34.65L41.19 34.66Q41.27 34.20 41.27 33.78L41.40 33.92L41.32 33.83Q41.34 32.07 39.97 30.91L39.91 30.85L40.02 30.96Q38.49 29.63 36.70 29.79ZM41.30 40.06L41.35 40.11L41.19 39.95Q40.30 41.99 36.57 42.11L36.49 42.03L36.64 42.18Q33.09 42.12 31.49 40.53L31.50 40.54L31.52 40.56Q30.07 38.80 29.27 34.01L29.20 33.93L29.22 33.96Q29.01 32.30 29.01 31.05L29.01 31.04L28.99 31.03Q28.96 29.20 29.68 28.14L29.74 28.20L29.64 28.10Q31.14 26.85 34.11 26.85L34.03 26.77L34.10 26.85Q40.39 26.81 42.29 29.40L42.24 29.35L42.33 29.44Q42.47 28.59 42.89 26.99L42.80 26.90L42.95 27.05Q44.23 26.77 46.67 25.98L46.65 25.96L46.64 25.95Q44.10 31.48 43.87 37.79L43.96 37.88L43.85 37.77Q43.71 44.03 45.85 49.86L45.88 49.90L45.84 49.85Q44.07 49.19 42.29 48.93L42.31 48.95L42.31 48.95Q41.38 44.97 41.26 40.02ZM42.04 49.26L41.96 49.17L42.11 49.32Q42.71 49.35 44.12 49.65L44.22 49.75L44.08 49.62Q44.30 50.34 44.87 51.74L44.96 51.82L44.99 51.86Q47.65 52.65 49.93 53.95L49.75 53.77L49.79 53.80Q45.85 47.32 45.85 38.79L45.77 38.70L45.73 38.67Q45.73 32.31 48.20 26.52L48.24 26.56L48.27 26.59Q47.66 26.97 46.29 27.61L46.29 27.62L46.16 27.48Q46.48 26.70 47.13 25.14L47.24 25.26L47.19 25.20Q45.67 25.77 42.47 26.65L42.49 26.67L42.50 26.68Q42.31 27.17 42.00 28.35L42.12 28.47L42.00 28.35Q40.02 26.49 33.90 26.34L33.96 26.40L33.89 26.33Q30.61 26.18 29.24 27.66L29.39 27.81L29.29 27.71Q28.65 28.97 28.68 30.87L28.67 30.85L28.60 30.79Q28.73 33.81 29.72 37.58L29.69 37.55L29.63 37.48Q30.38 39.99 31.30 40.94L31.29 40.94L31.56 41.21L31.70 41.35Q32.76 44.01 38.21 44.24L38.31 44.34L38.35 44.38Q39.35 44.39 41.18 44.08L41.07 43.98L41.13 44.04Q41.33 46.87 41.94 49.15ZM38.64 32.15L38.71 32.22L38.58 32.09Q39.78 32.22 40.62 32.53L40.65 32.56L40.63 32.54Q40.86 33.11 40.98 33.72L40.90 33.65L40.80 33.55Q40.97 34.17 40.89 34.78L40.84 34.72L40.87 34.76Q40.85 36.64 39.82 37.94L39.94 38.06L39.87 37.98Q38.75 39.45 36.89 39.26L36.88 39.26L36.95 39.33Q35.52 39.19 34.57 38.77L34.68 38.88L34.61 38.81Q34.24 37.99 34.24 36.77L34.20 36.73L34.22 36.75Q34.15 36.38 34.15 36.07L34.15 36.07L34.28 36.20Q34.22 34.39 35.56 33.23L35.64 33.31L35.65 33.33Q36.89 32.07 38.64 32.14Z"/><path fill="#68c0dd" d="M75.27 37.00L75.28 37.01L75.22 36.94Q76.27 37.77 77.68 37.62L77.74 37.68L77.67 37.61Q80.63 37.83 81.28 34.48L81.23 34.43L81.32 34.52Q81.98 31.41 81.98 28.02L82.02 28.06L81.98 25.43L81.86 25.31Q81.95 24.15 81.61 22.89L81.64 22.93L81.61 22.90Q80.40 25.22 78.42 29.98L78.41 29.97L78.46 30.02Q76.49 34.79 75.28 37.00ZM80.22 20.44L80.30 20.52L80.29 20.51Q79.02 19.58 77.68 19.58L77.82 19.72L77.75 19.64Q76.16 19.39 75.06 20.30L75.17 20.41L75.21 20.46Q74.08 21.34 73.89 22.83L73.86 22.80L73.91 22.85Q73.47 24.12 73.43 25.60L73.55 25.72L73.41 25.58Q73.55 25.72 73.55 28.57L73.56 28.59L73.48 28.51Q73.39 30.78 73.85 34.39L74.01 34.56L73.97 34.51Q75.88 29.77 80.26 20.48ZM81.80 39.26L81.74 39.21L81.81 39.27Q80.03 40.15 77.70 40.15L77.74 40.19L76.01 40.10L76.09 40.17Q72.92 40.24 71.78 38.53L71.61 38.36L71.76 38.52Q70.79 36.17 70.72 33.24L70.84 33.36L70.78 33.30Q70.67 31.49 70.60 28.02L70.73 28.15L70.70 28.13Q70.75 27.00 70.60 23.95L70.51 23.86L70.56 23.91Q70.38 21.53 70.69 19.55L70.69 19.55L70.67 19.53Q71.18 16.61 75.52 16.39L75.49 16.36L75.61 16.48Q76.39 16.45 77.72 16.49L77.59 16.36L77.61 16.38Q83.33 16.58 84.40 20.05L84.36 20.01L84.45 20.10Q84.99 21.94 84.95 23.80L85.04 23.89L85.05 23.90Q84.99 28.90 84.91 30.12L84.89 30.09L84.73 29.94Q84.55 33.75 84.25 35.05L84.42 35.22L84.23 35.03Q83.78 38.35 81.87 39.34ZM86.68 38.96L86.82 39.11L86.63 38.92Q87.02 36.30 86.98 34.51L86.96 34.48L86.87 29.87L86.79 29.79Q86.72 26.79 86.19 21.27L86.28 21.36L86.32 21.40Q85.62 19.41 84.33 18.65L84.47 18.79L84.31 18.63Q82.87 16.19 77.69 16.04L77.67 16.02L77.69 16.05Q76.79 15.98 75.46 16.02L75.52 16.08L75.41 15.97Q70.83 16.00 70.34 19.12L70.34 19.13L70.44 19.23Q70.05 21.53 70.16 23.63L70.24 23.70L70.12 23.59Q70.59 28.10 70.56 31.45L70.48 31.37L70.48 31.37Q70.41 35.03 70.53 36.06L70.52 36.06L70.63 36.17Q70.90 39.14 72.42 39.94L72.49 40.00L72.51 40.03Q73.96 42.20 77.96 42.46L77.96 42.46L77.85 42.36Q81.53 42.69 82.18 42.65L82.24 42.71L82.20 42.67Q85.09 42.55 86.23 40.96L86.06 40.79L86.12 40.84Q86.61 40.15 86.68 38.97ZM78.03 37.21L78.20 37.37L78.18 37.36Q78.72 35.76 79.78 33.06L79.78 33.06L81.49 28.83L81.56 28.90Q81.61 30.62 81.23 33.97L81.26 34.00L81.12 33.87Q80.53 36.81 78.13 37.31ZM76.20 25.06L76.20 25.06L76.17 25.03Q76.64 23.25 77.32 22.68L77.30 22.66L77.36 22.71Q77.71 22.19 79.00 22.00L79.04 22.03L78.98 21.97Q77.29 25.66 75.43 30.30L75.53 30.41L75.49 30.36Q75.50 27.67 76.19 25.05Z"/><path d="M6 23 C86 25,58 49,140 18" stroke="#ec59c7" fill="none"/></svg>