<svg xmlns="http://www.w3.org/2000/svg" width="150" height="50" viewBox="0,0,150,50"><rect width="100%" height="100%" fill="white"/><path fill="#8e3ae2" d="M92.38 28.72L92.37 28.71L92.45 28.79Q89.86 28.71 88.57 29.86L88.72 30.01L88.53 29.82Q87.26 31.22 87.45 33.73L87.35 33.62L87.42 33.69Q87.60 36.54 88.78 37.60L88.83 37.66L88.88 37.71Q90.40 39.03 92.49 38.88L92.44 38.83L92.36 38.74Q94.55 38.81 95.96 37.55L95.97 37.56L95.90 37.49Q97.17 36.29 97.36 33.74L97.45 33.83L97.50 33.88Q97.92 29.01 92.56 28.90ZM92.34 41.35L92.27 41.29L90.70 41.28L90.73 41.30Q87.91 41.34 86.42 39.93L86.33 39.84L86.43 39.94Q85.48 38.95 85.21 37.01L85.09 36.88L85.08 36.87Q84.98 35.82 84.82 33.61L84.81 33.60L84.82 33.60Q84.85 32.72 84.74 30.48L84.58 30.32L84.62 30.36Q84.53 28.49 85.48 27.34L85.47 27.32L85.46 27.32Q87.37 25.99 92.09 26.15L91.93 25.99L92.01 26.07Q96.88 26.18 98.71 27.70L98.74 27.73L98.78 27.77Q100.15 28.88 99.96 32.08L100.09 32.20L100.06 32.18Q99.90 35.79 99.83 36.20L99.71 36.09L99.81 36.19Q99.46 38.43 98.13 39.61L98.15 39.62L98.09 39.57Q96.08 41.29 92.27 41.29ZM96.99 43.72L97.05 43.78L96.94 43.67Q98.57 43.85 100.47 43.70L100.47 43.69L100.36 43.59Q100.95 43.60 100.95 43.45L100.81 43.32L100.92 43.43Q100.83 43.26 100.79 43.11L100.93 43.24L100.84 43.16Q100.83 43.03 100.83 42.91L100.83 42.92L100.89 42.98Q100.81 42.63 101.15 42.32L101.07 42.24L101.16 42.34Q101.97 41.12 101.97 39.22L102.05 39.31L102.04 39.29Q102.06 38.36 101.96 35.94L101.95 35.93L101.87 35.84Q101.80 33.46 101.65 32.36L101.65 32.36L101.63 32.33Q101.40 30.35 100.49 29.21L100.40 29.12L100.09 28.93L100.06 28.90Q99.92 28.26 99.12 27.35L99.19 27.42L99.14 27.37Q96.82 25.62 91.91 25.62L91.84 25.56L90.16 25.62L90.12 25.58Q86.90 25.67 85.19 27.05L85.17 27.03L85.19 27.05Q84.33 28.17 84.37 30.19L84.41 30.23L84.25 30.07Q84.41 30.65 84.54 31.90L84.55 31.91L84.49 31.85Q84.66 33.14 84.62 33.60L84.60 33.57L84.55 33.53Q84.79 36.59 84.87 37.05L84.84 37.02L84.88 37.06Q85.22 39.15 86.14 40.29L86.20 40.36L86.25 40.48L86.26 40.50Q87.09 42.96 90.83 43.38L90.94 43.50L90.84 43.40Q91.83 43.62 97.08 43.81ZM94.32 31.12L94.21 31.00L94.32 31.11Q95.21 31.17 96.89 31.70L96.90 31.71L96.84 31.66Q97.15 32.35 97.11 33.83L97.20 33.92L97.07 33.79Q97.02 37.31 94.12 38.07L94.21 38.16L94.10 38.05Q93.45 38.32 92.42 38.43L92.39 38.40L92.40 38.41Q91.33 38.44 89.62 37.83L89.61 37.83L89.73 37.94Q89.42 37.18 89.46 35.69L89.37 35.61L89.49 35.73Q89.47 33.31 90.84 32.28L90.89 32.33L90.87 32.31Q91.67 31.32 94.22 31.02Z"/><path d="M14 30 C58 46,75 40,144 21" stroke="#e38686" fill="none"/><path fill="#86e8e8" d="M75.31 29.71L75.21 29.61L75.15 29.55Q75.26 33.93 74.54 38.07L74.59 38.13L74.59 38.13Q76.81 37.53 79.90 37.42L79.94 37.46L79.80 37.32Q81.10 37.48 82.16 36.47L82.21 36.51L82.18 36.48Q83.40 35.63 83.40 34.29L83.30 34.19L83.40 34.30Q83.26 33.86 83.23 33.59L83.32 33.68L83.20 33.56Q83.19 30.77 80.94 29.94L80.85 29.84L80.96 29.96Q80.17 29.62 79.48 29.69L79.34 29.55L79.37 29.58Q78.37 29.57 77.34 29.61L77.34 29.61L77.36 29.63Q76.35 29.72 75.33 29.72ZM73.93 19.12L74.00 19.19L74.05 19.24Q74.95 22.57 75.22 26.95L75.15 26.88L75.11 26.84Q76.60 27.00 79.26 27.04L79.19 26.97L79.29 27.06Q82.14 27.02 82.48 23.48L82.56 23.56L82.59 23.59Q82.84 21.71 81.43 20.87L81.39 20.83L81.38 20.82Q80.51 20.33 76.09 19.68L76.01 19.60L75.99 19.58Q74.86 19.36 73.94 19.13ZM70.38 42.10L70.36 42.08L70.37 42.09Q72.86 35.45 72.60 28.06L72.48 27.95L72.66 28.12Q72.25 20.71 69.32 14.24L69.33 14.25L69.26 14.18Q73.18 16.84 79.40 17.09L79.36 17.05L79.42 17.10Q85.54 17.25 85.89 20.15L85.87 20.13L86.03 20.29Q86.37 23.07 84.97 25.74L84.89 25.66L84.87 25.64Q84.03 27.05 82.43 27.73L82.47 27.77L82.60 27.90Q86.14 28.48 86.37 33.84L86.36 33.83L86.36 33.83Q86.46 34.95 86.38 36.36L86.36 36.34L86.42 36.40Q86.30 37.66 85.37 38.59L85.37 38.59L85.44 38.66Q84.45 39.53 83.12 39.69L83.12 39.69L83.26 39.83Q81.72 39.85 80.65 39.85L80.63 39.82L80.75 39.95Q74.86 39.77 70.33 42.05ZM83.11 42.34L83.11 42.34L83.14 42.38Q84.06 42.42 85.93 42.54L86.04 42.65L86.04 42.65Q87.33 42.56 88.43 41.69L88.44 41.69L88.45 41.71Q89.36 40.91 89.25 39.35L89.12 39.22L89.20 39.29Q89.13 38.35 88.41 34.89L88.44 34.92L88.36 34.84Q87.65 31.58 85.78 30.09L85.74 30.05L85.33 29.22L85.40 29.29Q87.13 27.94 87.70 24.17L87.61 24.08L87.66 24.13Q87.73 22.90 87.65 21.49L87.81 21.65L87.82 21.66Q87.73 20.32 86.63 19.48L86.60 19.45L86.54 19.39Q86.25 19.22 86.14 19.18L86.05 19.09L86.18 19.22Q86.00 18.78 85.17 17.98L85.15 17.97L85.06 17.88Q83.46 16.73 79.24 16.54L79.23 16.53L79.34 16.64Q72.67 16.34 68.68 13.44L68.71 13.47L68.62 13.39Q71.93 20.43 72.24 27.97L72.31 28.04L72.27 28.01Q72.72 35.95 69.90 42.88L69.80 42.78L71.84 41.81L71.86 41.83Q71.42 42.91 70.93 44.05L70.90 44.03L70.89 44.02Q75.25 42.22 80.28 42.22L80.26 42.20L80.35 42.29Q81.62 42.15 83.06 42.30ZM80.95 31.78L81.05 31.87L80.95 31.77Q81.73 31.75 82.64 32.21L82.73 32.29L82.70 32.26Q82.73 32.52 82.88 33.59L83.00 33.70L83.02 33.72Q83.07 34.95 82.13 36.00L82.24 36.11L82.20 36.07Q81.22 37.07 79.82 36.96L79.85 36.99L78.27 37.01L78.40 37.14Q77.56 37.10 76.84 37.21L76.91 37.28L76.94 37.31Q77.12 35.37 77.20 31.90L77.22 31.92L77.23 31.93Q77.98 31.96 79.23 31.92L79.22 31.91L79.13 31.82Q80.36 31.75 80.97 31.79ZM79.92 22.18L79.98 22.23L80.41 22.29L80.30 22.17Q80.55 22.19 80.74 22.23L80.88 22.38L81.28 22.39L81.52 22.45L82.21 22.60L82.18 22.57Q82.20 22.74 82.20 23.05L82.16 23.01L82.13 23.51L82.23 23.61Q82.20 24.83 81.32 25.77L81.31 25.76L81.24 25.68Q80.56 26.81 79.34 26.81L79.20 26.67L79.20 26.67Q78.27 26.77 78.27 26.77L78.27 26.77L78.16 26.66Q76.83 26.62 77.17 26.62L77.13 26.58L77.24 26.69Q77.15 25.12 76.85 22.07L76.83 22.06L76.85 22.08Q78.45 22.23 79.97 22.23Z"/><path fill="#8ae98a" d="M13.55 39.92L13.52 39.89L13.43 39.80Q11.59 39.87 9.58 40.06L9.56 40.05L9.43 39.91Q10.15 34.74 10.15 29.90L10.07 29.82L10.21 29.96Q10.16 25.00 9.52 19.79L9.58 19.85L9.60 19.87Q4.97 19.43 1.77 17.75L1.69 17.67L0.94 15.89L1.12 16.08Q0.83 15.48 0.22 14.26L0.22 14.26L0.22 14.26Q5.26 16.90 11.27 17.09L11.36 17.18L11.24 17.05Q17.08 17.18 22.52 15.13L22.57 15.17L22.51 15.12Q21.85 16.59 21.21 18.42L21.34 18.55L21.31 18.52Q17.72 19.85 13.46 20.04L13.41 19.99L13.45 20.03Q13.10 24.89 13.10 29.84L13.23 29.97L13.21 29.95Q13.18 34.87 13.48 39.85ZM23.37 14.61L23.23 14.46L23.28 14.52Q17.50 16.84 11.29 16.65L11.19 16.55L11.23 16.59Q4.56 16.39-0.54 13.42L-0.56 13.40L-0.60 13.37Q0.33 14.82 1.62 18.10L1.62 18.10L1.53 18.01Q2.15 18.28 3.40 18.85L3.44 18.89L3.51 18.96Q3.76 19.66 4.10 21.19L4.13 21.22L4.10 21.18Q6.40 22.04 9.45 22.27L9.46 22.28L9.43 22.25Q9.76 25.89 9.76 29.66L9.77 29.67L9.86 29.76Q9.85 35.12 9.05 40.49L8.95 40.38L9.06 40.50Q10.65 40.29 11.18 40.29L11.25 40.36L11.13 40.24Q11.12 40.54 11.06 41.21L11.15 41.30L11.16 41.30Q11.09 41.96 11.09 42.30L11.03 42.24L11.03 42.24Q12.34 42.29 13.86 42.37L13.77 42.27L13.84 42.35Q14.60 42.23 16.42 42.38L16.44 42.40L16.51 42.46Q15.25 37.51 15.13 32.33L15.22 32.42L15.17 32.37Q14.98 27.00 15.51 22.09L15.54 22.12L15.57 22.15Q19.48 21.57 22.64 20.35L22.70 20.41L22.76 20.47Q23.39 18.01 24.41 15.95L24.36 15.90L24.39 15.93Q23.09 16.65 22.29 16.95L22.34 17.00L22.33 16.99Q22.65 15.60 23.22 14.46Z"/><path fill="#b5e188" d="M50.90 29.18L51.00 29.28L50.85 29.13Q49.09 29.23 47.87 30.57L47.82 30.52L47.81 30.50Q46.53 31.78 46.38 33.68L46.50 33.81L46.43 33.74Q46.22 35.84 47.44 36.85L47.57 36.99L47.52 36.93Q48.66 37.87 50.79 37.79L50.86 37.86L50.92 37.92Q53.25 37.77 54.20 36.82L54.02 36.64L54.19 36.81Q55.17 35.31 55.05 33.49L54.99 33.43L55.08 33.51Q54.97 31.65 53.89 30.46L53.85 30.42L53.83 30.40Q52.78 29.24 50.95 29.24ZM50.96 19.84L50.89 19.76L50.92 19.80Q49.46 19.63 48.12 20.12L48.10 20.10L48.22 20.22Q46.75 20.84 46.98 22.71L47.01 22.74L47.10 22.83Q47.61 26.58 50.96 26.58L50.91 26.53L50.90 26.51Q52.43 26.68 53.42 25.54L53.45 25.57L53.50 25.62Q54.49 24.47 54.53 22.91L54.54 22.92L54.54 22.92Q54.57 21.12 53.84 20.51L53.76 20.43L53.91 20.58Q52.18 19.69 50.88 19.76ZM50.58 40.28L50.54 40.25L47.63 40.38L47.57 40.32Q46.01 40.28 44.68 39.40L44.80 39.53L44.61 39.34Q43.36 38.31 43.51 35.46L43.54 35.49L43.41 35.35Q44.02 28.66 47.64 27.67L47.56 27.60L47.49 27.53Q45.35 26.75 44.02 21.39L43.89 21.26L43.84 21.21Q43.58 19.89 43.66 19.09L43.66 19.08L43.72 19.15Q44.04 17.03 47.73 16.99L47.71 16.97L47.60 16.86Q51.96 16.92 53.41 17.11L53.36 17.06L53.42 17.12Q57.10 17.49 57.56 19.51L57.61 19.56L57.58 19.53Q57.84 20.28 57.84 20.66L57.85 20.68L57.67 20.50Q57.79 21.30 57.60 21.91L57.57 21.88L57.62 21.93Q57.06 26.20 54.13 27.73L54.04 27.64L53.95 27.55Q57.60 28.49 58.09 33.78L58.07 33.76L58.09 33.78Q58.10 33.95 58.14 35.24L58.07 35.17L58.05 35.15Q58.06 37.82 56.46 38.89L56.52 38.95L56.58 39.01Q55.08 39.76 50.51 40.22ZM52.88 42.62L52.90 42.64L56.27 42.74L56.19 42.66Q57.85 42.68 59.38 41.96L59.47 42.05L59.45 42.03Q60.66 41.37 60.73 39.51L60.76 39.53L60.75 39.53Q60.67 38.30 60.29 36.36L60.33 36.40L60.42 36.50Q59.35 31.69 57.25 29.82L57.30 29.88L57.12 29.51L56.86 29.17L56.84 29.03L56.84 29.03Q58.47 27.65 59.38 23.50L59.34 23.46L59.45 23.57Q59.34 23.08 59.42 22.25L59.35 22.18L59.47 22.30Q59.42 21.49 59.35 20.88L59.41 20.94L59.41 20.94Q59.38 19.62 58.20 19.12L58.03 18.95L58.05 18.93L58.02 18.98L57.93 18.89Q57.61 18.11 56.43 17.31L56.49 17.38L56.58 17.42L56.48 17.33Q54.52 16.66 50.44 16.47L50.50 16.52L50.51 16.53Q48.97 16.44 47.60 16.55L47.54 16.49L47.57 16.52Q46.79 16.58 45.50 16.74L45.55 16.79L45.45 16.69Q43.44 17.00 43.21 18.64L43.39 18.81L43.28 18.71Q43.26 19.22 43.30 20.02L43.31 20.03L43.24 19.96Q43.37 20.50 43.94 22.87L43.97 22.90L44.06 22.98Q44.76 26.12 46.51 27.46L46.52 27.46L46.61 27.56L46.60 27.54Q43.89 28.91 43.36 34.09L43.26 33.99L43.20 33.93Q43.10 36.23 43.10 37.14L43.11 37.16L43.13 37.17Q43.23 38.99 44.41 39.90L44.41 39.90L44.45 39.94Q44.50 39.95 44.76 40.14L44.76 40.13L44.69 40.07Q45.67 42.31 52.79 42.53ZM52.61 31.61L52.48 31.49L52.48 31.49Q53.48 31.50 54.36 31.95L54.28 31.88L54.28 31.88Q54.73 32.94 54.70 33.47L54.75 33.53L54.77 33.54Q54.64 33.68 54.64 33.98L54.77 34.12L54.70 34.05Q54.80 36.51 52.52 37.35L52.45 37.28L52.37 37.20Q51.65 37.58 50.85 37.47L50.73 37.35L50.85 37.47Q49.74 37.57 48.59 37.12L48.60 37.12L48.52 37.04Q48.41 36.55 48.49 35.56L48.42 35.49L48.35 35.43Q48.51 33.83 49.71 32.62L49.65 32.56L49.77 32.68Q50.88 31.37 52.48 31.48ZM52.82 22.11L52.77 22.07L52.83 22.12Q53.67 22.05 54.20 22.20L54.01 22.02L54.04 22.85L54.19 22.99Q54.07 24.28 53.15 25.29L53.10 25.23L53.26 25.39Q52.25 26.31 50.88 26.12L50.92 26.16L50.90 26.14Q49.90 26.13 49.48 25.90L49.57 25.98L49.56 25.98Q49.53 25.72 49.42 25.03L49.37 24.99L49.27 24.89Q49.03 23.51 50.25 22.67L50.39 22.81L50.36 22.78Q51.38 22.04 52.78 22.08Z"/><path fill="#f0d37f" d="M104.45 29.71L104.42 29.68L104.39 29.66Q100.32 29.58 99.75 32.63L99.66 32.54L99.70 32.57Q99.46 33.59 99.65 34.47L99.70 34.52L99.79 34.61Q99.70 35.28 100.15 36.69L100.23 36.76L100.20 36.74Q101.35 39.98 104.66 39.82L104.56 39.72L104.56 39.72Q106.62 39.84 107.96 38.28L107.86 38.19L107.93 38.26Q109.07 36.70 109.07 34.64L109.11 34.68L109.23 34.80Q109.34 34.18 109.18 33.11L109.11 33.04L109.09 33.02Q109.11 32.20 108.69 31.52L108.66 31.49L108.57 31.40Q107.03 29.82 104.44 29.70ZM109.32 48.22L109.36 48.25L109.28 48.17Q107.53 48.82 99.46 49.20L99.45 49.19L99.46 49.20Q97.62 49.12 95.99 48.28L95.98 48.28L96.16 48.45Q96.98 47.48 98.81 45.69L98.83 45.71L98.80 45.69Q101.16 46.68 103.26 46.49L103.21 46.44L103.29 46.52Q106.08 46.15 106.92 45.88L106.89 45.86L106.93 45.90Q109.26 45.30 109.26 43.51L109.14 43.39L109.17 43.42Q109.27 43.29 109.19 43.06L109.17 43.03L108.97 41.35L109.05 41.43Q109.08 40.70 109.08 39.90L108.95 39.77L109.07 39.89Q107.57 42.01 104.19 42.01L104.19 42.02L104.20 42.02Q100.42 42.13 98.78 39.92L98.70 39.84L98.73 39.87Q97.63 38.34 96.83 33.93L96.91 34.01L96.76 33.86Q96.59 32.47 96.59 31.06L96.53 31.00L96.50 30.98Q96.52 29.20 97.43 28.21L97.40 28.19L97.50 28.29Q99.15 26.85 103.79 26.85L103.80 26.85L105.53 27.03L105.61 27.10Q108.78 27.42 110.11 29.36L110.14 29.39L110.13 29.38Q110.34 28.56 110.76 26.93L110.76 26.92L110.57 26.73Q112.55 26.51 114.30 25.78L114.22 25.70L114.21 25.69Q111.57 31.81 111.57 39.04L111.65 39.12L111.60 39.07Q111.59 41.72 111.97 44.35L112.05 44.43L112.02 44.41Q112.08 44.96 112.01 45.65L112.14 45.78L112.03 45.67Q111.81 47.01 110.60 47.78L110.76 47.94L110.66 47.83Q110.16 48.10 109.32 48.21ZM112.33 51.18L112.32 51.17L112.37 51.22Q113.70 51.14 114.46 50.19L114.58 50.32L114.47 50.21Q114.79 49.23 114.68 48.51L114.68 48.50L114.83 48.66Q114.60 47.90 114.41 47.14L114.46 47.18L114.57 47.29Q113.17 41.90 113.51 36.64L113.51 36.64L113.60 36.73Q113.91 31.25 116.04 26.42L116.08 26.45L114.06 27.49L113.99 27.41Q114.13 26.71 114.36 26.14L114.36 26.14L114.86 25.01L114.89 25.04Q112.48 25.94 110.27 26.36L110.41 26.50L110.44 26.53Q110.00 27.27 109.85 28.30L109.81 28.26L110.00 28.44Q107.87 26.51 103.83 26.51L103.76 26.44L101.91 26.33L101.96 26.38Q98.81 26.47 97.14 27.88L97.04 27.79L97.13 27.87Q96.20 28.84 96.23 30.75L96.30 30.81L96.12 30.64Q96.35 33.30 97.37 37.56L97.30 37.49L97.33 37.52Q97.72 39.35 98.94 40.76L99.02 40.85L99.31 41.14L99.28 41.10L99.38 41.20Q100.52 43.52 103.11 44.06L102.98 43.93L103.11 44.05Q104.40 44.25 105.85 44.29L105.89 44.32L105.85 44.29Q107.57 44.29 108.64 43.91L108.73 44.00L108.66 43.94Q108.19 45.64 105.53 45.98L105.46 45.91L105.43 45.88Q104.48 46.15 103.79 46.15L103.71 46.07L103.31 46.05L103.23 45.96Q100.60 46.15 98.92 45.20L98.83 45.10L97.12 46.83L97.02 46.72Q96.27 47.65 95.43 48.60L95.52 48.68L95.47 48.64Q96.38 49.09 97.37 49.28L97.50 49.41L96.58 50.24L96.44 50.11Q99.15 51.17 104.78 51.17L104.82 51.21L105.15 51.32L105.14 51.30Q108.70 51.24 112.27 51.13ZM106.43 32.11L106.29 31.97L106.35 32.03Q107.57 31.88 108.49 32.30L108.53 32.35L108.51 32.32Q108.68 32.81 108.76 33.49L108.78 33.51L108.79 33.52Q108.83 33.83 108.80 34.74L108.93 34.87L108.77 34.72Q108.67 36.60 107.57 37.89L107.67 38.00L107.60 37.93Q106.42 39.34 104.52 39.30L104.49 39.27L104.62 39.40Q103.11 39.26 102.27 38.84L102.35 38.91L102.33 38.90Q101.88 37.69 101.84 36.66L101.91 36.73L101.82 36.64Q101.82 32.41 106.42 32.10Z"/><path fill="#7272e3" d="M33.54 32.97L33.53 32.96L33.57 33.00Q36.59 32.55 39.79 32.67L39.88 32.76L39.90 32.78Q39.72 30.09 39.72 27.69L39.67 27.64L39.75 27.71Q39.84 25.33 40.03 22.78L39.91 22.66L40.05 22.80Q38.68 24.36 33.46 32.89ZM43.50 40.37L43.34 40.22L43.50 40.38Q41.78 40.02 39.99 39.95L40.01 39.97L39.92 39.88Q39.82 37.61 39.70 35.13L39.66 35.09L39.68 35.11Q34.41 34.98 29.69 36.38L29.57 36.26L29.54 36.24Q29.82 35.91 30.01 34.92L29.93 34.84L30.00 34.90Q31.78 31.74 35.36 25.46L35.33 25.43L35.36 25.46Q38.18 20.51 41.60 16.63L41.61 16.64L41.55 16.57Q42.51 16.47 44.19 16.20L44.20 16.21L44.19 16.20Q42.28 22.63 42.28 29.67L42.32 29.71L42.21 29.60Q42.22 31.10 42.29 32.58L42.42 32.71L43.68 32.79L43.62 32.73Q44.29 32.83 44.90 32.95L44.76 32.80L44.84 32.88Q45.01 33.93 45.28 35.87L45.28 35.87L45.16 35.75Q43.91 35.46 42.43 35.27L42.55 35.39L42.52 35.36Q42.66 37.28 43.34 40.22ZM45.12 32.51L45.17 32.57L45.13 32.53Q44.90 32.41 44.71 32.41L44.63 32.34L44.42 32.50L44.28 32.37Q44.28 30.99 44.28 29.58L44.23 29.54L44.23 29.53Q44.13 23.04 46.19 17.03L46.23 17.06L46.21 17.05Q45.62 17.48 44.17 17.86L44.05 17.74L44.13 17.82Q44.21 16.92 44.67 15.51L44.85 15.68L44.75 15.59Q43.44 15.95 41.38 16.18L41.35 16.14L41.41 16.20Q37.44 20.50 32.23 29.86L32.31 29.95L34.32 26.21L34.41 26.30Q33.99 27.32 33.72 27.90L33.78 27.95L29.30 36.95L29.24 36.89Q29.96 36.81 31.10 36.43L31.05 36.38L30.79 36.50L30.84 36.55Q30.70 37.20 30.39 38.46L30.53 38.60L30.54 38.61Q34.55 37.18 39.39 37.37L39.33 37.31L39.36 37.34Q39.47 38.37 39.66 40.35L39.66 40.34L39.64 40.33Q40.70 40.31 41.76 40.43L41.66 40.33L41.69 40.36Q41.92 41.12 42.19 42.49L42.26 42.57L42.24 42.54Q44.17 42.80 47.18 43.71L47.01 43.54L47.09 43.62Q46.01 41.40 45.09 38.12L45.13 38.16L46.58 38.62L46.66 38.70Q47.24 38.82 47.93 39.17L48.04 39.28L48.09 39.33Q47.18 36.71 47.03 35.03L46.95 34.96L47.05 35.06Q46.53 34.95 45.39 34.73L45.37 34.71L45.35 34.68Q45.12 33.40 45.12 32.52ZM37.18 32.42L37.04 32.27L37.09 32.33Q37.97 31.15 39.53 28.60L39.49 28.56L39.37 28.45Q39.39 29.41 39.35 30.36L39.40 30.41L39.47 30.48Q39.39 31.39 39.42 32.34L39.50 32.41L39.35 32.27Q38.87 32.32 38.30 32.32L38.28 32.30L38.36 32.38Q37.75 32.38 37.14 32.38Z"/><path d="M12 22 C66 25,58 45,135 29" stroke="#6c87da" fill="none"/><path fill="#d656d6" d="M62.22 14.12L62.12 14.03L62.13 14.03Q63.02 15.99 64.70 16.33L64.70 16.34L64.77 16.41Q65.23 16.44 65.91 16.25L66.03 16.37L65.99 16.33Q65.86 22.33 65.78 28.19L65.62 28.03L65.63 28.04Q65.74 33.97 65.97 39.91L65.85 39.79L65.81 39.76Q65.62 39.79 65.32 39.79L65.36 39.84L65.34 39.82Q63.71 39.75 62.41 41.57L62.51 41.67L62.48 41.64Q63.14 34.68 63.10 27.83L63.13 27.86L63.17 27.90Q63.07 20.99 62.23 14.13ZM62.13 42.85L61.97 42.69L62.01 42.73Q63.17 40.99 64.23 40.54L64.24 40.54L64.29 40.59Q64.11 41.52 64.11 42.51L64.06 42.46L64.12 42.52Q64.94 42.23 65.74 42.34L65.71 42.32L65.60 42.21Q67.64 42.54 68.86 45.24L68.90 45.29L68.94 45.32Q67.59 37.62 67.59 30.15L67.75 30.31L67.78 30.34Q67.64 22.47 68.48 15.16L68.57 15.26L68.49 15.17Q67.60 17.18 66.46 17.79L66.48 17.82L66.31 17.64Q66.30 16.61 66.38 15.54L66.55 15.71L66.51 15.67Q65.58 16.03 64.82 15.88L64.94 16.01L64.92 15.99Q62.67 15.52 61.68 12.67L61.73 12.72L61.76 12.75Q62.65 20.11 62.73 27.65L62.91 27.84L62.72 27.65Q62.93 35.24 62.05 42.77Z"/><path fill="#87baec" d="M34.65 23.07L34.73 23.15L34.56 22.98Q32.74 25.69 30.07 31.32L30.21 31.46L28.20 35.70L28.08 35.57Q27.26 37.53 25.93 39.78L25.87 39.72L25.94 39.79Q26.35 39.75 24.68 39.79L24.80 39.91L24.66 39.76Q24.72 39.83 23.47 39.83L23.53 39.90L23.51 39.88Q22.70 38.30 19.77 31.14L19.74 31.12L19.85 31.23Q17.58 25.76 15.48 22.75L15.58 22.84L15.66 22.92Q16.37 25.95 16.37 29.11L16.38 29.12L16.27 29.02Q16.25 35.51 13.28 41.07L13.43 41.21L13.42 41.20Q11.94 41.40 9.58 42.13L9.57 42.11L9.65 42.19Q13.45 36.63 13.45 29.39L13.45 29.40L13.36 29.30Q13.28 20.28 7.87 13.31L7.94 13.38L8.01 13.44Q9.68 14.20 12.04 14.89L11.92 14.77L11.88 14.73Q18.91 21.45 25.00 34.78L25.18 34.96L25.06 34.84Q28.50 27.77 30.71 24.27L30.81 24.37L30.82 24.38Q34.28 18.47 38.24 15.01L38.38 15.16L38.40 15.17Q39.67 14.95 42.03 14.19L42.01 14.18L41.97 14.13Q36.98 20.75 36.98 29.36L37.01 29.39L36.87 29.25Q36.89 35.93 40.32 41.45L40.41 41.55L40.40 41.54Q38.98 41.15 36.24 40.54L36.25 40.54L36.33 40.63Q33.94 35.80 33.94 29.83L33.88 29.76L33.96 29.84Q33.94 26.40 34.63 23.05ZM36.22 41.09L36.07 40.94L36.10 40.97Q36.78 41.08 38.23 41.35L38.22 41.34L38.32 41.44Q38.80 42.22 39.75 43.70L39.65 43.60L39.62 43.58Q41.87 44.11 45.33 45.33L45.25 45.25L45.16 45.16Q39.02 38.94 39.02 29.12L38.99 29.09L39.06 29.15Q38.95 21.32 43.33 15.19L43.40 15.26L41.18 15.94L41.21 15.96Q42.10 14.30 42.75 13.43L42.83 13.51L42.87 13.55Q41.00 14.19 38.37 14.72L38.40 14.75L38.26 14.61Q31.51 20.73 25.46 33.33L25.57 33.45L25.40 33.28Q20.39 22.48 15.44 17.23L15.39 17.18L15.40 17.18Q15.08 17.17 14.51 17.05L14.42 16.96L13.20 15.67L13.22 15.69Q12.72 15.11 12.04 14.51L11.95 14.42L11.96 14.42Q8.84 13.36 7.05 12.64L7.10 12.69L7.14 12.73Q13.13 19.94 13.13 29.35L13.04 29.25L13.16 29.38Q13.14 36.97 8.99 42.83L9.00 42.84L8.91 42.75Q9.71 42.64 11.01 42.22L10.92 42.13L10.92 42.14Q10.87 42.46 9.46 44.55L9.49 44.59L9.37 44.46Q11.09 43.90 14.60 43.14L14.73 43.28L14.78 43.33Q18.34 36.11 18.15 28.35L18.29 28.49L18.13 28.33Q19.70 32.37 23.17 40.25L23.17 40.26L23.17 40.26Q23.54 40.32 23.77 40.32L23.71 40.27L24.26 40.28L24.16 40.18Q24.68 40.93 25.48 42.22L25.53 42.28L25.55 42.30Q27.09 42.20 27.09 42.20L27.07 42.18L27.06 42.17Q28.09 42.17 28.74 42.25L28.65 42.15L28.76 42.27Q30.23 38.15 33.58 30.15L33.72 30.29L33.56 30.12Q33.55 35.68 36.14 41.01Z"/><path d="M2 37 C77 21,91 8,144 2" stroke="#8e43d9" fill="none"/><path fill="#75e5e5" d="M119.08 41.43L119.04 41.39L119.05 41.40Q116.17 41.57 114.91 41.04L114.94 41.07L114.79 40.91Q113.01 40.27 113.09 37.80L112.92 37.64L112.96 37.68Q113.08 34.25 113.08 34.82L113.25 34.99L113.13 34.87Q113.23 29.65 110.38 24.81L110.37 24.80L110.30 24.73Q112.30 25.70 114.28 26.08L114.30 26.11L114.29 26.10Q115.87 30.57 115.76 35.07L115.86 35.17L115.89 35.20Q115.69 36.63 116.52 37.85L116.50 37.83L116.53 37.86Q117.36 39.11 118.89 38.92L118.98 39.01L119.31 38.84L119.36 38.90Q120.65 38.78 121.47 38.02L121.45 38.00L121.43 37.97Q122.32 37.29 122.32 36.34L122.27 36.29L122.27 36.28Q122.38 36.17 122.34 35.98L122.34 35.97L122.33 35.97Q122.17 30.63 123.32 26.29L123.34 26.31L123.26 26.24Q124.31 26.18 125.30 25.95L125.47 26.13L127.38 25.52L127.31 25.45Q124.88 30.60 125.19 36.16L125.08 36.05L125.05 36.02Q125.34 39.20 123.63 40.35L123.71 40.43L123.57 40.28Q122.30 41.19 118.98 41.34ZM121.39 43.82L121.35 43.78L121.42 43.85Q124.80 43.92 126.63 43.16L126.67 43.20L126.69 43.22Q127.56 42.42 127.56 41.01L127.58 41.02L127.54 40.99Q127.49 40.03 127.23 38.47L127.24 38.48L127.24 38.48Q126.75 35.32 127.13 32.32L127.23 32.41L127.27 32.45Q127.59 29.23 128.99 26.49L128.94 26.43L128.98 26.48Q128.30 26.74 126.96 27.16L127.03 27.23L126.93 27.13Q127.16 26.52 127.46 25.95L127.58 26.06L128.09 24.86L128.11 24.88Q126.21 25.57 123.05 26.07L123.07 26.08L123.09 26.11Q121.83 30.86 121.98 35.96L121.94 35.92L121.86 35.84Q122.01 38.00 119.34 38.50L119.45 38.60L118.93 38.55L118.95 38.72L117.95 38.51L117.91 38.48Q117.80 37.56 117.83 37.07L117.79 37.02L117.90 37.13Q117.98 32.49 117.30 28.08L117.31 28.09L116.31 28.01L116.28 27.97Q115.81 28.00 115.28 27.89L115.16 27.76L115.27 27.88Q114.83 26.41 114.56 25.65L114.54 25.63L114.51 25.60Q111.86 25.31 109.62 24.01L109.54 23.94L109.50 23.89Q111.63 27.40 112.36 30.79L112.51 30.95L112.39 30.82Q112.88 33.02 112.73 36.53L112.74 36.54L112.75 36.55Q112.80 36.71 112.72 37.81L112.64 37.74L112.71 37.81Q112.56 40.17 113.93 41.12L114.01 41.20L113.94 41.13Q114.25 43.31 121.26 43.69Z"/><path fill="#eac24c" d="M130.57 39.92L130.54 39.90L130.63 39.99Q126.43 39.40 124.60 37.96L124.65 38.00L124.64 37.99Q122.70 36.44 122.29 33.43L122.36 33.51L122.26 33.40Q122.27 33.08 121.93 28.32L121.91 28.30L121.93 28.32Q122.00 27.17 121.93 25.92L121.91 25.90L121.98 25.97Q121.74 20.86 123.95 19.11L123.90 19.06L124.04 19.20Q126.69 17.08 134.45 16.40L134.42 16.37L134.36 16.31Q135.76 16.23 137.40 16.26L137.29 16.15L137.27 16.13Q137.30 16.16 140.27 16.16L140.24 16.14L140.23 16.12Q141.16 16.21 142.87 16.37L142.89 16.38L142.87 16.37Q142.29 17.24 141.27 20.32L141.24 20.30L141.38 20.44Q139.15 19.08 136.15 19.08L136.30 19.24L136.21 19.14Q135.55 19.25 134.76 19.33L134.68 19.26L134.61 19.18Q129.66 19.79 127.15 21.77L127.00 21.62L126.99 21.61Q125.11 23.35 124.95 26.70L124.90 26.65L124.94 26.68Q124.86 27.25 124.90 28.51L124.99 28.59L124.93 28.54Q124.98 33.30 127.37 35.40L127.38 35.41L127.48 35.50Q129.55 37.35 134.54 37.65L134.58 37.69L134.65 37.76Q137.69 37.83 140.69 36.04L140.70 36.05L140.70 36.04Q141.21 38.69 141.82 40.06L141.87 40.11L142.00 40.24Q139.81 40.41 138.17 40.37L138.20 40.40L138.20 40.40Q133.75 40.36 130.62 39.98ZM145.59 43.56L145.75 43.72L145.67 43.64Q143.88 40.63 143.19 38.04L143.27 38.12L143.25 38.10Q142.83 38.37 141.84 38.75L141.73 38.63L141.73 38.63Q141.36 37.81 141.17 36.97L141.22 37.02L140.97 35.44L140.91 35.38Q137.60 37.40 134.48 37.29L134.45 37.26L134.44 37.25Q130.29 37.17 127.96 35.42L127.95 35.40L127.89 35.34Q126.81 33.58 126.88 30.64L126.93 30.69L126.92 30.68Q127.03 26.15 129.51 24.02L129.43 23.94L129.52 24.03Q131.66 22.13 136.34 21.52L136.36 21.54L136.25 21.43Q137.12 21.39 137.84 21.39L137.84 21.39L137.71 21.26Q140.68 21.44 142.77 22.97L142.73 22.92L142.61 22.80Q143.14 20.70 144.36 17.47L144.47 17.58L144.34 17.46Q144.06 17.44 143.51 17.38L143.50 17.37L143.60 17.48Q143.11 17.48 142.84 17.48L142.84 17.48L142.74 17.38Q143.03 16.95 143.49 15.96L143.35 15.81L143.45 15.92Q143.14 15.84 140.65 15.76L140.62 15.74L140.76 15.87Q138.09 15.62 137.44 15.66L137.51 15.73L137.52 15.74Q126.97 16.03 123.50 18.62L123.56 18.68L123.62 18.74Q121.55 20.52 121.55 24.44L121.49 24.37L121.45 24.33Q121.52 25.50 121.63 28.21L121.66 28.24L121.58 28.15Q121.70 31.71 121.93 33.42L121.92 33.40L121.96 33.44Q122.37 36.60 123.97 38.12L124.02 38.17L123.90 38.05Q124.47 38.81 125.72 39.95L125.79 40.02L125.77 40.00Q129.07 41.81 134.32 42.57L134.28 42.54L134.35 42.60Q140.76 43.53 145.74 43.72Z"/></svg>