<svg xmlns="http://www.w3.org/2000/svg" width="150" height="50" viewBox="0,0,150,50"><rect width="100%" height="100%" fill="white"/><path fill="#7e98e6" d="M103.40 25.06L103.35 25.01L103.37 25.03Q104.20 25.33 106.18 25.33L106.19 25.34L106.32 32.63L106.20 32.51Q106.30 36.84 106.42 39.73L106.40 39.72L106.48 39.79Q106.17 39.72 105.79 39.72L105.68 39.60L105.68 39.61Q104.16 39.53 102.71 40.86L102.71 40.86L102.87 41.02Q103.57 33.31 103.38 25.05ZM103.46 19.80L102.29 17.10L102.40 17.21Q103.75 15.97 104.47 15.02L104.49 15.04L104.52 15.07Q105.62 16.97 107.03 18.65L107.01 18.62L107.08 18.70Q106.20 20.14 104.83 22.27L104.89 22.33L104.91 22.35Q104.08 21.18 103.51 19.84L103.50 19.83ZM102.36 41.92L102.17 41.73L102.36 41.92Q103.23 40.70 104.49 40.20L104.55 40.26L104.53 40.24Q104.61 41.01 104.50 42.38L104.43 42.31L104.39 42.27Q105.17 42.14 105.82 42.14L105.80 42.12L105.72 42.04Q107.91 42.02 109.32 44.00L109.41 44.10L109.30 43.99Q108.14 36.73 108.21 26.57L108.23 26.58L108.09 26.44Q107.37 26.68 106.53 26.79L106.55 26.81L106.62 25.01L106.65 25.04Q105.58 25.12 104.79 25.04L104.76 25.02L104.81 25.06Q103.83 24.85 102.95 24.35L102.98 24.38L103.02 24.42Q103.08 26.39 103.08 28.44L103.17 28.53L103.20 28.56Q103.07 35.47 102.20 41.75ZM104.87 22.92L104.80 22.85L105.00 22.67L105.08 22.44L105.09 22.46Q105.61 23.36 106.64 24.84L106.64 24.84L106.52 24.72Q107.92 22.43 109.25 18.89L109.33 18.96L109.26 18.89Q108.44 18.19 106.88 16.59L106.88 16.59L106.78 16.49Q106.74 16.75 106.47 17.21L106.45 17.19L106.38 17.12Q105.36 15.79 104.44 14.34L104.61 14.52L104.46 14.36Q103.06 16.04 101.88 16.39L101.96 16.47L102.02 16.53Q103.11 19.98 104.93 22.98Z"/><path fill="#d9b64e" d="M115.36 30.62L115.38 30.63L115.45 30.71Q115.36 30.61 118.74 30.57L118.67 30.50L118.74 30.57Q120.98 30.52 122.05 30.56L122.13 30.65L121.99 30.51Q120.99 27.67 118.55 22.04L118.57 22.06L118.54 22.04Q118.06 23.53 117.01 26.38L117.05 26.42L116.93 26.30Q115.98 29.25 115.41 30.66ZM123.32 33.20L123.29 33.18L123.13 33.01Q120.86 32.99 118.65 33.03L118.66 33.04L118.79 33.17Q116.52 33.18 114.24 33.37L114.17 33.31L114.16 33.30Q112.67 36.75 109.43 40.94L109.43 40.94L109.49 41.00Q106.86 41.57 105.49 42.07L105.49 42.07L105.55 42.12Q110.57 36.37 115.25 23.01L115.35 23.10L115.27 23.03Q116.55 19.62 117.92 16.38L117.81 16.27L117.88 16.35Q118.31 16.48 118.66 16.48L118.59 16.41L119.21 16.31L119.34 16.44Q120.09 17.80 124.93 29.45L124.86 29.38L124.92 29.44Q128.14 37.23 132.14 41.38L132.03 41.27L132.10 41.33Q131.58 41.20 127.70 40.32L127.76 40.39L127.68 40.31Q125.13 37.19 123.15 33.04ZM127.60 40.64L127.60 40.65L128.27 40.82L128.23 40.78Q128.48 40.80 128.78 40.91L128.83 40.97L128.79 40.92Q129.22 41.39 131.05 43.41L131.05 43.41L130.95 43.31Q134.63 44.25 137.02 45.27L137.09 45.34L136.99 45.24Q131.58 40.79 127.59 32.79L127.59 32.79L127.52 32.73Q125.81 29.34 124.36 25.38L124.49 25.50L121.62 17.87L121.76 18.01Q121.37 17.97 121.14 17.97L121.25 18.08L120.65 18.01L120.66 18.02Q120.38 17.43 119.65 16.06L119.57 15.97L119.55 15.95Q119.04 15.98 118.58 15.94L118.58 15.94L118.52 15.88Q118.23 16.01 117.70 16.01L117.67 15.99L117.61 15.93Q116.31 19.95 112.42 30.11L112.41 30.10L112.32 30.01Q109.12 37.89 104.47 42.68L104.67 42.88L104.52 42.73Q105.55 42.32 107.57 41.71L107.62 41.75L107.60 41.73Q106.76 42.53 105.20 44.32L105.21 44.33L105.34 44.46Q107.09 43.85 111.01 43.09L110.87 42.95L110.92 43.00Q114.32 38.63 115.88 35.40L115.92 35.44L115.86 35.38Q117.71 35.36 120.03 35.40L119.96 35.33L119.95 35.32Q122.60 35.26 123.97 35.34L124.02 35.39L124.14 35.51Q125.36 37.83 127.72 40.76ZM119.89 25.97L120.03 26.11L120.04 26.12Q120.80 28.10 121.56 30.19L121.51 30.14L118.28 30.22L118.37 30.31Q118.94 28.86 120.01 26.09Z"/><path fill="#4fe24f" d="M125.81 49.58L125.81 49.57L125.86 49.62Q128.83 45.82 131.72 39.62L131.64 39.53L131.63 39.52Q128.56 33.02 122.47 24.95L122.52 25.01L122.35 24.83Q124.28 26.00 127.05 26.65L127.03 26.62L127.22 26.81Q130.74 31.48 133.18 36.69L133.10 36.62L133.11 36.62Q135.24 31.29 138.32 26.87L138.26 26.81L138.35 26.91Q140.50 26.50 142.59 25.70L142.68 25.79L142.69 25.80Q139.32 29.66 135.85 37.08L135.80 37.03L132.94 43.00L133.02 43.08Q131.54 46.17 129.79 48.80L129.66 48.66L129.66 48.66Q127.30 49.08 125.85 49.62ZM132.02 50.95L132.02 50.95L132.13 51.06Q133.75 48.08 135.20 44.80L135.29 44.89L137.85 38.40L138.03 38.58Q141.54 30.54 144.85 26.55L144.77 26.47L144.83 26.53Q143.46 27.18 141.56 27.86L141.58 27.89L142.46 26.32L142.60 26.47Q143.15 25.77 143.76 25.08L143.72 25.04L143.78 25.10Q141.01 26.06 138.16 26.52L138.07 26.43L138.14 26.50Q135.41 30.43 133.46 34.88L133.43 34.84L133.42 34.84Q131.81 31.55 130.02 28.73L130.11 28.83L130.14 28.86Q129.87 28.78 129.51 28.74L129.59 28.82L129.56 28.79Q129.18 28.73 128.99 28.73L128.98 28.73L128.99 28.73Q128.16 27.41 127.21 26.27L127.19 26.25L127.22 26.28Q124.08 25.65 121.34 23.94L121.34 23.93L121.41 24.01Q127.51 31.86 131.20 39.47L131.33 39.60L131.32 39.59Q129.07 44.57 124.99 50.21L124.97 50.18L124.95 50.16Q125.93 50.03 126.73 49.88L126.72 49.88L128.35 49.53L128.19 49.36Q127.59 50.10 126.41 51.74L126.39 51.71L126.55 51.87Q128.72 51.16 132.00 50.93Z"/><path fill="#50d772" d="M11.34 41.33L11.46 41.45L11.32 41.31Q8.48 41.51 7.22 40.98L7.29 41.05L7.13 40.89Q5.23 40.13 5.31 37.66L5.33 37.68L5.45 37.80Q5.60 34.41 5.60 34.98L5.53 34.91L5.45 34.83Q5.50 29.55 2.64 24.71L2.66 24.73L2.62 24.69Q4.56 25.61 6.54 25.99L6.56 26.00L6.60 26.04Q8.36 30.70 8.25 35.19L8.28 35.23L8.21 35.15Q8.16 36.74 9.00 37.96L8.87 37.83L8.98 37.95Q9.75 39.13 11.27 38.94L11.27 38.93L11.71 38.88L11.77 38.94Q13.01 38.78 13.83 38.02L13.91 38.09L13.88 38.06Q14.62 37.23 14.62 36.28L14.63 36.29L14.62 36.28Q14.77 36.19 14.73 36.00L14.59 35.86L14.55 35.83Q14.51 30.61 15.65 26.27L15.74 26.35L15.73 26.34Q16.84 26.34 17.83 26.12L17.68 25.97L19.75 25.53L19.66 25.44Q17.15 30.51 17.46 36.07L17.51 36.11L17.58 36.18Q17.62 39.13 15.91 40.27L15.92 40.27L16.08 40.43Q14.71 41.24 11.40 41.39ZM13.72 43.78L13.61 43.68L13.75 43.81Q17.10 43.86 18.93 43.10L18.98 43.14L19.07 43.23Q19.88 42.37 19.88 40.96L19.82 40.90L19.99 41.07Q19.81 39.98 19.55 38.42L19.69 38.56L19.67 38.55Q19.26 35.47 19.64 32.47L19.48 32.31L19.60 32.43Q19.86 29.14 21.27 26.40L21.36 26.49L21.44 26.57Q20.70 26.79 19.37 27.21L19.32 27.15L19.33 27.17Q19.52 26.51 19.82 25.94L19.88 26.00L20.49 24.90L20.53 24.94Q18.63 25.63 15.47 26.12L15.47 26.12L15.33 25.98Q14.15 30.81 14.30 35.91L14.37 35.98L14.40 36.01Q14.34 37.97 11.68 38.47L11.74 38.53L11.28 38.53L11.16 38.56L10.22 38.42L10.26 38.46Q10.13 37.53 10.17 37.04L10.14 37.00L10.14 37.01Q10.31 32.45 9.62 28.04L9.74 28.16L8.71 28.04L8.68 28.01Q8.13 27.95 7.59 27.84L7.64 27.89L7.68 27.92Q7.14 26.36 6.87 25.60L6.93 25.65L6.90 25.62Q4.23 25.32 1.99 24.02L1.96 23.99L1.91 23.95Q4.12 27.52 4.84 30.91L4.83 30.90L4.80 30.87Q5.35 33.13 5.20 36.63L5.16 36.60L5.08 36.52Q5.19 36.75 5.12 37.85L5.05 37.78L5.07 37.80Q5.04 40.28 6.41 41.23L6.24 41.06L6.26 41.08Q6.78 43.47 13.78 43.85Z"/><path fill="#bedd64" d="M84.35 28.61L84.48 28.74L78.57 28.80L78.62 28.85Q75.58 28.78 72.65 28.70L72.76 28.82L72.77 28.83Q72.83 35.47 70.78 40.99L70.83 41.05L70.77 40.98Q68.82 41.36 67.07 42.04L67.14 42.11L67.17 42.15Q69.98 36.47 69.98 29.81L69.90 29.72L69.96 29.78Q69.89 21.22 65.78 14.18L65.91 14.31L65.92 14.32Q67.42 15.10 69.89 15.90L69.84 15.85L69.74 15.74Q71.87 20.80 72.40 25.67L72.54 25.81L72.45 25.73Q75.74 26.24 78.60 26.20L78.57 26.18L78.61 26.21Q81.27 26.21 84.59 25.95L84.46 25.82L84.51 25.87Q84.94 21.42 86.69 16.32L86.65 16.28L86.62 16.26Q88.61 15.89 90.86 15.05L90.83 15.02L91.00 15.19Q87.22 21.77 87.22 29.72L87.37 29.87L87.30 29.80Q87.21 35.92 89.57 41.25L89.61 41.28L89.66 41.34Q88.13 40.80 86.08 40.50L86.02 40.44L86.00 40.41Q84.33 35.40 84.44 28.70ZM85.71 40.74L85.74 40.77L85.70 40.73Q86.79 40.95 87.90 41.21L87.94 41.26L87.85 41.17Q88.13 41.82 88.77 43.31L88.88 43.41L88.94 43.48Q92.12 44.26 93.91 45.17L93.92 45.18L93.90 45.15Q89.61 39.16 89.31 30.90L89.23 30.82L89.32 30.91Q89.02 22.88 92.67 16.06L92.56 15.95L91.44 16.35L91.47 16.38Q90.94 16.58 90.33 16.73L90.42 16.82L90.47 16.87Q90.83 16.01 91.66 14.45L91.72 14.51L91.76 14.55Q89.06 15.54 86.43 16.03L86.29 15.89L86.40 16.00Q84.62 20.73 84.16 25.41L84.18 25.43L84.28 25.52Q81.75 25.70 79.31 25.70L79.26 25.64L79.43 25.82Q76.92 25.70 74.41 25.55L74.36 25.51L74.40 25.54Q74.22 22.31 73.11 18.24L73.11 18.24L73.01 18.14Q72.42 18.12 70.97 17.73L71.04 17.80L70.87 17.64Q70.49 16.42 70.03 15.39L70.11 15.47L70.05 15.41Q67.33 14.66 65.04 13.41L65.15 13.51L65.01 13.38Q69.69 20.91 69.69 29.71L69.62 29.64L69.58 29.59Q69.62 36.60 66.50 42.73L66.57 42.80L66.56 42.79Q67.34 42.58 68.67 42.01L68.68 42.01L68.62 41.96Q68.35 42.86 67.55 44.39L67.52 44.36L67.39 44.23Q70.20 43.23 72.45 42.82L72.59 42.96L72.52 42.89Q74.46 37.41 74.65 31.24L74.68 31.27L74.66 31.25Q76.22 31.13 79.42 31.10L79.40 31.08L79.42 31.10Q82.17 30.95 84.07 31.03L84.11 31.06L84.13 31.08Q84.46 36.90 85.79 40.82Z"/><path fill="#77cce8" d="M33.32 41.52L33.46 41.65L33.29 41.49Q31.19 41.10 29.02 40.95L29.09 41.01L29.00 40.93Q27.59 39.52 24.93 35.68L24.94 35.69L24.90 35.65Q22.74 38.78 20.34 41.22L20.40 41.28L18.31 41.66L18.31 41.66Q17.29 41.90 16.30 42.16L16.14 42.00L16.26 42.12Q20.35 37.92 23.36 33.80L23.49 33.93L23.44 33.89Q20.10 29.63 14.69 24.83L14.83 24.97L14.74 24.88Q16.98 25.64 19.69 26.06L19.71 26.09L19.65 26.02Q23.04 29.07 24.95 31.77L25.02 31.84L24.95 31.78Q27.10 28.75 29.84 26.24L29.98 26.38L29.81 26.21Q33.00 26.01 34.83 25.52L34.81 25.50L34.69 25.38Q30.21 29.08 26.52 33.65L26.63 33.77L26.60 33.73Q29.84 38.26 33.30 41.50ZM36.17 24.65L36.31 24.79L36.17 24.65Q33.39 25.60 29.85 25.94L29.86 25.95L29.75 25.84Q26.94 28.59 25.23 31.06L25.27 31.10L25.24 31.08Q24.26 29.95 22.63 27.97L22.75 28.10L22.50 28.03L22.49 28.02Q22.40 28.04 22.28 28.04L22.29 28.05L22.17 27.93Q21.53 27.22 19.89 25.77L19.81 25.69L19.80 25.67Q16.33 25.25 13.47 24.03L13.41 23.97L13.36 23.91Q18.93 28.76 22.96 33.90L22.95 33.89L22.85 33.79Q19.59 38.53 15.18 42.83L15.21 42.86L15.25 42.90Q15.35 42.66 18.85 41.82L18.94 41.91L18.98 41.95Q17.33 43.16 15.70 44.49L15.74 44.54L15.74 44.54Q18.91 43.59 22.06 43.40L22.01 43.34L22.12 43.45Q24.45 41.14 26.35 38.40L26.46 38.50L26.47 38.52Q27.82 40.21 29.04 41.39L28.94 41.28L28.95 41.29Q29.21 41.45 29.29 41.52L29.29 41.52L29.31 41.36L29.48 41.52Q30.72 42.61 32.06 43.68L32.05 43.68L32.07 43.70Q35.62 44.20 38.52 45.23L38.48 45.19L38.45 45.16Q32.23 40.66 28.54 35.48L28.66 35.60L28.53 35.47Q32.28 30.54 36.85 26.47L36.76 26.38L36.80 26.42Q35.97 26.89 34.98 27.11L34.91 27.04L32.86 27.47L32.82 27.43Q34.14 26.65 36.31 24.79Z"/><path fill="#a5ea61" d="M83.02 38.89L83.14 39.01L83.08 38.95Q84.88 36.49 89.64 29.22L89.75 29.32L89.77 29.34Q93.68 23.01 96.53 19.74L96.53 19.73L96.68 19.89Q94.51 20.12 92.42 20.12L92.39 20.09L92.36 20.06Q87.18 20.13 83.18 18.34L83.20 18.36L83.14 18.30Q82.53 16.43 81.85 14.87L81.71 14.74L81.72 14.75Q86.42 17.05 92.09 17.16L92.07 17.14L92.02 17.09Q97.18 17.18 102.35 15.28L102.44 15.37L102.29 15.22Q101.91 16.06 101.61 16.85L101.63 16.88L101.12 18.53L101.06 18.48Q98.01 22.12 94.01 27.95L94.07 28.01L90.67 32.76L90.67 32.76Q89.02 35.22 87.19 37.50L87.14 37.45L87.22 37.53Q90.56 36.95 93.87 37.02L93.89 37.04L93.81 36.97Q97.11 37.02 100.27 37.94L100.33 38.00L100.85 39.62L100.78 39.56Q101.14 40.49 101.49 41.33L101.35 41.19L101.39 41.23Q96.66 39.59 91.52 39.78L91.69 39.94L91.64 39.89Q86.51 40.10 82.02 42.11L82.03 42.12L82.01 42.10Q82.46 41.11 83.19 39.06ZM81.42 42.81L81.41 42.80L81.45 42.84Q82.70 42.26 83.50 41.99L83.40 41.89L83.36 41.85Q83.14 42.66 82.45 44.18L82.40 44.13L82.53 44.26Q88.16 42.05 94.14 42.28L94.22 42.35L94.20 42.34Q100.46 42.51 105.48 45.29L105.48 45.28L105.55 45.35Q103.99 42.80 103.19 40.63L103.24 40.68L103.25 40.69Q102.87 40.58 101.35 40.01L101.32 39.98L101.24 39.90Q101.11 39.20 100.69 37.71L100.56 37.58L100.74 37.76Q96.43 36.42 91.33 36.61L91.49 36.78L91.50 36.79Q93.49 33.90 97.03 28.34L97.17 28.48L97.15 28.46Q100.79 22.74 102.69 20.19L102.54 20.04L102.53 20.03Q103.20 18.79 104.23 16.08L104.13 15.99L104.06 15.92Q103.49 16.38 102.05 16.99L102.12 17.07L101.97 16.91Q102.34 16.15 103.07 14.62L103.11 14.67L103.17 14.73Q97.84 16.85 92.13 16.78L92.09 16.74L92.08 16.73Q86.13 16.64 81.18 14.13L81.14 14.09L81.07 14.02Q82.30 16.47 83.02 18.71L83.03 18.72L83.06 18.75Q84.18 19.30 84.98 19.53L84.80 19.35L84.96 19.51Q85.24 20.21 85.51 21.66L85.38 21.53L85.48 21.63Q89.06 22.54 93.93 22.35L94.11 22.53L93.97 22.39Q91.65 25.66 88.34 30.65L88.31 30.63L82.76 38.93L82.81 38.98Q82.33 40.14 81.30 42.69Z"/><path d="M7 16 C74 30,61 15,136 36" stroke="#b283e1" fill="none"/><path fill="#cf8fe4" d="M34.39 33.38L34.28 33.27L34.31 33.30Q34.11 36.07 32.93 40.71L33.07 40.85L32.96 40.74Q31.24 41.35 29.64 42.14L29.58 42.09L29.57 42.08Q32.12 34.99 31.86 27.57L31.92 27.64L31.97 27.69Q31.59 20.18 28.50 13.44L28.64 13.58L28.58 13.52Q30.58 14.83 32.44 15.41L32.34 15.30L32.38 15.34Q34.56 22.36 34.56 29.02L34.49 28.95L34.53 28.99Q34.60 30.50 34.52 31.99L34.46 31.93L34.54 32.00Q35.56 30.66 40.77 25.71L40.78 25.72L40.79 25.73Q41.91 25.74 42.90 25.67L42.87 25.64L44.91 25.44L45.04 25.57Q41.78 28.47 37.48 32.24L37.58 32.34L37.62 32.38Q40.95 35.10 47.42 40.93L47.36 40.86L47.35 40.85Q44.73 40.06 41.76 39.87L41.75 39.86L41.63 39.74Q39.25 37.78 34.38 33.37ZM44.24 42.50L44.15 42.41L44.16 42.42Q48.92 43.30 52.04 45.24L52.13 45.33L52.13 45.33Q50.78 43.87 48.16 41.47L48.23 41.54L48.33 41.65Q48.39 41.55 48.65 41.67L48.81 41.82L48.79 41.80Q46.64 39.72 44.39 37.82L44.36 37.79L39.94 33.90L40.05 34.01Q44.88 29.67 47.32 26.78L47.43 26.89L47.32 26.77Q46.17 26.93 43.70 27.19L43.58 27.07L43.73 27.23Q45.19 25.64 45.88 24.80L45.87 24.80L46.01 24.93Q43.23 25.43 40.75 25.43L40.79 25.46L40.62 25.30Q39.25 26.63 36.51 29.30L36.55 29.34L36.61 29.40Q36.62 23.62 35.63 17.79L35.59 17.75L35.55 17.71Q34.75 17.45 33.27 17.18L33.31 17.23L33.39 17.30Q33.26 16.60 32.80 15.11L32.76 15.08L32.77 15.08Q30.21 14.35 27.97 12.79L27.82 12.64L27.83 12.65Q31.21 19.42 31.55 27.53L31.61 27.59L31.65 27.63Q32.01 35.57 29.00 42.80L29.02 42.81L29.04 42.84Q29.65 42.46 30.99 41.81L31.06 41.89L31.00 41.82Q30.80 42.70 30.16 44.15L30.14 44.13L30.15 44.14Q32.97 43.04 35.10 42.66L34.99 42.54L35.00 42.56Q35.55 40.02 36.04 35.76L36.17 35.88L36.22 35.93Q38.74 38.10 44.18 42.44Z"/><path fill="#8fa7ef" d="M54.78 27.22L54.79 27.22L54.67 27.11Q55.57 27.21 56.98 27.05L56.87 26.95L56.84 26.92Q56.83 27.59 56.83 28.24L57.00 28.41L56.90 29.57L56.86 29.52Q56.10 29.61 55.27 29.68L55.29 29.70L55.31 29.73Q54.47 29.77 53.64 29.73L53.55 29.64L53.51 29.61Q50.65 35.76 47.22 40.37L47.33 40.48L47.26 40.41Q44.67 40.97 43.37 41.58L43.45 41.66L43.55 41.76Q47.50 35.89 50.55 29.61L50.56 29.62L48.08 29.77L47.99 29.68Q48.03 28.39 47.92 27.05L47.85 26.99L47.78 26.92Q49.79 27.18 51.85 27.18L51.93 27.26L53.68 23.42L53.84 23.57Q54.68 21.52 55.90 19.93L55.93 19.95L55.96 19.98Q54.43 20.16 52.83 20.16L52.72 20.06L52.80 20.14Q46.63 20.05 42.86 17.85L42.97 17.96L42.31 16.24L42.35 16.28Q41.93 15.35 41.55 14.48L41.55 14.49L41.66 14.59Q45.81 17.03 51.52 17.26L51.55 17.29L51.65 17.39Q56.70 17.52 61.84 15.54L61.96 15.67L61.89 15.60Q61.67 15.99 61.18 16.87L61.18 16.87L61.23 16.91Q57.66 21.72 54.81 27.24ZM62.87 18.33L62.74 18.20L63.79 16.25L63.82 16.27Q62.83 16.73 61.16 17.45L61.09 17.38L61.46 17.26L61.31 17.12Q61.51 17.05 61.63 16.94L61.55 16.86L61.67 16.97Q62.04 16.29 62.77 14.95L62.71 14.89L62.78 14.97Q57.46 17.26 51.71 17.03L51.70 17.02L51.65 16.97Q45.61 16.67 40.85 13.70L40.78 13.64L40.85 13.71Q41.86 15.56 42.70 18.22L42.70 18.22L42.74 18.26Q43.84 18.90 44.64 19.21L44.64 19.21L44.58 19.15Q44.66 19.42 45.12 21.29L45.12 21.29L45.15 21.32Q48.37 22.63 53.89 22.48L53.88 22.47L53.94 22.53Q53.69 23.16 51.71 26.93L51.54 26.76L51.65 26.86Q49.56 26.84 47.58 26.65L47.53 26.59L47.62 26.68Q47.58 27.41 47.58 28.28L47.69 28.39L47.61 30.02L49.33 30.07L49.28 31.43L49.31 31.46Q45.47 38.93 42.70 42.51L42.53 42.34L42.72 42.53Q44.18 41.63 45.82 41.14L45.89 41.21L45.88 41.20Q45.16 42.07 43.79 43.79L43.79 43.79L43.73 43.73Q47.06 42.79 49.49 42.57L49.36 42.43L49.44 42.51Q52.27 38.64 55.39 31.87L55.49 31.97L58.87 32.11L58.83 32.07Q58.73 31.13 58.73 30.22L58.77 30.25L58.84 28.54L58.75 28.44Q58.46 28.43 57.91 28.47L58.05 28.60L58.05 28.60Q57.35 28.49 57.08 28.49L57.11 28.52L57.15 28.56Q57.11 28.40 57.15 28.25L57.26 28.37L57.22 28.06L57.13 27.97Q59.62 22.81 62.71 18.17Z"/><path fill="#89ead2" d="M56.16 14.21L56.29 14.34L56.16 14.21Q60.12 16.92 64.88 17.15L64.83 17.09L64.89 17.16Q69.34 17.15 73.61 15.40L73.63 15.42L73.60 15.39Q73.43 16.02 72.66 18.80L72.80 18.93L72.76 18.90Q69.87 19.77 66.90 19.92L67.07 20.09L66.93 19.96Q64.03 20.18 61.14 19.46L61.06 19.38L61.04 19.35Q61.74 22.99 61.93 26.65L61.95 26.67L62.07 26.79Q63.99 26.92 65.59 26.88L65.64 26.92L65.64 26.93Q66.79 26.86 69.19 26.75L69.24 26.80L69.26 26.81Q69.10 27.35 69.10 28.03L69.22 28.15L69.20 29.46L69.20 29.46Q66.74 29.39 61.94 29.47L61.91 29.44L61.95 29.48Q61.93 33.58 61.36 37.57L61.52 37.73L61.36 37.57Q63.98 36.91 66.72 37.03L66.72 37.03L66.77 37.08Q69.49 37.17 72.08 38.01L72.04 37.97L72.11 38.04Q72.16 38.82 72.43 39.58L72.53 39.68L72.84 41.05L72.97 41.18Q69.70 39.82 66.28 39.82L66.34 39.88L66.22 39.77Q61.34 39.76 57.08 42.00L57.17 42.09L57.17 42.10Q59.35 35.15 59.09 28.03L59.18 28.11L59.16 28.09Q59.01 21.06 56.35 14.40ZM56.55 42.70L56.64 42.78L56.61 42.76Q57.88 42.04 58.64 41.70L58.61 41.68L58.67 41.73Q58.52 42.53 57.95 44.06L57.86 43.97L57.88 43.99Q62.40 42.00 67.47 42.27L67.58 42.38L67.47 42.27Q72.62 42.55 76.62 45.25L76.57 45.21L76.63 45.27Q75.46 42.72 74.78 40.78L74.83 40.83L74.74 40.75Q73.85 40.24 72.86 39.90L72.82 39.85L72.91 39.95Q72.46 38.51 72.31 37.71L72.32 37.72L72.18 37.58Q69.19 36.68 66.03 36.68L66.07 36.72L66.09 36.74Q64.90 36.69 63.75 36.80L63.82 36.87L63.69 36.74Q63.79 35.47 63.83 34.25L63.98 34.40L64.03 31.86L63.89 31.73Q65.85 31.78 67.64 31.82L67.59 31.77L67.63 31.81Q69.48 31.87 71.27 32.02L71.16 31.92L71.25 32.00Q71.20 31.08 71.20 30.13L71.18 30.10L71.17 28.19L70.43 28.33L70.26 28.16Q69.84 28.23 69.38 28.23L69.52 28.37L69.52 28.37Q69.49 27.66 69.65 26.36L69.56 26.28L69.60 26.32Q67.97 26.52 66.79 26.56L66.81 26.57L66.91 26.67Q65.83 26.54 64.00 26.47L64.02 26.49L63.98 26.45Q64.07 25.21 63.88 22.39L63.72 22.23L63.83 22.33Q64.82 22.41 65.81 22.41L65.77 22.37L65.86 22.46Q70.49 22.37 74.18 20.47L74.20 20.48L74.25 20.53Q74.83 18.19 75.71 15.98L75.74 16.02L75.67 15.94Q74.41 16.86 73.58 17.20L73.48 17.11L73.55 17.17Q73.75 16.31 74.21 14.74L74.33 14.87L74.17 14.71Q69.63 16.95 64.76 16.64L64.70 16.58L64.83 16.71Q59.52 16.40 55.68 13.54L55.69 13.55L55.61 13.47Q58.46 20.39 58.77 28.01L58.80 28.05L58.86 28.10Q59.05 35.91 56.54 42.68Z"/><path d="M5 48 C75 20,63 14,132 6" stroke="#e4bc43" fill="none"/><path d="M15 14 C58 10,91 30,145 12" stroke="#69a5e2" fill="none"/></svg>