<svg xmlns="http://www.w3.org/2000/svg" width="150" height="50" viewBox="0,0,150,50"><rect width="100%" height="100%" fill="white"/><path fill="#a36adc" d="M43.84 36.97L43.72 36.84L43.83 36.95Q44.89 37.78 46.30 37.63L46.30 37.63L46.34 37.67Q49.30 37.90 49.95 34.55L49.83 34.43L49.93 34.52Q50.56 31.39 50.56 28.00L50.50 27.94L50.48 25.33L50.58 25.43Q50.46 24.05 50.12 22.80L50.16 22.84L50.09 22.77Q48.88 25.09 46.90 29.85L46.92 29.87L46.97 29.92Q45.10 34.80 43.88 37.01ZM48.80 20.41L48.83 20.45L48.86 20.47Q47.58 19.54 46.25 19.54L46.40 19.69L46.39 19.68Q44.80 19.42 43.70 20.34L43.74 20.38L43.72 20.35Q42.60 21.26 42.41 22.74L42.41 22.74L42.45 22.78Q42.02 24.07 41.99 25.55L42.18 25.74L42.18 25.75Q42.03 25.59 42.03 28.45L42.04 28.46L42.03 28.45Q42.06 30.84 42.52 34.46L42.46 34.40L42.53 34.48Q44.37 29.65 48.75 20.36ZM50.47 39.33L50.46 39.31L50.32 39.18Q48.56 40.08 46.24 40.08L46.28 40.12L44.58 40.06L44.59 40.07Q41.37 40.09 40.23 38.38L40.24 38.38L40.20 38.34Q39.44 36.22 39.37 33.29L39.49 33.41L39.37 33.29Q39.34 31.55 39.26 28.08L39.23 28.05L39.23 28.05Q39.36 27.00 39.21 23.95L39.03 23.78L39.12 23.86Q39.10 21.64 39.41 19.66L39.31 19.56L39.41 19.66Q39.83 16.66 44.17 16.43L44.20 16.46L44.20 16.46Q44.97 16.43 46.30 16.47L46.33 16.49L46.32 16.49Q51.95 16.60 53.02 20.06L53.04 20.08L52.98 20.02Q53.71 22.05 53.68 23.92L53.60 23.85L53.52 23.76Q53.53 28.83 53.45 30.05L53.43 30.03L53.38 29.98Q53.24 33.83 52.93 35.13L52.84 35.03L52.99 35.19Q52.21 38.17 50.30 39.16ZM55.23 38.91L55.29 38.97L55.34 39.02Q55.59 36.27 55.56 34.48L55.50 34.42L55.38 29.77L55.47 29.86Q55.35 26.81 54.82 21.29L54.87 21.34L54.90 21.38Q54.40 19.58 53.10 18.81L52.96 18.67L53.10 18.81Q51.44 16.16 46.26 16.01L46.20 15.95L46.29 16.03Q45.43 16.01 44.10 16.05L44.11 16.06L44.11 16.07Q39.51 16.07 39.01 19.19L39.05 19.23L39.08 19.26Q38.74 21.62 38.85 23.71L38.68 23.54L38.78 23.64Q39.08 27.98 39.04 31.33L39.07 31.35L39.09 31.38Q39.13 35.14 39.24 36.17L39.09 36.02L39.07 36.00Q39.56 39.19 41.09 39.99L41.09 40.00L40.96 39.87Q42.58 42.21 46.57 42.47L46.54 42.44L46.57 42.47Q50.11 42.66 50.76 42.63L50.82 42.68L50.79 42.66Q53.68 42.53 54.82 40.93L54.76 40.88L54.77 40.89Q55.20 40.13 55.27 38.95ZM46.73 37.30L46.66 37.23L46.64 37.21Q47.50 35.94 48.57 33.24L48.50 33.17L50.15 28.88L50.23 28.96Q50.18 30.59 49.80 33.94L49.84 33.98L49.76 33.90Q49.04 36.72 46.65 37.22ZM44.82 25.08L44.82 25.08L44.67 24.92Q45.28 23.29 45.96 22.71L45.97 22.72L45.81 22.56Q46.41 22.29 47.71 22.10L47.61 22.01L47.72 22.11Q45.93 25.69 44.07 30.34L44.14 30.41L44.05 30.32Q44.14 27.70 44.82 25.08Z"/><path d="M10 21 C75 45,64 35,132 10" stroke="#8beda4" fill="none"/><path d="M14 8 C73 43,94 5,136 6" stroke="#79e1c7" fill="none"/><path fill="#e665a5" d="M100.08 29.57L99.90 29.39L99.98 29.48Q98.89 28.80 98.24 28.84L98.24 28.84L98.10 28.70Q96.89 28.93 95.84 29.94L95.72 29.82L95.82 29.92Q94.66 30.81 94.77 32.18L94.79 32.20L94.84 32.25Q95.18 36.63 94.31 41.16L94.34 41.19L94.26 41.11Q91.99 41.51 90.88 42.04L90.99 42.15L90.90 42.05Q92.36 37.84 92.13 33.39L92.28 33.53L92.10 33.36Q91.96 28.95 90.25 24.88L90.24 24.87L90.17 24.80Q91.44 25.62 93.73 26.27L93.65 26.19L94.17 28.84L94.35 29.02Q94.97 26.06 99.24 26.06L99.16 25.98L99.15 25.98Q99.64 26.01 99.94 26.01L99.84 25.91L99.95 26.01Q101.25 26.02 102.50 26.70L102.48 26.68L102.44 26.65Q101.14 28.01 100.00 29.50ZM101.68 31.55L101.68 31.40L101.68 31.40Q102.51 30.18 104.19 27.74L104.21 27.76L104.30 27.86Q103.83 27.50 102.31 27.23L102.34 27.26L102.32 27.24Q102.63 26.90 103.08 26.30L103.18 26.39L103.11 26.32Q101.20 25.40 99.26 25.59L99.31 25.64L99.20 25.53Q97.39 25.86 96.67 26.12L96.61 26.06L96.48 25.93Q95.13 26.41 94.33 27.52L94.33 27.52L94.12 26.66L93.91 25.80L94.07 25.96Q91.61 25.49 89.64 24.15L89.59 24.11L89.55 24.07Q91.69 28.45 91.92 33.32L91.89 33.30L91.95 33.36Q92.22 38.31 90.47 42.84L90.50 42.87L90.47 42.84Q91.46 42.27 92.34 41.97L92.47 42.10L92.43 42.06Q92.08 43.09 91.59 44.15L91.67 44.23L91.61 44.17Q94.42 43.29 96.55 43.18L96.52 43.14L96.76 38.67L96.73 38.64Q96.98 36.52 96.98 34.27L96.99 34.29L96.92 34.22Q96.86 32.97 97.77 32.00L97.82 32.05L97.76 31.99Q98.69 31.04 99.83 30.96L99.93 31.06L99.89 31.02Q100.51 30.88 101.24 31.57L101.31 31.64L101.57 31.44ZM96.52 29.59L96.64 29.64L96.63 29.74L96.58 29.65Z"/><path d="M16 12 C60 33,80 1,130 4" stroke="#b6dd40" fill="none"/></svg>