<svg xmlns="http://www.w3.org/2000/svg" width="150" height="50" viewBox="0,0,150,50"><rect width="100%" height="100%" fill="white"/><path d="M2 3 C57 39,65 23,138 2" stroke="#4be14b" fill="none"/><path fill="#5ec5e8" d="M54.40 37.96L54.39 37.95L54.34 37.91Q54.61 38.86 55.14 40.88L55.08 40.82L55.15 40.89Q51.01 39.64 46.41 39.91L46.35 39.85L46.25 39.75Q41.70 40.04 37.71 42.02L37.71 42.02L37.76 42.08Q37.93 41.33 37.97 41.40L38.03 41.46L38.13 41.56Q41.84 37.59 45.76 33.17L45.74 33.15L45.70 33.12Q50.06 28.07 51.24 23.39L51.39 23.53L51.27 23.41Q51.77 21.71 50.50 20.53L50.42 20.45L50.52 20.55Q49.26 19.39 47.47 19.54L47.39 19.46L47.50 19.57Q47.08 19.45 46.74 19.45L46.64 19.36L46.75 19.46Q45.26 19.50 44.01 20.42L44.04 20.45L44.03 20.44Q42.64 21.71 42.86 24.38L42.92 24.43L42.85 24.36Q41.10 24.05 39.88 23.60L39.81 23.53L39.85 23.57Q39.71 22.21 39.64 20.77L39.64 20.77L39.52 20.65Q39.54 19.11 40.15 17.97L40.19 18.01L40.15 17.97Q42.00 16.66 45.35 16.66L45.22 16.52L46.95 16.50L47.08 16.64Q49.32 16.63 50.28 16.75L50.33 16.80L50.28 16.75Q54.60 17.15 54.87 19.59L54.89 19.61L54.82 19.54Q54.99 20.21 54.92 21.01L54.89 20.98L54.85 20.94Q54.84 21.61 54.68 22.30L54.73 22.35L54.74 22.36Q53.13 30.49 45.56 37.35L45.48 37.27L45.44 37.23Q46.84 37.07 48.21 37.07L48.34 37.20L48.18 37.04Q51.40 37.02 54.25 37.82ZM53.85 17.16L53.78 17.09L53.68 17.00Q52.07 16.34 50.36 16.26L50.39 16.29L47.05 16.19L47.01 16.14Q42.53 15.86 40.32 16.96L40.42 17.05L40.30 16.93Q39.36 18.44 39.36 20.49L39.25 20.38L39.27 20.40Q39.33 21.14 39.63 23.96L39.69 24.02L39.67 23.99Q40.09 24.11 41.27 24.42L41.32 24.47L41.40 25.58L41.36 25.54Q41.41 26.08 41.48 26.61L41.44 26.57L41.32 26.45Q42.71 26.69 45.18 26.92L45.07 26.81L45.10 26.83Q45.05 26.45 45.05 26.11L45.12 26.17L44.99 26.05Q45.17 24.39 46.38 23.04L46.29 22.94L46.39 23.04Q47.57 21.66 49.36 21.77L49.27 21.68L49.39 21.80Q50.17 21.86 50.93 22.01L50.90 21.98L50.92 22.00Q50.91 22.26 50.99 22.68L51.01 22.70L51.10 22.79Q51.11 23.18 51.03 23.52L51.04 23.52L51.05 23.53Q49.79 28.30 45.38 33.13L45.32 33.08L45.40 33.16Q43.28 35.41 37.84 41.46L37.70 41.33L37.79 41.42Q37.46 42.12 37.12 42.69L37.12 42.69L37.24 42.81Q38.88 41.97 40.40 41.44L40.26 41.30L40.27 41.31Q39.66 41.99 38.71 43.48L38.65 43.42L38.75 43.52Q38.62 43.85 38.51 44.19L38.40 44.09L38.37 44.06Q43.36 42.11 48.84 42.30L48.80 42.27L48.87 42.33Q54.45 42.40 59.02 44.76L59.12 44.85L57.95 42.55L58.10 42.70Q57.34 41.25 57.07 40.45L57.20 40.58L57.13 40.50Q56.41 40.09 55.19 39.67L55.10 39.58L55.17 39.65Q55.03 38.93 54.64 37.56L54.64 37.56L54.68 37.60Q52.43 36.99 50.15 36.80L50.21 36.86L50.18 36.83Q54.75 32.15 56.28 23.89L56.45 24.07L56.52 21.06L56.46 20.99Q56.41 19.23 55.19 18.55L55.20 18.55L55.21 18.60L55.24 18.63Q55.26 18.61 55.18 18.61L55.11 18.54L55.08 18.50Q54.83 17.65 53.73 17.04Z"/><path d="M3 6 C60 48,64 17,142 45" stroke="#e48ace" fill="none"/><path fill="#e263a3" d="M95.42 40.16L95.53 40.27L95.43 40.17Q91.95 40.27 90.31 39.74L90.29 39.72L90.30 39.72Q88.35 39.10 88.04 35.71L88.15 35.82L89.45 34.61L89.55 34.71Q90.23 34.14 91.00 33.64L91.13 33.77L91.00 33.64Q90.71 35.52 92.31 36.74L92.34 36.78L92.34 36.77Q93.68 37.85 95.81 37.66L95.75 37.60L95.74 37.58Q100.11 37.16 99.92 33.62L100.00 33.70L99.94 33.64Q99.93 31.53 97.30 30.31L97.25 30.27L97.14 30.15Q94.28 29.09 91.92 27.87L91.91 27.85L91.90 27.85Q89.46 26.62 88.47 21.94L88.37 21.84L88.50 21.97Q88.29 21.42 88.17 20.65L88.27 20.75L88.29 20.78Q88.15 19.94 88.22 19.37L88.22 19.37L88.18 19.33Q88.40 17.80 89.66 17.34L89.54 17.23L89.64 17.33Q92.00 16.41 96.00 16.60L96.08 16.68L96.11 16.71Q97.90 16.79 98.70 16.87L98.55 16.72L98.74 16.91Q100.11 16.98 101.17 17.44L101.16 17.42L101.16 17.42Q103.37 18.00 103.60 20.47L103.45 20.32L103.49 20.37Q102.47 21.09 100.26 22.43L100.31 22.48L100.24 22.40Q99.83 19.40 95.45 19.40L95.48 19.43L95.40 19.36Q93.65 19.50 92.66 20.19L92.64 20.17L92.66 20.20Q91.35 20.56 91.58 22.35L91.65 22.42L91.63 22.40Q91.82 24.53 94.79 26.06L94.82 26.08L94.97 26.23Q95.43 26.39 99.92 28.03L99.95 28.06L99.87 27.98Q102.49 29.45 102.91 33.83L103.02 33.94L102.97 33.89Q102.88 33.95 102.95 35.21L102.94 35.19L103.01 35.27Q103.18 38.13 101.62 39.24L101.55 39.17L101.62 39.24Q99.66 40.10 95.47 40.21ZM97.78 42.59L97.88 42.69L97.89 42.71Q99.32 42.77 101.30 42.77L101.28 42.75L101.23 42.70Q103.40 42.77 104.66 42.36L104.57 42.27L104.54 42.24Q105.83 41.47 105.75 39.68L105.76 39.69L105.71 39.63Q105.69 38.66 105.31 36.61L105.27 36.57L105.40 36.70Q104.31 31.84 102.22 29.98L102.24 30.00L102.33 30.09Q101.64 28.60 100.31 27.88L100.16 27.73L94.97 25.78L94.92 25.72Q94.67 25.62 94.21 25.40L94.16 25.35L94.06 24.98L93.98 24.56L93.91 24.49Q93.74 23.07 94.89 22.46L94.94 22.51L94.91 22.48Q95.62 21.86 97.34 21.67L97.53 21.86L97.49 21.82Q98.59 21.67 99.74 22.13L99.78 22.17L99.65 22.04Q99.87 22.30 100.06 23.14L100.02 23.09L100.04 23.12Q100.19 22.93 100.69 22.70L100.71 22.73L100.70 22.71Q101.33 23.53 101.44 24.67L101.45 24.68L101.57 24.80Q101.51 24.63 105.17 22.04L105.23 22.11L105.24 22.11Q104.93 19.44 103.48 18.76L103.56 18.83L103.61 18.89Q102.90 17.48 101.45 16.95L101.59 17.09L101.42 16.92Q99.32 16.31 96.12 16.31L95.97 16.15L95.96 16.14Q91.10 16.20 89.24 16.88L89.18 16.83L89.15 16.80Q87.82 17.25 87.70 18.93L87.80 19.03L87.73 18.96Q87.81 19.61 88.23 21.81L88.24 21.82L88.20 21.78Q88.82 25.49 90.99 27.73L91.09 27.83L91.13 27.87Q91.73 29.39 93.24 30.08L93.33 30.17L93.29 30.13Q94.90 30.92 98.82 32.48L98.71 32.37L98.65 32.35L99.32 32.71L99.48 32.92L99.49 32.92Q99.65 33.35 99.68 33.69L99.65 33.66L99.56 33.57Q99.75 37.15 95.83 37.30L95.81 37.28L95.84 37.30Q94.52 37.17 93.22 36.78L93.28 36.84L93.27 36.83Q93.00 36.06 93.00 35.34L93.01 35.35L93.05 35.39Q93.07 35.14 93.11 34.88L93.05 34.82L92.97 34.74Q92.63 35.05 91.83 35.54L91.83 35.54L91.81 35.52Q91.24 34.35 91.40 32.98L91.40 32.98L91.47 33.05Q89.35 34.21 87.75 35.62L87.82 35.68L87.87 35.73Q87.75 36.37 87.83 37.40L88.00 37.58L87.91 37.48Q88.22 39.20 89.51 39.96L89.53 39.98L89.61 40.06Q90.74 41.80 93.29 42.18L93.30 42.19L93.39 42.28Q94.82 42.38 97.75 42.57Z"/><path d="M14 42 C85 7,58 40,147 39" stroke="#dc60bd" fill="none"/></svg>