<svg xmlns="http://www.w3.org/2000/svg" width="150" height="50" viewBox="0,0,150,50"><rect width="100%" height="100%" fill="white"/><path fill="#6ae5e5" d="M42.51 32.97L42.52 32.98L42.52 32.98Q45.51 32.50 48.71 32.62L48.79 32.70L48.84 32.75Q48.73 30.12 48.73 27.73L48.76 27.76L48.80 27.79Q48.72 25.24 48.91 22.69L49.00 22.78L48.93 22.72Q47.77 24.48 42.55 33.01ZM52.30 40.21L52.38 40.28L52.44 40.35Q50.82 40.10 49.03 40.02L48.92 39.91L49.00 39.99Q48.68 37.50 48.57 35.03L48.59 35.05L48.67 35.13Q43.31 34.91 38.59 36.32L38.61 36.34L38.53 36.26Q38.60 35.72 38.79 34.73L38.84 34.78L38.96 34.90Q40.67 31.66 44.25 25.38L44.27 25.40L44.16 25.29Q47.08 20.44 50.50 16.56L50.53 16.58L50.59 16.64Q51.36 16.35 53.04 16.08L53.10 16.15L53.17 16.22Q51.24 22.63 51.24 29.67L51.16 29.59L51.27 29.70Q51.18 31.09 51.25 32.57L51.38 32.70L52.68 32.82L52.55 32.69Q53.15 32.72 53.76 32.83L53.88 32.95L53.78 32.85Q53.95 33.90 54.22 35.84L54.24 35.86L54.12 35.74Q52.92 35.50 51.44 35.31L51.53 35.40L51.54 35.41Q51.67 37.33 52.35 40.26ZM54.05 32.48L54.00 32.43L54.02 32.45Q53.91 32.45 53.72 32.45L53.68 32.41L53.35 32.46L53.40 32.51Q53.28 31.02 53.28 29.62L53.15 29.48L53.28 29.61Q53.18 23.12 55.24 17.10L55.16 17.03L55.29 17.15Q54.41 17.31 52.97 17.69L53.12 17.84L52.96 17.68Q53.19 16.92 53.65 15.51L53.72 15.59L53.68 15.55Q52.42 15.96 50.37 16.19L50.39 16.22L50.41 16.24Q46.54 20.63 41.32 29.99L41.32 29.99L43.32 26.24L43.26 26.18Q42.90 27.27 42.64 27.84L42.75 27.95L38.29 36.97L38.18 36.86Q38.92 36.80 40.07 36.42L40.02 36.38L39.84 36.58L39.88 36.62Q39.63 37.17 39.33 38.42L39.45 38.55L39.40 38.49Q43.62 37.27 48.45 37.46L48.32 37.33L48.38 37.39Q48.42 38.34 48.61 40.32L48.58 40.29L48.67 40.39Q49.57 40.22 50.64 40.33L50.81 40.50L50.74 40.43Q50.90 41.12 51.16 42.49L51.19 42.52L51.06 42.39Q53.00 42.65 56.00 43.57L56.02 43.58L56.14 43.70Q55.16 41.58 54.25 38.31L54.08 38.14L55.52 38.59L55.65 38.72Q56.26 38.87 56.94 39.22L56.96 39.23L56.99 39.26Q56.11 36.67 55.96 35.00L55.91 34.95L55.92 34.96Q55.50 34.96 54.36 34.73L54.37 34.74L54.37 34.74Q53.99 33.29 53.99 32.42ZM46.10 32.36L46.03 32.29L46.16 32.43Q46.89 31.10 48.45 28.55L48.37 28.48L48.37 28.48Q48.45 29.50 48.41 30.45L48.30 30.35L48.41 30.45Q48.28 31.31 48.32 32.26L48.36 32.31L48.33 32.27Q47.86 32.34 47.29 32.34L47.33 32.38L47.22 32.27Q46.69 32.35 46.08 32.35Z"/><path d="M2 33 C65 30,75 6,147 1" stroke="#eded6d" fill="none"/><path d="M8 34 C89 39,64 10,130 34" stroke="#5beaa3" fill="none"/><path fill="#85e485" d="M100.16 31.00L100.13 30.98L100.13 30.97Q100.21 29.53 99.39 28.62L99.31 28.54L99.25 28.48Q98.46 27.60 97.02 27.63L96.97 27.58L97.04 27.66Q94.68 27.69 93.84 29.83L93.93 29.91L93.84 29.82Q93.68 30.73 93.64 31.41L93.60 31.37L93.57 31.34Q93.41 36.25 92.50 40.59L92.42 40.51L92.53 40.62Q90.72 41.02 88.85 42.01L88.81 41.96L88.80 41.96Q91.21 35.12 90.95 27.81L90.90 27.76L90.90 27.75Q90.62 20.40 88.07 13.58L88.05 13.56L88.03 13.54Q89.80 14.86 91.82 15.54L91.84 15.57L91.87 15.59Q93.24 21.30 93.43 27.17L93.54 27.28L93.48 27.22Q94.99 25.26 97.69 25.34L97.52 25.17L97.69 25.33Q102.77 25.43 102.89 30.80L102.78 30.70L102.82 30.73Q102.94 36.41 104.31 41.06L104.37 41.12L104.31 41.05Q102.48 40.26 100.73 40.07L100.76 40.09L100.78 40.12Q100.23 36.82 100.11 30.96ZM100.32 40.30L100.35 40.33L100.38 40.36Q101.40 40.47 102.51 40.74L102.62 40.85L102.44 40.67Q102.49 40.83 103.02 42.81L103.20 42.99L103.02 42.81Q105.97 43.75 107.99 45.19L108.14 45.34L108.18 45.38Q105.48 39.60 104.95 33.28L104.85 33.18L104.85 33.18Q104.59 29.54 103.18 27.98L103.11 27.90L103.15 27.94Q103.05 27.76 102.40 27.31L102.50 27.41L102.47 27.38Q102.30 26.94 101.66 26.18L101.58 26.10L101.58 26.03L101.52 25.97Q100.68 25.13 97.56 24.86L97.52 24.83L97.66 24.96Q96.90 24.92 95.49 25.27L95.53 25.31L95.45 25.23Q95.16 20.30 94.82 17.79L94.88 17.85L94.84 17.81Q94.15 17.76 92.67 17.46L92.76 17.55L92.61 17.40Q92.61 16.83 92.34 15.35L92.19 15.19L92.21 15.21Q89.31 14.29 87.45 12.73L87.34 12.63L87.48 12.77Q90.40 19.88 90.67 27.68L90.62 27.63L90.68 27.69Q90.87 35.38 88.32 42.73L88.43 42.84L88.44 42.85Q89.27 42.16 90.41 41.66L90.50 41.75L89.75 44.01L89.68 43.94Q92.81 42.62 94.79 42.43L94.81 42.44L94.77 42.41Q95.41 37.07 95.60 33.11L95.50 33.01L95.60 33.11Q95.74 31.30 97.68 30.20L97.54 30.06L97.56 30.08Q98.03 29.79 98.56 29.83L98.56 29.82L98.73 29.99Q98.79 29.90 99.13 29.94L99.14 29.94L99.64 30.11L99.66 30.13Q99.52 30.36 99.63 30.82L99.77 30.96L99.75 30.94Q99.87 36.92 100.36 40.34Z"/><path d="M12 6 C89 28,73 11,141 13" stroke="#e480cb" fill="none"/></svg>