<svg xmlns="http://www.w3.org/2000/svg" width="150" height="50" viewBox="0,0,150,50"><rect width="100%" height="100%" fill="white"/><path d="M3 3 C71 31,94 40,143 14" stroke="#cfeb79" fill="none"/><path d="M6 8 C89 32,85 26,137 30" stroke="#ef7a97" fill="none"/><path d="M6 17 C66 32,93 41,130 9" stroke="#ec6969" fill="none"/><path fill="#d85475" d="M89.01 41.06L89.01 41.06L88.99 41.04Q92.31 36.93 99.01 29.01L99.01 29.02L98.93 28.94Q93.10 29.23 89.33 27.86L89.23 27.77L89.15 27.68Q88.55 26.32 87.78 24.91L87.87 25.00L87.73 24.86Q91.97 26.51 96.43 26.55L96.40 26.52L96.36 26.48Q100.75 26.46 104.94 25.39L104.92 25.37L104.95 25.40Q104.67 26.19 104.41 26.72L104.23 26.54L104.33 26.65Q101.71 28.79 98.89 32.40L99.05 32.56L94.01 38.64L94.17 38.80Q96.41 38.59 98.65 38.67L98.48 38.50L98.62 38.64Q100.80 38.69 103.05 39.07L103.05 39.07L102.91 38.93Q103.07 39.55 103.80 41.57L103.83 41.60L103.83 41.60Q100.13 40.79 96.13 40.91L96.14 40.92L96.20 40.98Q92.17 41.02 88.51 42.20L88.55 42.24L88.51 42.19Q88.63 42.09 89.09 41.14ZM87.98 42.85L87.92 42.78L87.95 42.82Q88.65 42.41 90.25 42.00L90.38 42.12L90.29 42.03Q90.08 42.28 89.66 42.70L89.73 42.77L89.72 42.76Q89.52 43.36 88.91 44.50L88.75 44.34L88.80 44.39Q93.63 43.17 98.62 43.32L98.44 43.14L98.56 43.26Q103.54 43.45 108.11 45.31L108.11 45.31L108.10 45.30Q106.53 43.31 105.62 41.26L105.71 41.35L105.75 41.40Q104.88 40.97 103.81 40.75L103.82 40.76L103.84 40.77Q103.68 40.08 103.30 38.64L103.35 38.69L103.20 38.54Q101.69 38.25 98.11 38.13L98.27 38.29L98.23 38.25Q100.46 34.76 105.48 28.41L105.50 28.43L105.63 28.56Q105.94 27.88 106.63 26.55L106.48 26.39L104.22 27.18L104.26 27.22Q104.28 27.09 104.43 26.98L104.49 27.03L104.71 26.88L104.65 26.82Q105.14 25.78 105.71 24.83L105.66 24.78L105.62 24.74Q101.06 26.20 96.34 26.12L96.27 26.04L96.27 26.04Q91.55 26.05 87.06 24.22L87.06 24.22L87.04 24.20Q88.13 25.98 88.93 28.04L89.11 28.22L89.09 28.19Q89.83 28.40 90.90 28.67L90.88 28.66L90.85 28.62Q91.10 29.37 91.41 30.82L91.50 30.91L91.32 30.73Q92.99 31.07 96.30 31.22L96.28 31.20L96.32 31.24Q94.01 34.64 88.83 41.07L88.66 40.90L88.68 40.92Q88.52 41.60 87.95 42.82Z"/><path fill="#e8cb71" d="M43.83 29.62L43.84 29.63L43.83 29.62Q43.90 33.96 43.18 38.11L43.22 38.15L43.17 38.10Q45.41 37.52 48.49 37.41L48.48 37.40L48.54 37.46Q49.84 37.61 50.91 36.61L50.85 36.55L50.90 36.60Q51.85 35.47 51.85 34.14L51.84 34.13L51.87 34.17Q51.93 33.92 51.89 33.65L51.83 33.58L51.84 33.60Q51.72 30.70 49.47 29.86L49.48 29.87L49.51 29.89Q48.66 29.50 47.97 29.58L48.00 29.61L48.01 29.62Q47.00 29.59 45.97 29.63L45.87 29.53L45.91 29.58Q44.97 29.73 43.94 29.73ZM42.73 19.31L42.57 19.15L42.63 19.21Q43.46 22.48 43.73 26.86L43.83 26.96L43.77 26.90Q45.31 27.10 47.97 27.14L47.84 27.01L47.83 27.00Q50.78 27.06 51.12 23.52L51.09 23.48L51.20 23.59Q51.29 21.55 49.88 20.71L49.85 20.68L49.91 20.75Q49.03 20.25 44.62 19.60L44.58 19.56L44.68 19.66Q43.54 19.44 42.63 19.21ZM38.91 42.03L38.97 42.08L38.94 42.06Q41.50 35.48 41.24 28.10L41.18 28.03L41.21 28.07Q40.79 20.64 37.86 14.17L37.93 14.24L38.01 14.32Q41.86 16.91 48.08 17.16L48.07 17.15L48.03 17.11Q54.13 17.23 54.47 20.13L54.60 20.26L54.57 20.23Q54.89 22.98 53.48 25.65L53.46 25.62L53.54 25.71Q52.76 27.17 51.16 27.85L51.10 27.79L51.03 27.72Q54.86 28.58 55.09 33.95L55.03 33.90L54.92 33.78Q55.15 35.04 55.07 36.45L54.97 36.35L55.05 36.42Q54.88 37.62 53.94 38.56L53.96 38.57L54.06 38.67Q53.09 39.57 51.76 39.72L51.83 39.80L51.81 39.78Q50.31 39.83 49.24 39.83L49.27 39.86L49.29 39.88Q43.57 39.87 39.04 42.15ZM51.75 42.38L51.83 42.45L51.72 42.35Q52.70 42.45 54.56 42.56L54.62 42.62L54.64 42.64Q55.94 42.57 57.04 41.69L57.12 41.77L57.13 41.78Q57.87 40.81 57.76 39.25L57.75 39.24L57.72 39.21Q57.69 38.30 56.96 34.84L57.05 34.93L56.90 34.78Q56.25 31.57 54.38 30.09L54.53 30.23L53.97 29.25L53.98 29.26Q55.70 27.90 56.27 24.13L56.23 24.10L56.22 24.09Q56.44 23.01 56.37 21.60L56.37 21.61L56.43 21.67Q56.22 20.20 55.12 19.37L55.25 19.49L55.25 19.49Q54.85 19.21 54.73 19.17L54.66 19.09L54.70 19.14Q54.58 18.75 53.74 17.95L53.61 17.82L53.64 17.85Q52.07 16.73 47.84 16.54L47.84 16.54L47.93 16.63Q41.29 16.35 37.29 13.45L37.25 13.41L37.31 13.47Q40.63 20.53 40.94 28.06L40.87 27.99L40.88 28.00Q41.18 35.81 38.36 42.74L38.39 42.76L40.49 41.85L40.50 41.86Q40.00 42.89 39.51 44.03L39.63 44.15L39.62 44.14Q43.88 42.23 48.90 42.23L49.01 42.34L48.95 42.28Q50.28 42.20 51.72 42.35ZM49.61 31.83L49.66 31.88L49.60 31.81Q50.46 31.88 51.37 32.33L51.26 32.22L51.36 32.32Q51.30 32.49 51.46 33.56L51.64 33.74L51.50 33.60Q51.64 34.92 50.70 35.96L50.88 36.14L50.83 36.09Q49.85 37.09 48.45 36.98L48.40 36.94L46.98 37.12L46.98 37.11Q46.12 37.05 45.40 37.17L45.51 37.28L45.41 37.18Q45.74 35.38 45.81 31.91L45.84 31.94L45.85 31.95Q46.55 31.93 47.81 31.89L47.71 31.79L47.75 31.83Q49.01 31.79 49.62 31.83ZM48.70 22.35L48.63 22.28L48.94 22.21L48.92 22.19Q49.24 22.28 49.43 22.32L49.33 22.22L49.83 22.34L50.15 22.47L50.66 22.44L50.76 22.54Q50.83 22.77 50.83 23.07L50.85 23.09L50.87 23.65L50.81 23.58Q50.73 24.76 49.86 25.69L49.93 25.77L50.03 25.87Q49.13 26.78 47.92 26.78L47.79 26.66L47.84 26.71Q46.79 26.68 46.79 26.68L46.73 26.63L46.77 26.66Q45.44 26.63 45.78 26.63L45.90 26.74L45.82 26.67Q45.89 25.25 45.59 22.21L45.50 22.11L45.40 22.02Q47.14 22.31 48.66 22.31Z"/></svg>