<svg xmlns="http://www.w3.org/2000/svg" width="150" height="50" viewBox="0,0,150,50"><rect width="100%" height="100%" fill="white"/><path d="M13 11 C55 46,79 27,130 46" stroke="#3fe3ba" fill="none"/><path d="M3 27 C91 17,77 7,134 13" stroke="#dfb843" fill="none"/><path fill="#3fe893" d="M44.28 26.76L44.37 26.85L44.37 26.86Q46.09 26.94 47.92 26.94L47.98 27.00L47.91 26.93Q49.75 26.98 51.58 26.83L51.56 26.80L51.56 26.81Q51.42 27.43 51.42 28.15L51.54 28.28L51.44 29.50L51.52 29.58Q49.03 29.45 44.27 29.57L44.29 29.59L44.44 29.73Q44.34 35.57 43.19 40.56L43.26 40.62L43.13 40.49Q41.06 41.32 39.58 42.12L39.54 42.09L39.57 42.12Q41.85 35.25 41.58 28.14L41.53 28.09L41.59 28.14Q41.23 20.90 38.57 14.23L38.66 14.33L38.58 14.25Q42.31 16.83 47.07 17.06L47.00 16.99L47.16 17.16Q51.72 17.23 55.87 15.48L55.91 15.51L55.81 15.41Q55.68 16.38 55.45 17.18L55.37 17.10L54.92 18.75L54.81 18.64Q52.27 19.90 49.30 20.06L49.16 19.92L49.14 19.89Q46.19 20.03 43.33 19.31L43.35 19.32L43.42 19.39Q44.21 22.88 44.40 26.88ZM56.56 14.83L56.56 14.83L56.53 14.80Q51.96 16.96 47.08 16.66L47.07 16.64L47.12 16.69Q41.62 16.22 37.89 13.37L38.08 13.56L37.92 13.40Q40.87 20.42 41.17 28.03L41.26 28.12L41.14 28.00Q41.60 36.07 39.09 42.85L39.11 42.87L39.04 42.80Q39.64 42.33 41.01 41.69L40.98 41.65L41.04 41.72Q40.91 42.54 40.34 44.06L40.23 43.96L40.23 43.96Q42.50 42.83 45.39 42.34L45.55 42.50L45.51 42.46Q46.11 37.57 46.30 31.86L46.27 31.84L46.19 31.75Q48.11 31.85 49.94 31.85L49.86 31.77L49.89 31.80Q51.79 31.91 53.62 32.10L53.50 31.98L53.51 31.99Q53.45 31.10 53.45 30.18L53.39 30.12L53.46 28.29L53.37 28.20Q52.66 28.36 51.82 28.36L51.75 28.30L51.87 28.41Q51.75 27.42 51.83 26.39L51.86 26.42L51.92 26.48Q50.51 26.64 49.11 26.64L49.17 26.70L49.07 26.60Q47.71 26.65 46.34 26.61L46.42 26.69L46.17 24.31L46.22 24.36Q46.22 23.29 46.10 22.23L46.12 22.25L46.04 22.16Q47.02 22.23 48.01 22.23L48.09 22.31L48.17 22.39Q52.75 22.21 56.37 20.31L56.45 20.39L56.44 20.38Q57.00 18.62 57.91 15.99L57.87 15.95L57.82 15.90Q56.50 16.71 55.70 17.05L55.69 17.05L55.68 17.03Q55.98 16.30 56.47 14.74Z"/><path fill="#5de3e3" d="M95.92 19.63L95.99 19.70L96.00 19.70Q93.91 19.71 92.96 19.87L92.95 19.86L92.99 19.90Q91.41 20.18 90.19 20.71L90.27 20.79L90.19 20.71Q86.61 22.08 86.50 26.77L86.50 26.77L86.60 26.87Q86.44 29.45 87.09 32.38L87.11 32.40L87.19 32.48Q88.00 36.45 91.62 37.63L91.65 37.66L91.55 37.57Q93.45 38.13 94.90 37.98L94.96 38.04L95.38 38.01L95.44 38.06Q95.68 38.11 95.87 38.15L95.68 37.97L95.82 38.11Q95.98 38.11 96.13 38.07L96.18 38.12L96.14 38.08Q98.80 37.85 100.17 37.27L100.08 37.19L96.41 33.56L96.42 33.56Q96.84 33.34 97.45 32.73L97.52 32.80L98.31 31.76L98.30 31.75Q100.15 33.83 102.13 35.89L102.24 36.00L102.12 35.88Q104.48 34.09 104.75 28.72L104.71 28.69L104.67 28.65Q104.92 27.90 104.92 26.99L104.93 27.00L104.84 26.91Q104.82 21.22 99.76 20.11L99.70 20.06L99.68 20.03Q98.40 19.74 95.89 19.59ZM108.79 41.79L108.73 41.73L108.65 41.65Q108.09 42.11 106.91 42.99L107.04 43.12L102.65 39.45L102.48 39.28Q100.14 40.64 95.88 40.67L95.78 40.58L95.73 40.53Q89.18 40.63 86.36 38.39L86.55 38.58L86.52 38.55Q84.76 36.79 84.30 33.82L84.27 33.79L84.21 33.72Q84.07 31.98 83.69 28.41L83.54 28.26L83.58 28.30Q83.68 27.68 83.57 25.93L83.59 25.95L83.49 25.85Q83.27 24.22 83.30 23.34L83.43 23.47L83.48 23.52Q83.53 20.41 85.29 18.85L85.20 18.77L85.31 18.88Q86.88 17.59 90.08 17.10L90.07 17.09L89.90 16.91Q92.41 16.57 95.30 16.65L95.38 16.72L95.33 16.68Q102.78 16.74 105.90 19.10L106.06 19.26L105.92 19.12Q108.20 21.36 107.93 26.27L107.79 26.13L107.91 26.25Q107.67 29.86 107.48 31.19L107.44 31.15L107.55 31.26Q106.78 35.62 104.46 37.95L104.45 37.94L104.60 38.09Q105.91 39.18 108.65 41.65ZM103.92 17.50L103.88 17.46L103.97 17.55Q101.92 16.79 95.41 16.29L95.38 16.27L95.35 16.24Q94.05 16.35 91.28 16.47L91.26 16.45L91.29 16.48Q87.05 16.70 84.81 18.68L84.72 18.59L84.73 18.60Q83.10 20.09 83.10 23.25L83.13 23.28L82.98 23.13Q83.07 24.06 83.22 25.77L83.16 25.71L83.12 25.67Q83.29 27.40 83.29 28.28L83.41 28.40L83.41 28.40Q83.55 30.14 83.93 33.72L83.80 33.58L83.83 33.61Q84.17 36.47 85.77 38.52L85.83 38.58L85.75 38.50Q86.13 39.38 87.35 40.52L87.38 40.55L87.37 40.54Q90.08 42.53 95.26 42.80L95.23 42.77L95.37 42.91Q95.67 42.87 98.07 42.98L98.15 43.06L98.07 42.98Q102.77 43.04 105.06 41.97L105.20 42.12L105.11 42.03Q105.92 42.65 110.64 46.23L110.66 46.24L110.71 46.30Q111.42 45.86 112.71 44.87L112.73 44.89L112.58 44.74Q111.70 44.05 110.90 43.37L111.01 43.47L109.28 41.93L109.33 41.83L109.31 41.81Q108.92 41.53 107.70 40.50L107.71 40.52L107.52 40.32Q109.44 37.83 109.44 33.30L109.42 33.28L109.55 33.41Q109.58 33.02 109.62 32.19L109.51 32.08L109.56 32.12Q109.51 31.20 109.51 30.78L109.65 30.92L109.65 30.92Q109.64 25.39 108.92 23.03L108.88 22.99L108.96 23.07Q108.53 21.73 107.65 20.66L107.65 20.66L107.53 20.54Q106.84 18.52 103.91 17.49ZM97.78 21.94L97.88 22.04L97.92 22.08Q101.96 21.97 103.78 23.57L103.80 23.58L103.85 23.64Q104.24 24.68 104.36 26.01L104.46 26.11L104.38 26.03Q104.50 27.33 104.42 28.70L104.48 28.75L104.38 28.66Q104.12 33.69 102.18 35.40L102.26 35.48L102.22 35.44Q100.82 34.05 98.31 31.31L98.45 31.44L98.38 31.38Q97.53 32.05 95.97 33.61L96.08 33.72L96.03 33.67Q96.64 34.32 97.78 35.50L97.74 35.46L97.65 35.48L97.66 35.49Q98.29 36.08 99.31 37.14L99.15 36.98L99.30 37.13Q98.22 37.31 95.90 37.61L95.88 37.59L95.49 37.74L95.09 37.76L94.99 37.69L94.97 37.67Q91.47 37.64 89.49 36.00L89.57 36.08L89.51 36.02Q88.54 33.98 88.58 30.86L88.57 30.86L88.51 30.80Q88.61 22.02 97.78 21.94Z"/><path d="M2 35 C88 26,60 44,135 3" stroke="#ebba89" fill="none"/></svg>