<svg xmlns="http://www.w3.org/2000/svg" width="150" height="50" viewBox="0,0,150,50"><rect width="100%" height="100%" fill="white"/><path fill="#83cae1" d="M52.97 28.62L52.98 28.63L47.09 28.72L47.13 28.75Q44.14 28.73 41.21 28.66L41.30 28.74L41.33 28.78Q41.40 35.43 39.34 40.95L39.37 40.98L39.40 41.01Q37.55 41.48 35.80 42.17L35.67 42.04L35.81 42.17Q38.50 36.38 38.50 29.72L38.61 29.83L38.61 29.83Q38.48 21.21 34.37 14.17L34.45 14.25L34.42 14.22Q35.99 15.06 38.46 15.86L38.40 15.80L38.52 15.92Q40.55 20.88 41.08 25.75L41.16 25.83L41.07 25.74Q44.36 26.25 47.21 26.21L47.19 26.19L47.22 26.22Q49.78 26.11 53.09 25.84L53.08 25.83L53.21 25.96Q53.54 21.42 55.29 16.32L55.26 16.29L55.29 16.32Q57.30 15.97 59.55 15.13L59.54 15.12L59.60 15.19Q55.80 21.74 55.80 29.70L55.87 29.77L55.89 29.79Q55.90 36.00 58.26 41.33L58.35 41.43L58.30 41.37Q56.64 40.70 54.58 40.40L54.56 40.37L54.67 40.49Q52.91 35.37 53.03 28.67ZM54.28 40.70L54.31 40.73L54.24 40.66Q55.43 40.98 56.54 41.24L56.57 41.27L56.47 41.17Q56.87 41.96 57.52 43.44L57.55 43.48L57.51 43.43Q60.85 44.38 62.64 45.29L62.62 45.27L62.53 45.18Q58.17 39.11 57.86 30.85L57.87 30.85L57.82 30.80Q57.44 22.70 61.10 15.88L61.29 16.08L60.15 16.46L60.15 16.46Q59.63 16.66 59.02 16.81L59.11 16.91L59.10 16.89Q59.37 15.94 60.21 14.38L60.26 14.43L60.26 14.43Q57.58 15.45 54.95 15.94L54.99 15.98L54.99 15.98Q53.25 20.75 52.79 25.43L52.91 25.55L52.82 25.46Q50.46 25.80 48.02 25.80L48.00 25.78L47.91 25.69Q45.48 25.66 42.97 25.50L42.98 25.52L42.95 25.49Q42.79 22.28 41.69 18.21L41.73 18.25L41.72 18.25Q41.02 18.11 39.57 17.73L39.67 17.83L39.63 17.79Q39.12 16.44 38.66 15.41L38.65 15.40L38.82 15.57Q36.05 14.78 33.77 13.53L33.70 13.46L33.68 13.44Q38.34 20.96 38.34 29.75L38.26 29.67L38.30 29.71Q38.31 36.69 35.19 42.82L35.25 42.87L35.18 42.80Q35.86 42.49 37.19 41.92L37.28 42.01L37.26 41.99Q36.94 42.85 36.14 44.37L36.12 44.36L36.02 44.26Q38.94 43.36 41.18 42.94L41.12 42.89L41.14 42.91Q42.92 37.26 43.11 31.09L43.11 31.10L43.26 31.25Q44.72 31.03 47.92 30.99L47.88 30.95L47.98 31.05Q50.82 31.00 52.72 31.07L52.79 31.14L52.68 31.03Q53.05 36.88 54.38 40.80Z"/><path d="M6 17 C63 46,63 42,143 8" stroke="#8c8cec" fill="none"/><path fill="#b7e38b" d="M99.56 27.15L99.61 27.20L99.67 27.25Q100.46 27.25 101.87 27.10L101.74 26.97L101.86 27.08Q101.67 27.58 101.67 28.23L101.82 28.38L101.68 29.49L101.85 29.66Q100.90 29.56 100.06 29.63L100.00 29.57L100.07 29.64Q99.24 29.69 98.40 29.65L98.46 29.70L98.34 29.58Q95.49 35.76 92.07 40.37L92.02 40.32L92.21 40.51Q89.61 41.07 88.31 41.68L88.27 41.64L88.38 41.75Q92.42 35.96 95.47 29.68L95.39 29.60L92.75 29.59L92.83 29.67Q92.78 28.29 92.66 26.95L92.64 26.93L92.72 27.01Q94.62 27.16 96.68 27.16L96.73 27.21L98.56 23.45L98.66 23.55Q99.64 21.63 100.85 20.03L100.89 20.06L100.71 19.88Q99.26 20.15 97.66 20.15L97.65 20.14L97.69 20.18Q91.60 20.18 87.83 17.97L87.79 17.94L87.16 16.23L87.11 16.19Q86.87 15.45 86.49 14.57L86.36 14.44L86.49 14.57Q90.76 17.13 96.47 17.36L96.55 17.44L96.39 17.28Q101.60 17.58 106.74 15.60L106.76 15.62L106.69 15.55Q106.46 15.93 105.96 16.80L106.03 16.87L105.96 16.80Q102.47 21.68 99.61 27.20ZM107.72 18.33L107.73 18.34L108.57 16.17L108.54 16.15Q107.66 16.71 105.99 17.43L105.97 17.42L106.29 17.24L106.21 17.16Q106.31 16.99 106.42 16.88L106.46 16.91L106.44 16.90Q106.79 16.18 107.51 14.85L107.58 14.91L107.47 14.80Q102.18 17.13 96.43 16.90L96.52 16.99L96.39 16.87Q90.38 16.60 85.62 13.63L85.71 13.72L85.71 13.72Q86.67 15.51 87.51 18.18L87.51 18.18L87.61 18.28Q88.60 18.82 89.40 19.12L89.37 19.09L89.54 19.27Q89.69 19.61 90.15 21.47L89.96 21.29L90.09 21.41Q93.13 22.54 98.65 22.39L98.84 22.59L98.83 22.57Q98.40 23.02 96.42 26.79L96.40 26.77L96.56 26.93Q94.44 26.86 92.46 26.67L92.50 26.72L92.38 26.59Q92.44 27.42 92.44 28.29L92.47 28.32L92.40 29.97L94.09 29.98L94.16 31.46L94.24 31.54Q90.32 38.93 87.54 42.50L87.39 42.35L87.49 42.45Q89.05 41.65 90.69 41.16L90.64 41.11L90.72 41.19Q90.03 42.10 88.66 43.82L88.73 43.88L88.57 43.72Q91.84 42.73 94.28 42.50L94.25 42.48L94.25 42.47Q97.23 38.76 100.36 31.98L100.20 31.83L103.75 32.14L103.77 32.16Q103.63 31.18 103.63 30.27L103.59 30.22L103.72 28.56L103.57 28.42Q103.33 28.44 102.78 28.48L102.80 28.51L102.86 28.57Q102.36 28.65 102.09 28.65L101.95 28.51L102.03 28.59Q101.97 28.42 102.01 28.27L102.02 28.28L102.04 28.03L102.12 28.11Q104.63 22.97 107.72 18.33Z"/><path d="M17 10 C62 17,76 40,134 1" stroke="#ee85ee" fill="none"/><path d="M4 18 C59 18,92 4,143 38" stroke="#e8e88c" fill="none"/></svg>