<svg xmlns="http://www.w3.org/2000/svg" width="150" height="50" viewBox="0,0,150,50"><rect width="100%" height="100%" fill="white"/><path d="M3 44 C83 21,84 42,138 1" stroke="#43e9bf" fill="none"/><path d="M1 30 C78 34,88 41,140 26" stroke="#5252d5" fill="none"/><path d="M17 13 C74 36,70 9,136 2" stroke="#e3b78b" fill="none"/><path fill="#64caeb" d="M48.12 40.19L47.98 40.06L46.03 40.39L46.04 40.40Q45.58 40.40 44.61 40.45L44.52 40.36L44.52 40.36Q43.58 40.45 43.08 40.45L43.12 40.49L43.09 40.46Q41.45 40.46 40.42 39.62L40.30 39.49L40.33 39.52Q41.22 38.51 42.86 36.38L42.73 36.25L42.78 36.30Q44.14 37.97 46.35 37.74L46.25 37.64L46.38 37.77Q47.14 37.50 47.79 36.85L47.84 36.90L47.80 36.86Q48.54 36.31 48.43 35.44L48.42 35.43L48.45 35.46Q48.33 30.85 48.40 26.28L48.39 26.26L48.36 26.23Q48.36 21.59 48.90 16.99L48.87 16.96L48.88 16.97Q50.83 16.79 52.96 15.76L53.04 15.84L52.94 15.74Q51.19 22.59 51.19 29.82L51.18 29.82L51.17 29.80Q51.18 33.36 51.64 36.86L51.49 36.71L51.67 36.89Q51.66 37.15 51.66 37.49L51.71 37.54L51.67 37.50Q51.64 38.04 51.41 38.57L51.45 38.62L51.41 38.57Q50.82 39.81 48.00 40.07ZM53.07 43.05L53.00 42.98L53.34 42.98L53.54 42.76L53.89 42.73L53.90 42.74Q54.11 42.38 54.19 42.26L54.28 42.35L54.22 42.29Q54.39 41.10 54.13 40.11L54.17 40.15L54.14 40.12Q52.74 34.27 53.01 27.91L53.12 28.02L53.14 28.04Q53.25 21.80 55.04 15.90L55.15 16.01L55.04 15.90Q54.29 16.67 53.03 17.39L53.06 17.42L53.02 17.38Q53.26 16.67 53.68 15.14L53.65 15.12L53.68 15.14Q51.06 16.37 48.39 16.68L48.52 16.80L48.35 16.63Q47.98 21.02 47.90 25.97L48.09 26.16L48.01 26.08Q47.94 31.99 48.02 35.41L48.09 35.48L47.98 35.37Q48.11 37.22 46.36 37.37L46.35 37.36L46.21 37.22Q44.56 37.40 42.89 35.76L42.93 35.80L42.90 35.77Q40.93 38.37 39.97 39.93L39.95 39.90L39.91 39.87Q40.49 40.44 41.52 40.67L41.65 40.81L41.59 40.74Q41.50 40.88 41.23 41.11L41.18 41.06L41.32 41.20Q42.64 42.03 44.62 42.29L44.55 42.22L44.74 42.42Q45.10 42.42 48.39 42.73L48.31 42.65L48.29 42.63Q51.61 42.96 52.98 42.96Z"/><path fill="#6363d8" d="M99.91 29.40L100.07 29.56L99.97 29.46Q98.84 28.75 98.19 28.79L98.21 28.81L98.08 28.68Q96.72 28.77 95.68 29.78L95.81 29.91L95.69 29.79Q94.66 30.81 94.77 32.18L94.77 32.18L94.82 32.23Q95.16 36.61 94.29 41.14L94.20 41.05L94.25 41.10Q92.02 41.54 90.92 42.07L90.93 42.09L90.95 42.10Q92.44 37.92 92.21 33.47L92.28 33.54L92.18 33.44Q91.91 28.91 90.20 24.83L90.34 24.97L90.22 24.85Q91.48 25.65 93.76 26.30L93.60 26.14L94.34 29.01L94.22 28.89Q95.02 26.12 99.29 26.12L99.21 26.03L99.15 25.98Q99.55 25.92 99.85 25.92L99.79 25.86L99.80 25.86Q101.26 26.03 102.51 26.72L102.53 26.73L102.47 26.67Q101.16 28.03 100.02 29.51ZM101.53 31.40L101.74 31.46L101.77 31.49Q102.68 30.35 104.36 27.91L104.22 27.78L104.30 27.85Q103.78 27.45 102.26 27.18L102.20 27.13L102.24 27.17Q102.62 26.90 103.08 26.29L103.07 26.28L103.02 26.23Q101.10 25.30 99.15 25.49L99.15 25.48L99.33 25.67Q97.23 25.70 96.51 25.96L96.50 25.95L96.55 26.01Q95.16 26.45 94.36 27.55L94.46 27.65L94.09 26.63L94.05 25.94L94.06 25.95Q91.64 25.51 89.66 24.18L89.68 24.20L89.64 24.16Q91.83 28.60 92.06 33.47L91.98 33.39L91.87 33.28Q92.28 38.37 90.53 42.90L90.37 42.74L90.44 42.81Q91.47 42.28 92.35 41.98L92.35 41.98L92.45 42.08Q92.05 43.05 91.55 44.12L91.63 44.19L91.59 44.16Q94.57 43.44 96.70 43.32L96.69 43.31L96.71 38.61L96.72 38.63Q97.01 36.55 97.01 34.31L96.90 34.20L96.99 34.29Q96.99 33.10 97.90 32.13L97.74 31.97L97.82 32.06Q98.82 31.17 99.96 31.09L99.87 31.00L99.88 31.01Q100.42 30.79 101.14 31.47L101.15 31.48L101.50 31.38ZM96.63 29.70L96.65 29.65L96.60 29.71L96.64 29.71Z"/></svg>