<svg xmlns="http://www.w3.org/2000/svg" width="150" height="50" viewBox="0,0,150,50"><rect width="100%" height="100%" fill="white"/><path d="M19 2 C92 43,72 32,142 39" stroke="#79e079" fill="none"/><path d="M20 34 C76 9,76 3,141 27" stroke="#97e7ab" fill="none"/><path d="M5 32 C95 35,95 43,140 10" stroke="#e263e2" fill="none"/><path fill="#82e89b" d="M99.67 27.26L99.50 27.09L99.59 27.18Q100.30 27.09 101.71 26.94L101.69 26.92L101.76 26.98Q101.73 27.65 101.73 28.30L101.65 28.22L101.74 29.56L101.80 29.62Q100.94 29.60 100.11 29.67L100.09 29.66L100.09 29.66Q99.14 29.58 98.30 29.55L98.47 29.71L98.35 29.59Q95.57 35.84 92.14 40.44L92.03 40.33L92.07 40.37Q89.61 41.07 88.32 41.68L88.22 41.59L88.29 41.65Q92.39 35.93 95.43 29.65L95.49 29.71L92.85 29.69L92.85 29.69Q92.84 28.35 92.73 27.02L92.64 26.93L92.64 26.93Q94.67 27.21 96.73 27.21L96.64 27.12L98.49 23.38L98.61 23.49Q99.64 21.64 100.86 20.04L100.78 19.96L100.89 20.06Q99.24 20.13 97.64 20.13L97.70 20.19L97.69 20.18Q91.48 20.06 87.71 17.85L87.87 18.01L87.05 16.12L87.14 16.22Q86.73 15.31 86.35 14.43L86.42 14.51L86.44 14.52Q90.85 17.22 96.56 17.45L96.37 17.26L96.38 17.27Q101.62 17.60 106.76 15.62L106.74 15.60L106.64 15.50Q106.59 16.06 106.09 16.93L106.09 16.93L106.12 16.96Q102.45 21.67 99.60 27.19ZM107.55 18.16L107.56 18.17L108.72 16.32L108.73 16.34Q107.66 16.71 105.98 17.43L106.03 17.47L106.18 17.14L106.11 17.06Q106.37 17.05 106.48 16.94L106.50 16.96L106.41 16.87Q106.77 16.16 107.49 14.83L107.59 14.93L107.46 14.80Q102.17 17.12 96.42 16.90L96.45 16.92L96.37 16.84Q90.43 16.64 85.67 13.68L85.72 13.73L85.68 13.69Q86.68 15.53 87.52 18.19L87.54 18.22L87.49 18.17Q88.72 18.94 89.52 19.24L89.38 19.10L89.37 19.09Q89.63 19.54 90.08 21.40L90.05 21.37L89.98 21.30Q93.21 22.63 98.73 22.48L98.75 22.50L98.72 22.47Q98.52 23.14 96.54 26.91L96.43 26.80L96.43 26.80Q94.48 26.90 92.50 26.71L92.39 26.60L92.41 26.63Q92.58 27.56 92.58 28.43L92.44 28.29L92.42 29.99L94.10 29.99L94.14 31.44L94.18 31.47Q90.35 38.95 87.57 42.53L87.54 42.50L87.53 42.49Q88.98 41.58 90.62 41.09L90.64 41.11L90.74 41.21Q90.03 42.10 88.66 43.82L88.67 43.82L88.69 43.85Q91.76 42.65 94.20 42.42L94.35 42.57L94.34 42.57Q97.19 38.71 100.31 31.94L100.30 31.93L103.78 32.17L103.63 32.02Q103.68 31.23 103.68 30.32L103.61 30.24L103.72 28.57L103.69 28.54Q103.35 28.47 102.80 28.51L102.74 28.45L102.78 28.48Q102.23 28.52 101.96 28.52L101.95 28.52L102.02 28.58Q101.92 28.36 101.96 28.21L101.96 28.22L102.08 28.07L102.13 28.12Q104.48 22.82 107.57 18.18Z"/><path fill="#8cdf70" d="M44.26 14.10L44.21 14.05L44.29 14.13Q45.06 15.97 46.74 16.31L46.86 16.43L46.92 16.49Q47.45 16.61 48.13 16.42L47.98 16.26L48.13 16.41Q47.87 22.28 47.79 28.14L47.78 28.13L47.69 28.04Q47.70 33.88 47.93 39.81L48.00 39.89L48.01 39.90Q47.61 39.73 47.31 39.73L47.35 39.77L47.36 39.77Q45.90 39.88 44.61 41.71L44.44 41.54L44.49 41.59Q45.19 34.68 45.15 27.83L45.08 27.76L45.18 27.85Q45.15 21.01 44.32 14.16ZM44.08 42.74L44.16 42.82L44.22 42.88Q45.09 40.86 46.16 40.40L46.22 40.46L46.20 40.44Q46.24 41.59 46.24 42.58L46.22 42.56L46.09 42.43Q46.86 42.10 47.66 42.21L47.76 42.31L47.69 42.24Q49.66 42.50 50.88 45.20L50.89 45.21L51.03 45.35Q49.77 37.74 49.77 30.27L49.72 30.22L49.75 30.25Q49.85 22.63 50.69 15.32L50.57 15.20L50.67 15.30Q49.67 17.18 48.52 17.79L48.41 17.68L48.48 17.75Q48.43 16.67 48.50 15.60L48.58 15.69L48.45 15.55Q47.83 16.23 47.07 16.07L47.01 16.01L46.89 15.89Q44.73 15.52 43.74 12.67L43.76 12.68L43.79 12.72Q44.80 20.20 44.88 27.74L44.83 27.69L44.81 27.67Q44.93 35.17 44.05 42.71Z"/></svg>