<svg xmlns="http://www.w3.org/2000/svg" width="150" height="50" viewBox="0,0,150,50"><rect width="100%" height="100%" fill="white"/><path d="M1 11 C57 19,68 18,133 46" stroke="#ea75ea" fill="none"/><path d="M17 30 C77 41,91 28,148 23" stroke="#7ee197" fill="none"/><path d="M6 33 C65 21,58 28,144 41" stroke="#6c45e2" fill="none"/><path fill="#7cd1ed" d="M92.51 40.39L92.46 40.34L92.49 40.37Q91.06 40.42 89.50 40.01L89.52 40.03L89.55 40.06Q88.36 39.17 88.21 37.53L88.17 37.49L88.07 37.40Q88.04 37.22 88.23 34.59L88.19 34.54L88.31 34.67Q89.36 34.50 91.38 34.12L91.33 34.07L91.11 34.80L91.16 34.85Q90.93 36.64 92.33 37.21L92.22 37.09L92.25 37.13Q93.10 37.52 95.20 37.52L95.10 37.42L95.22 37.54Q96.74 37.32 96.94 37.24L97.03 37.33L96.90 37.21Q97.94 37.18 98.66 36.68L98.54 36.56L98.68 36.70Q99.98 35.64 99.79 33.55L99.78 33.53L99.81 33.57Q99.62 31.13 97.89 29.57L97.86 29.54L97.94 29.62Q96.19 28.05 93.72 28.05L93.71 28.04L93.59 27.69L93.76 27.86Q94.09 27.77 94.97 27.70L94.90 27.63L94.95 27.68Q96.83 27.55 98.21 26.31L98.16 26.26L98.20 26.30Q99.67 25.16 99.82 23.30L99.82 23.29L99.67 23.15Q99.77 22.83 99.77 22.49L99.79 22.51L99.85 22.57Q99.89 21.08 98.51 20.17L98.48 20.13L98.45 20.10Q97.24 19.31 95.65 19.43L95.68 19.47L95.56 19.34Q94.28 19.21 93.07 19.63L93.10 19.66L93.15 19.71Q91.75 20.29 91.45 21.44L91.43 21.42L91.42 21.41Q91.25 22.19 91.33 22.95L91.15 22.77L91.29 22.91Q90.12 22.55 88.07 21.82L88.08 21.84L88.19 21.94Q87.85 20.16 87.88 19.32L87.95 19.38L87.93 19.36Q88.15 17.95 89.22 17.26L89.06 17.11L89.10 17.15Q90.49 16.51 92.08 16.51L92.14 16.57L92.09 16.52Q95.32 16.55 98.48 16.81L98.50 16.84L98.44 16.78Q103.60 17.30 103.30 21.07L103.15 20.92L103.31 21.08Q103.25 22.58 102.75 24.14L102.71 24.10L102.67 24.06Q101.76 27.14 99.40 28.05L99.38 28.03L99.42 28.08Q102.02 28.58 102.63 31.93L102.60 31.90L102.56 31.86Q102.86 33.07 102.93 35.09L102.97 35.13L102.94 35.10Q103.16 39.62 98.56 40.08L98.41 39.94L98.44 39.97Q97.78 40.10 92.49 40.37ZM97.60 42.51L97.61 42.52L97.59 42.51Q98.38 42.72 101.23 42.79L101.06 42.62L101.23 42.79Q102.81 42.69 104.45 42.05L104.50 42.11L104.61 42.21Q105.75 41.22 105.56 39.47L105.55 39.46L105.43 39.34Q105.34 38.03 105.04 36.28L105.11 36.35L105.05 36.30Q104.41 31.89 102.47 30.25L102.42 30.20L102.33 29.92L102.11 29.66L102.18 29.73Q103.93 28.28 104.69 23.90L104.69 23.91L104.68 23.90Q104.83 23.55 104.94 22.60L104.91 22.57L104.84 22.50Q104.96 21.78 104.89 21.09L104.91 21.12L104.85 21.06Q104.67 19.36 103.38 18.67L103.42 18.71L103.26 18.63L103.40 18.77Q103.07 17.75 101.92 17.22L101.89 17.18L101.96 17.26Q100.42 16.55 95.28 16.25L95.20 16.17L95.16 16.12Q93.49 16.06 91.89 16.06L92.00 16.16L91.87 16.03Q90.35 16.12 88.83 16.76L88.92 16.85L88.77 16.70Q87.61 17.52 87.61 19.27L87.64 19.31L87.54 19.20Q87.63 18.88 87.90 22.23L87.93 22.26L87.86 22.19Q88.12 22.22 89.76 22.83L89.82 22.89L89.84 22.92Q89.81 23.42 89.78 23.91L89.82 23.96L89.73 23.87Q89.78 24.42 89.82 24.95L89.92 25.05L89.84 24.97Q91.67 25.39 93.69 25.50L93.65 25.46L93.68 25.50Q93.49 23.36 94.59 22.52L94.57 22.51L94.73 22.66Q95.44 21.89 97.46 21.66L97.61 21.81L97.53 21.73Q98.60 21.66 99.17 21.85L99.31 21.99L99.19 21.87Q99.34 22.10 99.38 22.21L99.30 22.13L99.35 22.37L99.38 22.86L99.50 22.97Q99.38 23.05 99.35 23.20L99.39 23.25L99.36 23.22Q99.22 24.87 97.70 26.05L97.76 26.11L97.81 26.16Q96.88 27.06 94.86 27.25L94.93 27.32L94.78 27.16Q94.13 27.39 93.26 27.39L93.32 27.45L93.17 27.31Q93.28 27.72 93.43 28.41L93.40 28.38L93.48 28.45Q95.30 28.52 96.74 29.24L96.66 29.16L96.50 29.12L94.93 29.29L94.94 29.31Q94.94 29.61 95.05 30.22L95.21 30.37L95.06 30.22Q97.24 30.20 98.96 31.53L98.95 31.52L98.91 31.49Q99.24 31.97 99.54 33.60L99.47 33.53L99.55 33.61Q99.66 36.47 96.73 36.89L96.77 36.92L96.83 36.98Q94.68 37.20 94.11 37.16L94.11 37.16L94.11 37.16Q93.72 37.11 93.19 37.03L93.01 36.85L93.08 36.47L93.24 36.06L93.22 35.62L93.23 35.29L93.38 35.44Q92.44 35.52 91.64 35.71L91.47 35.54L91.65 35.72Q91.59 35.48 91.59 35.29L91.54 35.24L91.45 35.14Q91.46 34.93 91.46 34.70L91.46 34.70L91.50 34.74Q91.64 34.42 91.79 33.70L91.73 33.64L91.78 33.68Q89.93 33.93 88.06 34.27L88.10 34.30L88.04 34.25Q88.00 34.70 87.88 35.82L87.85 35.79L87.80 35.73Q87.75 36.93 87.75 37.54L87.85 37.63L87.74 37.52Q87.95 39.71 89.32 40.47L89.32 40.47L89.29 40.45Q90.78 42.73 95.50 42.54L95.42 42.47L95.41 42.46Q96.15 42.44 97.68 42.59Z"/><path fill="#61e9a5" d="M46.52 40.16L46.50 40.14L44.06 33.24L44.13 33.31Q39.86 20.82 33.92 14.42L33.91 14.41L33.89 14.40Q35.90 15.45 38.49 16.06L38.49 16.06L38.51 16.08Q43.53 22.25 47.87 35.00L47.92 35.05L48.01 35.13Q50.90 26.87 51.58 25.27L51.67 25.36L51.57 25.26Q54.10 19.79 56.92 16.48L56.90 16.47L56.94 16.51Q58.97 16.10 61.60 15.22L61.49 15.11L61.50 15.12Q57.07 19.87 54.02 27.10L54.01 27.09L53.88 26.96Q52.58 30.72 48.88 40.24L48.85 40.20L48.81 40.16Q48.27 40.19 47.70 40.15L47.69 40.15L47.78 40.24Q47.05 40.08 46.48 40.11ZM51.54 42.58L51.53 42.58L51.65 42.70Q54.42 32.67 55.98 28.64L55.97 28.63L55.83 28.49Q58.90 20.86 63.32 15.99L63.34 16.02L63.34 16.01Q62.39 16.47 60.29 17.19L60.22 17.12L61.31 15.73L61.41 15.83Q61.94 15.11 62.55 14.46L62.60 14.51L62.57 14.48Q59.63 15.35 56.62 15.92L56.71 16.01L56.66 15.96Q52.25 21.25 48.37 32.71L48.55 32.90L48.36 32.71Q44.77 22.65 41.58 18.27L41.68 18.37L41.64 18.34Q41.29 18.29 40.41 18.14L40.27 17.99L40.27 17.99Q40.10 17.67 38.50 15.61L38.52 15.63L38.58 15.69Q35.57 14.93 32.86 13.52L32.93 13.58L32.80 13.46Q39.38 20.49 43.76 33.28L43.79 33.31L43.89 33.41Q45.05 37.01 46.23 40.59L46.26 40.62L46.34 40.70Q46.57 40.62 47.41 40.51L47.50 40.60L47.54 40.65Q47.90 41.34 48.58 42.67L48.57 42.66L48.48 42.57Q49.24 42.42 49.97 42.50L50.01 42.54L50.15 42.68Q50.79 42.60 51.55 42.60Z"/></svg>