<svg xmlns="http://www.w3.org/2000/svg" width="150" height="50" viewBox="0,0,150,50"><rect width="100%" height="100%" fill="white"/><path fill="#69e2a5" d="M46.51 40.14L46.48 40.11L44.22 33.40L44.20 33.38Q39.80 20.76 33.86 14.37L33.82 14.32L33.84 14.34Q35.94 15.49 38.53 16.10L38.51 16.08L38.53 16.10Q43.67 22.38 48.01 35.13L47.99 35.12L47.88 35.01Q51.03 27.00 51.71 25.40L51.62 25.31L51.66 25.35Q54.07 19.76 56.88 16.45L56.85 16.42L56.87 16.43Q58.95 16.07 61.57 15.20L61.65 15.27L61.50 15.13Q56.93 19.73 53.88 26.96L53.95 27.03L53.84 26.92Q52.54 30.68 48.85 40.20L48.82 40.17L48.77 40.12Q48.20 40.13 47.63 40.09L47.66 40.12L47.74 40.19Q47.07 40.10 46.50 40.14ZM51.52 42.57L51.53 42.57L51.55 42.59Q54.29 32.54 55.85 28.51L55.94 28.60L55.92 28.58Q58.95 20.91 63.36 16.04L63.31 15.98L63.38 16.05Q62.33 16.41 60.23 17.13L60.24 17.14L61.36 15.78L61.31 15.74Q61.89 15.06 62.50 14.41L62.56 14.47L62.59 14.50Q59.74 15.45 56.73 16.03L56.79 16.08L56.67 15.97Q52.42 21.42 48.54 32.88L48.41 32.75L48.37 32.72Q44.86 22.73 41.66 18.36L41.51 18.21L41.67 18.36Q41.31 18.31 40.44 18.16L40.31 18.03L40.27 18.00Q40.07 17.64 38.47 15.58L38.61 15.73L38.57 15.68Q35.48 14.84 32.78 13.43L32.92 13.57L32.88 13.53Q39.45 20.56 43.83 33.36L43.91 33.44L43.75 33.28Q45.14 37.10 46.32 40.67L46.19 40.55L46.17 40.53Q46.53 40.59 47.37 40.47L47.41 40.51L47.56 40.66Q47.83 41.28 48.52 42.61L48.43 42.52L48.59 42.68Q49.25 42.43 49.97 42.50L50.12 42.65L50.09 42.62Q50.79 42.59 51.55 42.59Z"/><path d="M12 42 C89 16,56 5,138 43" stroke="#4fdddd" fill="none"/><path d="M18 15 C71 45,78 5,133 2" stroke="#97e87c" fill="none"/><path fill="#bb44e3" d="M100.16 41.19L100.22 41.25L97.27 41.15L97.23 41.11Q94.74 40.90 93.94 40.79L93.97 40.83L94.03 40.88Q92.22 40.56 91.04 39.68L91.02 39.67L90.97 39.61Q89.74 38.27 89.51 34.92L89.52 34.92L89.58 34.99Q89.37 34.32 89.30 33.10L89.29 33.10L89.46 33.27Q89.30 32.69 89.22 31.58L89.22 31.58L89.31 31.67Q89.32 30.88 89.36 30.16L89.33 30.13L89.33 30.13Q89.39 28.06 90.42 27.30L90.51 27.38L90.61 27.48Q92.40 26.20 97.24 25.97L97.29 26.03L97.23 25.96Q99.24 25.84 100.04 25.84L100.02 25.82L100.14 25.94Q101.54 25.86 102.91 26.16L103.05 26.30L103.03 26.28Q102.40 27.48 101.87 29.31L101.96 29.39L101.94 29.38Q101.42 29.42 100.92 29.39L100.83 29.29L100.97 29.44Q100.86 29.40 100.32 29.28L100.16 29.12L99.31 29.00L99.18 28.86Q98.14 28.62 97.53 28.66L97.59 28.72L97.61 28.74Q92.87 28.79 92.26 31.61L92.20 31.55L92.34 31.69Q92.10 32.86 92.17 33.81L92.00 33.63L92.09 33.73Q92.29 36.36 93.52 37.44L93.42 37.34L93.38 37.30Q94.80 38.57 97.39 38.61L97.35 38.57L97.20 38.42Q98.73 38.51 99.46 38.20L99.59 38.33L100.57 37.79L100.63 37.85Q101.11 37.57 101.68 37.50L101.66 37.47L101.73 37.55Q101.80 39.17 102.18 40.47L102.29 40.58L102.24 40.53Q102.10 41.00 100.31 41.34ZM103.53 44.25L103.42 44.14L103.49 44.21Q103.92 44.30 104.76 44.38L104.70 44.32L104.60 44.22Q105.34 44.35 105.68 43.78L105.62 43.72L105.77 43.86Q104.36 41.58 103.86 39.49L103.86 39.48L104.06 39.68Q103.52 39.45 103.07 39.45L103.18 39.57L103.08 39.46Q102.81 39.61 102.43 39.80L102.27 39.64L102.41 39.78Q101.95 38.41 101.80 37.00L101.85 37.05L101.95 37.15Q101.33 37.07 100.11 37.64L100.11 37.64L100.02 37.54Q98.87 38.18 98.37 38.18L98.38 38.19L98.25 38.06Q97.87 38.17 97.26 38.14L97.19 38.06L97.32 38.19Q96.43 38.18 94.45 37.61L94.46 37.62L94.43 37.59Q93.93 36.71 93.97 35.57L93.99 35.59L94.00 35.60Q94.17 31.35 99.12 30.82L99.26 30.96L99.13 30.83Q99.91 30.93 101.28 31.27L101.19 31.18L101.22 31.21Q102.69 31.65 103.41 31.61L103.33 31.53L103.38 31.58Q103.81 29.34 104.49 27.51L104.39 27.41L104.38 27.40Q104.12 27.40 103.74 27.33L103.70 27.29L102.88 27.16L102.87 27.14Q103.09 26.69 103.47 25.81L103.57 25.91L103.45 25.79Q102.03 25.55 100.47 25.55L100.39 25.46L100.45 25.52Q98.02 25.49 93.64 25.87L93.57 25.80L93.62 25.85Q91.73 26.06 90.17 27.05L90.22 27.10L90.24 27.11Q88.95 28.00 88.95 29.90L88.87 29.82L88.96 29.91Q88.84 30.21 88.95 31.43L88.97 31.44L89.01 31.48Q89.03 32.46 88.99 33.06L89.00 33.08L89.09 33.17Q89.07 35.00 89.79 38.74L89.81 38.75L89.78 38.72Q90.14 39.54 90.63 40.04L90.80 40.21L90.95 40.35L91.00 40.36L90.94 40.30Q92.07 42.53 95.99 43.14L95.89 43.05L95.93 43.09Q98.99 43.48 101.66 43.75L101.80 43.89L101.81 43.90Q102.53 43.90 103.45 44.17Z"/><path d="M4 47 C63 30,62 48,147 37" stroke="#426be5" fill="none"/></svg>