<svg xmlns="http://www.w3.org/2000/svg" width="150" height="50" viewBox="0,0,150,50"><rect width="100%" height="100%" fill="white"/><path d="M2 37 C67 41,69 3,139 9" stroke="#e29b54" fill="none"/><path fill="#d7408c" d="M47.03 23.41L47.08 23.45L47.00 23.37Q43.92 23.49 42.09 22.42L41.95 22.28L42.08 22.41Q44.42 20.87 49.29 16.64L49.41 16.76L49.46 16.81Q50.08 16.52 51.38 15.91L51.34 15.88L51.37 15.90Q50.16 21.97 50.05 28.32L49.94 28.22L49.87 28.14Q49.76 34.51 50.83 40.60L51.01 40.78L50.92 40.69Q49.22 39.94 47.09 39.83L47.13 39.87L47.20 39.95Q47.07 35.78 47.07 31.70L46.91 31.54L46.95 31.58Q46.91 27.43 46.95 23.32ZM46.63 25.63L46.61 40.19L46.68 40.26Q47.82 40.18 48.77 40.37L48.75 40.34L48.84 40.44Q48.89 41.10 49.08 42.47L49.11 42.49L49.06 42.45Q51.99 43.05 54.42 45.30L54.44 45.32L54.33 45.20Q51.85 38.08 51.81 30.62L51.95 30.76L51.77 30.58Q51.85 23.27 53.67 16.04L53.57 15.93L53.53 15.89Q53.17 16.48 51.57 17.59L51.58 17.60L51.41 17.43Q51.70 16.77 52.01 15.24L52.03 15.27L52.00 15.24Q50.60 15.93 49.15 16.31L49.12 16.28L49.29 16.45Q45.45 19.96 41.15 22.24L41.20 22.29L41.20 22.29Q42.49 23.28 44.85 23.62L44.94 23.71L44.91 23.68Q44.34 24.29 43.05 25.36L42.98 25.29L42.93 25.24Q44.38 25.59 46.59 25.59L46.74 25.74Z"/><path d="M13 33 C76 23,77 12,137 31" stroke="#d968a0" fill="none"/><path fill="#e6d08e" d="M99.91 30.85L99.94 30.88L99.90 30.84Q99.91 29.75 97.97 29.02L97.96 29.01L97.93 28.99Q97.39 28.75 96.86 28.75L96.94 28.83L96.83 28.72Q95.45 28.71 94.38 29.28L94.46 29.36L94.42 29.32Q93.07 30.06 93.19 31.28L93.28 31.37L93.21 31.30Q93.43 34.00 93.28 36.25L93.40 36.37L93.31 36.28Q93.19 38.75 92.47 41.26L92.54 41.33L92.51 41.31Q90.35 41.77 89.17 42.19L89.18 42.20L89.14 42.16Q90.81 38.62 90.81 34.62L90.75 34.55L90.84 34.65Q90.87 29.23 88.28 24.78L88.18 24.68L88.18 24.68Q89.50 25.28 91.90 26.00L91.78 25.88L91.75 25.85Q92.11 26.63 92.49 28.15L92.52 28.18L92.57 28.23Q93.81 26.04 97.69 26.12L97.70 26.13L97.70 26.13Q99.26 26.24 100.05 26.35L99.93 26.23L100.05 26.34Q102.89 26.60 102.97 28.62L103.11 28.76L102.96 28.61Q103.18 29.70 102.99 30.73L102.98 30.72L102.99 30.73Q102.37 33.08 102.56 36.08L102.57 36.10L102.59 36.12Q102.87 39.10 103.86 41.65L103.84 41.63L103.75 41.54Q102.08 41.16 100.36 41.01L100.34 40.99L100.35 41.00Q99.92 38.66 99.84 36.00L99.77 35.93L99.81 35.97Q99.66 33.15 99.89 30.83ZM99.88 41.26L100.05 41.42L99.98 41.35Q100.79 41.36 102.09 41.59L101.96 41.46L102.36 42.55L102.46 42.65Q102.72 43.22 102.95 43.75L102.87 43.66L102.89 43.69Q105.23 44.17 107.94 45.35L107.85 45.26L107.88 45.29Q105.39 42.04 104.70 38.23L104.70 38.23L104.76 38.29Q104.49 36.23 104.60 32.54L104.58 32.51L104.60 32.53Q104.54 32.17 104.58 31.37L104.51 31.30L104.61 31.40Q104.66 30.76 104.58 30.27L104.58 30.27L104.66 30.35Q104.53 28.66 103.43 28.16L103.43 28.16L103.36 28.09Q103.28 27.33 102.52 26.72L102.54 26.75L102.54 26.74Q100.83 25.72 97.79 25.80L97.79 25.80L97.69 25.70Q95.84 25.75 95.00 25.94L95.09 26.03L95.07 26.01Q93.47 26.20 92.52 27.11L92.57 27.17L92.64 27.23Q92.55 26.72 92.16 25.69L92.05 25.58L92.02 25.55Q89.32 24.98 87.50 23.99L87.49 23.99L87.43 23.92Q90.56 28.89 90.56 34.64L90.49 34.56L90.45 34.53Q90.62 39.07 88.72 42.92L88.66 42.86L88.61 42.81Q89.24 42.45 90.53 42.07L90.55 42.09L90.69 42.23Q90.17 43.46 89.64 44.45L89.56 44.37L89.49 44.30Q91.01 43.95 94.55 43.38L94.46 43.30L94.46 43.29Q95.41 38.12 95.30 33.28L95.30 33.29L95.41 33.39Q95.33 32.51 96.51 31.79L96.52 31.80L96.56 31.84Q97.65 31.26 98.76 31.14L98.76 31.15L98.59 30.97Q99.07 30.97 99.49 31.16L99.48 31.14L99.63 31.30Q99.39 33.75 99.42 36.30L99.35 36.23L99.46 36.34Q99.37 38.72 99.87 41.24Z"/><path d="M13 22 C88 40,93 17,133 5" stroke="#ecc95f" fill="none"/><path d="M2 33 C78 47,85 12,132 33" stroke="#6cd449" fill="none"/><path d="M10 11 C92 8,95 22,142 14" stroke="#ce72ed" fill="none"/></svg>