<svg xmlns="http://www.w3.org/2000/svg" width="150" height="50" viewBox="0,0,150,50"><rect width="100%" height="100%" fill="white"/><path d="M19 17 C59 35,91 18,131 20" stroke="#6de146" fill="none"/><path d="M12 33 C67 7,60 27,146 4" stroke="#e94dc2" fill="none"/><path d="M6 11 C85 4,76 37,135 33" stroke="#dd6986" fill="none"/><path fill="#e9e95c" d="M42.55 33.01L42.51 32.97L42.57 33.03Q45.58 32.58 48.78 32.69L48.72 32.63L48.70 32.61Q48.82 30.22 48.82 27.82L48.77 27.77L48.79 27.79Q48.73 25.25 48.92 22.70L48.84 22.63L48.90 22.68Q47.81 24.52 42.59 33.05ZM52.30 40.21L52.44 40.35L52.30 40.21Q50.81 40.09 49.02 40.01L48.87 39.86L49.01 40.00Q48.77 37.59 48.66 35.12L48.71 35.17L48.54 35.00Q43.30 34.89 38.58 36.30L38.53 36.25L38.52 36.25Q38.77 35.89 38.96 34.90L38.79 34.73L38.96 34.89Q40.61 31.60 44.19 25.32L44.33 25.46L44.32 25.45Q47.05 20.42 50.48 16.53L50.55 16.61L50.66 16.72Q51.46 16.45 53.14 16.18L53.13 16.18L53.10 16.14Q51.27 22.66 51.27 29.70L51.23 29.66L51.28 29.71Q51.25 31.16 51.32 32.64L51.27 32.59L52.68 32.82L52.65 32.79Q53.16 32.73 53.77 32.84L53.89 32.97L53.77 32.84Q53.95 33.90 54.21 35.84L54.09 35.72L54.28 35.90Q53.00 35.57 51.51 35.38L51.58 35.45L51.47 35.34Q51.76 37.42 52.45 40.35ZM54.01 32.44L54.08 32.50L54.16 32.59Q53.95 32.49 53.76 32.49L53.64 32.37L53.30 32.41L53.34 32.45Q53.12 30.86 53.12 29.46L53.22 29.55L53.28 29.61Q53.28 23.22 55.33 17.20L55.19 17.06L55.22 17.08Q54.40 17.29 52.95 17.67L53.09 17.81L53.03 17.75Q53.25 16.98 53.71 15.57L53.75 15.62L53.65 15.52Q52.47 16.02 50.42 16.24L50.46 16.29L50.45 16.28Q46.49 20.58 41.28 29.95L41.27 29.94L43.30 26.22L43.39 26.31Q42.84 27.20 42.57 27.77L42.57 27.77L38.25 36.93L38.12 36.80Q38.76 36.64 39.91 36.26L39.93 36.28L39.85 36.59L39.81 36.55Q39.80 37.34 39.50 38.60L39.46 38.56L39.47 38.57Q43.44 37.10 48.28 37.29L48.39 37.40L48.33 37.34Q48.32 38.24 48.51 40.22L48.58 40.29L48.52 40.23Q49.72 40.37 50.79 40.48L50.81 40.51L50.78 40.48Q50.95 41.18 51.22 42.55L51.15 42.48L51.20 42.53Q52.95 42.61 55.96 43.52L55.98 43.55L56.10 43.66Q55.16 41.58 54.24 38.31L54.20 38.26L55.60 38.68L55.51 38.58Q56.30 38.91 56.98 39.25L56.88 39.15L57.05 39.32Q56.08 36.64 55.93 34.97L56.10 35.14L55.97 35.01Q55.37 34.83 54.23 34.60L54.38 34.75L54.37 34.74Q54.08 33.38 54.08 32.51ZM46.02 32.29L46.12 32.39L46.00 32.27Q46.90 31.11 48.46 28.56L48.36 28.46L48.39 28.50Q48.36 29.41 48.32 30.36L48.31 30.35L48.26 30.31Q48.36 31.39 48.40 32.34L48.36 32.31L48.50 32.44Q47.89 32.37 47.32 32.37L47.28 32.33L47.33 32.38Q46.63 32.29 46.02 32.29Z"/><path d="M11 16 C67 48,85 1,147 45" stroke="#48d96d" fill="none"/><path d="M4 20 C83 39,86 5,144 39" stroke="#52e477" fill="none"/><path fill="#e6c460" d="M90.94 19.12L90.94 19.12L90.95 19.13Q92.22 23.74 92.37 26.94L92.38 26.96L92.32 26.89Q92.79 26.91 97.17 27.03L97.21 27.07L97.19 27.05Q99.69 27.03 100.07 23.56L100.13 23.62L100.07 23.56Q100.28 21.84 99.37 20.92L99.31 20.86L99.44 20.99Q98.00 19.94 96.02 19.78L96.10 19.86L96.14 19.90Q92.78 19.55 90.92 19.10ZM92.36 28.76L92.45 28.85L92.33 28.74Q92.64 34.87 90.85 40.81L90.83 40.78L90.77 40.73Q89.47 40.99 86.88 42.01L87.05 42.18L86.91 42.05Q89.72 35.52 89.38 28.06L89.46 28.15L89.53 28.21Q89.10 20.74 85.79 14.23L85.82 14.27L85.74 14.18Q90.77 17.16 97.73 17.16L97.60 17.02L97.69 17.11Q103.26 17.05 103.53 20.59L103.63 20.70L103.54 20.60Q103.57 21.17 103.49 21.78L103.51 21.79L103.42 22.92L103.44 22.94Q102.62 26.88 100.49 28.59L100.58 28.68L100.46 28.57Q99.79 29.37 98.76 29.37L98.63 29.24L96.10 29.30L96.10 29.31Q101.66 36.50 106.19 41.07L106.16 41.04L106.24 41.12Q103.98 40.31 101.05 39.97L101.03 39.94L100.99 39.91Q97.32 36.04 92.41 28.81ZM100.91 40.32L101.03 40.44L101.22 40.33L102.54 41.65L102.49 41.59Q103.16 42.23 103.81 42.83L103.81 42.84L103.83 42.86Q107.30 43.40 110.88 45.26L110.77 45.16L110.87 45.26Q103.96 38.53 98.55 31.60L98.48 31.53L100.28 31.58L100.33 31.63Q103.47 31.69 104.80 27.16L104.63 26.99L104.76 27.11Q105.47 24.93 105.47 22.23L105.38 22.13L105.33 22.09Q105.44 19.91 103.72 19.26L103.73 19.27L103.71 19.25Q103.60 18.88 103.03 18.19L102.95 18.11L102.99 18.15Q101.31 16.70 97.65 16.62L97.65 16.62L97.57 16.54Q89.70 16.39 85.01 13.38L85.06 13.43L85.08 13.45Q88.76 20.21 89.10 27.90L89.10 27.90L89.20 28.00Q89.52 35.94 86.40 42.79L86.34 42.73L86.49 42.87Q87.73 42.29 88.53 41.99L88.42 41.87L87.46 44.19L87.54 44.27Q90.20 43.17 92.87 42.67L92.81 42.62L92.89 42.69Q94.06 37.47 94.25 32.25L94.34 32.34L94.25 32.25Q97.84 37.28 101.00 40.41ZM99.64 22.37L99.63 22.37L99.62 22.36Q99.69 22.66 99.69 23.00L99.72 23.03L99.68 23.56L99.70 23.58Q99.82 24.80 99.13 25.75L99.12 25.74L99.01 25.63Q98.55 26.54 97.63 26.73L97.58 26.68L97.54 26.63Q97.41 26.77 95.82 26.81L95.63 26.62L95.77 26.77Q95.07 26.68 94.24 26.57L94.38 26.71L94.23 26.56Q94.19 25.11 93.85 22.07L93.82 22.04L93.86 22.08Q95.32 22.32 96.01 22.32L96.02 22.34L96.00 22.31Q97.75 22.24 99.69 22.43Z"/></svg>