<svg xmlns="http://www.w3.org/2000/svg" width="150" height="50" viewBox="0,0,150,50"><rect width="100%" height="100%" fill="white"/><path d="M13 24 C65 23,67 6,136 36" stroke="#e66a41" fill="none"/><path fill="#9ee985" d="M45.53 28.54L45.66 28.67L45.61 28.63Q42.70 28.53 41.94 30.78L42.09 30.93L41.99 30.82Q41.89 31.68 41.77 32.32L41.67 32.23L41.69 32.25Q44.35 32.50 45.98 32.50L45.98 32.50L45.96 32.48Q47.67 32.55 50.26 32.44L50.21 32.39L50.20 32.38Q50.06 30.64 48.66 29.58L48.59 29.51L48.61 29.53Q47.42 28.64 45.63 28.64ZM45.58 41.08L45.61 41.11L45.65 41.15Q41.40 41.13 40.11 39.72L40.20 39.82L40.10 39.72Q39.18 38.30 39.03 35.02L39.07 35.07L38.97 34.96Q39.08 34.85 39.01 33.48L38.91 33.38L39.06 33.53Q38.75 31.06 38.75 30.33L38.80 30.37L38.81 30.39Q38.77 28.48 39.49 27.38L39.64 27.52L39.47 27.36Q40.95 26.02 43.92 26.02L43.98 26.08L45.53 26.07L45.57 26.11Q47.57 26.05 49.09 26.36L49.08 26.34L48.99 26.26Q51.17 26.83 52.16 28.05L52.03 27.93L52.11 28.00Q52.72 29.07 52.80 31.17L52.91 31.28L52.83 31.20Q52.78 32.29 52.81 34.46L52.82 34.46L52.79 34.43Q50.06 34.60 47.28 34.60L47.30 34.61L41.55 34.46L41.62 34.53Q41.76 38.93 45.83 38.71L45.76 38.64L45.75 38.62Q49.51 38.42 50.72 36.59L50.89 36.76L50.84 36.71Q51.63 37.15 53.23 38.33L53.25 38.36L53.21 38.32Q51.88 40.76 47.74 41.03L47.81 41.10L47.70 41.00Q46.99 41.04 45.62 41.12ZM48.07 43.61L47.91 43.44L47.92 43.46Q48.99 43.39 50.21 43.47L50.29 43.54L50.27 43.52Q55.34 43.80 56.25 41.02L56.21 40.97L56.18 40.94Q54.63 39.78 53.53 39.02L53.57 39.06L53.58 39.07Q53.66 38.58 53.85 38.35L53.78 38.28L53.88 38.38Q53.06 37.83 51.69 36.87L51.75 36.94L51.67 36.85Q52.82 36.98 54.88 37.28L54.92 37.33L54.92 37.32Q54.79 36.02 54.72 35.33L54.71 35.32L54.47 33.30L54.44 33.26Q54.30 30.92 53.65 29.44L53.60 29.38L53.64 29.42Q53.34 29.05 52.77 28.44L52.86 28.53L52.88 28.55Q52.62 28.14 52.39 27.56L52.52 27.69L52.47 27.64Q50.59 25.61 45.53 25.61L45.45 25.53L43.80 25.56L43.86 25.62Q40.53 25.53 39.09 27.01L39.13 27.06L39.21 27.14Q38.37 28.09 38.41 30.14L38.48 30.22L38.40 30.13Q38.55 31.20 38.67 33.44L38.73 33.51L38.77 33.55Q38.74 35.04 38.85 37.09L38.81 37.05L38.88 37.12Q39.12 39.34 39.99 40.41L39.93 40.34L40.02 40.43Q40.10 40.52 40.29 40.63L40.38 40.71L40.73 41.40L40.60 41.28Q41.51 43.26 48.10 43.64ZM45.94 38.39L45.86 38.32L45.94 38.39Q44.67 38.38 43.75 37.92L43.87 38.04L43.72 37.89Q43.82 37.64 43.63 36.96L43.61 36.94L43.52 36.86Q45.25 36.79 46.85 36.79L46.91 36.86L46.82 36.76Q48.47 36.74 50.15 36.86L50.16 36.86L50.15 36.85Q48.89 38.22 45.88 38.33ZM47.49 30.96L47.41 30.88L47.47 30.94Q48.22 31.09 49.56 31.47L49.58 31.49L49.59 31.69L49.75 32.04L49.74 32.03Q48.22 32.00 47.31 31.96L47.38 32.03L47.48 32.13Q45.12 32.02 45.09 32.02L45.03 31.96L45.06 32.00Q45.90 31.16 47.57 31.04Z"/><path d="M6 45 C90 15,93 29,135 29" stroke="#e13b3b" fill="none"/><path d="M15 3 C77 5,74 41,135 17" stroke="#3991e9" fill="none"/><path d="M17 3 C70 19,69 27,135 44" stroke="#597add" fill="none"/><path fill="#82dc65" d="M106.30 22.96L106.31 22.97L106.31 22.98Q104.63 25.82 101.97 31.46L101.93 31.42L99.98 35.72L99.91 35.65Q98.95 37.47 97.62 39.71L97.74 39.84L97.64 39.73Q98.26 39.90 96.58 39.93L96.55 39.90L96.58 39.93Q96.40 39.75 95.15 39.75L95.17 39.77L95.25 39.85Q94.43 38.28 91.50 31.12L91.58 31.20L91.50 31.12Q89.32 25.74 87.23 22.74L87.31 22.82L87.38 22.89Q88.02 25.85 88.02 29.01L88.05 29.04L88.18 29.17Q88.08 35.58 85.11 41.14L85.08 41.11L85.02 41.05Q83.78 41.48 81.42 42.20L81.35 42.14L81.44 42.23Q85.02 36.45 85.02 29.21L85.06 29.25L85.05 29.24Q85.19 20.44 79.79 13.47L79.69 13.37L79.69 13.37Q81.27 14.04 83.63 14.72L83.68 14.77L83.78 14.87Q90.72 21.51 96.82 34.84L96.90 34.92L96.74 34.76Q100.32 27.83 102.53 24.33L102.64 24.44L102.62 24.42Q106.20 18.64 110.16 15.17L110.03 15.04L110.14 15.16Q111.29 14.82 113.65 14.05L113.80 14.21L113.73 14.14Q108.66 20.68 108.66 29.28L108.63 29.26L108.73 29.35Q108.71 36.00 112.14 41.52L112.20 41.58L112.07 41.45Q110.72 41.13 107.98 40.52L108.04 40.58L108.03 40.56Q105.70 35.81 105.70 29.83L105.62 29.75L105.70 29.82Q105.65 26.35 106.34 23.00ZM107.96 41.07L107.90 41.01L107.97 41.08Q108.58 41.11 110.02 41.38L109.92 41.28L110.03 41.39Q110.43 42.09 111.38 43.58L111.51 43.71L111.50 43.70Q113.58 44.06 117.04 45.28L116.94 45.18L117.07 45.31Q110.66 38.82 110.66 29.00L110.73 29.07L110.72 29.06Q110.74 21.35 115.12 15.22L115.03 15.13L112.86 15.86L113.02 16.02Q113.98 14.43 114.63 13.55L114.66 13.59L114.52 13.45Q112.62 14.06 109.99 14.59L110.00 14.60L110.14 14.73Q103.29 20.76 97.24 33.36L97.29 33.41L97.27 33.39Q92.13 22.46 87.18 17.21L87.04 17.07L87.08 17.11Q86.77 17.10 86.20 16.99L86.27 17.06L85.01 15.72L84.92 15.63Q84.35 14.99 83.67 14.38L83.71 14.42L83.71 14.42Q80.70 13.47 78.91 12.74L78.91 12.75L78.93 12.76Q84.94 19.99 84.94 29.40L84.89 29.35L84.79 29.24Q84.91 36.98 80.76 42.84L80.77 42.85L80.66 42.74Q81.39 42.56 82.68 42.14L82.73 42.18L82.64 42.10Q82.62 42.45 81.21 44.54L81.16 44.50L81.08 44.42Q82.95 44.00 86.45 43.24L86.44 43.23L86.38 43.17Q90.25 36.27 90.06 28.50L89.98 28.42L89.97 28.41Q91.55 32.46 95.01 40.34L94.90 40.23L94.97 40.30Q95.26 40.28 95.49 40.28L95.39 40.19L96.02 40.28L95.98 40.24Q96.49 40.98 97.29 42.28L97.27 42.26L97.26 42.25Q98.85 42.20 98.85 42.20L98.83 42.18L98.81 42.16Q99.90 42.22 100.55 42.30L100.59 42.34L100.40 42.15Q102.04 38.19 105.39 30.20L105.50 30.31L105.50 30.31Q105.27 35.64 107.86 40.97Z"/><path d="M10 10 C58 15,87 43,144 28" stroke="#dcdc5a" fill="none"/></svg>