<svg xmlns="http://www.w3.org/2000/svg" width="150" height="50" viewBox="0,0,150,50"><rect width="100%" height="100%" fill="white"/><path d="M6 28 C58 46,60 43,134 19" stroke="#ea849e" fill="none"/><path d="M15 29 C70 23,74 27,139 11" stroke="#7be47b" fill="none"/><path d="M9 28 C69 45,83 2,134 33" stroke="#4de473" fill="none"/><path d="M17 29 C55 39,86 25,141 22" stroke="#ad70ea" fill="none"/><path fill="#e75f5f" d="M98.94 39.87L98.91 39.84L96.91 39.79L97.07 39.94Q95.95 39.78 95.00 39.89L95.03 39.92L95.04 39.94Q95.64 33.76 95.64 29.76L95.69 29.81L95.60 29.72Q91.78 23.20 84.13 14.52L83.95 14.34L83.96 14.35Q85.88 15.46 89.23 16.26L89.17 16.21L89.20 16.24Q94.27 21.84 97.27 27.05L97.25 27.03L97.21 26.99Q100.30 21.52 104.68 16.49L104.55 16.36L104.70 16.51Q107.01 16.01 109.53 15.21L109.52 15.20L109.62 15.30Q103.46 21.29 98.59 29.70L98.70 29.81L98.65 29.76Q98.54 36.69 98.84 39.78ZM107.98 17.24L110.63 14.33L110.69 14.39Q107.65 15.62 104.53 16.08L104.51 16.06L104.54 16.08Q100.21 20.70 97.39 25.80L97.50 25.90L97.48 25.89Q95.31 22.19 92.11 18.31L92.10 18.30L92.06 18.26Q91.84 18.30 91.34 18.23L91.33 18.22L91.45 18.34Q90.76 17.53 89.24 15.86L89.13 15.75L89.10 15.71Q85.75 15.00 82.78 13.44L82.88 13.53L82.78 13.43Q90.49 21.90 95.25 29.82L95.24 29.82L95.30 29.88Q95.25 36.26 94.64 40.41L94.63 40.40L94.62 40.39Q95.25 40.26 96.70 40.14L96.76 40.20L96.84 41.31L96.82 41.29Q96.73 41.66 96.65 42.19L96.77 42.31L96.70 42.24Q100.17 42.16 101.92 42.35L102.01 42.45L102.06 42.49Q100.79 37.81 100.68 31.83L100.72 31.87L100.71 31.86Q104.92 23.24 111.47 15.89L111.65 16.08L108.00 17.26Z"/><path d="M9 21 C92 29,59 38,146 47" stroke="#b2e87c" fill="none"/><path fill="#4a6cd3" d="M44.10 14.74L44.14 14.78L44.11 14.75Q45.26 17.04 47.20 17.04L47.15 16.99L47.21 17.05Q47.80 17.15 48.22 17.00L48.21 16.99L48.16 16.93Q48.00 22.11 47.96 28.50L47.96 28.50L47.91 28.45Q47.93 34.75 48.12 40.00L48.15 40.03L48.14 40.03Q47.74 39.85 47.36 39.85L47.28 39.78L47.27 39.77Q45.88 39.75 44.48 41.61L44.51 41.65L44.51 41.65Q45.15 34.90 45.11 28.20L45.12 28.21L45.18 28.27Q45.20 21.63 44.29 14.93ZM43.94 42.68L44.02 42.76L44.10 42.84Q44.87 41.17 46.05 40.45L46.15 40.55L46.09 40.49Q46.15 41.54 46.08 42.60L46.09 42.62L46.09 42.61Q46.92 42.19 47.68 42.31L47.70 42.33L47.54 42.17Q49.66 42.45 51.03 45.23L51.11 45.31L51.09 45.29Q49.82 37.85 49.82 30.58L49.85 30.62L49.83 30.60Q49.77 23.00 50.57 15.88L50.60 15.92L50.57 15.88Q49.52 17.68 48.45 18.33L48.60 18.48L48.49 18.37Q48.62 17.78 48.74 16.41L48.64 16.31L48.56 16.23Q47.76 16.65 47.00 16.54L47.16 16.70L47.00 16.54Q44.77 16.40 43.74 13.50L43.63 13.39L43.67 13.44Q44.80 20.97 44.92 28.12L44.83 28.03L44.86 28.07Q45.11 35.36 44.12 42.86Z"/></svg>