<svg xmlns="http://www.w3.org/2000/svg" width="150" height="50" viewBox="0,0,150,50"><rect width="100%" height="100%" fill="white"/><path fill="#e174c6" d="M48.05 40.12L47.96 40.03L45.99 40.35L45.99 40.35Q45.42 40.24 44.45 40.30L44.61 40.46L44.55 40.40Q43.60 40.47 43.11 40.47L43.07 40.44L43.08 40.44Q41.36 40.36 40.33 39.53L40.39 39.58L40.36 39.55Q41.27 38.56 42.90 36.42L42.79 36.32L42.84 36.36Q43.98 37.81 46.19 37.58L46.29 37.68L46.35 37.74Q47.11 37.47 47.75 36.82L47.75 36.82L47.84 36.91Q48.43 36.21 48.32 35.33L48.33 35.34L48.31 35.32Q48.31 30.83 48.38 26.26L48.32 26.20L48.32 26.19Q48.45 21.68 48.98 17.07L48.82 16.91L48.95 17.04Q50.84 16.80 52.98 15.77L52.91 15.71L52.92 15.72Q51.12 22.52 51.12 29.76L51.04 29.67L51.05 29.68Q51.10 33.27 51.55 36.77L51.56 36.78L51.65 36.88Q51.72 37.21 51.72 37.55L51.56 37.39L51.64 37.47Q51.65 38.05 51.42 38.58L51.50 38.66L51.36 38.52Q50.83 39.82 48.01 40.09ZM53.03 43.01L53.00 42.98L53.23 42.87L53.53 42.75L53.77 42.61L53.82 42.65Q54.19 42.46 54.27 42.35L54.29 42.37L54.34 42.42Q54.49 41.20 54.22 40.21L54.23 40.21L54.08 40.06Q52.88 34.41 53.15 28.05L53.01 27.91L53.11 28.02Q53.26 21.81 55.05 15.91L55.10 15.95L55.17 16.03Q54.31 16.69 53.05 17.41L53.00 17.36L53.04 17.40Q53.22 16.63 53.64 15.10L53.53 15.00L53.55 15.02Q51.05 16.36 48.38 16.66L48.49 16.78L48.37 16.65Q48.11 21.15 48.04 26.10L47.97 26.04L47.91 25.98Q47.83 31.87 47.90 35.30L48.03 35.42L48.02 35.41Q47.96 37.06 46.20 37.21L46.30 37.31L46.36 37.37Q44.65 37.48 42.97 35.84L42.91 35.78L42.96 35.84Q40.80 38.24 39.85 39.80L39.82 39.78L39.89 39.84Q40.52 40.47 41.55 40.70L41.62 40.78L41.58 40.74Q41.55 40.93 41.28 41.16L41.23 41.11L41.22 41.10Q42.58 41.97 44.56 42.23L44.66 42.33L44.63 42.30Q44.95 42.28 48.24 42.58L48.24 42.58L48.38 42.72Q51.67 43.02 53.04 43.02Z"/><path fill="#dabd67" d="M97.71 29.90L97.70 29.89L97.77 29.96Q95.18 29.77 93.85 30.99L93.75 30.90L93.81 30.95Q92.53 32.22 92.83 34.74L92.81 34.71L92.73 34.64Q93.13 37.24 94.35 38.50L94.28 38.43L94.40 38.55Q95.42 39.84 97.56 39.76L97.56 39.77L97.52 39.73Q98.00 39.64 98.19 39.64L98.27 39.72L98.37 39.82Q101.92 39.22 102.04 34.62L101.89 34.47L101.96 34.54Q101.92 32.06 101.23 31.26L101.34 31.36L101.26 31.29Q100.19 29.98 97.64 29.83ZM100.95 41.56L100.98 41.59L101.10 41.71Q99.67 42.18 98.11 42.10L98.22 42.22L98.14 42.14Q94.29 42.32 93.00 39.73L93.11 39.85L93.00 39.73Q92.84 45.10 91.51 49.36L91.57 49.42L91.46 49.32Q89.76 49.89 88.12 50.62L88.10 50.60L88.02 50.52Q90.56 44.53 90.29 37.56L90.30 37.57L90.42 37.69Q90.13 30.82 87.24 24.76L87.16 24.69L87.24 24.77Q89.23 26.00 90.95 26.45L90.82 26.32L91.40 27.86L91.44 27.90Q91.53 28.22 91.80 29.33L91.74 29.27L91.70 29.23Q92.73 27.17 96.31 26.98L96.41 27.09L96.30 26.97Q97.26 27.02 98.14 27.02L98.12 27.01L98.73 27.12L98.71 27.10Q98.65 26.93 98.84 26.97L98.83 26.96L99.26 27.08L99.25 27.07Q101.36 27.39 102.09 27.62L102.15 27.68L102.08 27.61Q103.45 27.96 104.33 28.91L104.37 28.95L104.38 28.97Q105.35 30.27 105.31 31.68L105.19 31.56L105.19 31.56Q105.24 34.46 104.44 37.13L104.35 37.04L104.35 37.04Q103.48 40.70 101.11 41.72ZM105.30 42.25L105.30 42.21L105.36 42.28Q106.47 40.30 106.77 36.19L106.74 36.15L106.64 36.05Q106.90 34.41 106.90 33.15L106.86 33.12L106.93 33.19Q106.83 31.57 106.07 30.16L106.21 30.30L106.16 30.25Q105.58 29.63 105.09 29.25L105.22 29.38L104.93 28.98L104.83 28.76L104.90 28.72L104.73 28.55Q103.11 26.63 98.77 26.63L98.83 26.69L98.19 26.66L98.07 26.54Q93.47 26.58 91.83 28.17L91.93 28.28L91.87 28.21Q91.74 27.74 91.59 27.25L91.46 27.12L91.24 26.10L91.33 26.19Q88.71 25.44 86.51 23.96L86.57 24.02L86.56 24.01Q89.89 30.39 90.20 37.62L90.06 37.48L90.06 37.48Q90.40 44.79 87.55 51.27L87.58 51.29L89.45 50.31L89.50 50.36Q89.35 51.20 88.66 52.76L88.62 52.72L88.51 52.60Q91.34 51.67 93.67 51.33L93.66 51.32L93.67 51.34Q94.77 46.49 94.92 42.76L94.90 42.75L94.83 42.68Q96.25 44.16 99.86 44.39L99.92 44.45L99.95 44.48Q103.79 44.63 105.24 42.19L105.28 42.23ZM99.70 32.23L99.55 32.09L99.55 32.09Q100.32 32.13 101.42 32.48L101.34 32.40L101.38 32.43Q101.57 33.35 101.53 34.53L101.57 34.56L101.70 34.69Q101.58 35.49 101.39 36.13L101.35 36.09L101.36 36.11Q100.68 39.04 98.16 39.35L98.23 39.41L98.25 39.31L98.36 39.43Q98.15 39.30 98.04 39.34L98.12 39.42L97.63 39.45L97.58 39.41Q96.45 39.45 95.46 38.96L95.34 38.84L94.96 36.75L94.95 36.74Q94.88 34.50 96.17 33.47L96.11 33.41L96.14 33.43Q97.22 32.42 99.62 32.16Z"/><path d="M9 37 C85 29,66 29,145 29" stroke="#9de386" fill="none"/><path d="M18 3 C89 36,64 34,145 9" stroke="#e19e5a" fill="none"/><path d="M20 28 C84 19,68 31,132 2" stroke="#663fde" fill="none"/><path d="M13 33 C89 17,81 21,140 12" stroke="#5c9bda" fill="none"/><path d="M1 35 C82 30,78 16,136 34" stroke="#bcef8a" fill="none"/></svg>