<svg xmlns="http://www.w3.org/2000/svg" width="150" height="50" viewBox="0,0,150,50"><rect width="100%" height="100%" fill="white"/><path fill="#df5cdf" d="M39.45 14.34L39.55 14.43L39.36 14.25Q41.99 16.04 43.74 16.46L43.67 16.39L43.63 16.34Q45.02 22.92 45.02 29.50L45.05 29.53L45.11 29.59Q45.09 33.57 44.56 37.57L44.47 37.47L44.52 37.52Q46.81 37.12 49.29 37.19L49.17 37.08L49.20 37.11Q51.66 37.17 53.79 37.89L53.74 37.84L53.89 37.99Q54.06 39.38 54.52 40.94L54.50 40.92L54.57 40.99Q51.16 39.60 47.32 39.87L47.35 39.90L47.23 39.78Q43.48 40.14 40.24 42.04L40.16 41.96L40.32 42.12Q42.33 35.07 42.06 28.06L42.21 28.21L42.23 28.23Q41.94 21.13 39.50 14.39ZM39.67 42.73L39.72 42.78L39.76 42.82Q40.39 42.38 41.76 41.66L41.74 41.63L41.82 41.72Q41.60 42.41 41.06 43.89L41.00 43.83L41.03 43.86Q44.59 42.21 48.44 42.21L48.49 42.26L48.51 42.28Q54.11 42.25 58.22 45.29L58.31 45.37L58.28 45.35Q57.59 43.83 56.57 40.86L56.61 40.90L56.44 40.73Q55.54 40.24 54.66 39.86L54.52 39.72L54.62 39.82Q54.34 38.97 54.04 37.56L54.16 37.68L54.03 37.56Q51.50 36.75 48.50 36.75L48.43 36.68L48.55 36.79Q47.73 36.74 46.93 36.78L46.87 36.72L46.86 36.70Q47.15 31.82 47.07 27.71L47.03 27.67L47.18 27.81Q47.02 23.62 46.68 18.63L46.64 18.59L46.64 18.59Q45.17 18.42 44.37 18.23L44.38 18.24L44.50 18.35Q44.39 17.64 44.16 16.23L44.05 16.12L44.09 16.16Q41.01 15.37 38.77 13.43L38.77 13.42L38.72 13.38Q41.58 20.57 41.84 28.07L41.89 28.12L41.81 28.04Q42.21 35.71 39.81 42.87Z"/><path d="M10 39 C80 49,93 31,141 45" stroke="#7fe0e0" fill="none"/><path d="M5 44 C90 28,56 15,145 14" stroke="#8ea7ef" fill="none"/><path d="M11 23 C80 8,65 31,130 33" stroke="#7be9b2" fill="none"/><path d="M9 11 C91 2,54 29,147 19" stroke="#47c1ea" fill="none"/><path d="M6 9 C93 33,68 37,146 31" stroke="#e641bd" fill="none"/><path fill="#dd73c2" d="M94.48 25.12L94.52 25.16L94.53 25.16Q95.29 25.40 97.27 25.40L97.16 25.28L97.29 32.56L97.35 32.63Q97.41 36.92 97.53 39.81L97.49 39.77L97.40 39.69Q97.10 39.61 96.72 39.61L96.66 39.55L96.72 39.61Q95.20 39.54 93.75 40.87L93.84 40.96L93.80 40.92Q94.60 33.31 94.41 25.05ZM94.41 19.71L93.31 17.09L93.39 17.17Q94.85 16.05 95.58 15.09L95.50 15.02L95.59 15.11Q96.63 16.95 98.04 18.63L98.11 18.69L98.13 18.71Q97.19 20.10 95.82 22.23L95.85 22.26L95.89 22.30Q95.09 21.16 94.52 19.83L94.54 19.85ZM93.31 41.84L93.23 41.75L93.27 41.80Q94.31 40.75 95.57 40.25L95.58 40.26L95.48 40.16Q95.56 40.93 95.45 42.30L95.43 42.28L95.38 42.23Q96.07 42.01 96.72 42.01L96.71 42.00L96.86 42.15Q99.07 42.15 100.48 44.13L100.42 44.07L100.39 44.05Q99.20 36.76 99.28 26.60L99.29 26.61L99.19 26.51Q98.48 26.76 97.65 26.87L97.68 26.90L97.67 25.03L97.69 25.05Q96.65 25.16 95.85 25.08L95.72 24.94L95.68 24.91Q94.85 24.83 93.97 24.34L94.03 24.40L94.10 24.47Q94.24 26.51 94.24 28.57L94.08 28.41L94.14 28.46Q94.27 35.64 93.39 41.92ZM95.99 23.00L95.95 22.97L96.05 22.68L96.21 22.54L96.13 22.46Q96.49 23.20 97.52 24.69L97.69 24.87L97.60 24.77Q99.03 22.51 100.36 18.97L100.27 18.87L100.20 18.81Q99.29 18.01 97.73 16.41L97.92 16.60L97.88 16.56Q97.68 16.67 97.42 17.12L97.35 17.06L97.39 17.10Q96.38 15.79 95.47 14.34L95.58 14.45L95.48 14.35Q94.21 16.17 93.03 16.51L92.89 16.37L92.99 16.47Q93.97 19.81 95.80 22.82Z"/></svg>