<svg xmlns="http://www.w3.org/2000/svg" width="150" height="50" viewBox="0,0,150,50"><rect width="100%" height="100%" fill="white"/><path fill="#724ce5" d="M94.98 28.66L94.91 28.59L94.96 28.64Q92.06 28.56 91.30 30.81L91.32 30.83L91.41 30.92Q91.11 31.56 90.99 32.21L90.98 32.19L91.06 32.28Q93.60 32.42 95.24 32.42L95.25 32.43L95.19 32.38Q96.82 32.36 99.41 32.25L99.46 32.31L99.45 32.30Q99.47 30.71 98.06 29.64L97.92 29.51L98.04 29.63Q96.65 28.54 94.86 28.54ZM94.95 41.12L95.07 41.23L94.93 41.09Q90.79 41.19 89.50 39.78L89.46 39.74L89.53 39.81Q88.61 38.39 88.45 35.12L88.46 35.12L88.31 34.97Q88.42 34.85 88.34 33.48L88.40 33.54L88.33 33.47Q88.08 31.05 88.08 30.33L88.16 30.41L88.09 30.34Q88.10 28.48 88.83 27.38L88.83 27.38L88.85 27.40Q90.37 26.11 93.34 26.11L93.17 25.94L94.91 26.12L94.77 25.98Q96.91 26.06 98.43 26.37L98.36 26.29L98.49 26.42Q100.53 26.87 101.52 28.09L101.49 28.05L101.46 28.02Q102.04 29.06 102.12 31.16L102.09 31.13L102.21 31.24Q102.11 32.29 102.15 34.46L102.10 34.41L102.14 34.45Q99.25 34.45 96.47 34.45L96.59 34.58L91.02 34.60L90.91 34.49Q91.17 39.02 95.25 38.79L95.23 38.77L95.25 38.79Q98.98 38.56 100.20 36.73L100.06 36.60L100.08 36.61Q101.09 37.28 102.69 38.46L102.71 38.49L102.57 38.35Q101.29 40.84 97.14 41.10L97.20 41.16L97.08 41.04Q96.29 41.01 94.92 41.09ZM97.37 43.57L97.25 43.46L97.41 43.61Q98.41 43.47 99.63 43.55L99.53 43.45L99.69 43.61Q104.60 43.72 105.51 40.94L105.45 40.88L105.56 40.99Q103.91 39.72 102.81 38.96L102.83 38.99L102.76 38.91Q103.06 38.65 103.26 38.42L103.18 38.34L103.21 38.37Q102.35 37.78 100.98 36.83L101.11 36.96L101.12 36.97Q102.15 36.97 104.20 37.27L104.28 37.35L104.25 37.32Q103.94 35.83 103.86 35.14L103.90 35.18L103.84 33.33L103.77 33.26Q103.58 30.87 102.93 29.38L103.03 29.48L102.93 29.38Q102.84 29.21 102.27 28.60L102.08 28.41L102.27 28.60Q101.95 28.13 101.72 27.56L101.77 27.61L101.79 27.62Q99.79 25.48 94.73 25.48L94.83 25.58L93.12 25.54L93.10 25.52Q89.89 25.55 88.45 27.04L88.54 27.13L88.49 27.08Q87.84 28.22 87.88 30.27L87.83 30.23L87.73 30.13Q87.81 31.12 87.92 33.37L88.11 33.55L88.10 33.55Q88.05 35.02 88.17 37.07L88.24 37.14L88.23 37.13Q88.56 39.44 89.43 40.51L89.24 40.32L89.35 40.43Q89.40 40.48 89.59 40.59L89.67 40.67L89.93 41.27L89.90 41.25Q90.84 43.25 97.42 43.63ZM95.11 38.23L95.26 38.38L95.23 38.35Q94.00 38.38 93.09 37.92L93.06 37.90L93.18 38.01Q93.14 37.63 92.95 36.94L92.92 36.92L92.79 36.79Q94.54 36.75 96.14 36.75L96.23 36.84L96.25 36.86Q97.73 36.67 99.41 36.78L99.42 36.79L99.44 36.81Q98.22 38.22 95.21 38.33ZM96.76 30.90L96.84 30.97L96.74 30.88Q97.52 31.05 98.85 31.43L98.76 31.33L98.92 31.69L98.96 31.92L98.95 31.91Q97.61 32.05 96.70 32.01L96.68 31.99L96.66 31.98Q94.48 32.05 94.44 32.05L94.42 32.02L94.37 31.97Q95.17 31.10 96.85 30.98Z"/><path fill="#9148d9" d="M48.78 32.08L39.58 22.12L39.60 22.14Q40.54 25.94 40.54 29.67L40.48 29.60L40.49 29.61Q40.38 35.48 38.32 41.04L38.34 41.05L38.44 41.15Q37.25 41.30 35.01 42.06L35.13 42.18L35.02 42.07Q37.85 36.30 37.85 29.60L37.88 29.64L37.80 29.55Q37.92 21.03 33.43 13.61L33.46 13.64L33.36 13.54Q33.87 13.78 34.56 14.20L34.59 14.23L34.44 14.08Q46.59 25.36 54.44 34.61L54.53 34.70L54.38 34.56Q54.18 32.23 54.18 29.79L54.12 29.73L54.13 29.74Q54.08 22.46 56.59 16.25L56.67 16.33L56.62 16.28Q58.97 15.77 60.57 15.09L60.65 15.17L60.52 15.04Q57.27 21.27 56.97 28.43L56.92 28.38L56.94 28.40Q56.62 35.73 59.59 41.90L59.67 41.98L59.70 42.01Q59.07 41.87 58.65 41.68L58.71 41.74L58.60 41.63Q54.01 37.65 48.79 32.09L48.80 32.10ZM62.23 45.11L62.18 45.06L62.21 45.09Q62.79 45.37 63.21 45.56L63.17 45.51L64.10 45.96L64.06 45.92Q58.92 38.99 58.92 29.62L58.74 29.43L58.86 29.56Q58.93 22.39 62.24 16.15L62.24 16.15L62.06 15.97Q61.51 16.29 60.10 16.90L60.08 16.88L60.06 16.86Q60.44 16.02 61.28 14.46L61.24 14.42L61.24 14.43Q58.79 15.32 56.35 15.89L56.42 15.97L56.33 15.88Q53.84 22.48 53.84 29.90L53.73 29.79L53.71 29.78Q53.85 31.78 54.04 33.76L53.95 33.67L53.92 33.64Q49.25 27.94 44.49 23.34L44.49 23.33L34.51 13.74L34.51 13.73Q33.87 13.37 32.66 12.80L32.65 12.79L32.66 12.80Q37.63 20.63 37.63 29.73L37.52 29.61L37.52 29.61Q37.47 36.68 34.39 42.70L34.56 42.87L34.47 42.78Q34.82 42.71 36.45 42.10L36.41 42.05L36.35 41.99Q36.12 42.87 35.28 44.36L35.24 44.31L35.31 44.39Q36.68 43.89 40.14 43.09L40.07 43.01L40.13 43.07Q42.33 36.82 42.33 29.63L42.44 29.73L42.35 29.65Q42.46 27.67 42.24 25.53L42.12 25.42L42.09 25.39Q53.65 38.28 62.26 45.14Z"/><path d="M5 26 C73 35,72 27,148 44" stroke="#7e5ce4" fill="none"/><path d="M11 3 C76 14,91 3,144 10" stroke="#e349e3" fill="none"/><path d="M6 25 C73 20,76 4,132 19" stroke="#ec69cb" fill="none"/><path d="M1 4 C81 1,73 23,139 10" stroke="#e36dc5" fill="none"/><path d="M7 20 C55 23,63 25,145 17" stroke="#a1eb88" fill="none"/></svg>