<svg xmlns="http://www.w3.org/2000/svg" width="150" height="50" viewBox="0,0,150,50"><rect width="100%" height="100%" fill="white"/><path d="M6 46 C60 29,72 35,142 23" stroke="#a0ea57" fill="none"/><path d="M14 8 C95 20,95 40,146 3" stroke="#5a5adc" fill="none"/><path d="M4 43 C88 34,89 22,133 18" stroke="#c6e174" fill="none"/><path d="M3 37 C67 31,77 18,145 31" stroke="#7a56e5" fill="none"/><path d="M20 38 C62 23,69 42,144 45" stroke="#41d666" fill="none"/><path fill="#3be18e" d="M41.64 19.15L41.61 19.12L41.61 19.12Q42.71 23.57 42.86 26.77L42.99 26.90L42.96 26.87Q43.45 26.90 47.83 27.02L47.85 27.04L47.87 27.06Q50.31 26.98 50.69 23.52L50.80 23.63L50.77 23.60Q50.98 21.87 50.07 20.96L50.09 20.97L49.99 20.88Q48.82 20.09 46.84 19.94L46.83 19.92L46.77 19.87Q43.43 19.54 41.57 19.08ZM42.98 28.71L42.99 28.72L43.13 28.86Q43.18 34.74 41.39 40.68L41.49 40.78L41.46 40.75Q40.20 41.05 37.61 42.08L37.71 42.18L37.60 42.07Q40.50 35.64 40.16 28.18L40.14 28.16L40.09 28.11Q39.73 20.70 36.42 14.20L36.54 14.32L36.58 14.36Q41.35 17.08 48.32 17.08L48.40 17.15L48.34 17.10Q54.02 17.14 54.28 20.68L54.25 20.64L54.20 20.60Q54.30 21.23 54.23 21.84L54.19 21.81L54.15 22.98L54.18 23.01Q53.27 26.86 51.13 28.57L51.11 28.55L51.25 28.69Q50.45 29.38 49.43 29.38L49.28 29.23L46.69 29.23L46.85 29.39Q52.35 36.53 56.88 41.09L56.81 41.02L56.88 41.09Q54.65 40.30 51.71 39.96L51.74 39.98L51.80 40.05Q47.99 36.05 43.08 28.82ZM51.65 40.39L51.73 40.47L51.89 40.33L53.17 41.60L53.24 41.68Q53.72 42.12 54.36 42.73L54.45 42.81L54.47 42.83Q58.03 43.46 61.61 45.32L61.48 45.20L61.63 45.35Q54.57 38.48 49.16 31.55L49.10 31.49L50.93 31.57L50.91 31.55Q54.00 31.55 55.33 27.02L55.40 27.09L55.27 26.96Q56.00 24.80 56.00 22.09L55.99 22.09L55.97 22.07Q55.96 19.76 54.24 19.12L54.40 19.28L54.29 19.16Q54.29 18.89 53.72 18.21L53.66 18.15L53.57 18.06Q51.99 16.71 48.33 16.63L48.31 16.61L48.30 16.60Q40.48 16.51 35.80 13.50L35.76 13.46L35.82 13.52Q39.54 20.32 39.88 28.01L39.74 27.88L39.80 27.94Q40.18 35.93 37.06 42.78L37.01 42.73L36.99 42.72Q38.39 42.28 39.19 41.98L39.02 41.81L38.22 44.28L38.06 44.12Q40.93 43.23 43.60 42.74L43.59 42.72L43.54 42.67Q44.75 37.50 44.95 32.28L44.98 32.31L45.00 32.33Q48.47 37.26 51.63 40.38ZM50.48 22.55L50.41 22.47L50.29 22.36Q50.40 22.69 50.40 23.04L50.37 23.01L50.49 23.70L50.51 23.72Q50.50 24.82 49.82 25.77L49.74 25.70L49.75 25.70Q49.04 26.36 48.12 26.55L48.29 26.72L48.15 26.58Q47.93 26.62 46.33 26.66L46.32 26.65L46.33 26.66Q45.76 26.70 44.93 26.59L45.00 26.67L44.90 26.56Q44.84 25.09 44.49 22.04L44.47 22.02L44.54 22.10Q46.02 22.35 46.71 22.35L46.54 22.19L46.54 22.19Q48.34 22.16 50.28 22.35Z"/><path fill="#4444e7" d="M96.58 41.36L96.68 41.46L96.64 41.41Q93.77 41.60 92.52 41.07L92.41 40.96L92.48 41.02Q90.60 40.28 90.67 37.81L90.55 37.69L90.56 37.69Q90.69 34.29 90.69 34.86L90.75 34.92L90.71 34.88Q90.64 29.48 87.79 24.65L87.90 24.76L87.90 24.76Q89.82 25.65 91.80 26.03L91.75 25.99L91.79 26.02Q93.59 30.72 93.48 35.21L93.48 35.21L93.40 35.13Q93.20 36.57 94.04 37.79L94.21 37.96L94.14 37.89Q95.02 39.19 96.54 39.00L96.47 38.92L96.88 38.84L96.96 38.92Q98.34 38.89 99.15 38.13L99.01 37.99L99.15 38.13Q99.82 37.21 99.82 36.26L99.98 36.42L99.89 36.33Q99.89 36.10 99.85 35.91L99.84 35.90L99.88 35.94Q99.83 30.71 100.97 26.37L100.88 26.28L100.98 26.38Q101.96 26.25 102.95 26.03L102.97 26.05L105.02 25.59L105.04 25.61Q102.34 30.48 102.64 36.04L102.74 36.14L102.78 36.17Q102.98 39.27 101.27 40.41L101.29 40.43L101.25 40.40Q99.86 41.18 96.55 41.33ZM98.83 43.68L98.94 43.80L98.82 43.67Q102.40 43.94 104.23 43.18L104.28 43.24L104.30 43.25Q105.03 42.31 105.03 40.90L105.16 41.03L105.14 41.01Q105.13 40.08 104.86 38.52L104.91 38.57L104.78 38.44Q104.36 35.36 104.74 32.35L104.87 32.48L104.76 32.37Q105.19 29.26 106.60 26.52L106.50 26.42L106.64 26.56Q105.98 26.85 104.64 27.27L104.53 27.15L104.61 27.23Q104.90 26.68 105.20 26.11L105.05 25.96L105.76 24.95L105.63 24.82Q103.81 25.60 100.65 26.09L100.63 26.07L100.67 26.11Q99.29 30.74 99.44 35.84L99.50 35.90L99.48 35.88Q99.62 38.04 96.95 38.53L96.87 38.45L96.64 38.68L96.38 38.56L95.42 38.40L95.45 38.44Q95.34 37.53 95.38 37.03L95.51 37.17L95.46 37.12Q95.63 32.57 94.95 28.15L94.96 28.16L93.89 28.01L93.80 27.92Q93.27 27.88 92.74 27.77L92.84 27.87L92.84 27.87Q92.44 26.45 92.18 25.69L92.14 25.65L92.10 25.61Q89.35 25.22 87.10 23.92L87.22 24.04L87.15 23.97Q89.38 27.57 90.11 30.96L90.02 30.87L90.05 30.90Q90.56 33.13 90.41 36.63L90.38 36.60L90.31 36.54Q90.43 36.77 90.35 37.87L90.25 37.77L90.29 37.81Q90.22 40.26 91.60 41.21L91.57 41.19L91.44 41.05Q92.00 43.47 99.00 43.85Z"/></svg>