<svg xmlns="http://www.w3.org/2000/svg" width="150" height="50" viewBox="0,0,150,50"><rect width="100%" height="100%" fill="white"/><path d="M6 46 C95 43,78 48,145 43" stroke="#bee83f" fill="none"/><path d="M3 11 C57 35,87 11,147 13" stroke="#3ce065" fill="none"/><path fill="#bfe797" d="M40.60 49.57L40.56 49.54L40.69 49.67Q43.64 45.84 46.53 39.63L46.36 39.47L46.38 39.48Q43.38 33.05 37.29 24.98L37.19 24.89L37.25 24.95Q39.05 25.99 41.83 26.64L41.94 26.74L42.00 26.81Q45.53 31.48 47.97 36.69L47.93 36.65L47.94 36.66Q50.05 31.31 53.13 26.90L53.21 26.98L53.06 26.82Q55.40 26.61 57.49 25.81L57.38 25.70L57.41 25.73Q54.05 29.61 50.59 37.03L50.56 37.00L47.77 43.04L47.70 42.97Q46.19 46.03 44.44 48.66L44.47 48.69L44.53 48.75Q42.08 49.08 40.64 49.61ZM46.81 50.95L46.77 50.91L46.83 50.98Q48.48 48.01 49.93 44.74L49.91 44.73L52.77 38.52L52.66 38.42Q56.18 30.40 59.49 26.41L59.48 26.39L59.50 26.41Q58.16 27.09 56.26 27.77L56.25 27.77L57.41 26.49L57.42 26.50Q57.94 25.76 58.55 25.08L58.40 24.93L58.47 25.00Q55.82 26.08 52.96 26.54L53.04 26.62L52.93 26.50Q50.15 30.39 48.21 34.84L48.26 34.89L48.22 34.86Q46.68 31.64 44.90 28.82L44.83 28.76L44.75 28.68Q44.69 28.81 44.33 28.77L44.36 28.80L44.32 28.76Q43.93 28.70 43.74 28.70L43.69 28.64L43.80 28.75Q42.94 27.40 41.98 26.25L42.08 26.35L41.98 26.25Q38.94 25.72 36.20 24.01L36.15 23.96L36.12 23.94Q42.28 31.84 45.97 39.45L45.97 39.45L45.99 39.47Q43.83 44.54 39.75 50.18L39.91 50.33L39.82 50.24Q40.70 50.02 41.50 49.87L41.38 49.75L42.99 49.38L43.13 49.52Q42.48 50.20 41.30 51.84L41.21 51.75L41.28 51.82Q43.61 51.25 46.88 51.02Z"/><path d="M8 4 C77 18,84 39,139 22" stroke="#58d999" fill="none"/><path d="M18 31 C57 31,91 24,130 9" stroke="#e353e3" fill="none"/><path d="M10 42 C86 44,67 47,145 27" stroke="#e1e14b" fill="none"/><path fill="#53e39b" d="M89.54 47.01L89.52 47.00L89.59 47.06Q88.65 47.26 86.74 47.57L86.85 47.67L86.78 47.60Q88.08 45.44 89.11 44.15L89.03 44.06L89.13 44.17Q90.82 44.42 90.98 44.42L90.88 44.32L91.03 44.47Q91.19 44.41 91.73 44.29L91.73 44.29L91.88 44.45Q92.56 44.36 92.75 44.36L92.64 44.25L92.74 44.35Q95.17 43.97 95.10 41.80L95.24 41.94L95.11 41.81Q95.22 40.47 95.10 34.23L95.02 34.15L95.09 34.21Q94.97 30.59 95.05 26.44L95.14 26.54L96.54 26.33L96.45 26.25Q97.14 26.17 97.82 25.94L97.84 25.97L97.70 25.83Q97.56 30.33 97.60 34.71L97.64 34.74L97.61 34.71Q97.68 39.13 98.21 43.50L98.25 43.54L98.09 43.38Q98.33 43.85 98.33 44.11L98.31 44.10L98.30 44.08Q98.30 45.72 96.62 46.10L96.52 46.00L96.49 45.97Q93.38 46.36 89.53 47.01ZM96.30 22.79L94.25 19.74L94.26 19.75Q95.29 18.35 97.12 15.57L97.20 15.66L97.14 15.59Q97.86 16.54 99.19 18.36L99.10 18.28L96.48 22.97ZM99.46 49.55L99.36 49.44L99.47 49.56Q99.87 49.47 100.63 49.12L100.78 49.27L100.67 49.16Q100.94 48.40 100.94 47.95L101.12 48.12L100.98 47.98Q100.98 47.64 100.86 47.03L100.94 47.11L100.86 47.03Q99.52 40.63 99.52 32.71L99.47 32.65L99.59 32.78Q99.49 29.82 99.64 26.93L99.75 27.04L99.67 26.95Q99.11 27.12 97.97 27.42L97.92 27.38L98.09 27.55Q97.94 26.90 97.98 26.37L97.97 26.36L98.21 25.42L98.12 25.33Q96.51 26.08 94.72 26.12L94.70 26.10L94.74 26.14Q94.58 30.36 94.62 33.94L94.71 34.02L94.88 41.92L94.88 41.92Q94.89 43.84 92.72 43.95L92.71 43.94L92.78 44.01Q92.46 43.92 91.95 43.98L91.87 43.90L91.97 44.00Q91.50 44.10 91.23 44.10L91.17 44.04L91.17 44.04Q90.70 44.02 89.14 43.60L89.21 43.68L89.21 43.67Q88.66 44.20 87.56 45.87L87.62 45.93L85.97 48.13L86.07 48.23Q86.88 47.97 88.52 47.59L88.63 47.70L88.06 48.31L87.47 48.91L87.59 49.02Q89.74 48.73 91.07 48.81L91.24 48.98L91.15 48.89Q93.50 49.11 99.44 49.53ZM96.33 23.57L96.27 23.51L96.66 23.03L96.74 23.11Q96.98 23.43 97.94 25.03L97.99 25.09L97.92 25.02Q99.61 22.06 101.17 18.97L101.01 18.82L101.07 18.88Q100.06 17.26 99.11 15.97L99.25 16.10L99.24 16.09Q98.88 16.15 98.54 16.69L98.54 16.69L98.70 16.84Q98.21 16.13 97.22 14.83L97.24 14.86L97.13 14.74Q96.10 16.50 93.78 19.85L93.73 19.80L93.75 19.81Q94.58 20.95 96.29 23.54Z"/></svg>