<svg xmlns="http://www.w3.org/2000/svg" width="150" height="50" viewBox="0,0,150,50"><rect width="100%" height="100%" fill="white"/><path d="M8 35 C57 45,61 9,147 22" stroke="#6841dc" fill="none"/><path fill="#9d85e4" d="M95.47 40.21L95.59 40.33L95.42 40.16Q92.02 40.33 90.38 39.80L90.36 39.78L90.35 39.77Q88.44 39.20 88.14 35.81L88.09 35.76L89.65 34.81L89.53 34.68Q90.19 34.09 90.95 33.59L91.08 33.72L90.95 33.60Q90.72 35.53 92.32 36.75L92.40 36.84L92.40 36.83Q93.69 37.85 95.82 37.66L95.88 37.73L95.78 37.62Q100.10 37.14 99.90 33.60L100.00 33.70L100.07 33.77Q99.92 31.53 97.30 30.31L97.30 30.31L97.19 30.20Q94.29 29.10 91.93 27.88L91.99 27.94L91.89 27.83Q89.50 26.67 88.51 21.98L88.47 21.94L88.52 21.99Q88.33 21.46 88.21 20.69L88.17 20.65L88.22 20.70Q88.21 20.01 88.29 19.44L88.18 19.33L88.30 19.45Q88.39 17.79 89.65 17.33L89.68 17.36L89.72 17.40Q92.08 16.49 96.08 16.68L96.08 16.69L95.99 16.60Q97.93 16.82 98.73 16.89L98.56 16.73L98.74 16.91Q100.10 16.97 101.17 17.43L101.24 17.51L101.27 17.53Q103.26 17.88 103.49 20.36L103.55 20.42L103.60 20.47Q102.52 21.14 100.31 22.47L100.26 22.42L100.36 22.52Q99.82 19.39 95.44 19.39L95.42 19.37L95.49 19.44Q93.57 19.43 92.58 20.11L92.65 20.19L92.66 20.19Q91.49 20.69 91.71 22.48L91.60 22.37L91.65 22.42Q91.88 24.59 94.85 26.12L94.83 26.10L94.80 26.06Q95.48 26.43 99.97 28.07L99.83 27.93L99.95 28.06Q102.45 29.41 102.87 33.79L102.92 33.84L102.99 33.91Q103.00 34.07 103.08 35.33L102.97 35.23L102.96 35.22Q103.17 38.13 101.61 39.23L101.45 39.07L101.46 39.08Q99.58 40.02 95.39 40.13ZM97.79 42.60L97.81 42.63L97.88 42.69Q99.20 42.64 101.18 42.64L101.33 42.80L101.19 42.66Q103.36 42.73 104.62 42.31L104.52 42.22L104.53 42.23Q105.81 41.45 105.73 39.66L105.75 39.68L105.64 39.57Q105.77 38.74 105.39 36.69L105.40 36.71L105.38 36.69Q104.43 31.96 102.34 30.10L102.37 30.13L102.29 30.05Q101.60 28.56 100.27 27.84L100.18 27.75L94.82 25.63L94.86 25.67Q94.65 25.60 94.19 25.38L94.20 25.39L93.97 24.89L93.97 24.54L93.94 24.52Q93.78 23.10 94.92 22.49L95.00 22.57L94.91 22.48Q95.79 22.03 97.51 21.84L97.37 21.70L97.46 21.79Q98.59 21.67 99.74 22.13L99.77 22.16L99.68 22.07Q99.79 22.22 99.98 23.06L100.05 23.13L100.01 23.08Q100.22 22.95 100.71 22.72L100.64 22.66L100.70 22.71Q101.43 23.63 101.55 24.78L101.45 24.69L101.42 24.65Q101.59 24.71 105.24 22.12L105.32 22.19L105.33 22.20Q105.05 19.56 103.60 18.87L103.44 18.71L103.48 18.75Q102.97 17.56 101.52 17.03L101.60 17.10L101.50 17.00Q99.16 16.15 95.96 16.15L96.07 16.25L95.99 16.18Q91.06 16.16 89.20 16.84L89.15 16.80L89.22 16.87Q87.82 17.26 87.71 18.93L87.73 18.95L87.78 19.01Q87.78 19.58 88.20 21.78L88.28 21.86L88.20 21.78Q88.79 25.46 90.96 27.71L91.01 27.75L91.07 27.82Q91.87 29.53 93.37 30.21L93.38 30.22L93.33 30.17Q94.85 30.87 98.77 32.43L98.76 32.42L98.73 32.43L99.42 32.82L99.50 32.93L99.55 32.98Q99.55 33.25 99.59 33.59L99.72 33.73L99.57 33.58Q99.68 37.07 95.76 37.22L95.87 37.34L95.71 37.18Q94.67 37.31 93.37 36.93L93.33 36.89L93.24 36.80Q92.96 36.02 92.96 35.30L93.09 35.43L92.96 35.30Q93.03 35.11 93.07 34.84L93.02 34.79L93.11 34.88Q92.72 35.14 91.92 35.63L91.87 35.58L91.90 35.61Q91.37 34.47 91.52 33.10L91.57 33.15L91.55 33.13Q89.38 34.24 87.78 35.65L87.75 35.62L87.81 35.67Q87.76 36.38 87.84 37.41L87.95 37.52L87.88 37.46Q88.33 39.31 89.63 40.08L89.51 39.96L89.58 40.03Q90.70 41.76 93.25 42.14L93.31 42.20L93.24 42.12Q94.84 42.40 97.77 42.59Z"/><path fill="#d65676" d="M71.21 19.58L71.24 19.61L71.28 19.66Q69.28 19.75 68.33 19.90L68.45 20.02L68.32 19.89Q66.73 20.17 65.52 20.70L65.45 20.63L65.56 20.75Q62.04 22.17 61.92 26.86L61.92 26.85L61.83 26.76Q61.83 29.50 62.47 32.43L62.44 32.40L62.44 32.40Q63.43 36.55 67.04 37.73L67.01 37.69L66.93 37.61Q68.96 38.31 70.41 38.16L70.34 38.09L70.75 38.05L70.69 37.99Q71.00 38.11 71.19 38.14L71.14 38.09L71.16 38.11Q71.18 37.98 71.33 37.94L71.42 38.02L71.40 38.01Q74.13 37.84 75.50 37.27L75.46 37.23L71.80 33.61L71.79 33.60Q72.11 33.28 72.72 32.67L72.88 32.83L73.70 31.82L73.79 31.91Q75.48 33.83 77.46 35.89L77.48 35.91L77.41 35.84Q79.75 34.03 80.02 28.66L80.17 28.81L80.11 28.75Q80.24 27.89 80.24 26.98L80.17 26.91L80.07 26.81Q80.22 21.29 75.16 20.18L75.09 20.11L75.15 20.17Q73.83 19.84 71.32 19.69ZM84.01 41.68L84.11 41.77L83.96 41.62Q83.56 42.25 82.38 43.13L82.39 43.14L77.92 39.39L77.95 39.42Q75.39 40.55 71.12 40.59L71.12 40.58L71.24 40.70Q64.56 40.68 61.74 38.43L61.69 38.39L61.68 38.38Q59.90 36.60 59.45 33.63L59.44 33.62L59.58 33.76Q59.44 32.03 59.06 28.45L58.94 28.33L58.96 28.35Q58.99 27.65 58.87 25.90L58.83 25.85L58.81 25.84Q58.75 24.37 58.79 23.49L58.75 23.46L58.69 23.40Q58.88 20.42 60.63 18.86L60.60 18.84L60.70 18.93Q62.13 17.50 65.32 17.01L65.33 17.01L65.36 17.05Q67.71 16.54 70.60 16.61L70.76 16.78L70.72 16.74Q78.15 16.78 81.27 19.14L81.31 19.18L81.25 19.12Q83.49 21.31 83.22 26.23L83.13 26.13L83.19 26.19Q83.08 29.93 82.89 31.26L82.75 31.12L82.91 31.29Q82.20 35.71 79.88 38.04L79.81 37.97L79.88 38.04Q81.40 39.33 84.14 41.80ZM79.16 17.41L79.14 17.39L79.13 17.38Q77.26 16.80 70.75 16.31L70.65 16.21L70.79 16.34Q69.34 16.30 66.56 16.42L66.55 16.41L66.60 16.46Q62.41 16.72 60.16 18.70L60.12 18.65L60.06 18.60Q58.47 20.13 58.47 23.29L58.42 23.24L58.32 23.14Q58.46 24.11 58.61 25.83L58.60 25.81L58.52 25.74Q58.62 27.40 58.62 28.28L58.72 28.37L58.71 28.36Q58.76 30.01 59.14 33.59L59.15 33.60L59.24 33.69Q59.48 36.44 61.08 38.50L61.14 38.56L61.07 38.49Q61.44 39.36 62.66 40.50L62.70 40.54L62.80 40.64Q65.39 42.51 70.57 42.78L70.59 42.79L70.67 42.87Q70.94 42.80 73.34 42.92L73.35 42.93L73.45 43.03Q78.15 43.08 80.43 42.01L80.52 42.11L80.40 41.98Q81.43 42.82 86.15 46.40L86.11 46.36L86.16 46.42Q86.66 45.77 87.95 44.78L87.87 44.70L87.95 44.78Q87.08 44.10 86.28 43.41L86.30 43.43L84.67 41.99L84.67 41.84L84.77 41.94Q84.14 41.42 82.92 40.39L82.88 40.35L83.00 40.47Q84.89 37.95 84.89 33.42L84.75 33.28L84.87 33.39Q84.90 33.01 84.94 32.17L84.91 32.14L84.93 32.16Q84.84 31.19 84.84 30.77L84.91 30.85L84.90 30.84Q84.96 25.38 84.24 23.02L84.16 22.94L84.23 23.01Q83.83 21.70 82.96 20.63L82.99 20.66L82.97 20.64Q82.12 18.46 79.18 17.43ZM73.19 22.02L73.14 21.97L73.22 22.05Q77.22 21.90 79.05 23.50L79.03 23.48L79.18 23.63Q79.69 24.79 79.81 26.12L79.73 26.05L79.75 26.07Q79.92 27.42 79.85 28.79L79.80 28.75L79.71 28.65Q79.54 33.78 77.60 35.49L77.58 35.47L77.53 35.43Q76.14 34.03 73.63 31.29L73.65 31.32L73.70 31.37Q72.88 32.07 71.32 33.63L71.42 33.73L71.29 33.60Q71.87 34.22 73.01 35.40L73.03 35.41L72.98 35.47L72.98 35.47Q73.54 36.00 74.57 37.06L74.62 37.12L74.50 37.00Q73.64 37.40 71.32 37.70L71.28 37.66L70.66 37.57L70.29 37.63L70.39 37.76L70.29 37.66Q66.75 37.58 64.77 35.95L64.79 35.97L64.83 36.01Q63.78 33.89 63.81 30.77L63.79 30.75L63.92 30.87Q64.08 22.16 73.25 22.08Z"/><path fill="#718fe9" d="M22.31 23.35L22.39 23.42L22.30 23.34Q19.16 23.40 17.33 22.33L17.40 22.39L17.24 22.24Q19.91 21.02 24.78 16.80L24.77 16.78L24.75 16.77Q25.35 16.45 26.65 15.84L26.76 15.96L26.72 15.92Q25.37 21.84 25.25 28.19L25.39 28.33L25.36 28.30Q25.18 34.59 26.24 40.68L26.35 40.78L26.34 40.78Q24.58 39.97 22.45 39.86L22.44 39.85L22.44 39.84Q22.31 35.68 22.31 31.60L22.30 31.60L22.25 31.55Q22.24 27.42 22.27 23.31ZM22.05 25.71L21.89 40.14L22.07 40.32Q23.16 40.19 24.12 40.38L24.22 40.48L24.23 40.50Q24.31 41.18 24.50 42.55L24.44 42.49L24.51 42.56Q27.28 43.01 29.72 45.26L29.76 45.31L29.73 45.28Q27.18 38.08 27.15 30.62L27.21 30.68L27.24 30.72Q27.05 23.13 28.87 15.90L29.02 16.05L28.94 15.97Q28.33 16.31 26.73 17.41L26.82 17.50L26.76 17.45Q27.00 16.73 27.31 15.21L27.38 15.28L27.39 15.30Q25.93 15.93 24.48 16.31L24.62 16.45L24.55 16.37Q20.77 19.94 16.46 22.22L16.54 22.30L16.43 22.18Q17.81 23.27 20.17 23.61L20.27 23.71L20.31 23.74Q19.65 24.26 18.35 25.33L18.28 25.26L18.31 25.29Q19.78 25.65 21.99 25.65L21.97 25.63Z"/><path fill="#91edbf" d="M119.68 29.80L119.75 29.87L119.75 29.87Q119.46 29.81 119.16 29.81L119.11 29.76L119.11 29.76Q117.87 29.85 116.42 30.69L116.49 30.76L116.31 30.57Q115.08 31.78 115.08 33.68L114.97 33.58L115.17 33.78Q114.99 37.02 116.51 38.35L116.63 38.47L116.59 38.43Q117.54 39.61 119.82 39.61L119.83 39.61L119.80 39.59Q120.11 39.67 120.41 39.67L120.45 39.70L120.42 39.67Q122.09 39.64 123.24 38.00L123.29 38.05L123.26 38.02Q124.28 36.49 124.21 34.71L124.16 34.66L124.14 34.64Q124.26 34.22 124.26 33.81L124.32 33.87L124.27 33.82Q124.23 31.99 122.86 30.83L122.91 30.88L122.84 30.81Q121.58 29.75 119.79 29.91ZM124.19 39.98L124.26 40.05L124.26 40.05Q123.33 42.05 119.60 42.17L119.49 42.06L119.46 42.03Q116.03 42.10 114.44 40.50L114.49 40.56L114.52 40.59Q112.98 38.75 112.18 33.95L112.34 34.11L112.24 34.00Q111.95 32.27 111.95 31.02L111.99 31.06L112.03 31.09Q111.98 29.25 112.70 28.19L112.66 28.14L112.76 28.25Q114.05 26.80 117.02 26.80L116.97 26.75L117.04 26.82Q123.42 26.88 125.32 29.46L125.31 29.45L125.33 29.47Q125.38 28.53 125.80 26.93L125.93 27.06L125.83 26.97Q127.04 26.61 129.47 25.81L129.61 25.95L129.45 25.79Q127.12 31.52 126.89 37.84L126.86 37.82L126.96 37.91Q126.66 44.01 128.79 49.83L128.68 49.73L128.85 49.89Q126.98 49.13 125.19 48.86L125.26 48.93L125.29 48.96Q124.43 45.05 124.31 40.10ZM124.95 49.20L124.95 49.19L125.05 49.29Q125.75 49.42 127.16 49.73L127.07 49.64L127.13 49.70Q127.33 50.39 127.90 51.80L127.93 51.83L127.86 51.76Q130.43 52.47 132.72 53.76L132.72 53.76L132.72 53.76Q128.84 47.34 128.84 38.81L128.73 38.70L128.78 38.75Q128.80 32.41 131.27 26.62L131.20 26.55L131.19 26.54Q130.48 26.82 129.11 27.47L129.12 27.48L129.15 27.51Q129.50 26.75 130.15 25.19L130.20 25.25L130.19 25.24Q128.67 25.81 125.48 26.69L125.45 26.66L125.35 26.56Q125.23 27.13 124.93 28.31L125.01 28.39L124.97 28.35Q122.91 26.40 116.78 26.25L116.92 26.39L116.91 26.38Q113.68 26.27 112.31 27.76L112.34 27.78L112.35 27.80Q111.63 28.98 111.67 30.88L111.48 30.70L111.64 30.86Q111.68 33.79 112.67 37.56L112.71 37.59L112.63 37.52Q113.34 39.98 114.25 40.93L114.22 40.90L114.65 41.33L114.53 41.21Q115.71 43.99 121.16 44.22L121.22 44.28L121.23 44.29Q122.20 44.27 124.03 43.97L124.13 44.07L124.03 43.97Q124.40 46.97 125.01 49.25ZM121.59 32.13L121.53 32.07L121.66 32.19Q122.74 32.21 123.58 32.52L123.55 32.49L123.50 32.44Q123.66 32.94 123.78 33.55L123.90 33.68L123.92 33.69Q123.85 34.08 123.78 34.69L123.89 34.81L123.78 34.70Q123.91 36.73 122.88 38.03L122.79 37.93L122.79 37.93Q121.74 39.47 119.87 39.28L119.91 39.32L119.92 39.32Q118.55 39.26 117.60 38.84L117.64 38.88L117.51 38.74Q117.27 38.05 117.27 36.83L117.20 36.76L117.29 36.85Q117.16 36.42 117.16 36.12L117.29 36.24L117.23 36.18Q117.14 34.34 118.47 33.18L118.47 33.17L118.61 33.31Q119.83 32.04 121.58 32.11Z"/><path fill="#e282b2" d="M46.23 40.30L46.08 40.15L46.21 40.28Q42.60 40.26 40.97 39.72L41.04 39.80L41.15 39.91Q39.06 39.15 38.76 35.76L38.70 35.71L40.13 34.62L40.19 34.68Q40.87 34.10 41.63 33.61L41.69 33.67L41.69 33.67Q41.50 35.65 43.10 36.87L43.07 36.84L43.12 36.89Q44.35 37.85 46.48 37.66L46.56 37.74L46.38 37.56Q50.81 37.20 50.62 33.66L50.66 33.69L50.56 33.59Q50.47 31.41 47.84 30.19L47.83 30.18L47.79 30.13Q45.00 29.14 42.64 27.92L42.65 27.93L42.68 27.96Q40.05 26.55 39.06 21.86L39.09 21.90L39.17 21.98Q38.95 21.42 38.84 20.66L38.93 20.74L38.81 20.62Q38.75 19.88 38.83 19.31L38.84 19.33L38.98 19.46Q38.98 17.71 40.23 17.25L40.22 17.24L40.35 17.37Q42.71 16.45 46.71 16.64L46.73 16.67L46.64 16.57Q48.53 16.76 49.33 16.83L49.40 16.90L49.37 16.88Q50.81 17.01 51.87 17.47L51.79 17.39L51.86 17.46Q54.06 18.02 54.29 20.49L54.13 20.33L54.24 20.44Q53.18 21.14 50.98 22.47L51.00 22.50L50.99 22.49Q50.60 19.51 46.23 19.51L46.20 19.49L46.21 19.50Q44.22 19.41 43.23 20.10L43.27 20.14L43.26 20.13Q42.09 20.64 42.32 22.42L42.25 22.35L42.32 22.42Q42.51 24.56 45.48 26.08L45.51 26.10L45.47 26.07Q46.09 26.39 50.59 28.02L50.49 27.93L50.59 28.03Q53.21 29.51 53.63 33.88L53.66 33.92L53.69 33.95Q53.57 33.98 53.65 35.23L53.64 35.22L53.77 35.36Q53.85 38.14 52.29 39.24L52.17 39.12L52.26 39.21Q50.41 40.18 46.22 40.29ZM48.47 42.62L48.40 42.54L48.52 42.67Q49.90 42.68 51.88 42.68L51.91 42.71L51.86 42.66Q53.97 42.67 55.22 42.25L55.22 42.25L55.18 42.21Q56.38 41.35 56.30 39.56L56.45 39.71L56.49 39.75Q56.30 38.61 55.92 36.55L55.97 36.60L55.95 36.59Q55.05 31.92 52.96 30.05L52.97 30.06L52.91 30.01Q52.18 28.47 50.85 27.75L50.78 27.68L45.52 25.66L45.61 25.75Q45.25 25.54 44.79 25.31L44.76 25.28L44.64 24.89L44.68 24.59L44.61 24.52Q44.51 23.17 45.66 22.56L45.60 22.51L45.54 22.44Q46.43 22.00 48.14 21.81L48.19 21.85L48.04 21.71Q49.31 21.72 50.45 22.18L50.30 22.02L50.37 22.10Q50.44 22.20 50.63 23.04L50.59 23.00L50.63 23.04Q50.85 22.92 51.34 22.69L51.33 22.68L51.25 22.60Q52.08 23.62 52.19 24.76L52.18 24.74L52.10 24.67Q52.20 24.65 55.86 22.06L55.90 22.11L56.00 22.21Q55.65 19.50 54.20 18.81L54.19 18.80L54.27 18.87Q53.54 17.46 52.09 16.93L52.21 17.05L52.20 17.03Q49.93 16.25 46.74 16.25L46.68 16.20L46.70 16.22Q41.83 16.26 39.96 16.94L39.91 16.89L39.91 16.89Q38.65 17.42 38.54 19.09L38.46 19.02L38.54 19.10Q38.43 19.56 38.85 21.77L38.83 21.74L38.85 21.77Q39.51 25.51 41.68 27.76L41.78 27.86L41.77 27.85Q42.54 29.53 44.04 30.21L43.97 30.14L43.99 30.17Q45.56 30.92 49.48 32.48L49.39 32.39L49.43 32.46L50.11 32.84L50.15 32.92L50.07 32.83Q50.24 33.27 50.28 33.61L50.25 33.58L50.36 33.70Q50.47 37.19 46.54 37.34L46.39 37.19L46.53 37.33Q45.22 37.20 43.92 36.82L44.01 36.90L44.05 36.95Q43.60 35.99 43.60 35.27L43.73 35.41L43.72 35.39Q43.71 35.11 43.74 34.85L43.72 34.82L43.66 34.76Q43.39 35.14 42.59 35.64L42.53 35.57L42.44 35.49Q42.03 34.47 42.18 33.10L42.19 33.10L42.21 33.12Q39.98 34.17 38.38 35.58L38.37 35.57L38.37 35.56Q38.46 36.42 38.54 37.45L38.67 37.58L38.54 37.45Q38.94 39.26 40.23 40.02L40.15 39.93L40.24 40.02Q41.41 41.80 43.96 42.18L44.08 42.30L43.95 42.17Q45.59 42.48 48.52 42.67Z"/></svg>