<svg xmlns="http://www.w3.org/2000/svg" width="150" height="50" viewBox="0,0,150,50"><rect width="100%" height="100%" fill="white"/><path fill="#4891d9" d="M40.71 49.68L40.74 49.72L40.59 49.57Q43.48 45.68 46.37 39.47L46.45 39.55L46.47 39.58Q43.42 33.09 37.32 25.02L37.20 24.90L37.29 24.99Q39.04 25.98 41.82 26.62L41.86 26.67L41.83 26.63Q45.43 31.38 47.87 36.59L47.81 36.54L47.79 36.51Q50.02 31.28 53.10 26.87L53.12 26.89L53.23 26.99Q55.31 26.53 57.41 25.73L57.37 25.69L57.54 25.86Q54.10 29.65 50.63 37.07L50.54 36.98L47.71 42.98L47.77 43.05Q46.34 46.18 44.59 48.81L44.58 48.80L44.45 48.67Q42.15 49.15 40.70 49.68ZM46.75 50.90L46.83 50.98L46.88 51.03Q48.55 48.09 50.00 44.82L50.08 44.89L52.63 38.39L52.80 38.55Q56.22 30.44 59.54 26.45L59.44 26.35L59.60 26.51Q58.25 27.18 56.35 27.87L56.21 27.73L57.30 26.38L57.37 26.45Q57.85 25.68 58.46 24.99L58.48 25.01L58.51 25.04Q55.74 26.00 52.88 26.46L53.04 26.61L52.92 26.50Q50.16 30.39 48.22 34.85L48.35 34.98L48.23 34.86Q46.67 31.63 44.88 28.81L44.77 28.70L44.85 28.77Q44.61 28.73 44.25 28.69L44.35 28.79L44.28 28.72Q43.91 28.68 43.72 28.68L43.76 28.71L43.65 28.60Q42.95 27.41 41.99 26.26L41.92 26.20L41.95 26.22Q38.79 25.57 36.05 23.86L36.06 23.87L36.15 23.96Q42.32 31.88 46.01 39.50L46.05 39.53L46.13 39.61Q43.88 44.59 39.80 50.23L39.76 50.19L39.73 50.15Q40.61 49.93 41.41 49.78L41.51 49.88L43.11 49.50L43.03 49.41Q42.50 50.22 41.32 51.86L41.19 51.72L41.18 51.72Q43.53 51.17 46.80 50.95Z"/><path fill="#e5849c" d="M29.71 37.94L29.69 37.92L29.76 37.99Q29.94 38.85 30.47 40.87L30.54 40.95L30.56 40.97Q26.21 39.51 21.60 39.77L21.63 39.80L21.73 39.90Q17.13 40.13 13.13 42.11L13.09 42.07L13.06 42.04Q13.31 41.38 13.35 41.46L13.35 41.46L13.36 41.47Q17.04 37.45 20.96 33.03L20.97 33.05L21.06 33.13Q25.36 28.03 26.54 23.35L26.55 23.36L26.70 23.51Q26.99 21.59 25.72 20.41L25.73 20.43L25.89 20.59Q24.57 19.36 22.78 19.51L22.79 19.53L22.76 19.49Q22.44 19.48 22.10 19.48L21.99 19.37L22.14 19.52Q20.53 19.43 19.27 20.35L19.24 20.32L19.31 20.38Q17.95 21.70 18.18 24.36L18.19 24.37L18.29 24.46Q16.36 23.98 15.14 23.52L15.15 23.54L15.13 23.51Q15.06 22.22 14.98 20.78L14.87 20.67L14.89 20.68Q14.90 19.13 15.51 17.99L15.54 18.02L15.57 18.06Q17.33 16.65 20.68 16.65L20.68 16.65L22.32 16.54L22.41 16.64Q24.65 16.63 25.60 16.74L25.52 16.66L25.52 16.66Q29.88 17.10 30.15 19.53L30.13 19.51L30.12 19.51Q30.25 20.13 30.17 20.93L30.13 20.89L30.27 21.03Q30.27 21.71 30.12 22.40L30.08 22.36L30.04 22.32Q28.33 30.36 20.75 37.21L20.73 37.19L20.80 37.26Q22.20 37.09 23.57 37.09L23.52 37.05L23.55 37.07Q26.72 37.01 29.58 37.81ZM29.16 17.14L29.20 17.18L29.16 17.14Q27.55 16.48 25.83 16.40L25.70 16.27L22.32 16.12L22.39 16.20Q17.81 15.81 15.61 16.91L15.61 16.91L15.63 16.93Q14.65 18.39 14.65 20.44L14.72 20.51L14.70 20.50Q14.63 21.11 14.93 23.93L14.94 23.94L14.95 23.94Q15.47 24.16 16.65 24.46L16.71 24.52L16.76 25.60L16.69 25.53Q16.59 25.92 16.66 26.46L16.77 26.57L16.66 26.46Q17.96 26.61 20.43 26.84L20.51 26.91L20.47 26.88Q20.39 26.46 20.39 26.12L20.39 26.11L20.43 26.15Q20.36 24.25 21.58 22.90L21.57 22.90L21.67 23.00Q22.89 21.65 24.68 21.76L24.60 21.68L24.65 21.73Q25.36 21.72 26.13 21.87L26.25 21.99L26.25 21.99Q26.36 22.37 26.44 22.79L26.40 22.75L26.44 22.80Q26.32 23.06 26.25 23.40L26.26 23.41L26.38 23.54Q25.09 28.26 20.67 33.09L20.66 33.08L20.60 33.02Q18.45 35.25 13.01 41.30L13.07 41.36L13.13 41.42Q12.81 42.14 12.47 42.71L12.61 42.84L12.54 42.78Q14.17 41.93 15.69 41.40L15.63 41.34L15.62 41.33Q14.92 41.93 13.97 43.41L14.00 43.44L14.05 43.49Q13.86 43.76 13.75 44.10L13.70 44.05L13.69 44.04Q18.70 42.12 24.18 42.32L24.08 42.21L24.07 42.20Q29.72 42.33 34.29 44.69L34.30 44.70L33.45 42.72L33.34 42.60Q32.77 41.35 32.51 40.55L32.45 40.50L32.38 40.42Q31.80 40.15 30.59 39.73L30.55 39.70L30.52 39.67Q30.27 38.84 29.89 37.47L29.96 37.55L30.06 37.64Q27.75 36.97 25.46 36.78L25.54 36.85L25.52 36.84Q30.12 32.19 31.64 23.92L31.78 24.06L31.83 21.02L31.95 21.14Q31.86 19.34 30.64 18.66L30.57 18.59L30.46 18.51L30.64 18.69Q30.41 18.43 30.34 18.43L30.41 18.50L30.39 18.48Q30.27 17.76 29.17 17.15Z"/><path fill="#d5b452" d="M117.84 40.45L117.68 40.29L117.79 40.39Q113.76 40.67 112.77 38.34L112.63 38.21L112.72 38.30Q113.50 37.37 115.07 35.58L115.04 35.55L114.97 35.49Q115.59 37.62 118.60 37.74L118.48 37.62L118.51 37.65Q121.95 37.78 123.58 36.44L123.66 36.52L123.52 36.38Q125.01 34.86 124.93 32.16L124.93 32.16L124.92 32.15Q124.77 27.08 119.97 27.31L119.90 27.23L119.96 27.30Q117.21 27.52 115.46 28.77L115.46 28.78L114.95 28.42L114.80 28.35L114.78 28.32Q115.21 25.25 115.09 22.51L115.09 22.51L114.99 22.40Q115.05 19.95 114.71 16.64L114.63 16.57L114.59 16.52Q118.30 17.53 122.11 17.42L122.00 17.31L122.11 17.42Q125.83 17.25 129.41 16.00L129.41 16.00L128.98 17.67L128.84 17.53Q128.61 18.36 128.42 19.20L128.44 19.22L128.47 19.25Q125.31 20.24 121.43 20.24L121.38 20.19L121.46 20.27Q120.03 20.29 118.54 20.13L118.52 20.11L118.50 20.09Q118.40 20.75 118.05 25.20L118.01 25.16L118.12 25.27Q118.89 24.75 120.95 24.59L120.91 24.55L120.93 24.58Q124.71 24.85 126.15 26.52L126.03 26.41L126.11 26.49Q127.46 27.99 127.73 31.83L127.82 31.92L127.83 31.93Q128.06 36.08 126.84 38.10L126.76 38.02L126.77 38.03Q124.75 39.93 121.43 40.16L121.49 40.21L121.39 40.11Q120.48 40.27 117.82 40.42ZM123.78 42.61L123.74 42.58L123.86 42.70Q127.35 42.83 129.25 41.73L129.22 41.69L129.15 41.62Q130.15 40.11 130.15 38.02L130.12 37.99L130.15 38.02Q130.23 35.02 129.28 30.91L129.13 30.75L129.22 30.85Q128.88 29.14 127.66 27.73L127.53 27.60L127.73 27.84L127.39 27.42L127.01 27.19L127.10 27.28Q126.71 26.47 126.06 25.78L126.18 25.90L126.19 25.95L126.03 25.79Q124.52 24.13 120.82 24.13L120.87 24.17L120.59 24.16L120.64 24.21Q120.73 23.65 120.92 22.55L120.90 22.53L120.97 22.60Q125.87 22.63 129.91 20.99L129.91 20.99L129.91 21.00Q130.27 19.52 131.22 16.71L131.31 16.80L129.11 17.64L129.10 17.63Q129.54 16.55 130.04 15.41L130.11 15.48L130.14 15.51Q126.31 16.98 122.20 17.05L122.15 17.01L122.02 16.87Q118.10 17.18 114.14 16.08L114.06 16.00L113.97 15.90Q114.69 20.35 114.69 24.77L114.76 24.84L114.65 24.73Q114.78 26.77 114.67 28.67L114.64 28.65L114.62 28.62Q114.96 28.89 115.53 29.19L115.42 29.08L115.49 29.14Q115.80 28.88 116.44 28.54L116.36 28.46L116.46 28.56Q116.43 29.32 116.20 30.85L116.16 30.81L116.17 30.82Q116.58 31.00 117.00 31.23L117.07 31.30L116.99 31.22Q119.82 29.52 121.69 29.52L121.75 29.59L121.69 29.52Q123.00 29.50 124.18 30.15L124.18 30.15L124.24 30.21Q124.48 31.13 124.52 32.09L124.60 32.17L124.57 32.14Q124.65 34.73 123.62 35.83L123.53 35.74L123.62 35.83Q122.30 37.10 120.06 37.33L120.08 37.36L120.04 37.31Q118.97 37.28 118.29 37.20L118.29 37.20L118.36 37.27Q117.54 37.18 116.78 36.84L116.74 36.80L116.64 36.51L116.52 36.62L116.53 36.63Q115.83 36.23 115.30 34.90L115.30 34.90L115.22 34.82Q113.84 36.18 112.16 38.31L112.24 38.39L112.21 38.35Q112.65 39.14 113.49 40.09L113.50 40.10L113.39 39.99Q114.38 41.74 117.19 42.23L117.32 42.36L117.24 42.28Q118.41 42.50 123.78 42.62Z"/><path fill="#3f3fd9" d="M95.49 40.23L95.56 40.30L95.47 40.21Q92.05 40.37 90.42 39.84L90.33 39.75L90.38 39.80Q88.38 39.14 88.08 35.75L88.17 35.84L89.56 34.72L89.64 34.79Q90.35 34.25 91.11 33.75L91.08 33.73L91.01 33.66Q90.87 35.68 92.47 36.90L92.31 36.75L92.31 36.75Q93.70 37.87 95.83 37.68L95.88 37.72L95.73 37.57Q100.22 37.27 100.03 33.73L99.91 33.61L100.02 33.72Q99.77 31.37 97.14 30.15L97.18 30.20L97.19 30.20Q94.25 29.05 91.89 27.84L92.05 28.00L92.05 27.99Q89.45 26.62 88.46 21.94L88.35 21.82L88.36 21.83Q88.43 21.56 88.31 20.79L88.16 20.64L88.30 20.78Q88.11 19.91 88.19 19.34L88.17 19.32L88.17 19.32Q88.33 17.73 89.59 17.27L89.71 17.40L89.65 17.34Q92.04 16.45 96.04 16.64L96.10 16.71L96.08 16.68Q97.79 16.68 98.59 16.75L98.69 16.86L98.57 16.74Q100.16 17.04 101.23 17.49L101.25 17.51L101.13 17.39Q103.26 17.89 103.49 20.36L103.60 20.47L103.50 20.37Q102.47 21.10 100.26 22.43L100.23 22.39L100.28 22.45Q99.88 19.45 95.50 19.45L95.56 19.51L95.50 19.46Q93.58 19.44 92.59 20.12L92.68 20.21L92.57 20.11Q91.48 20.69 91.71 22.48L91.74 22.51L91.66 22.43Q91.96 24.67 94.93 26.20L94.88 26.14L94.94 26.21Q95.48 26.44 99.97 28.08L99.83 27.94L99.81 27.92Q102.53 29.49 102.95 33.87L103.00 33.92L102.93 33.85Q103.04 34.11 103.11 35.36L102.93 35.18L102.99 35.24Q103.11 38.07 101.55 39.17L101.61 39.23L101.47 39.09Q99.68 40.11 95.49 40.23ZM97.87 42.69L97.75 42.56L97.84 42.66Q99.19 42.63 101.17 42.63L101.19 42.66L101.32 42.78Q103.30 42.67 104.56 42.25L104.49 42.19L104.58 42.28Q105.81 41.45 105.73 39.66L105.68 39.61L105.68 39.61Q105.60 38.58 105.22 36.52L105.30 36.60L105.31 36.61Q104.35 31.88 102.26 30.02L102.35 30.11L102.28 30.04Q101.44 28.40 100.11 27.68L100.25 27.83L94.91 25.71L94.90 25.70Q94.57 25.53 94.11 25.30L94.17 25.36L93.95 24.87L93.99 24.56L93.94 24.52Q93.78 23.10 94.92 22.49L95.02 22.59L95.02 22.59Q95.76 22.00 97.48 21.81L97.40 21.74L97.43 21.77Q98.62 21.70 99.76 22.16L99.62 22.02L99.73 22.12Q99.84 22.27 100.03 23.11L99.89 22.97L99.92 23.00Q100.17 22.90 100.66 22.67L100.60 22.61L100.58 22.59Q101.42 23.62 101.53 24.76L101.55 24.78L101.53 24.76Q101.65 24.77 105.31 22.18L105.19 22.06L105.32 22.19Q105.00 19.52 103.56 18.83L103.47 18.74L103.55 18.82Q102.94 17.53 101.49 17.00L101.49 16.99L101.52 17.03Q99.19 16.18 95.99 16.18L95.99 16.17L96.10 16.29Q91.13 16.23 89.27 16.91L89.17 16.82L89.17 16.82Q87.93 17.36 87.81 19.04L87.87 19.09L87.84 19.06Q87.79 19.58 88.21 21.79L88.11 21.70L88.08 21.67Q88.85 25.52 91.02 27.76L91.12 27.86L90.97 27.71Q91.84 29.50 93.34 30.19L93.39 30.23L93.29 30.13Q94.90 30.92 98.82 32.48L98.71 32.38L98.76 32.46L99.50 32.90L99.35 32.78L99.50 32.94Q99.68 33.38 99.72 33.72L99.69 33.69L99.60 33.60Q99.68 37.07 95.76 37.23L95.69 37.16L95.89 37.35Q94.61 37.26 93.32 36.87L93.23 36.79L93.31 36.87Q93.00 36.07 93.00 35.35L93.07 35.41L93.05 35.39Q93.11 35.18 93.14 34.91L93.11 34.88L93.07 34.84Q92.57 34.99 91.78 35.49L91.84 35.55L91.78 35.49Q91.30 34.40 91.45 33.03L91.50 33.08L91.54 33.12Q89.42 34.27 87.82 35.68L87.82 35.68L87.82 35.68Q87.83 36.45 87.90 37.48L87.98 37.56L87.82 37.40Q88.25 39.23 89.54 39.99L89.51 39.96L89.60 40.05Q90.77 41.83 93.32 42.21L93.34 42.23L93.31 42.20Q94.88 42.44 97.81 42.63Z"/><path d="M13 7 C54 27,68 41,139 14" stroke="#4e75e8" fill="none"/><path fill="#e77d98" d="M73.14 27.82L73.04 27.71L73.03 27.70Q69.45 27.55 68.34 30.90L68.34 30.90L68.36 30.92Q68.09 32.09 67.98 33.16L68.02 33.20L68.05 33.23Q67.70 35.13 68.69 36.46L68.67 36.44L68.75 36.52Q70.03 37.65 72.50 37.69L72.46 37.64L72.51 37.69Q74.29 37.69 75.70 36.54L75.79 36.63L75.81 36.65Q77.15 35.44 77.15 33.65L77.12 33.62L77.13 33.63Q77.26 33.41 77.18 33.03L77.15 33.01L77.03 32.88Q76.82 27.76 73.01 27.68ZM72.93 40.17L72.88 40.12L72.97 40.21Q69.20 40.48 67.41 38.46L67.43 38.47L67.42 38.46Q67.15 39.45 66.69 40.82L66.62 40.75L66.68 40.81Q64.69 41.52 63.43 42.09L63.44 42.10L63.51 42.17Q65.63 36.14 65.63 29.63L65.56 29.56L65.70 29.70Q65.62 21.33 62.20 13.48L62.14 13.43L62.27 13.56Q64.49 14.78 65.82 15.24L65.81 15.23L65.97 15.39Q68.05 22.01 68.21 27.83L68.19 27.81L68.04 27.67Q69.64 25.16 73.38 25.19L73.24 25.05L73.31 25.12Q76.50 25.12 77.99 26.99L77.97 26.98L78.12 27.12Q79.90 29.36 80.05 32.94L79.99 32.87L79.92 32.80Q80.06 34.05 79.99 35.65L79.98 35.64L80.06 35.72Q80.02 37.16 79.14 38.31L79.12 38.29L79.03 38.20Q77.36 39.99 73.02 40.25ZM78.37 42.64L78.36 42.63L78.52 42.78Q80.02 42.80 81.51 42.12L81.45 42.06L81.48 42.09Q82.63 40.84 82.67 38.90L82.59 38.82L82.64 38.88Q82.59 38.33 82.44 37.15L82.49 37.21L82.42 37.13Q82.37 36.48 82.26 35.56L82.25 35.55L82.15 35.45Q81.48 30.83 79.92 28.77L79.80 28.65L79.87 28.72Q79.79 28.60 78.99 27.73L79.02 27.75L79.10 27.84Q78.75 27.45 78.22 26.65L78.27 26.70L78.19 26.62Q76.74 24.83 73.39 24.87L73.39 24.87L73.38 24.85Q71.32 24.88 70.06 25.49L69.97 25.41L70.02 25.45Q69.75 20.99 69.14 17.80L69.02 17.68L69.00 17.66Q68.40 17.63 66.92 17.25L66.93 17.26L66.88 17.21Q66.75 16.47 66.29 15.02L66.30 15.04L66.23 14.97Q63.89 14.26 61.64 12.70L61.57 12.63L61.63 12.69Q65.43 20.90 65.43 29.69L65.38 29.64L65.34 29.61Q65.25 36.48 62.77 42.68L62.95 42.87L62.90 42.81Q63.57 42.45 64.90 41.88L64.98 41.96L64.89 41.87Q64.63 42.60 64.02 44.13L64.12 44.23L64.07 44.18Q65.97 43.19 68.75 42.65L68.79 42.69L69.26 40.95L69.23 40.92Q71.57 42.65 78.50 42.76ZM74.62 29.98L74.60 29.96L74.64 30.00Q75.62 29.95 76.16 30.34L76.14 30.32L76.27 30.45Q76.50 30.87 76.72 32.88L76.75 32.91L76.77 32.93Q77.05 34.89 75.80 36.20L75.82 36.23L75.72 36.12Q74.39 37.37 72.45 37.25L72.61 37.41L72.47 37.27Q71.53 37.39 70.04 36.90L70.12 36.98L70.19 37.04Q69.82 36.41 69.82 35.87L69.92 35.97L69.96 36.02Q69.85 32.82 71.41 31.22L71.44 31.26L71.37 31.22L71.48 31.33Q73.00 30.04 74.76 30.11Z"/></svg>