<svg xmlns="http://www.w3.org/2000/svg" width="150" height="50" viewBox="0,0,150,50"><rect width="100%" height="100%" fill="white"/><path fill="#c9e76e" d="M94.98 29.00L94.99 29.01L94.95 28.98Q92.35 28.93 91.32 30.11L91.40 30.18L91.35 30.13Q90.34 31.33 90.34 33.96L90.27 33.89L90.24 33.85Q90.28 39.00 94.89 38.81L94.85 38.78L94.98 38.90Q97.03 39.05 98.38 37.49L98.40 37.50L98.44 37.55Q99.77 35.97 99.54 33.91L99.39 33.76L99.40 33.77Q99.48 31.30 98.61 30.27L98.54 30.20L98.56 30.23Q97.19 29.00 94.98 29.00ZM99.98 38.76L100.00 38.78L100.02 38.80Q98.74 41.18 94.06 41.18L93.98 41.10L92.62 41.19L92.53 41.09Q90.35 41.28 89.25 40.13L89.24 40.13L89.14 40.03Q88.04 38.93 87.77 36.53L87.80 36.56L87.95 36.70Q87.71 35.14 87.64 33.35L87.67 33.38L87.68 33.39Q87.50 32.26 87.35 30.32L87.46 30.42L87.45 30.42Q87.40 26.19 92.58 26.19L92.46 26.06L94.11 26.15L94.13 26.17Q96.94 26.09 99.04 27.39L98.97 27.32L99.13 27.48Q99.94 27.99 100.43 28.67L100.30 28.54L100.25 28.48Q100.53 27.70 101.06 26.07L101.21 26.21L101.23 26.23Q102.30 25.89 104.62 25.28L104.70 25.36L104.71 25.37Q102.12 29.60 102.12 34.85L102.12 34.85L101.99 34.72Q102.12 38.58 103.49 41.66L103.46 41.63L103.44 41.62Q102.32 41.33 100.42 41.10L100.37 41.06L100.36 41.05Q100.26 40.30 99.95 38.73ZM103.16 43.85L103.15 43.84L105.44 44.49L105.41 44.46Q106.71 44.85 107.70 45.30L107.55 45.15L107.60 45.20Q103.92 40.84 103.92 34.75L104.07 34.89L104.08 34.90Q103.99 30.28 106.12 26.47L106.04 26.39L106.19 26.55Q105.47 26.71 104.14 27.09L104.24 27.19L104.11 27.06Q104.42 26.26 105.29 24.73L105.31 24.75L105.35 24.79Q104.81 25.02 100.81 25.85L100.79 25.83L100.33 27.76L100.28 27.71Q98.36 25.84 93.95 25.61L94.02 25.68L93.96 25.62Q92.83 25.64 90.59 25.79L90.71 25.92L90.64 25.84Q87.04 26.28 87.16 30.32L87.00 30.16L87.12 30.28Q87.28 33.63 87.85 38.09L87.79 38.03L87.78 38.44L87.76 38.42Q87.97 39.35 88.77 40.46L88.78 40.47L88.81 40.50Q88.85 40.54 89.04 40.65L89.02 40.64L89.03 40.64Q89.34 41.17 89.72 41.75L89.73 41.76L89.66 41.69Q91.09 43.23 94.47 43.42L94.59 43.54L94.45 43.39Q96.06 43.48 96.21 43.48L96.39 43.66L97.83 43.54L97.85 43.56Q101.06 43.57 102.28 42.01L102.33 42.06L102.23 41.97Q102.58 42.58 103.19 43.88ZM96.65 31.13L96.76 31.24L96.79 31.27Q98.02 31.16 98.85 31.62L98.83 31.60L98.83 31.60Q99.09 32.35 99.09 33.80L99.21 33.92L99.12 33.83Q99.36 35.78 98.08 37.21L98.13 37.26L98.12 37.24Q96.89 38.72 94.99 38.53L94.88 38.42L94.95 38.49Q93.39 38.37 92.36 37.95L92.46 38.05L92.51 38.11Q92.26 37.21 92.26 35.99L92.28 36.01L92.15 35.89Q92.36 32.44 94.99 31.48L94.95 31.45L94.94 31.44Q95.85 31.13 96.65 31.13Z"/><path fill="#dba570" d="M46.56 19.60L46.71 19.75L46.60 19.64Q44.56 19.70 43.61 19.85L43.79 20.03L43.69 19.93Q42.02 20.12 40.80 20.65L40.88 20.73L40.80 20.66Q37.25 22.05 37.13 26.73L37.22 26.82L37.33 26.93Q37.13 29.47 37.78 32.40L37.77 32.40L37.84 32.46Q38.67 36.45 42.28 37.63L42.28 37.63L42.38 37.73Q44.18 38.19 45.62 38.04L45.57 37.98L46.16 38.12L46.10 38.06Q46.18 37.95 46.37 37.99L46.39 38.00L46.47 38.09Q46.53 37.99 46.68 37.95L46.77 38.05L46.71 37.98Q49.35 37.73 50.72 37.16L50.77 37.21L47.21 33.69L47.07 33.55Q47.53 33.36 48.14 32.75L48.05 32.66L49.09 31.87L48.97 31.76Q50.92 33.94 52.90 35.99L52.91 36.00L52.79 35.88Q55.18 34.12 55.44 28.75L55.52 28.83L55.38 28.68Q55.50 27.82 55.50 26.91L55.49 26.90L55.57 26.98Q55.43 21.16 50.37 20.06L50.44 20.13L50.34 20.03Q49.23 19.91 46.72 19.76ZM59.29 41.62L59.36 41.69L59.38 41.71Q58.73 42.09 57.55 42.96L57.69 43.10L53.17 39.31L53.22 39.36Q50.69 40.52 46.43 40.56L46.42 40.55L46.49 40.62Q40.03 40.82 37.21 38.58L37.04 38.40L37.16 38.52Q35.32 36.68 34.86 33.71L34.84 33.70L34.80 33.65Q34.61 31.86 34.22 28.28L34.21 28.26L34.33 28.39Q34.40 27.73 34.28 25.98L34.19 25.89L34.21 25.91Q34.08 24.37 34.12 23.49L34.11 23.48L34.09 23.46Q34.27 20.48 36.02 18.92L35.96 18.86L35.85 18.75Q37.45 17.50 40.65 17.00L40.65 17.00L40.62 16.97Q43.13 16.62 46.02 16.70L45.96 16.64L45.95 16.63Q53.43 16.72 56.55 19.08L56.69 19.22L56.65 19.18Q58.78 21.27 58.51 26.18L58.63 26.30L58.62 26.29Q58.41 29.93 58.22 31.26L58.14 31.18L58.09 31.13Q57.45 35.63 55.13 37.96L55.13 37.96L55.25 38.07Q56.56 39.16 59.30 41.63ZM54.46 17.37L54.53 17.44L54.56 17.47Q52.47 16.68 45.96 16.19L46.06 16.29L46.01 16.23Q44.57 16.20 41.79 16.32L41.79 16.31L41.81 16.33Q37.65 16.63 35.41 18.61L35.41 18.62L35.46 18.66Q33.73 20.06 33.73 23.22L33.63 23.11L33.81 23.29Q33.64 23.97 33.80 25.68L33.81 25.69L33.91 25.79Q34.09 27.53 34.09 28.41L34.06 28.38L34.08 28.40Q34.15 30.07 34.53 33.64L34.59 33.70L34.63 33.74Q34.82 36.45 36.42 38.50L36.45 38.53L36.46 38.54Q36.80 39.38 38.02 40.53L38.08 40.58L38.01 40.51Q40.76 42.54 45.93 42.80L45.98 42.85L46.05 42.92Q46.25 42.78 48.65 42.90L48.66 42.90L48.64 42.88Q53.50 43.10 55.79 42.04L55.82 42.07L55.86 42.11Q56.74 42.80 61.46 46.37L61.32 46.24L61.34 46.26Q61.98 45.75 63.27 44.76L63.25 44.75L63.22 44.71Q62.39 44.07 61.59 43.39L61.67 43.47L59.91 41.90L60.14 41.97L60.08 41.91Q59.56 41.50 58.34 40.48L58.32 40.46L58.30 40.43Q60.15 37.87 60.15 33.34L60.25 33.44L60.24 33.43Q60.16 32.93 60.20 32.09L60.22 32.11L60.21 32.11Q60.20 31.22 60.20 30.80L60.30 30.90L60.24 30.84Q60.27 25.36 59.55 23.00L59.60 23.04L59.53 22.97Q59.21 21.74 58.33 20.67L58.29 20.63L58.28 20.63Q57.44 18.45 54.51 17.43ZM48.51 22.01L48.50 22.00L48.50 22.00Q52.71 22.05 54.53 23.65L54.46 23.57L54.52 23.64Q54.92 24.69 55.04 26.02L55.08 26.06L55.18 26.17Q55.16 27.32 55.08 28.69L55.21 28.82L55.14 28.76Q54.83 33.73 52.89 35.45L52.93 35.49L52.77 35.33Q51.52 34.07 49.00 31.33L49.01 31.34L49.06 31.39Q48.14 31.99 46.58 33.55L46.75 33.73L46.60 33.57Q47.21 34.23 48.36 35.41L48.32 35.37L48.40 35.56L48.34 35.51Q48.78 35.91 49.81 36.97L49.83 37.00L49.86 37.02Q48.90 37.32 46.58 37.62L46.56 37.61L46.03 37.60L45.66 37.66L45.72 37.76L45.65 37.69Q42.19 37.69 40.21 36.05L40.10 35.94L40.23 36.08Q39.07 33.85 39.11 30.73L39.30 30.91L39.19 30.81Q39.40 22.14 48.57 22.07Z"/><path fill="#83e961" d="M71.24 19.73L71.18 19.67L69.68 19.84L69.65 19.81Q67.38 19.90 67.15 21.92L67.11 21.88L67.14 21.91Q67.06 22.63 67.10 23.62L67.11 23.63L67.16 23.68Q67.21 25.63 68.46 26.96L68.38 26.88L68.29 26.79Q69.67 28.24 71.57 28.09L71.51 28.03L71.51 28.03Q73.50 27.81 74.26 26.90L74.25 26.88L74.25 26.88Q75.36 26.02 75.63 23.77L75.63 23.78L75.58 23.72Q75.88 21.52 74.63 20.68L74.72 20.77L74.71 20.76Q73.82 19.95 71.16 19.65ZM77.22 28.90L77.19 28.88L75.88 31.15L75.89 31.16Q73.26 36.03 69.49 40.10L69.46 40.07L69.41 40.01Q67.72 40.11 65.02 40.91L65.04 40.94L65.13 41.03Q70.35 34.64 73.51 29.84L73.53 29.86L73.49 29.82Q72.50 30.51 70.87 30.58L70.89 30.61L70.84 30.56Q67.99 30.87 66.47 28.89L66.32 28.74L66.31 28.73Q65.25 27.29 64.15 22.72L64.11 22.69L63.97 22.55Q64.00 22.12 63.85 21.18L63.91 21.25L63.90 21.24Q63.73 20.29 63.73 19.83L63.83 19.93L63.66 19.77Q63.69 18.01 64.76 17.40L64.77 17.41L64.91 17.55Q65.95 16.61 67.82 16.61L68.00 16.79L67.93 16.72Q71.14 16.74 71.14 16.74L71.07 16.67L71.09 16.68Q73.19 16.66 74.45 16.85L74.49 16.89L74.48 16.88Q76.64 17.17 77.55 17.67L77.56 17.67L77.56 17.67Q79.02 18.52 79.21 20.27L79.14 20.21L79.19 20.26Q79.06 20.36 78.87 23.02L79.00 23.15L79.03 23.18Q78.60 25.26 78.37 26.09L78.26 25.98L78.34 26.06Q77.88 27.39 77.11 28.80ZM79.19 31.37L79.02 31.20L79.09 31.27Q80.11 29.09 80.64 24.79L80.62 24.77L80.69 24.84Q80.81 22.49 80.78 21.61L80.90 21.74L80.84 21.67Q80.72 19.72 79.54 18.81L79.58 18.86L79.29 18.75L79.40 18.86Q79.11 18.08 78.20 17.44L78.13 17.36L78.10 17.33Q75.80 16.33 71.00 16.17L71.17 16.34L71.11 16.29Q70.20 16.33 67.76 16.33L67.67 16.23L67.64 16.20Q65.88 16.19 64.39 16.88L64.34 16.83L64.48 16.96Q63.30 17.73 63.38 19.56L63.40 19.58L63.36 19.54Q63.58 20.48 63.77 22.50L63.72 22.45L63.73 22.46Q64.39 25.13 64.65 25.97L64.69 26.00L64.60 25.91Q65.20 27.81 66.15 29.11L66.14 29.09L66.21 29.16Q66.49 29.52 66.87 29.90L66.88 29.91L66.82 29.85Q67.16 30.38 67.81 31.30L67.71 31.20L67.81 31.30Q69.27 32.64 71.21 32.83L71.13 32.75L71.11 32.74Q69.20 35.39 67.64 37.29L67.61 37.26L64.04 41.69L64.01 41.66Q66.22 40.86 67.85 40.51L68.01 40.67L68.02 40.68Q67.23 41.53 65.67 43.24L65.67 43.24L65.59 43.16Q68.67 42.24 71.79 42.21L71.79 42.20L71.78 42.20Q74.14 39.65 78.48 32.41L78.51 32.44L78.44 32.44L78.52 32.53Q78.77 31.79 79.11 31.29ZM73.06 22.01L73.18 22.13L73.14 22.08Q73.64 21.86 74.10 21.98L74.15 22.03L74.21 22.09Q74.76 22.10 75.14 22.22L75.23 22.31L75.23 22.31Q75.30 22.64 75.37 23.06L75.47 23.15L75.46 23.15Q75.44 23.47 75.32 23.85L75.39 23.92L75.43 23.96Q75.24 25.51 74.06 26.62L74.20 26.76L74.02 26.58Q73.18 27.72 71.54 27.68L71.61 27.75L71.56 27.70Q71.06 27.62 69.54 27.32L69.59 27.37L69.58 27.35Q69.34 26.47 69.34 25.75L69.34 25.75L69.31 25.72Q69.36 25.58 69.36 25.35L69.22 25.21L69.35 25.34Q69.35 23.13 71.63 22.33L71.60 22.30L71.58 22.28Q72.27 22.05 73.10 22.05Z"/><path fill="#6868ed" d="M123.34 39.83L123.28 39.77L123.31 39.81Q121.48 39.88 119.47 40.07L119.39 40.00L119.31 39.91Q120.09 34.80 120.09 29.96L119.98 29.85L120.13 30.01Q120.11 25.07 119.46 19.85L119.39 19.78L119.41 19.80Q114.89 19.47 111.69 17.80L111.58 17.69L110.86 15.93L110.86 15.93Q110.79 15.56 110.18 14.34L110.14 14.30L110.19 14.35Q115.17 16.93 121.18 17.12L121.18 17.12L121.18 17.11Q127.05 17.28 132.49 15.22L132.51 15.24L132.52 15.24Q131.73 16.59 131.09 18.42L131.16 18.50L131.12 18.45Q127.60 19.84 123.33 20.03L123.25 19.95L123.24 19.94Q123.15 25.06 123.15 30.01L122.98 29.85L123.08 29.94Q123.05 34.86 123.36 39.85ZM133.21 14.56L133.22 14.58L133.11 14.47Q127.41 16.88 121.21 16.69L121.08 16.56L121.21 16.69Q114.44 16.39 109.34 13.42L109.31 13.39L109.35 13.43Q110.10 14.72 111.39 17.99L111.49 18.09L111.43 18.03Q112.12 18.37 113.37 18.94L113.24 18.81L113.43 19.00Q113.62 19.64 113.96 21.17L113.94 21.15L114.03 21.23Q116.28 22.04 119.32 22.26L119.18 22.12L119.34 22.28Q119.61 25.86 119.61 29.63L119.62 29.64L119.64 29.66Q119.63 35.03 118.84 40.39L118.83 40.39L118.80 40.35Q120.48 40.24 121.01 40.24L121.03 40.27L121.15 40.39Q121.04 40.58 120.99 41.25L120.93 41.19L121.04 41.30Q120.94 41.93 120.94 42.27L120.86 42.19L120.90 42.23Q122.07 42.14 123.59 42.22L123.73 42.36L123.59 42.21Q124.53 42.29 126.36 42.44L126.33 42.40L126.41 42.48Q125.21 37.59 125.09 32.41L124.97 32.29L124.98 32.30Q124.99 27.14 125.53 22.23L125.39 22.08L125.46 22.15Q129.43 21.64 132.59 20.42L132.58 20.41L132.64 20.47Q133.32 18.06 134.35 16.01L134.37 16.03L134.34 16.00Q132.93 16.61 132.13 16.91L132.13 16.91L132.11 16.89Q132.68 15.75 133.26 14.61Z"/><path fill="#df5252" d="M21.86 19.68L21.87 19.69L20.22 19.71L20.21 19.71Q17.94 19.80 17.71 21.81L17.85 21.95L17.86 21.96Q17.69 22.59 17.73 23.58L17.80 23.65L17.71 23.56Q17.85 25.61 19.11 26.94L18.94 26.77L19.06 26.90Q20.31 28.22 22.21 28.07L22.16 28.02L22.12 27.97Q24.33 27.98 25.09 27.06L24.92 26.89L25.00 26.97Q26.14 26.13 26.41 23.89L26.32 23.80L26.41 23.88Q26.56 21.52 25.30 20.69L25.38 20.76L25.33 20.72Q24.45 19.91 21.78 19.61ZM27.78 28.80L27.96 28.98L26.47 31.07L26.56 31.15Q23.81 35.91 20.04 39.98L20.09 40.03L20.16 40.10Q18.43 40.16 15.73 40.96L15.78 41.01L15.73 40.96Q21.02 34.64 24.18 29.85L24.34 30.01L24.33 29.99Q23.15 30.49 21.51 30.56L21.55 30.61L21.55 30.60Q18.61 30.82 17.09 28.84L17.09 28.84L17.08 28.84Q15.82 27.19 14.72 22.63L14.81 22.72L14.71 22.62Q14.68 22.14 14.53 21.20L14.63 21.30L14.50 21.17Q14.51 20.40 14.51 19.94L14.52 19.96L14.52 19.96Q14.52 18.16 15.58 17.55L15.43 17.40L15.53 17.50Q16.79 16.78 18.66 16.78L18.50 16.63L18.52 16.65Q21.79 16.72 21.79 16.72L21.83 16.76L21.79 16.72Q23.91 16.71 25.17 16.90L25.17 16.90L25.11 16.84Q27.43 17.29 28.34 17.79L28.19 17.63L28.17 17.62Q29.56 18.39 29.75 20.15L29.81 20.21L29.88 20.28Q29.85 20.48 29.66 23.15L29.52 23.00L29.64 23.12Q29.25 25.24 29.02 26.08L29.08 26.14L28.92 25.98Q28.71 27.55 27.94 28.96ZM29.84 31.35L29.80 31.32L29.79 31.31Q30.82 29.14 31.36 24.84L31.23 24.71L31.31 24.79Q31.52 22.53 31.48 21.65L31.59 21.76L31.44 21.61Q31.43 19.77 30.25 18.86L30.21 18.81L29.95 18.75L30.08 18.88Q29.74 18.04 28.83 17.40L28.76 17.33L28.75 17.32Q26.60 16.47 21.81 16.32L21.69 16.20L21.74 16.25Q20.83 16.29 18.39 16.29L18.44 16.34L18.37 16.27Q16.61 16.26 15.12 16.94L15.20 17.02L15.10 16.91Q13.94 17.70 14.02 19.53L13.97 19.49L14.11 19.62Q14.27 20.50 14.46 22.52L14.37 22.43L14.45 22.51Q14.95 25.03 15.22 25.87L15.28 25.93L15.32 25.97Q15.90 27.84 16.85 29.14L16.85 29.13L16.91 29.20Q17.09 29.45 17.47 29.83L17.54 29.90L17.55 29.92Q17.78 30.34 18.43 31.25L18.31 31.13L18.35 31.17Q19.95 32.65 21.89 32.84L21.86 32.82L21.72 32.67Q19.91 35.44 18.35 37.34L18.36 37.34L14.82 41.80L14.76 41.74Q16.93 40.90 18.56 40.56L18.57 40.57L18.63 40.62Q17.78 41.42 16.22 43.13L16.26 43.17L16.19 43.10Q19.39 42.29 22.51 42.26L22.42 42.17L22.41 42.15Q24.74 39.58 29.08 32.34L29.09 32.36L29.16 32.50L29.20 32.54Q29.33 31.68 29.67 31.19ZM23.84 22.12L23.81 22.08L23.83 22.11Q24.42 21.98 24.88 22.09L24.72 21.93L24.84 22.05Q25.40 22.08 25.78 22.20L25.78 22.19L25.92 22.34Q25.94 22.62 26.02 23.04L26.08 23.10L26.07 23.09Q26.12 23.48 26.00 23.86L25.98 23.84L25.98 23.84Q26.06 25.67 24.88 26.77L24.74 26.63L24.87 26.76Q23.83 27.70 22.19 27.66L22.14 27.62L22.20 27.67Q21.74 27.64 20.22 27.33L20.17 27.28L20.26 27.37Q19.97 26.43 19.97 25.71L19.98 25.72L19.94 25.68Q20.04 25.58 20.04 25.36L19.91 25.23L19.86 25.18Q20.04 23.15 22.32 22.35L22.21 22.24L22.17 22.20Q22.98 22.09 23.81 22.09Z"/><path d="M12 31 C90 5,93 6,139 8" stroke="#e44dbe" fill="none"/></svg>