<svg xmlns="http://www.w3.org/2000/svg" width="150" height="50" viewBox="0,0,150,50"><rect width="100%" height="100%" fill="white"/><path fill="#6c47da" d="M26.12 30.97L26.01 30.85L26.12 30.96Q26.11 29.43 25.29 28.52L25.41 28.64L25.25 28.48Q24.44 27.57 22.99 27.61L23.12 27.73L22.96 27.58Q20.63 27.65 19.80 29.78L19.81 29.80L19.95 29.93Q19.61 30.66 19.57 31.34L19.62 31.39L19.61 31.38Q19.28 36.12 18.37 40.46L18.37 40.46L18.39 40.48Q16.75 41.05 14.89 42.04L14.99 42.14L14.89 42.04Q17.18 35.08 16.91 27.77L16.83 27.69L16.96 27.82Q16.54 20.32 13.99 13.50L14.15 13.66L14.03 13.54Q15.86 14.92 17.88 15.61L17.78 15.51L17.88 15.61Q19.25 21.31 19.44 27.17L19.54 27.28L19.47 27.21Q20.89 25.16 23.59 25.24L23.63 25.28L23.53 25.18Q28.72 25.38 28.84 30.75L28.73 30.64L28.83 30.75Q28.92 36.39 30.29 41.04L30.33 41.08L30.37 41.11Q28.48 40.25 26.72 40.06L26.72 40.05L26.75 40.09Q26.12 36.71 26.01 30.85ZM26.26 40.25L26.32 40.31L26.27 40.25Q27.37 40.44 28.47 40.70L28.60 40.83L28.63 40.86Q28.66 41.00 29.19 42.98L29.15 42.94L29.12 42.92Q32.02 43.79 34.04 45.24L34.17 45.37L34.16 45.36Q31.45 39.57 30.92 33.25L30.95 33.28L30.90 33.24Q30.54 29.48 29.13 27.92L29.23 28.02L29.20 27.99Q29.10 27.82 28.46 27.36L28.37 27.28L28.39 27.30Q28.25 26.89 27.61 26.13L27.57 26.10L27.55 26.00L27.56 26.01Q26.78 25.23 23.66 24.96L23.57 24.87L23.68 24.98Q22.87 24.90 21.46 25.24L21.51 25.29L21.44 25.22Q21.33 20.47 20.99 17.96L20.86 17.82L20.85 17.81Q20.07 17.68 18.59 17.38L18.65 17.44L18.67 17.46Q18.47 16.69 18.21 15.21L18.24 15.24L18.28 15.29Q15.25 14.23 13.38 12.67L13.38 12.66L13.34 12.63Q16.32 19.79 16.58 27.60L16.70 27.71L16.70 27.71Q16.89 35.40 14.33 42.74L14.34 42.75L14.31 42.72Q15.25 42.14 16.40 41.65L16.41 41.66L15.61 43.87L15.77 44.03Q18.78 42.59 20.76 42.40L20.80 42.43L20.74 42.37Q21.38 37.03 21.57 33.07L21.57 33.07L21.63 33.14Q21.66 31.23 23.61 30.13L23.67 30.19L23.62 30.14Q24.04 29.80 24.57 29.83L24.55 29.81L24.59 29.85Q24.82 29.94 25.17 29.97L25.22 30.03L25.63 30.09L25.68 30.14Q25.58 30.43 25.70 30.88L25.65 30.83L25.81 31.00Q25.79 36.84 26.28 40.26Z"/><path fill="#88e19e" d="M74.33 39.93L74.20 39.80L72.33 39.88L72.30 39.84Q71.38 39.87 70.42 39.98L70.34 39.89L70.37 39.93Q71.07 33.85 71.07 29.85L70.98 29.77L71.06 29.85Q66.95 23.03 59.29 14.35L59.27 14.33L59.32 14.37Q61.09 15.35 64.44 16.15L64.56 16.27L64.56 16.27Q69.63 21.87 72.64 27.09L72.59 27.04L72.58 27.03Q75.49 21.37 79.87 16.34L80.01 16.49L79.90 16.38Q82.41 16.07 84.93 15.27L84.79 15.14L84.77 15.12Q78.81 21.31 73.94 29.72L73.97 29.75L73.89 29.67Q73.95 36.77 74.26 39.86ZM83.44 17.37L86.03 14.40L86.09 14.46Q82.92 15.55 79.80 16.01L79.79 16.00L79.90 16.11Q75.70 20.85 72.88 25.95L72.85 25.93L72.83 25.90Q70.69 22.24 67.49 18.36L67.37 18.24L67.47 18.34Q67.18 18.32 66.69 18.24L66.80 18.35L66.67 18.22Q66.03 17.47 64.51 15.80L64.51 15.79L64.52 15.80Q61.17 15.09 58.20 13.53L58.07 13.39L58.16 13.48Q65.90 21.98 70.66 29.90L70.63 29.87L70.58 29.83Q70.49 36.17 69.88 40.31L69.83 40.26L69.94 40.38Q70.62 40.29 72.06 40.18L72.10 40.22L72.15 41.29L72.09 41.23Q72.21 41.81 72.14 42.34L71.98 42.19L72.10 42.31Q75.61 42.27 77.36 42.46L77.37 42.48L77.25 42.36Q76.11 37.79 75.99 31.81L75.89 31.71L76.04 31.86Q80.32 23.31 86.87 15.96L86.96 16.05L83.32 17.25Z"/><path d="M15 6 C93 45,54 29,147 28" stroke="#9849e8" fill="none"/><path fill="#6edd8a" d="M122.02 40.21L121.94 40.13L121.93 40.12Q120.21 40.19 118.54 40.76L118.42 40.65L118.54 40.77Q119.05 37.12 119.16 34.00L119.06 33.90L119.19 34.02Q119.13 30.81 118.90 27.15L118.94 27.19L119.01 27.26Q117.66 26.94 116.90 26.56L116.88 26.54L116.46 23.49L116.39 23.42Q117.11 24.03 118.71 24.60L118.86 24.76L118.83 24.72Q118.52 22.51 118.10 19.77L118.19 19.86L118.08 19.74Q120.52 20.59 122.16 20.44L122.10 20.38L122.02 25.02L121.98 24.98Q123.35 24.87 124.69 24.37L124.67 24.36L124.68 24.37Q124.70 25.34 124.47 27.09L124.40 27.02L124.48 27.10Q122.87 27.35 121.84 27.35L121.86 27.38L121.83 27.34Q121.88 29.56 121.88 33.82L121.83 33.77L121.98 33.92Q121.99 38.08 122.06 40.25ZM125.22 23.91L125.18 23.88L125.19 23.89Q124.82 23.90 124.21 24.12L124.35 24.26L124.55 21.30L124.65 21.41Q123.86 21.72 122.46 21.95L122.36 21.86L122.43 21.92Q122.44 21.25 122.59 19.88L122.57 19.86L122.60 19.88Q121.95 19.92 121.38 19.92L121.42 19.96L121.42 19.97Q119.30 19.98 117.66 19.25L117.66 19.25L117.69 19.28Q118.19 21.76 118.45 24.23L118.33 24.11L118.38 24.15Q117.42 23.73 115.90 22.71L116.04 22.84L116.07 22.88Q116.29 24.04 116.51 26.75L116.59 26.82L116.51 26.74Q116.93 26.93 118.11 27.35L118.09 27.34L118.24 27.49Q118.17 28.02 118.21 29.43L118.20 29.43L118.63 29.51L118.74 29.54L118.72 29.53Q118.88 30.86 118.88 32.04L118.83 31.99L118.89 32.05Q118.75 36.86 117.95 41.20L118.10 41.35L118.10 41.35Q118.14 41.08 120.08 40.55L120.19 40.66L120.07 40.54Q120.11 41.23 119.99 42.60L120.12 42.72L120.15 42.76Q120.94 42.67 121.74 42.67L121.59 42.52L121.68 42.61Q123.35 42.56 124.98 43.13L125.02 43.17L124.93 43.08Q123.75 37.53 123.94 29.61L123.79 29.45L126.18 29.06L126.21 29.09Q126.37 28.27 126.45 27.24L126.36 27.15L126.54 25.12L126.68 25.26Q126.05 25.47 124.86 25.92L124.78 25.84L124.79 25.84Q125.22 24.64 125.14 24.30L125.04 24.19L125.17 24.33Q125.06 24.02 125.13 23.83Z"/><path fill="#8363e2" d="M47.44 30.53L47.44 30.53L47.36 30.45Q43.85 36.76 40.42 40.72L40.46 40.76L40.33 40.63Q38.57 41.15 36.13 42.03L36.06 41.96L36.13 42.02Q41.01 36.40 45.77 27.99L45.75 27.97L45.76 27.97Q41.14 20.99 35.16 14.60L35.16 14.59L35.24 14.68Q38.14 15.87 40.43 16.36L40.37 16.30L40.52 16.45Q45.13 21.64 47.57 25.60L47.60 25.63L47.55 25.58Q50.08 21.18 54.00 16.76L53.94 16.70L53.98 16.74Q55.64 16.49 58.83 15.73L58.67 15.56L58.65 15.55Q52.71 22.14 49.25 28.07L49.24 28.07L49.28 28.11Q54.39 36.72 58.77 41.29L58.78 41.30L58.81 41.33Q56.24 40.55 54.15 40.32L54.13 40.30L53.99 40.16Q51.29 37.27 47.37 30.46ZM53.92 40.51L53.89 40.49L53.99 40.58Q54.35 40.68 54.81 40.79L54.79 40.77L54.82 40.80Q55.51 41.46 57.03 43.05L57.12 43.14L56.97 43.00Q60.47 43.94 63.51 45.31L63.38 45.18L63.44 45.24Q56.33 38.66 51.23 29.90L51.24 29.92L51.18 29.85Q54.87 23.15 60.77 16.30L60.83 16.36L60.86 16.39Q59.40 17.02 57.23 17.55L57.16 17.48L57.18 17.51Q58.09 16.62 59.84 14.84L59.92 14.92L59.97 14.96Q57.46 15.73 53.77 16.30L53.87 16.40L53.76 16.30Q50.44 20.20 47.85 24.50L47.82 24.47L47.68 24.34Q46.89 22.86 45.71 21.37L45.71 21.37L43.38 18.40L42.97 18.37L42.95 18.35Q42.81 18.36 42.58 18.28L42.72 18.43L42.64 18.35Q42.04 17.59 40.56 16.03L40.38 15.86L40.49 15.96Q36.63 15.04 34.04 13.67L34.07 13.70L34.03 13.66Q40.82 20.98 45.39 28.03L45.31 27.95L45.35 27.99Q40.86 36.17 35.11 42.75L35.23 42.87L35.10 42.75Q36.45 42.12 38.58 41.55L38.67 41.63L37.36 43.06L37.38 43.08Q37.26 42.96 35.93 44.30L36.01 44.38L36.05 44.41Q38.96 43.26 42.12 42.76L42.17 42.81L42.05 42.69Q46.13 38.24 48.71 33.48L48.80 33.56L48.78 33.54Q51.30 37.74 54.00 40.59Z"/><path fill="#e8ba8c" d="M102.59 21.48L102.55 21.44L102.51 21.40Q100.99 20.18 99.35 19.80L99.33 19.79L99.26 19.71Q98.23 19.52 95.45 19.48L95.46 19.49L95.43 19.46Q90.37 19.54 88.31 21.56L88.22 21.46L88.26 21.51Q86.58 23.02 86.69 26.71L86.65 26.67L86.78 26.80Q86.72 30.39 86.87 31.35L87.05 31.52L86.99 31.46Q88.00 37.49 95.72 37.49L95.75 37.52L95.68 37.45Q100.47 37.55 102.56 35.16L102.59 35.19L102.45 35.05Q104.35 32.88 104.58 28.12L104.62 28.15L104.71 28.24Q104.88 23.35 102.56 21.45ZM95.74 40.52L95.79 40.57L95.67 40.44Q89.24 40.68 86.27 38.32L86.12 38.17L86.25 38.30Q84.19 36.17 84.08 31.10L84.06 31.08L83.98 31.00Q84.07 30.60 83.92 27.33L83.76 27.17L83.90 27.31Q83.61 24.54 83.65 23.48L83.73 23.56L83.80 23.63Q83.94 20.76 85.35 19.05L85.21 18.91L85.34 19.04Q87.80 16.67 92.68 16.52L92.78 16.62L92.64 16.48Q94.46 16.47 95.33 16.51L95.43 16.61L95.37 16.54Q105.38 16.69 107.13 21.03L107.02 20.92L107.11 21.01Q107.93 23.05 107.78 25.79L107.79 25.80L107.77 25.78Q107.78 27.51 107.59 30.78L107.54 30.73L107.48 30.68Q107.30 33.50 106.38 35.55L106.37 35.54L106.39 35.56Q104.37 40.32 95.73 40.51ZM108.09 40.49L108.08 40.49L108.13 40.53Q109.52 38.76 109.63 35.68L109.58 35.62L109.61 35.66Q109.58 34.52 109.54 32.93L109.65 33.03L109.57 32.96Q109.58 32.24 109.54 30.41L109.55 30.42L109.46 30.33Q109.40 23.19 107.46 20.71L107.51 20.77L107.56 20.82Q107.13 19.77 106.02 18.67L105.99 18.63L106.05 18.70Q102.84 16.29 95.38 16.14L95.33 16.08L95.23 15.99Q87.95 15.98 84.90 18.57L84.85 18.51L84.89 18.56Q83.35 20.32 83.35 23.25L83.44 23.35L83.37 23.28Q83.41 24.61 83.56 25.94L83.55 25.93L83.51 25.89Q83.48 26.93 83.52 28.37L83.52 28.37L83.48 28.33Q83.77 32.43 83.92 33.61L83.89 33.58L83.80 33.48Q84.29 36.53 85.62 38.32L85.65 38.35L85.49 38.19Q86.06 39.60 87.13 40.36L87.04 40.27L87.09 40.32Q90.41 42.73 98.18 42.92L98.21 42.95L98.14 42.88Q105.37 42.99 108.03 40.44ZM104.35 28.15L104.43 28.24L104.40 28.20Q104.07 32.63 102.17 34.72L102.32 34.88L102.35 34.91Q100.30 37.19 95.84 37.23L95.83 37.22L95.69 37.08Q91.32 37.08 89.19 35.18L89.22 35.21L89.20 35.20Q88.62 33.70 88.70 30.81L88.52 30.63L88.60 30.71Q88.66 26.05 90.67 23.88L90.79 23.99L90.70 23.91Q92.65 21.67 97.26 21.67L97.43 21.84L97.26 21.67Q101.49 21.71 103.58 23.57L103.70 23.69L103.55 23.55Q104.61 25.52 104.49 28.30Z"/></svg>