<svg xmlns="http://www.w3.org/2000/svg" width="150" height="50" viewBox="0,0,150,50"><rect width="100%" height="100%" fill="white"/><path fill="#64eba8" d="M15.06 15.81L15.14 15.89L15.20 15.95Q17.10 20.83 17.67 26.00L17.65 25.97L17.63 25.95Q21.36 21.85 27.26 17.01L27.14 16.89L27.17 16.92Q30.32 16.57 32.95 15.77L33.03 15.85L26.49 21.50L26.37 21.37Q23.10 24.46 20.25 27.32L20.09 27.16L20.20 27.28Q28.19 36.44 33.26 41.16L33.29 41.20L33.29 41.20Q30.13 40.21 27.81 40.06L27.79 40.04L27.81 40.06Q21.91 34.54 17.61 28.72L17.71 28.82L17.65 28.75Q17.80 35.42 15.94 40.75L15.97 40.78L15.97 40.78Q15.73 40.81 15.23 41.00L15.27 41.03L15.15 41.11L15.20 41.16Q15.07 41.25 12.52 42.17L12.41 42.06L12.40 42.05Q15.38 35.51 15.04 28.05L15.11 28.12L15.01 28.02Q14.75 20.76 11.21 14.25L11.10 14.14L11.79 14.56L12.22 14.88L12.14 14.75L12.10 14.72Q12.98 15.26 15.19 15.94ZM15.31 15.50L15.38 15.56L15.34 15.52Q13.08 14.98 10.46 13.45L10.41 13.41L10.53 13.53Q14.86 20.86 14.86 29.81L14.83 29.78L14.78 29.73Q14.80 36.76 11.83 42.81L11.88 42.86L13.79 41.87L13.85 41.94Q13.47 42.96 12.78 44.26L12.78 44.26L12.84 44.31Q14.90 43.33 16.84 42.91L17.03 43.10L17.09 42.93L17.00 42.84Q17.21 42.74 17.78 42.59L17.80 42.61L17.85 42.66Q19.42 36.66 19.54 31.86L19.55 31.88L19.51 31.83Q21.71 34.45 23.54 36.32L23.62 36.40L23.51 36.29Q24.66 37.36 27.67 40.33L27.68 40.35L27.76 40.43L27.74 40.41Q28.77 41.25 30.64 42.85L30.70 42.91L30.56 42.78Q34.52 43.57 37.98 45.28L37.85 45.15L37.98 45.28Q28.64 36.66 22.40 29.24L22.47 29.31L22.35 29.19Q26.83 25.00 35.59 16.39L35.68 16.49L35.55 16.35Q32.95 17.45 30.94 17.83L30.96 17.85L31.11 18.00Q32.19 16.87 34.51 14.86L34.51 14.86L34.54 14.89Q30.42 16.28 27.07 16.47L27.16 16.57L27.13 16.54Q24.21 18.76 19.34 23.44L19.22 23.32L19.31 23.41Q18.97 20.86 18.40 18.31L18.42 18.34L18.29 18.20Q17.08 18.03 16.09 17.68L16.09 17.68L16.10 17.69Q16.04 17.09 15.47 15.65Z"/><path fill="#e5b789" d="M123.56 39.83L123.61 39.87L121.61 39.82L121.69 39.90Q120.68 39.84 119.73 39.96L119.73 39.96L119.68 39.91Q120.34 33.79 120.34 29.79L120.41 29.86L120.24 29.69Q116.26 23.01 108.61 14.33L108.71 14.43L108.73 14.45Q110.40 15.32 113.75 16.12L113.86 16.23L113.93 16.30Q118.80 21.71 121.81 26.92L121.99 27.10L121.94 27.05Q124.86 21.41 129.24 16.39L129.22 16.36L129.37 16.51Q131.64 15.97 134.15 15.17L134.21 15.23L134.17 15.19Q128.17 21.33 123.30 29.75L123.18 29.62L123.19 29.63Q123.31 36.79 123.61 39.88ZM132.73 17.32L135.45 14.48L135.48 14.51Q132.37 15.67 129.25 16.13L129.08 15.95L129.23 16.11Q124.90 20.72 122.08 25.82L122.05 25.80L122.05 25.80Q119.99 22.20 116.79 18.32L116.87 18.41L116.74 18.28Q116.56 18.36 116.07 18.28L116.10 18.32L116.02 18.24Q115.39 17.50 113.87 15.82L113.84 15.79L113.86 15.81Q110.44 15.02 107.47 13.46L107.56 13.55L107.40 13.39Q115.19 21.94 119.95 29.86L119.91 29.82L119.87 29.78Q119.83 36.17 119.22 40.32L119.24 40.34L119.26 40.36Q119.97 40.31 121.41 40.19L121.54 40.32L121.44 41.25L121.51 41.31Q121.50 41.76 121.42 42.29L121.45 42.33L121.39 42.27Q124.99 42.32 126.74 42.51L126.73 42.51L126.65 42.42Q125.47 37.82 125.36 31.84L125.36 31.84L125.28 31.77Q129.69 23.35 136.24 16.00L136.21 15.96L132.60 17.20Z"/><path fill="#693ee9" d="M68.50 40.43L68.37 40.30L68.54 40.48Q64.27 40.51 63.28 38.19L63.38 38.28L63.39 38.30Q64.22 37.41 65.78 35.62L65.79 35.64L65.75 35.59Q66.23 37.60 69.24 37.71L69.19 37.66L69.16 37.63Q72.51 37.67 74.14 36.34L74.24 36.43L74.14 36.33Q75.63 34.82 75.56 32.11L75.62 32.18L75.56 32.12Q75.49 27.14 70.69 27.36L70.65 27.32L70.66 27.33Q67.75 27.39 65.99 28.64L66.05 28.70L65.77 28.57L65.57 28.45L65.41 28.29Q65.89 25.27 65.78 22.53L65.79 22.54L65.67 22.42Q65.67 19.91 65.33 16.60L65.23 16.50L65.21 16.47Q69.03 17.59 72.84 17.48L72.79 17.44L72.68 17.32Q76.61 17.37 80.19 16.11L80.13 16.06L79.60 17.62L79.65 17.67Q79.19 18.28 79.00 19.11L79.11 19.22L79.04 19.15Q75.88 20.14 72.00 20.14L71.96 20.11L72.08 20.23Q70.63 20.22 69.15 20.07L69.05 19.97L69.07 19.99Q69.13 20.82 68.79 25.27L68.68 25.16L68.63 25.11Q69.62 24.81 71.67 24.65L71.58 24.56L71.59 24.57Q75.25 24.73 76.70 26.40L76.80 26.51L76.78 26.49Q78.21 28.06 78.47 31.91L78.45 31.89L78.41 31.84Q78.78 36.14 77.56 38.16L77.44 38.03L77.52 38.11Q75.35 39.87 72.04 40.10L72.06 40.12L72.16 40.21Q71.14 40.26 68.47 40.41ZM74.40 42.57L74.57 42.74L74.49 42.66Q78.01 42.83 79.92 41.73L79.87 41.68L79.82 41.63Q80.91 40.21 80.91 38.12L80.88 38.08L80.72 37.93Q80.88 35.00 79.93 30.89L79.80 30.76L79.80 30.77Q79.40 28.99 78.18 27.58L78.21 27.61L78.30 27.74L78.04 27.41L77.80 27.31L77.64 27.15Q77.37 26.47 76.72 25.78L76.78 25.84L76.76 25.85L76.80 25.90Q75.30 24.24 71.61 24.24L71.52 24.16L71.33 24.24L71.29 24.20Q71.42 23.68 71.61 22.57L71.48 22.44L71.55 22.52Q76.58 22.66 80.61 21.03L80.64 21.06L80.65 21.07Q81.07 19.66 82.02 16.84L81.88 16.70L79.82 17.68L79.94 17.81Q80.22 16.56 80.71 15.42L80.64 15.35L80.73 15.43Q76.84 16.84 72.73 16.92L72.82 17.01L72.82 17.00Q68.69 17.10 64.73 15.99L64.62 15.88L64.69 15.95Q65.45 20.45 65.45 24.86L65.34 24.75L65.30 24.71Q65.46 26.77 65.34 28.68L65.22 28.55L65.30 28.63Q65.53 28.79 66.10 29.09L66.03 29.02L66.07 29.06Q66.43 28.85 67.07 28.50L67.06 28.49L67.18 28.61Q67.15 29.38 66.93 30.91L66.79 30.77L66.78 30.77Q67.22 30.97 67.64 31.20L67.60 31.17L67.62 31.19Q70.40 29.43 72.27 29.43L72.35 29.51L72.28 29.45Q73.56 29.39 74.74 30.04L74.86 30.16L74.82 30.12Q75.12 31.10 75.16 32.06L75.14 32.04L75.31 32.21Q75.32 34.74 74.30 35.84L74.34 35.89L74.17 35.72Q72.92 37.06 70.68 37.29L70.72 37.33L70.72 37.33Q69.76 37.40 69.08 37.32L69.02 37.27L68.99 37.24Q68.27 37.24 67.51 36.89L67.45 36.84L67.42 36.62L67.35 36.78L67.34 36.76Q66.49 36.22 65.95 34.88L65.93 34.86L66.03 34.96Q64.64 36.31 62.96 38.44L62.97 38.45L62.85 38.33Q63.24 39.06 64.08 40.01L63.99 39.93L64.10 40.04Q65.23 41.92 68.04 42.42L67.99 42.36L68.03 42.41Q69.19 42.61 74.56 42.73Z"/><path d="M4 25 C91 3,64 43,142 28" stroke="#e9c458" fill="none"/><path fill="#e8754e" d="M43.55 30.56L43.70 30.71L43.56 30.58Q43.53 30.54 46.92 30.51L46.97 30.55L46.95 30.54Q49.32 30.62 50.39 30.66L50.39 30.66L50.39 30.66Q49.34 27.78 46.90 22.15L46.89 22.14L46.76 22.01Q46.30 23.52 45.25 26.38L45.14 26.27L45.29 26.42Q44.13 29.16 43.56 30.57ZM51.53 33.18L51.37 33.01L51.44 33.08Q49.10 32.99 46.89 33.03L47.05 33.18L46.96 33.10Q44.65 33.07 42.37 33.26L42.43 33.32L42.48 33.37Q40.89 36.74 37.66 40.92L37.77 41.04L37.61 40.88Q35.06 41.53 33.69 42.02L33.68 42.01L33.80 42.13Q38.90 36.45 43.58 23.09L43.52 23.04L43.48 23.00Q44.71 19.54 46.08 16.31L46.17 16.40L46.16 16.38Q46.40 16.32 46.74 16.32L46.89 16.46L47.50 16.35L47.55 16.40Q48.30 17.76 53.14 29.41L53.16 29.43L53.15 29.42Q56.39 37.24 60.39 41.39L60.42 41.42L60.47 41.46Q59.87 41.25 55.99 40.37L55.99 40.37L56.00 40.38Q53.46 37.28 51.48 33.13ZM55.92 40.72L55.91 40.71L56.57 40.88L56.49 40.80Q56.84 40.92 57.15 41.04L56.98 40.87L57.09 40.98Q57.49 41.41 59.31 43.43L59.26 43.38L59.32 43.44Q62.78 44.16 65.18 45.19L65.15 45.16L65.23 45.24Q59.79 40.75 55.79 32.75L55.83 32.79L55.82 32.78Q54.07 29.36 52.63 25.40L52.63 25.40L49.95 17.96L49.86 17.88Q49.70 18.06 49.47 18.06L49.48 18.06L48.92 18.04L48.97 18.09Q48.55 17.36 47.83 15.99L47.83 16.00L47.84 16.01Q47.36 16.06 46.90 16.02L46.91 16.03L46.95 16.07Q46.39 15.93 45.86 15.93L45.89 15.96L45.88 15.95Q44.39 19.79 40.51 29.95L40.62 30.07L40.54 29.99Q37.37 37.90 32.73 42.69L32.76 42.73L32.73 42.70Q33.79 42.31 35.80 41.70L35.88 41.77L35.76 41.66Q35.06 42.60 33.50 44.38L33.62 44.50L33.53 44.41Q35.21 43.73 39.13 42.97L39.19 43.03L39.22 43.06Q42.59 38.66 44.15 35.43L44.16 35.44L44.10 35.37Q45.95 35.36 48.27 35.40L48.27 35.40L48.18 35.30Q50.97 35.39 52.34 35.46L52.35 35.48L52.36 35.49Q53.55 37.78 55.91 40.71ZM48.24 26.07L48.18 26.01L48.19 26.02Q49.12 28.17 49.88 30.26L49.92 30.31L46.48 30.18L46.53 30.23Q47.08 28.76 48.14 25.98Z"/><path fill="#e669a8" d="M105.97 34.76L106.00 34.79L105.98 34.77Q105.91 38.28 102.75 39.57L102.73 39.55L102.67 39.50Q100.79 40.31 96.37 40.46L96.39 40.49L96.53 40.62Q91.63 40.63 89.38 39.45L89.34 39.41L89.43 39.50Q87.65 38.26 87.81 34.91L87.68 34.78L87.77 34.87Q87.74 34.19 87.93 32.21L87.91 32.19L88.01 32.29Q88.12 30.69 88.12 29.70L88.15 29.73L88.07 29.65Q88.15 21.73 83.96 14.31L83.80 14.15L83.96 14.31Q85.06 14.91 88.03 15.98L87.91 15.86L88.01 15.96Q90.96 22.75 90.96 30.14L90.83 30.01L90.93 30.11Q90.80 30.59 90.70 31.77L90.74 31.80L90.86 31.92Q90.77 33.12 90.77 33.73L90.64 33.59L90.63 33.59Q90.62 35.86 92.18 36.85L92.20 36.86L92.29 36.95Q93.81 37.63 96.78 37.63L96.83 37.69L96.89 37.75Q99.46 37.69 101.10 36.51L101.09 36.51L101.08 36.49Q103.01 35.23 102.86 32.72L102.92 32.77L102.92 32.77Q102.74 31.30 102.74 29.97L102.81 30.04L102.71 29.94Q102.71 22.90 105.11 16.39L105.06 16.34L107.29 15.82L107.20 15.74Q108.27 15.55 109.37 15.09L109.39 15.11L109.43 15.15Q105.70 22.27 105.70 29.84L105.62 29.77L105.60 29.75Q105.75 30.73 105.88 32.37L105.84 32.33L105.77 32.26Q105.88 33.87 105.88 34.67ZM108.13 35.66L108.10 35.63L107.95 35.49Q107.22 30.68 107.95 25.58L107.84 25.47L107.90 25.53Q108.75 20.45 111.15 16.07L111.04 15.96L111.15 16.07Q110.46 16.30 109.02 16.94L108.98 16.90L108.90 16.82Q109.28 15.99 110.08 14.43L110.21 14.55L110.17 14.52Q106.65 15.68 104.75 16.02L104.79 16.06L104.79 16.07Q102.51 22.66 102.51 29.93L102.38 29.80L102.37 29.79Q102.37 31.16 102.45 32.57L102.43 32.55L102.57 32.69Q102.67 35.04 100.88 36.25L100.80 36.17L100.87 36.25Q99.32 37.25 96.81 37.28L96.78 37.25L96.84 37.32Q94.11 37.41 92.67 36.65L92.60 36.58L92.55 36.53Q92.46 36.02 92.39 35.57L92.41 35.59L92.45 35.63Q92.46 35.18 92.57 34.68L92.63 34.74L92.54 34.65Q92.88 32.45 92.88 30.12L92.80 30.04L92.73 29.97Q92.84 24.25 91.32 18.35L91.20 18.24L91.21 18.24Q90.62 18.27 89.21 17.92L89.18 17.90L89.17 17.89Q88.70 16.50 88.24 15.58L88.27 15.61L88.20 15.54Q85.56 14.85 83.17 13.48L83.08 13.40L83.24 13.55Q87.79 21.07 87.79 29.79L87.83 29.83L87.81 29.81Q87.79 31.43 87.64 33.14L87.65 33.16L87.51 33.01Q87.29 35.42 87.37 36.60L87.54 36.77L87.44 36.67Q87.62 38.64 88.88 39.79L88.88 39.78L88.82 39.73Q89.84 42.24 94.49 42.62L94.45 42.58L94.50 42.62Q96.69 42.88 98.82 42.95L98.66 42.79L98.73 42.86Q104.00 42.96 106.78 42.00L106.96 42.18L106.92 42.14Q108.44 41.19 108.44 39.14L108.43 39.12L108.53 39.22Q108.57 38.12 108.12 35.65Z"/></svg>