<svg xmlns="http://www.w3.org/2000/svg" width="150" height="50" viewBox="0,0,150,50"><rect width="100%" height="100%" fill="white"/><path fill="#87e29e" d="M65.01 47.15L65.00 47.14L64.98 47.12Q64.08 47.37 62.18 47.67L62.16 47.65L62.06 47.55Q63.45 45.47 64.47 44.18L64.38 44.09L64.40 44.11Q66.18 44.43 66.33 44.43L66.24 44.34L66.22 44.32Q66.71 44.59 67.24 44.47L67.15 44.38L67.21 44.44Q67.75 44.22 67.94 44.22L67.96 44.24L68.07 44.35Q70.58 44.04 70.50 41.87L70.43 41.80L70.52 41.89Q70.55 40.47 70.44 34.23L70.31 34.10L70.27 34.06Q70.32 30.61 70.40 26.46L70.40 26.47L71.84 26.30L71.78 26.24Q72.53 26.23 73.21 26.00L73.10 25.89L73.08 25.87Q72.81 30.24 72.85 34.62L73.02 34.79L73.02 34.79Q73.03 39.14 73.56 43.52L73.55 43.51L73.47 43.43Q73.63 43.82 73.63 44.09L73.60 44.05L73.57 44.02Q73.50 45.59 71.82 45.97L71.94 46.08L71.97 46.11Q68.85 46.49 65.00 47.14ZM71.78 22.93L69.50 19.66L69.53 19.70Q70.59 18.32 72.42 15.54L72.38 15.50L72.37 15.49Q73.14 16.49 74.47 18.31L74.52 18.36L71.63 22.78ZM74.81 49.56L74.68 49.43L74.64 49.39Q75.18 49.44 75.94 49.10L75.92 49.08L76.03 49.19Q76.44 48.57 76.44 48.12L76.29 47.97L76.33 48.00Q76.41 47.74 76.29 47.13L76.14 46.98L76.20 47.03Q74.82 40.59 74.82 32.67L74.87 32.73L74.79 32.64Q74.83 29.83 74.98 26.93L74.99 26.94L75.01 26.97Q74.51 27.19 73.37 27.49L73.41 27.53L73.33 27.45Q73.38 27.01 73.42 26.48L73.42 26.47L73.46 25.33L73.58 25.45Q71.89 26.13 70.10 26.16L70.09 26.15L69.97 26.03Q69.83 30.27 69.86 33.85L69.90 33.88L70.15 41.86L70.03 41.74Q70.26 43.88 68.09 43.99L68.00 43.90L67.99 43.89Q67.89 44.01 67.37 44.07L67.26 43.96L67.32 44.02Q66.77 44.04 66.51 44.04L66.56 44.09L66.53 44.06Q66.01 44.00 64.45 43.58L64.36 43.49L64.46 43.59Q63.97 44.17 62.87 45.85L62.85 45.83L61.45 48.27L61.38 48.20Q62.32 48.08 63.96 47.70L63.91 47.65L63.32 48.24L62.81 48.91L62.91 49.01Q65.17 48.83 66.50 48.91L66.49 48.90L66.58 48.98Q68.78 49.05 74.72 49.47ZM71.70 23.61L71.62 23.53L72.09 23.13L72.07 23.10Q72.33 23.44 73.28 25.04L73.38 25.15L73.29 25.06Q74.83 21.95 76.39 18.86L76.39 18.86L76.41 18.88Q75.37 17.23 74.42 15.94L74.41 15.93L74.43 15.95Q74.32 16.26 73.98 16.80L73.97 16.79L73.94 16.75Q73.54 16.13 72.55 14.84L72.56 14.85L72.59 14.87Q71.35 16.41 69.03 19.76L69.01 19.75L68.95 19.69Q70.00 21.04 71.71 23.63Z"/><path fill="#e0e06f" d="M117.08 40.30L117.07 40.29L117.21 40.42Q115.67 40.37 114.11 39.95L114.18 40.03L114.17 40.01Q113.04 39.19 112.89 37.55L112.86 37.52L112.77 37.43Q112.78 37.28 112.97 34.66L112.92 34.61L112.98 34.67Q113.94 34.41 115.96 34.03L116.08 34.16L115.79 34.82L115.85 34.87Q115.59 36.63 117.00 37.20L116.85 37.06L117.01 37.22Q117.64 37.39 119.73 37.39L119.77 37.43L119.85 37.51Q121.50 37.41 121.69 37.33L121.64 37.28L121.70 37.34Q122.62 37.19 123.34 36.69L123.31 36.67L123.25 36.60Q124.61 35.61 124.42 33.51L124.49 33.58L124.50 33.59Q124.24 31.09 122.51 29.53L122.58 29.59L122.64 29.66Q120.84 28.02 118.36 28.02L118.38 28.04L118.32 27.75L118.37 27.80Q118.63 27.65 119.51 27.57L119.59 27.65L119.56 27.62Q121.44 27.48 122.81 26.25L122.88 26.32L122.79 26.23Q124.26 25.09 124.42 23.23L124.35 23.16L124.47 23.29Q124.38 22.78 124.38 22.43L124.49 22.54L124.47 22.52Q124.46 20.99 123.09 20.07L123.18 20.16L123.15 20.14Q121.91 19.31 120.31 19.43L120.33 19.44L120.28 19.39Q118.91 19.17 117.69 19.59L117.84 19.73L117.74 19.64Q116.23 20.11 115.93 21.25L116.06 21.38L115.97 21.30Q115.80 22.08 115.88 22.84L115.82 22.78L115.93 22.89Q114.88 22.64 112.83 21.92L112.86 21.95L112.91 22.00Q112.67 20.31 112.70 19.47L112.73 19.50L112.59 19.36Q112.65 17.78 113.72 17.10L113.82 17.20L113.82 17.20Q115.24 16.61 116.84 16.61L116.83 16.59L116.82 16.58Q119.92 16.49 123.08 16.75L123.23 16.90L123.12 16.79Q128.13 17.16 127.83 20.93L127.82 20.92L127.96 21.06Q127.91 22.57 127.41 24.13L127.29 24.00L127.43 24.14Q126.38 27.09 124.02 28.01L123.97 27.96L124.11 28.10Q126.61 28.51 127.22 31.86L127.32 31.96L127.29 31.93Q127.51 33.06 127.59 35.08L127.62 35.11L127.55 35.04Q127.80 39.59 123.19 40.05L123.14 40.00L123.16 40.02Q122.40 40.06 117.11 40.33ZM122.34 42.58L122.41 42.65L122.33 42.58Q123.01 42.69 125.87 42.76L125.82 42.71L125.83 42.73Q127.58 42.80 129.22 42.16L129.27 42.20L129.25 42.18Q130.42 41.22 130.23 39.47L130.22 39.46L130.23 39.47Q130.09 38.12 129.79 36.37L129.71 36.29L129.78 36.36Q129.06 31.87 127.12 30.23L127.12 30.23L127.01 29.93L126.79 29.68L126.82 29.71Q128.58 28.27 129.34 23.89L129.48 24.02L129.44 23.99Q129.46 23.51 129.57 22.56L129.59 22.57L129.45 22.44Q129.62 21.77 129.54 21.08L129.56 21.10L129.62 21.16Q129.44 19.46 128.14 18.77L128.11 18.74L127.92 18.62L127.99 18.69Q127.69 17.71 126.55 17.18L126.65 17.27L126.59 17.22Q125.08 16.54 119.94 16.24L119.92 16.22L119.84 16.14Q118.25 16.15 116.66 16.15L116.54 16.04L116.60 16.09Q115.01 16.11 113.49 16.75L113.53 16.79L113.49 16.76Q112.38 17.63 112.38 19.38L112.36 19.35L112.23 19.23Q112.28 18.86 112.55 22.21L112.65 22.31L112.60 22.27Q112.90 22.34 114.54 22.95L114.51 22.92L114.44 22.85Q114.55 23.49 114.51 23.98L114.44 23.91L114.45 23.92Q114.38 24.35 114.42 24.88L114.47 24.93L114.56 25.03Q116.28 25.33 118.30 25.45L118.22 25.37L118.24 25.38Q118.29 23.50 119.40 22.66L119.24 22.51L119.40 22.67Q120.24 22.02 122.26 21.79L122.25 21.78L122.20 21.73Q123.37 21.77 123.94 21.96L123.90 21.91L123.86 21.87Q123.89 21.98 123.93 22.09L124.00 22.17L124.06 22.41L124.11 22.93L124.13 22.94Q124.05 23.05 124.01 23.21L123.99 23.19L124.01 23.20Q123.88 24.86 122.36 26.04L122.48 26.16L122.55 26.23Q121.53 27.05 119.52 27.24L119.54 27.26L119.49 27.21Q118.86 27.46 117.99 27.46L117.86 27.33L117.94 27.42Q117.89 27.67 118.04 28.35L118.08 28.38L118.21 28.52Q119.89 28.45 121.34 29.17L121.33 29.17L121.27 29.22L119.72 29.42L119.61 29.31Q119.75 29.76 119.87 30.36L119.75 30.25L119.77 30.27Q122.01 30.30 123.72 31.63L123.58 31.49L123.74 31.65Q123.93 31.99 124.23 33.63L124.10 33.49L124.19 33.59Q124.38 36.52 121.45 36.93L121.39 36.87L121.42 36.91Q119.33 37.18 118.76 37.14L118.85 37.23L118.78 37.16Q118.28 37.01 117.75 36.93L117.71 36.89L117.82 36.54L117.85 36.00L117.86 35.59L118.00 35.39L117.89 35.28Q116.99 35.41 116.19 35.60L116.14 35.55L116.17 35.57Q116.13 35.34 116.13 35.15L116.22 35.25L116.14 35.17Q116.20 35.00 116.20 34.77L116.24 34.81L116.20 34.76Q116.32 34.44 116.48 33.71L116.47 33.71L116.49 33.73Q114.53 33.86 112.67 34.21L112.67 34.21L112.77 34.30Q112.65 34.68 112.53 35.80L112.54 35.81L112.65 35.92Q112.42 36.93 112.42 37.54L112.36 37.47L112.36 37.47Q112.51 39.60 113.88 40.37L113.93 40.41L113.94 40.43Q115.42 42.70 120.14 42.51L120.08 42.46L120.00 42.38Q120.85 42.46 122.37 42.61Z"/><path d="M4 37 C67 42,82 7,147 43" stroke="#e54c72" fill="none"/><path fill="#49d46c" d="M24.18 32.15L14.88 22.09L15.03 22.24Q15.77 25.83 15.77 29.56L15.87 29.66L15.71 29.50Q15.76 35.53 13.71 41.09L13.70 41.08L13.74 41.13Q12.61 41.33 10.36 42.09L10.41 42.13L10.43 42.15Q13.32 36.44 13.32 29.74L13.20 29.62L13.20 29.61Q13.20 20.98 8.71 13.56L8.82 13.66L8.72 13.57Q9.15 13.73 9.83 14.15L9.80 14.11L9.75 14.06Q21.99 25.43 29.84 34.68L29.82 34.67L29.71 34.55Q29.57 32.28 29.57 29.84L29.39 29.67L29.49 29.77Q29.45 22.49 31.96 16.29L31.91 16.24L31.92 16.24Q34.30 15.77 35.90 15.09L36.00 15.18L35.94 15.13Q32.58 21.24 32.27 28.40L32.20 28.33L32.28 28.41Q31.90 35.68 34.87 41.85L34.92 41.90L34.94 41.92Q34.36 41.83 33.94 41.64L34.06 41.76L34.02 41.72Q29.32 37.63 24.10 32.07L24.27 32.23ZM37.58 45.13L37.54 45.08L37.60 45.15Q38.03 45.27 38.45 45.46L38.42 45.43L39.43 45.95L39.34 45.86Q34.16 38.89 34.16 29.52L34.15 29.51L34.09 29.45Q34.21 22.34 37.52 16.09L37.58 16.15L37.48 16.05Q36.84 16.29 35.43 16.90L35.39 16.86L35.44 16.91Q35.83 16.08 36.67 14.52L36.63 14.48L36.61 14.46Q34.08 15.28 31.64 15.85L31.81 16.02L31.81 16.02Q29.02 22.33 29.02 29.75L29.13 29.87L29.12 29.85Q29.09 31.69 29.28 33.67L29.25 33.64L29.23 33.62Q24.65 28.01 19.90 23.41L19.87 23.38L9.79 13.68L9.89 13.78Q9.24 13.40 8.02 12.83L8.01 12.82L7.95 12.75Q12.96 20.62 12.96 29.72L12.91 29.67L12.91 29.67Q12.84 36.72 9.75 42.73L9.87 42.85L9.76 42.73Q10.07 42.63 11.71 42.02L11.67 41.99L11.78 42.10Q11.37 42.79 10.53 44.27L10.67 44.41L10.54 44.28Q12.01 43.89 15.48 43.09L15.49 43.10L15.33 42.94Q17.69 36.84 17.69 29.65L17.81 29.77L17.78 29.75Q17.80 27.67 17.57 25.54L17.56 25.53L17.52 25.48Q28.93 38.23 37.54 45.08Z"/><path fill="#9ee886" d="M47.66 18.51L47.58 18.43L47.59 18.44Q46.95 18.91 46.80 19.71L46.65 19.56L46.72 24.77L46.71 24.76Q47.95 24.85 50.15 24.58L50.16 24.59L50.15 24.58Q50.11 25.00 50.08 25.84L50.08 25.84L50.10 25.86Q50.08 26.64 50.08 27.09L49.92 26.93L48.34 27.03L48.33 27.02Q47.59 27.16 46.72 27.16L46.63 27.08L46.75 27.20Q46.63 31.26 46.56 39.64L46.60 39.69L46.62 39.70Q44.42 39.78 42.93 40.47L42.98 40.52L42.92 40.46Q43.97 34.28 43.86 27.04L43.86 27.05L43.89 27.07Q43.29 27.09 42.00 26.82L42.05 26.87L41.95 26.77Q41.87 25.70 41.68 23.76L41.80 23.88L41.84 23.92Q42.94 24.41 43.89 24.60L43.81 24.52L43.75 24.46Q43.89 23.99 43.58 21.51L43.46 21.39L43.43 21.36Q43.28 19.39 43.28 18.44L43.25 18.40L43.30 18.45Q43.25 16.73 44.66 16.16L44.71 16.21L44.61 16.10Q45.55 15.87 50.39 15.03L50.31 14.96L50.26 14.90Q51.21 14.91 52.05 14.79L52.07 14.81L51.97 14.71Q51.71 15.44 51.56 16.32L51.57 16.33L51.34 17.97L51.24 17.86Q50.61 17.73 50.12 17.85L50.22 17.95L50.17 17.90Q49.50 17.84 47.59 18.44ZM53.11 19.66L53.07 19.62L53.08 19.63Q53.38 17.37 53.99 14.82L54.06 14.90L53.94 14.78Q53.39 15.18 52.10 15.79L52.18 15.88L52.49 14.09L52.45 14.05Q51.27 14.28 48.80 14.81L48.70 14.71L48.77 14.79Q47.67 14.95 44.48 15.86L44.38 15.76L44.48 15.86Q42.83 16.19 42.83 18.05L42.81 18.04L42.77 18.00Q42.88 18.41 42.96 18.76L42.82 18.62L42.99 18.79Q43.22 20.12 43.33 21.45L43.27 21.39L43.55 24.14L43.52 24.12Q42.00 23.58 41.35 23.13L41.38 23.15L41.36 23.13Q41.65 24.26 41.68 25.29L41.52 25.12L41.79 27.26L41.78 27.25Q42.39 27.32 43.19 27.40L43.21 27.42L43.30 29.61L43.52 29.45L43.53 29.46Q43.46 35.63 42.47 41.07L42.41 41.01L42.54 41.15Q43.48 40.60 44.66 40.34L44.76 40.43L44.46 42.38L44.57 42.49Q45.80 42.20 47.10 42.16L47.03 42.09L47.01 42.07Q48.25 42.06 49.51 42.33L49.57 42.39L49.55 42.37Q48.74 37.40 48.74 29.45L48.70 29.41L48.58 29.29Q49.75 29.35 51.84 29.43L51.91 29.50L51.86 27.58L51.84 27.56Q51.84 26.61 51.88 25.66L51.82 25.60L51.92 25.70Q51.31 25.67 50.25 25.93L50.30 25.99L50.34 26.02Q50.30 25.30 50.42 23.97L50.49 24.05L50.47 24.03Q49.69 24.31 48.89 24.39L48.75 24.24L48.72 24.22Q48.77 22.85 48.88 21.45L48.86 21.42L48.95 21.51Q49.18 20.95 49.72 20.60L49.71 20.59L49.60 20.49Q50.66 19.91 51.48 19.84L51.35 19.70L51.38 19.74Q52.16 19.62 53.00 19.55Z"/><path fill="#e6e692" d="M97.98 20.12L98.02 20.16L98.05 20.19Q93.62 20.07 89.93 19.08L89.94 19.09L89.95 19.10Q91.53 23.73 91.72 28.56L91.70 28.54L91.59 28.43Q91.77 33.22 90.55 37.82L90.59 37.86L90.72 37.99Q93.51 37.35 97.01 37.20L96.92 37.12L97.04 37.23Q100.87 36.95 102.66 34.51L102.64 34.49L102.66 34.52Q104.15 32.43 104.34 28.32L104.43 28.40L104.41 28.39Q104.41 26.56 103.96 24.85L104.01 24.90L103.99 24.88Q102.70 20.13 97.98 20.13ZM86.01 42.07L86.01 42.07L86.13 42.20Q89.05 36.55 89.05 29.85L89.01 29.81L88.89 29.69Q88.93 21.20 84.62 14.19L84.69 14.26L84.68 14.25Q89.87 16.85 98.13 17.04L98.15 17.06L98.18 17.09Q107.11 17.34 107.46 24.50L107.31 24.36L107.41 24.46Q107.51 27.14 107.47 28.59L107.43 28.55L107.53 28.65Q107.39 33.27 106.55 35.44L106.52 35.40L106.54 35.42Q106.05 36.45 105.28 37.29L105.28 37.28L105.38 37.39Q103.92 38.82 101.29 39.31L101.37 39.39L101.32 39.34Q99.87 39.76 96.86 39.99L96.80 39.92L96.74 39.86Q90.77 40.48 86.16 42.23ZM103.95 41.97L104.05 42.07L104.06 42.08Q106.66 41.60 108.30 40.11L108.40 40.21L108.44 40.26Q109.57 38.41 109.53 35.67L109.52 35.67L109.54 35.68Q109.48 34.25 109.32 30.75L109.36 30.78L108.93 26.16L109.02 26.25Q108.92 24.06 107.97 21.97L107.89 21.89L107.86 21.86Q107.34 20.92 106.65 20.27L106.64 20.26L106.68 20.14L106.57 20.03Q104.99 17.20 100.58 16.82L100.53 16.77L100.55 16.79Q97.78 16.57 90.77 15.85L90.79 15.86L90.80 15.88Q87.52 15.41 83.83 13.40L83.82 13.39L83.80 13.37Q88.73 20.85 88.73 29.61L88.80 29.67L88.70 29.58Q88.64 36.52 85.29 42.68L85.42 42.82L85.43 42.82Q85.99 42.44 87.33 41.94L87.38 42.00L87.49 42.11Q87.15 42.95 86.27 44.43L86.13 44.29L86.10 44.26Q89.18 43.22 92.53 42.73L92.61 42.81L92.64 42.85Q94.73 42.53 98.38 42.42L98.28 42.32L98.34 42.37Q102.18 42.22 104.01 42.03ZM104.10 28.46L103.94 28.29L103.96 28.31Q103.62 36.35 96.92 36.73L96.90 36.71L96.99 36.80Q95.00 36.87 92.95 37.13L92.99 37.18L92.86 37.05Q93.77 33.39 93.77 29.73L93.76 29.73L93.62 29.58Q93.74 26.01 93.02 22.17L92.91 22.06L92.91 22.06Q95.14 22.38 99.82 22.38L99.80 22.37L99.95 22.52Q101.30 22.34 102.93 23.29L102.83 23.19L102.86 23.22Q104.10 25.44 103.94 28.30Z"/></svg>