<svg xmlns="http://www.w3.org/2000/svg" width="150" height="50" viewBox="0,0,150,50"><rect width="100%" height="100%" fill="white"/><path d="M18 22 C68 38,78 36,130 20" stroke="#8ab7e4" fill="none"/><path fill="#ea9b4c" d="M21.01 29.79L21.03 29.81L21.06 29.84Q20.75 29.76 20.44 29.76L20.53 29.85L20.46 29.78Q19.12 29.77 17.68 30.61L17.83 30.76L17.64 30.57Q16.40 31.77 16.40 33.68L16.39 33.66L16.48 33.75Q16.50 37.20 18.02 38.53L18.03 38.54L17.90 38.41Q18.79 39.53 21.07 39.53L21.16 39.61L21.10 39.56Q21.38 39.60 21.68 39.60L21.65 39.57L21.65 39.57Q23.45 39.66 24.59 38.02L24.63 38.06L24.59 38.02Q25.68 36.55 25.60 34.76L25.51 34.68L25.59 34.76Q25.57 34.21 25.57 33.79L25.54 33.76L25.55 33.76Q25.65 32.08 24.28 30.92L24.17 30.80L24.26 30.89Q22.83 29.67 21.04 29.83ZM25.63 40.09L25.52 39.98L25.62 40.08Q24.62 42.01 20.89 42.12L20.84 42.08L20.88 42.11Q17.39 42.12 15.79 40.52L15.80 40.54L15.86 40.60Q14.38 38.81 13.58 34.02L13.52 33.95L13.51 33.94Q13.34 32.32 13.34 31.07L13.27 31.00L13.19 30.92Q13.33 29.27 14.05 28.20L14.11 28.26L13.93 28.08Q15.28 26.69 18.25 26.69L18.42 26.86L18.26 26.71Q24.70 26.83 26.61 29.42L26.57 29.38L26.55 29.36Q26.79 28.60 27.20 27.00L27.18 26.98L27.27 27.07Q28.39 26.63 30.83 25.83L30.92 25.92L30.87 25.88Q28.47 31.54 28.24 37.86L28.28 37.90L28.15 37.78Q28.00 44.01 30.13 49.84L30.21 49.92L30.05 49.76Q28.48 49.30 26.69 49.03L26.59 48.92L26.55 48.88Q25.77 45.06 25.66 40.11ZM26.29 49.20L26.34 49.24L26.43 49.34Q27.10 49.43 28.51 49.74L28.47 49.71L28.55 49.78Q28.64 50.37 29.21 51.78L29.25 51.81L29.29 51.86Q31.81 52.51 34.10 53.81L34.16 53.87L34.15 53.86Q30.19 47.35 30.19 38.82L30.03 38.66L30.04 38.68Q30.10 32.37 32.57 26.59L32.57 26.58L32.66 26.68Q31.97 26.97 30.60 27.62L30.46 27.48L30.55 27.57Q30.84 26.76 31.49 25.20L31.46 25.16L31.41 25.12Q29.98 25.78 26.78 26.66L26.77 26.65L26.76 26.64Q26.67 27.23 26.37 28.41L26.29 28.34L26.42 28.47Q24.39 26.55 18.26 26.40L18.21 26.35L18.12 26.26Q15.09 26.35 13.72 27.84L13.71 27.83L13.60 27.72Q12.79 28.81 12.83 30.71L12.90 30.78L12.87 30.76Q13.01 33.79 14.00 37.56L13.92 37.47L14.04 37.59Q14.67 39.98 15.58 40.93L15.49 40.84L16.03 41.37L15.93 41.27Q17.12 44.07 22.57 44.30L22.60 44.33L22.61 44.33Q23.66 44.40 25.48 44.09L25.35 43.95L25.45 44.06Q25.64 46.87 26.25 49.16ZM22.87 32.07L22.89 32.09L23.01 32.21Q24.14 32.28 24.98 32.58L24.97 32.57L24.86 32.46Q25.12 33.07 25.24 33.68L25.27 33.71L25.20 33.64Q25.30 34.20 25.23 34.81L25.18 34.77L25.19 34.77Q25.25 36.74 24.22 38.03L24.21 38.02L24.23 38.04Q23.09 39.49 21.23 39.30L21.16 39.23L21.26 39.34Q19.92 39.29 18.97 38.87L18.94 38.84L18.86 38.76Q18.61 38.05 18.61 36.83L18.59 36.82L18.53 36.76Q18.53 36.45 18.53 36.15L18.61 36.23L18.58 36.20Q18.53 34.40 19.87 33.24L19.85 33.22L19.89 33.26Q21.26 32.14 23.01 32.21Z"/><path fill="#466de1" d="M96.99 18.51L97.01 18.53L96.95 18.46Q96.27 18.89 96.12 19.69L95.97 19.54L96.15 24.86L96.14 24.85Q97.18 24.75 99.39 24.48L99.31 24.41L99.49 24.59Q99.47 25.02 99.43 25.86L99.37 25.80L99.27 25.70Q99.29 26.52 99.29 26.97L99.36 27.05L97.65 27.01L97.82 27.18Q96.86 27.09 95.98 27.09L96.00 27.11L96.03 27.14Q96.07 31.37 95.99 39.74L96.01 39.76L95.91 39.66Q93.72 39.75 92.23 40.44L92.28 40.48L92.34 40.54Q93.39 34.37 93.28 27.13L93.19 27.05L93.21 27.07Q92.63 27.09 91.33 26.82L91.32 26.81L91.36 26.85Q91.20 25.70 91.01 23.76L91.07 23.82L91.16 23.91Q92.22 24.36 93.17 24.55L93.09 24.47L93.24 24.61Q93.04 23.81 92.74 21.34L92.80 21.40L92.81 21.41Q92.57 19.34 92.57 18.39L92.69 18.51L92.57 18.39Q92.65 16.79 94.06 16.22L93.93 16.09L94.08 16.24Q94.86 15.84 99.69 15.00L99.63 14.94L99.61 14.93Q100.39 14.75 101.23 14.64L101.31 14.72L101.32 14.72Q101.12 15.52 100.97 16.40L100.85 16.27L100.66 17.96L100.70 17.99Q100.06 17.85 99.57 17.96L99.43 17.82L99.58 17.98Q98.75 17.76 96.85 18.37ZM102.32 19.53L102.45 19.66L102.28 19.50Q102.82 17.48 103.43 14.93L103.41 14.92L103.38 14.88Q102.65 15.11 101.35 15.71L101.49 15.85L101.83 14.10L101.78 14.05Q100.59 14.27 98.12 14.80L98.14 14.83L98.18 14.86Q96.91 14.85 93.71 15.76L93.76 15.81L93.82 15.87Q92.20 16.23 92.20 18.09L92.18 18.07L92.17 18.06Q92.24 18.44 92.32 18.78L92.31 18.78L92.26 18.73Q92.44 20.01 92.56 21.35L92.58 21.37L92.80 24.06L92.78 24.04Q91.35 23.60 90.70 23.14L90.79 23.23L90.80 23.24Q90.89 24.17 90.93 25.20L90.83 25.10L90.95 27.09L90.96 27.09Q91.76 27.37 92.56 27.44L92.63 27.51L92.66 29.63L92.86 29.46L92.99 29.59Q92.87 35.70 91.88 41.15L91.85 41.12L91.77 41.04Q92.92 40.71 94.10 40.44L93.95 40.29L93.90 42.48L93.85 42.43Q94.97 42.04 96.27 42.00L96.38 42.11L96.33 42.06Q97.52 41.99 98.78 42.26L98.82 42.31L98.92 42.40Q97.92 37.25 97.92 29.29L97.94 29.32L97.94 29.31Q99.06 29.33 101.15 29.41L101.17 29.42L101.20 27.59L101.24 27.63Q101.12 26.55 101.15 25.60L101.19 25.64L101.25 25.70Q100.65 25.67 99.58 25.93L99.65 26.00L99.63 25.99Q99.70 25.37 99.81 24.03L99.82 24.04L99.86 24.08Q98.96 24.25 98.16 24.32L98.09 24.25L98.21 24.37Q98.20 22.95 98.31 21.54L98.27 21.50L98.22 21.45Q98.50 20.93 99.03 20.59L98.89 20.44L99.03 20.59Q99.87 19.79 100.69 19.71L100.70 19.72L100.70 19.72Q101.46 19.59 102.30 19.52Z"/><path fill="#d0ea84" d="M43.23 33.25L43.21 33.22L43.30 33.32Q43.19 36.18 42.01 40.82L42.02 40.83L41.97 40.78Q40.12 41.25 38.52 42.05L38.48 42.02L38.47 42.01Q41.13 35.03 40.86 27.61L40.88 27.63L41.00 27.75Q40.59 20.21 37.50 13.47L37.51 13.48L37.55 13.52Q39.48 14.77 41.35 15.34L41.28 15.27L41.32 15.31Q43.56 22.38 43.56 29.04L43.41 28.90L43.51 28.99Q43.60 30.54 43.53 32.02L43.47 31.97L43.40 31.90Q44.54 30.67 49.75 25.72L49.84 25.81L49.74 25.71Q50.95 25.82 51.94 25.74L51.85 25.65L54.02 25.58L54.02 25.57Q50.79 28.51 46.49 32.28L46.52 32.31L46.44 32.23Q49.85 35.03 56.32 40.86L56.38 40.92L56.37 40.91Q53.62 39.98 50.65 39.79L50.60 39.75L50.73 39.87Q48.13 37.70 43.26 33.28ZM53.23 42.53L53.26 42.55L53.13 42.43Q57.83 43.25 60.96 45.19L61.03 45.26L61.06 45.29Q59.76 43.88 57.13 41.48L57.13 41.48L57.13 41.48Q57.52 41.72 57.79 41.83L57.73 41.78L57.65 41.69Q55.67 39.79 53.42 37.88L53.28 37.75L49.03 34.03L49.00 33.99Q53.96 29.78 56.40 26.89L56.34 26.83L56.38 26.87Q55.06 26.84 52.58 27.11L52.65 27.17L52.72 27.25Q54.20 25.68 54.89 24.84L54.94 24.90L54.87 24.82Q52.16 25.39 49.69 25.39L49.71 25.42L49.61 25.31Q48.20 26.61 45.46 29.28L45.49 29.30L45.55 29.36Q45.45 23.47 44.46 17.65L44.52 17.71L44.60 17.79Q43.87 17.60 42.39 17.33L42.28 17.23L42.28 17.23Q42.27 16.64 41.81 15.16L41.76 15.11L41.67 15.02Q39.14 14.31 36.89 12.75L36.89 12.75L36.79 12.64Q40.27 19.52 40.62 27.63L40.54 27.55L40.58 27.59Q41.04 35.63 38.03 42.86L37.91 42.74L38.05 42.87Q38.73 42.57 40.07 41.93L39.99 41.85L40.06 41.91Q39.68 42.61 39.04 44.06L39.06 44.08L39.02 44.03Q41.99 43.09 44.12 42.71L43.98 42.56L44.11 42.70Q44.69 40.19 45.19 35.93L45.10 35.84L45.02 35.77Q47.68 38.08 53.13 42.42Z"/><path fill="#ab98e6" d="M120.39 29.16L120.40 29.17L120.39 29.16Q118.48 29.11 117.26 30.44L117.36 30.54L117.24 30.43Q116.12 31.86 115.97 33.76L116.05 33.84L115.94 33.73Q115.79 35.90 117.01 36.91L116.95 36.85L117.03 36.93Q118.27 37.96 120.40 37.88L120.37 37.85L120.26 37.74Q122.66 37.67 123.62 36.72L123.52 36.63L123.66 36.76Q124.74 35.38 124.63 33.55L124.45 33.37L124.48 33.39Q124.40 31.57 123.32 30.37L123.33 30.38L123.35 30.41Q122.20 29.14 120.37 29.14ZM120.46 19.83L120.33 19.69L120.38 19.75Q118.98 19.64 117.65 20.13L117.58 20.07L117.64 20.12Q116.31 20.89 116.54 22.76L116.63 22.85L116.63 22.84Q116.99 26.44 120.34 26.44L120.35 26.45L120.44 26.54Q121.89 26.62 122.88 25.48L123.00 25.60L122.96 25.56Q123.96 24.43 124.00 22.87L124.01 22.88L123.94 22.81Q124.15 21.19 123.43 20.58L123.44 20.60L123.30 20.46Q121.77 19.77 120.48 19.84ZM120.20 40.39L120.04 40.23L117.00 40.23L116.99 40.23Q115.46 40.21 114.12 39.34L114.32 39.53L114.20 39.41Q112.78 38.22 112.93 35.37L112.98 35.42L112.90 35.34Q113.53 28.66 117.15 27.67L117.10 27.62L117.12 27.63Q114.86 26.74 113.52 21.38L113.38 21.24L113.48 21.33Q113.09 19.87 113.16 19.07L113.18 19.09L113.25 19.16Q113.50 16.98 117.20 16.94L117.25 17.00L117.13 16.87Q121.50 16.95 122.95 17.14L122.91 17.10L122.79 16.98Q126.71 17.58 127.16 19.60L127.20 19.63L127.19 19.63Q127.22 20.15 127.22 20.53L127.32 20.63L127.20 20.51Q127.22 21.21 127.03 21.82L127.09 21.88L127.18 21.97Q126.44 26.07 123.51 27.59L123.52 27.60L123.59 27.67Q126.99 28.37 127.48 33.66L127.49 33.67L127.63 33.80Q127.51 33.84 127.55 35.13L127.50 35.09L127.64 35.22Q127.58 37.83 125.98 38.89L126.05 38.97L126.13 39.05Q124.70 39.87 120.14 40.32ZM122.47 42.70L122.31 42.54L125.73 42.68L125.70 42.65Q127.38 42.69 128.90 41.97L128.92 41.98L129.05 42.12Q130.16 41.37 130.24 39.50L130.14 39.40L130.24 39.50Q130.21 38.33 129.83 36.39L129.95 36.50L129.91 36.47Q128.90 31.73 126.81 29.86L126.94 29.99L126.71 29.57L126.38 29.17L126.30 28.98L126.41 29.09Q127.87 27.54 128.79 23.39L128.80 23.41L128.89 23.50Q128.83 23.06 128.91 22.22L128.87 22.18L128.86 22.17Q128.96 21.51 128.89 20.90L129.01 21.03L128.97 20.99Q128.73 19.45 127.55 18.96L127.61 19.02L127.63 19.00L127.43 18.87L127.45 18.90Q127.22 18.21 126.04 17.41L125.95 17.32L126.06 17.39L126.00 17.33Q124.14 16.77 120.07 16.58L120.09 16.59L120.00 16.51Q118.37 16.33 117.00 16.44L117.16 16.60L117.10 16.54Q116.29 16.56 114.99 16.71L115.03 16.76L114.97 16.70Q113.10 17.15 112.87 18.79L112.89 18.80L112.78 18.69Q112.68 19.13 112.72 19.93L112.71 19.91L112.73 19.93Q112.92 20.55 113.49 22.91L113.54 22.96L113.50 22.92Q114.25 26.10 116.00 27.43L116.12 27.55L116.12 27.55L116.09 27.52Q113.42 28.92 112.89 34.10L112.84 34.05L112.78 34.00Q112.65 36.26 112.65 37.18L112.59 37.12L112.70 37.23Q112.68 38.92 113.86 39.83L113.80 39.78L113.85 39.82Q113.91 39.85 114.18 40.04L114.30 40.16L114.27 40.13Q115.38 42.49 122.50 42.72ZM122.12 31.61L122.05 31.54L122.03 31.52Q122.97 31.47 123.84 31.92L123.85 31.93L123.87 31.95Q124.28 32.97 124.25 33.51L124.23 33.49L124.16 33.42Q124.19 33.72 124.19 34.02L124.24 34.07L124.15 33.98Q124.18 36.37 121.89 37.21L121.89 37.21L121.89 37.21Q121.24 37.66 120.44 37.55L120.38 37.49L120.27 37.38Q119.14 37.47 118.00 37.01L118.13 37.13L118.02 37.03Q117.86 36.49 117.94 35.50L118.00 35.56L117.97 35.53Q118.10 33.91 119.30 32.70L119.27 32.67L119.22 32.62Q120.51 31.48 122.11 31.60ZM122.38 22.16L122.24 22.02L122.22 22.00Q123.00 21.87 123.53 22.02L123.66 22.15L123.64 22.93L123.56 22.85Q123.59 24.28 122.67 25.29L122.61 25.23L122.74 25.36Q121.89 26.43 120.52 26.24L120.48 26.20L120.38 26.10Q119.45 26.16 119.03 25.93L119.04 25.94L119.03 25.94Q118.93 25.60 118.82 24.92L118.86 24.96L118.79 24.89Q118.67 23.63 119.89 22.79L119.75 22.66L119.73 22.63Q120.89 22.05 122.30 22.08Z"/><path fill="#e769a8" d="M75.39 29.55L75.40 29.56L75.25 29.41Q74.16 28.74 73.51 28.78L73.41 28.67L73.56 28.82Q72.12 28.83 71.07 29.84L71.16 29.92L71.10 29.87Q70.14 30.96 70.25 32.33L70.08 32.16L70.06 32.14Q70.44 36.56 69.57 41.09L69.58 41.10L69.52 41.03Q67.40 41.59 66.30 42.12L66.22 42.04L66.34 42.16Q67.79 37.94 67.56 33.49L67.48 33.41L67.53 33.45Q67.22 28.88 65.51 24.81L65.62 24.92L65.55 24.85Q66.74 25.58 69.02 26.23L69.01 26.22L69.59 28.93L69.58 28.92Q70.34 26.10 74.61 26.10L74.61 26.11L74.58 26.08Q74.86 25.90 75.17 25.90L75.30 26.03L75.29 26.03Q76.54 25.98 77.79 26.66L77.80 26.67L77.69 26.56Q76.56 28.10 75.42 29.58ZM77.02 31.56L77.14 31.53L76.97 31.36Q77.88 30.21 79.56 27.78L79.56 27.78L79.59 27.81Q79.12 27.46 77.60 27.19L77.67 27.27L77.68 27.27Q78.03 26.97 78.48 26.36L78.43 26.31L78.49 26.37Q76.59 25.46 74.65 25.65L74.51 25.51L74.59 25.59Q72.68 25.81 71.96 26.08L71.91 26.03L71.92 26.04Q70.54 26.49 69.74 27.59L69.63 27.48L69.60 26.80L69.30 25.86L69.25 25.81Q66.88 25.42 64.90 24.09L64.85 24.04L64.86 24.05Q67.04 28.47 67.27 33.35L67.29 33.37L67.27 33.34Q67.52 38.28 65.77 42.81L65.83 42.87L65.83 42.87Q66.85 42.32 67.72 42.02L67.76 42.06L67.71 42.01Q67.54 43.21 67.04 44.27L66.86 44.09L67.00 44.23Q69.73 43.27 71.86 43.15L71.91 43.20L72.04 38.61L72.08 38.66Q72.18 36.39 72.18 34.15L72.23 34.19L72.20 34.17Q72.17 32.95 73.08 31.98L73.13 32.03L73.17 32.07Q74.10 31.11 75.24 31.04L75.30 31.10L75.18 30.98Q75.74 30.77 76.46 31.46L76.53 31.53L76.85 31.39ZM71.95 29.69L72.07 29.74L71.90 29.67L71.85 29.59Z"/></svg>