<svg xmlns="http://www.w3.org/2000/svg" width="150" height="50" viewBox="0,0,150,50"><rect width="100%" height="100%" fill="white"/><path fill="#63e763" d="M95.41 29.64L95.40 29.64L95.56 29.80Q91.38 29.61 90.81 32.66L90.78 32.62L90.65 32.49Q90.51 33.61 90.70 34.49L90.81 34.59L90.72 34.51Q90.68 35.23 91.13 36.63L91.23 36.73L91.26 36.76Q92.24 39.84 95.55 39.68L95.67 39.80L95.69 39.82Q97.69 39.88 99.02 38.31L99.04 38.33L98.94 38.23Q100.13 36.72 100.13 34.67L100.08 34.62L100.17 34.71Q100.33 34.14 100.17 33.07L100.12 33.02L100.12 33.02Q100.01 32.07 99.59 31.39L99.66 31.45L99.62 31.41Q98.03 29.78 95.44 29.67ZM100.35 48.21L100.38 48.24L100.29 48.16Q98.57 48.83 90.50 49.21L90.52 49.23L90.47 49.18Q88.77 49.24 87.14 48.40L87.19 48.45L87.21 48.47Q88.04 47.52 89.87 45.73L89.69 45.55L89.86 45.72Q92.10 46.59 94.19 46.40L94.32 46.52L94.27 46.47Q97.10 46.14 97.94 45.87L97.96 45.89L97.98 45.92Q100.34 45.35 100.34 43.56L100.28 43.50L100.28 43.50Q100.23 43.22 100.15 42.99L100.11 42.94L100.11 41.46L100.04 41.39Q100.15 40.74 100.15 39.94L99.99 39.78L99.98 39.77Q98.65 42.06 95.26 42.06L95.35 42.14L95.24 42.04Q91.45 42.12 89.81 39.92L89.73 39.84L89.83 39.94Q88.75 38.44 87.96 34.03L87.86 33.93L87.79 33.86Q87.48 32.34 87.48 30.93L87.62 31.07L87.55 31.00Q87.64 29.29 88.55 28.30L88.55 28.30L88.55 28.30Q90.12 26.79 94.76 26.79L94.71 26.73L96.46 26.92L96.47 26.93Q99.67 27.28 101.00 29.22L101.14 29.36L101.01 29.23Q101.20 28.39 101.62 26.76L101.67 26.80L101.76 26.90Q103.43 26.36 105.18 25.63L105.21 25.67L105.34 25.79Q102.58 31.79 102.58 39.02L102.54 38.98L102.58 39.03Q102.57 41.67 102.95 44.30L102.90 44.25L103.02 44.38Q103.24 45.08 103.16 45.77L103.02 45.63L103.12 45.72Q102.95 47.12 101.74 47.88L101.69 47.84L101.61 47.76Q101.10 48.01 100.27 48.13ZM103.29 51.12L103.30 51.12L103.35 51.17Q104.74 51.16 105.50 50.20L105.66 50.37L105.65 50.35Q105.83 49.23 105.71 48.51L105.84 48.64L105.77 48.57Q105.78 48.04 105.59 47.28L105.54 47.23L105.43 47.13Q104.21 41.91 104.55 36.66L104.66 36.76L104.68 36.78Q105.00 31.31 107.13 26.48L107.16 26.50L104.94 27.34L105.03 27.42Q105.21 26.77 105.44 26.20L105.37 26.13L105.92 25.04L106.00 25.12Q103.69 26.12 101.48 26.54L101.33 26.39L101.42 26.48Q101.06 27.29 100.90 28.32L100.99 28.40L100.91 28.33Q98.80 26.41 94.76 26.41L94.80 26.45L93.06 26.45L93.11 26.51Q89.83 26.46 88.15 27.87L88.06 27.77L88.12 27.84Q87.29 28.90 87.32 30.81L87.13 30.62L87.15 30.63Q87.36 33.28 88.39 37.55L88.39 37.55L88.31 37.47Q88.80 39.41 90.02 40.81L89.91 40.70L90.30 41.09L90.34 41.14L90.39 41.18Q91.56 43.53 94.14 44.06L94.07 43.99L94.10 44.01Q95.42 44.23 96.87 44.27L96.94 44.34L96.92 44.32Q98.67 44.36 99.74 43.98L99.81 44.05L99.84 44.08Q99.11 45.53 96.45 45.87L96.58 46.00L96.50 45.92Q95.38 46.02 94.70 46.02L94.68 46.00L94.28 45.99L94.39 46.10Q91.59 46.11 89.91 45.16L89.89 45.13L88.05 46.72L88.13 46.80Q87.35 47.70 86.51 48.65L86.45 48.59L86.46 48.60Q87.39 49.07 88.38 49.26L88.48 49.36L87.57 50.20L87.51 50.14Q90.32 51.31 95.95 51.31L95.84 51.20L96.10 51.23L96.20 51.34Q99.78 51.30 103.36 51.19ZM97.43 32.08L97.39 32.04L97.39 32.04Q98.64 31.92 99.55 32.34L99.67 32.45L99.57 32.36Q99.82 32.91 99.90 33.59L99.79 33.49L99.82 33.52Q99.98 33.94 99.94 34.86L99.82 34.74L99.82 34.74Q99.84 36.74 98.74 38.04L98.69 37.99L98.68 37.97Q97.46 39.34 95.55 39.30L95.54 39.29L95.68 39.43Q94.19 39.31 93.36 38.90L93.40 38.93L93.26 38.80Q92.89 37.67 92.85 36.64L92.86 36.64L92.86 36.65Q92.79 32.35 97.39 32.05Z"/><path d="M3 49 C55 30,80 49,135 15" stroke="#e8cd7c" fill="none"/><path fill="#a68fe9" d="M22.69 41.46L22.65 41.42L22.63 41.40Q19.75 41.58 18.50 41.04L18.52 41.07L18.47 41.01Q16.60 40.29 16.67 37.81L16.61 37.75L16.52 37.66Q16.66 34.26 16.66 34.83L16.78 34.94L16.76 34.93Q16.77 29.61 13.92 24.78L13.93 24.79L13.81 24.67Q15.93 25.76 17.91 26.14L17.82 26.05L17.87 26.10Q19.57 30.70 19.46 35.19L19.40 35.14L19.46 35.19Q19.27 36.64 20.11 37.86L20.03 37.78L20.11 37.86Q20.95 39.11 22.47 38.92L22.57 39.03L22.84 38.80L22.99 38.96Q24.20 38.75 25.02 37.99L25.09 38.06L24.99 37.96Q25.82 37.22 25.82 36.27L25.93 36.37L25.97 36.41Q25.97 36.18 25.93 35.99L25.83 35.89L25.80 35.86Q25.89 30.77 27.03 26.43L26.90 26.30L26.95 26.35Q27.99 26.29 28.98 26.06L28.86 25.94L31.06 25.63L30.98 25.55Q28.39 30.53 28.70 36.09L28.65 36.04L28.70 36.09Q28.85 39.13 27.13 40.28L27.23 40.37L27.27 40.42Q25.93 41.25 22.62 41.40ZM24.92 43.77L24.96 43.82L25.00 43.85Q28.32 43.86 30.15 43.10L30.14 43.10L30.28 43.24Q31.17 42.45 31.17 41.04L31.07 40.94L31.22 41.09Q31.03 39.99 30.77 38.43L30.90 38.57L30.77 38.43Q30.44 35.44 30.82 32.43L30.83 32.44L30.70 32.31Q31.06 29.13 32.47 26.39L32.59 26.51L32.63 26.55Q31.87 26.74 30.53 27.16L30.53 27.16L30.58 27.20Q30.80 26.58 31.10 26.01L31.17 26.08L31.64 24.83L31.68 24.87Q29.80 25.58 26.64 26.08L26.53 25.97L26.51 25.95Q25.39 30.85 25.55 35.95L25.54 35.94L25.61 36.01Q25.51 37.93 22.85 38.43L22.96 38.54L22.62 38.66L22.35 38.53L21.49 38.48L21.48 38.47Q21.36 37.55 21.40 37.06L21.47 37.13L21.51 37.16Q21.59 32.53 20.91 28.11L20.91 28.11L19.79 27.91L19.80 27.92Q19.34 27.95 18.81 27.84L18.82 27.85L18.76 27.79Q18.42 26.42 18.15 25.66L18.18 25.69L18.12 25.63Q15.45 25.32 13.21 24.03L13.12 23.94L13.08 23.90Q15.30 27.50 16.03 30.88L16.06 30.91L16.07 30.92Q16.46 33.03 16.30 36.53L16.28 36.50L16.40 36.62Q16.29 36.63 16.21 37.73L16.33 37.85L16.35 37.87Q16.22 40.25 17.59 41.20L17.46 41.07L17.57 41.18Q17.99 43.47 25.00 43.85Z"/><path fill="#5fecc9" d="M44.44 26.92L44.31 26.79L44.38 26.86Q46.22 27.07 48.05 27.07L47.90 26.92L47.98 27.00Q49.72 26.95 51.55 26.79L51.64 26.89L51.60 26.85Q51.55 27.56 51.55 28.28L51.40 28.13L51.50 29.56L51.56 29.62Q49.19 29.62 44.43 29.73L44.40 29.70L44.37 29.67Q44.40 35.64 43.26 40.63L43.25 40.61L43.13 40.50Q41.03 41.28 39.54 42.08L39.60 42.14L39.58 42.12Q41.92 35.33 41.66 28.21L41.55 28.11L41.59 28.14Q41.21 20.88 38.55 14.21L38.72 14.39L38.65 14.31Q42.24 16.76 47.00 16.99L47.13 17.12L47.10 17.10Q51.72 17.22 55.87 15.47L55.84 15.44L55.84 15.44Q55.62 16.32 55.39 17.12L55.33 17.06L54.91 18.73L54.93 18.76Q52.13 19.76 49.16 19.91L49.14 19.89L49.13 19.89Q46.21 20.04 43.35 19.32L43.45 19.42L43.53 19.50Q44.14 22.81 44.33 26.81ZM56.56 14.83L56.61 14.88L56.52 14.79Q51.87 16.88 47.00 16.57L47.03 16.61L47.14 16.71Q41.74 16.34 38.01 13.49L37.97 13.44L38.05 13.52Q40.85 20.40 41.16 28.02L41.15 28.01L41.12 27.98Q41.62 36.10 39.11 42.87L39.06 42.83L38.93 42.70Q39.72 42.41 41.09 41.77L41.00 41.67L41.07 41.75Q40.76 42.39 40.19 43.91L40.30 44.03L40.33 44.05Q42.61 42.94 45.50 42.45L45.56 42.50L45.43 42.37Q46.14 37.60 46.33 31.89L46.31 31.87L46.22 31.79Q48.08 31.81 49.90 31.81L49.82 31.73L49.90 31.81Q51.70 31.82 53.52 32.01L53.61 32.09L53.52 32.00Q53.41 31.06 53.41 30.14L53.35 30.08L53.50 28.33L53.39 28.22Q52.64 28.35 51.80 28.35L51.71 28.26L51.84 28.39Q51.83 27.50 51.91 26.47L51.87 26.44L51.91 26.48Q50.60 26.72 49.19 26.72L49.02 26.55L49.09 26.62Q47.79 26.73 46.41 26.69L46.35 26.62L46.23 24.37L46.19 24.33Q46.26 23.34 46.15 22.27L46.18 22.30L46.09 22.21Q47.02 22.23 48.01 22.23L48.15 22.37L48.11 22.33Q52.82 22.28 56.43 20.37L56.41 20.35L56.37 20.32Q57.02 18.64 57.93 16.01L57.92 16.00L57.78 15.85Q56.50 16.71 55.70 17.06L55.82 17.17L55.82 17.17Q56.13 16.46 56.63 14.90Z"/><path fill="#dd8163" d="M78.93 37.83L78.94 37.84L78.93 37.83Q79.24 38.83 79.77 40.84L79.82 40.89L79.94 41.01Q75.67 39.64 71.07 39.90L71.00 39.84L71.09 39.93Q66.50 40.17 62.51 42.15L62.51 42.15L62.41 42.06Q62.58 41.31 62.62 41.39L62.73 41.50L62.76 41.53Q66.53 37.61 70.45 33.19L70.33 33.07L70.36 33.10Q74.75 28.09 75.93 23.40L76.04 23.52L75.99 23.47Q76.45 21.72 75.17 20.54L75.13 20.50L75.07 20.44Q73.80 19.26 72.01 19.41L72.08 19.49L72.13 19.53Q71.68 19.39 71.34 19.39L71.34 19.39L71.38 19.43Q69.89 19.46 68.63 20.37L68.65 20.40L68.56 20.30Q67.32 21.72 67.54 24.39L67.59 24.43L67.45 24.29Q65.80 24.09 64.58 23.63L64.59 23.64L64.63 23.68Q64.30 22.13 64.22 20.68L64.26 20.73L64.32 20.78Q64.25 19.15 64.86 18.01L64.74 17.89L64.74 17.89Q66.60 16.59 69.95 16.59L69.87 16.51L71.75 16.64L71.65 16.54Q74.06 16.71 75.01 16.82L74.87 16.68L74.93 16.73Q79.30 17.19 79.57 19.62L79.53 19.59L79.54 19.60Q79.69 20.24 79.61 21.04L79.50 20.93L79.52 20.94Q79.59 21.70 79.44 22.39L79.32 22.27L79.38 22.33Q77.81 30.50 70.23 37.35L70.21 37.34L70.20 37.33Q71.55 37.11 72.92 37.11L72.82 37.01L72.94 37.13Q76.16 37.12 79.02 37.91ZM78.46 17.11L78.51 17.16L78.43 17.08Q76.85 16.45 75.14 16.37L75.15 16.38L71.73 16.20L71.68 16.15Q67.29 15.95 65.08 17.05L65.13 17.10L64.95 16.93Q63.89 18.29 63.89 20.35L63.94 20.40L63.90 20.36Q63.93 21.07 64.23 23.89L64.35 24.01L64.27 23.93Q64.76 24.12 65.94 24.42L66.10 24.58L66.10 25.61L65.99 25.50Q65.99 25.99 66.06 26.52L66.03 26.49L66.02 26.48Q67.39 26.70 69.86 26.93L69.89 26.96L69.89 26.96Q69.74 26.47 69.74 26.13L69.79 26.17L69.75 26.13Q69.83 24.39 71.05 23.04L70.99 22.98L71.04 23.03Q72.09 21.51 73.88 21.63L73.91 21.66L74.00 21.74Q74.78 21.80 75.54 21.96L75.45 21.87L75.46 21.87Q75.59 22.27 75.66 22.69L75.63 22.65L75.67 22.69Q75.74 23.15 75.67 23.49L75.70 23.52L75.57 23.39Q74.36 28.20 69.94 33.03L70.08 33.17L69.89 32.97Q67.81 35.27 62.36 41.32L62.33 41.29L62.41 41.37Q62.19 42.18 61.84 42.75L61.95 42.85L61.93 42.83Q63.44 41.87 64.96 41.34L64.94 41.31L65.01 41.38Q64.19 41.86 63.24 43.35L63.37 43.47L63.30 43.40Q63.12 43.69 63.01 44.03L63.07 44.08L63.16 44.18Q67.87 41.96 73.35 42.15L73.51 42.31L73.48 42.28Q79.07 42.35 83.64 44.71L83.65 44.72L82.67 42.60L82.72 42.65Q82.03 41.27 81.76 40.47L81.86 40.57L81.73 40.44Q81.07 40.09 79.86 39.67L79.89 39.70L79.82 39.63Q79.68 38.92 79.30 37.55L79.40 37.65L79.29 37.54Q77.10 36.99 74.82 36.80L74.89 36.88L74.80 36.78Q79.57 32.30 81.09 24.04L80.94 23.89L81.30 21.16L81.18 21.04Q81.11 19.26 79.89 18.57L79.85 18.53L79.84 18.56L79.95 18.68Q79.89 18.58 79.82 18.58L79.81 18.57L79.85 18.61Q79.46 17.62 78.36 17.01Z"/><path fill="#ad79e1" d="M119.39 39.95L119.33 39.89L119.33 39.90Q115.15 39.34 113.32 37.89L113.36 37.92L113.31 37.88Q111.50 36.45 111.08 33.44L111.05 33.41L111.18 33.53Q110.98 33.00 110.64 28.24L110.71 28.31L110.66 28.25Q110.78 27.16 110.71 25.91L110.64 25.84L110.67 25.87Q110.49 20.82 112.70 19.07L112.75 19.12L112.81 19.18Q115.42 17.03 123.19 16.34L123.15 16.31L123.24 16.40Q124.49 16.16 126.12 16.20L126.11 16.18L126.14 16.21Q126.11 16.18 129.07 16.18L129.04 16.15L129.11 16.21Q129.94 16.21 131.65 16.36L131.68 16.39L131.69 16.39Q131.14 17.29 130.11 20.37L130.04 20.30L130.09 20.36Q128.03 19.17 125.02 19.17L124.96 19.10L125.01 19.16Q124.19 19.10 123.39 19.17L123.42 19.21L123.44 19.23Q118.45 19.79 115.94 21.77L115.81 21.65L115.81 21.64Q113.86 23.31 113.71 26.66L113.61 26.57L113.62 26.57Q113.72 27.32 113.76 28.58L113.70 28.52L113.65 28.47Q113.76 33.30 116.16 35.39L116.22 35.45L116.23 35.47Q118.37 37.38 123.36 37.69L123.31 37.64L123.40 37.73Q126.51 37.87 129.52 36.08L129.48 36.04L129.47 36.03Q130.05 38.74 130.66 40.11L130.77 40.22L130.79 40.25Q128.66 40.47 127.02 40.43L127.04 40.45L127.05 40.46Q122.48 40.30 119.36 39.92ZM134.47 43.66L134.55 43.73L134.40 43.59Q132.69 40.66 132.00 38.07L131.98 38.04L131.90 37.96Q131.53 38.28 130.54 38.66L130.64 38.76L130.57 38.69Q130.20 37.86 130.01 37.02L130.12 37.14L129.71 35.39L129.58 35.26Q126.37 37.39 123.25 37.27L123.24 37.26L123.25 37.27Q119.04 37.14 116.72 35.39L116.66 35.32L116.61 35.28Q115.49 33.47 115.56 30.54L115.55 30.52L115.53 30.50Q115.77 26.10 118.24 23.97L118.21 23.93L118.22 23.94Q120.48 22.17 125.16 21.56L125.15 21.54L125.07 21.46Q125.88 21.36 126.61 21.36L126.61 21.37L126.52 21.28Q129.37 21.34 131.46 22.87L131.54 22.95L131.52 22.92Q132.03 20.81 133.25 17.58L133.20 17.53L133.22 17.55Q132.89 17.48 132.34 17.43L132.30 17.39L132.27 17.36Q131.84 17.42 131.57 17.42L131.62 17.47L131.57 17.42Q131.67 16.80 132.13 15.81L132.20 15.88L132.25 15.93Q131.99 15.89 129.49 15.82L129.55 15.87L129.43 15.76Q126.97 15.72 126.33 15.75L126.37 15.80L126.36 15.79Q115.86 16.14 112.40 18.73L112.36 18.69L112.33 18.66Q110.32 20.49 110.32 24.41L110.39 24.48L110.37 24.47Q110.36 25.56 110.48 28.27L110.39 28.18L110.53 28.32Q110.63 31.85 110.86 33.56L110.86 33.56L110.72 33.42Q111.11 36.55 112.71 38.07L112.75 38.11L112.72 38.09Q113.36 38.91 114.61 40.05L114.47 39.91L114.50 39.94Q117.73 41.69 122.99 42.45L122.99 42.45L123.10 42.56Q129.41 43.40 134.40 43.59Z"/></svg>