<svg xmlns="http://www.w3.org/2000/svg" width="150" height="50" viewBox="0,0,150,50"><rect width="100%" height="100%" fill="white"/><path fill="#f07fd3" d="M120.41 29.17L120.38 29.15L120.51 29.27Q118.63 29.26 117.41 30.59L117.44 30.62L117.34 30.52Q116.05 31.78 115.90 33.69L115.96 33.74L115.97 33.76Q115.80 35.91 117.02 36.92L117.02 36.92L116.90 36.81Q118.14 37.83 120.27 37.75L120.41 37.89L120.26 37.74Q122.66 37.67 123.61 36.72L123.67 36.77L123.53 36.63Q124.61 35.24 124.49 33.41L124.55 33.47L124.48 33.40Q124.37 31.53 123.28 30.34L123.27 30.32L123.28 30.33Q122.19 29.13 120.36 29.13ZM120.47 19.83L120.46 19.82L120.44 19.81Q118.93 19.59 117.60 20.09L117.65 20.14L117.73 20.22Q116.42 21.00 116.65 22.86L116.52 22.74L116.60 22.82Q117.12 26.57 120.47 26.57L120.48 26.58L120.44 26.54Q122.06 26.79 123.05 25.65L122.99 25.59L122.94 25.54Q123.90 24.37 123.94 22.81L123.94 22.81L123.99 22.86Q124.04 21.08 123.32 20.48L123.32 20.47L123.28 20.43Q121.62 19.62 120.33 19.69ZM120.12 40.31L120.17 40.35L117.03 40.26L117.01 40.24Q115.45 40.21 114.12 39.33L114.31 39.52L114.16 39.37Q112.86 38.30 113.01 35.45L112.96 35.39L113.01 35.45Q113.43 28.56 117.05 27.57L116.98 27.50L117.10 27.62Q114.72 26.60 113.38 21.24L113.38 21.24L113.42 21.28Q113.11 19.90 113.19 19.10L113.27 19.18L113.18 19.09Q113.44 16.92 117.13 16.88L117.28 17.03L117.18 16.92Q121.45 16.89 122.89 17.08L122.88 17.07L122.83 17.01Q126.63 17.50 127.09 19.52L127.24 19.68L127.23 19.67Q127.22 20.15 127.22 20.53L127.19 20.50L127.27 20.58Q127.26 21.25 127.07 21.86L127.13 21.92L127.05 21.85Q126.47 26.10 123.54 27.62L123.45 27.54L123.54 27.63Q127.07 28.45 127.56 33.74L127.56 33.74L127.58 33.76Q127.62 33.95 127.65 35.24L127.61 35.20L127.60 35.18Q127.61 37.86 126.01 38.92L126.11 39.03L126.14 39.06Q124.73 39.89 120.16 40.35ZM122.35 42.57L122.44 42.66L125.78 42.73L125.65 42.60Q127.55 42.86 129.07 42.14L129.06 42.13L129.04 42.11Q130.20 41.40 130.27 39.53L130.13 39.40L130.11 39.37Q130.33 38.45 129.95 36.51L129.96 36.51L129.85 36.41Q129.04 31.87 126.95 30.01L126.93 29.99L126.75 29.61L126.50 29.29L126.31 28.98L126.41 29.08Q127.96 27.63 128.87 23.48L128.82 23.43L128.91 23.51Q128.90 23.13 128.98 22.29L129.04 22.35L128.91 22.22Q129.08 21.63 129.01 21.02L128.92 20.93L128.91 20.92Q128.76 19.48 127.58 18.99L127.67 19.08L127.59 18.96L127.43 18.87L127.54 18.98Q127.19 18.18 126.01 17.38L126.05 17.42L126.08 17.41L126.13 17.46Q123.99 16.62 119.92 16.43L120.07 16.58L120.06 16.57Q118.53 16.48 117.16 16.60L117.07 16.51L117.17 16.61Q116.31 16.59 115.02 16.74L115.08 16.80L114.94 16.67Q113.01 17.06 112.78 18.70L112.82 18.73L112.89 18.80Q112.86 19.30 112.89 20.10L112.84 20.04L112.87 20.08Q112.85 20.47 113.42 22.83L113.48 22.89L113.46 22.88Q114.32 26.17 116.07 27.50L116.07 27.50L116.14 27.57L116.12 27.55Q113.33 28.83 112.79 34.01L112.82 34.04L112.81 34.03Q112.56 36.17 112.56 37.08L112.72 37.24L112.63 37.16Q112.62 38.87 113.81 39.78L113.90 39.88L113.85 39.83Q113.97 39.91 114.24 40.10L114.24 40.10L114.18 40.04Q115.27 42.39 122.39 42.62ZM122.03 31.52L121.97 31.46L122.10 31.59Q122.88 31.38 123.76 31.84L123.81 31.90L123.95 32.03Q124.31 33.00 124.28 33.54L124.22 33.48L124.18 33.44Q124.20 33.72 124.20 34.03L124.21 34.05L124.25 34.08Q124.29 36.48 122.00 37.32L121.98 37.30L121.87 37.18Q121.09 37.51 120.29 37.39L120.39 37.49L120.44 37.54Q119.16 37.49 118.02 37.03L118.19 37.20L118.11 37.11Q117.77 36.40 117.85 35.41L118.01 35.57L117.85 35.41Q117.99 33.80 119.19 32.58L119.26 32.65L119.17 32.56Q120.42 31.39 122.02 31.51ZM122.37 22.16L122.35 22.13L122.31 22.09Q123.05 21.92 123.59 22.08L123.72 22.20L123.65 22.94L123.66 22.95Q123.55 24.25 122.64 25.26L122.78 25.40L122.78 25.40Q121.71 26.25 120.34 26.06L120.46 26.18L120.50 26.23Q119.49 26.20 119.07 25.97L119.00 25.90L118.98 25.88Q118.88 25.55 118.76 24.87L118.80 24.90L118.87 24.98Q118.61 23.57 119.83 22.73L119.87 22.78L119.88 22.79Q120.82 21.97 122.23 22.01Z"/><path fill="#6cc2de" d="M68.43 29.56L68.44 29.57L68.53 29.66Q68.56 33.95 67.84 38.10L67.78 38.05L67.70 37.97Q70.09 37.53 73.17 37.42L73.04 37.29L73.13 37.37Q74.44 37.54 75.50 36.53L75.54 36.57L75.52 36.55Q76.52 35.48 76.52 34.15L76.67 34.30L76.68 34.30Q76.58 33.90 76.54 33.63L76.65 33.74L76.56 33.65Q76.39 30.70 74.14 29.86L74.20 29.92L74.23 29.95Q73.40 29.58 72.71 29.65L72.68 29.62L72.70 29.64Q71.67 29.60 70.64 29.64L70.65 29.65L70.63 29.63Q69.61 29.70 68.58 29.70ZM67.25 19.16L67.38 19.30L67.27 19.19Q68.25 22.60 68.51 26.97L68.36 26.82L68.37 26.83Q69.93 27.06 72.60 27.10L72.55 27.05L72.63 27.13Q75.42 27.03 75.76 23.48L75.79 23.52L75.89 23.62Q76.09 21.68 74.68 20.85L74.63 20.79L74.64 20.80Q73.60 20.15 69.19 19.50L69.26 19.58L69.29 19.61Q68.12 19.35 67.21 19.12ZM63.62 42.07L63.65 42.10L63.61 42.05Q66.09 35.40 65.83 28.02L65.87 28.06L65.83 28.02Q65.49 20.67 62.56 14.20L62.70 14.35L62.52 14.17Q66.40 16.79 72.62 17.04L72.69 17.11L72.64 17.05Q78.85 17.29 79.19 20.18L79.14 20.13L79.16 20.14Q79.47 22.90 78.07 25.56L78.10 25.60L78.08 25.58Q77.37 27.12 75.77 27.80L75.78 27.81L75.70 27.72Q79.51 28.57 79.74 33.94L79.64 33.84L79.72 33.92Q79.77 34.99 79.69 36.40L79.70 36.41L79.67 36.38Q79.68 37.76 78.75 38.70L78.79 38.73L78.67 38.61Q77.80 39.62 76.47 39.77L76.46 39.75L76.49 39.79Q74.90 39.75 73.83 39.75L73.96 39.88L73.84 39.76Q68.26 39.89 63.73 42.18ZM76.42 42.38L76.53 42.50L76.48 42.44Q77.39 42.47 79.25 42.59L79.25 42.59L79.20 42.53Q80.74 42.71 81.85 41.83L81.79 41.78L81.78 41.76Q82.61 40.88 82.50 39.32L82.54 39.37L82.41 39.24Q82.37 38.32 81.65 34.86L81.70 34.90L81.63 34.84Q81.05 31.70 79.18 30.22L79.09 30.13L78.59 29.21L78.65 29.27Q80.42 27.95 80.99 24.18L80.86 24.06L80.84 24.04Q81.11 23.01 81.03 21.60L80.98 21.55L81.03 21.60Q80.93 20.24 79.82 19.40L79.95 19.53L79.83 19.41Q79.58 19.27 79.46 19.23L79.43 19.20L79.44 19.21Q79.16 18.66 78.32 17.86L78.37 17.91L78.40 17.95Q76.90 16.90 72.67 16.71L72.63 16.66L72.54 16.57Q66.02 16.41 62.03 13.52L61.91 13.41L62.04 13.54Q65.17 20.40 65.48 27.94L65.61 28.07L65.58 28.03Q65.92 35.88 63.11 42.81L63.03 42.73L65.20 41.90L65.07 41.77Q64.80 43.02 64.30 44.16L64.19 44.05L64.16 44.01Q68.54 42.23 73.56 42.23L73.52 42.18L73.60 42.26Q74.96 42.21 76.40 42.36ZM74.29 31.83L74.38 31.93L74.28 31.83Q74.94 31.69 75.85 32.15L75.89 32.19L76.02 32.31Q76.01 32.53 76.16 33.60L76.27 33.71L76.29 33.72Q76.31 34.92 75.38 35.97L75.52 36.12L75.52 36.11Q74.46 37.04 73.06 36.92L73.07 36.94L71.61 37.08L71.72 37.19Q70.93 37.19 70.20 37.31L70.21 37.31L70.20 37.30Q70.53 35.50 70.60 32.03L70.50 31.93L70.50 31.93Q71.10 31.81 72.35 31.77L72.41 31.82L72.36 31.77Q73.65 31.77 74.26 31.81ZM73.24 22.22L73.24 22.22L73.74 22.34L73.59 22.19Q73.87 22.25 74.06 22.28L74.00 22.22L74.43 22.27L74.77 22.42L75.49 22.60L75.43 22.54Q75.52 22.79 75.52 23.10L75.41 22.98L75.41 23.51L75.52 23.63Q75.58 24.95 74.71 25.88L74.70 25.87L74.62 25.79Q73.74 26.72 72.52 26.72L72.59 26.79L72.45 26.64Q71.46 26.69 71.46 26.69L71.49 26.72L71.58 26.80Q70.16 26.68 70.50 26.68L70.47 26.65L70.59 26.77Q70.36 25.06 70.06 22.01L70.17 22.12L70.17 22.12Q71.77 22.28 73.30 22.28Z"/><path fill="#cfee71" d="M55.05 30.26L55.03 30.24L55.20 30.41Q55.36 30.08 55.32 29.66L55.24 29.57L55.15 29.48Q55.11 29.14 54.80 28.95L54.86 29.00L54.88 29.02Q54.13 28.43 53.25 28.58L53.12 28.44L53.22 28.55Q52.24 28.63 50.60 29.73L50.54 29.68L50.50 29.63Q49.05 30.50 49.05 31.68L49.09 31.72L49.03 31.66Q49.10 32.99 49.10 36.30L49.11 36.31L49.10 36.30Q49.12 38.91 49.27 40.93L49.22 40.88L49.12 40.78Q47.58 40.95 47.58 40.95L47.57 40.94L47.60 40.96Q46.51 40.83 45.79 40.91L45.85 40.97L45.74 40.86Q46.14 38.33 46.22 36.08L46.33 36.20L46.34 36.21Q46.44 31.51 45.79 30.21L45.80 30.22L45.76 30.18Q45.62 29.73 45.05 29.43L45.00 29.39L45.02 29.41Q44.14 28.64 42.58 28.53L42.56 28.50L42.64 28.59Q40.60 28.33 40.06 29.93L39.91 29.78L39.97 29.84Q39.83 30.34 39.94 30.84L40.00 30.90L40.07 30.96Q40.60 33.59 40.26 36.37L40.37 36.48L40.29 36.40Q39.96 39.19 38.55 41.63L38.59 41.66L38.51 41.59Q37.61 41.87 35.52 42.29L35.40 42.16L35.48 42.25Q38.05 39.07 38.05 34.76L37.92 34.64L37.92 34.64Q37.85 28.71 33.82 24.48L33.98 24.65L33.97 24.64Q34.69 24.90 35.64 25.13L35.66 25.14L37.31 25.47L37.44 25.59Q37.89 26.19 38.76 27.87L38.79 27.89L38.67 27.78Q38.86 25.91 41.29 25.87L41.30 25.87L41.36 25.94Q41.36 25.74 42.35 25.82L42.41 25.88L42.42 25.89Q47.40 26.19 48.54 29.00L48.70 29.16L48.52 28.99Q50.30 26.39 55.33 25.85L55.27 25.80L55.22 25.74Q55.97 25.62 56.85 25.74L56.97 25.86L57.00 25.89Q59.06 25.93 58.91 27.49L58.98 27.56L58.95 27.54Q58.96 28.27 58.69 29.03L58.57 28.91L58.62 28.96Q57.32 32.08 57.55 35.62L57.45 35.52L57.54 35.61Q57.67 39.01 59.58 41.83L59.63 41.88L59.55 41.81Q57.94 41.53 56.12 41.30L56.12 41.30L56.07 41.25Q54.83 38.68 54.64 35.90L54.66 35.93L54.70 35.97Q54.43 33.03 55.08 30.29ZM55.87 41.66L55.89 41.68L55.84 41.64Q56.59 41.74 57.92 41.93L57.96 41.97L57.92 41.92Q58.36 42.55 59.50 43.96L59.61 44.07L59.66 44.12Q62.47 44.57 64.57 45.22L64.65 45.30L64.54 45.19Q59.62 41.38 59.35 34.87L59.31 34.83L59.31 34.82Q59.27 32.76 59.87 30.86L59.76 30.74L59.91 30.89Q59.96 29.84 59.96 29.12L59.93 29.09L60.11 29.27Q59.98 28.22 59.37 27.65L59.42 27.71L59.34 27.59L59.37 27.62Q59.47 27.15 59.40 26.65L59.49 26.74L59.43 26.69Q59.27 26.10 58.81 25.84L58.77 25.79L58.83 25.86Q58.15 25.36 57.27 25.32L57.20 25.25L57.32 25.37Q54.51 25.31 51.85 26.26L51.83 26.24L51.80 26.22Q49.92 27.00 48.74 28.41L48.67 28.33L48.57 28.24Q47.14 25.89 42.30 25.55L42.28 25.53L42.20 25.44Q41.54 25.43 41.13 25.43L41.13 25.44L41.11 25.41Q39.13 25.49 38.52 26.75L38.39 26.62L38.42 26.65Q38.25 26.29 37.56 25.22L37.48 25.13L37.49 25.15Q35.01 24.61 33.03 23.97L33.07 24.00L32.99 23.93Q37.69 28.35 37.69 34.64L37.73 34.67L37.70 34.65Q37.66 39.33 34.81 42.80L34.86 42.85L34.74 42.73Q35.24 42.62 35.74 42.54L35.75 42.56L36.64 42.31L36.72 42.38Q36.14 43.56 35.04 44.77L34.85 44.59L34.92 44.66Q36.56 44.36 39.68 43.75L39.78 43.85L39.63 43.70Q42.27 39.56 42.27 34.65L42.41 34.79L42.30 34.68Q42.37 33.95 42.30 33.12L42.37 33.19L42.21 33.03Q42.30 32.43 43.29 31.63L43.24 31.59L43.13 31.51L43.24 31.62Q43.80 31.11 44.98 31.00L45.04 31.06L44.88 30.90Q45.44 31.04 45.74 31.04L45.77 31.07L45.79 31.28L45.78 31.27Q46.15 34.07 46.03 36.43L45.98 36.38L46.01 36.41Q45.87 38.67 45.38 41.34L45.32 41.28L45.37 41.32Q46.35 41.28 46.35 41.28L46.39 41.32L46.40 41.33Q47.71 41.20 47.37 41.20L47.47 41.29L47.40 41.23Q47.48 41.81 47.45 42.26L47.50 42.31L47.46 42.27Q47.47 42.78 47.47 43.27L47.49 43.29L49.91 43.24L49.80 43.13Q51.20 43.28 52.46 43.35L52.32 43.21L52.36 43.26Q50.79 39.51 50.98 33.58L50.96 33.56L50.98 33.58Q51.11 32.56 52.29 31.80L52.26 31.77L52.21 31.72Q53.27 31.07 54.53 30.88L54.46 30.81L54.70 30.75L54.74 30.78Q54.30 32.71 54.30 34.68L54.25 34.64L54.28 34.66Q54.33 38.49 55.86 41.65ZM50.33 30.11L50.57 30.12L50.38 30.27L50.29 30.07Z"/><path fill="#63e7a5" d="M21.85 41.07L21.85 41.07L21.67 40.89Q17.55 29.68 12.41 24.69L12.53 24.81L12.53 24.82Q14.03 25.48 17.00 26.13L16.83 25.95L16.81 25.94Q20.51 30.02 23.06 36.68L23.00 36.62L22.98 36.60Q25.64 29.24 28.26 26.20L28.38 26.31L28.25 26.19Q30.25 26.09 32.68 25.40L32.64 25.35L32.62 25.34Q29.53 28.15 27.36 32.71L27.27 32.63L27.43 32.79Q27.02 33.40 23.63 41.02L23.59 40.98L23.59 40.98Q23.08 41.15 21.86 41.08ZM26.41 43.42L26.32 43.33L26.37 43.38Q29.68 31.04 34.25 26.36L34.34 26.45L32.85 26.94L32.90 26.99Q32.01 27.13 31.18 27.25L31.21 27.27L31.12 27.19Q31.67 26.86 32.49 25.99L32.46 25.96L32.52 26.02Q33.36 25.16 33.82 24.75L33.71 24.64L33.83 24.76Q31.56 25.35 28.14 25.84L28.15 25.86L28.05 25.75Q25.34 28.95 23.28 34.54L23.31 34.57L23.38 34.64Q21.64 30.35 19.81 27.87L19.97 28.03L19.39 27.98L19.44 28.03Q18.98 27.84 18.76 27.84L18.78 27.87L18.90 27.99Q18.68 27.65 16.96 25.60L16.90 25.54L16.94 25.57Q13.66 25.15 11.42 24.01L11.27 23.86L11.32 23.92Q17.46 29.63 21.46 41.36L21.38 41.28L22.44 41.35L22.39 41.30Q22.82 42.04 23.66 43.33L23.70 43.37L25.05 43.35L25.12 43.42Q25.68 43.26 26.33 43.34Z"/><path fill="#bada5c" d="M98.88 39.81L98.91 39.84L96.94 39.81L96.95 39.82Q95.96 39.79 95.01 39.90L95.11 40.00L95.06 39.96Q95.61 33.72 95.61 29.72L95.57 29.69L95.71 29.83Q91.69 23.10 84.03 14.42L84.04 14.43L84.01 14.40Q85.86 15.45 89.21 16.25L89.17 16.21L89.16 16.20Q94.23 21.80 97.24 27.02L97.23 27.01L97.27 27.05Q100.22 21.43 104.60 16.41L104.65 16.46L104.67 16.48Q106.96 15.95 109.47 15.15L109.49 15.17L109.50 15.18Q103.40 21.23 98.53 29.64L98.70 29.81L98.70 29.81Q98.59 36.75 98.90 39.83ZM108.05 17.31L110.77 14.47L110.73 14.43Q107.71 15.68 104.59 16.13L104.57 16.11L104.61 16.15Q100.35 20.84 97.54 25.95L97.40 25.81L97.41 25.82Q95.39 22.28 92.20 18.40L92.07 18.27L92.15 18.35Q91.92 18.39 91.43 18.31L91.34 18.23L91.30 18.19Q90.59 17.36 89.07 15.69L89.14 15.76L89.25 15.87Q85.72 14.97 82.75 13.41L82.84 13.50L82.75 13.41Q90.62 22.04 95.38 29.96L95.38 29.95L95.29 29.87Q95.09 36.10 94.48 40.25L94.52 40.28L94.59 40.36Q95.29 40.29 96.73 40.18L96.86 40.31L96.70 41.17L96.72 41.19Q96.80 41.73 96.72 42.26L96.70 42.24L96.69 42.23Q100.32 42.32 102.07 42.51L101.91 42.35L102.02 42.46Q100.68 37.69 100.56 31.71L100.54 31.69L100.60 31.75Q104.99 23.31 111.54 15.97L111.54 15.96L107.99 17.25Z"/><path d="M15 13 C56 38,81 7,138 25" stroke="#c87ee1" fill="none"/></svg>