<svg xmlns="http://www.w3.org/2000/svg" width="150" height="50" viewBox="0,0,150,50"><rect width="100%" height="100%" fill="white"/><path fill="#e2e24f" d="M74.07 39.89L73.99 39.82L74.12 39.94Q72.15 39.89 70.14 40.08L70.06 40.00L70.15 40.09Q70.75 34.79 70.75 29.95L70.72 29.92L70.71 29.92Q70.84 25.13 70.19 19.92L70.19 19.91L70.20 19.92Q65.49 19.40 62.29 17.73L62.22 17.66L61.65 16.06L61.51 15.92Q61.47 15.58 60.86 14.36L60.86 14.36L60.84 14.34Q65.87 16.97 71.89 17.16L71.85 17.12L71.78 17.05Q77.66 17.22 83.10 15.16L83.12 15.18L83.08 15.14Q82.47 16.66 81.82 18.49L81.79 18.45L81.76 18.43Q78.25 19.83 73.99 20.02L73.87 19.90L73.92 19.95Q73.73 24.98 73.73 29.92L73.62 29.81L73.76 29.95Q73.70 34.85 74.00 39.83ZM83.83 14.52L83.76 14.45L83.77 14.46Q77.98 16.78 71.78 16.59L71.83 16.65L71.91 16.72Q65.20 16.48 60.10 13.51L60.00 13.41L60.11 13.53Q60.81 14.77 62.11 18.04L62.01 17.94L62.03 17.96Q62.67 18.26 63.93 18.83L64.02 18.93L63.96 18.86Q64.28 19.64 64.63 21.17L64.65 21.19L64.68 21.22Q66.92 22.01 69.96 22.24L69.97 22.25L70.03 22.30Q70.30 25.88 70.30 29.65L70.42 29.78L70.41 29.76Q70.31 35.03 69.51 40.40L69.48 40.37L69.63 40.52Q71.16 40.26 71.69 40.26L71.79 40.36L71.73 40.29Q71.64 40.51 71.58 41.18L71.73 41.33L71.59 41.19Q71.56 41.88 71.56 42.22L71.55 42.22L71.56 42.22Q72.89 42.29 74.41 42.37L74.26 42.22L74.30 42.26Q75.27 42.35 77.09 42.50L77.13 42.54L77.03 42.44Q75.93 37.65 75.82 32.47L75.78 32.43L75.81 32.46Q75.65 27.12 76.18 22.21L76.02 22.05L76.18 22.22Q80.01 21.55 83.17 20.33L83.26 20.42L83.18 20.34Q83.83 17.90 84.85 15.85L84.90 15.89L84.96 15.95Q83.66 16.67 82.86 16.97L82.88 16.99L82.75 16.87Q83.29 15.70 83.87 14.56Z"/><path d="M16 13 C58 36,91 36,136 23" stroke="#5ddfbe" fill="none"/><path fill="#e368c4" d="M122.90 32.20L113.52 22.05L113.52 22.06Q114.45 25.84 114.45 29.57L114.54 29.66L114.44 29.56Q114.43 35.54 112.38 41.09L112.41 41.13L112.34 41.06Q111.23 41.28 108.98 42.04L109.17 42.23L109.07 42.13Q111.85 36.31 111.85 29.60L111.84 29.59L111.82 29.57Q111.86 20.97 107.37 13.55L107.33 13.51L107.33 13.51Q107.76 13.67 108.45 14.09L108.59 14.23L108.43 14.07Q120.64 25.41 128.49 34.67L128.48 34.66L128.42 34.60Q128.15 32.19 128.15 29.76L128.24 29.85L128.24 29.85Q128.18 22.56 130.69 16.35L130.59 16.25L130.69 16.35Q132.99 15.79 134.59 15.11L134.61 15.13L134.56 15.08Q131.30 21.30 131.00 28.46L131.03 28.49L130.88 28.34Q130.58 35.70 133.55 41.86L133.67 41.98L133.63 41.94Q133.15 41.96 132.73 41.77L132.71 41.74L132.61 41.64Q128.04 37.69 122.83 32.13L122.85 32.15ZM136.21 45.09L136.31 45.19L136.23 45.11Q136.71 45.29 137.13 45.48L137.04 45.39L137.94 45.79L137.98 45.83Q132.80 38.86 132.80 29.49L132.83 29.53L132.77 29.47Q132.84 22.30 136.15 16.06L136.18 16.09L136.13 16.04Q135.47 16.26 134.06 16.86L134.11 16.92L134.16 16.96Q134.54 16.12 135.38 14.56L135.40 14.58L135.24 14.43Q132.75 15.29 130.32 15.86L130.44 15.99L130.47 16.01Q127.76 22.40 127.76 29.83L127.85 29.91L127.67 29.74Q127.83 31.76 128.02 33.74L127.96 33.68L127.89 33.61Q123.32 28.01 118.56 23.41L118.55 23.39L108.51 13.74L108.50 13.73Q107.90 13.39 106.68 12.82L106.61 12.75L106.65 12.79Q111.49 20.49 111.49 29.59L111.59 29.69L111.55 29.65Q111.62 36.83 108.53 42.84L108.38 42.69L108.37 42.68Q108.74 42.63 110.37 42.02L110.50 42.14L110.41 42.06Q110.12 42.87 109.28 44.35L109.33 44.41L109.34 44.41Q110.67 43.87 114.13 43.07L113.99 42.93L114.11 43.06Q116.48 36.97 116.48 29.78L116.33 29.62L116.32 29.62Q116.39 27.60 116.17 25.46L116.18 25.48L116.10 25.40Q127.59 38.23 136.20 45.08Z"/><path fill="#ed86ed" d="M89.53 47.01L89.53 47.00L89.64 47.12Q88.74 47.36 86.84 47.66L86.80 47.63L86.74 47.56Q88.12 45.48 89.15 44.19L89.05 44.09L89.11 44.15Q90.89 44.48 91.04 44.48L90.99 44.42L90.93 44.36Q91.30 44.51 91.83 44.39L91.73 44.30L91.90 44.46Q92.45 44.25 92.64 44.25L92.79 44.40L92.72 44.34Q95.17 43.97 95.10 41.80L95.25 41.95L95.07 41.77Q95.03 40.29 94.92 34.04L94.95 34.07L95.11 34.23Q95.00 30.62 95.07 26.47L95.08 26.48L96.37 26.16L96.45 26.25Q97.07 26.11 97.76 25.88L97.81 25.93L97.71 25.83Q97.58 30.35 97.62 34.73L97.62 34.73L97.52 34.63Q97.72 39.16 98.25 43.54L98.24 43.53L98.19 43.48Q98.32 43.84 98.32 44.11L98.20 43.99L98.34 44.13Q98.33 45.75 96.65 46.13L96.54 46.02L96.66 46.14Q93.36 46.35 89.52 46.99ZM96.34 22.82L94.18 19.68L94.22 19.72Q95.28 18.34 97.10 15.56L97.12 15.57L97.18 15.63Q97.70 16.38 99.03 18.21L99.16 18.34L96.41 22.89ZM99.32 49.41L99.39 49.48L99.38 49.47Q99.93 49.52 100.69 49.18L100.71 49.20L100.75 49.24Q101.06 48.52 101.06 48.06L101.05 48.05L101.12 48.12Q100.95 47.61 100.84 47.00L100.82 46.99L100.97 47.14Q99.47 40.57 99.47 32.65L99.45 32.63L99.44 32.63Q99.63 29.96 99.78 27.07L99.78 27.06L99.64 26.92Q99.08 27.09 97.94 27.39L97.96 27.42L98.01 27.46Q98.09 27.05 98.13 26.52L98.01 26.40L98.17 25.38L98.16 25.37Q96.53 26.09 94.74 26.13L94.60 25.99L94.68 26.07Q94.52 30.29 94.55 33.87L94.69 34.00L94.79 41.84L94.83 41.87Q94.87 43.81 92.70 43.93L92.76 43.99L92.66 43.89Q92.55 44.01 92.04 44.07L91.91 43.94L91.86 43.89Q91.46 44.06 91.19 44.06L91.24 44.11L91.26 44.13Q90.68 44.01 89.12 43.59L89.03 43.50L89.16 43.63Q88.57 44.10 87.47 45.78L87.57 45.88L86.05 48.21L86.11 48.27Q86.84 47.93 88.47 47.55L88.51 47.58L88.18 48.43L87.64 49.08L87.57 49.00Q89.74 48.73 91.07 48.81L91.12 48.86L91.16 48.90Q93.47 49.08 99.41 49.49ZM96.33 23.57L96.42 23.67L96.63 23.00L96.71 23.09Q97.10 23.55 98.06 25.15L97.96 25.05L98.09 25.18Q99.58 22.03 101.14 18.94L101.18 18.99L101.04 18.84Q100.19 17.39 99.24 16.10L99.18 16.03L99.25 16.10Q98.88 16.16 98.54 16.69L98.64 16.79L98.68 16.82Q98.20 16.12 97.21 14.82L97.32 14.93L97.26 14.87Q96.08 16.47 93.76 19.82L93.74 19.81L93.66 19.73Q94.53 20.90 96.25 23.49Z"/><path fill="#e2b83a" d="M27.47 40.90L27.52 40.95L27.56 40.99Q26.21 39.26 24.92 36.18L24.85 36.11L22.89 31.14L22.80 31.05Q21.20 35.04 20.59 36.34L20.56 36.31L20.58 36.33Q19.07 39.20 17.47 41.10L17.56 41.19L17.48 41.12Q17.12 41.13 16.36 41.25L16.36 41.25L16.47 41.35Q16.42 33.88 10.60 27.95L10.49 27.84L10.51 27.86Q8.85 26.13 6.84 24.64L6.83 24.63L6.80 24.61Q8.69 25.21 10.56 25.51L10.59 25.54L10.54 25.49Q16.58 30.43 18.02 36.67L18.14 36.78L17.97 36.61Q18.94 34.84 20.12 31.64L20.19 31.72L20.18 31.71Q21.46 27.89 22.04 26.59L22.05 26.61L23.46 26.61L23.44 26.59Q24.34 28.32 25.52 31.60L25.42 31.50L25.47 31.55Q26.76 35.16 27.40 36.57L27.47 36.63L27.41 36.58Q29.22 30.27 34.70 25.71L34.76 25.77L34.74 25.75Q36.00 25.71 38.74 25.14L38.69 25.09L38.66 25.06Q29.98 31.03 28.80 41.01L28.85 41.06L28.12 40.86L28.21 40.95Q27.96 41.01 27.62 41.05ZM30.48 43.37L32.58 43.61L32.56 43.59Q32.26 42.07 32.26 40.55L32.25 40.54L32.29 40.58Q32.26 37.32 33.67 34.08L33.60 34.01L33.70 34.11Q35.66 29.56 39.77 26.48L39.82 26.53L39.69 26.40Q38.43 26.62 36.56 26.96L36.69 27.09L36.64 27.04Q38.63 25.42 39.93 24.50L39.87 24.44L37.40 24.94L37.47 25.01Q36.12 25.11 34.79 25.26L34.77 25.25L34.84 25.31Q29.62 29.49 27.67 34.52L27.78 34.62L27.72 34.56Q27.07 32.39 25.70 28.12L25.68 28.10L25.70 28.13Q25.37 28.14 25.11 28.14L25.25 28.28L24.60 28.17L24.61 28.17Q24.47 27.85 23.67 26.09L23.70 26.13L21.69 26.18L21.71 26.19Q20.72 28.97 18.62 34.60L18.56 34.54L18.67 34.65Q17.36 30.98 14.28 27.71L14.21 27.64L14.25 27.68Q13.99 27.68 13.68 27.65L13.53 27.49L13.05 27.47L13.09 27.51Q12.30 26.75 10.51 25.15L10.50 25.15L10.45 25.10Q7.29 24.45 5.62 23.96L5.64 23.98L5.52 23.86Q16.40 31.47 16.02 41.79L15.98 41.74L15.86 41.62Q16.06 41.63 16.42 41.59L16.41 41.58L16.56 41.74Q16.88 41.65 17.07 41.65L17.07 41.66L17.13 41.72Q16.98 41.41 17.17 43.50L17.20 43.53L19.21 43.46L19.18 43.42Q21.82 40.66 24.07 34.91L23.99 34.83L24.10 34.94Q25.56 38.76 27.43 41.43L27.44 41.44L27.31 41.31Q27.64 41.30 27.91 41.32L27.93 41.34L28.01 41.42Q28.22 41.39 28.49 41.39L28.52 41.42L30.52 43.41Z"/><path fill="#ef9b7f" d="M46.57 40.20L46.63 40.26L44.17 33.35L44.22 33.40Q39.76 20.72 33.83 14.33L33.93 14.43L33.91 14.41Q35.92 15.47 38.51 16.08L38.41 15.98L38.49 16.06Q43.59 22.31 47.93 35.06L48.02 35.14L47.93 35.06Q50.93 26.90 51.61 25.30L51.61 25.30L51.59 25.28Q54.04 19.73 56.86 16.42L56.95 16.51L56.85 16.41Q58.83 15.95 61.45 15.08L61.55 15.17L61.55 15.18Q57.01 19.81 53.97 27.05L53.84 26.92L53.94 27.01Q52.47 30.61 48.78 40.13L48.94 40.29L48.78 40.13Q48.30 40.22 47.73 40.18L47.69 40.15L47.74 40.20Q47.07 40.10 46.50 40.14ZM51.53 42.58L51.59 42.63L51.65 42.70Q54.44 32.69 56.00 28.66L55.88 28.54L55.83 28.48Q58.92 20.88 63.33 16.00L63.31 15.98L63.39 16.06Q62.31 16.39 60.22 17.11L60.23 17.12L61.39 15.82L61.39 15.82Q61.91 15.08 62.52 14.43L62.62 14.53L62.60 14.51Q59.69 15.41 56.68 15.98L56.71 16.00L56.69 15.99Q52.26 21.27 48.38 32.72L48.44 32.79L48.53 32.88Q44.89 22.77 41.69 18.39L41.69 18.38L41.68 18.38Q41.17 18.17 40.29 18.01L40.29 18.01L40.31 18.03Q40.12 17.69 38.52 15.64L38.60 15.72L38.60 15.72Q35.51 14.86 32.80 13.46L32.84 13.49L32.82 13.47Q39.54 20.65 43.92 33.44L43.85 33.38L43.92 33.44Q45.16 37.12 46.34 40.70L46.21 40.56L46.16 40.52Q46.61 40.67 47.45 40.55L47.56 40.66L47.41 40.52Q47.88 41.33 48.57 42.66L48.55 42.64L48.44 42.53Q49.38 42.56 50.10 42.63L49.97 42.50L50.04 42.57Q50.73 42.54 51.49 42.54Z"/></svg>